<svg xmlns="http://www.w3.org/2000/svg" width="238" height="226" viewBox="0 0 238 226" fill="none">
    <path
        d="M161.732 76.2821L146.609 68.8689C146.609 68.8689 151.936 48.1497 137.156 32.7402C137.131 32.7106 137.114 32.6937 137.092 32.6642C130.135 23.9583 118.342 17.6982 107.237 17.4067C97.2509 17.1406 87.9832 20.672 82.5848 29.3736C80.9247 32.0474 79.7927 34.9241 79.121 37.9063C78.0819 42.5274 78.1622 47.3809 79.121 52.0781C79.4294 53.5776 79.8265 55.0687 80.308 56.5176C82.6904 63.7112 86.9779 70.305 92.5114 75.4753C93.7322 76.6158 95.0079 77.693 96.3469 78.6899C99.8275 81.3004 103.583 83.5265 107.469 85.4738L103.177 96.3212L86.1753 139.306C86.1415 139.394 86.1119 139.483 86.0866 139.572C85.9641 140.066 85.9007 140.573 85.9007 141.071C85.9007 142.039 86.1204 142.993 86.5597 143.872L86.6442 144.037C86.6906 144.125 86.7455 144.214 86.8047 144.303C87.3918 145.152 90.8133 150.28 91.5737 156.519C92.1355 161.119 91.2526 166.327 86.716 170.864C86.716 170.864 86.2133 171.468 85.2333 172.262C81.5879 175.227 71.3445 180.866 56.2138 167.641C56.1547 167.594 56.0997 167.539 56.0533 167.489C54.8917 166.23 41.6153 151.277 54.1018 137.658C54.1018 137.658 55.4239 136.002 58.0766 134.706C60.2985 133.616 63.4623 132.771 67.5597 133.379C68.0835 133.455 68.62 133.32 69.0593 133.024L69.2198 132.919L69.5577 132.695C69.921 132.458 70.1998 132.108 70.3603 131.706L85.8374 92.038C86.1753 91.1594 85.8965 90.1625 85.1488 89.588C79.9743 85.5963 60.7589 68.8984 60.7589 40.9518C60.7589 40.5674 60.7632 40.1746 60.7716 39.7817C60.7758 39.3889 60.7885 39.0003 60.8054 38.6032C60.8181 38.2231 60.8349 37.8513 60.8518 37.4712C60.8561 37.412 60.8561 37.3571 60.8645 37.298V37.2811C60.8899 36.8798 60.9194 36.4743 60.9532 36.0646C60.9701 35.7815 60.9997 35.4943 61.025 35.2113C61.0377 35.0888 61.0504 34.9578 61.0673 34.8311C61.0926 34.5228 61.1264 34.2186 61.1602 33.9103C61.2024 33.5259 61.2489 33.1415 61.2954 32.7529C61.3587 32.2418 61.439 31.7349 61.515 31.2237C61.515 31.2237 61.7178 30.1466 62.2796 28.3852C62.4655 27.8149 62.6809 27.1771 62.9428 26.4885C63.0315 26.2562 63.1286 26.0154 63.2216 25.7704C63.7791 24.3765 64.4972 22.8009 65.4223 21.1282C65.5237 20.9423 65.6251 20.7564 65.7349 20.5664C66.1573 19.8271 66.6177 19.0668 67.1289 18.2938C67.2598 18.091 67.395 17.8841 67.5428 17.6813C67.6738 17.487 67.8089 17.2842 67.9526 17.0899C68.1426 16.8238 68.3369 16.5577 68.5397 16.2916C68.772 15.9832 69.0086 15.6706 69.2578 15.3623L69.2747 15.3454C75.1208 8.02081 85.1319 0.860964 101.952 0.514588C101.952 0.514588 130.283 -0.921595 150.458 24.706C172.397 52.5765 161.723 76.2948 161.723 76.2948L161.732 76.2821Z"
        fill="#FDC501" />
    <path
        d="M85.8365 92.0253L70.3594 131.694C70.1989 132.095 69.9201 132.446 69.5569 132.682L69.2189 132.906L69.0584 133.012C68.6191 133.307 68.0784 133.443 67.5589 133.366C63.4615 132.762 60.3019 133.603 58.0758 134.693L67.4448 109.479C49.6572 96.4352 44.3179 75.6781 44.3179 75.6781C44.1532 75.0867 44.0053 74.4911 43.8786 73.8913C43.8786 73.8913 43.8744 73.8659 43.8617 73.8195C43.8195 73.604 43.6885 72.9662 43.528 71.9989C42.7254 67.2552 41.7708 54.9462 44.9093 46.6205C47.6043 39.4649 48.4153 34.4636 63.263 22.1588L62.2788 28.3598C61.7169 30.1212 61.5142 31.1984 61.5142 31.1984C61.1932 33.2724 60.982 35.2957 60.8637 37.2684C59.0853 67.4157 79.7496 85.3935 85.1438 89.5584C85.8914 90.1329 86.1702 91.1298 85.8323 92.0084L85.8365 92.0253Z"
        fill="#C69200" />
    <path
        d="M43.5371 72.0116C43.6976 72.9789 43.8286 73.6168 43.8708 73.8322C43.7356 73.2281 43.6258 72.6241 43.5371 72.0116Z"
        fill="#C69200" />
    <path
        d="M69.2653 15.3496C65.3031 20.3129 63.2587 25.348 62.2871 28.3767L63.2713 22.1757C66.5788 18.1079 69.0288 15.5946 69.2653 15.3496Z"
        fill="#C69200" />
    <path
        d="M62.2842 28.3767L60.8691 37.2895C60.9874 35.3169 61.2028 33.2936 61.5197 31.2195C61.5197 31.2195 61.7224 30.1424 62.2842 28.3809V28.3767Z"
        fill="#C69200" />
    <path
        d="M200.635 168.11C200.297 168.448 199.943 168.773 199.567 169.081C194.937 172.946 187.38 175.341 175.684 169.449C173.065 168.131 169.74 165.909 167.354 161.169L166.167 159.395L121.184 161.009C121.184 161.009 122.92 169.613 119.144 179.57C117.725 183.304 115.532 187.236 112.179 190.97C112.179 190.97 111.051 192.795 108.639 195.186C102.032 201.755 85.7484 212.606 56.5979 201.835C56.5979 201.835 21.5718 188.309 18.4755 146.808C18.4755 146.808 17.9771 131.238 27.1222 118.654C32.8079 110.839 42.2149 104.174 57.7722 103.105L61.3796 118.51C61.3796 118.51 47.871 120.884 40.7069 131.347C39.7945 132.682 38.975 134.152 38.3034 135.778C38.3034 135.778 37.7163 137.248 37.1418 139.745C36.3096 143.356 35.4986 149.11 36.5293 155.632C37.7754 163.505 41.6953 172.503 51.4826 180.212C55.5799 183.439 62.0513 187.089 69.3969 188.584C74.4447 189.623 79.9107 189.631 85.3049 187.781C88.5532 186.679 91.7804 184.892 94.8767 182.256C96.8747 180.554 98.8135 178.497 100.676 176.034C102.045 174.226 103.566 171.037 104.448 166.741C104.448 166.716 104.453 166.695 104.461 166.678C104.546 166.285 104.613 165.888 104.685 165.486C104.829 164.633 104.947 163.729 105.036 162.796C105.492 157.858 105.078 151.868 102.978 145.114C102.978 145.097 102.974 145.084 102.966 145.067H103.025L138.017 143.741L140.341 143.652L161.41 142.854L162.555 142.812H162.817C164.046 142.807 165.098 141.933 165.339 140.729L165.512 139.834C165.512 139.834 166.133 138.427 167.506 136.687C171.012 132.222 179.397 125.527 194.684 134.423C194.684 134.423 204.42 139.504 205.962 152.278C206.667 158.12 204.788 164.029 200.644 168.114L200.635 168.11Z"
        fill="#FDC501" />
    <path
        d="M100.642 176.03C95.8726 182.298 90.584 185.927 85.2363 187.731C88.2016 176.44 85.2363 172.262 85.2363 172.262C86.2163 171.468 86.719 170.864 86.719 170.864C91.2557 166.327 92.1385 161.123 91.5767 156.519L103.028 145.067C107.772 160.485 103.797 171.882 100.646 176.034L100.642 176.03Z"
        fill="#C69200" />
    <path
        d="M61.518 118.384L43.1348 137.95C43.1348 137.95 39.6794 138.482 37.2168 139.546C37.7997 137.05 38.3911 135.58 38.3911 135.58C44.3217 121.349 61.518 118.384 61.518 118.384Z"
        fill="#C69200" />
    <path
        d="M108.638 195.19L90.2803 213.734L87.1798 216.864C65.882 231.758 43.3169 222.867 43.3169 222.867C5.89984 207.504 1.67152 177.403 1.67152 177.403C-4.93496 150.145 11.7629 134.989 11.7629 134.989L14.8422 131.715H14.8465L27.1217 118.658C17.9765 131.242 18.475 146.812 18.475 146.812C21.5712 188.314 56.5974 201.839 56.5974 201.839C85.7479 212.615 102.032 201.763 108.638 195.19Z"
        fill="#E2AC00" />
    <path
        d="M228.417 187.731C228.417 187.731 227.302 189.289 225.012 191.401H225.008C219.124 196.833 205.48 205.882 183.08 201.4C172.655 199.313 157.879 192.804 147.204 178.569L159.066 170.268C159.066 170.268 167.391 179.582 179.451 183.887C181.069 184.461 182.754 184.947 184.49 185.31C186.991 185.834 189.606 186.1 192.305 186.003C195.008 185.914 197.796 185.45 200.635 184.537C203.731 183.54 206.887 181.986 210.059 179.751C210.059 179.751 234.373 161.964 208.872 130.536C208.872 130.536 185.154 105.04 157.874 125.201L118.219 72.924C118.219 72.924 101.546 71.8342 95.02 61.1599C91.7885 55.8713 86.4746 46.3713 94.4793 36.356H94.4835C94.7454 36.0223 95.0242 35.6928 95.3157 35.3676C95.3157 35.3676 108.36 21.728 126.743 38.9243C126.743 38.9243 137.417 49.0029 132.078 62.0512L130.891 65.0165L149.392 89.4191L158.762 101.783L159.948 103.561L162.914 102.374C162.914 102.374 196.715 89.9217 225.768 126.688C225.768 126.688 251.223 156.869 228.413 187.735L228.417 187.731Z"
        fill="#FDC501" />
    <path
        d="M157.879 125.201L140.509 143.483C140.475 143.517 140.446 143.547 140.42 143.572C140.366 143.618 140.344 143.648 140.344 143.648L138.021 143.737L103.185 96.3169L107.477 85.4695C103.586 83.5264 99.8354 81.2961 96.3548 78.6856C95.0157 77.6887 93.74 76.6116 92.5193 75.4711C86.9857 70.3008 82.6983 63.707 80.3159 56.5133C79.8343 55.0602 79.4373 53.5734 79.1289 52.0738L93.4317 37.4331L94.4877 36.356C86.483 46.3713 91.797 55.8713 95.0284 61.1598C101.55 71.8341 118.227 72.9239 118.227 72.9239L157.883 125.201H157.879Z"
        fill="#C69200" />
    <path d="M138.018 143.737L140.345 143.648L138.998 145.067L138.018 143.737Z" fill="#FDC501" />
    <path
        d="M167.502 136.682C166.133 138.427 165.508 139.829 165.508 139.829L165.335 140.725C165.098 141.929 164.042 142.799 162.813 142.807H162.551L161.406 142.85L166.889 137.295L167.493 136.682H167.502Z"
        fill="#C69200" />
    <path
        d="M210.059 179.755C206.886 181.99 203.731 183.545 200.635 184.541C203.963 177.17 200.635 168.11 200.635 168.11C204.779 164.025 206.658 158.111 205.953 152.274C204.411 139.5 194.674 134.418 194.674 134.418C179.387 125.522 171.003 132.218 167.497 136.682L166.893 137.295C150.638 133.958 141.358 142.643 140.416 143.576L157.874 125.206C185.149 105.044 208.872 130.541 208.872 130.541C234.368 161.968 210.059 179.755 210.059 179.755Z"
        fill="#C69200" />
    <path
        d="M85.2373 172.262L69.397 188.588C62.0513 187.093 55.58 183.439 51.4826 180.216C41.6911 172.507 37.7712 163.514 36.5293 155.636L54.1057 137.658C41.6193 151.277 54.8957 166.234 56.0573 167.489C56.1037 167.544 56.1586 167.594 56.2178 167.641C71.3485 180.862 81.5919 175.223 85.2373 172.262Z"
        fill="#C69200" />
    <path
        d="M225.008 191.406C220.087 196.838 206.105 210.367 206.105 210.367C206.059 210.414 206.012 210.46 205.961 210.511C191.029 225.24 168.253 220.966 168.253 220.966C143.939 218 128.525 197.839 128.525 197.839L138.325 187.731L138.431 187.617L147.2 178.568C157.874 192.799 172.65 199.309 183.075 201.4C205.476 205.881 219.124 196.833 225.004 191.41L225.008 191.406Z"
        fill="#E2AC00" />
    <path
        d="M200.636 168.11L184.491 185.31C182.755 184.947 181.07 184.461 179.452 183.887C167.392 179.582 159.066 170.268 159.066 170.268L147.205 178.569L119.145 179.57C122.921 169.613 121.185 161.009 121.185 161.009L166.167 159.395L167.354 161.169C169.745 165.909 173.065 168.131 175.684 169.449C187.385 175.341 194.937 172.946 199.567 169.081C199.939 168.773 200.298 168.448 200.636 168.11Z"
        fill="#C69200" />
    <path
        d="M161.731 76.2821L149.397 89.4148L130.895 65.0122L132.082 62.0469C137.417 49.0029 126.747 38.92 126.747 38.92C108.364 21.7237 95.3202 35.3633 95.3202 35.3633C95.0287 35.6886 94.7499 36.0223 94.488 36.3475H94.4838L93.4278 37.4331C87.3916 34.7593 79.125 37.902 79.125 37.902C79.7966 34.9198 80.9287 32.0432 82.5888 29.3693C87.9829 20.6719 97.2548 17.1363 107.241 17.4025C118.346 17.6939 130.139 23.954 137.096 32.6599C137.122 32.6895 137.139 32.7063 137.16 32.7359C151.936 48.1454 146.613 68.8646 146.613 68.8646L161.736 76.2779L161.731 76.2821Z"
        fill="#C69200" />
</svg>