<svg width="516" height="516" viewBox="0 0 516 516" fill="none" xmlns="http://www.w3.org/2000/svg">
<path d="M331.497 194.845L305.487 182.094C305.487 182.094 314.648 146.457 289.227 119.953C289.183 119.902 289.154 119.873 289.118 119.822C277.152 104.848 256.866 94.0809 237.766 93.5796C220.59 93.1219 204.65 99.1958 195.364 114.163C192.509 118.762 190.562 123.709 189.407 128.839C187.619 136.787 187.758 145.135 189.407 153.214C189.937 155.794 190.62 158.358 191.448 160.85C195.546 173.223 202.921 184.565 212.438 193.458C214.538 195.419 216.732 197.272 219.035 198.987C225.022 203.477 231.481 207.305 238.165 210.655L230.783 229.313L201.54 303.246C201.482 303.398 201.431 303.551 201.388 303.703C201.177 304.553 201.068 305.425 201.068 306.283C201.068 307.946 201.446 309.588 202.201 311.1L202.347 311.383C202.426 311.535 202.521 311.688 202.623 311.841C203.633 313.301 209.518 322.121 210.825 332.852C211.792 340.764 210.273 349.723 202.47 357.526C202.47 357.526 201.605 358.565 199.92 359.931C193.65 365.031 176.031 374.73 150.006 351.982C149.905 351.902 149.81 351.808 149.73 351.721C147.732 349.556 124.897 323.836 146.374 300.412C146.374 300.412 148.648 297.564 153.21 295.334C157.032 293.459 162.474 292.006 169.521 293.052C170.422 293.183 171.345 292.95 172.101 292.442L172.377 292.26L172.958 291.875C173.583 291.468 174.062 290.865 174.338 290.175L200.959 221.945C201.54 220.434 201.061 218.719 199.775 217.731C190.874 210.866 157.824 182.145 157.824 134.077C157.824 133.416 157.831 132.74 157.846 132.065C157.853 131.389 157.875 130.721 157.904 130.038C157.926 129.384 157.955 128.744 157.984 128.09C157.991 127.989 157.991 127.894 158.006 127.793V127.763C158.049 127.073 158.1 126.376 158.158 125.671C158.187 125.184 158.238 124.69 158.282 124.203C158.303 123.993 158.325 123.767 158.354 123.55C158.398 123.019 158.456 122.496 158.514 121.966C158.587 121.304 158.667 120.643 158.747 119.975C158.856 119.096 158.994 118.224 159.124 117.345C159.124 117.345 159.473 115.492 160.439 112.462C160.759 111.482 161.13 110.385 161.58 109.2C161.733 108.801 161.9 108.387 162.06 107.965C163.019 105.568 164.254 102.858 165.845 99.9804C166.019 99.6608 166.194 99.3411 166.383 99.0141C167.109 97.7427 167.901 96.4349 168.78 95.1053C169.005 94.7566 169.238 94.4006 169.492 94.0518C169.717 93.7176 169.95 93.3689 170.197 93.0347C170.524 92.577 170.858 92.1192 171.207 91.6615C171.606 91.1311 172.013 90.5935 172.442 90.0631L172.471 90.0341C182.526 77.4358 199.746 65.1209 228.676 64.5251C228.676 64.5251 277.406 62.0549 312.106 106.134C349.842 154.072 331.482 194.867 331.482 194.867L331.497 194.845Z" fill="#FDC501"/>
<path d="M200.959 221.924L174.338 290.153C174.062 290.843 173.582 291.446 172.958 291.853L172.376 292.238L172.1 292.42C171.345 292.929 170.415 293.161 169.521 293.03C162.473 291.991 157.039 293.437 153.21 295.312L169.325 251.944C138.73 229.509 129.547 193.806 129.547 193.806C129.263 192.789 129.009 191.765 128.791 190.733C128.791 190.733 128.784 190.689 128.762 190.609C128.689 190.239 128.464 189.142 128.188 187.478C126.807 179.319 125.165 158.147 130.564 143.827C135.199 131.52 136.594 122.917 162.132 101.753L160.439 112.419C159.473 115.449 159.124 117.301 159.124 117.301C158.572 120.869 158.209 124.349 158.005 127.742C154.946 179.595 190.489 210.517 199.767 217.681C201.053 218.669 201.532 220.383 200.951 221.894L200.959 221.924Z" fill="#C69200"/>
<path d="M128.203 187.5C128.479 189.164 128.704 190.261 128.777 190.631C128.545 189.592 128.356 188.553 128.203 187.5Z" fill="#C69200"/>
<path d="M172.458 90.0413C165.643 98.5781 162.126 107.239 160.455 112.448L162.148 101.782C167.837 94.7856 172.051 90.4627 172.458 90.0413Z" fill="#C69200"/>
<path d="M160.448 112.448L158.014 127.778C158.217 124.385 158.588 120.905 159.133 117.338C159.133 117.338 159.481 115.485 160.448 112.455V112.448Z" fill="#C69200"/>
<path d="M398.413 352.789C397.832 353.37 397.221 353.929 396.575 354.46C388.612 361.108 375.614 365.227 355.496 355.092C350.991 352.825 345.273 349.003 341.169 340.852L339.127 337.8L261.757 340.575C261.757 340.575 264.743 355.375 258.248 372.5C255.807 378.922 252.036 385.687 246.267 392.109C246.267 392.109 244.327 395.248 240.179 399.36C228.816 410.658 200.808 429.323 150.669 410.796C150.669 410.796 90.4237 387.532 85.0981 316.149C85.0981 316.149 84.2408 289.369 99.9705 267.725C109.75 254.284 125.93 242.819 152.688 240.981L158.893 267.478C158.893 267.478 135.658 271.561 123.336 289.558C121.767 291.853 120.357 294.382 119.202 297.179C119.202 297.179 118.192 299.707 117.204 304.001C115.773 310.213 114.378 320.109 116.151 331.327C118.294 344.869 125.036 360.345 141.87 373.604C148.918 379.155 160.048 385.432 172.683 388.004C181.365 389.792 190.767 389.806 200.045 386.624C205.632 384.728 211.183 381.654 216.508 377.121C219.945 374.193 223.279 370.654 226.484 366.419C228.838 363.309 231.453 357.824 232.972 350.435C232.972 350.391 232.979 350.355 232.993 350.326C233.139 349.65 233.255 348.967 233.378 348.277C233.625 346.809 233.829 345.254 233.981 343.649C234.766 335.155 234.054 324.853 230.443 313.236C230.443 313.207 230.436 313.185 230.421 313.156H230.523L290.71 310.874L294.706 310.722L330.946 309.349L332.915 309.276H333.365C335.48 309.269 337.289 307.765 337.703 305.694L338.001 304.154C338.001 304.154 339.069 301.734 341.43 298.741C347.46 291.062 361.882 279.546 388.176 294.847C388.176 294.847 404.923 303.587 407.575 325.558C408.788 335.606 405.555 345.77 398.427 352.796L398.413 352.789Z" fill="#FDC501"/>
<path d="M226.425 366.411C218.222 377.193 209.126 383.434 199.928 386.537C205.028 367.116 199.928 359.931 199.928 359.931C201.613 358.565 202.478 357.526 202.478 357.526C210.281 349.723 211.799 340.772 210.833 332.852L230.53 313.156C238.689 339.674 231.852 359.277 226.432 366.419L226.425 366.411Z" fill="#C69200"/>
<path d="M159.132 267.26L127.513 300.913C127.513 300.913 121.57 301.829 117.334 303.66C118.337 299.366 119.354 296.838 119.354 296.838C129.554 272.36 159.132 267.26 159.132 267.26Z" fill="#C69200"/>
<path d="M240.178 399.367L208.602 431.263L203.269 436.646C166.637 462.264 127.825 446.971 127.825 446.971C63.4679 420.546 56.1952 368.773 56.1952 368.773C44.832 321.889 73.5523 295.82 73.5523 295.82L78.8488 290.19H78.8561L99.9695 267.732C84.2398 289.376 85.0971 316.156 85.0971 316.156C90.4227 387.539 150.668 410.803 150.668 410.803C200.806 429.337 228.815 410.672 240.178 399.367Z" fill="#E2AC00"/>
<path d="M446.198 386.537C446.198 386.537 444.279 389.218 440.342 392.85H440.334C430.214 402.194 406.746 417.756 368.218 410.048C350.286 406.458 324.872 395.262 306.512 370.778L326.914 356.501C326.914 356.501 341.234 372.522 361.977 379.925C364.759 380.913 367.658 381.749 370.644 382.374C374.945 383.274 379.443 383.732 384.085 383.565C388.735 383.413 393.53 382.613 398.413 381.044C403.738 379.329 409.166 376.656 414.622 372.812C414.622 372.812 456.442 342.217 412.58 288.163C412.58 288.163 371.785 244.308 324.865 278.986L256.657 189.069C256.657 189.069 227.98 187.195 216.755 168.835C211.197 159.739 202.057 143.399 215.825 126.172H215.832C216.283 125.598 216.762 125.032 217.264 124.472C217.264 124.472 239.699 101.012 271.318 130.59C271.318 130.59 289.678 147.925 280.495 170.368L278.453 175.468L310.276 217.441L326.39 238.707L328.432 241.765L333.532 239.724C333.532 239.724 391.67 218.305 441.642 281.544C441.642 281.544 485.424 333.455 446.19 386.544L446.198 386.537Z" fill="#FDC501"/>
<path d="M324.871 278.986L294.996 310.431C294.938 310.489 294.887 310.54 294.843 310.584C294.749 310.664 294.713 310.714 294.713 310.714L290.717 310.867L230.799 229.305L238.18 210.648C231.489 207.305 225.037 203.469 219.05 198.979C216.747 197.265 214.553 195.412 212.453 193.45C202.936 184.557 195.561 173.216 191.463 160.843C190.635 158.344 189.952 155.786 189.422 153.207L214.023 128.025L215.839 126.172C202.071 143.399 211.211 159.739 216.769 168.835C227.987 187.195 256.671 189.069 256.671 189.069L324.879 278.986H324.871Z" fill="#C69200"/>
<path d="M290.709 310.867L294.712 310.714L292.395 313.156L290.709 310.867Z" fill="#FDC501"/>
<path d="M341.422 298.734C339.068 301.734 337.992 304.147 337.992 304.147L337.694 305.687C337.287 307.757 335.471 309.254 333.357 309.269H332.906L330.938 309.341L340.368 299.787L341.407 298.734H341.422Z" fill="#C69200"/>
<path d="M414.621 372.819C409.165 376.663 403.738 379.337 398.412 381.051C404.137 368.373 398.412 352.789 398.412 352.789C405.539 345.763 408.773 335.591 407.559 325.55C404.907 303.58 388.16 294.839 388.16 294.839C361.867 279.538 347.445 291.054 341.415 298.734L340.376 299.787C312.418 294.048 296.456 308.985 294.836 310.591L324.864 278.994C371.777 244.316 412.58 288.17 412.58 288.17C456.434 342.225 414.621 372.819 414.621 372.819Z" fill="#C69200"/>
<path d="M199.928 359.931L172.683 388.012C160.048 385.44 148.918 379.155 141.87 373.611C125.029 360.352 118.286 344.884 116.15 331.334L146.382 300.412C124.905 323.836 147.741 349.563 149.739 351.721C149.818 351.815 149.913 351.902 150.015 351.982C176.039 374.723 193.658 365.024 199.928 359.931Z" fill="#C69200"/>
<path d="M440.335 392.858C431.87 402.201 407.822 425.472 407.822 425.472C407.742 425.552 407.662 425.632 407.575 425.719C381.891 451.054 342.716 443.701 342.716 443.701C300.896 438.601 274.385 403.923 274.385 403.923L291.241 386.537L291.422 386.34L306.505 370.778C324.865 395.255 350.28 406.451 368.211 410.048C406.739 417.756 430.214 402.194 440.327 392.865L440.335 392.858Z" fill="#E2AC00"/>
<path d="M398.413 352.789L370.644 382.374C367.658 381.749 364.759 380.913 361.977 379.925C341.234 372.522 326.914 356.501 326.914 356.501L306.512 370.778L258.248 372.5C264.743 355.375 261.757 340.575 261.757 340.575L339.127 337.8L341.169 340.851C345.281 349.003 350.991 352.825 355.496 355.092C375.621 365.227 388.612 361.108 396.575 354.46C397.214 353.929 397.832 353.37 398.413 352.789Z" fill="#C69200"/>
<path d="M331.497 194.845L310.282 217.433L278.459 175.461L280.501 170.361C289.677 147.925 271.325 130.582 271.325 130.582C239.705 101.005 217.27 124.465 217.27 124.465C216.768 125.024 216.289 125.598 215.838 126.158H215.831L214.015 128.025C203.633 123.426 189.414 128.831 189.414 128.831C190.569 123.702 192.516 118.754 195.372 114.155C204.65 99.1957 220.597 93.1145 237.773 93.5723C256.874 94.0736 277.159 104.841 289.125 119.815C289.169 119.866 289.198 119.895 289.234 119.946C314.648 146.45 305.494 182.087 305.494 182.087L331.504 194.838L331.497 194.845Z" fill="#C69200"/>
</svg>
