<svg id="Layer_1" data-name="Layer 1" xmlns="http://www.w3.org/2000/svg" viewBox="0 0 81.71 78.75"><defs><style>.cls-1{fill:#121212;}</style></defs><polygon class="cls-1" points="44.94 34.66 40.85 37.02 44.94 39.37 49.02 41.73 53.11 44.09 57.2 46.45 61.28 48.81 61.28 58.24 57.2 55.88 53.11 53.53 49.02 51.17 44.94 48.81 40.85 46.45 40.85 51.17 36.77 53.53 32.68 55.88 28.6 58.24 24.52 60.6 20.43 62.96 20.43 53.53 24.52 51.17 28.6 48.81 32.68 46.45 36.77 44.09 40.85 41.73 36.77 39.37 32.68 37.02 28.6 34.66 24.52 32.3 20.43 29.94 20.43 20.51 24.52 22.87 28.6 25.22 32.68 27.59 36.77 29.94 40.85 32.3 40.85 27.59 44.94 25.22 49.02 22.87 53.11 20.51 57.2 18.15 57.2 18.15 61.28 15.79 61.28 25.22 57.2 27.59 53.11 29.94 49.02 32.3 44.94 34.65 44.94 34.66"/></svg>