<svg width="137" height="32" viewBox="0 0 137 32" fill="none" xmlns="http://www.w3.org/2000/svg">
<g id="Group 33657">
<path id="Vector" d="M28.3445 15.2619V15.2618H23.4636V28.6031H28.7711H28.7726V28.6031C29.4955 28.6144 30.2155 28.511 30.906 28.2967L28.3445 15.2619ZM28.3445 15.2619L28.3462 15.2618M28.3445 15.2619L28.3462 15.2618M28.3462 15.2618C29.1416 15.2473 29.9355 15.3338 30.7091 15.5192L30.7092 15.5193M28.3462 15.2618L30.7092 15.5193M30.7092 15.5193C31.2744 15.6538 31.8079 15.8975 32.2796 16.2367C32.6646 16.5225 32.9663 16.906 33.1534 17.3476C33.3425 17.8161 33.436 18.3176 33.4285 18.8228L33.4285 18.8246C33.4296 19.1122 33.3872 19.3984 33.3028 19.6734C33.2176 19.9468 33.0854 20.2033 32.9121 20.4314C32.7165 20.6839 32.4827 20.9044 32.2192 21.0849C31.9012 21.3011 31.5564 21.4749 31.1934 21.6017L30.8855 21.7093L31.2024 21.7865C32.0803 22.0003 32.7185 22.3422 33.129 22.8042M30.7092 15.5193L33.129 22.8042M33.129 22.8042C33.5543 23.3089 33.775 23.9547 33.7475 24.6142L33.7474 24.6142L33.7474 24.619C33.7518 25.1579 33.6404 25.6914 33.4207 26.1835C33.2006 26.6697 32.8749 27.1008 32.4674 27.4454C32.0079 27.8289 31.4774 28.1182 30.9061 28.2966L33.129 22.8042ZM26.4095 17.4176L26.5057 17.4174L28.3355 17.4134C28.6489 17.4088 28.9619 17.438 29.269 17.5005C29.5136 17.5463 29.7445 17.6474 29.9441 17.7961L29.9461 17.7976L29.9461 17.7977C30.1296 17.9422 30.2691 18.135 30.3489 18.3545L30.3496 18.3564L30.3495 18.3564C30.4417 18.6279 30.484 18.9137 30.4746 19.2002C30.4831 19.4918 30.4285 19.7818 30.3145 20.0504L30.3134 20.0529L30.3134 20.0529C30.2096 20.2791 30.0426 20.4705 29.8325 20.604L29.831 20.605L29.831 20.605C29.6027 20.744 29.3493 20.8367 29.0853 20.8778C29.0851 20.8779 29.0848 20.8779 29.0846 20.8779L29.0697 20.7826L26.4095 17.4176ZM26.4095 17.4176V17.5139V20.8578V20.9543H26.5059H28.1307L26.4095 17.4176ZM30.828 24.556C30.8313 24.3194 30.7969 24.0838 30.7261 23.858L30.7259 23.8573C30.6577 23.6456 30.5324 23.4569 30.3638 23.3119L30.3638 23.3119L30.3616 23.3101C30.1667 23.1521 29.9402 23.0378 29.6973 22.9748L29.6965 22.9746C29.3671 22.8921 29.0282 22.8543 28.6887 22.862H26.5059H26.4095V22.9584V26.3267V26.4233L26.506 26.4232L28.7147 26.4212C29.0716 26.4333 29.4276 26.3784 29.7642 26.2592L29.7642 26.2592L29.7659 26.2586C30.0114 26.1666 30.2325 26.0192 30.4119 25.8279L30.4119 25.8279L30.4131 25.8265C30.5693 25.6533 30.6819 25.4453 30.7415 25.2198L30.7416 25.2197C30.7985 25.003 30.8275 24.78 30.828 24.556ZM30.828 24.556C30.828 24.5562 30.828 24.5564 30.828 24.5566L30.7316 24.5552L30.828 24.5554C30.828 24.5556 30.828 24.5558 30.828 24.556ZM41.09 28.0634C40.8976 28.2056 40.6904 28.3268 40.4721 28.4246L40.472 28.4247C40.2426 28.5273 40.0033 28.6062 39.7578 28.6601C39.4821 28.7182 39.201 28.7468 38.9192 28.7453L38.9169 28.7454C38.4507 28.7542 37.988 28.6635 37.5597 28.4792C37.1782 28.3097 36.8397 28.0569 36.5687 27.7394C36.292 27.4085 36.0842 27.0256 35.9575 26.6133L35.9575 26.6132C35.8139 26.1478 35.7434 25.6629 35.7484 25.1758V25.1748V19.1624H38.4322V25.1719C38.4072 25.5885 38.5288 26.0008 38.776 26.3371L38.7756 26.3374L38.7818 26.3443C38.9108 26.4888 39.0712 26.6019 39.2506 26.675C39.4289 26.7477 39.6214 26.779 39.8136 26.7665C40.1341 26.7675 40.4506 26.6946 40.7386 26.5536C41.0414 26.4078 41.3223 26.2202 41.5732 25.9965L41.6054 25.9677V25.9245V19.1624H44.2871V28.597H42.5958V28.5967L42.5876 28.5974C42.4545 28.6087 42.3217 28.5737 42.2115 28.4981C42.1014 28.4226 42.0208 28.3112 41.9835 28.183L41.9832 28.182L41.8146 27.6254L41.7686 27.4738L41.655 27.5842C41.4777 27.7564 41.289 27.9165 41.09 28.0633L41.09 28.0634ZM47.9737 31.6505L49.7649 27.8898L49.7838 27.8501L49.7662 27.8097L45.9816 19.1624H48.3776V19.1626L48.384 19.1622C48.5448 19.1516 48.7044 19.1972 48.8354 19.2912C48.9379 19.3731 49.018 19.4798 49.068 19.6012L50.6481 23.7505L50.6485 23.7515C50.7957 24.1251 50.9151 24.509 51.0059 24.9L51.0822 25.2287L51.1912 24.9094L51.3943 24.3142L51.3945 24.3137C51.4603 24.1175 51.5309 23.924 51.6061 23.7333L51.6062 23.7333L51.6076 23.7293L53.0288 19.5997C53.081 19.4722 53.1712 19.3638 53.2872 19.2893L53.2872 19.2894L53.2896 19.2878C53.4097 19.2054 53.5521 19.1617 53.6978 19.1624H53.6982H55.8847L50.7958 31.1526L50.7957 31.1526L50.7949 31.1547C50.7361 31.3028 50.6398 31.4331 50.5155 31.5327C50.3533 31.6241 50.1676 31.6652 49.9819 31.6507L49.9819 31.6505H49.9744H47.9737Z" fill="#808080" stroke="#808080" stroke-width="0.192908"/>
<g id="Group 33656">
<g id="Vector_2">
<mask id="path-2-inside-1_10658_14099" fill="white">
<path d="M62.2585 15.1655C63.0893 15.1483 63.9176 15.2628 64.7126 15.5048C65.3344 15.6954 65.91 16.013 66.4029 16.4373C66.8365 16.8197 67.1722 17.3003 67.3821 17.839C67.5968 18.3963 67.7043 18.989 67.699 19.5862C67.7055 20.2198 67.5953 20.8492 67.374 21.443C67.1618 21.9975 66.8214 22.4939 66.3805 22.8915C65.8873 23.3195 65.3103 23.6398 64.6862 23.8321C63.9002 24.0738 63.0807 24.1883 62.2585 24.1714H60.6333V28.6936H57.4844V15.1655H62.2585ZM62.2585 21.8046C63.0711 21.8046 63.6589 21.6096 64.0219 21.2195C64.3795 20.8295 64.5603 20.285 64.5603 19.5943C64.564 19.3065 64.5166 19.0203 64.4201 18.7492C64.3318 18.5008 64.1871 18.2762 63.9975 18.093C63.7936 17.9022 63.5501 17.7586 63.2844 17.6724C62.9531 17.5661 62.6064 17.5153 62.2585 17.5221H60.6333V21.8127L62.2585 21.8046ZM73.7327 18.9178C74.4138 18.9088 75.0908 19.0251 75.7297 19.2611C76.3087 19.4761 76.8356 19.8112 77.2757 20.2444C77.715 20.6864 78.0563 21.2159 78.2773 21.7985C78.5237 22.4562 78.6449 23.1542 78.6348 23.8565C78.6451 24.5641 78.5238 25.2674 78.2773 25.9307C78.0632 26.5168 77.7245 27.0494 77.2847 27.492C76.8449 27.9347 76.3144 28.2767 75.7297 28.4945C74.4345 28.9577 73.0187 28.9577 71.7235 28.4945C71.1407 28.274 70.6096 27.9359 70.1633 27.5011C69.716 27.0565 69.3696 26.5209 69.1475 25.9307C68.9 25.2676 68.7787 24.5641 68.79 23.8565C68.7788 23.1541 68.9001 22.456 69.1475 21.7985C69.3702 21.2134 69.7167 20.6832 70.1633 20.2444C70.6091 19.8114 71.1405 19.4765 71.7235 19.2611C72.3666 19.0248 73.0476 18.9085 73.7327 18.9178ZM73.7327 26.7068C74.395 26.7068 74.8826 26.4731 75.1954 26.0059C75.5083 25.5386 75.6654 24.8282 75.6668 23.8748C75.6668 22.9267 75.5103 22.2177 75.1975 21.7477C74.8846 21.2778 74.397 21.0462 73.7347 21.0529C73.0576 21.0529 72.5592 21.2845 72.2395 21.7477C71.9199 22.2109 71.7621 22.9199 71.7662 23.8748C71.7662 24.8228 71.924 25.5332 72.2395 26.0059C72.5551 26.4785 73.0528 26.7122 73.7327 26.7068ZM94.5297 19.0661L91.5393 28.6936H89.2009C89.0851 28.6968 88.9722 28.657 88.884 28.5819C88.7822 28.4799 88.7116 28.3509 88.6809 28.2101L87.3075 23.4095C87.2385 23.1942 87.1775 22.9809 87.1247 22.7696C87.0719 22.5665 87.0252 22.345 86.9825 22.1297C86.9378 22.345 86.8911 22.5624 86.8382 22.7798C86.7854 22.9971 86.7245 23.2125 86.6574 23.4299L85.2638 28.2101C85.2379 28.3508 85.1619 28.4773 85.0498 28.5662C84.9377 28.6551 84.7972 28.7004 84.6543 28.6936H82.4196L79.4292 19.0661H81.7309C81.9134 19.0595 82.0936 19.1092 82.247 19.2083C82.3776 19.2934 82.4768 19.419 82.5293 19.5659L83.4964 23.8849C83.5749 24.2127 83.646 24.5296 83.7097 24.8357C83.7706 25.1425 83.8275 25.4452 83.8763 25.76C83.9575 25.4492 84.0428 25.1506 84.1322 24.8357C84.2216 24.5208 84.3191 24.212 84.4248 23.8849L85.6315 19.5577C85.6833 19.4117 85.781 19.2863 85.9098 19.2002C86.0516 19.102 86.2209 19.0515 86.3933 19.0559H87.6732C87.8559 19.05 88.0361 19.1003 88.1892 19.2002C88.3197 19.2855 88.4189 19.411 88.4716 19.5577L89.6235 23.8849C89.717 24.2127 89.8084 24.531 89.8978 24.8398C89.9872 25.1506 90.0684 25.4614 90.1436 25.7783C90.1923 25.4695 90.2513 25.1689 90.3203 24.8499C90.3894 24.531 90.4646 24.2181 90.5519 23.8849L91.5677 19.5659C91.62 19.4201 91.7175 19.2948 91.846 19.2083C91.9875 19.1113 92.156 19.0615 92.3275 19.0661H94.5297ZM98.2901 24.3948C98.3836 25.1993 98.628 25.7824 99.0235 26.144C99.4444 26.5168 99.9935 26.7119 100.555 26.6885C100.848 26.6946 101.139 26.6535 101.419 26.5666C101.641 26.4945 101.857 26.4048 102.065 26.2984L102.585 26.0282C102.738 25.9495 102.908 25.9084 103.08 25.9084C103.181 25.902 103.281 25.9213 103.372 25.9643C103.463 26.0073 103.542 26.0726 103.601 26.1542L104.436 27.1862C104.158 27.5087 103.834 27.7887 103.475 28.0171C103.143 28.2252 102.788 28.393 102.416 28.5169C102.064 28.6363 101.7 28.7207 101.331 28.7688C100.988 28.8139 100.642 28.8369 100.295 28.8378C99.6475 28.8426 99.0041 28.7311 98.3957 28.5087C97.8156 28.2957 97.2872 27.962 96.8457 27.5295C96.3855 27.0678 96.0283 26.5139 95.7974 25.9043C95.5264 25.1869 95.3954 24.4241 95.4114 23.6574C95.408 23.0329 95.5196 22.4131 95.7405 21.829C95.9525 21.2615 96.278 20.7432 96.6972 20.3059C97.1164 19.8686 97.6204 19.5213 98.1784 19.2855C99.3725 18.8094 100.698 18.7799 101.912 19.2022C102.424 19.3886 102.889 19.6831 103.276 20.0656C103.668 20.4595 103.972 20.9326 104.167 21.4532C104.389 22.0481 104.498 22.6792 104.488 23.3141C104.49 23.4912 104.481 23.6684 104.46 23.8443C104.448 23.9584 104.414 24.0689 104.358 24.1693C104.312 24.2466 104.24 24.3054 104.155 24.3359C104.052 24.3698 103.944 24.3856 103.836 24.3827L98.2901 24.3948ZM101.91 22.7229C101.911 22.4972 101.882 22.2724 101.823 22.0545C101.767 21.8439 101.669 21.6468 101.534 21.4755C101.394 21.3014 101.214 21.1623 101.01 21.0692C100.762 20.957 100.492 20.9029 100.22 20.9107C99.986 20.8979 99.7519 20.9329 99.5318 21.0136C99.3118 21.0943 99.1105 21.2189 98.9402 21.38C98.6018 21.7562 98.3888 22.2283 98.3307 22.731L101.91 22.7229ZM109.116 20.5512C109.374 20.0811 109.723 19.6668 110.142 19.3322C110.523 19.0365 110.993 18.8789 111.475 18.8853C111.852 18.8681 112.224 18.976 112.533 19.192L112.348 21.3089C112.333 21.4177 112.278 21.5169 112.194 21.5872C112.107 21.6418 112.006 21.6681 111.904 21.6624C111.853 21.6624 111.788 21.6624 111.7 21.6523L111.448 21.6299L111.184 21.6015C111.103 21.5921 111.021 21.5874 110.939 21.5872C110.57 21.5663 110.207 21.6861 109.923 21.9225C109.645 22.1816 109.428 22.4986 109.287 22.8509V28.6936H106.424V19.0661H108.133C108.253 19.0637 108.373 19.076 108.491 19.1027C108.579 19.1233 108.661 19.1628 108.732 19.2185C108.798 19.2724 108.849 19.3423 108.881 19.4216C108.919 19.5237 108.948 19.6291 108.968 19.7365L109.116 20.5512ZM112.265 27.235C112.263 27.0214 112.305 26.8098 112.389 26.6133C112.47 26.4251 112.588 26.2546 112.734 26.1115C113.046 25.81 113.465 25.6436 113.899 25.6483C114.118 25.6457 114.336 25.6886 114.538 25.7743C114.731 25.8534 114.908 25.9677 115.059 26.1115C115.211 26.2561 115.331 26.4305 115.412 26.6238C115.494 26.8171 115.535 27.0252 115.532 27.235C115.534 27.4505 115.492 27.6641 115.408 27.8627C115.327 28.0533 115.208 28.2254 115.059 28.3686C114.909 28.5124 114.732 28.6256 114.538 28.7017C114.335 28.7842 114.118 28.8256 113.899 28.8236C113.676 28.826 113.455 28.7846 113.248 28.7017C113.057 28.6259 112.882 28.5126 112.734 28.3686C112.587 28.2245 112.469 28.0526 112.389 27.8627C112.305 27.6641 112.263 27.4505 112.265 27.235ZM120.064 20.1062C120.246 19.934 120.438 19.7725 120.639 19.6227C120.837 19.4743 121.05 19.3483 121.275 19.2469C121.51 19.1407 121.756 19.0596 122.008 19.0051C122.291 18.9445 122.579 18.9152 122.868 18.9178C123.347 18.9078 123.823 19.0006 124.263 19.19C124.654 19.3656 125.001 19.6258 125.279 19.9518C125.567 20.2915 125.782 20.6862 125.911 21.1119C126.054 21.5861 126.122 22.0795 126.114 22.5746V28.6936H123.258V22.5746C123.281 22.1815 123.166 21.7928 122.933 21.4755C122.816 21.3385 122.668 21.2305 122.502 21.16C122.336 21.0896 122.156 21.0585 121.976 21.0692C121.669 21.0678 121.366 21.1373 121.09 21.2724C120.795 21.4143 120.522 21.5969 120.278 21.8148V28.6936H117.407V19.0661H119.191C119.346 19.0531 119.5 19.0939 119.629 19.1816C119.757 19.2693 119.851 19.3985 119.896 19.5476L120.064 20.1062ZM137.007 19.3627V20.411C137.011 20.4803 137.001 20.5498 136.978 20.6153C136.955 20.6808 136.92 20.7412 136.873 20.7929C136.742 20.9047 136.582 20.9785 136.412 21.0062L135.717 21.1647C135.754 21.3018 135.783 21.4409 135.805 21.5811C135.827 21.7291 135.838 21.8785 135.837 22.0281C135.845 22.4789 135.742 22.9247 135.537 23.3262C135.336 23.7093 135.054 24.0436 134.71 24.3055C134.338 24.5865 133.918 24.7978 133.47 24.9291C132.974 25.0737 132.458 25.1442 131.941 25.1384C131.792 25.1384 131.646 25.1384 131.504 25.1242C131.364 25.1156 131.224 25.0987 131.085 25.0734C130.999 25.1125 130.925 25.1733 130.87 25.2499C130.815 25.3266 130.78 25.4162 130.771 25.5102C130.77 25.5885 130.795 25.6648 130.842 25.7275C130.889 25.7902 130.955 25.8359 131.031 25.8576C131.251 25.9399 131.482 25.9898 131.717 26.0059C132.002 26.0343 132.327 26.0526 132.688 26.0627C133.05 26.0729 133.42 26.0932 133.798 26.1278C134.17 26.1617 134.541 26.2187 134.907 26.2984C135.25 26.3721 135.577 26.504 135.876 26.6885C136.16 26.8691 136.396 27.1158 136.565 27.4076C136.75 27.7609 136.84 28.1567 136.825 28.5555C136.822 28.9986 136.713 29.4347 136.508 29.8272C136.283 30.2592 135.966 30.6364 135.579 30.9324C135.127 31.276 134.618 31.5379 134.076 31.7064C133.414 31.9112 132.725 32.01 132.032 31.9989C131.374 32.0099 130.718 31.9382 130.078 31.7856C129.597 31.671 129.137 31.4818 128.715 31.2249C128.381 31.0253 128.102 30.7461 127.902 30.4123C127.733 30.1253 127.643 29.7986 127.642 29.4656C127.629 29.0762 127.761 28.6958 128.014 28.399C128.299 28.089 128.657 27.8533 129.054 27.7124C128.826 27.5775 128.635 27.3892 128.497 27.1639C128.351 26.9003 128.281 26.6015 128.294 26.3004C128.296 26.1471 128.321 25.995 128.369 25.8494C128.423 25.6835 128.502 25.5271 128.605 25.3862C128.722 25.2255 128.858 25.0801 129.011 24.9535C129.186 24.8087 129.38 24.6872 129.586 24.5919C129.108 24.3452 128.7 23.9827 128.398 23.5375C128.102 23.0844 127.951 22.5526 127.963 22.0118C127.956 21.558 128.061 21.1095 128.268 20.7055C128.472 20.3198 128.759 19.984 129.109 19.7223C129.487 19.441 129.913 19.2304 130.366 19.1006C130.876 18.9505 131.405 18.8766 131.937 18.8812C132.687 18.8672 133.43 19.0264 134.108 19.3464L137.007 19.3627ZM134.163 29.0451C134.168 28.9412 134.141 28.8384 134.086 28.75C134.031 28.6616 133.951 28.5917 133.856 28.5494C133.604 28.4342 133.334 28.3607 133.058 28.332C132.693 28.2846 132.325 28.2581 131.957 28.2528C131.551 28.2426 131.144 28.2203 130.738 28.1817C130.57 28.2927 130.421 28.4299 130.297 28.588C130.183 28.7356 130.122 28.9174 130.125 29.104C130.123 29.2326 130.153 29.3596 130.212 29.4737C130.285 29.5989 130.394 29.6994 130.525 29.7622C130.713 29.8562 130.914 29.9206 131.122 29.9532C131.437 30.0044 131.756 30.0276 132.075 30.0222C132.415 30.0278 132.755 30.0027 133.091 29.9471C133.312 29.9129 133.526 29.8444 133.726 29.7439C133.864 29.6746 133.979 29.5666 134.056 29.4331C134.126 29.315 134.167 29.1821 134.175 29.0451H134.163ZM131.929 23.373C132.404 23.373 132.741 23.2551 132.963 23.0154C133.183 22.7591 133.298 22.4287 133.284 22.0911C133.302 21.7546 133.187 21.4245 132.963 21.1728C132.749 20.9493 132.404 20.8396 131.929 20.8396C131.453 20.8396 131.116 20.9493 130.892 21.1728C130.668 21.4245 130.553 21.7546 130.571 22.0911C130.569 22.2649 130.596 22.4379 130.651 22.603C130.702 22.7547 130.786 22.8934 130.896 23.0093C131.016 23.1284 131.16 23.2199 131.319 23.2775C131.519 23.3474 131.729 23.3798 131.941 23.373H131.929Z"/>
</mask>
<path d="M62.2585 15.1655C63.0893 15.1483 63.9176 15.2628 64.7126 15.5048C65.3344 15.6954 65.91 16.013 66.4029 16.4373C66.8365 16.8197 67.1722 17.3003 67.3821 17.839C67.5968 18.3963 67.7043 18.989 67.699 19.5862C67.7055 20.2198 67.5953 20.8492 67.374 21.443C67.1618 21.9975 66.8214 22.4939 66.3805 22.8915C65.8873 23.3195 65.3103 23.6398 64.6862 23.8321C63.9002 24.0738 63.0807 24.1883 62.2585 24.1714H60.6333V28.6936H57.4844V15.1655H62.2585ZM62.2585 21.8046C63.0711 21.8046 63.6589 21.6096 64.0219 21.2195C64.3795 20.8295 64.5603 20.285 64.5603 19.5943C64.564 19.3065 64.5166 19.0203 64.4201 18.7492C64.3318 18.5008 64.1871 18.2762 63.9975 18.093C63.7936 17.9022 63.5501 17.7586 63.2844 17.6724C62.9531 17.5661 62.6064 17.5153 62.2585 17.5221H60.6333V21.8127L62.2585 21.8046ZM73.7327 18.9178C74.4138 18.9088 75.0908 19.0251 75.7297 19.2611C76.3087 19.4761 76.8356 19.8112 77.2757 20.2444C77.715 20.6864 78.0563 21.2159 78.2773 21.7985C78.5237 22.4562 78.6449 23.1542 78.6348 23.8565C78.6451 24.5641 78.5238 25.2674 78.2773 25.9307C78.0632 26.5168 77.7245 27.0494 77.2847 27.492C76.8449 27.9347 76.3144 28.2767 75.7297 28.4945C74.4345 28.9577 73.0187 28.9577 71.7235 28.4945C71.1407 28.274 70.6096 27.9359 70.1633 27.5011C69.716 27.0565 69.3696 26.5209 69.1475 25.9307C68.9 25.2676 68.7787 24.5641 68.79 23.8565C68.7788 23.1541 68.9001 22.456 69.1475 21.7985C69.3702 21.2134 69.7167 20.6832 70.1633 20.2444C70.6091 19.8114 71.1405 19.4765 71.7235 19.2611C72.3666 19.0248 73.0476 18.9085 73.7327 18.9178ZM73.7327 26.7068C74.395 26.7068 74.8826 26.4731 75.1954 26.0059C75.5083 25.5386 75.6654 24.8282 75.6668 23.8748C75.6668 22.9267 75.5103 22.2177 75.1975 21.7477C74.8846 21.2778 74.397 21.0462 73.7347 21.0529C73.0576 21.0529 72.5592 21.2845 72.2395 21.7477C71.9199 22.2109 71.7621 22.9199 71.7662 23.8748C71.7662 24.8228 71.924 25.5332 72.2395 26.0059C72.5551 26.4785 73.0528 26.7122 73.7327 26.7068ZM94.5297 19.0661L91.5393 28.6936H89.2009C89.0851 28.6968 88.9722 28.657 88.884 28.5819C88.7822 28.4799 88.7116 28.3509 88.6809 28.2101L87.3075 23.4095C87.2385 23.1942 87.1775 22.9809 87.1247 22.7696C87.0719 22.5665 87.0252 22.345 86.9825 22.1297C86.9378 22.345 86.8911 22.5624 86.8382 22.7798C86.7854 22.9971 86.7245 23.2125 86.6574 23.4299L85.2638 28.2101C85.2379 28.3508 85.1619 28.4773 85.0498 28.5662C84.9377 28.6551 84.7972 28.7004 84.6543 28.6936H82.4196L79.4292 19.0661H81.7309C81.9134 19.0595 82.0936 19.1092 82.247 19.2083C82.3776 19.2934 82.4768 19.419 82.5293 19.5659L83.4964 23.8849C83.5749 24.2127 83.646 24.5296 83.7097 24.8357C83.7706 25.1425 83.8275 25.4452 83.8763 25.76C83.9575 25.4492 84.0428 25.1506 84.1322 24.8357C84.2216 24.5208 84.3191 24.212 84.4248 23.8849L85.6315 19.5577C85.6833 19.4117 85.781 19.2863 85.9098 19.2002C86.0516 19.102 86.2209 19.0515 86.3933 19.0559H87.6732C87.8559 19.05 88.0361 19.1003 88.1892 19.2002C88.3197 19.2855 88.4189 19.411 88.4716 19.5577L89.6235 23.8849C89.717 24.2127 89.8084 24.531 89.8978 24.8398C89.9872 25.1506 90.0684 25.4614 90.1436 25.7783C90.1923 25.4695 90.2513 25.1689 90.3203 24.8499C90.3894 24.531 90.4646 24.2181 90.5519 23.8849L91.5677 19.5659C91.62 19.4201 91.7175 19.2948 91.846 19.2083C91.9875 19.1113 92.156 19.0615 92.3275 19.0661H94.5297ZM98.2901 24.3948C98.3836 25.1993 98.628 25.7824 99.0235 26.144C99.4444 26.5168 99.9935 26.7119 100.555 26.6885C100.848 26.6946 101.139 26.6535 101.419 26.5666C101.641 26.4945 101.857 26.4048 102.065 26.2984L102.585 26.0282C102.738 25.9495 102.908 25.9084 103.08 25.9084C103.181 25.902 103.281 25.9213 103.372 25.9643C103.463 26.0073 103.542 26.0726 103.601 26.1542L104.436 27.1862C104.158 27.5087 103.834 27.7887 103.475 28.0171C103.143 28.2252 102.788 28.393 102.416 28.5169C102.064 28.6363 101.7 28.7207 101.331 28.7688C100.988 28.8139 100.642 28.8369 100.295 28.8378C99.6475 28.8426 99.0041 28.7311 98.3957 28.5087C97.8156 28.2957 97.2872 27.962 96.8457 27.5295C96.3855 27.0678 96.0283 26.5139 95.7974 25.9043C95.5264 25.1869 95.3954 24.4241 95.4114 23.6574C95.408 23.0329 95.5196 22.4131 95.7405 21.829C95.9525 21.2615 96.278 20.7432 96.6972 20.3059C97.1164 19.8686 97.6204 19.5213 98.1784 19.2855C99.3725 18.8094 100.698 18.7799 101.912 19.2022C102.424 19.3886 102.889 19.6831 103.276 20.0656C103.668 20.4595 103.972 20.9326 104.167 21.4532C104.389 22.0481 104.498 22.6792 104.488 23.3141C104.49 23.4912 104.481 23.6684 104.46 23.8443C104.448 23.9584 104.414 24.0689 104.358 24.1693C104.312 24.2466 104.24 24.3054 104.155 24.3359C104.052 24.3698 103.944 24.3856 103.836 24.3827L98.2901 24.3948ZM101.91 22.7229C101.911 22.4972 101.882 22.2724 101.823 22.0545C101.767 21.8439 101.669 21.6468 101.534 21.4755C101.394 21.3014 101.214 21.1623 101.01 21.0692C100.762 20.957 100.492 20.9029 100.22 20.9107C99.986 20.8979 99.7519 20.9329 99.5318 21.0136C99.3118 21.0943 99.1105 21.2189 98.9402 21.38C98.6018 21.7562 98.3888 22.2283 98.3307 22.731L101.91 22.7229ZM109.116 20.5512C109.374 20.0811 109.723 19.6668 110.142 19.3322C110.523 19.0365 110.993 18.8789 111.475 18.8853C111.852 18.8681 112.224 18.976 112.533 19.192L112.348 21.3089C112.333 21.4177 112.278 21.5169 112.194 21.5872C112.107 21.6418 112.006 21.6681 111.904 21.6624C111.853 21.6624 111.788 21.6624 111.7 21.6523L111.448 21.6299L111.184 21.6015C111.103 21.5921 111.021 21.5874 110.939 21.5872C110.57 21.5663 110.207 21.6861 109.923 21.9225C109.645 22.1816 109.428 22.4986 109.287 22.8509V28.6936H106.424V19.0661H108.133C108.253 19.0637 108.373 19.076 108.491 19.1027C108.579 19.1233 108.661 19.1628 108.732 19.2185C108.798 19.2724 108.849 19.3423 108.881 19.4216C108.919 19.5237 108.948 19.6291 108.968 19.7365L109.116 20.5512ZM112.265 27.235C112.263 27.0214 112.305 26.8098 112.389 26.6133C112.47 26.4251 112.588 26.2546 112.734 26.1115C113.046 25.81 113.465 25.6436 113.899 25.6483C114.118 25.6457 114.336 25.6886 114.538 25.7743C114.731 25.8534 114.908 25.9677 115.059 26.1115C115.211 26.2561 115.331 26.4305 115.412 26.6238C115.494 26.8171 115.535 27.0252 115.532 27.235C115.534 27.4505 115.492 27.6641 115.408 27.8627C115.327 28.0533 115.208 28.2254 115.059 28.3686C114.909 28.5124 114.732 28.6256 114.538 28.7017C114.335 28.7842 114.118 28.8256 113.899 28.8236C113.676 28.826 113.455 28.7846 113.248 28.7017C113.057 28.6259 112.882 28.5126 112.734 28.3686C112.587 28.2245 112.469 28.0526 112.389 27.8627C112.305 27.6641 112.263 27.4505 112.265 27.235ZM120.064 20.1062C120.246 19.934 120.438 19.7725 120.639 19.6227C120.837 19.4743 121.05 19.3483 121.275 19.2469C121.51 19.1407 121.756 19.0596 122.008 19.0051C122.291 18.9445 122.579 18.9152 122.868 18.9178C123.347 18.9078 123.823 19.0006 124.263 19.19C124.654 19.3656 125.001 19.6258 125.279 19.9518C125.567 20.2915 125.782 20.6862 125.911 21.1119C126.054 21.5861 126.122 22.0795 126.114 22.5746V28.6936H123.258V22.5746C123.281 22.1815 123.166 21.7928 122.933 21.4755C122.816 21.3385 122.668 21.2305 122.502 21.16C122.336 21.0896 122.156 21.0585 121.976 21.0692C121.669 21.0678 121.366 21.1373 121.09 21.2724C120.795 21.4143 120.522 21.5969 120.278 21.8148V28.6936H117.407V19.0661H119.191C119.346 19.0531 119.5 19.0939 119.629 19.1816C119.757 19.2693 119.851 19.3985 119.896 19.5476L120.064 20.1062ZM137.007 19.3627V20.411C137.011 20.4803 137.001 20.5498 136.978 20.6153C136.955 20.6808 136.92 20.7412 136.873 20.7929C136.742 20.9047 136.582 20.9785 136.412 21.0062L135.717 21.1647C135.754 21.3018 135.783 21.4409 135.805 21.5811C135.827 21.7291 135.838 21.8785 135.837 22.0281C135.845 22.4789 135.742 22.9247 135.537 23.3262C135.336 23.7093 135.054 24.0436 134.71 24.3055C134.338 24.5865 133.918 24.7978 133.47 24.9291C132.974 25.0737 132.458 25.1442 131.941 25.1384C131.792 25.1384 131.646 25.1384 131.504 25.1242C131.364 25.1156 131.224 25.0987 131.085 25.0734C130.999 25.1125 130.925 25.1733 130.87 25.2499C130.815 25.3266 130.78 25.4162 130.771 25.5102C130.77 25.5885 130.795 25.6648 130.842 25.7275C130.889 25.7902 130.955 25.8359 131.031 25.8576C131.251 25.9399 131.482 25.9898 131.717 26.0059C132.002 26.0343 132.327 26.0526 132.688 26.0627C133.05 26.0729 133.42 26.0932 133.798 26.1278C134.17 26.1617 134.541 26.2187 134.907 26.2984C135.25 26.3721 135.577 26.504 135.876 26.6885C136.16 26.8691 136.396 27.1158 136.565 27.4076C136.75 27.7609 136.84 28.1567 136.825 28.5555C136.822 28.9986 136.713 29.4347 136.508 29.8272C136.283 30.2592 135.966 30.6364 135.579 30.9324C135.127 31.276 134.618 31.5379 134.076 31.7064C133.414 31.9112 132.725 32.01 132.032 31.9989C131.374 32.0099 130.718 31.9382 130.078 31.7856C129.597 31.671 129.137 31.4818 128.715 31.2249C128.381 31.0253 128.102 30.7461 127.902 30.4123C127.733 30.1253 127.643 29.7986 127.642 29.4656C127.629 29.0762 127.761 28.6958 128.014 28.399C128.299 28.089 128.657 27.8533 129.054 27.7124C128.826 27.5775 128.635 27.3892 128.497 27.1639C128.351 26.9003 128.281 26.6015 128.294 26.3004C128.296 26.1471 128.321 25.995 128.369 25.8494C128.423 25.6835 128.502 25.5271 128.605 25.3862C128.722 25.2255 128.858 25.0801 129.011 24.9535C129.186 24.8087 129.38 24.6872 129.586 24.5919C129.108 24.3452 128.7 23.9827 128.398 23.5375C128.102 23.0844 127.951 22.5526 127.963 22.0118C127.956 21.558 128.061 21.1095 128.268 20.7055C128.472 20.3198 128.759 19.984 129.109 19.7223C129.487 19.441 129.913 19.2304 130.366 19.1006C130.876 18.9505 131.405 18.8766 131.937 18.8812C132.687 18.8672 133.43 19.0264 134.108 19.3464L137.007 19.3627ZM134.163 29.0451C134.168 28.9412 134.141 28.8384 134.086 28.75C134.031 28.6616 133.951 28.5917 133.856 28.5494C133.604 28.4342 133.334 28.3607 133.058 28.332C132.693 28.2846 132.325 28.2581 131.957 28.2528C131.551 28.2426 131.144 28.2203 130.738 28.1817C130.57 28.2927 130.421 28.4299 130.297 28.588C130.183 28.7356 130.122 28.9174 130.125 29.104C130.123 29.2326 130.153 29.3596 130.212 29.4737C130.285 29.5989 130.394 29.6994 130.525 29.7622C130.713 29.8562 130.914 29.9206 131.122 29.9532C131.437 30.0044 131.756 30.0276 132.075 30.0222C132.415 30.0278 132.755 30.0027 133.091 29.9471C133.312 29.9129 133.526 29.8444 133.726 29.7439C133.864 29.6746 133.979 29.5666 134.056 29.4331C134.126 29.315 134.167 29.1821 134.175 29.0451H134.163ZM131.929 23.373C132.404 23.373 132.741 23.2551 132.963 23.0154C133.183 22.7591 133.298 22.4287 133.284 22.0911C133.302 21.7546 133.187 21.4245 132.963 21.1728C132.749 20.9493 132.404 20.8396 131.929 20.8396C131.453 20.8396 131.116 20.9493 130.892 21.1728C130.668 21.4245 130.553 21.7546 130.571 22.0911C130.569 22.2649 130.596 22.4379 130.651 22.603C130.702 22.7547 130.786 22.8934 130.896 23.0093C131.016 23.1284 131.16 23.2199 131.319 23.2775C131.519 23.3474 131.729 23.3798 131.941 23.373H131.929Z" fill="#808080" stroke="#808080" stroke-width="0.385817" mask="url(#path-2-inside-1_10658_14099)"/>
</g>
<path id="Vector_3" d="M16.456 26.9667C17.8102 26.9667 18.9081 25.8688 18.9081 24.5146C18.9081 23.1603 17.8102 22.0625 16.456 22.0625C15.1017 22.0625 14.0039 23.1603 14.0039 24.5146C14.0039 25.8688 15.1017 26.9667 16.456 26.9667Z" stroke="#808080" stroke-width="0.241136" stroke-miterlimit="10"/>
<path id="Vector_4" d="M13.4677 26.9934C14.822 26.9934 15.9198 25.8956 15.9198 24.5413C15.9198 23.1871 14.822 22.0892 13.4677 22.0892C12.1135 22.0892 11.0156 23.1871 11.0156 24.5413C11.0156 25.8956 12.1135 26.9934 13.4677 26.9934Z" stroke="#808080" stroke-width="0.241136" stroke-miterlimit="10"/>
<path id="Vector_5" d="M20.5801 15.661H1.45709C1.23269 15.661 1.05078 15.8429 1.05078 16.0673V27.8788C1.05078 28.1032 1.23269 28.2851 1.45709 28.2851H20.5801C20.8045 28.2851 20.9864 28.1032 20.9864 27.8788V16.0673C20.9864 15.8429 20.8045 15.661 20.5801 15.661Z" stroke="#808080" stroke-width="0.771634" stroke-miterlimit="10"/>
<path id="Vector_6" d="M1.29688 18.0016H20.7591M1.29688 20.3805H20.7591" stroke="#808080" stroke-width="0.771634" stroke-miterlimit="10"/>
<path id="Vector_7" d="M12.046 13.7585L12.0979 13.6267H11.9563H7.79415L19.9266 0.450692L15.6108 11.2556L15.558 11.3878H15.7004H19.9888L7.85018 24.4183L12.046 13.7585Z" fill="#808080" stroke="#808080" stroke-width="0.192908"/>
</g>
</g>
</svg>
