<svg width="120" height="26" viewBox="0 0 120 26" fill="none" xmlns="http://www.w3.org/2000/svg">
<g id="GIGM Logo (1) 1" clip-path="url(#clip0_10658_14109)">
<path id="Vector" fill-rule="evenodd" clip-rule="evenodd" d="M93.9308 25.4694L89.1515 7.89973L82.0684 24.1628C81.8163 24.69 81.5068 25.1026 81.1401 25.4007C80.7962 25.6757 80.3607 25.8133 79.8335 25.8133C78.802 25.8133 78.0571 25.2631 77.5986 24.1628L71.8684 11.7163L72.2693 25.4694H67.9026V1.95149C68.2006 0.759545 68.9227 0.163574 70.0688 0.163574C70.5272 0.163574 70.9512 0.289645 71.3409 0.541787C71.7535 0.793929 72.063 1.16068 72.2693 1.64204L79.971 19.3149L87.6724 1.64204C88.0857 0.656397 88.7846 0.163574 89.7701 0.163574C90.8244 0.163574 91.5233 0.759545 91.8679 1.95149L98.2629 25.4694H93.9308ZM12.145 25.5842C10.4029 25.5842 8.78694 25.2633 7.297 24.6215C5.82999 23.9567 4.54635 23.0628 3.44611 21.9396C2.36877 20.7935 1.52067 19.4411 0.901767 17.8824C0.305798 16.3237 0.0078125 14.6389 0.0078125 12.8281C0.0078125 10.9944 0.305798 9.32109 0.901767 7.8082C1.52067 6.29535 2.36877 5.01172 3.44611 3.95731C4.54635 2.87998 5.82999 2.05479 7.297 1.48174C8.78694 0.885772 10.4029 0.587786 12.145 0.587786H25.6919V4.95441H12.145C11.0218 4.95441 9.97883 5.16072 9.01618 5.57331C8.07634 5.96299 7.26261 6.51311 6.57495 7.22369C5.88729 7.93427 5.34862 8.78237 4.95895 9.76805C4.56928 10.7536 4.37445 11.8425 4.37445 13.0344C4.37445 14.2034 4.56928 15.2922 4.95895 16.3008C5.34862 17.3093 5.88729 18.1804 6.57495 18.9139C7.26261 19.6244 8.07634 20.186 9.01618 20.5987C9.97883 21.0113 11.0218 21.2176 12.145 21.2176H22.838V14.7192H11.5604V11.0402H27.2391V25.5842H12.145ZM30.8044 25.5842V0.587786H35.171V25.5842H30.8044ZM45.6098 24.6215C47.0997 25.2633 48.7157 25.5842 50.4577 25.5842H65.5519V11.0402H49.8732V14.7192H61.1508V21.2176H50.4577C49.3346 21.2176 48.2916 21.0113 47.3289 20.5987C46.3891 20.186 45.5754 19.6244 44.8877 18.9139C44.2001 18.1804 43.6614 17.3093 43.2717 16.3008C42.8821 15.2922 42.6872 14.2034 42.6872 13.0344C42.6872 11.8425 42.8821 10.7536 43.2717 9.76805C43.6614 8.78237 44.2001 7.93427 44.8877 7.22369C45.5754 6.51311 46.3891 5.96299 47.3289 5.57331C48.2916 5.16072 49.3346 4.95441 50.4577 4.95441H64.0047V0.587786H50.4577C48.7157 0.587786 47.0997 0.885772 45.6098 1.48174C44.1428 2.05479 42.8592 2.87998 41.7589 3.95731C40.6815 5.01172 39.8335 6.29535 39.2145 7.8082C38.6186 9.32109 38.3206 10.9944 38.3206 12.8281C38.3206 14.6389 38.6186 16.3237 39.2145 17.8824C39.8335 19.4411 40.6815 20.7935 41.7589 21.9396C42.8592 23.0628 44.1428 23.9567 45.6098 24.6215ZM111.945 23.0053C111.945 24.9445 110.635 25.6872 109.428 25.6872H109.417C107.953 25.6872 106.911 24.7073 106.911 23.0775C106.911 21.4066 107.963 20.406 109.49 20.406C110.996 20.406 111.945 21.4788 111.945 23.0053ZM108.727 23.0466C108.727 23.8408 108.943 24.4081 109.449 24.4081H109.459C109.913 24.4081 110.13 23.8305 110.13 23.0466C110.13 22.3555 109.944 21.6851 109.449 21.6851C108.902 21.6851 108.727 22.3762 108.727 23.0466ZM106.578 24.1606C106.372 24.2534 106.145 24.2844 105.867 24.2844C105.228 24.2844 104.722 23.8512 104.722 23.0259C104.712 22.2626 105.176 21.7882 105.846 21.7882C106.166 21.7882 106.383 21.8398 106.548 21.9016L106.785 20.571C106.496 20.4678 106.094 20.4163 105.744 20.4163C103.907 20.4163 102.917 21.5922 102.917 23.0982C102.917 24.7279 103.927 25.6769 105.517 25.6769C106.032 25.6769 106.506 25.5944 106.754 25.4912L106.578 24.1606ZM101.499 25.6872C102.108 25.6872 102.52 25.254 102.52 24.6248C102.511 23.9749 102.087 23.5521 101.509 23.5521C100.932 23.5521 100.488 23.9955 100.488 24.6248C100.488 25.254 100.921 25.6872 101.489 25.6872H101.499ZM112.573 25.584H114.316V22.6031C114.316 22.469 114.326 22.3348 114.367 22.2317C114.45 22.0461 114.605 21.85 114.883 21.85C115.286 21.85 115.409 22.242 115.409 22.7165V25.584H117.152V22.6031C117.152 22.4896 117.162 22.3348 117.194 22.2524C117.276 22.0151 117.451 21.85 117.72 21.85C118.101 21.85 118.245 22.2214 118.245 22.8196V25.584H119.989V22.5515C119.989 21.2105 119.442 20.406 118.38 20.406C118.06 20.406 117.782 20.4782 117.534 20.602C117.286 20.7361 117.07 20.932 116.884 21.1693H116.863C116.668 20.7051 116.203 20.406 115.574 20.406C114.8 20.406 114.357 20.8392 114.151 21.128H114.12L114.037 20.5092H112.531C112.552 20.994 112.573 21.5715 112.573 22.2008V25.584ZM96.0476 4.38112H95.1556V1.67347H94.3556V0.90501H96.8625V1.67347H96.0476V4.38112ZM100.753 4.38112H99.9076L99.8612 3.17944C99.8513 2.82357 99.8405 2.36972 99.8405 1.87976H99.8248C99.7378 2.31299 99.6037 2.8081 99.5109 3.13818L99.1962 4.30892H98.5155L98.2422 3.14334C98.1643 2.81326 98.0616 2.32331 97.9946 1.87976H97.9838C97.9689 2.20347 97.9548 2.54554 97.9416 2.84422V2.85446L97.9324 3.05984L97.9275 3.17944L97.8753 4.38112H97.0712L97.303 0.90501H98.4277L98.6546 1.89008C98.7474 2.29236 98.8451 2.7359 98.9122 3.15365H98.9279C99.0099 2.74106 99.1184 2.27173 99.2111 1.88492L99.4587 0.90501H100.568L100.753 4.38112Z" fill="#808080"/>
</g>
<defs>
<clipPath id="clip0_10658_14109">
<rect width="120" height="25.6729" fill="white" transform="translate(0.0078125 0.163574)"/>
</clipPath>
</defs>
</svg>
