<svg width="48" height="32" viewBox="0 0 48 32" fill="none" xmlns="http://www.w3.org/2000/svg">
<g id="Group">
<path id="Vector" d="M18.0721 12.7795V23.7008C16.9146 24.1968 15.2925 24.4488 14.0012 24.5905C13.4736 24.6457 13.0012 24.685 12.6311 24.7165C-1.26651 25.8425 0.0405753 13.9606 0.0405753 13.9606C1.61538 1.10237 17.3555 5.29922 17.3555 5.29922L16.3083 9.75591C5.28466 6.34646 5.55238 14.4803 5.55238 14.4803C5.55238 21.2992 12.6626 20.4882 12.6626 20.4882L10.1429 12.7795H18.0721Z" fill="#808080"/>
<path id="Vector_2" d="M47.9471 12.7795V23.7008C46.7896 24.1968 45.1675 24.4488 43.8762 24.5905C43.3486 24.6457 42.8762 24.685 42.5061 24.7165C28.6085 25.8425 29.9156 13.9606 29.9156 13.9606C31.4904 1.10237 47.2305 5.29922 47.2305 5.29922L46.1833 9.75591C35.1597 6.34646 35.4274 14.4803 35.4274 14.4803C35.4274 21.2992 42.5376 20.4882 42.5376 20.4882L40.0179 12.7795H47.9471Z" fill="#808080"/>
<g id="Group_2">
<path id="Vector_3" d="M26.7345 4.64575H21.2227V24.8505H26.7345V4.64575Z" fill="#808080"/>
<path id="Vector_4" d="M21.2227 4.35433H26.7345L23.9786 0L21.2227 4.35433Z" fill="#808080"/>
<path id="Vector_5" d="M29.8829 0H24.3711L27.127 4.35433L29.8829 0Z" fill="#E6E6E6"/>
</g>
<g id="Group_3">
<path id="Vector_6" d="M7.10156 26.3308H7.8181V31.3072H10.2039V31.9135H7.10156V26.3308Z" fill="#808080"/>
<path id="Vector_7" d="M15.4539 29.0631C15.4539 30.9844 14.2886 32.0001 12.8634 32.0001C11.3909 32.0001 10.3516 30.8584 10.3516 29.1655C10.3516 27.3938 11.4539 26.2363 12.9421 26.2363C14.4697 26.2363 15.4539 27.4017 15.4539 29.0631ZM11.1232 29.1497C11.1232 30.3387 11.7689 31.4096 12.9027 31.4096C14.0445 31.4096 14.6901 30.3544 14.6901 29.0946C14.6901 27.9844 14.1075 26.8269 12.9106 26.8269C11.7216 26.8269 11.1232 27.9292 11.1232 29.1497Z" fill="#808080"/>
<path id="Vector_8" d="M20.6374 31.6615C20.3145 31.7796 19.6767 31.9686 18.9208 31.9686C18.0783 31.9686 17.3775 31.756 16.8342 31.2284C16.3539 30.7639 16.0547 30.0158 16.0547 29.1497C16.0626 27.4883 17.2043 26.2678 19.0783 26.2678C19.724 26.2678 20.2279 26.4096 20.472 26.5277L20.2988 27.1182C19.9996 26.9844 19.6295 26.882 19.0626 26.882C17.7082 26.882 16.8185 27.7245 16.8185 29.1261C16.8185 30.5434 17.6689 31.3781 18.9681 31.3781C19.4405 31.3781 19.7633 31.3151 19.9287 31.2284V29.567H18.7948V28.9844H20.6295V31.6615H20.6374Z" fill="#808080"/>
<path id="Vector_9" d="M22.4665 26.3308V31.9135H21.75V26.3308H22.4665Z" fill="#808080"/>
<path id="Vector_10" d="M23.6187 31.0316C23.9415 31.2285 24.4139 31.3938 24.91 31.3938C25.6502 31.3938 26.0754 31.008 26.0754 30.4411C26.0754 29.9214 25.7761 29.6222 25.0202 29.3308C24.1069 29.008 23.5478 28.5355 23.5478 27.7481C23.5478 26.882 24.2643 26.2363 25.3509 26.2363C25.9258 26.2363 26.3352 26.3702 26.5872 26.5119L26.3903 27.1025C26.2092 27.0001 25.8391 26.8348 25.3273 26.8348C24.5635 26.8348 24.2722 27.2914 24.2722 27.6694C24.2722 28.1891 24.6108 28.4489 25.3824 28.7481C26.3273 29.1103 26.8076 29.567 26.8076 30.3859C26.8076 31.2442 26.1698 31.9922 24.8549 31.9922C24.3195 31.9922 23.7289 31.8347 23.4297 31.6379L23.6187 31.0316Z" fill="#808080"/>
<path id="Vector_11" d="M28.857 26.945H27.1562V26.3308H31.2901V26.945H29.5814V31.9135H28.8492V26.945H28.857Z" fill="#808080"/>
<path id="Vector_12" d="M32.6384 26.3308V31.9135H31.9219V26.3308H32.6384Z" fill="#808080"/>
<path id="Vector_13" d="M37.7947 31.7245C37.527 31.8584 36.9995 31.9922 36.3223 31.9922C34.7475 31.9922 33.5664 31.0001 33.5664 29.1655C33.5664 27.4174 34.7475 26.2363 36.4798 26.2363C37.1727 26.2363 37.6136 26.3859 37.8026 26.4883L37.6294 27.0788C37.3538 26.945 36.968 26.8505 36.5034 26.8505C35.1963 26.8505 34.3223 27.6851 34.3223 29.1497C34.3223 30.5198 35.1097 31.3938 36.464 31.3938C36.905 31.3938 37.3538 31.2993 37.6373 31.1655L37.7947 31.7245Z" fill="#808080"/>
<path id="Vector_14" d="M38.5952 31.0316C38.9181 31.2285 39.3905 31.3938 39.8866 31.3938C40.6267 31.3938 41.0519 31.008 41.0519 30.4411C41.0519 29.9214 40.7527 29.6222 39.9968 29.3308C39.0834 29.008 38.5244 28.5355 38.5244 27.7481C38.5244 26.882 39.2409 26.2363 40.3275 26.2363C40.9023 26.2363 41.3118 26.3702 41.5637 26.5119L41.3669 27.1025C41.1858 27.0001 40.8157 26.8348 40.3039 26.8348C39.5401 26.8348 39.2488 27.2914 39.2488 27.6694C39.2488 28.1891 39.5873 28.4489 40.359 28.7481C41.3039 29.1103 41.7842 29.567 41.7842 30.3859C41.7842 31.2442 41.1464 31.9922 39.8314 31.9922C39.296 31.9922 38.7055 31.8347 38.4062 31.6379L38.5952 31.0316Z" fill="#808080"/>
</g>
</g>
</svg>
