<svg width="161" height="32" viewBox="0 0 161 32" fill="none" xmlns="http://www.w3.org/2000/svg">
<g id="Reliance HMO Logo (1) 1" clip-path="url(#clip0_10658_14132)">
<path id="Vector" d="M13.7003 15.7074V12.7152H4.13855C3.72266 12.7217 3.31218 12.8105 2.93084 12.9766C2.5495 13.1427 2.20485 13.3827 1.91682 13.6827C1.2889 14.3665 0.943209 15.2628 0.949298 16.1911C1.01849 17.0128 1.39525 17.778 2.00424 18.3338C2.61324 18.8897 3.4096 19.1952 4.23411 19.1893H13.7003V28.751C13.7003 30.5905 15.3427 32.0359 17.0867 31.9403C17.9072 31.8697 18.671 31.4923 19.2256 30.8835C19.7802 30.2746 20.0849 29.479 20.0788 28.6555V19.1893H17.0867C16.1764 19.1751 15.3088 18.8007 14.674 18.148C14.0393 17.4954 13.6892 16.6177 13.7003 15.7074Z" fill="#808080"/>
<path id="Vector_2" d="M32.733 15.7073C32.6624 14.8867 32.285 14.123 31.6761 13.5684C31.0673 13.0138 30.2717 12.7091 29.4482 12.7151H19.976V3.2489C19.976 1.40941 18.3336 -0.0359029 16.5956 0.0596551C15.7772 0.131607 15.0157 0.508751 14.4625 1.11618C13.9093 1.72362 13.6048 2.5169 13.6094 3.33849V12.8047H16.5956C17.4888 12.8156 18.3423 13.1752 18.9739 13.8068C19.6055 14.4384 19.9651 15.2919 19.976 16.1851V19.1832H29.5437C30.4097 19.1832 31.1861 18.795 31.7655 18.2157C32.0877 17.8845 32.3396 17.4916 32.5059 17.0605C32.6721 16.6294 32.7494 16.1691 32.733 15.7073Z" fill="#808080"/>
<path id="Vector_3" d="M16.5956 12.8107H13.6094V15.8089C13.6202 16.702 13.9798 17.5556 14.6115 18.1872C15.2431 18.8188 16.0966 19.1784 16.9897 19.1892H19.9819V16.1911C19.9925 15.7443 19.9124 15.3 19.7463 14.885C19.5801 14.4701 19.3315 14.0932 19.0155 13.7772C18.6995 13.4611 18.3226 13.2125 17.9076 13.0464C17.4927 12.8803 17.0484 12.8001 16.6015 12.8107H16.5956Z" fill="#808080"/>
<path id="Vector_4" d="M42.4864 9.33483H45.9683C47.8974 9.33483 50.4118 9.52595 51.1822 11.6521C52.0542 14.1605 50.5073 16.3882 47.9989 16.7704L51.9527 23.1489H49.922L46.1595 16.9675H44.0273V23.1489H42.4805V9.33483H42.4864ZM44.1288 15.4207H45.5801C47.0314 15.4207 49.2531 15.5162 49.6413 13.7783C50.1191 11.5566 48.0885 10.8817 46.3565 10.8817H44.0333V15.4207H44.1288ZM62.2013 21.5065C60.6544 23.4416 57.6623 24.0149 55.5361 22.6652C53.7026 21.411 53.1232 18.9026 53.7981 16.872C54.5745 14.7458 56.6947 13.5872 58.9164 13.8738C61.3353 14.262 62.4939 16.2927 62.4939 18.6099V19.0877H55.1479C55.345 22.1814 59.2091 22.8623 61.0426 20.6405L62.2013 21.5065ZM60.9471 17.7439C60.8515 14.262 55.6316 14.4591 55.2434 17.7439H60.9471ZM65.0023 8.36731H66.5551V23.0534H65.0023V8.36731ZM70.5088 9.33483C71.9601 9.33483 71.9601 11.5566 70.5088 11.5566C69.0575 11.5566 69.0575 9.33483 70.5088 9.33483ZM69.7324 13.9694H71.2852V23.0534H69.7324V13.9754V13.9694ZM74.0863 15.2236C75.442 13.8738 77.8549 13.3901 79.5928 14.1665C81.0441 14.7458 81.5279 16.1971 81.5279 17.738V21.6977C81.5279 22.1814 81.6234 22.7607 81.6234 23.2505H80.1721C80.0766 22.8623 80.0766 22.2829 80.0766 21.8947C78.5297 24.4031 73.3159 23.9254 73.6981 20.4435C73.9907 17.738 77.3711 17.6424 79.4017 17.6424H79.981V17.3498C79.981 14.7458 76.4036 15.0325 75.0538 16.3882L74.0863 15.2296V15.2236ZM78.5297 18.7055C77.6637 18.7055 76.4036 18.8011 75.7287 19.4819C75.1494 20.0553 75.2509 21.2139 75.9258 21.6977C77.7593 23.0534 79.981 21.2199 80.0766 19.2848V18.7055H78.5297ZM84.3229 16.1911C84.3229 15.3251 84.2274 14.6443 84.2274 14.065H85.6787V15.6178C86.4551 13.9694 88.5753 13.5872 90.1221 14.065C91.5734 14.6443 92.1527 16.0956 92.1527 17.5469V23.1489H90.797V17.6424C90.797 16 89.7339 14.8354 87.996 15.2296C86.3536 15.6118 85.8698 17.1586 85.8698 18.7055V23.1489H84.3229V16.1911ZM101.619 16.2867C101.172 15.7504 100.556 15.382 99.8727 15.242C99.1889 15.102 98.4779 15.1987 97.8563 15.5162C97.3493 15.8089 96.9297 16.2317 96.6409 16.741C96.3522 17.2503 96.2047 17.8275 96.2139 18.4128C96.2139 19.667 96.6917 20.9272 97.8563 21.6021C98.4746 21.9361 99.1909 22.0413 99.8791 21.8993C100.567 21.7573 101.183 21.3771 101.619 20.8257L102.784 21.8947C101.428 23.4416 98.9135 23.7283 97.1755 22.8623C95.5331 22.0859 94.6671 20.3479 94.6671 18.6099C94.6393 17.7236 94.8594 16.8471 95.3025 16.079C95.7457 15.3109 96.3943 14.6817 97.1755 14.262C99.015 13.3901 101.428 13.6827 102.879 15.2296L101.625 16.2867H101.619ZM112.728 21.5065C111.181 23.4416 108.189 24.0149 106.062 22.6652C104.229 21.411 103.644 18.9026 104.324 16.872C105.101 14.7458 107.221 13.5872 109.443 13.8738C111.862 14.262 113.02 16.2927 113.02 18.6099V19.0877H105.674C105.871 22.1814 109.735 22.8623 111.569 20.6405L112.728 21.5065ZM111.378 17.7439C111.276 14.262 106.062 14.4591 105.674 17.7439H111.378Z" fill="#808080"/>
<path id="Vector_5" d="M115.629 9.33481H117.271V15.128H124.611V9.33481H126.254V23.1489H124.611V16.7764H117.265V23.1549H115.629V9.33481ZM129.73 9.33481H132.143L136.783 20.1568L141.519 9.33481H143.932V23.1489H142.29V11.5565L137.362 23.1489H136.395L131.468 11.5565V23.1489H129.831V9.33481H129.736H129.73ZM146.548 16.1911C146.548 13.1989 148.28 10.3979 151.182 9.33481C154.079 8.36728 157.465 9.13772 159.394 11.461C161.234 13.7783 161.425 17.2542 159.974 19.8641C158.427 22.5696 155.238 23.7282 152.246 23.2445C148.865 22.7667 146.548 19.673 146.548 16.1971V16.1911ZM159.203 16.1911C159.203 13.8738 157.949 11.6521 155.721 10.7861C154.636 10.3619 153.444 10.2923 152.316 10.5874C151.188 10.8824 150.183 11.5269 149.445 12.4285C146.351 16.3882 149.54 22.6652 154.76 21.7992C157.465 21.411 159.203 18.8966 159.203 16.1911Z" fill="#808080"/>
</g>
<defs>
<clipPath id="clip0_10658_14132">
<rect width="160" height="31.8925" fill="white" transform="translate(0.949219 0.0537109)"/>
</clipPath>
</defs>
</svg>
