<svg width="86" height="24" viewBox="0 0 86 24" fill="none" xmlns="http://www.w3.org/2000/svg">
<mask id="path-1-inside-1_980_2735" fill="white">
<path fill-rule="evenodd" clip-rule="evenodd" d="M69.2228 11.9912L67.7071 9.58948H67.688L66.1723 7.18773L64.6567 4.78597L63.141 2.38422L61.6254 0H55.5628L57.0785 2.38422L58.5941 4.78597L60.1098 7.18773L61.6254 9.58948L63.141 11.9912H66.1723L64.6567 14.393L63.141 16.7947L61.6254 19.1965L60.1098 21.5982L58.5941 24H64.6567L66.1723 21.5982L67.7071 19.1965L69.2228 16.7947L70.7384 14.393L72.2541 11.9912L73.7697 14.393L75.2853 16.7947L76.801 19.1965L78.3166 21.5982L79.8322 24H85.8948L84.3792 21.5982L82.8635 19.1965L81.3479 16.7947L79.8322 14.393L78.3166 11.9912H75.2853L76.801 9.58948L78.3166 7.18773L79.8322 4.78597L81.3479 2.38422L82.8635 0H76.801L75.2853 2.38422L73.7697 4.78597L72.2541 7.18773L70.7384 9.58948L69.2228 11.9912ZM4.66321 0.525878H11.2054L15.3302 15.9357H15.618L25.3258 0.525878H31.868L27.7239 23.474H22.5823L25.3066 8.53757H25.0956L15.9058 23.3688H12.3757L8.5962 8.48497H8.38516L5.64166 23.474H0.5L4.66321 0.525878ZM36.4149 23.4741H30.7168L43.571 0.526002H50.4201L54.8903 23.4741H49.1923L48.297 18.2499H39.2366L36.4149 23.4741ZM46.161 5.78532L47.6481 14.4632H41.282L45.9692 5.78532H46.161Z"/>
</mask>
<path fill-rule="evenodd" clip-rule="evenodd" d="M69.2228 11.9912L67.7071 9.58948H67.688L66.1723 7.18773L64.6567 4.78597L63.141 2.38422L61.6254 0H55.5628L57.0785 2.38422L58.5941 4.78597L60.1098 7.18773L61.6254 9.58948L63.141 11.9912H66.1723L64.6567 14.393L63.141 16.7947L61.6254 19.1965L60.1098 21.5982L58.5941 24H64.6567L66.1723 21.5982L67.7071 19.1965L69.2228 16.7947L70.7384 14.393L72.2541 11.9912L73.7697 14.393L75.2853 16.7947L76.801 19.1965L78.3166 21.5982L79.8322 24H85.8948L84.3792 21.5982L82.8635 19.1965L81.3479 16.7947L79.8322 14.393L78.3166 11.9912H75.2853L76.801 9.58948L78.3166 7.18773L79.8322 4.78597L81.3479 2.38422L82.8635 0H76.801L75.2853 2.38422L73.7697 4.78597L72.2541 7.18773L70.7384 9.58948L69.2228 11.9912ZM4.66321 0.525878H11.2054L15.3302 15.9357H15.618L25.3258 0.525878H31.868L27.7239 23.474H22.5823L25.3066 8.53757H25.0956L15.9058 23.3688H12.3757L8.5962 8.48497H8.38516L5.64166 23.474H0.5L4.66321 0.525878ZM36.4149 23.4741H30.7168L43.571 0.526002H50.4201L54.8903 23.4741H49.1923L48.297 18.2499H39.2366L36.4149 23.4741ZM46.161 5.78532L47.6481 14.4632H41.282L45.9692 5.78532H46.161Z" fill="#999999"/>
<path d="M67.7071 9.58948L68.0267 9.38783L67.9155 9.21162H67.7071V9.58948ZM69.2228 11.9912L68.9032 12.1929L69.2228 12.6993L69.5423 12.1929L69.2228 11.9912ZM67.688 9.58948L67.3684 9.79113L67.4796 9.96734H67.688V9.58948ZM66.1723 7.18773L66.4919 6.98607V6.98607L66.1723 7.18773ZM64.6567 4.78597L64.9762 4.58432V4.58432L64.6567 4.78597ZM63.141 2.38422L63.4606 2.18257L63.4599 2.18151L63.141 2.38422ZM61.6254 0L61.9443 -0.202711L61.8329 -0.377859H61.6254V0ZM55.5628 0V-0.377859H54.8749L55.244 0.202712L55.5628 0ZM57.0785 2.38422L57.398 2.18257L57.3974 2.18151L57.0785 2.38422ZM58.5941 4.78597L58.9137 4.58432L58.5941 4.78597ZM60.1098 7.18773L59.7902 7.38938V7.38938L60.1098 7.18773ZM61.6254 9.58948L61.9449 9.38783L61.6254 9.58948ZM63.141 11.9912L62.8215 12.1929L62.9327 12.3691H63.141V11.9912ZM66.1723 11.9912L66.4919 12.1929L66.8576 11.6134H66.1723V11.9912ZM64.6567 14.393L64.9762 14.5946L64.6567 14.393ZM63.141 16.7947L62.8215 16.5931L63.141 16.7947ZM61.6254 19.1965L61.9449 19.3981L61.6254 19.1965ZM60.1098 21.5982L59.7902 21.3966L60.1098 21.5982ZM58.5941 24L58.2746 23.7983L57.9089 24.3779H58.5941V24ZM64.6567 24V24.3779H64.865L64.9762 24.2017L64.6567 24ZM66.1723 21.5982L65.8539 21.3948L65.8528 21.3966L66.1723 21.5982ZM67.7071 19.1965L68.0255 19.4L68.0267 19.3981L67.7071 19.1965ZM69.2228 16.7947L69.5423 16.9964L69.2228 16.7947ZM70.7384 14.393L70.4189 14.1913V14.1913L70.7384 14.393ZM72.2541 11.9912L72.5736 11.7896L72.2541 11.2832L71.9345 11.7896L72.2541 11.9912ZM73.7697 14.393L74.0892 14.1913L73.7697 14.393ZM75.2853 16.7947L74.9658 16.9964L75.2853 16.7947ZM76.801 19.1965L77.1205 18.9948L76.801 19.1965ZM78.3166 21.5982L77.9971 21.7999L78.3166 21.5982ZM79.8322 24L79.5127 24.2017L79.6239 24.3779H79.8322V24ZM85.8948 24V24.3779H86.5801L86.2143 23.7983L85.8948 24ZM84.3792 21.5982L84.6987 21.3966L84.3792 21.5982ZM81.3479 16.7947L81.0283 16.9964L81.3479 16.7947ZM79.8322 14.393L80.1518 14.1913L79.8322 14.393ZM78.3166 11.9912L78.6362 11.7896L78.525 11.6134H78.3166V11.9912ZM75.2853 11.9912L74.9658 11.7896L74.6001 12.3691H75.2853V11.9912ZM76.801 9.58948L77.1205 9.79113V9.79113L76.801 9.58948ZM78.3166 7.18773L77.9971 6.98607V6.98607L78.3166 7.18773ZM79.8322 4.78597L79.5127 4.58432L79.8322 4.78597ZM81.3479 2.38422L81.029 2.18151L81.0283 2.18257L81.3479 2.38422ZM82.8635 0L83.1824 0.202712L83.5515 -0.377859H82.8635V0ZM76.801 0V-0.377859H76.5934L76.4821 -0.202712L76.801 0ZM75.2853 2.38422L74.9664 2.18151L74.9658 2.18257L75.2853 2.38422ZM73.7697 4.78597L73.4501 4.58432L73.7697 4.78597ZM72.2541 7.18773L72.5736 7.38938L72.2541 7.18773ZM70.7384 9.58948L70.4189 9.38783V9.38783L70.7384 9.58948ZM11.2054 0.525878L11.5704 0.428173L11.4954 0.148019H11.2054V0.525878ZM4.66321 0.525878V0.148019H4.34773L4.29142 0.458428L4.66321 0.525878ZM15.3302 15.9357L14.9652 16.0334L15.0402 16.3135H15.3302V15.9357ZM15.618 15.9357V16.3135H15.8266L15.9377 16.1371L15.618 15.9357ZM25.3258 0.525878V0.148019H25.1172L25.0061 0.324471L25.3258 0.525878ZM31.868 0.525878L32.2398 0.593026L32.3202 0.148019H31.868V0.525878ZM27.7239 23.474V23.8519H28.0397L28.0958 23.5412L27.7239 23.474ZM22.5823 23.474L22.2106 23.4062L22.1293 23.8519H22.5823V23.474ZM25.3066 8.53757L25.6783 8.60537L25.7596 8.15971H25.3066V8.53757ZM25.0956 8.53757V8.15971H24.8852L24.7744 8.33855L25.0956 8.53757ZM15.9058 23.3688V23.7467H16.1162L16.227 23.5678L15.9058 23.3688ZM12.3757 23.3688L12.0095 23.4618L12.0818 23.7467H12.3757V23.3688ZM8.5962 8.48497L8.96243 8.39197L8.8901 8.10711H8.5962V8.48497ZM8.38516 8.48497V8.10711H8.07018L8.01348 8.41694L8.38516 8.48497ZM5.64166 23.474V23.8519H5.95664L6.01335 23.542L5.64166 23.474ZM0.5 23.474L0.12821 23.4066L0.0474229 23.8519H0.5V23.474ZM30.7168 23.4741L30.3872 23.2895L30.0721 23.852H30.7168V23.4741ZM36.4149 23.4741V23.852H36.6402L36.7473 23.6537L36.4149 23.4741ZM43.571 0.526002V0.148144H43.3495L43.2413 0.341344L43.571 0.526002ZM50.4201 0.526002L50.791 0.453755L50.7315 0.148144H50.4201V0.526002ZM54.8903 23.4741V23.852H55.3489L55.2612 23.4019L54.8903 23.4741ZM49.1923 23.4741L48.8199 23.538L48.8737 23.852H49.1923V23.4741ZM48.297 18.2499L48.6694 18.1861L48.6156 17.872H48.297V18.2499ZM39.2366 18.2499V17.872H39.0113L38.9042 18.0703L39.2366 18.2499ZM47.6481 14.4632V14.841H48.0962L48.0205 14.3994L47.6481 14.4632ZM46.161 5.78532L46.5334 5.72149L46.4796 5.40746H46.161V5.78532ZM41.282 14.4632L40.9495 14.2836L40.6484 14.841H41.282V14.4632ZM45.9692 5.78532V5.40746H45.7438L45.6367 5.60574L45.9692 5.78532ZM67.3876 9.79113L68.9032 12.1929L69.5423 11.7896L68.0267 9.38783L67.3876 9.79113ZM67.688 9.96734H67.7071V9.21162H67.688V9.96734ZM65.8528 7.38938L67.3684 9.79113L68.0075 9.38783L66.4919 6.98607L65.8528 7.38938ZM64.3371 4.98763L65.8528 7.38938L66.4919 6.98607L64.9762 4.58432L64.3371 4.98763ZM62.8215 2.58588L64.3371 4.98763L64.9762 4.58432L63.4606 2.18257L62.8215 2.58588ZM61.3065 0.202711L62.8222 2.58693L63.4599 2.18151L61.9443 -0.202711L61.3065 0.202711ZM55.5628 0.377859H61.6254V-0.377859H55.5628V0.377859ZM57.3974 2.18151L55.8817 -0.202712L55.244 0.202712L56.7596 2.58693L57.3974 2.18151ZM58.9137 4.58432L57.398 2.18257L56.7589 2.58588L58.2746 4.98763L58.9137 4.58432ZM60.4293 6.98607L58.9137 4.58432L58.2746 4.98763L59.7902 7.38938L60.4293 6.98607ZM61.9449 9.38783L60.4293 6.98607L59.7902 7.38938L61.3058 9.79113L61.9449 9.38783ZM63.4606 11.7896L61.9449 9.38783L61.3058 9.79113L62.8215 12.1929L63.4606 11.7896ZM66.1723 11.6134H63.141V12.3691H66.1723V11.6134ZM64.9762 14.5946L66.4919 12.1929L65.8528 11.7896L64.3371 14.1913L64.9762 14.5946ZM63.4606 16.9964L64.9762 14.5946L64.3371 14.1913L62.8215 16.5931L63.4606 16.9964ZM61.9449 19.3981L63.4606 16.9964L62.8215 16.5931L61.3058 18.9948L61.9449 19.3981ZM60.4293 21.7999L61.9449 19.3981L61.3058 18.9948L59.7902 21.3966L60.4293 21.7999ZM58.9137 24.2017L60.4293 21.7999L59.7902 21.3966L58.2746 23.7983L58.9137 24.2017ZM64.6567 23.6221H58.5941V24.3779H64.6567V23.6221ZM65.8528 21.3966L64.3371 23.7983L64.9762 24.2017L66.4919 21.7999L65.8528 21.3966ZM67.3887 18.993L65.8539 21.3948L66.4907 21.8017L68.0255 19.4L67.3887 18.993ZM68.9032 16.5931L67.3876 18.9948L68.0267 19.3981L69.5423 16.9964L68.9032 16.5931ZM70.4189 14.1913L68.9032 16.5931L69.5423 16.9964L71.058 14.5946L70.4189 14.1913ZM71.9345 11.7896L70.4189 14.1913L71.058 14.5946L72.5736 12.1929L71.9345 11.7896ZM74.0892 14.1913L72.5736 11.7896L71.9345 12.1929L73.4501 14.5946L74.0892 14.1913ZM75.6049 16.5931L74.0892 14.1913L73.4501 14.5946L74.9658 16.9964L75.6049 16.5931ZM77.1205 18.9948L75.6049 16.5931L74.9658 16.9964L76.4814 19.3981L77.1205 18.9948ZM78.6362 21.3966L77.1205 18.9948L76.4814 19.3981L77.9971 21.7999L78.6362 21.3966ZM80.1518 23.7983L78.6362 21.3966L77.9971 21.7999L79.5127 24.2017L80.1518 23.7983ZM85.8948 23.6221H79.8322V24.3779H85.8948V23.6221ZM84.0596 21.7999L85.5752 24.2017L86.2143 23.7983L84.6987 21.3966L84.0596 21.7999ZM82.544 19.3981L84.0596 21.7999L84.6987 21.3966L83.1831 18.9948L82.544 19.3981ZM81.0283 16.9964L82.544 19.3981L83.1831 18.9948L81.6674 16.5931L81.0283 16.9964ZM79.5127 14.5946L81.0283 16.9964L81.6674 16.5931L80.1518 14.1913L79.5127 14.5946ZM77.9971 12.1929L79.5127 14.5946L80.1518 14.1913L78.6362 11.7896L77.9971 12.1929ZM75.2853 12.3691H78.3166V11.6134H75.2853V12.3691ZM76.4814 9.38783L74.9658 11.7896L75.6049 12.1929L77.1205 9.79113L76.4814 9.38783ZM77.9971 6.98607L76.4814 9.38783L77.1205 9.79113L78.6362 7.38938L77.9971 6.98607ZM79.5127 4.58432L77.9971 6.98607L78.6362 7.38938L80.1518 4.98763L79.5127 4.58432ZM81.0283 2.18257L79.5127 4.58432L80.1518 4.98763L81.6674 2.58588L81.0283 2.18257ZM82.5446 -0.202712L81.029 2.18151L81.6668 2.58693L83.1824 0.202712L82.5446 -0.202712ZM76.801 0.377859H82.8635V-0.377859H76.801V0.377859ZM75.6042 2.58693L77.1199 0.202712L76.4821 -0.202712L74.9665 2.18151L75.6042 2.58693ZM74.0892 4.98763L75.6049 2.58588L74.9658 2.18257L73.4501 4.58432L74.0892 4.98763ZM72.5736 7.38938L74.0892 4.98763L73.4501 4.58432L71.9345 6.98607L72.5736 7.38938ZM71.058 9.79113L72.5736 7.38938L71.9345 6.98607L70.4189 9.38783L71.058 9.79113ZM69.5423 12.1929L71.058 9.79113L70.4189 9.38783L68.9032 11.7896L69.5423 12.1929ZM11.2054 0.148019H4.66321V0.903736H11.2054V0.148019ZM15.6952 15.838L11.5704 0.428173L10.8404 0.623582L14.9652 16.0334L15.6952 15.838ZM15.618 15.5578H15.3302V16.3135H15.618V15.5578ZM25.0061 0.324471L15.2983 15.7343L15.9377 16.1371L25.6455 0.727284L25.0061 0.324471ZM31.868 0.148019H25.3258V0.903736H31.868V0.148019ZM28.0958 23.5412L32.2398 0.593026L31.4961 0.458729L27.3521 23.4069L28.0958 23.5412ZM22.5823 23.8519H27.7239V23.0962H22.5823V23.8519ZM24.9349 8.46977L22.2106 23.4062L22.954 23.5418L25.6783 8.60537L24.9349 8.46977ZM25.0956 8.91543H25.3066V8.15971H25.0956V8.91543ZM16.227 23.5678L25.4168 8.73659L24.7744 8.33855L15.5846 23.1698L16.227 23.5678ZM12.3757 23.7467H15.9058V22.991H12.3757V23.7467ZM8.22996 8.57797L12.0095 23.4618L12.7419 23.2758L8.96243 8.39197L8.22996 8.57797ZM8.38516 8.86283H8.5962V8.10711H8.38516V8.86283ZM6.01335 23.542L8.75684 8.553L8.01348 8.41694L5.26998 23.406L6.01335 23.542ZM0.5 23.8519H5.64166V23.0962H0.5V23.8519ZM4.29142 0.458428L0.12821 23.4066L0.87179 23.5415L5.035 0.593327L4.29142 0.458428ZM30.7168 23.852H36.4149V23.0963H30.7168V23.852ZM43.2413 0.341344L30.3872 23.2895L31.0465 23.6588L43.9007 0.71066L43.2413 0.341344ZM50.4201 0.148144H43.571V0.903861H50.4201V0.148144ZM55.2612 23.4019L50.791 0.453755L50.0493 0.598249L54.5194 23.5464L55.2612 23.4019ZM49.1923 23.852H54.8903V23.0963H49.1923V23.852ZM47.9246 18.3137L48.8199 23.538L49.5647 23.4103L48.6694 18.1861L47.9246 18.3137ZM39.2366 18.6277H48.297V17.872H39.2366V18.6277ZM36.7473 23.6537L39.5691 18.4295L38.9042 18.0703L36.0824 23.2946L36.7473 23.6537ZM48.0205 14.3994L46.5334 5.72149L45.7886 5.84914L47.2757 14.527L48.0205 14.3994ZM41.282 14.841H47.6481V14.0853H41.282V14.841ZM45.6367 5.60574L40.9495 14.2836L41.6144 14.6428L46.3016 5.96489L45.6367 5.60574ZM46.161 5.40746H45.9692V6.16317H46.161V5.40746Z" fill="#999999" mask="url(#path-1-inside-1_980_2735)"/>
</svg>
