<svg width="30" height="23" viewBox="0 0 30 23" fill="none" xmlns="http://www.w3.org/2000/svg">
<path fill-rule="evenodd" clip-rule="evenodd" d="M22.7947 4.34298C20.8301 2.12725 17.9967 0.736328 14.8466 0.736328C11.6964 0.736328 8.86306 2.12725 6.89845 4.34298H22.7947ZM6.89845 19.161C8.86306 21.3767 11.6964 22.7677 14.8466 22.7677C17.9967 22.7677 20.8301 21.3767 22.7947 19.161H6.89845ZM5.23759 5.27959C2.60293 5.27959 0.467163 7.47011 0.467163 10.1723V13.3317C0.467163 16.0339 2.60293 18.2244 5.23759 18.2244H24.4556C27.0903 18.2244 29.226 16.0339 29.226 13.3317V10.1723C29.226 7.47011 27.0903 5.27959 24.4556 5.27959H5.23759ZM28.7354 10.1164C28.7354 7.72302 26.8437 5.78285 24.5101 5.78285H19.7397C17.4061 5.78285 15.5145 7.72302 15.5145 10.1164V13.4015C15.5145 15.7949 13.6228 17.7351 11.2892 17.7351H24.5101C26.8437 17.7351 28.7354 15.7949 28.7354 13.4015V10.1164ZM12.1615 10.41V15.0371H13.5245V10.41H12.1615ZM12.0252 8.94915C12.0252 9.40853 12.3883 9.78092 12.8362 9.78092C13.2841 9.78092 13.6472 9.40853 13.6472 8.94915C13.6472 8.48977 13.2841 8.11738 12.8362 8.11738C12.3883 8.11738 12.0252 8.48977 12.0252 8.94915ZM2.93416 8.28514L4.6924 15.0371H5.82367L7.14576 10.368L8.46785 15.0371H9.64001L11.371 8.28514H10.0489L9.0403 12.7305L7.78636 8.28514H6.57331L5.31937 12.6187L4.36528 8.28514H2.93416ZM17.6816 8.28514V15.0371H19.1263V12.395H22.3975V11.0251H19.1263V9.6551H22.6156V8.28514H17.6816ZM23.5969 10.41V15.0371H24.9599V10.41H23.5969ZM23.4743 8.93517C23.4743 9.39455 23.8373 9.76694 24.2852 9.76694C24.7331 9.76694 25.0962 9.39455 25.0962 8.93517C25.0962 8.47579 24.7331 8.1034 24.2852 8.1034C23.8373 8.1034 23.4743 8.47579 23.4743 8.93517Z" fill="#EFEFEF"/>
</svg>
