<svg width="26" height="30" viewBox="0 0 26 30" fill="none" xmlns="http://www.w3.org/2000/svg">
<path fill-rule="evenodd" clip-rule="evenodd" d="M7.67309 7.10876C8.7005 7.09511 9.61758 7.36144 10.5242 7.67524C11.0795 7.86638 11.6275 8.07117 12.1965 8.21463C13.2204 8.46018 14.21 8.37153 15.189 7.99619C15.8854 7.72986 16.5816 7.457 17.3128 7.29297C19.5121 6.79454 21.4842 7.28624 23.2566 8.63073C23.7459 8.99284 24.184 9.40894 24.5732 9.87313C24.7319 10.0506 24.7251 10.0916 24.5183 10.2212C22.6841 11.3268 21.6085 12.9446 21.422 15.0673C21.2431 17.0467 21.8566 18.7804 23.2459 20.2274C23.8492 20.8554 24.5631 21.3264 25.3664 21.6677C25.5938 21.7565 25.6041 21.7907 25.5078 22.009C24.6078 24.0636 23.4151 25.9609 21.9325 27.6537C21.422 28.2273 20.8432 28.7457 20.1538 29.121C19.078 29.7148 17.9676 29.7218 16.8471 29.2508C16.3852 29.0597 15.9406 28.8209 15.4646 28.664C13.9168 28.1794 12.3929 28.2407 10.893 28.8549C10.5001 29.0188 10.1139 29.1962 9.71392 29.3395C8.26615 29.8721 6.96269 29.5443 5.77697 28.6161C5.05278 28.0496 4.46013 27.3672 3.91524 26.6367C2.66035 24.9576 1.67082 23.135 1.002 21.1556C0.522568 19.7428 0.219347 18.2891 0.139887 16.7945C0.0470473 15.1559 0.17797 13.5384 0.839994 12.0164C1.8847 9.64104 3.65298 8.02349 6.19074 7.29297C6.68705 7.14972 7.19715 7.08818 7.67309 7.10876Z" fill="white"/>
<path fill-rule="evenodd" clip-rule="evenodd" d="M18.4568 0.66586C18.4459 2.08121 17.9793 3.26972 17.2132 4.35528C16.3415 5.57784 15.1599 6.42979 13.6682 6.89002C13.2089 7.02723 12.742 7.10291 12.2608 7.10291C12.0711 7.10291 12.0017 7.03441 11.9836 6.85577C11.8592 5.82497 12.1075 4.8635 12.567 3.9496C13.4785 2.1294 14.9885 0.947658 16.9728 0.267775C17.3739 0.13713 17.7824 0.0682192 18.2055 0.00628106C18.3841 -0.0277644 18.4207 0.0819604 18.4316 0.205837C18.4459 0.384473 18.4751 0.57685 18.4568 0.66586Z" fill="white"/>
</svg>
