<svg width="167" height="48" viewBox="0 0 167 48" fill="none" xmlns="http://www.w3.org/2000/svg">
<g id="Group">
<path id="BG" d="M166.077 42.4643C166.077 45.0223 163.962 47.0943 161.346 47.0943H6.50716C3.89215 47.0943 1.76953 45.0223 1.76953 42.4643V5.54167C1.76953 2.9849 3.89215 0.90564 6.50716 0.90564H161.345C163.962 0.90564 166.076 2.9849 166.076 5.54167L166.077 42.4643Z" fill="#0D0D0D"/>
<path id="Border" d="M160.848 0.961502C163.697 0.961502 166.015 3.222 166.015 6V42C166.015 44.778 163.697 47.0385 160.848 47.0385H7.0015C4.15227 47.0385 1.83381 44.778 1.83381 42V6C1.83381 3.222 4.15227 0.961502 7.0015 0.961502H160.848ZM160.848 3.8147e-06H7.0015C3.61843 3.8147e-06 0.847656 2.7015 0.847656 6V42C0.847656 45.2985 3.61843 48 7.0015 48H160.848C164.231 48 167.002 45.2985 167.002 42V6C167.002 2.7015 164.231 3.8147e-06 160.848 3.8147e-06Z" fill="#A6A6A6"/>
<g id="Icon">
<g id="Vector">
<path d="M37.9266 23.7408C37.8909 19.8732 41.1746 17.9916 41.3247 17.904C39.465 15.2604 36.5826 14.8992 35.5697 14.8704C33.1487 14.622 30.8004 16.2828 29.5672 16.2828C28.3093 16.2828 26.4103 14.8944 24.3635 14.9352C21.7297 14.9748 19.2657 16.4616 17.9143 18.7704C15.1253 23.478 17.2053 30.396 19.8773 34.2012C21.214 36.0648 22.7758 38.1456 24.8201 38.0724C26.8201 37.992 27.5672 36.8292 29.9807 36.8292C32.3721 36.8292 33.0737 38.0724 35.1586 38.0256C37.305 37.992 38.6564 36.1536 39.9463 34.2732C41.4909 32.1372 42.1112 30.0336 42.1358 29.9256C42.0853 29.9088 37.9672 28.3764 37.9266 23.7408Z" fill="white"/>
<path d="M33.9881 12.3672C35.0638 11.0556 35.7998 9.27125 35.5955 7.46045C34.0386 7.52765 32.0915 8.51045 30.9703 9.79325C29.9783 10.9236 29.0921 12.7764 29.321 14.5188C31.07 14.646 32.8657 13.6584 33.9881 12.3672Z" fill="white"/>
</g>
</g>
<g id="Download on the">
<path id="D" d="M61.2157 12.0108C61.2157 13.4232 60.7813 14.4864 59.9136 15.2004C59.1099 15.8592 57.9677 16.1892 56.4883 16.1892C55.7548 16.1892 55.1271 16.158 54.6016 16.0956V8.37841C55.2871 8.27041 56.0256 8.21521 56.8231 8.21521C58.2323 8.21521 59.2945 8.51401 60.0108 9.11161C60.8133 9.78721 61.2157 10.7532 61.2157 12.0108ZM59.8557 12.0456C59.8557 11.13 59.6071 10.428 59.1099 9.93841C58.6126 9.45001 57.8865 9.20521 56.9302 9.20521C56.524 9.20521 56.1782 9.23161 55.8914 9.28681V15.1536C56.0502 15.1776 56.3406 15.1884 56.7628 15.1884C57.7499 15.1884 58.5117 14.9208 59.0483 14.3856C59.585 13.8504 59.8557 13.0704 59.8557 12.0456Z" fill="white"/>
<path id="o" d="M68.4286 13.2443C68.4286 14.1143 68.1738 14.8271 67.6643 15.3863C67.1301 15.9611 66.4224 16.2479 65.5387 16.2479C64.687 16.2479 64.0089 15.9731 63.503 15.4211C62.9984 14.8703 62.7461 14.1755 62.7461 13.3379C62.7461 12.4619 63.0058 11.7431 63.5276 11.1851C64.0495 10.6271 64.751 10.3475 65.6347 10.3475C66.4864 10.3475 67.1707 10.6223 67.6889 11.1731C68.1812 11.7083 68.4286 12.3995 68.4286 13.2443ZM67.0907 13.2851C67.0907 12.7631 66.975 12.3155 66.7449 11.9423C66.4741 11.4911 66.0889 11.2655 65.5879 11.2655C65.0698 11.2655 64.6759 11.4911 64.4052 11.9423C64.1738 12.3155 64.0593 12.7703 64.0593 13.3079C64.0593 13.8299 64.175 14.2775 64.4052 14.6507C64.6846 15.1019 65.0735 15.3275 65.5756 15.3275C66.0679 15.3275 66.4544 15.0983 66.7326 14.6387C66.9713 14.2583 67.0907 13.8071 67.0907 13.2851Z" fill="white"/>
<path id="w" d="M78.0976 10.4628L76.2822 16.1196H75.1006L74.3486 13.6632C74.1579 13.05 74.0028 12.4404 73.8822 11.8356H73.8588C73.7468 12.4572 73.5917 13.0656 73.3923 13.6632L72.5936 16.1196H71.3985L69.6914 10.4628H71.0169L71.6729 13.152C71.8317 13.788 71.9622 14.394 72.0668 14.9676H72.0902C72.1862 14.4948 72.3449 13.8924 72.5689 13.164L73.3923 10.464H74.4434L75.2323 13.1064C75.4231 13.7508 75.5782 14.3712 75.6976 14.9688H75.7333C75.8206 14.3868 75.9523 13.7664 76.1271 13.1064L76.8311 10.464H78.0976V10.4628Z" fill="white"/>
<path id="n" d="M84.7808 16.1196H83.491V12.8796C83.491 11.8812 83.1021 11.382 82.3218 11.382C81.939 11.382 81.6301 11.5188 81.3901 11.7936C81.1525 12.0684 81.0319 12.3924 81.0319 12.7632V16.1184H79.7421V12.0792C79.7421 11.5824 79.7261 11.0436 79.6953 10.4604H80.8288L80.8892 11.3448H80.9248C81.075 11.07 81.299 10.8432 81.5932 10.662C81.9427 10.4508 82.3341 10.344 82.7624 10.344C83.3039 10.344 83.7544 10.5144 84.1125 10.8564C84.5581 11.2752 84.7808 11.9004 84.7808 12.7308V16.1196Z" fill="white"/>
<path id="l" d="M88.3394 16.1196H87.0508V7.86719H88.3394V16.1196Z" fill="white"/>
<path id="o_2" d="M95.9325 13.2443C95.9325 14.1143 95.6777 14.8271 95.1682 15.3863C94.634 15.9611 93.9251 16.2479 93.0426 16.2479C92.1897 16.2479 91.5115 15.9731 91.0069 15.4211C90.5023 14.8703 90.25 14.1755 90.25 13.3379C90.25 12.4619 90.5097 11.7431 91.0315 11.1851C91.5534 10.6271 92.2549 10.3475 93.1374 10.3475C93.9903 10.3475 94.6734 10.6223 95.1928 11.1731C95.6851 11.7083 95.9325 12.3995 95.9325 13.2443ZM94.5934 13.2851C94.5934 12.7631 94.4777 12.3155 94.2475 11.9423C93.978 11.4911 93.5915 11.2655 93.0918 11.2655C92.5725 11.2655 92.1786 11.4911 91.9091 11.9423C91.6777 12.3155 91.5632 12.7703 91.5632 13.3079C91.5632 13.8299 91.6789 14.2775 91.9091 14.6507C92.1885 15.1019 92.5774 15.3275 93.0795 15.3275C93.5718 15.3275 93.9571 15.0983 94.2352 14.6387C94.4752 14.2583 94.5934 13.8071 94.5934 13.2851Z" fill="white"/>
<path id="a" d="M102.177 16.1195H101.019L100.923 15.4679H100.887C100.491 15.9875 99.9261 16.2479 99.1925 16.2479C98.6448 16.2479 98.2018 16.0763 97.8682 15.7355C97.5655 15.4259 97.4141 15.0407 97.4141 14.5835C97.4141 13.8923 97.7094 13.3655 98.3039 13.0007C98.8971 12.6359 99.7316 12.4571 100.806 12.4655V12.3599C100.806 11.6147 100.405 11.2427 99.6011 11.2427C99.0288 11.2427 98.5242 11.3831 98.0885 11.6615L97.8264 10.8359C98.3654 10.5107 99.0313 10.3475 99.8165 10.3475C101.333 10.3475 102.093 11.1275 102.093 12.6875V14.7707C102.093 15.3359 102.122 15.7859 102.177 16.1195ZM100.838 14.1755V13.3031C99.4153 13.2791 98.7039 13.6595 98.7039 14.4431C98.7039 14.7383 98.7851 14.9591 98.9513 15.1067C99.1174 15.2543 99.3291 15.3275 99.5814 15.3275C99.8645 15.3275 100.129 15.2399 100.37 15.0659C100.613 14.8907 100.762 14.6687 100.817 14.3963C100.831 14.3351 100.838 14.2607 100.838 14.1755Z" fill="white"/>
<path id="d" d="M109.503 16.1196H108.359L108.298 15.2112H108.263C107.897 15.9024 107.274 16.248 106.399 16.248C105.7 16.248 105.118 15.9804 104.657 15.4452C104.195 14.91 103.965 14.2152 103.965 13.362C103.965 12.4464 104.215 11.7048 104.717 11.1384C105.203 10.6104 105.799 10.3464 106.508 10.3464C107.287 10.3464 107.832 10.602 108.142 11.1144H108.167V7.86719H109.458V14.5956C109.458 15.1464 109.473 15.654 109.503 16.1196ZM108.167 13.734V12.7908C108.167 12.6276 108.154 12.4956 108.131 12.3948C108.058 12.0924 107.902 11.838 107.665 11.6328C107.425 11.4276 107.135 11.3244 106.802 11.3244C106.321 11.3244 105.944 11.5104 105.667 11.8836C105.393 12.2568 105.253 12.7332 105.253 13.3152C105.253 13.8744 105.385 14.328 105.65 14.6772C105.929 15.0492 106.306 15.2352 106.777 15.2352C107.201 15.2352 107.539 15.0804 107.796 14.7696C108.045 14.4828 108.167 14.1372 108.167 13.734Z" fill="white"/>
<path id="o_3" d="M120.538 13.2443C120.538 14.1143 120.283 14.8271 119.774 15.3863C119.239 15.9611 118.533 16.2479 117.648 16.2479C116.798 16.2479 116.119 15.9731 115.612 15.4211C115.108 14.8703 114.855 14.1755 114.855 13.3379C114.855 12.4619 115.115 11.7431 115.637 11.1851C116.159 10.6271 116.86 10.3475 117.745 10.3475C118.596 10.3475 119.281 10.6223 119.798 11.1731C120.291 11.7083 120.538 12.3995 120.538 13.2443ZM119.201 13.2851C119.201 12.7631 119.086 12.3155 118.855 11.9423C118.583 11.4911 118.199 11.2655 117.697 11.2655C117.18 11.2655 116.787 11.4911 116.515 11.9423C116.283 12.3155 116.169 12.7703 116.169 13.3079C116.169 13.8299 116.284 14.2775 116.515 14.6507C116.794 15.1019 117.183 15.3275 117.685 15.3275C118.177 15.3275 118.565 15.0983 118.843 14.6387C119.081 14.2583 119.201 13.8071 119.201 13.2851Z" fill="white"/>
<path id="n_2" d="M127.471 16.1196H126.182V12.8796C126.182 11.8812 125.793 11.382 125.012 11.382C124.629 11.382 124.32 11.5188 124.081 11.7936C123.843 12.0684 123.723 12.3924 123.723 12.7632V16.1184H122.432V12.0792C122.432 11.5824 122.417 11.0436 122.387 10.4604H123.519L123.579 11.3448H123.615C123.766 11.07 123.99 10.8432 124.283 10.662C124.634 10.4508 125.024 10.344 125.454 10.344C125.994 10.344 126.445 10.5144 126.803 10.8564C127.249 11.2752 127.471 11.9004 127.471 12.7308V16.1196Z" fill="white"/>
<path id="t" d="M136.151 11.4048H134.73V14.1528C134.73 14.8512 134.983 15.2004 135.482 15.2004C135.714 15.2004 135.906 15.1812 136.057 15.1416L136.09 16.0956C135.836 16.1892 135.501 16.236 135.089 16.236C134.579 16.236 134.183 16.0848 133.896 15.7824C133.608 15.48 133.465 14.9712 133.465 14.2572V11.4048H132.617V10.4628H133.465V9.42596L134.729 9.05396V10.4616H136.149V11.4048H136.151Z" fill="white"/>
<path id="h" d="M142.98 16.1196H141.689V12.9036C141.689 11.8896 141.3 11.382 140.521 11.382C139.923 11.382 139.514 11.676 139.29 12.264C139.252 12.3876 139.23 12.5388 139.23 12.7164V16.1184H137.941V7.86719H139.23V11.2764H139.255C139.661 10.656 140.243 10.3464 140.997 10.3464C141.532 10.3464 141.973 10.5168 142.324 10.8588C142.761 11.2848 142.98 11.9184 142.98 12.756V16.1196Z" fill="white"/>
<path id="e" d="M150.025 13.0236C150.025 13.2492 150.008 13.4388 149.977 13.5936H146.109C146.126 14.1528 146.311 14.5788 146.669 14.874C146.996 15.138 147.419 15.27 147.936 15.27C148.508 15.27 149.03 15.1812 149.5 15.0024L149.702 15.876C149.151 16.1088 148.504 16.2252 147.755 16.2252C146.856 16.2252 146.148 15.9672 145.636 15.4512C145.122 14.9352 144.867 14.2428 144.867 13.374C144.867 12.5208 145.105 11.8104 145.583 11.244C146.083 10.6392 146.759 10.3368 147.612 10.3368C148.446 10.3368 149.08 10.6392 149.508 11.244C149.854 11.724 150.025 12.318 150.025 13.0236ZM148.795 12.6984C148.804 12.3252 148.719 12.0036 148.545 11.7324C148.321 11.3832 147.98 11.208 147.518 11.208C147.097 11.208 146.754 11.3784 146.492 11.7204C146.278 11.9928 146.151 12.318 146.109 12.6984H148.795Z" fill="white"/>
</g>
<g id="App Store">
<path id="A" d="M66.8707 37.8048H64.0756L62.5445 33.114H57.2227L55.7642 37.8048H53.043L58.3156 21.8352H61.5722L66.8707 37.8048ZM62.083 31.146L60.6984 26.976C60.5519 26.55 60.2774 25.5468 59.8725 23.9676H59.8233C59.662 24.6468 59.4024 25.65 59.0454 26.976L57.6854 31.146H62.083Z" fill="white"/>
<path id="p" d="M80.4282 31.9056C80.4282 33.864 79.8855 35.412 78.7999 36.5484C77.8276 37.56 76.6202 38.0652 75.179 38.0652C73.6233 38.0652 72.5058 37.5204 71.8251 36.4308H71.7759V42.4968H69.1519V30.0804C69.1519 28.8492 69.1187 27.5856 69.0547 26.2896H71.3624L71.5088 28.1148H71.5581C72.4332 26.7396 73.7611 26.0532 75.5433 26.0532C76.9365 26.0532 78.0996 26.5896 79.0301 27.6636C79.963 28.7388 80.4282 30.1524 80.4282 31.9056ZM77.755 31.9992C77.755 30.8784 77.4965 29.9544 76.9772 29.2272C76.4098 28.4688 75.6479 28.0896 74.6928 28.0896C74.0455 28.0896 73.4571 28.3008 72.9316 28.7172C72.4048 29.1372 72.0602 29.6856 71.899 30.3648C71.8178 30.6816 71.7771 30.9408 71.7771 31.1448V33.0648C71.7771 33.9024 72.0405 34.6092 72.5673 35.1864C73.0941 35.7636 73.7784 36.0516 74.6202 36.0516C75.6085 36.0516 76.3778 35.6796 76.9279 34.938C77.4793 34.1952 77.755 33.216 77.755 31.9992Z" fill="white"/>
<path id="p_2" d="M94.0129 31.9056C94.0129 33.864 93.4702 35.412 92.3834 36.5484C91.4123 37.56 90.2049 38.0652 88.7637 38.0652C87.208 38.0652 86.0905 37.5204 85.4111 36.4308H85.3619V42.4968H82.7379V30.0804C82.7379 28.8492 82.7046 27.5856 82.6406 26.2896H84.9483L85.0948 28.1148H85.144C86.0179 26.7396 87.3459 26.0532 89.1292 26.0532C90.5213 26.0532 91.6843 26.5896 92.6173 27.6636C93.5465 28.7388 94.0129 30.1524 94.0129 31.9056ZM91.3397 31.9992C91.3397 30.8784 91.08 29.9544 90.5606 29.2272C89.9932 28.4688 89.2339 28.0896 88.2776 28.0896C87.6289 28.0896 87.0419 28.3008 86.5151 28.7172C85.9883 29.1372 85.6449 29.6856 85.4837 30.3648C85.4037 30.6816 85.3619 30.9408 85.3619 31.1448V33.0648C85.3619 33.9024 85.6252 34.6092 86.1495 35.1864C86.6763 35.7624 87.3606 36.0516 88.2049 36.0516C89.1933 36.0516 89.9625 35.6796 90.5126 34.938C91.064 34.1952 91.3397 33.216 91.3397 31.9992Z" fill="white"/>
<path id="S" d="M109.2 33.3264C109.2 34.6848 108.717 35.79 107.746 36.6432C106.678 37.5756 105.193 38.0412 103.284 38.0412C101.522 38.0412 100.109 37.71 99.0391 37.0464L99.6471 34.914C100.799 35.5932 102.063 35.934 103.44 35.934C104.429 35.934 105.198 35.7156 105.75 35.2812C106.301 34.8468 106.575 34.2636 106.575 33.5364C106.575 32.8884 106.349 32.3424 105.894 31.8996C105.443 31.4568 104.688 31.0452 103.635 30.6648C100.767 29.622 99.3345 28.0944 99.3345 26.0856C99.3345 24.7728 99.8366 23.6964 100.842 22.8588C101.844 22.02 103.181 21.6012 104.852 21.6012C106.342 21.6012 107.581 21.8544 108.569 22.3596L107.913 24.4452C106.99 23.9556 105.946 23.7108 104.778 23.7108C103.855 23.7108 103.134 23.9328 102.617 24.3744C102.18 24.7692 101.961 25.2504 101.961 25.8204C101.961 26.4516 102.211 26.9736 102.713 27.384C103.15 27.7632 103.944 28.1736 105.096 28.6164C106.505 29.1696 107.54 29.8164 108.206 30.558C108.869 31.2972 109.2 32.2224 109.2 33.3264Z" fill="white"/>
<path id="t_2" d="M117.876 28.2096H114.984V33.8004C114.984 35.2224 115.493 35.9328 116.515 35.9328C116.984 35.9328 117.373 35.8932 117.681 35.814L117.753 37.7568C117.236 37.9452 116.556 38.04 115.713 38.04C114.676 38.04 113.866 37.7316 113.282 37.116C112.7 36.4992 112.407 35.4648 112.407 34.0116V28.2072H110.684V26.2872H112.407V24.1788L114.984 23.4204V26.2872H117.876V28.2096Z" fill="white"/>
<path id="o_4" d="M130.927 31.9524C130.927 33.7224 130.408 35.1756 129.372 36.312C128.285 37.482 126.842 38.0652 125.044 38.0652C123.311 38.0652 121.932 37.5048 120.903 36.384C119.874 35.2632 119.359 33.8484 119.359 32.1432C119.359 30.3588 119.889 28.8972 120.951 27.7608C122.01 26.6232 123.441 26.0544 125.239 26.0544C126.972 26.0544 128.366 26.6148 129.418 27.7368C130.425 28.8252 130.927 30.2304 130.927 31.9524ZM128.205 32.0352C128.205 30.9732 127.972 30.0624 127.501 29.3028C126.951 28.3836 126.164 27.9252 125.145 27.9252C124.09 27.9252 123.289 28.3848 122.739 29.3028C122.268 30.0636 122.035 30.9888 122.035 32.0832C122.035 33.1452 122.268 34.056 122.739 34.8144C123.306 35.7336 124.099 36.192 125.122 36.192C126.124 36.192 126.91 35.724 127.478 34.7904C127.961 34.0164 128.205 33.096 128.205 32.0352Z" fill="white"/>
<path id="r" d="M139.456 28.5396C139.196 28.4928 138.919 28.4688 138.628 28.4688C137.705 28.4688 136.991 28.8084 136.489 29.4888C136.052 30.0888 135.833 30.8472 135.833 31.7628V37.8048H133.211L133.235 29.916C133.235 28.5888 133.202 27.3804 133.137 26.2908H135.422L135.518 28.494H135.591C135.868 27.7368 136.305 27.1272 136.903 26.67C137.487 26.2584 138.119 26.0532 138.799 26.0532C139.042 26.0532 139.261 26.07 139.456 26.1V28.5396Z" fill="white"/>
<path id="e_2" d="M151.191 31.5024C151.191 31.9608 151.161 32.3472 151.095 32.6628H143.223C143.254 33.8004 143.634 34.6704 144.365 35.2704C145.029 35.8068 145.887 36.0756 146.94 36.0756C148.106 36.0756 149.169 35.8944 150.125 35.5308L150.537 37.3068C149.419 37.782 148.1 38.0184 146.577 38.0184C144.746 38.0184 143.308 37.4928 142.262 36.4428C141.218 35.3928 140.695 33.9828 140.695 32.214C140.695 30.4776 141.181 29.0316 142.155 27.8784C143.174 26.6472 144.551 26.0316 146.284 26.0316C147.986 26.0316 149.275 26.6472 150.15 27.8784C150.843 28.8564 151.191 30.066 151.191 31.5024ZM148.689 30.8388C148.706 30.0804 148.535 29.4252 148.18 28.872C147.725 28.1604 147.028 27.8052 146.089 27.8052C145.231 27.8052 144.533 28.152 144 28.848C143.563 29.4012 143.303 30.0648 143.223 30.8376H148.689V30.8388Z" fill="white"/>
</g>
</g>
</svg>
