<svg width="24" height="24" viewBox="0 0 24 24" fill="none" xmlns="http://www.w3.org/2000/svg">
<path d="M8.7002 19.9197H15.3002M12.0002 13.3197V19.9197M10.3502 23H13.6502M6.71943 16.8394C5.24204 15.7312 4.1508 14.1862 3.60026 12.4232C3.04973 10.6603 3.0678 8.76879 3.65193 7.01675C4.23606 5.26467 5.35663 3.74079 6.85493 2.66094C8.35322 1.58108 10.1533 1.00001 12.0002 1C13.8471 1 15.6471 1.58107 17.1455 2.66092C18.6438 3.74077 19.7644 5.26466 20.3484 7.01673C20.9326 8.76879 20.9507 10.6603 20.4002 12.4232C19.8496 14.1861 18.7583 15.7311 17.281 16.8394" stroke="#111111" stroke-linecap="square"/>
</svg>
