<svg xmlns="http://www.w3.org/2000/svg" width="54" height="54" viewBox="0 0 54 54" fill="none">
  <path fill-rule="evenodd" clip-rule="evenodd" d="M34.8789 21.5859L24.0508 32.4141L19.1289 27.4922" fill="#FFCC00"/>
  <path fill-rule="evenodd" clip-rule="evenodd" d="M27.0039 51.75C40.673 51.75 51.7539 40.669 51.7539 27C51.7539 13.331 40.673 2.25 27.0039 2.25C13.3349 2.25 2.25391 13.331 2.25391 27C2.25391 40.669 13.3349 51.75 27.0039 51.75Z" fill="#FFCC00"/>
  <path d="M34.8789 21.5859L24.0508 32.4141L19.1289 27.4922M27.0039 51.75C40.673 51.75 51.7539 40.669 51.7539 27C51.7539 13.331 40.673 2.25 27.0039 2.25C13.3349 2.25 2.25391 13.331 2.25391 27C2.25391 40.669 13.3349 51.75 27.0039 51.75Z" stroke="#121212" stroke-width="4.20833" stroke-linecap="round" stroke-linejoin="round"/>
</svg>