<svg width="40" height="40" viewBox="0 0 40 40" fill="none" xmlns="http://www.w3.org/2000/svg">
<g id="Icon/Solid/check-circle">
<path id="Icon" fill-rule="evenodd" clip-rule="evenodd" d="M20 36C28.8366 36 36 28.8366 36 20C36 11.1634 28.8366 4 20 4C11.1634 4 4 11.1634 4 20C4 28.8366 11.1634 36 20 36ZM27.4142 17.4142C28.1953 16.6332 28.1953 15.3668 27.4142 14.5858C26.6332 13.8047 25.3668 13.8047 24.5858 14.5858L18 21.1716L15.4142 18.5858C14.6332 17.8047 13.3668 17.8047 12.5858 18.5858C11.8047 19.3668 11.8047 20.6332 12.5858 21.4142L16.5858 25.4142C17.3668 26.1953 18.6332 26.1953 19.4142 25.4142L27.4142 17.4142Z" fill="#29CC00"/>
</g>
</svg>
