<svg width="24" height="24" viewBox="0 0 24 24" fill="none" xmlns="http://www.w3.org/2000/svg">
<path d="M15.8536 9.9473L16.2071 9.59375L15.5 8.88664L15.1464 9.2402L15.8536 9.9473ZM10.6875 14.4062L10.3339 14.7598L10.6875 15.1134L11.0411 14.7598L10.6875 14.4062ZM8.85355 11.8652L8.5 11.5116L7.79289 12.2188L8.14645 12.5723L8.85355 11.8652ZM15.1464 9.2402L10.3339 14.0527L11.0411 14.7598L15.8536 9.9473L15.1464 9.2402ZM11.0411 14.0527L8.85355 11.8652L8.14645 12.5723L10.3339 14.7598L11.0411 14.0527ZM12 23.5C18.3513 23.5 23.5 18.3513 23.5 12H22.5C22.5 17.799 17.799 22.5 12 22.5V23.5ZM23.5 12C23.5 5.64873 18.3513 0.5 12 0.5V1.5C17.799 1.5 22.5 6.20101 22.5 12H23.5ZM12 0.5C5.64873 0.5 0.5 5.64873 0.5 12H1.5C1.5 6.20101 6.20101 1.5 12 1.5V0.5ZM0.5 12C0.5 18.3513 5.64873 23.5 12 23.5V22.5C6.20101 22.5 1.5 17.799 1.5 12H0.5Z" fill="#111111"/>
</svg>
