<svg width="23" height="23" viewBox="0 0 23 23" fill="none" xmlns="http://www.w3.org/2000/svg">
<g clip-path="url(#clip0_2107_1954)">
<path d="M22.4771 11.231C22.4771 11.3679 22.4086 11.4364 22.3401 11.5049L19.2592 13.2849C19.1908 13.2849 19.1908 13.3534 19.1223 13.3534C19.0538 13.3534 18.9854 13.3534 18.9854 13.2849C18.9169 13.2165 18.8485 13.148 18.8485 13.0111V11.7787H10.6327C11.5228 13.148 12.002 15.4073 13.029 15.4073H13.919V14.5173C13.919 14.3804 14.0559 14.2434 14.1929 14.2434H17.2738C17.4107 14.2434 17.5476 14.3804 17.5476 14.5173V17.5982C17.5476 17.7351 17.4107 17.872 17.2738 17.872H14.1929C14.0559 17.872 13.919 17.7351 13.919 17.5982V16.7081H13.029C10.4273 16.7081 10.2219 11.8472 8.78419 11.8472H5.29251C5.01865 12.8741 4.06015 13.6957 2.89625 13.6957C1.59543 13.6957 0.5 12.6003 0.5 11.231C0.5 9.86171 1.59543 8.76628 2.96472 8.76628C4.12861 8.76628 5.01865 9.51938 5.36097 10.6148C6.73026 10.6148 6.86719 10.9571 7.89415 8.56088C9.26344 5.47999 9.87962 5.75384 11.5912 5.75384C11.8651 5.0692 12.5497 4.52148 13.3028 4.52148C14.3298 4.52148 15.1514 5.34306 15.1514 6.37002C15.1514 7.39699 14.3298 8.21856 13.3028 8.21856C12.4813 8.21856 11.8651 7.73931 11.5912 6.9862H10.5643C9.5373 6.9862 9.05805 9.31399 8.16801 10.6148H18.78V9.38246C18.78 9.24553 18.8485 9.17706 18.9169 9.1086C18.9854 9.04013 19.1223 9.04013 19.1908 9.1086L22.2717 10.9571C22.4086 11.0256 22.4771 11.0941 22.4771 11.231Z" fill="#EFEFEF"/>
</g>
<defs>
<clipPath id="clip0_2107_1954">
<rect width="21.9086" height="21.9086" fill="white" transform="translate(0.5 0.277344)"/>
</clipPath>
</defs>
</svg>
