<svg width="24" height="24" viewBox="0 0 24 24" fill="none" xmlns="http://www.w3.org/2000/svg">
<path d="M8 20.502C7.72386 20.502 7.5 20.7259 7.5 21.002C7.5 21.2781 7.72386 21.502 8 21.502V20.502ZM16 21.502C16.2761 21.502 16.5 21.2781 16.5 21.002C16.5 20.7259 16.2761 20.502 16 20.502V21.502ZM4 3.5H20V2.5H4V3.5ZM20 3.5C20.7959 3.5 21.5 4.20309 21.5 5.14286H22.5C22.5 3.71691 21.4121 2.5 20 2.5V3.5ZM21.5 5.14286V15.8571H22.5V5.14286H21.5ZM21.5 15.8571C21.5 16.7978 20.7961 17.5 20 17.5V18.5C21.4119 18.5 22.5 17.2843 22.5 15.8571H21.5ZM20 17.5H4V18.5H20V17.5ZM4 17.5C3.20392 17.5 2.5 16.7978 2.5 15.8571H1.5C1.5 17.2843 2.58808 18.5 4 18.5V17.5ZM2.5 15.8571V5.14286H1.5V15.8571H2.5ZM2.5 5.14286C2.5 4.20309 3.20407 3.5 4 3.5V2.5C2.58793 2.5 1.5 3.71691 1.5 5.14286H2.5ZM8 21.502H16V20.502H8V21.502ZM16 20.502H8V21.502H16V20.502Z" fill="#111111"/>
</svg>
