<svg width="24" height="24" viewBox="0 0 24 24" fill="none" xmlns="http://www.w3.org/2000/svg">
<path d="M15.2 2L15.5536 1.64645L15.2 1.29289L14.8464 1.64645L15.2 2ZM20 6.8L20.3536 7.15355L20.7071 6.8L20.3536 6.44645L20 6.8ZM6.8 20V20.5H7.00711L7.15355 20.3536L6.8 20ZM2 20H1.5V20.5H2V20ZM2 15.2L1.64645 14.8464L1.5 14.9929V15.2H2ZM14.8464 2.35355L19.6464 7.15355L20.3536 6.44645L15.5536 1.64645L14.8464 2.35355ZM19.6464 6.44645L6.44645 19.6464L7.15355 20.3536L20.3536 7.15355L19.6464 6.44645ZM6.8 19.5H2V20.5H6.8V19.5ZM2.5 20V15.2H1.5V20H2.5ZM2.35355 15.5536L15.5536 2.35355L14.8464 1.64645L1.64645 14.8464L2.35355 15.5536ZM12 22.5H22V21.5H12V22.5Z" fill="black"/>
</svg>
