<svg width="33" height="17" viewBox="0 0 33 17" fill="none" xmlns="http://www.w3.org/2000/svg">
<path d="M8.26221 4.20102H6.26514L0.273926 12.0628V13.7436H6.14766V16.1292H8.26221V13.7436H9.80745V11.9001H8.26221V4.20102ZM6.1567 6.93908L6.14766 11.9001H2.33425L6.1567 6.93908Z" fill="#EFEFEF"/>
<path d="M16.8315 11.385H21.2323C20.8257 13.2285 19.2804 14.5207 17.202 14.5207C14.8525 14.5207 13.0814 12.6321 13.0814 10.1832C13.0814 7.79755 14.8254 5.91796 17.2201 5.91796C18.8467 5.91796 20.2292 6.7945 20.8708 8.1319L22.895 7.33669C21.91 5.2854 19.8316 3.95703 17.2562 3.95703C13.6597 3.95703 10.8855 6.66799 10.8855 10.1561C10.8855 13.6803 13.5513 16.3732 17.0122 16.3732C19.0726 16.3732 20.7534 15.4063 21.6299 13.9333L21.9643 16.1292H23.1932V9.62293H16.8315V11.385Z" fill="#EFEFEF"/>
<g clip-path="url(#clip0_2107_1947)">
<path d="M27.006 6.33902C26.7674 6.10054 26.6334 5.7771 26.6333 5.43982C26.6333 4.74221 27.2075 4.16797 27.9052 4.16797C28.6028 4.16797 29.177 4.74221 29.177 5.43982C29.1769 5.77711 29.0429 6.10056 28.8044 6.33902" stroke="#EFEFEF" stroke-width="0.737675" stroke-miterlimit="10"/>
<path d="M26.1063 7.23696C25.6293 6.75986 25.3614 6.11287 25.3613 5.43824C25.3613 4.0427 26.5095 2.89453 27.905 2.89453C29.3006 2.89453 30.4487 4.0427 30.4487 5.43824C30.4487 6.11287 30.1807 6.75986 29.7038 7.23696" stroke="#EFEFEF" stroke-width="0.737675" stroke-miterlimit="10"/>
<path d="M25.208 8.13652C24.4925 7.42095 24.0905 6.45052 24.0903 5.43861C24.0903 3.34545 25.8127 1.62305 27.9059 1.62305C29.999 1.62305 31.7215 3.34545 31.7215 5.43861C31.7215 6.45005 31.3192 7.42142 30.6038 8.13652" stroke="#EFEFEF" stroke-width="0.737675" stroke-miterlimit="10"/>
<path d="M27.9054 5.75702C28.081 5.75702 28.2233 5.61466 28.2233 5.43906C28.2233 5.26345 28.081 5.12109 27.9054 5.12109C27.7298 5.12109 27.5874 5.26345 27.5874 5.43906C27.5874 5.61466 27.7298 5.75702 27.9054 5.75702Z" fill="#EFEFEF"/>
</g>
<defs>
<clipPath id="clip0_2107_1947">
<rect width="9.22094" height="9.22094" fill="white" transform="translate(23.2944 0.269531)"/>
</clipPath>
</defs>
</svg>
