<svg width="27" height="14" viewBox="0 0 27 14" fill="none" xmlns="http://www.w3.org/2000/svg">
<path d="M6.96125 3.87564H5.31742L0.385925 10.3468V11.7303H5.22073V13.694H6.96125V11.7303H8.23318V10.2129H6.96125V3.87564ZM5.22817 6.1294L5.22073 10.2129H2.08183L5.22817 6.1294Z" fill="white"/>
<path d="M14.0148 9.78897H17.6372C17.3025 11.3064 16.0306 12.37 14.3198 12.37C12.3859 12.37 10.928 10.8154 10.928 8.79969C10.928 6.83602 12.3636 5.28889 14.3347 5.28889C15.6735 5.28889 16.8116 6.01039 17.3397 7.11123L19.0058 6.45668C18.1951 4.76821 16.4843 3.6748 14.3644 3.6748C11.404 3.6748 9.12053 5.90625 9.12053 8.77738C9.12053 11.6783 11.3148 13.8948 14.1636 13.8948C15.8595 13.8948 17.243 13.0989 17.9645 11.8865L18.2397 13.694H19.2513V8.33853H14.0148V9.78897Z" fill="white"/>
<g clip-path="url(#clip0_570_2082)">
<path d="M22.3901 5.6347C22.1937 5.4384 22.0834 5.17217 22.0833 4.89455C22.0833 4.32033 22.556 3.84766 23.1302 3.84766C23.7044 3.84766 24.1771 4.32033 24.1771 4.89455C24.177 5.17218 24.0667 5.43841 23.8704 5.6347" stroke="white" stroke-width="0.607196" stroke-miterlimit="10"/>
<path d="M21.6493 6.37476C21.2567 5.98205 21.0361 5.4495 21.0361 4.8942C21.0361 3.7455 21.9812 2.80042 23.1299 2.80042C24.2786 2.80042 25.2236 3.7455 25.2236 4.8942C25.2236 5.4495 25.003 5.98205 24.6104 6.37476" stroke="white" stroke-width="0.607196" stroke-miterlimit="10"/>
<path d="M20.9099 7.11529C20.321 6.52628 19.9901 5.7275 19.99 4.89458C19.99 3.17166 21.4077 1.75391 23.1307 1.75391C24.8536 1.75391 26.2713 3.17166 26.2713 4.89458C26.2713 5.72712 25.9403 6.52668 25.3514 7.11529" stroke="white" stroke-width="0.607196" stroke-miterlimit="10"/>
<path d="M23.1303 5.15601C23.2748 5.15601 23.392 5.03884 23.392 4.89429C23.392 4.74975 23.2748 4.63257 23.1303 4.63257C22.9857 4.63257 22.8685 4.74975 22.8685 4.89429C22.8685 5.03884 22.9857 5.15601 23.1303 5.15601Z" fill="white"/>
</g>
<defs>
<clipPath id="clip0_570_2082">
<rect width="7.58995" height="7.58995" fill="white" transform="translate(19.3349 0.639282)"/>
</clipPath>
</defs>
</svg>
