<svg width="24" height="24" viewBox="0 0 24 24" fill="none" xmlns="http://www.w3.org/2000/svg">
<path d="M8 11.5C7.72386 11.5 7.5 11.7239 7.5 12C7.5 12.2761 7.72386 12.5 8 12.5V11.5ZM16 12.5C16.2761 12.5 16.5 12.2761 16.5 12C16.5 11.7239 16.2761 11.5 16 11.5V12.5ZM12 23.5C18.3513 23.5 23.5 18.3513 23.5 12H22.5C22.5 17.799 17.799 22.5 12 22.5V23.5ZM23.5 12C23.5 5.64873 18.3513 0.5 12 0.5V1.5C17.799 1.5 22.5 6.20101 22.5 12H23.5ZM12 0.5C5.64873 0.5 0.5 5.64873 0.5 12H1.5C1.5 6.20101 6.20101 1.5 12 1.5V0.5ZM0.5 12C0.5 18.3513 5.64873 23.5 12 23.5V22.5C6.20101 22.5 1.5 17.799 1.5 12H0.5ZM8 12.5H16V11.5H8V12.5Z" fill="#111111"/>
</svg>
