<svg width="24" height="24" viewBox="0 0 24 24" fill="none" xmlns="http://www.w3.org/2000/svg">
<path d="M9.64941 19.5C9.37327 19.5 9.14941 19.7239 9.14941 20C9.14941 20.2761 9.37327 20.5 9.64941 20.5V19.5ZM14.7294 20.5C15.0056 20.5 15.2294 20.2761 15.2294 20C15.2294 19.7239 15.0056 19.5 14.7294 19.5V20.5ZM12 20H11.5C11.5 20.2761 11.7239 20.5 12 20.5V20ZM12 8.99609H12.5C12.5 8.71995 12.2762 8.49609 12 8.49609V8.99609ZM10.6523 8.49609C10.3761 8.49609 10.1523 8.71995 10.1523 8.99609C10.1523 9.27224 10.3761 9.49609 10.6523 9.49609V8.49609ZM12.0106 4.5C12.2868 4.5 12.5106 4.27614 12.5106 4C12.5106 3.72386 12.2868 3.5 12.0106 3.5V4.5ZM11.9894 3.5C11.7133 3.5 11.4894 3.72386 11.4894 4C11.4894 4.27614 11.7133 4.5 11.9894 4.5V3.5ZM9.64941 20.5H14.7294V19.5H9.64941V20.5ZM14.7294 19.5H12V20.5H14.7294V19.5ZM12.5 20V8.99609H11.5V20H12.5ZM12 8.49609H10.6523V9.49609H12V8.49609ZM12.0106 3.5H11.9894V4.5H12.0106V3.5Z" fill="#121212"/>
</svg>
