<svg width="24" height="24" viewBox="0 0 24 24" fill="none" xmlns="http://www.w3.org/2000/svg">
<path d="M12 2C6.45833 2 2 6.45833 2 12C2 17.5417 6.45833 22 12 22C17.5417 22 22 17.5417 22 12C22 6.45833 17.5417 2 12 2ZM12 18.6667C8.33333 18.6667 5.33333 15.6667 5.33333 12C5.33333 8.33333 8.33333 5.33333 12 5.33333C15.6667 5.33333 18.6667 8.33333 18.6667 12C18.6667 15.6667 15.6667 18.6667 12 18.6667Z" fill="url(#paint0_linear_314_17987)"/>
<path d="M12 2C6.45833 2 2 6.45833 2 12C2 17.5417 6.45833 22 12 22C17.5417 22 22 17.5417 22 12C22 6.45833 17.5417 2 12 2ZM12 20.3333C7.41667 20.3333 3.66667 16.5833 3.66667 12C3.66667 7.41667 7.41667 3.66667 12 3.66667C16.5833 3.66667 20.3333 7.41667 20.3333 12C20.3333 16.5833 16.5833 20.3333 12 20.3333Z" fill="url(#paint1_linear_314_17987)"/>
<defs>
<linearGradient id="paint0_linear_314_17987" x1="2" y1="12" x2="22" y2="12" gradientUnits="userSpaceOnUse">
<stop stop-color="white"/>
<stop offset="1"/>
</linearGradient>
<linearGradient id="paint1_linear_314_17987" x1="2" y1="12" x2="22" y2="12" gradientUnits="userSpaceOnUse">
<stop stop-color="white"/>
<stop offset="1"/>
</linearGradient>
</defs>
</svg>
