<svg width="90" height="23" viewBox="0 0 90 23" fill="none" xmlns="http://www.w3.org/2000/svg">
<path d="M9.29248 10.4312V14.7202L18.5997 20.0637V15.7889L9.29248 10.4312Z" fill="black"/>
<path d="M18.5854 0.812988L18.5997 5.08777L9.29248 10.4313V6.15647L18.5854 0.812988Z" fill="black"/>
<path d="M0 2.93604V7.21082L9.29289 12.5685V8.27951L0 2.93604Z" fill="black"/>
<path d="M9.29289 12.5688V16.8436L0 22.1871V17.9123L9.29289 12.5688Z" fill="black"/>
<path d="M32.493 11.3072V17.8618H30.0769V11.8772C30.0769 10.3097 29.2334 9.48328 27.8323 9.48328C26.4169 9.48328 25.4304 10.4237 25.4304 12.0766V17.8761H23V7.58812H25.073L25.3447 8.89906C26.0738 7.9301 27.2604 7.33164 28.7044 7.33164C30.9204 7.31739 32.493 8.95605 32.493 11.3072Z" fill="black"/>
<path d="M34.437 12.7465C34.437 9.61161 36.9246 7.30322 40.0699 7.30322C43.1866 7.30322 45.6457 9.56886 45.6457 12.7037C45.6457 15.8243 43.1294 18.1469 40.027 18.1469C36.8818 18.1469 34.437 15.867 34.437 12.7465ZM43.2438 12.7322C43.2438 10.837 41.8284 9.44062 40.0556 9.44062C38.2399 9.44062 36.8532 10.837 36.8532 12.7322C36.8532 14.6274 38.2399 16.0095 40.0556 16.0095C41.8284 16.0095 43.2438 14.6274 43.2438 12.7322Z" fill="black"/>
<path d="M63.1736 11.2217V17.8619H60.7574V11.8487C60.7574 10.3097 59.9425 9.46903 58.7559 9.46903C57.5121 9.46903 56.5828 10.4095 56.5828 12.0482V17.8619H54.1523V11.8487C54.1523 10.3097 53.3374 9.46903 52.1508 9.46903C50.907 9.46903 49.9777 10.4095 49.9777 12.0482V17.8619H47.5615V7.58812H49.6203L49.8776 8.85631C50.5638 7.91586 51.679 7.33164 53.0086 7.33164C54.4097 7.33164 55.5677 8.08685 56.1539 9.31229C56.8115 8.1011 58.0696 7.33164 59.5994 7.33164C61.6152 7.31739 63.1736 8.91331 63.1736 11.2217Z" fill="black"/>
<path d="M77.0704 12.7323C77.0704 15.9383 74.7257 18.1327 71.8807 18.1327C70.3366 18.1327 69.0356 17.4773 68.1635 16.3516L67.8919 17.8762H65.8188V3.24224L68.2493 3V8.99895C69.1214 7.9445 70.3938 7.31753 71.9093 7.31753C74.7972 7.31753 77.0704 9.55467 77.0704 12.7323ZM74.6399 12.7323C74.6399 10.8229 73.2532 9.44067 71.4947 9.44067C69.7219 9.44067 68.2493 10.8371 68.2493 12.7323C68.2493 14.6274 69.7219 16.0096 71.4947 16.0096C73.2532 16.0096 74.6399 14.6417 74.6399 12.7323Z" fill="black"/>
<path d="M87.4211 7.58852H89.4941V17.8765H87.4211L87.1494 16.3376C86.2773 17.4775 84.9763 18.133 83.418 18.133C80.5729 18.133 78.2568 15.9528 78.2568 12.7325C78.2568 9.55492 80.5586 7.33203 83.4466 7.33203C84.9906 7.33203 86.2916 7.9875 87.1637 9.11319L87.4211 7.58852ZM87.0779 12.7325C87.0779 10.8374 85.6054 9.44092 83.8326 9.44092C82.0741 9.44092 80.6873 10.8089 80.6873 12.7325C80.6873 14.6419 82.0741 16.0098 83.8326 16.0098C85.6054 16.0098 87.0779 14.6277 87.0779 12.7325Z" fill="black"/>
</svg>
