<svg width="22" height="13" viewBox="0 0 22 13" fill="none" xmlns="http://www.w3.org/2000/svg">
<path d="M14.0196 2.0448H8.35821V10.9551H14.0196V2.0448Z" fill="white"/>
<path d="M8.71752 6.49991C8.71662 5.64179 8.93865 4.79473 9.3668 4.02288C9.79495 3.25102 10.418 2.57458 11.1888 2.04479C10.2343 1.38771 9.08795 0.979086 7.88083 0.865616C6.67371 0.752145 5.45449 0.938403 4.36253 1.40311C3.27057 1.86782 2.34991 2.59222 1.70581 3.49351C1.0617 4.39481 0.720131 5.43663 0.720131 6.49991C0.720131 7.56318 1.0617 8.60501 1.70581 9.5063C2.34991 10.4076 3.27057 11.132 4.36253 11.5967C5.45449 12.0614 6.67371 12.2477 7.88083 12.1342C9.08795 12.0207 10.2343 11.6121 11.1888 10.955C10.418 10.4252 9.79496 9.7488 9.36681 8.97694C8.93866 8.20508 8.71663 7.35803 8.71752 6.49991Z" fill="#121212"/>
<path d="M21.6571 6.49991C21.6572 7.56317 21.3157 8.60499 20.6716 9.50628C20.0275 10.4076 19.1069 11.132 18.0149 11.5967C16.923 12.0614 15.7038 12.2477 14.4967 12.1342C13.2896 12.0207 12.1433 11.6121 11.1888 10.955C11.9589 10.4247 12.5815 9.74815 13.0096 8.97642C13.4376 8.20468 13.6601 7.35789 13.6601 6.49991C13.6601 5.64192 13.4376 4.79513 13.0096 4.0234C12.5815 3.25166 11.9589 2.57512 11.1888 2.04478C12.1433 1.38771 13.2896 0.979083 14.4967 0.865614C15.7038 0.752145 16.923 0.938412 18.0149 1.40312C19.1069 1.86783 20.0275 2.59224 20.6716 3.49353C21.3157 4.39483 21.6572 5.43665 21.6571 6.49991Z" fill="#C6C6C6"/>
<path d="M21.0399 10.0112V9.82879H21.1239V9.79162H20.91V9.82879H20.994V10.0112H21.0399ZM21.4551 10.0112V9.79126H21.3896L21.3142 9.94254L21.2387 9.79126H21.1731V10.0112H21.2194V9.8453L21.2902 9.98834H21.3382L21.4089 9.84494V10.0112H21.4551Z" fill="#C6C6C6"/>
</svg>
