<svg width="28" height="23" viewBox="0 0 28 23" fill="none" xmlns="http://www.w3.org/2000/svg">
<path d="M5.02637 22.7486V21.2844C5.02637 20.7231 4.69439 20.3571 4.12528 20.3571C3.84073 20.3571 3.53246 20.4547 3.31905 20.7719C3.15306 20.5035 2.91593 20.3571 2.56024 20.3571C2.32311 20.3571 2.08599 20.4303 1.89628 20.6987V20.4059H1.39832V22.7486H1.89628V21.4552C1.89628 21.0404 2.1097 20.8451 2.44168 20.8451C2.77365 20.8451 2.93964 21.0648 2.93964 21.4552V22.7486H3.43761V21.4552C3.43761 21.0404 3.67474 20.8451 3.983 20.8451C4.31498 20.8451 4.48097 21.0648 4.48097 21.4552V22.7486H5.02637ZM12.401 20.4059H11.5948V19.6982H11.0968V20.4059H10.6463V20.8695H11.0968V21.9433C11.0968 22.4802 11.3102 22.7974 11.8793 22.7974C12.0928 22.7974 12.3299 22.7242 12.4959 22.6266L12.3536 22.1873C12.2113 22.285 12.0453 22.3094 11.9268 22.3094C11.6896 22.3094 11.5948 22.1629 11.5948 21.9189V20.8695H12.401V20.4059ZM16.6219 20.3571C16.3373 20.3571 16.1476 20.5035 16.0291 20.6987V20.4059H15.5311V22.7486H16.0291V21.4308C16.0291 21.0404 16.1951 20.8207 16.5033 20.8207C16.5982 20.8207 16.7167 20.8451 16.8116 20.8695L16.9539 20.3815C16.859 20.3571 16.7167 20.3571 16.6219 20.3571ZM10.2432 20.6011C10.006 20.4303 9.67406 20.3571 9.31837 20.3571C8.74927 20.3571 8.36986 20.6499 8.36986 21.1136C8.36986 21.504 8.65442 21.7237 9.15238 21.7969L9.38951 21.8213C9.65035 21.8701 9.79263 21.9433 9.79263 22.0653C9.79263 22.2362 9.60293 22.3582 9.27095 22.3582C8.93897 22.3582 8.67813 22.2362 8.51214 22.1141L8.27501 22.5046C8.53585 22.6998 8.89154 22.7974 9.24723 22.7974C9.91119 22.7974 10.2906 22.4802 10.2906 22.0409C10.2906 21.6261 9.98233 21.4064 9.50807 21.3332L9.27095 21.3088C9.05753 21.2844 8.89154 21.2356 8.89154 21.0892C8.89154 20.9183 9.05753 20.8207 9.31837 20.8207C9.60293 20.8207 9.88748 20.9427 10.0298 21.016L10.2432 20.6011ZM23.4749 20.3571C23.1903 20.3571 23.0006 20.5035 22.8821 20.6987V20.4059H22.3841V22.7486H22.8821V21.4308C22.8821 21.0404 23.0481 20.8207 23.3563 20.8207C23.4512 20.8207 23.5697 20.8451 23.6646 20.8695L23.8069 20.3815C23.712 20.3571 23.5697 20.3571 23.4749 20.3571ZM17.1199 21.5772C17.1199 22.285 17.5941 22.7974 18.3292 22.7974C18.6612 22.7974 18.8983 22.7242 19.1354 22.529L18.8983 22.1141C18.7086 22.2606 18.5189 22.3338 18.3055 22.3338C17.9024 22.3338 17.6178 22.0409 17.6178 21.5772C17.6178 21.138 17.9024 20.8451 18.3055 20.8207C18.5189 20.8207 18.7086 20.8939 18.8983 21.0404L19.1354 20.6255C18.8983 20.4303 18.6612 20.3571 18.3292 20.3571C17.5941 20.3571 17.1199 20.8695 17.1199 21.5772ZM21.7201 21.5772V20.4059H21.2222V20.6987C21.0562 20.4791 20.8191 20.3571 20.5108 20.3571C19.8705 20.3571 19.3726 20.8695 19.3726 21.5772C19.3726 22.285 19.8705 22.7974 20.5108 22.7974C20.8428 22.7974 21.0799 22.6754 21.2222 22.4558V22.7486H21.7201V21.5772ZM19.8943 21.5772C19.8943 21.1624 20.1551 20.8207 20.5819 20.8207C20.985 20.8207 21.2696 21.138 21.2696 21.5772C21.2696 21.9921 20.985 22.3338 20.5819 22.3338C20.1551 22.3094 19.8943 21.9921 19.8943 21.5772ZM13.9424 20.3571C13.2784 20.3571 12.8041 20.8451 12.8041 21.5772C12.8041 22.3094 13.2784 22.7974 13.9661 22.7974C14.298 22.7974 14.63 22.6998 14.8909 22.4802L14.6537 22.1141C14.464 22.2606 14.2269 22.3582 13.9898 22.3582C13.6815 22.3582 13.3733 22.2117 13.3021 21.7969H14.9857V21.6017C15.0094 20.8451 14.5826 20.3571 13.9424 20.3571ZM13.9424 20.7963C14.2506 20.7963 14.464 20.9916 14.5115 21.3576H13.3258C13.3733 21.0404 13.5867 20.7963 13.9424 20.7963ZM26.2967 21.5772V19.4785H25.7987V20.6987C25.6327 20.4791 25.3956 20.3571 25.0873 20.3571C24.4471 20.3571 23.9491 20.8695 23.9491 21.5772C23.9491 22.285 24.4471 22.7974 25.0873 22.7974C25.4193 22.7974 25.6565 22.6754 25.7987 22.4558V22.7486H26.2967V21.5772ZM24.4708 21.5772C24.4708 21.1624 24.7317 20.8207 25.1585 20.8207C25.5616 20.8207 25.8462 21.138 25.8462 21.5772C25.8462 21.9921 25.5616 22.3338 25.1585 22.3338C24.7317 22.3094 24.4708 21.9921 24.4708 21.5772ZM7.82447 21.5772V20.4059H7.3265V20.6987C7.16051 20.4791 6.92339 20.3571 6.61512 20.3571C5.97488 20.3571 5.47691 20.8695 5.47691 21.5772C5.47691 22.285 5.97488 22.7974 6.61512 22.7974C6.9471 22.7974 7.18423 22.6754 7.3265 22.4558V22.7486H7.82447V21.5772ZM5.97488 21.5772C5.97488 21.1624 6.23572 20.8207 6.66255 20.8207C7.06566 20.8207 7.35021 21.138 7.35021 21.5772C7.35021 21.9921 7.06566 22.3338 6.66255 22.3338C6.23572 22.3094 5.97488 21.9921 5.97488 21.5772Z" fill="white"/>
<path d="M17.5476 2.61523H10.0781V16.4278H17.5476V2.61523Z" fill="#DDDDDD"/>
<path d="M10.5522 9.52173C10.5522 6.71528 11.8327 4.22608 13.8008 2.61543C12.3543 1.44404 10.5285 0.736328 8.53659 0.736328C3.81775 0.736328 0 4.66535 0 9.52173C0 14.3781 3.81775 18.3071 8.53659 18.3071C10.5285 18.3071 12.3543 17.5994 13.8008 16.428C11.8327 14.8418 10.5522 12.3282 10.5522 9.52173Z" fill="#868686"/>
<path d="M27.6258 9.52173C27.6258 14.3781 23.808 18.3071 19.0892 18.3071C17.0973 18.3071 15.2714 17.5994 13.825 16.428C15.8168 14.8174 17.0736 12.3282 17.0736 9.52173C17.0736 6.71528 15.7931 4.22608 13.825 2.61543C15.2714 1.44404 17.0973 0.736328 19.0892 0.736328C23.808 0.736328 27.6258 4.68976 27.6258 9.52173Z" fill="#C6C6C6"/>
</svg>
