<svg width="21" height="17" viewBox="0 0 21 17" fill="none" xmlns="http://www.w3.org/2000/svg">
<g clip-path="url(#clip0_2107_1792)">
<path d="M3.65913 16.8297V15.7638C3.65913 15.3552 3.41746 15.0888 3.00318 15.0888C2.79604 15.0888 2.57163 15.1598 2.41628 15.3908C2.29544 15.1953 2.12283 15.0888 1.8639 15.0888C1.69128 15.0888 1.51866 15.1421 1.38057 15.3375V15.1243H1.01807V16.8297H1.38057V15.8882C1.38057 15.5862 1.53592 15.4441 1.77759 15.4441C2.01925 15.4441 2.14009 15.6039 2.14009 15.8882V16.8297H2.50259V15.8882C2.50259 15.5862 2.6752 15.4441 2.89961 15.4441C3.14128 15.4441 3.26211 15.6039 3.26211 15.8882V16.8297H3.65913ZM9.02757 15.1243H8.44067V14.6091H8.07817V15.1243H7.75019V15.4618H8.07817V16.2435C8.07817 16.6343 8.23352 16.8653 8.64781 16.8653C8.80316 16.8653 8.97578 16.812 9.09662 16.7409L8.99304 16.4211C8.88947 16.4922 8.76864 16.51 8.68233 16.51C8.50971 16.51 8.44067 16.4034 8.44067 16.2257V15.4618H9.02757V15.1243ZM12.1002 15.0888C11.893 15.0888 11.7549 15.1953 11.6686 15.3375V15.1243H11.3061V16.8297H11.6686V15.8704C11.6686 15.5862 11.7895 15.4263 12.0139 15.4263C12.0829 15.4263 12.1692 15.4441 12.2383 15.4618L12.3418 15.1065C12.2728 15.0888 12.1692 15.0888 12.1002 15.0888ZM7.45674 15.2664C7.28412 15.1421 7.04245 15.0888 6.78353 15.0888C6.36924 15.0888 6.09305 15.3019 6.09305 15.6395C6.09305 15.9237 6.30019 16.0836 6.66269 16.1369L6.83531 16.1547C7.02519 16.1902 7.12876 16.2435 7.12876 16.3323C7.12876 16.4567 6.99067 16.5455 6.749 16.5455C6.50734 16.5455 6.31746 16.4567 6.19662 16.3678L6.02401 16.6521C6.21389 16.7942 6.47281 16.8653 6.73174 16.8653C7.21507 16.8653 7.49126 16.6343 7.49126 16.3145C7.49126 16.0125 7.26686 15.8526 6.92162 15.7994L6.749 15.7816C6.59365 15.7638 6.47281 15.7283 6.47281 15.6217C6.47281 15.4974 6.59365 15.4263 6.78353 15.4263C6.99067 15.4263 7.19781 15.5151 7.30138 15.5684L7.45674 15.2664ZM17.0889 15.0888C16.8817 15.0888 16.7436 15.1953 16.6573 15.3375V15.1243H16.2948V16.8297H16.6573V15.8704C16.6573 15.5862 16.7781 15.4263 17.0025 15.4263C17.0716 15.4263 17.1579 15.4441 17.227 15.4618L17.3305 15.1065C17.2615 15.0888 17.1579 15.0888 17.0889 15.0888ZM12.4627 15.977C12.4627 16.4922 12.8079 16.8653 13.343 16.8653C13.5847 16.8653 13.7573 16.812 13.9299 16.6698L13.7573 16.3678C13.6192 16.4744 13.4811 16.5277 13.3258 16.5277C13.0323 16.5277 12.8252 16.3145 12.8252 15.977C12.8252 15.6572 13.0323 15.4441 13.3258 15.4263C13.4811 15.4263 13.6192 15.4796 13.7573 15.5862L13.9299 15.2842C13.7573 15.1421 13.5847 15.0888 13.343 15.0888C12.8079 15.0888 12.4627 15.4618 12.4627 15.977ZM15.8115 15.977V15.1243H15.449V15.3375C15.3281 15.1776 15.1555 15.0888 14.9311 15.0888C14.4651 15.0888 14.1026 15.4618 14.1026 15.977C14.1026 16.4922 14.4651 16.8653 14.9311 16.8653C15.1728 16.8653 15.3454 16.7764 15.449 16.6165V16.8297H15.8115V15.977ZM14.4823 15.977C14.4823 15.675 14.6722 15.4263 14.9829 15.4263C15.2764 15.4263 15.4835 15.6572 15.4835 15.977C15.4835 16.279 15.2764 16.5277 14.9829 16.5277C14.6722 16.51 14.4823 16.279 14.4823 15.977ZM10.1496 15.0888C9.66626 15.0888 9.32102 15.4441 9.32102 15.977C9.32102 16.51 9.66626 16.8653 10.1669 16.8653C10.4085 16.8653 10.6502 16.7942 10.8401 16.6343L10.6674 16.3678C10.5294 16.4744 10.3567 16.5455 10.1841 16.5455C9.95971 16.5455 9.7353 16.4389 9.68352 16.1369H10.9091V15.9948C10.9264 15.4441 10.6157 15.0888 10.1496 15.0888ZM10.1496 15.4085C10.374 15.4085 10.5294 15.5506 10.5639 15.8171H9.70078C9.7353 15.5862 9.89066 15.4085 10.1496 15.4085ZM19.143 15.977V14.4492H18.7805V15.3375C18.6597 15.1776 18.4871 15.0888 18.2627 15.0888C17.7966 15.0888 17.4341 15.4618 17.4341 15.977C17.4341 16.4922 17.7966 16.8653 18.2627 16.8653C18.5043 16.8653 18.6769 16.7764 18.7805 16.6165V16.8297H19.143V15.977ZM17.8139 15.977C17.8139 15.675 18.0037 15.4263 18.3144 15.4263C18.6079 15.4263 18.815 15.6572 18.815 15.977C18.815 16.279 18.6079 16.5277 18.3144 16.5277C18.0037 16.51 17.8139 16.279 17.8139 15.977ZM5.69603 15.977V15.1243H5.33353V15.3375C5.2127 15.1776 5.04008 15.0888 4.81568 15.0888C4.34961 15.0888 3.98711 15.4618 3.98711 15.977C3.98711 16.4922 4.34961 16.8653 4.81568 16.8653C5.05734 16.8653 5.22996 16.7764 5.33353 16.6165V16.8297H5.69603V15.977ZM4.34961 15.977C4.34961 15.675 4.53949 15.4263 4.8502 15.4263C5.14365 15.4263 5.35079 15.6572 5.35079 15.977C5.35079 16.279 5.14365 16.5277 4.8502 16.5277C4.53949 16.51 4.34961 16.279 4.34961 15.977Z" fill="#999999"/>
<path d="M12.7739 2.17383H7.33643V12.2288H12.7739V2.17383Z" fill="#DDDDDD"/>
<path d="M7.68153 7.20203C7.68153 5.15906 8.61367 3.34703 10.0464 2.17454C8.99343 1.32182 7.66427 0.806641 6.21427 0.806641C2.77916 0.806641 0 3.6668 0 7.20203C0 10.7373 2.77916 13.5974 6.21427 13.5974C7.66427 13.5974 8.99343 13.0822 10.0464 12.2295C8.61367 11.0748 7.68153 9.245 7.68153 7.20203Z" fill="#868686"/>
<path d="M20.1104 7.20203C20.1104 10.7373 17.3312 13.5974 13.8961 13.5974C12.4461 13.5974 11.1169 13.0822 10.064 12.2295C11.514 11.057 12.4288 9.245 12.4288 7.20203C12.4288 5.15906 11.4967 3.34703 10.064 2.17454C11.1169 1.32182 12.4461 0.806641 13.8961 0.806641C17.3312 0.806641 20.1104 3.68457 20.1104 7.20203Z" fill="#C6C6C6"/>
</g>
<defs>
<clipPath id="clip0_2107_1792">
<rect width="20.13" height="16.104" fill="white" transform="translate(0 0.806641)"/>
</clipPath>
</defs>
</svg>
