<svg width="17" height="14" viewBox="0 0 17 14" fill="none" xmlns="http://www.w3.org/2000/svg">
<path d="M3.01193 13.5787V12.7013C3.01193 12.365 2.81301 12.1457 2.472 12.1457C2.3015 12.1457 2.11679 12.2042 1.98891 12.3943C1.88945 12.2334 1.74736 12.1457 1.53423 12.1457C1.39215 12.1457 1.25006 12.1895 1.13639 12.3504V12.1749H0.838013V13.5787H1.13639V12.8037C1.13639 12.5551 1.26427 12.4381 1.46319 12.4381C1.66211 12.4381 1.76157 12.5697 1.76157 12.8037V13.5787H2.05995V12.8037C2.05995 12.5551 2.20204 12.4381 2.38675 12.4381C2.58567 12.4381 2.68513 12.5697 2.68513 12.8037V13.5787H3.01193ZM7.43081 12.1749H6.94772V11.7509H6.64933V12.1749H6.37937V12.4528H6.64933V13.0962C6.64933 13.4179 6.77721 13.608 7.11822 13.608C7.2461 13.608 7.38818 13.5641 7.48764 13.5056L7.40239 13.2424C7.31714 13.3009 7.21768 13.3155 7.14664 13.3155C7.00455 13.3155 6.94772 13.2278 6.94772 13.0815V12.4528H7.43081V12.1749ZM9.95994 12.1457C9.78944 12.1457 9.67577 12.2334 9.60473 12.3504V12.1749H9.30634V13.5787H9.60473V12.7891C9.60473 12.5551 9.70419 12.4235 9.8889 12.4235C9.94573 12.4235 10.0168 12.4381 10.0736 12.4528L10.1589 12.1603C10.102 12.1457 10.0168 12.1457 9.95994 12.1457ZM6.13782 12.2919C5.99574 12.1895 5.79682 12.1457 5.58369 12.1457C5.24268 12.1457 5.01534 12.3212 5.01534 12.599C5.01534 12.8329 5.18585 12.9646 5.48423 13.0084L5.62631 13.023C5.78261 13.0523 5.86786 13.0962 5.86786 13.1693C5.86786 13.2716 5.75419 13.3447 5.55527 13.3447C5.35635 13.3447 5.20006 13.2716 5.1006 13.1985L4.95851 13.4325C5.1148 13.5495 5.32793 13.608 5.54106 13.608C5.9389 13.608 6.16624 13.4179 6.16624 13.1546C6.16624 12.9061 5.98153 12.7745 5.69736 12.7306L5.55527 12.716C5.42739 12.7013 5.32793 12.6721 5.32793 12.5844C5.32793 12.482 5.42739 12.4235 5.58369 12.4235C5.75419 12.4235 5.9247 12.4966 6.00995 12.5405L6.13782 12.2919ZM14.0662 12.1457C13.8957 12.1457 13.7821 12.2334 13.711 12.3504V12.1749H13.4126V13.5787H13.711V12.7891C13.711 12.5551 13.8105 12.4235 13.9952 12.4235C14.052 12.4235 14.1231 12.4381 14.1799 12.4528L14.2652 12.1603C14.2083 12.1457 14.1231 12.1457 14.0662 12.1457ZM10.2583 12.8768C10.2583 13.3009 10.5425 13.608 10.983 13.608C11.1819 13.608 11.324 13.5641 11.4661 13.4471L11.324 13.1985C11.2103 13.2863 11.0966 13.3301 10.9688 13.3301C10.7272 13.3301 10.5567 13.1546 10.5567 12.8768C10.5567 12.6136 10.7272 12.4381 10.9688 12.4235C11.0966 12.4235 11.2103 12.4674 11.324 12.5551L11.4661 12.3065C11.324 12.1895 11.1819 12.1457 10.983 12.1457C10.5425 12.1457 10.2583 12.4528 10.2583 12.8768ZM13.0148 12.8768V12.1749H12.7164V12.3504C12.617 12.2188 12.4749 12.1457 12.2902 12.1457C11.9065 12.1457 11.6081 12.4528 11.6081 12.8768C11.6081 13.3009 11.9065 13.608 12.2902 13.608C12.4891 13.608 12.6312 13.5348 12.7164 13.4032V13.5787H13.0148V12.8768ZM11.9207 12.8768C11.9207 12.6282 12.077 12.4235 12.3328 12.4235C12.5743 12.4235 12.7448 12.6136 12.7448 12.8768C12.7448 13.1254 12.5743 13.3301 12.3328 13.3301C12.077 13.3155 11.9207 13.1254 11.9207 12.8768ZM8.35437 12.1457C7.95653 12.1457 7.67235 12.4381 7.67235 12.8768C7.67235 13.3155 7.95653 13.608 8.36858 13.608C8.5675 13.608 8.76642 13.5495 8.92271 13.4179L8.78063 13.1985C8.66696 13.2863 8.52487 13.3447 8.38279 13.3447C8.19807 13.3447 8.01336 13.257 7.97074 13.0084H8.97955V12.8914C8.99376 12.4381 8.738 12.1457 8.35437 12.1457ZM8.35437 12.4089C8.53908 12.4089 8.66696 12.5259 8.69537 12.7452H7.98494C8.01336 12.5551 8.14124 12.4089 8.35437 12.4089ZM15.7571 12.8768V11.6193H15.4587V12.3504C15.3592 12.2188 15.2171 12.1457 15.0324 12.1457C14.6488 12.1457 14.3504 12.4528 14.3504 12.8768C14.3504 13.3009 14.6488 13.608 15.0324 13.608C15.2313 13.608 15.3734 13.5348 15.4587 13.4032V13.5787H15.7571V12.8768ZM14.663 12.8768C14.663 12.6282 14.8193 12.4235 15.075 12.4235C15.3166 12.4235 15.4871 12.6136 15.4871 12.8768C15.4871 13.1254 15.3166 13.3301 15.075 13.3301C14.8193 13.3155 14.663 13.1254 14.663 12.8768ZM4.68855 12.8768V12.1749H4.39017V12.3504C4.29071 12.2188 4.14862 12.1457 3.96391 12.1457C3.58027 12.1457 3.28189 12.4528 3.28189 12.8768C3.28189 13.3009 3.58027 13.608 3.96391 13.608C4.16283 13.608 4.30491 13.5348 4.39017 13.4032V13.5787H4.68855V12.8768ZM3.58027 12.8768C3.58027 12.6282 3.73657 12.4235 3.99232 12.4235C4.23387 12.4235 4.40437 12.6136 4.40437 12.8768C4.40437 13.1254 4.23387 13.3301 3.99232 13.3301C3.73657 13.3155 3.58027 13.1254 3.58027 12.8768Z" fill="white"/>
<path d="M10.5147 1.51501H6.03894V9.79148H10.5147V1.51501Z" fill="#DDDDDD"/>
<path d="M6.32284 5.6531C6.32284 3.97149 7.0901 2.47997 8.26942 1.51487C7.40269 0.812975 6.30863 0.388916 5.1151 0.388916C2.28759 0.388916 0 2.74318 0 5.6531C0 8.56303 2.28759 10.9173 5.1151 10.9173C6.30863 10.9173 7.40269 10.4932 8.26942 9.79134C7.0901 8.84086 6.32284 7.33472 6.32284 5.6531Z" fill="#868686"/>
<path d="M16.5533 5.6531C16.5533 8.56303 14.2657 10.9173 11.4382 10.9173C10.2447 10.9173 9.1506 10.4932 8.28387 9.79134C9.4774 8.82624 10.2305 7.33472 10.2305 5.6531C10.2305 3.97149 9.46319 2.47997 8.28387 1.51487C9.1506 0.812975 10.2447 0.388916 11.4382 0.388916C14.2657 0.388916 16.5533 2.7578 16.5533 5.6531Z" fill="#C6C6C6"/>
</svg>
