<svg width="285" height="542" viewBox="0 0 285 542" fill="none" xmlns="http://www.w3.org/2000/svg">
<g clip-path="url(#clip0_3634_21795)">
<path d="M284.631 19.608H284.272V509.895C284.275 513.962 283.476 517.989 281.921 521.746C280.366 525.503 278.086 528.917 275.21 531.793C272.335 534.668 268.921 536.948 265.164 538.503C261.406 540.058 257.379 540.857 253.313 540.855H31.6968C27.6304 540.856 23.6035 540.056 19.8462 538.501C16.0889 536.946 12.6748 534.665 9.79891 531.79C6.92303 528.915 4.64171 525.502 3.08524 521.745C1.52877 517.988 0.727659 513.962 0.72766 509.895V19.608C0.727659 14.6023 2.7155 9.80148 6.25415 6.26101C9.7928 2.72054 14.5926 0.730232 19.5983 0.72766H265.392C270.399 0.72766 275.202 2.71683 278.742 6.25758C282.283 9.79833 284.272 14.6006 284.272 19.608H285C285 14.4076 282.934 9.42026 279.257 5.74305C275.58 2.06584 270.592 0 265.392 0H19.5983C14.3996 0.00257233 9.41473 2.06954 5.73962 5.74648C2.0645 9.42341 -6.36401e-07 14.4093 0 19.608L0 509.895C0.00257265 518.3 3.34319 526.36 9.28722 532.302C15.2313 538.244 23.292 541.582 31.6968 541.582H253.313C261.717 541.582 269.777 538.244 275.719 532.301C281.662 526.359 285 518.299 285 509.895V19.608H284.631Z" fill="white"/>
<path d="M31.6872 537.343V536.974C24.5086 536.964 17.627 534.108 12.551 529.032C7.475 523.956 4.61879 517.074 4.60852 509.896V19.6083C4.61109 15.6326 6.19088 11.8204 9.00117 9.00828C11.8115 6.19616 15.6227 4.6139 19.5983 4.60876H265.392C269.369 4.61133 273.183 6.19246 275.995 9.00485C278.808 11.8172 280.389 15.6309 280.392 19.6083V509.896C280.386 517.074 277.533 523.957 272.458 529.034C267.383 534.111 260.501 536.966 253.323 536.974H31.6872V537.702H253.323C260.694 537.694 267.761 534.762 272.973 529.548C278.184 524.335 281.114 517.267 281.119 509.896V19.6083C281.114 15.4387 279.455 11.4415 276.507 8.49315C273.559 5.54485 269.562 3.88624 265.392 3.8811H19.5983C15.4297 3.88624 11.4334 5.54517 8.48664 8.49374C5.53988 11.4423 3.88343 15.4396 3.88086 19.6083V509.896C3.88856 517.268 6.82062 524.336 12.0336 529.549C17.2467 534.762 24.3148 537.694 31.6872 537.702V537.343Z" fill="white"/>
<path d="M41.9141 3.8811C38.5004 3.98092 35.1228 4.60931 31.9015 5.74391C29.1839 6.6689 26.7007 8.17539 24.6249 10.1584C22.3065 12.476 20.8688 15.5297 20.5597 18.7933L16.805 58.7078C16.5043 61.8513 16.2811 64.9948 16.0483 68.1383C15.843 71.2751 15.0047 74.3378 13.5839 77.1419C12.6917 78.9371 11.362 80.4788 9.71733 81.625C8.07264 82.7712 6.16591 83.485 4.17285 83.7005L4.26017 84.4185C6.37052 84.1939 8.39008 83.4404 10.1318 82.2278C11.8736 81.0152 13.2812 79.3827 14.2243 77.4814C15.6859 74.5901 16.541 71.4304 16.7371 68.1965C16.9797 65.053 17.2028 61.9095 17.4939 58.7757L21.2486 18.8612C21.5442 15.7588 22.9173 12.858 25.1294 10.6629C28.1177 7.66493 32.309 6.1417 35.8018 5.37523C37.2406 5.05296 38.6991 4.82609 40.1677 4.69608C40.7208 4.69608 41.138 4.62817 41.4678 4.60876H41.9335L41.9141 3.8811Z" fill="white"/>
<path d="M7.46185 83.1086V499.602C7.42783 504 8.34111 508.355 10.1396 512.37C11.8763 516.144 14.6705 520.199 19.1432 522.47C22.0484 523.89 24.7476 525.698 27.1669 527.845L31.7463 532.036V537.343H32.4739V531.677L27.6229 527.262C25.1528 525.075 22.3983 523.231 19.4343 521.781C15.1653 519.627 12.4585 515.717 10.7606 512.02C9.00582 508.104 8.11566 503.855 8.15071 499.563V83.1086H7.46185Z" fill="white"/>
<path d="M243.078 4.60876H243.292C246.888 4.74609 250.436 5.48393 253.789 6.79174C256.222 7.72754 258.421 9.18462 260.231 11.0607C262.213 13.1967 263.439 15.923 263.724 18.8224L267.479 58.7369C267.77 61.8707 267.993 65.0142 268.236 68.1577C268.432 71.3916 269.287 74.5512 270.749 77.4426C271.688 79.3493 273.094 80.9876 274.836 82.2055C276.578 83.4234 278.599 84.1812 280.713 84.4088L280.8 83.6908C278.807 83.4753 276.9 82.7615 275.256 81.6153C273.611 80.4691 272.281 78.9274 271.389 77.1322C269.978 74.3259 269.15 71.2633 268.954 68.1286C268.721 64.9851 268.498 61.8416 268.197 58.6981L264.452 18.7836C264.143 15.52 262.705 12.4663 260.387 10.1487C257.243 7.00519 252.926 5.44315 249.394 4.65727C247.322 4.19623 245.21 3.9363 243.088 3.8811L243.078 4.60876Z" fill="white"/>
<path d="M276.812 83.1086V499.602C276.847 503.893 275.956 508.142 274.202 512.059C272.504 515.756 269.797 519.666 265.528 521.82C262.564 523.269 259.809 525.113 257.339 527.301L252.488 531.716V537.343H253.226V532.036L257.805 527.845C260.227 525.698 262.93 523.89 265.838 522.47C270.311 520.199 273.105 516.144 274.842 512.37C276.641 508.355 277.554 504 277.52 499.602V83.1086H276.812Z" fill="white"/>
<path d="M260.503 517.861L260.182 517.696L252.702 531.512H32.3376L25.1483 518.23H260.503V517.861L260.182 517.696L260.503 517.861V517.502H23.9355L31.901 532.239H253.139L261.104 517.502H260.503V517.861Z" fill="white"/>
<path d="M246.191 83.1083V82.7396H41.9226C41.0912 82.7422 40.2674 82.5803 39.4988 82.2633C38.7302 81.9463 38.0318 81.4805 37.4439 80.8926C36.856 80.3047 36.3901 79.6063 36.0731 78.8377C35.7561 78.069 35.5942 77.2453 35.5968 76.4139V25.1284C35.5968 23.4507 36.2633 21.8417 37.4496 20.6554C38.6359 19.4691 40.2449 18.8026 41.9226 18.8026H246.191C247.869 18.8026 249.478 19.4691 250.664 20.6554C251.85 21.8417 252.517 23.4507 252.517 25.1284V76.4139C252.52 77.2453 252.358 78.069 252.041 78.8377C251.724 79.6063 251.258 80.3047 250.67 80.8926C250.082 81.4805 249.384 81.9463 248.615 82.2633C247.846 82.5803 247.023 82.7422 246.191 82.7396V83.4382C248.053 83.4331 249.838 82.6917 251.156 81.3758C252.474 80.0598 253.218 78.2761 253.225 76.4139V25.1284C253.223 23.2585 252.479 21.4659 251.156 20.1437C249.834 18.8215 248.042 18.0775 246.172 18.075H41.9226C40.0527 18.0775 38.2601 18.8215 36.9379 20.1437C35.6157 21.4659 34.8717 23.2585 34.8691 25.1284V76.4139C34.8768 78.2795 35.6234 80.0661 36.9453 81.3826C38.2673 82.6991 40.0569 83.4382 41.9226 83.4382H246.191V83.1083Z" fill="white"/>
<path d="M246.191 270.786V270.204H41.9221C41.1212 270.204 40.3281 270.046 39.5882 269.739C38.8483 269.432 38.1762 268.983 37.6103 268.416C37.0444 267.849 36.5958 267.176 36.2902 266.436C35.9845 265.696 35.8279 264.902 35.8292 264.101V107.198C35.8317 105.582 36.4742 104.033 37.616 102.89C38.7578 101.746 40.3061 101.101 41.9221 101.096H246.191C247.807 101.101 249.355 101.746 250.497 102.89C251.639 104.033 252.281 105.582 252.284 107.198V264.101C252.285 264.902 252.128 265.696 251.823 266.436C251.517 267.176 251.068 267.849 250.503 268.416C249.937 268.983 249.264 269.432 248.525 269.739C247.785 270.046 246.992 270.204 246.191 270.204V271.378C248.121 271.378 249.971 270.611 251.336 269.247C252.701 267.882 253.467 266.031 253.467 264.101V107.198C253.467 105.269 252.701 103.418 251.336 102.053C249.971 100.689 248.121 99.9219 246.191 99.9219H41.9221C39.9922 99.9219 38.1414 100.689 36.7768 102.053C35.4121 103.418 34.6455 105.269 34.6455 107.198V264.101C34.6455 266.031 35.4121 267.882 36.7768 269.247C38.1414 270.611 39.9922 271.378 41.9221 271.378H246.191V270.786Z" fill="white"/>
<path d="M242.049 261.055V260.57H46.0655C45.6529 260.567 45.2581 260.402 44.9673 260.109C44.6764 259.816 44.5132 259.421 44.5132 259.008V112.292C44.5132 111.881 44.6767 111.486 44.9679 111.195C45.259 110.904 45.6538 110.74 46.0655 110.74H242.049C242.46 110.74 242.855 110.904 243.146 111.195C243.437 111.486 243.601 111.881 243.601 112.292V259.047C243.601 259.459 243.438 259.855 243.147 260.148C242.856 260.441 242.461 260.606 242.049 260.609V261.579C242.718 261.574 243.358 261.305 243.83 260.831C244.302 260.357 244.569 259.716 244.571 259.047V112.292C244.571 111.623 244.305 110.982 243.832 110.509C243.359 110.036 242.718 109.77 242.049 109.77H46.0655C45.7339 109.769 45.4053 109.833 45.0987 109.959C44.7921 110.086 44.5135 110.271 44.279 110.506C44.0445 110.74 43.8587 111.019 43.7324 111.325C43.6061 111.632 43.5417 111.961 43.543 112.292V259.047C43.543 259.717 43.8084 260.359 44.2812 260.834C44.754 261.308 45.3956 261.576 46.0655 261.579H242.049V261.055Z" fill="white"/>
<path d="M108.547 290.171H107.955C107.955 290.555 107.842 290.93 107.628 291.249C107.415 291.568 107.112 291.817 106.758 291.964C106.403 292.111 106.013 292.149 105.636 292.074C105.26 291.999 104.914 291.815 104.643 291.543C104.372 291.272 104.187 290.926 104.112 290.55C104.037 290.173 104.075 289.783 104.222 289.429C104.369 289.074 104.618 288.771 104.937 288.558C105.256 288.344 105.631 288.231 106.015 288.231C106.526 288.243 107.012 288.451 107.374 288.813C107.735 289.174 107.943 289.66 107.955 290.171H109.139C109.139 289.543 108.953 288.929 108.604 288.407C108.255 287.886 107.759 287.479 107.178 287.239C106.598 286.999 105.96 286.937 105.344 287.06C104.728 287.183 104.163 287.487 103.72 287.931C103.276 288.376 102.975 288.942 102.854 289.558C102.732 290.174 102.797 290.812 103.038 291.392C103.28 291.971 103.688 292.466 104.211 292.814C104.734 293.161 105.348 293.346 105.976 293.344C106.392 293.344 106.804 293.262 107.189 293.102C107.573 292.942 107.922 292.709 108.216 292.414C108.51 292.119 108.743 291.769 108.901 291.384C109.06 291 109.14 290.587 109.139 290.171H108.547Z" fill="white"/>
<path d="M132.434 290.171H131.852C131.862 290.567 131.753 290.956 131.541 291.289C131.328 291.623 131.021 291.885 130.658 292.043C130.296 292.201 129.895 292.247 129.506 292.176C129.117 292.105 128.758 291.92 128.475 291.643C128.192 291.367 127.997 291.013 127.917 290.626C127.836 290.239 127.872 289.837 128.021 289.47C128.17 289.104 128.425 288.79 128.753 288.57C129.081 288.349 129.468 288.231 129.863 288.231C130.382 288.233 130.879 288.437 131.25 288.799C131.621 289.161 131.837 289.653 131.852 290.171H133.026C133.024 289.546 132.837 288.936 132.488 288.417C132.14 287.898 131.645 287.494 131.067 287.256C130.489 287.018 129.853 286.957 129.24 287.08C128.627 287.203 128.065 287.505 127.623 287.948C127.182 288.391 126.882 288.954 126.76 289.567C126.639 290.181 126.702 290.816 126.942 291.394C127.182 291.971 127.587 292.464 128.107 292.811C128.627 293.159 129.238 293.344 129.863 293.344C130.279 293.344 130.691 293.262 131.076 293.102C131.46 292.943 131.809 292.709 132.103 292.414C132.397 292.119 132.63 291.769 132.788 291.385C132.946 291 133.027 290.587 133.026 290.171H132.434Z" fill="white"/>
<path d="M156.331 290.171H155.739C155.739 290.553 155.626 290.926 155.415 291.244C155.204 291.562 154.903 291.811 154.552 291.959C154.2 292.107 153.812 292.148 153.437 292.077C153.062 292.006 152.716 291.826 152.443 291.559C152.17 291.293 151.981 290.952 151.901 290.579C151.821 290.205 151.853 289.817 151.992 289.462C152.131 289.106 152.373 288.8 152.685 288.581C152.998 288.362 153.368 288.24 153.75 288.231C154.269 288.231 154.768 288.433 155.139 288.796C155.511 289.159 155.726 289.652 155.739 290.171H156.922C156.922 289.544 156.736 288.93 156.388 288.409C156.039 287.887 155.544 287.48 154.964 287.24C154.384 287 153.746 286.937 153.131 287.06C152.515 287.182 151.95 287.484 151.506 287.928C151.063 288.371 150.761 288.937 150.638 289.552C150.516 290.168 150.579 290.806 150.819 291.385C151.059 291.965 151.465 292.46 151.987 292.809C152.509 293.158 153.122 293.344 153.75 293.344C154.167 293.345 154.58 293.264 154.965 293.105C155.351 292.946 155.701 292.712 155.996 292.417C156.291 292.122 156.524 291.772 156.683 291.387C156.842 291.001 156.924 290.588 156.922 290.171H156.331Z" fill="white"/>
<path d="M180.216 290.171H179.625C179.625 290.555 179.511 290.93 179.298 291.249C179.084 291.568 178.781 291.817 178.427 291.964C178.072 292.111 177.682 292.149 177.306 292.074C176.929 292 176.583 291.815 176.312 291.543C176.041 291.272 175.856 290.926 175.781 290.55C175.706 290.173 175.745 289.783 175.891 289.429C176.038 289.074 176.287 288.771 176.606 288.558C176.925 288.345 177.3 288.231 177.684 288.231C178.199 288.231 178.692 288.435 179.056 288.799C179.42 289.163 179.625 289.657 179.625 290.171H180.808C180.806 289.546 180.619 288.936 180.27 288.417C179.922 287.898 179.427 287.494 178.849 287.256C178.271 287.018 177.635 286.957 177.022 287.08C176.409 287.203 175.847 287.505 175.405 287.948C174.964 288.391 174.664 288.954 174.542 289.567C174.421 290.181 174.484 290.816 174.724 291.394C174.964 291.971 175.369 292.464 175.889 292.811C176.409 293.159 177.02 293.344 177.645 293.344C178.061 293.344 178.474 293.262 178.858 293.102C179.242 292.943 179.591 292.709 179.885 292.414C180.179 292.119 180.412 291.769 180.57 291.385C180.729 291 180.809 290.587 180.808 290.171H180.216Z" fill="white"/>
<path d="M63.9475 330.164V329.921H41.4289C39.5552 329.924 37.6995 329.556 35.968 328.841C34.2365 328.125 32.6632 327.074 31.3383 325.749C30.0135 324.425 28.963 322.851 28.2472 321.12C27.5314 319.388 27.1642 317.533 27.1668 315.659C27.1668 311.876 28.6694 308.249 31.344 305.574C34.0187 302.899 37.6463 301.397 41.4289 301.397H63.9475C67.7301 301.397 71.3577 302.899 74.0324 305.574C76.707 308.249 78.2096 311.876 78.2096 315.659C78.2122 317.533 77.845 319.388 77.1292 321.12C76.4134 322.851 75.3629 324.425 74.0381 325.749C72.7132 327.074 71.1399 328.125 69.4084 328.841C67.6769 329.556 65.8212 329.924 63.9475 329.921V330.406C65.8845 330.407 67.8027 330.027 69.5925 329.286C71.3823 328.545 73.0086 327.459 74.3782 326.09C75.7479 324.72 76.8341 323.094 77.5748 321.304C78.3154 319.514 78.696 317.596 78.6947 315.659C78.6947 311.748 77.141 307.997 74.3754 305.231C71.6097 302.465 67.8587 300.912 63.9475 300.912H41.4289C37.5177 300.912 33.7667 302.465 31.001 305.231C28.2354 307.997 26.6816 311.748 26.6816 315.659C26.6804 317.596 27.0609 319.514 27.8016 321.304C28.5423 323.094 29.6285 324.72 30.9982 326.09C32.3678 327.459 33.9941 328.545 35.7838 329.286C37.5736 330.027 39.4919 330.407 41.4289 330.406H63.9475V330.164Z" fill="white"/>
<path d="M41.4279 328.223V327.981C38.16 327.981 35.0259 326.682 32.7151 324.372C30.4044 322.061 29.1062 318.927 29.1062 315.659C29.1062 312.391 30.4044 309.257 32.7151 306.946C35.0259 304.635 38.16 303.337 41.4279 303.337H63.9465C67.2145 303.337 70.3485 304.635 72.6593 306.946C74.9701 309.257 76.2682 312.391 76.2682 315.659C76.2682 318.927 74.9701 322.061 72.6593 324.372C70.3485 326.682 67.2145 327.981 63.9465 327.981H41.4279V328.466H63.9465C67.3431 328.466 70.6006 327.116 73.0023 324.715C75.4041 322.313 76.7533 319.055 76.7533 315.659C76.7533 312.262 75.4041 309.005 73.0023 306.603C70.6006 304.201 67.3431 302.852 63.9465 302.852H41.4279C39.7461 302.852 38.0807 303.183 36.5269 303.827C34.9732 304.471 33.5613 305.414 32.3721 306.603C31.1829 307.792 30.2396 309.204 29.596 310.758C28.9524 312.312 28.6211 313.977 28.6211 315.659C28.6211 317.341 28.9524 319.006 29.596 320.56C30.2396 322.114 31.1829 323.525 32.3721 324.715C33.5613 325.904 34.9732 326.847 36.5269 327.491C38.0807 328.134 39.7461 328.466 41.4279 328.466V328.223Z" fill="white"/>
<path d="M47.0176 320.49V311.322H52.703V312.515H48.405V315.319H52.2858V316.503H48.405V320.5L47.0176 320.49Z" fill="white"/>
<path d="M57.7662 311.322V320.49H56.3691V312.729H56.3206L54.1279 314.164V312.835L56.4176 311.341L57.7662 311.322Z" fill="white"/>
<path d="M123.905 330.164V329.921H101.377C97.5946 329.921 93.9669 328.418 91.2923 325.744C88.6176 323.069 87.115 319.441 87.115 315.659C87.1201 311.878 88.6244 308.253 91.2979 305.58C93.9715 302.906 97.5961 301.402 101.377 301.397H123.905C127.686 301.402 131.311 302.906 133.985 305.58C136.658 308.253 138.162 311.878 138.168 315.659C138.168 317.532 137.799 319.386 137.082 321.117C136.365 322.847 135.315 324.419 133.99 325.744C132.666 327.068 131.094 328.119 129.363 328.835C127.633 329.552 125.778 329.921 123.905 329.921V330.406C127.817 330.406 131.568 328.852 134.333 326.087C137.099 323.321 138.653 319.57 138.653 315.659C138.65 311.748 137.096 307.999 134.33 305.234C131.565 302.469 127.816 300.914 123.905 300.912H101.377C97.4667 300.914 93.7172 302.469 90.9521 305.234C88.187 307.999 86.6325 311.748 86.6299 315.659C86.6299 319.57 88.1836 323.321 90.9492 326.087C93.7149 328.852 97.4659 330.406 101.377 330.406H123.905V330.164Z" fill="white"/>
<path d="M101.377 328.223V327.981C98.1092 327.981 94.9751 326.682 92.6644 324.372C90.3536 322.061 89.0554 318.927 89.0554 315.659C89.0554 312.391 90.3536 309.257 92.6644 306.946C94.9751 304.635 98.1092 303.337 101.377 303.337H123.905C127.173 303.337 130.307 304.635 132.618 306.946C134.929 309.257 136.227 312.391 136.227 315.659C136.227 318.927 134.929 322.061 132.618 324.372C130.307 326.682 127.173 327.981 123.905 327.981H101.377V328.466H123.905C127.302 328.466 130.56 327.116 132.961 324.715C135.363 322.313 136.712 319.055 136.712 315.659C136.712 312.262 135.363 309.005 132.961 306.603C130.56 304.201 127.302 302.852 123.905 302.852H101.377C99.6953 302.852 98.03 303.183 96.4762 303.827C94.9224 304.471 93.5106 305.414 92.3213 306.603C91.1321 307.792 90.1888 309.204 89.5452 310.758C88.9016 312.312 88.5703 313.977 88.5703 315.659C88.5703 317.341 88.9016 319.006 89.5452 320.56C90.1888 322.114 91.1321 323.525 92.3213 324.715C93.5106 325.904 94.9224 326.847 96.4762 327.491C98.03 328.134 99.6953 328.466 101.377 328.466V328.223Z" fill="white"/>
<path d="M117.668 319.064H105.967L111.817 308.431L117.668 319.064Z" fill="white"/>
<path d="M184.089 330.164V329.921H161.561C157.778 329.921 154.151 328.418 151.476 325.744C148.801 323.069 147.299 319.441 147.299 315.659C147.304 311.878 148.808 308.253 151.482 305.58C154.155 302.906 157.78 301.402 161.561 301.397H184.089C187.87 301.402 191.495 302.906 194.168 305.58C196.842 308.253 198.346 311.878 198.351 315.659C198.351 319.441 196.849 323.069 194.174 325.744C191.499 328.418 187.872 329.921 184.089 329.921V330.406C188 330.406 191.751 328.852 194.517 326.087C197.283 323.321 198.836 319.57 198.836 315.659C198.834 311.748 197.279 307.999 194.514 305.234C191.749 302.469 187.999 300.914 184.089 300.912H161.561C157.65 300.914 153.901 302.469 151.136 305.234C148.371 307.999 146.816 311.748 146.813 315.659C146.813 319.57 148.367 323.321 151.133 326.087C153.898 328.852 157.649 330.406 161.561 330.406H184.089V330.164Z" fill="white"/>
<path d="M161.56 328.223V327.981C158.292 327.981 155.158 326.682 152.847 324.372C150.536 322.061 149.238 318.927 149.238 315.659C149.238 312.391 150.536 309.257 152.847 306.946C155.158 304.635 158.292 303.337 161.56 303.337H184.088C187.356 303.337 190.49 304.635 192.801 306.946C195.112 309.257 196.41 312.391 196.41 315.659C196.41 318.927 195.112 322.061 192.801 324.372C190.49 326.682 187.356 327.981 184.088 327.981H161.56V328.466H184.088C187.485 328.466 190.742 327.116 193.144 324.715C195.546 322.313 196.895 319.055 196.895 315.659C196.895 312.262 195.546 309.005 193.144 306.603C190.742 304.201 187.485 302.852 184.088 302.852H161.56C158.163 302.852 154.906 304.201 152.504 306.603C150.102 309.005 148.753 312.262 148.753 315.659C148.753 319.055 150.102 322.313 152.504 324.715C154.906 327.116 158.163 328.466 161.56 328.466V328.223Z" fill="white"/>
<path d="M166.158 309.866H177.859L172.009 320.49L166.158 309.866Z" fill="white"/>
<path d="M244.27 330.164V329.921H221.741C217.959 329.921 214.331 328.418 211.657 325.744C208.982 323.069 207.479 319.441 207.479 315.659C207.484 311.878 208.989 308.253 211.662 305.58C214.336 302.906 217.96 301.402 221.741 301.397H244.27C248.051 301.402 251.675 302.906 254.349 305.58C257.022 308.253 258.527 311.878 258.532 315.659C258.532 319.441 257.029 323.069 254.355 325.744C251.68 328.418 248.052 329.921 244.27 329.921V330.406C248.181 330.406 251.932 328.852 254.698 326.087C257.463 323.321 259.017 319.57 259.017 315.659C259.014 311.748 257.46 307.999 254.695 305.234C251.93 302.469 248.18 300.914 244.27 300.912H221.741C217.831 300.914 214.081 302.469 211.316 305.234C208.551 307.999 206.997 311.748 206.994 315.659C206.994 319.57 208.548 323.321 211.313 326.087C214.079 328.852 217.83 330.406 221.741 330.406H244.27V330.164Z" fill="white"/>
<path d="M221.741 328.223V327.981C218.473 327.981 215.339 326.682 213.029 324.372C210.718 322.061 209.42 318.927 209.42 315.659C209.42 312.391 210.718 309.257 213.029 306.946C215.339 304.635 218.473 303.337 221.741 303.337H244.27C247.538 303.337 250.672 304.635 252.982 306.946C255.293 309.257 256.591 312.391 256.591 315.659C256.591 318.927 255.293 322.061 252.982 324.372C250.672 326.682 247.538 327.981 244.27 327.981H221.741V328.466H244.27C247.666 328.466 250.924 327.116 253.326 324.715C255.727 322.313 257.077 319.055 257.077 315.659C257.077 312.262 255.727 309.005 253.326 306.603C250.924 304.201 247.666 302.852 244.27 302.852H221.741C218.345 302.852 215.087 304.201 212.686 306.603C210.284 309.005 208.935 312.262 208.935 315.659C208.935 319.055 210.284 322.313 212.686 324.715C215.087 327.116 218.345 328.466 221.741 328.466V328.223Z" fill="white"/>
<path d="M226.448 320.49V311.322H232.143V312.515H227.836V315.319H231.717V316.503H227.836V320.5L226.448 320.49Z" fill="white"/>
<path d="M233.714 320.49V319.52L236.819 316.299C237.149 315.95 237.42 315.649 237.644 315.329C237.836 315.101 237.999 314.85 238.129 314.582C238.237 314.341 238.293 314.08 238.294 313.815C238.299 313.537 238.221 313.264 238.07 313.029C237.931 312.805 237.728 312.626 237.488 312.515C237.229 312.388 236.943 312.325 236.654 312.331C236.353 312.323 236.056 312.393 235.79 312.535C235.551 312.662 235.355 312.858 235.228 313.097C235.088 313.363 235.018 313.66 235.024 313.961H233.705C233.695 313.446 233.83 312.939 234.093 312.496C234.345 312.078 234.712 311.741 235.15 311.526C235.622 311.287 236.145 311.167 236.673 311.176C237.204 311.167 237.729 311.283 238.206 311.516C238.628 311.744 238.983 312.078 239.235 312.486C239.48 312.886 239.608 313.346 239.603 313.815C239.601 314.147 239.538 314.476 239.419 314.785C239.247 315.175 239.025 315.54 238.759 315.872C238.439 316.27 238.003 316.755 237.45 317.318L235.626 319.258V319.326H239.749V320.51L233.714 320.49Z" fill="white"/>
<path d="M69.2542 375.24V375.007H38.2074C35.8092 375.007 33.5092 374.054 31.8134 372.358C30.1177 370.663 29.165 368.363 29.165 365.965V352.508C29.1637 351.319 29.3967 350.142 29.8505 349.044C30.3044 347.946 30.9702 346.948 31.81 346.107C32.6498 345.267 33.6471 344.6 34.7448 344.145C35.8425 343.69 37.0191 343.456 38.2074 343.456H69.2542C71.6524 343.456 73.9523 344.408 75.6481 346.104C77.3439 347.8 78.2966 350.1 78.2966 352.498V365.965C78.2966 368.363 77.3439 370.663 75.6481 372.358C73.9523 374.054 71.6524 375.007 69.2542 375.007V375.473C70.5023 375.474 71.7385 375.229 72.892 374.752C74.0455 374.276 75.0938 373.576 75.9768 372.694C76.8599 371.812 77.5604 370.764 78.0383 369.611C78.5163 368.458 78.7623 367.222 78.7623 365.974V352.508C78.7597 349.988 77.7568 347.572 75.974 345.791C74.1912 344.01 71.7742 343.009 69.2542 343.009H38.2074C36.96 343.009 35.7249 343.255 34.5725 343.732C33.4201 344.21 32.373 344.909 31.491 345.791C30.609 346.673 29.9093 347.72 29.432 348.873C28.9547 350.025 28.709 351.26 28.709 352.508V365.965C28.7077 367.213 28.9525 368.449 29.4292 369.602C29.906 370.756 30.6054 371.804 31.4876 372.687C32.3697 373.57 33.4172 374.271 34.5703 374.749C35.7233 375.227 36.9592 375.473 38.2074 375.473H69.2542V375.24Z" fill="white"/>
<path d="M38.2064 373.299V373.066C36.3244 373.061 34.521 372.311 33.1902 370.98C31.8594 369.65 31.1096 367.846 31.1044 365.964V352.517C31.1044 350.632 31.8521 348.823 33.1834 347.488C34.5147 346.153 36.3211 345.401 38.2064 345.396H69.2532C70.1867 345.396 71.111 345.58 71.9733 345.937C72.8355 346.295 73.6189 346.819 74.2785 347.479C74.9381 348.14 75.461 348.924 75.8173 349.787C76.1737 350.649 76.3564 351.574 76.3552 352.507V365.964C76.3552 367.848 75.6069 369.654 74.2751 370.986C72.9432 372.318 71.1368 373.066 69.2532 373.066H38.2064V373.532H69.2532C71.2586 373.532 73.182 372.736 74.6009 371.319C76.0199 369.902 76.8183 367.979 76.8209 365.974V352.517C76.8183 350.511 76.0202 348.587 74.6015 347.169C73.1829 345.75 71.2595 344.952 69.2532 344.949H38.2064C36.201 344.952 34.2786 345.75 32.8615 347.169C31.4444 348.588 30.6484 350.512 30.6484 352.517V365.964C30.6472 366.958 30.8417 367.941 31.221 368.86C31.6002 369.778 32.1567 370.612 32.8587 371.315C33.5606 372.018 34.3942 372.575 35.3119 372.956C36.2295 373.336 37.2131 373.532 38.2064 373.532V373.299Z" fill="white"/>
<path d="M56.1647 352.187V366.236H54.0302V354.321H53.9526L50.5859 356.524V354.486L54.0981 352.187H56.1647Z" fill="white"/>
<path d="M128.068 375.24V375.007H97.0208C94.6227 375.007 92.3227 374.054 90.6269 372.358C88.9311 370.663 87.9785 368.363 87.9785 365.965V352.508C87.9772 351.319 88.2101 350.142 88.664 349.044C89.1178 347.946 89.7837 346.948 90.6235 346.107C91.4633 345.267 92.4605 344.6 93.5582 344.145C94.6559 343.69 95.8326 343.456 97.0208 343.456H128.068C130.466 343.456 132.766 344.408 134.462 346.104C136.157 347.8 137.11 350.1 137.11 352.498V365.965C137.11 368.363 136.157 370.663 134.462 372.358C132.766 374.054 130.466 375.007 128.068 375.007V375.473C130.587 375.473 133.003 374.472 134.784 372.691C136.565 370.909 137.566 368.493 137.566 365.974V352.508C137.566 351.26 137.32 350.025 136.843 348.873C136.366 347.72 135.666 346.673 134.784 345.791C133.902 344.909 132.855 344.21 131.703 343.732C130.55 343.255 129.315 343.009 128.068 343.009H97.0208C95.7735 343.009 94.5384 343.255 93.386 343.732C92.2336 344.21 91.1865 344.909 90.3045 345.791C89.4225 346.673 88.7228 347.72 88.2455 348.873C87.7682 350.025 87.5225 351.26 87.5225 352.508V365.965C87.5212 367.213 87.7659 368.449 88.2427 369.602C88.7195 370.756 89.4189 371.804 90.301 372.687C91.1832 373.57 92.2307 374.271 93.3837 374.749C94.5368 375.227 95.7727 375.473 97.0208 375.473H128.068V375.24Z" fill="white"/>
<path d="M97.0218 373.299V373.066C95.1398 373.061 93.3364 372.311 92.0056 370.98C90.6749 369.65 89.925 367.846 89.9199 365.964V352.517C89.9199 350.632 90.6675 348.823 91.9988 347.488C93.3301 346.153 95.1365 345.401 97.0218 345.396H128.069C129.952 345.401 131.757 346.152 133.088 347.485C134.419 348.818 135.168 350.624 135.171 352.507V365.964C135.165 367.846 134.416 369.65 133.085 370.98C131.754 372.311 129.951 373.061 128.069 373.066H97.0218V373.532H128.069C130.072 373.529 131.993 372.732 133.41 371.315C134.827 369.899 135.624 367.978 135.627 365.974V352.517C135.624 350.513 134.827 348.591 133.411 347.172C131.994 345.754 130.073 344.955 128.069 344.949H97.0218C95.0172 344.955 93.0963 345.754 91.6798 347.172C90.2632 348.591 89.4664 350.513 89.4639 352.517V365.964C89.4639 367.97 90.2598 369.893 91.677 371.312C93.0941 372.731 95.0164 373.529 97.0218 373.532V373.299Z" fill="white"/>
<path d="M98.292 366.246V364.713L103.046 359.784C103.551 359.251 104.016 358.814 104.307 358.378C104.602 358.026 104.85 357.638 105.045 357.223C105.211 356.857 105.297 356.46 105.297 356.059C105.305 355.631 105.19 355.21 104.967 354.846C104.742 354.506 104.43 354.232 104.065 354.05C103.664 353.864 103.226 353.771 102.784 353.779C102.325 353.77 101.871 353.877 101.465 354.089C101.097 354.289 100.797 354.593 100.601 354.962C100.391 355.366 100.287 355.817 100.3 356.272H98.2823C98.2646 355.486 98.4662 354.71 98.8644 354.031C99.2597 353.396 99.8196 352.879 100.485 352.537C101.211 352.175 102.012 351.992 102.823 352.003C103.634 351.989 104.436 352.172 105.161 352.537C105.809 352.859 106.356 353.352 106.743 353.963C107.125 354.57 107.324 355.274 107.315 355.991C107.315 356.516 107.216 357.036 107.024 357.524C106.782 358.12 106.455 358.679 106.054 359.183C105.43 359.961 104.763 360.703 104.055 361.405L101.261 364.315V364.422H107.587V366.236L98.292 366.246Z" fill="white"/>
<path d="M112.136 366.246H111.001L113.543 359.192H114.775L117.307 366.246H116.182L114.183 360.473L112.136 366.246ZM112.32 363.49H115.988V364.383H112.32V363.49Z" fill="white"/>
<path d="M118.366 366.246V359.192H120.957C121.384 359.176 121.809 359.259 122.199 359.435C122.505 359.58 122.762 359.813 122.936 360.104C123.106 360.398 123.19 360.735 123.178 361.074C123.185 361.333 123.128 361.589 123.014 361.821C122.911 362.012 122.765 362.175 122.587 362.297C122.405 362.423 122.201 362.512 121.985 362.559V362.636C122.23 362.649 122.468 362.726 122.674 362.86C122.91 363.004 123.104 363.208 123.237 363.451C123.396 363.75 123.48 364.083 123.48 364.422C123.48 364.76 123.396 365.093 123.237 365.392C123.05 365.689 122.78 365.925 122.461 366.071C122.034 366.248 121.574 366.331 121.112 366.313L118.366 366.246ZM119.433 362.248H120.86C121.085 362.252 121.308 362.202 121.51 362.103C121.692 362.018 121.849 361.888 121.966 361.724C122.075 361.547 122.133 361.341 122.131 361.133C122.136 360.995 122.111 360.859 122.059 360.732C122.008 360.604 121.929 360.49 121.83 360.395C121.559 360.171 121.21 360.063 120.86 360.094H119.404L119.433 362.248ZM119.433 365.334H120.966C121.355 365.371 121.744 365.268 122.063 365.042C122.169 364.949 122.253 364.834 122.31 364.705C122.367 364.576 122.395 364.436 122.393 364.295C122.398 364.08 122.341 363.868 122.228 363.684C122.108 363.495 121.941 363.341 121.743 363.238C121.514 363.123 121.261 363.067 121.005 363.073H119.433V365.334Z" fill="white"/>
<path d="M130.531 361.491H129.464C129.422 361.276 129.343 361.069 129.231 360.88C129.118 360.709 128.977 360.558 128.814 360.434C128.65 360.313 128.466 360.221 128.271 360.162C128.064 360.096 127.848 360.063 127.63 360.065C127.245 360.059 126.867 360.167 126.544 360.376C126.209 360.596 125.946 360.91 125.787 361.278C125.583 361.732 125.487 362.227 125.506 362.724C125.488 363.224 125.584 363.721 125.787 364.179C125.949 364.543 126.211 364.852 126.544 365.072C126.868 365.277 127.246 365.382 127.63 365.372C127.844 365.374 128.056 365.344 128.261 365.285C128.458 365.222 128.644 365.131 128.814 365.013C129.152 364.76 129.383 364.39 129.464 363.975H130.531C130.485 364.317 130.373 364.646 130.201 364.945C130.043 365.234 129.829 365.488 129.571 365.692C129.314 365.91 129.018 366.075 128.698 366.178C128.351 366.297 127.987 366.356 127.621 366.352C127.048 366.365 126.483 366.214 125.993 365.916C125.503 365.619 125.109 365.188 124.855 364.674C124.571 364.067 124.431 363.403 124.448 362.733C124.429 362.063 124.569 361.399 124.855 360.793C125.11 360.279 125.504 359.845 125.991 359.541C126.482 359.246 127.047 359.094 127.621 359.105C127.976 359.103 128.33 359.159 128.668 359.27C128.988 359.372 129.287 359.529 129.551 359.735C129.807 359.945 130.024 360.198 130.192 360.482C130.363 360.796 130.478 361.138 130.531 361.491Z" fill="white"/>
<path d="M186.833 375.24V375.007H155.786C153.388 375.007 151.088 374.054 149.392 372.358C147.697 370.663 146.744 368.363 146.744 365.965V352.508C146.744 350.109 147.697 347.81 149.392 346.114C151.088 344.418 153.388 343.465 155.786 343.465H186.833C189.231 343.465 191.531 344.418 193.227 346.114C194.923 347.81 195.876 350.109 195.876 352.508V365.965C195.876 368.363 194.923 370.663 193.227 372.358C191.531 374.054 189.231 375.007 186.833 375.007V375.473C189.352 375.473 191.768 374.472 193.55 372.691C195.331 370.909 196.332 368.493 196.332 365.974V352.508C196.332 351.26 196.086 350.025 195.609 348.873C195.131 347.72 194.432 346.673 193.55 345.791C192.668 344.909 191.62 344.21 190.468 343.732C189.316 343.255 188.081 343.009 186.833 343.009H155.786C153.266 343.009 150.849 344.01 149.067 345.791C147.284 347.572 146.281 349.988 146.278 352.508V365.965C146.278 367.213 146.524 368.449 147.002 369.602C147.48 370.755 148.181 371.802 149.064 372.684C149.947 373.566 150.995 374.266 152.149 374.743C153.302 375.219 154.538 375.464 155.786 375.463H186.833V375.24Z" fill="white"/>
<path d="M155.787 373.299V373.066C153.904 373.066 152.097 372.318 150.766 370.986C149.434 369.654 148.685 367.848 148.685 365.964V352.517C148.684 351.584 148.867 350.659 149.223 349.796C149.58 348.934 150.103 348.149 150.762 347.489C151.422 346.828 152.205 346.304 153.067 345.947C153.93 345.589 154.854 345.405 155.787 345.405H186.834C188.718 345.411 190.523 346.162 191.854 347.495C193.185 348.828 193.934 350.633 193.936 352.517V365.964C193.931 367.846 193.181 369.65 191.85 370.98C190.52 372.311 188.716 373.061 186.834 373.066H155.787V373.532H186.834C187.827 373.532 188.81 373.336 189.726 372.957C190.643 372.577 191.477 372.02 192.178 371.318C192.88 370.616 193.437 369.783 193.817 368.866C194.197 367.949 194.392 366.966 194.392 365.974V352.517C194.392 350.512 193.596 348.588 192.179 347.169C190.762 345.75 188.84 344.952 186.834 344.949H155.787C153.781 344.952 151.858 345.75 150.439 347.169C149.02 348.587 148.222 350.511 148.22 352.517V365.964C148.222 367.97 149.021 369.892 150.44 371.309C151.859 372.726 153.782 373.522 155.787 373.522V373.299Z" fill="white"/>
<path d="M159.629 366.44C158.763 366.453 157.905 366.288 157.106 365.954C156.415 365.663 155.812 365.195 155.36 364.596C154.93 364.013 154.689 363.312 154.671 362.588H156.825C156.844 362.983 156.99 363.36 157.242 363.665C157.504 363.975 157.837 364.218 158.212 364.373C158.652 364.541 159.119 364.623 159.59 364.616C160.093 364.625 160.593 364.526 161.055 364.325C161.446 364.151 161.782 363.872 162.025 363.519C162.268 363.169 162.393 362.752 162.384 362.326C162.393 361.882 162.268 361.446 162.025 361.074C161.76 360.702 161.398 360.41 160.977 360.23C160.452 360.011 159.887 359.905 159.318 359.92H158.125V358.193H159.318C159.79 358.206 160.258 358.11 160.686 357.911C161.079 357.749 161.416 357.476 161.656 357.126C161.887 356.774 162.005 356.362 161.996 355.942C162.004 355.544 161.903 355.152 161.705 354.807C161.505 354.484 161.219 354.222 160.88 354.05C160.491 353.861 160.062 353.767 159.629 353.778C159.189 353.772 158.753 353.858 158.348 354.031C157.968 354.177 157.633 354.421 157.378 354.739C157.127 355.054 156.988 355.442 156.98 355.845H154.923C154.937 355.124 155.175 354.426 155.602 353.846C156.043 353.258 156.628 352.794 157.3 352.498C158.037 352.161 158.838 351.992 159.648 352.003C160.457 351.984 161.257 352.167 161.977 352.536C162.6 352.857 163.128 353.336 163.51 353.924C163.866 354.507 164.048 355.181 164.033 355.864C164.062 356.587 163.831 357.295 163.383 357.863C162.936 358.419 162.314 358.809 161.618 358.969V359.085C162.454 359.171 163.229 359.566 163.791 360.191C164.311 360.816 164.584 361.61 164.557 362.423C164.567 363.165 164.343 363.892 163.917 364.499C163.465 365.127 162.856 365.626 162.151 365.945C161.356 366.291 160.495 366.46 159.629 366.44Z" fill="white"/>
<path d="M170.67 366.246H168.39V359.192H170.757C171.379 359.176 171.995 359.323 172.542 359.619C173.027 359.901 173.419 360.319 173.668 360.822C173.953 361.428 174.09 362.093 174.065 362.763C174.082 363.417 173.942 364.065 173.658 364.654C173.406 365.167 173.003 365.591 172.503 365.867C171.936 366.152 171.304 366.283 170.67 366.246ZM169.447 365.275H170.611C171.076 365.293 171.538 365.189 171.95 364.975C172.305 364.772 172.587 364.463 172.756 364.092C173.105 363.18 173.105 362.171 172.756 361.259C172.595 360.891 172.319 360.584 171.97 360.386C171.574 360.172 171.129 360.068 170.679 360.085H169.447V365.275Z" fill="white"/>
<path d="M175.385 366.246V359.192H179.809V360.104H176.452V362.258H179.576V363.17H176.452V365.334H179.848V366.246H175.385Z" fill="white"/>
<path d="M181.236 366.246V359.192H185.612V360.104H182.304V362.258H185.311V363.17H182.304V366.246H181.236Z" fill="white"/>
<path d="M245.618 375.24V375.007H214.572C212.173 375.007 209.873 374.054 208.178 372.358C206.482 370.663 205.529 368.363 205.529 365.965V352.508C205.529 350.109 206.482 347.81 208.178 346.114C209.873 344.418 212.173 343.465 214.572 343.465H245.618C248.017 343.465 250.317 344.418 252.012 346.114C253.708 347.81 254.661 350.109 254.661 352.508V365.965C254.661 368.363 253.708 370.663 252.012 372.358C250.317 374.054 248.017 375.007 245.618 375.007V375.473C246.867 375.474 248.103 375.229 249.256 374.752C250.41 374.276 251.458 373.576 252.341 372.694C253.224 371.812 253.925 370.764 254.403 369.611C254.88 368.458 255.126 367.222 255.126 365.974V352.508C255.124 349.988 254.121 347.572 252.338 345.791C250.555 344.01 248.138 343.009 245.618 343.009H214.572C212.052 343.009 209.635 344.01 207.852 345.791C206.069 347.572 205.066 349.988 205.063 352.508V365.965C205.063 367.213 205.309 368.449 205.787 369.602C206.265 370.755 206.966 371.802 207.849 372.684C208.732 373.566 209.78 374.266 210.934 374.743C212.087 375.219 213.323 375.464 214.572 375.463H245.618V375.24Z" fill="white"/>
<path d="M214.574 373.299V373.066C212.692 373.061 210.888 372.311 209.557 370.98C208.227 369.65 207.477 367.846 207.472 365.964V352.517C207.474 350.633 208.223 348.828 209.554 347.495C210.885 346.162 212.69 345.411 214.574 345.405H245.62C247.504 345.411 249.309 346.162 250.64 347.495C251.971 348.828 252.72 350.633 252.722 352.517V365.964C252.717 367.846 251.967 369.65 250.637 370.98C249.306 372.311 247.502 373.061 245.62 373.066H214.574V373.532H245.62C247.626 373.532 249.549 372.736 250.968 371.319C252.387 369.902 253.185 367.979 253.188 365.974V352.517C253.185 350.511 252.387 348.587 250.969 347.169C249.55 345.75 247.627 344.952 245.62 344.949H214.574C212.568 344.955 210.646 345.754 209.228 347.172C207.81 348.59 207.011 350.512 207.006 352.517V365.964C207.011 367.969 207.81 369.89 209.229 371.306C210.647 372.723 212.569 373.52 214.574 373.522V373.299Z" fill="white"/>
<path d="M226.342 354.565L235.733 363.956L237.101 362.578L227.72 353.197" fill="white"/>
<path d="M235.733 353.197L226.342 362.578L227.72 363.956L237.101 354.565" fill="white"/>
<path d="M217.328 357.427C216.366 357.425 215.436 357.077 214.71 356.446C213.983 355.816 213.507 354.944 213.37 353.992C213.249 353.28 213.33 352.549 213.603 351.881C213.875 351.212 214.329 350.633 214.912 350.208C214.994 350.142 215.086 350.09 215.184 350.053C215.269 350.032 215.358 350.042 215.437 350.081C215.515 350.12 215.577 350.186 215.611 350.266C215.65 350.352 215.658 350.448 215.633 350.539C215.608 350.629 215.552 350.708 215.475 350.761C215.225 350.955 214.994 351.173 214.786 351.411C214.389 351.919 214.153 352.534 214.108 353.176C214.063 353.819 214.211 354.461 214.534 355.019C214.856 355.577 215.338 356.025 215.918 356.307C216.497 356.589 217.148 356.691 217.786 356.6C218.424 356.51 219.02 356.23 219.498 355.798C219.976 355.366 220.314 354.8 220.468 354.175C220.622 353.549 220.586 352.891 220.363 352.287C220.141 351.682 219.743 351.157 219.22 350.781C219.145 350.743 219.084 350.682 219.045 350.607C219.007 350.532 218.993 350.447 219.007 350.363C219.016 350.296 219.044 350.233 219.086 350.18C219.129 350.128 219.185 350.087 219.248 350.063C219.312 350.04 219.38 350.033 219.447 350.045C219.514 350.057 219.576 350.086 219.627 350.131C220.406 350.662 220.965 351.459 221.199 352.372C221.341 352.907 221.37 353.465 221.286 354.011C221.202 354.558 221.005 355.081 220.709 355.549C220.413 356.016 220.024 356.417 219.566 356.727C219.107 357.037 218.59 357.248 218.046 357.349C217.852 357.397 217.609 357.397 217.328 357.427Z" fill="white"/>
<path d="M217.754 350.683C217.754 351.052 217.754 352.4 217.754 352.769C217.765 352.838 217.757 352.908 217.73 352.973C217.704 353.037 217.66 353.093 217.604 353.134C217.548 353.175 217.481 353.2 217.412 353.206C217.343 353.212 217.273 353.198 217.211 353.167C217.139 353.134 217.078 353.081 217.037 353.013C216.995 352.946 216.975 352.868 216.978 352.789C216.978 352.032 216.978 349.344 216.978 348.588C216.973 348.481 217.009 348.377 217.08 348.297C217.151 348.217 217.25 348.168 217.356 348.161C217.411 348.162 217.465 348.174 217.515 348.197C217.565 348.22 217.609 348.253 217.646 348.294C217.682 348.335 217.71 348.383 217.727 348.435C217.744 348.488 217.75 348.543 217.745 348.597C217.754 348.966 217.754 350.315 217.754 350.683Z" fill="white"/>
<path d="M237.537 398.602H228.145V397.137L222.993 400.397L228.145 403.647V402.182H237.537V398.602Z" fill="white"/>
<path d="M128.068 415.94V415.707H97.021C94.6228 415.707 92.3229 414.754 90.6271 413.058C88.9313 411.363 87.9786 409.063 87.9786 406.665V393.217C87.9863 390.824 88.9424 388.532 90.6374 386.842C92.3323 385.153 94.6279 384.204 97.021 384.204H128.068C130.466 384.204 132.766 385.157 134.462 386.853C136.158 388.548 137.11 390.848 137.11 393.246V406.694C137.11 409.092 136.158 411.392 134.462 413.088C132.766 414.783 130.466 415.736 128.068 415.736V416.221C129.316 416.221 130.552 415.975 131.705 415.497C132.858 415.019 133.906 414.319 134.788 413.436C135.67 412.553 136.369 411.504 136.846 410.351C137.323 409.197 137.567 407.961 137.566 406.713V393.217C137.566 390.698 136.566 388.282 134.784 386.501C133.003 384.72 130.587 383.719 128.068 383.719H97.021C94.5019 383.719 92.0859 384.72 90.3047 386.501C88.5234 388.282 87.5226 390.698 87.5226 393.217V406.665C87.515 407.917 87.755 409.158 88.2289 410.317C88.7028 411.476 89.4012 412.53 90.284 413.419C91.1668 414.307 92.2164 415.012 93.3727 415.493C94.5289 415.974 95.7688 416.221 97.021 416.221H128.068V415.94Z" fill="white"/>
<path d="M97.0219 414V413.767C95.1384 413.767 93.332 413.019 92.0001 411.687C90.6682 410.355 89.92 408.549 89.92 406.665V393.218C89.9327 391.341 90.686 389.545 92.0159 388.22C93.3459 386.896 95.145 386.15 97.0219 386.145H128.069C129.951 386.15 131.754 386.9 133.085 388.231C134.416 389.562 135.166 391.365 135.171 393.247V406.694C135.171 408.578 134.422 410.384 133.091 411.716C131.759 413.048 129.952 413.796 128.069 413.796H97.0219V414.281H128.069C130.073 414.276 131.994 413.477 133.411 412.058C134.827 410.64 135.624 408.718 135.627 406.714V393.218C135.624 391.214 134.827 389.293 133.41 387.876C131.993 386.46 130.072 385.662 128.069 385.66H97.0219C95.0182 385.662 93.0973 386.46 91.6805 387.876C90.2636 389.293 89.4665 391.214 89.464 393.218V406.665C89.4589 407.662 89.6504 408.65 90.0277 409.572C90.405 410.495 90.9606 411.334 91.6627 412.041C92.3648 412.749 93.1995 413.311 94.1192 413.695C95.0388 414.079 96.0252 414.279 97.0219 414.281V414Z" fill="white"/>
<path d="M102.931 407.149C102.129 407.164 101.335 406.991 100.612 406.645C99.9595 406.338 99.3979 405.866 98.982 405.277C98.5718 404.693 98.3424 404.001 98.3223 403.288H100.389C100.408 403.579 100.489 403.863 100.626 404.121C100.763 404.378 100.953 404.604 101.184 404.782C101.637 405.122 102.18 405.322 102.745 405.359C103.31 405.395 103.874 405.265 104.367 404.986C104.777 404.737 105.112 404.382 105.337 403.957C105.584 403.495 105.708 402.977 105.696 402.454C105.703 401.92 105.576 401.393 105.327 400.921C105.097 400.493 104.764 400.129 104.357 399.863C103.904 399.608 103.393 399.474 102.873 399.475C102.433 399.479 101.997 399.554 101.582 399.698C101.202 399.819 100.849 400.013 100.544 400.271L98.6036 399.98L99.3895 392.907H107.151V394.721H101.194L100.748 398.65H100.825C101.145 398.362 101.517 398.138 101.922 397.991C102.388 397.806 102.885 397.714 103.387 397.719C104.181 397.702 104.965 397.906 105.65 398.309C106.336 398.712 106.896 399.297 107.268 399.999C107.668 400.74 107.865 401.573 107.84 402.415C107.864 403.267 107.653 404.11 107.229 404.85C106.818 405.554 106.225 406.134 105.512 406.529C104.724 406.967 103.832 407.182 102.931 407.149Z" fill="white"/>
<path d="M114.281 399.902H115.339V404.899C115.351 405.303 115.261 405.703 115.077 406.063C114.905 406.377 114.646 406.633 114.33 406.801C113.984 406.957 113.608 407.038 113.229 407.038C112.849 407.038 112.473 406.957 112.127 406.801C111.822 406.668 111.562 406.449 111.38 406.17C111.197 405.88 111.103 405.543 111.109 405.2H112.166C112.159 405.378 112.206 405.554 112.302 405.704C112.393 405.848 112.52 405.965 112.671 406.044C112.844 406.123 113.033 406.163 113.224 406.16C113.424 406.167 113.623 406.116 113.796 406.015C113.957 405.917 114.082 405.771 114.155 405.597C114.246 405.38 114.289 405.145 114.281 404.909V399.902Z" fill="white"/>
<path d="M116.892 406.956V399.902H117.959V403.269H118.046L120.957 399.902H122.296L119.453 403.075L122.305 406.956H121.025L118.745 403.803L117.91 404.773V406.965L116.892 406.956Z" fill="white"/>
<path d="M123.333 406.956V399.902H124.4V406.034H127.602V406.956H123.333Z" fill="white"/>
<path d="M186.833 415.94V415.707H155.786C153.388 415.707 151.088 414.754 149.392 413.058C147.697 411.363 146.744 409.063 146.744 406.665V393.217C146.744 390.819 147.697 388.519 149.392 386.823C151.088 385.128 153.388 384.175 155.786 384.175H186.833C189.231 384.175 191.531 385.128 193.227 386.823C194.923 388.519 195.876 390.819 195.876 393.217V406.665C195.876 409.063 194.923 411.363 193.227 413.058C191.531 414.754 189.231 415.707 186.833 415.707V416.221C188.081 416.221 189.317 415.975 190.47 415.497C191.623 415.019 192.671 414.319 193.553 413.436C194.435 412.553 195.135 411.504 195.611 410.351C196.088 409.197 196.333 407.961 196.332 406.713V393.217C196.332 390.698 195.331 388.282 193.55 386.501C191.768 384.72 189.352 383.719 186.833 383.719H155.786C154.538 383.718 153.302 383.962 152.149 384.439C150.995 384.916 149.947 385.615 149.064 386.498C148.181 387.38 147.48 388.427 147.002 389.58C146.524 390.733 146.278 391.969 146.278 393.217V406.665C146.278 409.186 147.28 411.605 149.063 413.388C150.846 415.171 153.265 416.173 155.786 416.173H186.833V415.94Z" fill="white"/>
<path d="M155.787 414V413.767C154.854 413.768 153.93 413.585 153.068 413.229C152.206 412.873 151.422 412.349 150.763 411.69C150.103 411.03 149.58 410.247 149.223 409.384C148.867 408.522 148.684 407.598 148.685 406.665V393.218C148.685 391.334 149.434 389.528 150.766 388.196C152.097 386.864 153.904 386.116 155.787 386.116H186.834C188.716 386.121 190.52 386.871 191.85 388.202C193.181 389.532 193.931 391.336 193.936 393.218V406.665C193.936 408.549 193.188 410.355 191.856 411.687C190.524 413.019 188.718 413.767 186.834 413.767H155.787V414.281H186.834C188.84 414.279 190.762 413.48 192.179 412.061C193.596 410.642 194.392 408.719 194.392 406.714V393.218C194.392 392.225 194.197 391.243 193.817 390.326C193.437 389.409 192.88 388.575 192.178 387.874C191.477 387.172 190.643 386.615 189.726 386.235C188.81 385.855 187.827 385.66 186.834 385.66H155.787C153.782 385.66 151.859 386.456 150.44 387.873C149.021 389.29 148.222 391.212 148.22 393.218V406.665C148.222 408.671 149.02 410.595 150.439 412.013C151.858 413.432 153.781 414.23 155.787 414.233V414Z" fill="white"/>
<path d="M159.648 407.15C159.015 407.14 158.388 407.022 157.795 406.8C157.166 406.571 156.6 406.195 156.145 405.704C155.603 405.111 155.199 404.405 154.962 403.638C154.636 402.592 154.485 401.501 154.515 400.407C154.502 399.306 154.626 398.207 154.884 397.137C155.09 396.275 155.449 395.457 155.942 394.721C156.369 394.089 156.949 393.574 157.626 393.223C158.304 392.872 159.059 392.697 159.823 392.713C160.595 392.698 161.36 392.867 162.054 393.208C162.687 393.525 163.231 393.995 163.635 394.576C164.036 395.155 164.298 395.819 164.402 396.516H162.316C162.189 395.962 161.894 395.461 161.472 395.08C161.009 394.698 160.422 394.501 159.823 394.527C159.338 394.515 158.86 394.632 158.437 394.868C158.013 395.103 157.661 395.448 157.416 395.866C156.782 397.008 156.483 398.306 156.553 399.611H156.65C156.887 399.22 157.192 398.875 157.552 398.592C157.907 398.305 158.311 398.084 158.746 397.942C159.191 397.786 159.661 397.707 160.133 397.71C160.911 397.698 161.677 397.903 162.345 398.301C163.008 398.698 163.554 399.264 163.927 399.941C164.333 400.67 164.537 401.494 164.518 402.328C164.528 403.177 164.321 404.015 163.917 404.763C163.514 405.482 162.924 406.079 162.209 406.49C161.43 406.936 160.545 407.163 159.648 407.15ZM159.648 405.365C160.158 405.37 160.658 405.232 161.094 404.967C161.505 404.698 161.839 404.327 162.064 403.89C162.311 403.431 162.438 402.917 162.432 402.396C162.442 401.881 162.318 401.373 162.073 400.921C161.847 400.49 161.513 400.126 161.103 399.863C160.676 399.597 160.181 399.459 159.677 399.466C159.286 399.462 158.9 399.542 158.542 399.698C158.203 399.857 157.897 400.077 157.64 400.349C157.376 400.632 157.166 400.961 157.019 401.319C156.87 401.675 156.794 402.058 156.795 402.444C156.793 402.953 156.92 403.453 157.164 403.899C157.39 404.338 157.724 404.712 158.134 404.986C158.587 405.259 159.11 405.391 159.638 405.365H159.648Z" fill="white"/>
<path d="M167.42 399.902H168.71L170.951 405.384H171.039L173.28 399.902H174.57V406.956H173.6V401.852H173.532L171.456 406.946H170.612L168.536 401.843H168.468V406.956H167.498L167.42 399.902Z" fill="white"/>
<path d="M181.817 399.902V406.956H180.847L177.267 401.775H177.199V406.956H176.132V399.902H177.102L180.692 405.083H180.76V399.902H181.817Z" fill="white"/>
<path d="M189.503 403.424C189.524 404.095 189.381 404.762 189.086 405.365C188.837 405.881 188.447 406.315 187.96 406.616C187.465 406.911 186.897 407.062 186.32 407.053C185.747 407.063 185.182 406.912 184.691 406.616C184.203 406.313 183.81 405.879 183.555 405.365C183.288 404.753 183.15 404.092 183.15 403.424C183.15 402.757 183.288 402.096 183.555 401.484C183.808 400.97 184.203 400.539 184.693 400.241C185.183 399.944 185.748 399.793 186.32 399.805C186.897 399.796 187.465 399.948 187.96 400.242C188.446 400.54 188.837 400.971 189.086 401.484C189.378 402.088 189.521 402.753 189.503 403.424ZM188.445 403.424C188.462 402.928 188.369 402.435 188.174 401.979C188.008 401.612 187.742 401.299 187.407 401.076C187.083 400.871 186.704 400.766 186.32 400.776C185.937 400.769 185.559 400.873 185.234 401.076C184.899 401.297 184.636 401.611 184.477 401.979C184.281 402.435 184.189 402.928 184.205 403.424C184.19 403.923 184.282 404.42 184.477 404.88C184.639 405.243 184.902 405.553 185.234 405.772C185.559 405.978 185.936 406.086 186.32 406.083C186.705 406.089 187.084 405.981 187.407 405.772C187.74 405.551 188.005 405.242 188.174 404.88C188.368 404.42 188.461 403.923 188.445 403.424Z" fill="white"/>
<path d="M245.618 415.94V415.707H214.572C212.173 415.707 209.873 414.754 208.178 413.058C206.482 411.363 205.529 409.063 205.529 406.665V393.217C205.529 390.819 206.482 388.519 208.178 386.823C209.873 385.128 212.173 384.175 214.572 384.175H245.618C248.017 384.175 250.317 385.128 252.012 386.823C253.708 388.519 254.661 390.819 254.661 393.217V406.665C254.661 409.063 253.708 411.363 252.012 413.058C250.317 414.754 248.017 415.707 245.618 415.707V416.221C248.14 416.221 250.559 415.219 252.342 413.436C254.125 411.653 255.126 409.235 255.126 406.713V393.217C255.126 391.969 254.88 390.733 254.403 389.58C253.925 388.427 253.224 387.38 252.341 386.498C251.458 385.615 250.41 384.916 249.256 384.439C248.103 383.962 246.867 383.718 245.618 383.719H214.572C213.323 383.718 212.087 383.962 210.934 384.439C209.78 384.916 208.732 385.615 207.849 386.498C206.966 387.38 206.265 388.427 205.787 389.58C205.309 390.733 205.063 391.969 205.063 393.217V406.665C205.063 407.913 205.309 409.15 205.787 410.303C206.265 411.457 206.965 412.505 207.848 413.388C208.731 414.271 209.779 414.971 210.933 415.449C212.087 415.927 213.323 416.173 214.572 416.173H245.618V415.94Z" fill="white"/>
<path d="M214.574 414V413.767C212.69 413.767 210.884 413.019 209.552 411.687C208.22 410.355 207.472 408.549 207.472 406.665V393.218C207.477 391.336 208.227 389.532 209.557 388.202C210.888 386.871 212.692 386.121 214.574 386.116H245.62C247.502 386.121 249.306 386.871 250.637 388.202C251.967 389.532 252.717 391.336 252.722 393.218V406.665C252.722 408.549 251.974 410.355 250.642 411.687C249.31 413.019 247.504 413.767 245.62 413.767H214.574V414.281H245.62C247.627 414.279 249.55 413.481 250.969 412.062C252.387 410.643 253.185 408.72 253.188 406.714V393.218C253.185 391.212 252.387 389.29 250.968 387.873C249.549 386.456 247.626 385.66 245.62 385.66H214.574C212.569 385.662 210.647 386.459 209.229 387.876C207.81 389.292 207.011 391.213 207.006 393.218V406.665C207.011 408.671 207.81 410.592 209.228 412.011C210.646 413.429 212.568 414.228 214.574 414.233V414Z" fill="white"/>
<path d="M128.068 456.65V456.417H97.0208C94.6227 456.417 92.3227 455.465 90.6269 453.769C88.9311 452.073 87.9785 449.773 87.9785 447.375V433.918C87.9785 431.52 88.9311 429.22 90.6269 427.524C92.3227 425.828 94.6227 424.876 97.0208 424.876H128.068C130.466 424.876 132.766 425.828 134.462 427.524C136.157 429.22 137.11 431.52 137.11 433.918V447.375C137.11 449.773 136.157 452.073 134.462 453.769C132.766 455.465 130.466 456.417 128.068 456.417V456.873C130.587 456.873 133.003 455.873 134.784 454.091C136.565 452.31 137.566 449.894 137.566 447.375V433.918C137.566 431.399 136.565 428.983 134.784 427.202C133.003 425.42 130.587 424.42 128.068 424.42H97.0208C94.5017 424.42 92.0858 425.42 90.3045 427.202C88.5232 428.983 87.5225 431.399 87.5225 433.918V447.375C87.5225 449.894 88.5232 452.31 90.3045 454.091C92.0858 455.873 94.5017 456.873 97.0208 456.873H128.068V456.65Z" fill="white"/>
<path d="M97.0218 454.71V454.477C95.1398 454.472 93.3364 453.722 92.0056 452.391C90.6749 451.06 89.925 449.257 89.9199 447.375V433.928C89.9224 432.044 90.6712 430.238 92.0022 428.905C93.3333 427.572 95.1382 426.821 97.0218 426.816H128.069C129.952 426.821 131.757 427.572 133.088 428.905C134.419 430.238 135.168 432.044 135.171 433.928V447.375C135.165 449.257 134.416 451.06 133.085 452.391C131.754 453.722 129.951 454.472 128.069 454.477H97.0218V454.933H128.069C130.072 454.93 131.993 454.133 133.41 452.716C134.827 451.3 135.624 449.379 135.627 447.375V433.928C135.624 431.923 134.827 430.001 133.411 428.583C131.994 427.165 130.073 426.365 128.069 426.36H97.0218C95.0172 426.365 93.0963 427.165 91.6798 428.583C90.2632 430.001 89.4664 431.923 89.4639 433.928V447.375C89.4664 449.379 90.2635 451.3 91.6804 452.716C93.0972 454.133 95.0181 454.93 97.0218 454.933V454.71Z" fill="white"/>
<path d="M101.096 447.85C100.203 447.87 99.3168 447.698 98.4961 447.346C97.7931 447.046 97.1833 446.564 96.7303 445.949C96.3029 445.357 96.0814 444.641 96.0997 443.911C96.0865 443.343 96.2131 442.78 96.4684 442.272C96.688 441.783 97.0205 441.354 97.4386 441.02C97.8549 440.686 98.3488 440.462 98.8745 440.37V440.292C98.196 440.135 97.5988 439.735 97.196 439.167C96.7765 438.582 96.5555 437.878 96.5654 437.158C96.553 436.467 96.7565 435.789 97.1475 435.218C97.5475 434.639 98.0975 434.179 98.7387 433.889C99.4631 433.563 100.249 433.395 101.043 433.395C101.837 433.395 102.623 433.563 103.347 433.889C103.984 434.19 104.533 434.651 104.938 435.228C105.325 435.804 105.527 436.484 105.516 437.177C105.506 437.871 105.284 438.545 104.88 439.109C104.483 439.674 103.893 440.075 103.221 440.234V440.312C103.744 440.404 104.234 440.628 104.647 440.962C105.06 441.301 105.392 441.729 105.617 442.213C105.87 442.723 106.002 443.284 106.006 443.853C106.007 444.583 105.78 445.296 105.356 445.89C104.903 446.506 104.293 446.988 103.59 447.288C102.807 447.646 101.957 447.838 101.096 447.85ZM101.096 446.114C101.616 446.126 102.132 446.027 102.61 445.823C103.003 445.647 103.339 445.365 103.58 445.008C103.818 444.641 103.94 444.212 103.929 443.775C103.938 443.317 103.806 442.866 103.551 442.485C103.311 442.108 102.976 441.801 102.581 441.592C102.124 441.372 101.622 441.262 101.116 441.272C100.606 441.264 100.101 441.373 99.641 441.592C99.2436 441.798 98.9086 442.106 98.6707 442.485C98.4189 442.867 98.2903 443.318 98.3021 443.775C98.288 444.211 98.4064 444.641 98.6416 445.008C98.8823 445.365 99.2185 445.647 99.6118 445.823C100.081 446.021 100.587 446.12 101.096 446.114ZM101.096 439.574C101.527 439.586 101.954 439.489 102.338 439.293C102.698 439.114 102.999 438.837 103.207 438.493C103.415 438.15 103.521 437.754 103.512 437.353C103.519 436.946 103.412 436.546 103.202 436.198C102.997 435.869 102.705 435.604 102.358 435.432C101.959 435.252 101.528 435.16 101.091 435.16C100.655 435.16 100.223 435.252 99.8253 435.432C99.4782 435.604 99.1859 435.869 98.9812 436.198C98.7742 436.547 98.67 436.947 98.6804 437.353C98.6623 437.766 98.7597 438.176 98.9618 438.536C99.172 438.867 99.4668 439.135 99.8156 439.312C100.214 439.505 100.654 439.595 101.096 439.574Z" fill="white"/>
<path d="M109.246 441.524V440.603H114.708V441.524H112.545V447.656H111.487V441.524H109.246Z" fill="white"/>
<path d="M120.451 440.603H121.519V445.24C121.527 445.704 121.406 446.161 121.169 446.56C120.934 446.941 120.598 447.25 120.199 447.452C119.741 447.657 119.245 447.763 118.744 447.763C118.242 447.763 117.746 447.657 117.288 447.452C116.877 447.251 116.533 446.935 116.298 446.542C116.062 446.15 115.944 445.698 115.959 445.24V440.603H117.027V445.163C117.02 445.458 117.094 445.75 117.24 446.007C117.376 446.258 117.586 446.461 117.841 446.589C118.139 446.747 118.475 446.821 118.812 446.802C119.148 446.816 119.483 446.743 119.782 446.589C120.035 446.458 120.245 446.256 120.383 446.007C120.522 445.747 120.592 445.457 120.587 445.163L120.451 440.603Z" fill="white"/>
<path d="M123.683 440.603L125.623 446.346H125.701L127.641 440.603H128.796L126.254 447.656H125.022L122.489 440.603H123.683Z" fill="white"/>
<path d="M186.833 456.65V456.417H155.786C153.388 456.417 151.088 455.465 149.392 453.769C147.697 452.073 146.744 449.773 146.744 447.375V433.918C146.744 431.52 147.697 429.22 149.392 427.524C151.088 425.828 153.388 424.876 155.786 424.876H186.833C189.231 424.876 191.531 425.828 193.227 427.524C194.923 429.22 195.876 431.52 195.876 433.918V447.375C195.876 449.773 194.923 452.073 193.227 453.769C191.531 455.465 189.231 456.417 186.833 456.417V456.873C189.352 456.873 191.768 455.873 193.55 454.091C195.331 452.31 196.332 449.894 196.332 447.375V433.918C196.332 431.399 195.331 428.983 193.55 427.202C191.768 425.42 189.352 424.42 186.833 424.42H155.786C153.266 424.42 150.849 425.42 149.067 427.201C147.284 428.982 146.281 431.398 146.278 433.918V447.375C146.278 448.623 146.524 449.859 147.002 451.012C147.48 452.165 148.181 453.213 149.064 454.095C149.947 454.977 150.995 455.676 152.149 456.153C153.302 456.63 154.538 456.875 155.786 456.873H186.833V456.65Z" fill="white"/>
<path d="M155.787 454.71V454.477C153.904 454.477 152.097 453.729 150.766 452.397C149.434 451.065 148.685 449.258 148.685 447.375V433.928C148.684 432.994 148.867 432.07 149.223 431.207C149.58 430.344 150.103 429.56 150.762 428.9C151.422 428.239 152.205 427.715 153.067 427.358C153.93 427 154.854 426.816 155.787 426.816H186.834C188.718 426.821 190.523 427.572 191.854 428.905C193.185 430.238 193.934 432.044 193.936 433.928V447.375C193.931 449.257 193.181 451.06 191.85 452.391C190.52 453.722 188.716 454.472 186.834 454.477H155.787V454.933H186.834C187.827 454.933 188.81 454.737 189.726 454.358C190.643 453.978 191.477 453.421 192.178 452.719C192.88 452.017 193.437 451.184 193.817 450.267C194.197 449.35 194.392 448.367 194.392 447.375V433.928C194.392 431.922 193.596 429.999 192.179 428.58C190.762 427.161 188.84 426.363 186.834 426.36H155.787C153.781 426.363 151.858 427.161 150.439 428.579C149.02 429.998 148.222 431.921 148.22 433.928V447.375C148.222 449.38 149.021 451.303 150.44 452.72C151.859 454.137 153.782 454.933 155.787 454.933V454.71Z" fill="white"/>
<path d="M157.466 433.413C158.099 433.423 158.726 433.541 159.319 433.763C159.946 433.997 160.51 434.372 160.969 434.859C161.513 435.447 161.917 436.15 162.152 436.916C162.472 437.955 162.623 439.04 162.599 440.127C162.617 441.232 162.493 442.334 162.23 443.407C162.025 444.272 161.667 445.093 161.172 445.832C160.748 446.463 160.175 446.979 159.504 447.336C158.818 447.683 158.059 447.86 157.291 447.85C156.519 447.865 155.754 447.696 155.06 447.355C154.427 447.038 153.883 446.568 153.479 445.987C153.066 445.389 152.803 444.7 152.712 443.979H154.808C154.924 444.545 155.22 445.059 155.652 445.444C156.11 445.826 156.695 446.023 157.291 445.997C157.777 446.01 158.256 445.891 158.68 445.654C159.103 445.416 159.455 445.069 159.698 444.648C160.338 443.501 160.641 442.196 160.571 440.884H160.464C160.224 441.256 159.922 441.584 159.571 441.854C159.217 442.145 158.813 442.369 158.378 442.514C157.929 442.671 157.457 442.75 156.981 442.747C156.203 442.758 155.437 442.553 154.769 442.155C154.105 441.759 153.559 441.193 153.187 440.515C152.783 439.786 152.579 438.962 152.596 438.129C152.582 437.288 152.789 436.458 153.197 435.722C153.597 435.001 154.188 434.403 154.905 433.995C155.692 433.579 156.576 433.378 157.466 433.413ZM157.466 435.199C156.956 435.193 156.456 435.331 156.02 435.596C155.61 435.861 155.275 436.229 155.05 436.664C154.804 437.119 154.677 437.63 154.682 438.148C154.674 438.662 154.797 439.17 155.041 439.623C155.264 440.053 155.599 440.414 156.011 440.671C156.442 440.935 156.941 441.07 157.447 441.059C157.829 441.061 158.208 440.983 158.558 440.831C158.909 440.679 159.224 440.456 159.484 440.176C159.748 439.894 159.955 439.565 160.095 439.206C160.243 438.855 160.319 438.479 160.319 438.099C160.32 437.597 160.195 437.102 159.954 436.661C159.713 436.22 159.365 435.847 158.941 435.577C158.5 435.311 157.991 435.18 157.476 435.199H157.466Z" fill="white"/>
<path d="M165.906 447.656L163.966 440.603H165.091L166.459 446.065H166.527L167.953 440.603H169.069L170.495 446.075H170.563L171.931 440.603H173.057L171.116 447.656H170.049L168.497 442.417L167.012 447.695L165.906 447.656Z" fill="white"/>
<path d="M174.734 440.603L176.422 443.358H176.48L178.169 440.603H179.401L177.198 444.134L179.41 447.656H178.169L176.48 444.939H176.422L174.724 447.656H173.482L175.733 444.134L173.502 440.603H174.734Z" fill="white"/>
<path d="M179.917 440.603H181.12L182.963 443.814H183.041L184.884 440.603H186.097L183.536 444.891V447.656H182.469V444.891L179.917 440.603Z" fill="white"/>
<path d="M186.922 447.656V446.948L190.628 441.524H186.883V440.603H191.928V441.311L188.222 446.744H191.967V447.656H186.922Z" fill="white"/>
<path d="M128.068 497.351V497.118H97.0208C94.6227 497.118 92.3227 496.165 90.6269 494.469C88.9311 492.774 87.9785 490.474 87.9785 488.075V474.628C87.9785 472.23 88.9311 469.93 90.6269 468.234C92.3227 466.539 94.6227 465.586 97.0208 465.586H128.068C130.466 465.586 132.766 466.539 134.462 468.234C136.157 469.93 137.11 472.23 137.11 474.628V488.075C137.11 490.474 136.157 492.774 134.462 494.469C132.766 496.165 130.466 497.118 128.068 497.118V497.583C129.316 497.583 130.552 497.337 131.705 496.859C132.858 496.382 133.905 495.681 134.787 494.798C135.67 493.915 136.369 492.867 136.846 491.713C137.323 490.56 137.567 489.324 137.566 488.075V474.628C137.566 472.108 136.566 469.691 134.785 467.908C133.004 466.126 130.588 465.123 128.068 465.12H97.0208C94.5008 465.123 92.0849 466.126 90.3039 467.908C88.5229 469.691 87.5225 472.108 87.5225 474.628V488.075C87.5212 489.324 87.7659 490.56 88.2427 491.713C88.7195 492.867 89.4189 493.915 90.301 494.798C91.1832 495.681 92.2307 496.382 93.3837 496.859C94.5368 497.337 95.7727 497.583 97.0208 497.583H128.068V497.351Z" fill="white"/>
<path d="M97.0218 495.41V495.177C95.1383 495.177 93.3319 494.429 92 493.097C90.6681 491.765 89.9199 489.959 89.9199 488.075V474.628C89.925 472.746 90.6749 470.943 92.0056 469.612C93.3364 468.281 95.1398 467.531 97.0218 467.526H128.069C129.951 467.531 131.754 468.281 133.085 469.612C134.416 470.943 135.165 472.746 135.171 474.628V488.075C135.171 489.959 134.422 491.765 133.09 493.097C131.759 494.429 129.952 495.177 128.069 495.177H97.0218V495.643H128.069C130.073 495.638 131.994 494.838 133.411 493.42C134.827 492.002 135.624 490.08 135.627 488.075V474.628C135.624 472.624 134.827 470.703 133.41 469.287C131.993 467.87 130.072 467.073 128.069 467.07H97.0218C95.0181 467.073 93.0972 467.87 91.6804 469.287C90.2635 470.703 89.4664 472.624 89.4639 474.628V488.075C89.4664 490.08 90.2632 492.002 91.6798 493.42C93.0963 494.838 95.0172 495.638 97.0218 495.643V495.41Z" fill="white"/>
<path d="M105.114 489.958C104.117 489.987 103.138 489.686 102.329 489.104C101.513 488.47 100.902 487.609 100.573 486.63C100.141 485.383 99.9344 484.069 99.9618 482.749C99.9321 481.429 100.139 480.115 100.573 478.868C100.91 477.89 101.524 477.031 102.339 476.394C103.148 475.82 104.122 475.524 105.114 475.55C106.104 475.523 107.076 475.823 107.879 476.404C108.693 477.038 109.306 477.893 109.645 478.868C110.46 481.411 110.46 484.145 109.645 486.688C109.312 487.669 108.698 488.529 107.879 489.162C107.069 489.724 106.098 490.004 105.114 489.958ZM105.114 488.134C105.579 488.133 106.035 488.002 106.43 487.755C106.824 487.508 107.141 487.155 107.345 486.737C107.951 485.484 108.228 484.099 108.15 482.71C108.166 481.727 108.042 480.747 107.782 479.8C107.604 479.105 107.242 478.471 106.734 477.966C106.298 477.551 105.716 477.324 105.114 477.335C104.648 477.336 104.192 477.467 103.798 477.714C103.403 477.961 103.086 478.314 102.882 478.732C102.269 479.982 101.989 481.369 102.067 482.759C102.042 483.761 102.166 484.762 102.436 485.728C102.614 486.42 102.972 487.052 103.474 487.561C103.929 487.952 104.514 488.156 105.114 488.134Z" fill="white"/>
<path d="M114.242 484.466V488.813H125.176V484.466H123.236V486.872H116.183V484.466H114.242Z" fill="white"/>
<path d="M69.2542 415.94V415.707H38.2074C35.8092 415.707 33.5092 414.754 31.8134 413.058C30.1177 411.363 29.165 409.063 29.165 406.665V393.217C29.1727 390.824 30.1288 388.532 31.8237 386.842C33.5187 385.153 35.8142 384.204 38.2074 384.204H69.2542C71.6524 384.204 73.9523 385.157 75.6481 386.853C77.3439 388.548 78.2966 390.848 78.2966 393.246V406.694C78.2966 409.092 77.3439 411.392 75.6481 413.088C73.9523 414.783 71.6524 415.736 69.2542 415.736V416.221C71.7759 416.221 74.1943 415.219 75.9774 413.436C77.7605 411.653 78.7623 409.235 78.7623 406.713V393.217C78.7623 391.969 78.5163 390.733 78.0383 389.58C77.5604 388.427 76.8599 387.38 75.9768 386.498C75.0938 385.615 74.0455 384.916 72.892 384.439C71.7385 383.962 70.5023 383.718 69.2542 383.719H38.2074C35.6882 383.719 33.2723 384.72 31.491 386.501C29.7097 388.282 28.709 390.698 28.709 393.217V406.665C28.7077 407.913 28.9525 409.149 29.4292 410.302C29.906 411.456 30.6054 412.504 31.4876 413.387C32.3697 414.27 33.4172 414.971 34.5703 415.449C35.7233 415.927 36.9592 416.173 38.2074 416.173H69.2542V415.94Z" fill="white"/>
<path d="M38.2064 414V413.767C36.3228 413.767 34.5164 413.019 33.1846 411.687C31.8527 410.355 31.1044 408.549 31.1044 406.665V393.218C31.1172 391.341 31.8705 389.545 33.2004 388.22C34.5304 386.896 36.3294 386.15 38.2064 386.145H69.2532C71.1368 386.145 72.9432 386.893 74.275 388.225C75.6069 389.557 76.3552 391.363 76.3552 393.247V406.694C76.3564 407.627 76.1736 408.551 75.8172 409.413C75.4607 410.276 74.9376 411.059 74.2779 411.719C73.6182 412.379 72.8347 412.902 71.9725 413.258C71.1103 413.615 70.1862 413.797 69.2532 413.796H38.2064V414.281H69.2532C71.2595 414.279 73.1829 413.481 74.6015 412.062C76.0202 410.643 76.8183 408.72 76.8209 406.714V393.218C76.8183 391.212 76.0199 389.29 74.6009 387.873C73.182 386.456 71.2586 385.66 69.2532 385.66H38.2064C37.2139 385.66 36.2311 385.855 35.3141 386.235C34.3971 386.615 33.5639 387.172 32.8621 387.874C32.1603 388.575 31.6036 389.409 31.2238 390.326C30.8439 391.243 30.6484 392.225 30.6484 393.218V406.665C30.6484 408.67 31.4444 410.594 32.8615 412.013C34.2786 413.432 36.201 414.23 38.2064 414.233V414Z" fill="white"/>
<path d="M39.2061 404.21V402.493L45.2796 392.936H46.6282V395.459H45.7744L41.4278 402.328V402.444H49.7523V404.239L39.2061 404.21ZM45.8714 406.956V392.936H47.8798V406.985L45.8714 406.956Z" fill="white"/>
<path d="M57.5235 402.124C57.4599 401.926 57.3719 401.737 57.2616 401.561C57.1496 401.401 57.0157 401.258 56.8638 401.134C56.704 401.018 56.5274 400.926 56.3399 400.863C56.1284 400.803 55.9096 400.774 55.6898 400.775C55.3091 400.768 54.9346 400.872 54.6129 401.076C54.2781 401.297 54.0151 401.61 53.8561 401.979C53.4884 402.914 53.4884 403.954 53.8561 404.889C54.0219 405.256 54.2875 405.569 54.6226 405.791C54.9545 405.997 55.338 406.105 55.7287 406.102C56.0674 406.105 56.4014 406.022 56.6989 405.859C56.9794 405.71 57.2091 405.48 57.3586 405.2C57.5143 404.9 57.5943 404.567 57.5915 404.229L57.8728 404.278H55.8936V403.405H58.6684V404.2C58.6818 404.739 58.5512 405.272 58.29 405.743C58.0408 406.156 57.6813 406.492 57.2519 406.713C56.7522 406.963 56.1986 407.086 55.6401 407.071C55.0816 407.055 54.5355 406.903 54.0502 406.626C53.5636 406.324 53.1731 405.89 52.9247 405.374C52.6401 404.768 52.5037 404.103 52.527 403.434C52.5193 402.917 52.598 402.402 52.7598 401.911C52.8968 401.49 53.1217 401.103 53.4195 400.775C53.6844 400.463 54.016 400.215 54.3898 400.048C55.1337 399.754 55.9564 399.726 56.7183 399.97C57.0365 400.08 57.3347 400.24 57.6012 400.446C57.8574 400.651 58.0744 400.901 58.2415 401.183C58.4211 401.48 58.5398 401.81 58.5908 402.153L57.5235 402.124Z" fill="white"/>
<path d="M60.0186 406.956V399.902H61.1246V402.968H64.6368V399.902H65.704V406.956H64.6368V403.88H61.1246V406.956H60.0186Z" fill="white"/>
<path d="M68.284 399.902V406.956H67.2168V399.902H68.284Z" fill="white"/>
<path d="M69.2542 456.65V456.417H38.2074C35.8092 456.417 33.5092 455.465 31.8134 453.769C30.1177 452.073 29.165 449.773 29.165 447.375V433.918C29.165 431.52 30.1177 429.22 31.8134 427.524C33.5092 425.828 35.8092 424.876 38.2074 424.876H69.2542C71.6524 424.876 73.9523 425.828 75.6481 427.524C77.3439 429.22 78.2966 431.52 78.2966 433.918V447.375C78.2966 449.773 77.3439 452.073 75.6481 453.769C73.9523 455.465 71.6524 456.417 69.2542 456.417V456.873C70.5023 456.875 71.7385 456.63 72.892 456.153C74.0455 455.676 75.0938 454.977 75.9768 454.095C76.8599 453.213 77.5604 452.165 78.0383 451.012C78.5163 449.859 78.7623 448.623 78.7623 447.375V433.918C78.7597 431.398 77.7568 428.982 75.974 427.201C74.1911 425.42 71.7742 424.42 69.2542 424.42H38.2074C35.6882 424.42 33.2723 425.42 31.491 427.202C29.7097 428.983 28.709 431.399 28.709 433.918V447.375C28.709 449.894 29.7097 452.31 31.491 454.091C33.2723 455.873 35.6882 456.873 38.2074 456.873H69.2542V456.65Z" fill="white"/>
<path d="M38.2064 454.71V454.477C36.3244 454.472 34.521 453.722 33.1902 452.391C31.8594 451.06 31.1096 449.257 31.1044 447.375V433.928C31.107 432.044 31.8557 430.238 33.1868 428.905C34.5178 427.572 36.3227 426.821 38.2064 426.816H69.2532C70.1867 426.816 71.111 427 71.9733 427.358C72.8355 427.715 73.6189 428.239 74.2785 428.9C74.9381 429.56 75.461 430.344 75.8173 431.207C76.1737 432.07 76.3564 432.994 76.3552 433.928V447.375C76.3552 449.258 75.6069 451.065 74.275 452.397C72.9432 453.729 71.1368 454.477 69.2532 454.477H38.2064V454.933H69.2532C71.2586 454.933 73.182 454.137 74.6009 452.72C76.0199 451.303 76.8183 449.38 76.8209 447.375V433.928C76.8183 431.921 76.0202 429.998 74.6015 428.579C73.1829 427.161 71.2595 426.363 69.2532 426.36H38.2064C36.201 426.363 34.2786 427.161 32.8615 428.58C31.4444 429.999 30.6484 431.922 30.6484 433.928V447.375C30.6484 448.367 30.8439 449.35 31.2238 450.267C31.6036 451.184 32.1603 452.017 32.8621 452.719C33.5639 453.421 34.3971 453.978 35.3141 454.358C36.2311 454.737 37.2139 454.933 38.2064 454.933V454.71Z" fill="white"/>
<path d="M38.0318 447.656L44.1732 435.529V435.432H37.0713V433.608H46.3659V435.49L40.2536 447.656H38.0318Z" fill="white"/>
<path d="M45.959 447.656V440.603H48.5106C48.985 440.583 49.4563 440.687 49.8786 440.903C50.223 441.088 50.5036 441.372 50.6839 441.718C50.8629 442.082 50.9559 442.482 50.9559 442.888C50.9559 443.293 50.8629 443.693 50.6839 444.057C50.5027 444.408 50.2183 444.696 49.8689 444.881C49.4481 445.093 48.9813 445.196 48.5106 445.182H46.7449V444.28H48.3748C48.6671 444.29 48.9573 444.226 49.2189 444.095C49.4275 443.987 49.5946 443.813 49.6943 443.601C49.7965 443.377 49.8494 443.134 49.8494 442.888C49.8494 442.641 49.7965 442.398 49.6943 442.174C49.5912 441.966 49.4247 441.797 49.2189 441.689C48.9494 441.562 48.6531 441.502 48.3554 441.515H47.0262V447.656H45.959Z" fill="white"/>
<path d="M58.2915 444.135C58.3102 444.806 58.1671 445.471 57.8743 446.075C57.6258 446.588 57.2351 447.019 56.7489 447.317C56.2515 447.603 55.6878 447.754 55.1141 447.754C54.5403 447.754 53.9766 447.603 53.4792 447.317C53.0103 447.01 52.6345 446.581 52.3926 446.075C52.1077 445.469 51.9682 444.804 51.9851 444.135C51.966 443.465 52.1057 442.8 52.3926 442.194C52.592 441.815 52.8663 441.481 53.1988 441.211C53.5313 440.942 53.9151 440.742 54.3269 440.625C54.7388 440.508 55.1701 440.476 55.5947 440.53C56.0194 440.585 56.4285 440.725 56.7974 440.943C57.284 441.244 57.6744 441.678 57.9228 442.194C58.2011 442.802 58.3276 443.468 58.2915 444.135ZM57.234 444.135C57.2509 443.636 57.1582 443.139 56.9623 442.679C56.8028 442.314 56.5397 442.004 56.2055 441.787C55.8776 441.584 55.4996 441.477 55.1141 441.477C54.7285 441.477 54.3506 441.584 54.0226 441.787C53.6885 442.004 53.4253 442.314 53.2658 442.679C53.0699 443.139 52.9772 443.636 52.9941 444.135C52.9774 444.631 53.0701 445.124 53.2658 445.58C53.4247 445.948 53.6878 446.262 54.0226 446.483C54.3527 446.679 54.7298 446.783 55.1141 446.783C55.4983 446.783 55.8754 446.679 56.2055 446.483C56.5403 446.262 56.8034 445.948 56.9623 445.58C57.1613 445.125 57.2574 444.631 57.2437 444.135H57.234ZM54.7599 445.328H55.8078L56.5451 446.298L56.8944 446.725L58.0684 448.258H56.972L56.1861 447.268L55.9242 446.9L54.7599 445.328Z" fill="white"/>
<path d="M59.6201 447.656V440.603H62.0942C62.5628 440.588 63.0283 440.684 63.4525 440.884C63.7983 441.056 64.0829 441.33 64.2674 441.67C64.4513 442.023 64.5447 442.416 64.5391 442.815C64.546 443.21 64.4525 443.6 64.2674 443.95C64.0769 444.28 63.7935 444.546 63.4525 444.716C63.0274 444.913 62.562 445.006 62.0942 444.988H60.1537V444.076H61.968C62.2543 444.088 62.5397 444.035 62.8024 443.921C63.0081 443.838 63.1794 443.687 63.2875 443.494C63.3898 443.282 63.4397 443.049 63.433 442.815C63.4403 442.576 63.3869 442.339 63.2778 442.126C63.1731 441.926 63.0062 441.766 62.8024 441.67C62.5318 441.559 62.2409 441.506 61.9486 441.515H60.6776V447.656H59.6201ZM63.0644 444.474L64.8011 447.656H63.6271L61.9195 444.474H63.0644Z" fill="white"/>
<path d="M69.7183 442.417C69.7076 442.264 69.6607 442.115 69.5815 441.984C69.5022 441.852 69.3928 441.741 69.2623 441.66C68.9736 441.474 68.6355 441.38 68.2921 441.389C68.0334 441.384 67.7764 441.43 67.5353 441.524C67.3426 441.6 67.1746 441.728 67.0502 441.893C66.9335 442.05 66.8721 442.241 66.8756 442.436C66.871 442.587 66.9116 442.736 66.992 442.863C67.0724 442.988 67.1782 443.093 67.3025 443.174C67.4366 443.251 67.576 443.319 67.7197 443.378C67.8629 443.427 68.0086 443.469 68.1563 443.504L68.8451 443.688C69.0809 443.742 69.3115 443.816 69.534 443.911C69.7698 444.003 69.9919 444.127 70.1937 444.28C70.3959 444.435 70.5643 444.63 70.6885 444.852C70.8173 445.104 70.8807 445.384 70.8729 445.667C70.8757 446.046 70.7678 446.417 70.5624 446.734C70.3393 447.059 70.0301 447.314 69.6698 447.472C69.2247 447.658 68.7452 447.747 68.263 447.734C67.7911 447.748 67.3214 447.662 66.8853 447.482C66.5253 447.333 66.2132 447.088 65.983 446.773C65.7609 446.446 65.6364 446.063 65.624 445.667H66.6913C66.7037 445.902 66.7923 446.127 66.9435 446.308C67.0966 446.479 67.2901 446.609 67.5062 446.686C67.747 446.766 67.9995 446.805 68.2533 446.802C68.5287 446.807 68.8023 446.758 69.0586 446.657C69.2766 446.579 69.4683 446.441 69.6116 446.259C69.7451 446.087 69.8168 445.875 69.8153 445.658C69.8218 445.471 69.7597 445.288 69.6407 445.143C69.5056 445.003 69.344 444.891 69.1653 444.813C68.9447 444.72 68.7178 444.642 68.4861 444.581L67.6227 444.357C67.1254 444.242 66.663 444.009 66.2741 443.678C66.1099 443.529 65.9805 443.346 65.895 443.141C65.8095 442.937 65.77 442.716 65.7793 442.495C65.7742 442.113 65.8897 441.74 66.1091 441.427C66.3446 441.118 66.6552 440.874 67.0114 440.719C67.4128 440.547 67.8458 440.461 68.2824 440.467C68.7191 440.46 69.1523 440.546 69.5534 440.719C69.8955 440.871 70.1929 441.108 70.4169 441.408C70.6214 441.691 70.7363 442.029 70.7467 442.378L69.7183 442.417Z" fill="white"/>
<path d="M69.2542 497.351V497.118H38.2074C35.8092 497.118 33.5092 496.165 31.8134 494.469C30.1177 492.774 29.165 490.474 29.165 488.075V474.628C29.165 472.23 30.1177 469.93 31.8134 468.234C33.5092 466.539 35.8092 465.586 38.2074 465.586H69.2542C71.6524 465.586 73.9523 466.539 75.6481 468.234C77.3439 469.93 78.2966 472.23 78.2966 474.628V488.075C78.2966 490.474 77.3439 492.774 75.6481 494.469C73.9523 496.165 71.6524 497.118 69.2542 497.118V497.583C71.7759 497.583 74.1943 496.582 75.9774 494.799C77.7605 493.015 78.7623 490.597 78.7623 488.075V474.628C78.7597 472.107 77.7571 469.69 75.9746 467.908C74.192 466.125 71.7751 465.123 69.2542 465.12H38.2074C35.6874 465.123 33.2714 466.126 31.4904 467.908C29.7094 469.691 28.709 472.108 28.709 474.628V488.075C28.7077 489.324 28.9525 490.56 29.4292 491.713C29.906 492.867 30.6054 493.915 31.4876 494.798C32.3697 495.681 33.4172 496.382 34.5703 496.859C35.7233 497.337 36.9592 497.583 38.2074 497.583H69.2542V497.351Z" fill="white"/>
<path d="M38.2064 495.41V495.177C36.3228 495.177 34.5164 494.429 33.1846 493.097C31.8527 491.765 31.1044 489.959 31.1044 488.075V474.628C31.1096 472.746 31.8594 470.943 33.1902 469.612C34.521 468.281 36.3244 467.531 38.2064 467.526H69.2532C71.1368 467.526 72.9432 468.274 74.275 469.606C75.6069 470.938 76.3552 472.744 76.3552 474.628V488.075C76.3564 489.008 76.1736 489.932 75.8172 490.794C75.4607 491.657 74.9376 492.44 74.2779 493.1C73.6182 493.76 72.8347 494.283 71.9725 494.639C71.1103 494.996 70.1862 495.178 69.2532 495.177H38.2064V495.643H69.2532C71.2595 495.64 73.1829 494.842 74.6015 493.423C76.0202 492.005 76.8183 490.081 76.8209 488.075V474.628C76.8183 472.623 76.0199 470.7 74.6009 469.283C73.182 467.866 71.2586 467.07 69.2532 467.07H38.2064C36.2019 467.07 34.2795 467.866 32.8621 469.284C31.4447 470.701 30.6484 472.624 30.6484 474.628V488.075C30.6484 490.081 31.4444 492.004 32.8615 493.423C34.2786 494.842 36.201 495.64 38.2064 495.643V495.41Z" fill="white"/>
<path d="M186.833 497.351V497.118H155.786C153.388 497.118 151.088 496.165 149.392 494.469C147.697 492.774 146.744 490.474 146.744 488.075V474.628C146.744 472.23 147.697 469.93 149.392 468.234C151.088 466.539 153.388 465.586 155.786 465.586H186.833C189.231 465.586 191.531 466.539 193.227 468.234C194.923 469.93 195.876 472.23 195.876 474.628V488.075C195.876 490.474 194.923 492.774 193.227 494.469C191.531 496.165 189.231 497.118 186.833 497.118V497.583C188.081 497.583 189.317 497.337 190.47 496.859C191.623 496.382 192.671 495.681 193.553 494.798C194.435 493.915 195.135 492.867 195.611 491.713C196.088 490.56 196.333 489.324 196.332 488.075V474.628C196.332 472.108 195.331 469.691 193.55 467.908C191.769 466.126 189.353 465.123 186.833 465.12H155.786C153.265 465.123 150.849 466.125 149.066 467.908C147.283 469.69 146.281 472.107 146.278 474.628V488.075C146.278 490.597 147.28 493.015 149.063 494.799C150.846 496.582 153.265 497.583 155.786 497.583H186.833V497.351Z" fill="white"/>
<path d="M155.787 495.41V495.177C154.854 495.178 153.93 494.996 153.068 494.639C152.206 494.283 151.422 493.76 150.763 493.1C150.103 492.44 149.58 491.657 149.223 490.794C148.867 489.932 148.684 489.008 148.685 488.075V474.628C148.685 472.744 149.434 470.938 150.766 469.606C152.097 468.274 153.904 467.526 155.787 467.526H186.834C188.716 467.531 190.52 468.281 191.85 469.612C193.181 470.943 193.931 472.746 193.936 474.628V488.075C193.936 489.959 193.188 491.765 191.856 493.097C190.524 494.429 188.718 495.177 186.834 495.177H155.787V495.643H186.834C188.84 495.64 190.762 494.842 192.179 493.423C193.596 492.004 194.392 490.081 194.392 488.075V474.628C194.392 472.624 193.596 470.701 192.178 469.284C190.761 467.866 188.839 467.07 186.834 467.07H155.787C153.782 467.07 151.859 467.866 150.44 469.283C149.021 470.7 148.222 472.623 148.22 474.628V488.075C148.222 490.081 149.02 492.005 150.439 493.423C151.858 494.842 153.781 495.64 155.787 495.643V495.41Z" fill="white"/>
<path d="M165.382 486.319L165.663 484.602H176.782L176.5 486.319H165.382ZM166.236 481.225L166.507 479.498H177.636L177.354 481.225H166.236ZM166.866 490.248L169.272 475.579H170.99L168.584 490.248H166.866ZM172.018 490.248L174.424 475.579H176.151L173.745 490.248H172.018Z" fill="white"/>
<path d="M245.618 424.653V424.42H214.572C212.052 424.42 209.635 425.42 207.852 427.201C206.069 428.982 205.066 431.398 205.063 433.918V488.075C205.063 490.597 206.065 493.015 207.848 494.799C209.631 496.582 212.05 497.583 214.572 497.583H245.618C248.14 497.583 250.559 496.582 252.342 494.799C254.125 493.015 255.126 490.597 255.126 488.075V433.918C255.124 431.398 254.121 428.982 252.338 427.201C250.555 425.42 248.138 424.42 245.618 424.42V424.876C248.017 424.876 250.317 425.828 252.012 427.524C253.708 429.22 254.661 431.52 254.661 433.918V488.075C254.661 490.474 253.708 492.773 252.012 494.469C250.317 496.165 248.017 497.118 245.618 497.118H214.572C212.173 497.118 209.873 496.165 208.178 494.469C206.482 492.773 205.529 490.474 205.529 488.075V433.918C205.529 431.52 206.482 429.22 208.178 427.524C209.873 425.828 212.173 424.876 214.572 424.876H245.618V424.653Z" fill="white"/>
<path d="M214.574 495.41V495.177C212.69 495.177 210.884 494.429 209.552 493.097C208.22 491.765 207.472 489.959 207.472 488.075V433.918C207.477 432.036 208.227 430.233 209.557 428.902C210.888 427.571 212.692 426.821 214.574 426.816H245.62C247.502 426.821 249.306 427.571 250.637 428.902C251.967 430.233 252.717 432.036 252.722 433.918V488.075C252.722 489.959 251.974 491.765 250.642 493.097C249.31 494.429 247.504 495.177 245.62 495.177H214.574V495.643H245.62C247.627 495.64 249.55 494.842 250.969 493.424C252.387 492.005 253.185 490.082 253.188 488.075V433.918C253.183 431.913 252.384 429.993 250.965 428.576C249.547 427.159 247.625 426.363 245.62 426.36H214.574C212.569 426.363 210.647 427.159 209.229 428.576C207.81 429.993 207.011 431.913 207.006 433.918V488.075C207.011 490.081 207.81 492.003 209.228 493.421C210.646 494.839 212.568 495.638 214.574 495.643V495.41Z" fill="white"/>
<path d="M51.5086 487.619L49.1704 485.921C50.0824 484.951 51.1108 484.049 52.081 483.156L48.2002 482.186C48.5204 481.303 48.8211 480.459 49.1704 479.605C50.4146 480.072 51.6185 480.64 52.7699 481.303C52.5545 480.02 52.4312 478.723 52.4012 477.422H55.1469C55.0751 478.722 54.9358 480.017 54.7297 481.303L58.6106 479.702C58.8919 480.604 59.1539 481.468 59.4353 482.38L55.4962 483.078L58.2128 485.989L55.8455 487.454L53.7789 484.262C52.9445 485.417 52.2363 486.513 51.5086 487.619Z" fill="white"/>
<path d="M237.363 455.913V463.442C237.363 464.271 237.034 465.067 236.449 465.654C235.863 466.242 235.068 466.573 234.239 466.575H228V468.041L222.849 464.781L228 461.521V462.986H232.852C233.109 462.986 233.356 462.883 233.538 462.702C233.72 462.52 233.822 462.273 233.822 462.015V455.913H237.363Z" fill="white"/>
</g>
<defs>
<clipPath id="clip0_3634_21795">
<rect width="285" height="541.582" fill="white"/>
</clipPath>
</defs>
</svg>
