<svg xmlns="http://www.w3.org/2000/svg" width="16" height="16" viewBox="0 0 16 16" fill="none">
    <path fill-rule="evenodd" clip-rule="evenodd"
        d="M0.0820312 2.16659C0.0820312 1.01599 1.01477 0.083252 2.16536 0.083252H4.89807C5.4361 0.083252 5.91378 0.427539 6.08392 0.937968L7.3321 4.6825C7.52881 5.27264 7.26165 5.91762 6.70526 6.19582L5.19047 6.95321C6.03199 8.61186 7.38676 9.96663 9.0454 10.8081L9.8028 9.29336C10.081 8.73697 10.726 8.46981 11.3161 8.66652L15.0606 9.9147C15.5711 10.0848 15.9154 10.5625 15.9154 11.1006V13.8333C15.9154 14.9838 14.9826 15.9166 13.832 15.9166H12.9987C5.86502 15.9166 0.0820312 10.1336 0.0820312 2.99992V2.16659ZM2.16536 0.916585C1.47501 0.916585 0.915365 1.47623 0.915365 2.16659V2.99992C0.915365 9.67336 6.32526 15.0833 12.9987 15.0833H13.832C14.5224 15.0833 15.082 14.5236 15.082 13.8333V11.1006C15.082 10.9212 14.9673 10.762 14.7971 10.7053L11.0526 9.45709C10.8559 9.39152 10.6409 9.48057 10.5482 9.66603L9.60763 11.5471C9.50762 11.7471 9.26755 11.8325 9.06369 11.7406C6.93379 10.7803 5.21833 9.06483 4.25803 6.93493C4.16611 6.73106 4.25151 6.491 4.45153 6.39099L6.33258 5.45046C6.51804 5.35773 6.6071 5.14274 6.54153 4.94602L5.29335 1.20149C5.23664 1.03135 5.07741 0.916585 4.89807 0.916585H2.16536Z"
        fill="white" />
</svg>