<svg width="52" height="52" viewBox="0 0 52 52" fill="none" xmlns="http://www.w3.org/2000/svg">
<g id="play/Variant2" clip-path="url(#clip0_3634_21745)">
<path id="Vector" d="M25.9997 47.6667C14.0332 47.6667 4.33301 37.9665 4.33301 26C4.33301 14.0335 14.0332 4.33337 25.9997 4.33337C37.9662 4.33337 47.6663 14.0335 47.6663 26C47.6663 37.9665 37.9662 47.6667 25.9997 47.6667ZM23.014 18.2325C22.8836 18.1455 22.7321 18.0955 22.5755 18.0879C22.4189 18.0802 22.2632 18.1151 22.1249 18.1889C21.9866 18.2627 21.8709 18.3727 21.7902 18.507C21.7094 18.6414 21.6666 18.7951 21.6663 18.9519V33.0482C21.6666 33.205 21.7094 33.3587 21.7902 33.4931C21.8709 33.6274 21.9866 33.7374 22.1249 33.8112C22.2632 33.885 22.4189 33.9199 22.5755 33.9122C22.7321 33.9045 22.8836 33.8545 23.014 33.7675L33.5852 26.7215C33.7041 26.6424 33.8015 26.5352 33.869 26.4093C33.9364 26.2834 33.9717 26.1428 33.9717 26C33.9717 25.8572 33.9364 25.7167 33.869 25.5908C33.8015 25.4649 33.7041 25.3577 33.5852 25.2785L23.0118 18.2325H23.014Z" fill="white"/>
</g>
<defs>
<clipPath id="clip0_3634_21745">
<rect width="52" height="52" fill="white"/>
</clipPath>
</defs>
</svg>
