<svg width="167" height="48" viewBox="0 0 167 48" fill="none" xmlns="http://www.w3.org/2000/svg">
<g id="Group">
<path id="BG" d="M160 48H6.15385C2.77077 48 0 45.2985 0 42V6C0 2.7015 2.77077 -1.90735e-06 6.15385 -1.90735e-06H160C163.383 -1.90735e-06 166.154 2.7015 166.154 6V42C166.154 45.2985 163.383 48 160 48Z" fill="#0D0D0D"/>
<path id="Border" d="M160 0.961497C162.849 0.961497 165.168 3.222 165.168 6V42C165.168 44.778 162.849 47.0385 160 47.0385H6.15385C3.30462 47.0385 0.986154 44.778 0.986154 42V6C0.986154 3.222 3.30462 0.961497 6.15385 0.961497H160ZM160 -1.90735e-06H6.15385C2.77077 -1.90735e-06 0 2.7015 0 6V42C0 45.2985 2.77077 48 6.15385 48H160C163.383 48 166.154 45.2985 166.154 42V6C166.154 2.7015 163.383 -1.90735e-06 160 -1.90735e-06Z" fill="#A6A6A6"/>
<g id="Icon">
<path id="Vector" d="M12.8442 9.04652C12.4827 9.41552 12.2734 9.99002 12.2734 10.734V37.272C12.2734 38.016 12.4827 38.5905 12.8442 38.9595L12.9334 39.0405L28.1857 24.1755V23.8245L12.9334 8.95952L12.8442 9.04652Z" fill="url(#paint0_linear_11439_378)"/>
<path id="Vector_2" d="M33.266 29.1329L28.1875 24.1754V23.8244L33.2721 18.8669L33.386 18.9314L39.4075 22.2719C41.126 23.2199 41.126 24.7799 39.4075 25.7339L33.386 29.0684L33.266 29.1329Z" fill="url(#paint1_linear_11439_378)"/>
<path id="Vector_3" d="M33.3837 29.0685L28.1853 24L12.8438 38.9595C13.4145 39.5445 14.3453 39.615 15.4037 39.03L33.3837 29.0685Z" fill="url(#paint2_linear_11439_378)"/>
<path id="Vector_4" d="M33.3837 18.9315L15.4037 8.97C14.3453 8.391 13.4145 8.4615 12.8438 9.0465L28.1853 24L33.3837 18.9315Z" fill="url(#paint3_linear_11439_378)"/>
</g>
<g id="GET IT ON">
<path id="G" d="M58.3591 12.2924C58.3591 13.2944 58.0515 14.0969 57.4453 14.6954C56.7484 15.4049 55.8407 15.7619 54.7284 15.7619C53.6653 15.7619 52.7576 15.3989 52.013 14.6834C51.2668 13.9574 50.8945 13.0664 50.8945 11.9999C50.8945 10.9334 51.2668 10.0424 52.013 9.32242C52.7576 8.60092 53.6653 8.23792 54.7284 8.23792C55.2576 8.23792 55.7622 8.34442 56.2438 8.54242C56.7238 8.74192 57.1145 9.01191 57.3976 9.34491L56.7545 9.97792C56.2607 9.40942 55.5884 9.12892 54.7284 9.12892C53.953 9.12892 53.2807 9.39291 52.7099 9.92541C52.1453 10.4594 51.8622 11.1509 51.8622 11.9999C51.8622 12.8489 52.1453 13.5464 52.7099 14.0804C53.2807 14.6069 53.953 14.8769 54.7284 14.8769C55.5515 14.8769 56.2438 14.6069 56.7899 14.0744C57.1499 13.7219 57.3545 13.2359 57.4084 12.6149H54.7284V11.7479H58.3038C58.3468 11.9354 58.3591 12.1169 58.3591 12.2924Z" fill="white" stroke="white" stroke-width="0.16" stroke-miterlimit="10"/>
<path id="E" d="M64.0319 9.28645H60.6734V11.5665H63.7011V12.4335H60.6734V14.7135H64.0319V15.597H59.7227V8.40295H64.0319V9.28645Z" fill="white" stroke="white" stroke-width="0.16" stroke-miterlimit="10"/>
<path id="T" d="M68.0342 15.597H67.0834V9.28645H65.0234V8.40295H70.0957V9.28645H68.0342V15.597Z" fill="white" stroke="white" stroke-width="0.16" stroke-miterlimit="10"/>
<path id="I" d="M73.7656 15.597V8.40295H74.7149V15.597H73.7656Z" fill="white" stroke="white" stroke-width="0.16" stroke-miterlimit="10"/>
<path id="T_2" d="M78.9248 15.597H77.9817V9.28645H75.9141V8.40295H80.9925V9.28645H78.9248V15.597Z" fill="white" stroke="white" stroke-width="0.16" stroke-miterlimit="10"/>
<path id="O" d="M90.5929 14.6714C89.8652 15.3989 88.9637 15.7619 87.8883 15.7619C86.8068 15.7619 85.9052 15.3989 85.1775 14.6714C84.4514 13.9454 84.0898 13.0544 84.0898 11.9999C84.0898 10.9454 84.4514 10.0544 85.1775 9.32842C85.9052 8.60092 86.8068 8.23792 87.8883 8.23792C88.9575 8.23792 89.8591 8.60091 90.5868 9.33441C91.3191 10.0664 91.6806 10.9514 91.6806 11.9999C91.6806 13.0544 91.3191 13.9454 90.5929 14.6714ZM85.8806 14.0684C86.4283 14.6069 87.0945 14.8769 87.8883 14.8769C88.676 14.8769 89.3483 14.6069 89.8898 14.0684C90.436 13.5299 90.7129 12.8384 90.7129 11.9999C90.7129 11.1614 90.436 10.4699 89.8898 9.93142C89.3483 9.39292 88.676 9.12292 87.8883 9.12292C87.0945 9.12292 86.4283 9.39292 85.8806 9.93142C85.3345 10.4699 85.0575 11.1614 85.0575 11.9999C85.0575 12.8384 85.3345 13.5299 85.8806 14.0684Z" fill="white" stroke="white" stroke-width="0.16" stroke-miterlimit="10"/>
<path id="N" d="M93.0156 15.597V8.40295H94.1695L97.7572 13.998H97.7987L97.7572 12.615V8.40295H98.7064V15.597H97.7156L93.9587 9.72595H93.9172L93.9587 11.115V15.597H93.0156Z" fill="white" stroke="white" stroke-width="0.16" stroke-miterlimit="10"/>
</g>
<g id="Google Play">
<path id="Google Play_2" d="M83.8594 26.1031C80.9686 26.1031 78.6071 28.2481 78.6071 31.2076C78.6071 34.1431 80.9686 36.3106 83.8594 36.3106C86.7563 36.3106 89.1179 34.1431 89.1179 31.2076C89.1179 28.2481 86.7563 26.1031 83.8594 26.1031ZM83.8594 34.3006C82.2732 34.3006 80.9086 33.0241 80.9086 31.2076C80.9086 29.3671 82.2732 28.1131 83.8594 28.1131C85.4456 28.1131 86.8163 29.3671 86.8163 31.2076C86.8163 33.0241 85.4456 34.3006 83.8594 34.3006ZM72.3994 26.1031C69.5025 26.1031 67.1471 28.2481 67.1471 31.2076C67.1471 34.1431 69.5025 36.3106 72.3994 36.3106C75.2948 36.3106 77.6517 34.1431 77.6517 31.2076C77.6517 28.2481 75.2948 26.1031 72.3994 26.1031ZM72.3994 34.3006C70.8117 34.3006 69.4425 33.0241 69.4425 31.2076C69.4425 29.3671 70.8117 28.1131 72.3994 28.1131C73.9856 28.1131 75.3502 29.3671 75.3502 31.2076C75.3502 33.0241 73.9856 34.3006 72.3994 34.3006ZM58.7625 27.6676V29.8366H64.0748C63.9194 31.0486 63.504 31.9396 62.8671 32.5606C62.0917 33.3106 60.884 34.1431 58.7625 34.1431C55.4933 34.1431 52.9333 31.5706 52.9333 28.3831C52.9333 25.1956 55.4933 22.6231 58.7625 22.6231C60.5302 22.6231 61.8163 23.2966 62.7656 24.1696L64.3333 22.6411C63.0056 21.4051 61.2394 20.4556 58.7625 20.4556C54.2794 20.4556 50.5117 24.0121 50.5117 28.3831C50.5117 32.7541 54.2794 36.3106 58.7625 36.3106C61.1856 36.3106 63.0056 35.5366 64.4363 34.0846C65.9025 32.6551 66.3594 30.6451 66.3594 29.0221C66.3594 28.5181 66.3163 28.0546 66.2394 27.6676H58.7625ZM114.526 29.3491C114.093 28.2076 112.759 26.1031 110.042 26.1031C107.35 26.1031 105.109 28.1716 105.109 31.2076C105.109 34.0666 107.327 36.3106 110.301 36.3106C112.706 36.3106 114.093 34.8811 114.664 34.0486L112.879 32.8891C112.284 33.7381 111.473 34.3006 110.301 34.3006C109.136 34.3006 108.301 33.7801 107.766 32.7541L114.767 29.9296L114.526 29.3491ZM107.387 31.0486C107.327 29.0806 108.955 28.0726 110.121 28.0726C111.035 28.0726 111.81 28.5181 112.069 29.1556L107.387 31.0486ZM101.696 36.0001H103.998V21.0001H101.696V36.0001ZM97.9271 27.2401H97.8502C97.3332 26.6431 96.3471 26.1031 95.0979 26.1031C92.4763 26.1031 90.0794 28.3471 90.0794 31.2241C90.0794 34.0846 92.4763 36.3106 95.0979 36.3106C96.3471 36.3106 97.3332 35.7661 97.8502 35.1511H97.9271V35.8831C97.9271 37.8346 96.8579 38.8831 95.1332 38.8831C93.7271 38.8831 92.8548 37.8931 92.4948 37.0606L90.4932 37.8751C91.0702 39.2281 92.5979 40.8931 95.1332 40.8931C97.8317 40.8931 100.109 39.3451 100.109 35.5786V26.4136H97.9271V27.2401ZM95.2948 34.3006C93.7086 34.3006 92.3809 33.0061 92.3809 31.2241C92.3809 29.4256 93.7086 28.1131 95.2948 28.1131C96.8579 28.1131 98.0902 29.4256 98.0902 31.2241C98.0902 33.0061 96.8579 34.3006 95.2948 34.3006ZM125.301 21.0001H119.796V36.0001H122.092V30.3166H125.301C127.85 30.3166 130.35 28.5181 130.35 25.6576C130.35 22.7986 127.844 21.0001 125.301 21.0001ZM125.361 28.2301H122.092V23.0866H125.361C127.075 23.0866 128.053 24.4741 128.053 25.6576C128.053 26.8186 127.075 28.2301 125.361 28.2301ZM139.55 26.0746C137.892 26.0746 136.167 26.7886 135.458 28.3711L137.495 29.2036C137.933 28.3711 138.739 28.1011 139.592 28.1011C140.782 28.1011 141.99 28.7986 142.009 30.0301V30.1876C141.593 29.9536 140.704 29.6071 139.61 29.6071C137.416 29.6071 135.181 30.7846 135.181 32.9821C135.181 34.9921 136.978 36.2866 138.998 36.2866C140.542 36.2866 141.395 35.6071 141.93 34.8166H142.009V35.9761H144.226V30.2221C144.226 27.5626 142.189 26.0746 139.55 26.0746ZM139.273 34.2946C138.522 34.2946 137.476 33.9316 137.476 33.0241C137.476 31.8631 138.781 31.4176 139.91 31.4176C140.921 31.4176 141.395 31.6351 142.009 31.9216C141.829 33.3106 140.602 34.2946 139.273 34.2946ZM152.302 26.4031L149.664 32.9056H149.586L146.858 26.4031H144.382L148.481 35.4901L146.142 40.5466H148.541L154.856 26.4031H152.302ZM131.612 36.0001H133.913V21.0001H131.612V36.0001Z" fill="white"/>
</g>
</g>
<defs>
<linearGradient id="paint0_linear_11439_378" x1="26.8315" y1="37.5484" x2="6.69909" y2="16.8998" gradientUnits="userSpaceOnUse">
<stop stop-color="#00A0FF"/>
<stop offset="0.0066" stop-color="#00A1FF"/>
<stop offset="0.2601" stop-color="#00BEFF"/>
<stop offset="0.5122" stop-color="#00D2FF"/>
<stop offset="0.7604" stop-color="#00DFFF"/>
<stop offset="1" stop-color="#00E3FF"/>
</linearGradient>
<linearGradient id="paint1_linear_11439_378" x1="41.6452" y1="23.9983" x2="11.8644" y2="23.9983" gradientUnits="userSpaceOnUse">
<stop stop-color="#FFE000"/>
<stop offset="0.4087" stop-color="#FFBD00"/>
<stop offset="0.7754" stop-color="#FFA500"/>
<stop offset="1" stop-color="#FF9C00"/>
</linearGradient>
<linearGradient id="paint2_linear_11439_378" x1="30.557" y1="21.2447" x2="3.25577" y2="-6.75659" gradientUnits="userSpaceOnUse">
<stop stop-color="#FF3A44"/>
<stop offset="1" stop-color="#C31162"/>
</linearGradient>
<linearGradient id="paint3_linear_11439_378" x1="8.98197" y1="47.7886" x2="21.1732" y2="35.2849" gradientUnits="userSpaceOnUse">
<stop stop-color="#32A071"/>
<stop offset="0.0685" stop-color="#2DA771"/>
<stop offset="0.4762" stop-color="#15CF74"/>
<stop offset="0.8009" stop-color="#06E775"/>
<stop offset="1" stop-color="#00F076"/>
</linearGradient>
</defs>
</svg>
