<svg width="26" height="29" viewBox="0 0 26 29" fill="none" xmlns="http://www.w3.org/2000/svg">
<g clip-path="url(#clip0_112_8545)">
<path d="M16.1255 8.83857L1.01173 0.0808099C0.821813 -0.0309912 0.582884 -0.02478 0.399093 0.0870211C0.209175 0.198822 0.0927734 0.39758 0.0927734 0.621182C0.0927734 0.621182 0.0988998 1.42863 0.105026 2.75783L11.1141 13.9193L16.1255 8.83857Z" fill="url(#paint0_linear_112_8545)"/>
<path d="M0.105469 2.75781C0.123848 7.55285 0.178985 19.1926 0.203491 24.9877L11.1207 13.9193L0.105469 2.75781Z" fill="url(#paint1_linear_112_8545)"/>
<path d="M24.7764 13.8513L16.1259 8.83887L11.1084 13.9196L16.7692 19.6587L24.7825 14.9258C24.9724 14.814 25.0888 14.6091 25.0888 14.3917C25.0888 14.1681 24.9663 13.9631 24.7764 13.8513V13.8513Z" fill="url(#paint2_linear_112_8545)"/>
<path d="M0.197266 24.9879C0.209518 27.0562 0.215645 28.3792 0.215645 28.3792C0.215645 28.6028 0.332046 28.8078 0.521964 28.9134C0.711882 29.0252 0.944685 29.0252 1.1346 28.9134L16.7753 19.6649L11.1145 13.9258L0.197266 24.9879Z" fill="url(#paint3_linear_112_8545)"/>
</g>
<defs>
<linearGradient id="paint0_linear_112_8545" x1="0.0927734" y1="6.96242" x2="16.1283" y2="6.96242" gradientUnits="userSpaceOnUse">
<stop stop-color="#63BE6B"/>
<stop offset="0.506" stop-color="#5BBC6A"/>
<stop offset="1" stop-color="#4AB96A"/>
</linearGradient>
<linearGradient id="paint1_linear_112_8545" x1="0.102528" y1="13.8754" x2="11.1143" y2="13.8754" gradientUnits="userSpaceOnUse">
<stop stop-color="#3EC6F2"/>
<stop offset="1" stop-color="#45AFE3"/>
</linearGradient>
<linearGradient id="paint2_linear_112_8545" x1="11.1143" y1="14.2528" x2="25.0873" y2="14.2528" gradientUnits="userSpaceOnUse">
<stop stop-color="#FAA51A"/>
<stop offset="0.387" stop-color="#FAB716"/>
<stop offset="0.741" stop-color="#FAC412"/>
<stop offset="1" stop-color="#FAC80F"/>
</linearGradient>
<linearGradient id="paint3_linear_112_8545" x1="0.199961" y1="21.4613" x2="16.775" y2="21.4613" gradientUnits="userSpaceOnUse">
<stop stop-color="#EC3B50"/>
<stop offset="1" stop-color="#E7515B"/>
</linearGradient>
<clipPath id="clip0_112_8545">
<rect width="25" height="29" fill="white" transform="translate(0.0908203)"/>
</clipPath>
</defs>
</svg>
