<svg width="21" height="21" viewBox="0 0 21 21" fill="none" xmlns="http://www.w3.org/2000/svg">
<path d="M6.2583 2.60156H15.1045V4.81115H6.2583V2.60156Z" fill="#EFEFEF"/>
<path d="M18.4231 5.91992H2.94024C2.33084 5.91992 1.83545 6.41924 1.83545 7.02471V12.5526C1.83545 13.162 2.33477 13.6574 2.94024 13.6574H6.25855V18.0805H15.1047V13.6613H18.4231C19.0325 13.6613 19.5278 13.162 19.5278 12.5565V7.02471C19.5278 6.41924 19.0285 5.91992 18.4231 5.91992ZM4.04503 9.23823C3.43563 9.23823 2.94024 8.74284 2.94024 8.13344C2.94024 7.52403 3.43563 7.02865 4.04503 7.02865C4.65444 7.02865 5.14982 7.52403 5.14982 8.13344C5.14982 8.74284 4.65837 9.23823 4.04503 9.23823ZM14 16.9796H7.36334V11.4478H14V16.9796Z" fill="#EFEFEF"/>
</svg>
