<svg width="18" height="18" viewBox="0 0 18 18" fill="none" xmlns="http://www.w3.org/2000/svg">
<path d="M5.50934 2.64465H12.7908V4.46341H5.50934V2.64465Z" fill="white"/>
<path d="M15.5224 5.37598H2.77815C2.27654 5.37598 1.86877 5.78698 1.86877 6.28536V10.8355C1.86877 11.3371 2.27977 11.7449 2.77815 11.7449H5.50952V15.3856H12.791V11.7481H15.5224C16.024 11.7481 16.4318 11.3371 16.4318 10.8387V6.28536C16.4318 5.78698 16.0208 5.37598 15.5224 5.37598ZM3.68753 8.10735C3.18592 8.10735 2.77815 7.69958 2.77815 7.19797C2.77815 6.69635 3.18592 6.28859 3.68753 6.28859C4.18915 6.28859 4.59691 6.69635 4.59691 7.19797C4.59691 7.69958 4.19238 8.10735 3.68753 8.10735ZM11.8816 14.4795H6.4189V9.9261H11.8816V14.4795Z" fill="white"/>
</svg>
