<svg width="24" height="24" viewBox="0 0 24 24" fill="none" xmlns="http://www.w3.org/2000/svg">
<path d="M14 1.99988V1.49988C13.7239 1.49988 13.5 1.72374 13.5 1.99988H14ZM22 1.99988H22.5C22.5 1.72374 22.2761 1.49988 22 1.49988V1.99988ZM22 9.99988V10.4999C22.2761 10.4999 22.5 10.276 22.5 9.99988H22ZM14 9.99988H13.5C13.5 10.276 13.7239 10.4999 14 10.4999V9.99988ZM17.95 5.49988H17.45V6.49988H17.95V5.49988ZM18.05 6.49988H18.55V5.49988H18.05V6.49988ZM2 1.99988V1.49988C1.72386 1.49988 1.5 1.72374 1.5 1.99988H2ZM10 1.99988H10.5C10.5 1.72374 10.2761 1.49988 10 1.49988V1.99988ZM10 9.99988V10.4999C10.2761 10.4999 10.5 10.276 10.5 9.99988H10ZM2 9.99988H1.5C1.5 10.276 1.72386 10.4999 2 10.4999V9.99988ZM5.95001 5.49988H5.45001V6.49988H5.95001V5.49988ZM6.05001 6.49988H6.55001V5.49988H6.05001V6.49988ZM2 13.9999V13.4999C1.72386 13.4999 1.5 13.7237 1.5 13.9999H2ZM10 13.9999H10.5C10.5 13.7237 10.2761 13.4999 10 13.4999V13.9999ZM10 21.9999V22.4999C10.2761 22.4999 10.5 22.276 10.5 21.9999H10ZM2 21.9999H1.5C1.5 22.276 1.72386 22.4999 2 22.4999V21.9999ZM5.95001 17.4999H5.45001V18.4999H5.95001V17.4999ZM6.05001 18.4999H6.55001V17.4999H6.05001V18.4999ZM22 21.9999V22.4999H22.5V21.9999H22ZM14 13.9999V13.4999H13.5V13.9999H14ZM17.95 17.4999H17.45V18.4999H17.95V17.4999ZM18.05 18.4999H18.55V17.4999H18.05V18.4999ZM14 2.49988H22V1.49988H14V2.49988ZM21.5 1.99988V9.99988H22.5V1.99988H21.5ZM22 9.49988H14V10.4999H22V9.49988ZM14.5 9.99988V1.99988H13.5V9.99988H14.5ZM17.95 6.49988H18.05V5.49988H17.95V6.49988ZM2 2.49988H10V1.49988H2V2.49988ZM9.5 1.99988V9.99988H10.5V1.99988H9.5ZM10 9.49988H2V10.4999H10V9.49988ZM2.5 9.99988V1.99988H1.5V9.99988H2.5ZM5.95001 6.49988H6.05001V5.49988H5.95001V6.49988ZM2 14.4999H10V13.4999H2V14.4999ZM9.5 13.9999V21.9999H10.5V13.9999H9.5ZM10 21.4999H2V22.4999H10V21.4999ZM2.5 21.9999V13.9999H1.5V21.9999H2.5ZM5.95001 18.4999H6.05001V17.4999H5.95001V18.4999ZM21.5 17.9999V21.9999H22.5V17.9999H21.5ZM22 21.4999H18V22.4999H22V21.4999ZM14 14.4999H18V13.4999H14V14.4999ZM14.5 17.9999V13.9999H13.5V17.9999H14.5ZM17.95 18.4999H18.05V17.4999H17.95V18.4999Z" fill="#111111"/>
</svg>
