<svg width="16" height="16" viewBox="0 0 16 16" fill="none" xmlns="http://www.w3.org/2000/svg">
    <g id="Icon/Outline/share">
        <path id="Icon (Stroke)" fill-rule="evenodd" clip-rule="evenodd"
            d="M12.0003 2.33329C11.0799 2.33329 10.3337 3.07948 10.3337 3.99996C10.3337 4.26854 10.3969 4.52138 10.5091 4.74528C10.7831 5.29229 11.3483 5.66663 12.0003 5.66663C12.9208 5.66663 13.667 4.92043 13.667 3.99996C13.667 3.07948 12.9208 2.33329 12.0003 2.33329ZM9.66699 3.99996C9.66699 2.71129 10.7117 1.66663 12.0003 1.66663C13.289 1.66663 14.3337 2.71129 14.3337 3.99996C14.3337 5.28862 13.289 6.33329 12.0003 6.33329C11.206 6.33329 10.5048 5.93633 10.0837 5.33097L6.21548 7.26506C6.29218 7.49637 6.33366 7.74355 6.33366 7.99996C6.33366 8.25637 6.29218 8.50355 6.21548 8.73486L10.0837 10.669C10.5048 10.0636 11.206 9.66663 12.0003 9.66663C13.289 9.66663 14.3337 10.7113 14.3337 12C14.3337 13.2886 13.289 14.3333 12.0003 14.3333C10.7117 14.3333 9.66699 13.2886 9.66699 12C9.66699 11.7435 9.70847 11.4964 9.78517 11.2651L5.91698 9.33097C5.49582 9.93633 4.79466 10.3333 4.00033 10.3333C2.71166 10.3333 1.66699 9.28862 1.66699 7.99996C1.66699 6.71129 2.71166 5.66663 4.00033 5.66663C4.79466 5.66663 5.49582 6.06359 5.91698 6.66895L9.78517 4.73486C9.70847 4.50355 9.66699 4.25637 9.66699 3.99996ZM4.00033 6.33329C3.07985 6.33329 2.33366 7.07948 2.33366 7.99996C2.33366 8.92043 3.07985 9.66663 4.00033 9.66663C4.65233 9.66663 5.21751 9.29229 5.49154 8.74528C5.60371 8.52138 5.66699 8.26854 5.66699 7.99996C5.66699 7.73138 5.60371 7.47853 5.49154 7.25464C5.21751 6.70763 4.65233 6.33329 4.00033 6.33329ZM12.0003 10.3333C11.3483 10.3333 10.7831 10.7076 10.5091 11.2546C10.3969 11.4785 10.3337 11.7314 10.3337 12C10.3337 12.9204 11.0799 13.6666 12.0003 13.6666C12.9208 13.6666 13.667 12.9204 13.667 12C13.667 11.0795 12.9208 10.3333 12.0003 10.3333Z"
            fill="white" />
    </g>
</svg>