<svg width="24" height="24" viewBox="0 0 24 24" fill="none" xmlns="http://www.w3.org/2000/svg">
<path fill-rule="evenodd" clip-rule="evenodd" d="M18 16C19.657 16 21 17.343 21 19C21 20.657 19.657 22 18 22C16.343 22 15 20.657 15 19C15 17.343 16.343 16 18 16ZM6 9C7.657 9 9 10.343 9 12C9 13.657 7.657 15 6 15C4.343 15 3 13.657 3 12C3 10.343 4.343 9 6 9ZM18 2C19.657 2 21 3.343 21 5C21 6.657 19.657 8 18 8C16.343 8 15 6.657 15 5C15 3.343 16.343 2 18 2ZM8.59 13.51L15.42 17.49L8.59 13.51ZM15.41 6.51L8.59 10.49L15.41 6.51Z" stroke="#111111" stroke-linecap="square"/>
</svg>
