<svg width="490" height="206" viewBox="0 0 490 206" fill="none" xmlns="http://www.w3.org/2000/svg">
<path d="M253.942 117.865V176.135L203.558 205.268L203.557 205.269L152.501 234.691L101.443 264.114L101.442 264.115L50.5571 293.538L50.0577 293.827V293.999L1 322.27V206.712L51.557 177.578L51.5583 177.577L102.442 148.155L102.443 148.154L153.499 118.732L153.501 118.731L204.558 89.1349L204.559 89.1344L255.443 59.7119L255.942 59.4231V58.8462V1.73043L305.501 30.2895L356.558 59.7126L407.613 89.1337L407.616 89.1357L458.497 118.73L458.501 118.732L509.058 147.866V263.25L459.501 234.692L459.499 234.691L408.616 205.269L408.615 205.268L357.557 175.845L306.499 146.422L255.442 116.999L253.942 116.135V117.865Z" stroke="#FFCC00" stroke-width="2"/>
</svg>
