<svg width="308" height="162" viewBox="0 0 308 162" fill="none" xmlns="http://www.w3.org/2000/svg">
<path d="M53.1153 44.1346L53.1153 -14.1347L103.499 -43.2682L103.501 -43.2689L154.557 -72.6913L205.615 -102.114L205.616 -102.115L256.501 -131.538L257 -131.827L257 -131.999L306.058 -160.27L306.058 -44.7125L255.501 -15.578L255.499 -15.5772L204.616 13.8451L204.615 13.8458L153.558 43.2682L153.556 43.2694L102.499 72.8651L102.498 72.8656L51.6148 102.288L51.1153 102.577L51.1153 103.154L51.1153 160.27L1.55692 131.71L-49.5008 102.287L-100.555 72.8663L-100.558 72.8643L-151.44 43.2701L-151.443 43.2681L-202 14.1336L-202 -101.25L-152.443 -72.6921L-152.442 -72.6913L-101.558 -43.269L-101.557 -43.2682L-50.4993 -13.8452L0.558332 15.5779L51.616 45.001L53.1153 45.865L53.1153 44.1346Z" stroke="#FFCC00" stroke-width="2"/>
</svg>
