<svg width="26" height="26" viewBox="0 0 26 26" fill="none" xmlns="http://www.w3.org/2000/svg">
<path d="M4.86824 4.1612C4.67298 3.96594 4.35639 3.96594 4.16113 4.1612C3.96587 4.35646 3.96587 4.67305 4.16113 4.86831L4.86824 4.1612ZM5.85819 6.56537C6.05345 6.76063 6.37003 6.76063 6.56529 6.56537C6.76056 6.3701 6.76056 6.05352 6.56529 5.85826L5.85819 6.56537ZM20.1417 19.4347C19.9465 19.2394 19.6299 19.2394 19.4346 19.4347C19.2394 19.63 19.2394 19.9466 19.4346 20.1418L20.1417 19.4347ZM21.1317 21.8389C21.327 22.0341 21.6435 22.0341 21.8388 21.8389C22.0341 21.6436 22.0341 21.327 21.8388 21.1318L21.1317 21.8389ZM19.4346 5.85826C19.2394 6.05352 19.2394 6.3701 19.4346 6.56537C19.6299 6.76063 19.9465 6.76063 20.1418 6.56537L19.4346 5.85826ZM21.8388 4.86831C22.0341 4.67305 22.0341 4.35646 21.8388 4.1612C21.6436 3.96594 21.327 3.96594 21.1317 4.1612L21.8388 4.86831ZM4.16116 21.1317C3.9659 21.327 3.9659 21.6436 4.16116 21.8389C4.35642 22.0341 4.673 22.0341 4.86827 21.8389L4.16116 21.1317ZM6.56532 20.1418C6.76059 19.9465 6.76059 19.63 6.56532 19.4347C6.37006 19.2394 6.05348 19.2394 5.85822 19.4347L6.56532 20.1418ZM13.5 1C13.5 0.723858 13.2761 0.5 13 0.5C12.7238 0.5 12.5 0.723858 12.5 1H13.5ZM12.5 3.4C12.5 3.67614 12.7238 3.9 13 3.9C13.2761 3.9 13.5 3.67614 13.5 3.4H12.5ZM13.5 22.6C13.5 22.3239 13.2761 22.1 13 22.1C12.7238 22.1 12.5 22.3239 12.5 22.6H13.5ZM12.5 25C12.5 25.2761 12.7238 25.5 13 25.5C13.2761 25.5 13.5 25.2761 13.5 25H12.5ZM22.6 12.5C22.3238 12.5 22.1 12.7239 22.1 13C22.1 13.2761 22.3238 13.5 22.6 13.5V12.5ZM25 13.5C25.2761 13.5 25.5 13.2762 25.5 13C25.5 12.7239 25.2761 12.5 25 12.5V13.5ZM1 12.5C0.723858 12.5 0.5 12.7239 0.5 13C0.5 13.2761 0.723858 13.5 1 13.5V12.5ZM3.4 13.5C3.67614 13.5 3.9 13.2761 3.9 13C3.9 12.7239 3.67614 12.5 3.4 12.5V13.5ZM4.16113 4.86831L5.85819 6.56537L6.56529 5.85826L4.86824 4.1612L4.16113 4.86831ZM19.4346 20.1418L21.1317 21.8389L21.8388 21.1318L20.1417 19.4347L19.4346 20.1418ZM20.1418 6.56537L21.8388 4.86831L21.1317 4.1612L19.4346 5.85826L20.1418 6.56537ZM4.86827 21.8389L6.56532 20.1418L5.85822 19.4347L4.16116 21.1317L4.86827 21.8389ZM12.5 1V3.4H13.5V1H12.5ZM12.5 22.6L12.5 25H13.5L13.5 22.6H12.5ZM22.6 13.5L25 13.5V12.5L22.6 12.5V13.5ZM1 13.5H3.4V12.5H1V13.5Z" fill="#121212"/>
<path d="M8 13C8 10.2386 10.2386 8 13 8C15.7614 8 18 10.2386 18 13C18 15.7614 15.7614 18 13 18C10.2386 18 8 15.7614 8 13Z" stroke="#121212"/>
</svg>
