<svg width="" height="180" viewBox="0 0 1317 180" fill="none" xmlns="http://www.w3.org/2000/svg">
    <path
        d="M0.575828 32.8807V2.45454H143.928V32.8807H90.4906V177H54.0133V32.8807H0.575828ZM159.136 177V2.45454H276.75V32.8807H196.039V74.4716H270.699V104.898H196.039V146.574H277.091V177H159.136ZM297.689 177V2.45454H366.553C379.735 2.45454 390.985 4.8125 400.303 9.52841C409.678 14.1875 416.809 20.8068 421.695 29.3864C426.638 37.9091 429.11 47.9375 429.11 59.4716C429.11 71.0625 426.61 81.0341 421.61 89.3864C416.61 97.6818 409.365 104.045 399.877 108.477C390.445 112.909 379.024 115.125 365.615 115.125H319.507V85.4659H359.649C366.695 85.4659 372.547 84.5 377.206 82.5682C381.865 80.6364 385.331 77.7386 387.604 73.875C389.934 70.0114 391.098 65.2102 391.098 59.4716C391.098 53.6761 389.934 48.7898 387.604 44.8125C385.331 40.8352 381.837 37.8239 377.121 35.7784C372.462 33.6761 366.581 32.625 359.479 32.625H334.593V177H297.689ZM391.951 97.5682L435.331 177H394.593L352.149 97.5682H391.951ZM446.789 2.45454H492.301L540.369 119.727H542.414L590.482 2.45454H635.994V177H600.198V63.392H598.749L553.579 176.148H529.204L484.033 62.9659H482.585V177H446.789V2.45454ZM694.902 2.45454V177H657.999V2.45454H694.902ZM862.859 2.45454V177H830.983L755.046 67.142H753.768V177H716.864V2.45454H749.251L824.591 112.227H826.126V2.45454H862.859ZM915.034 177H875.488L935.744 2.45454H983.301L1043.47 177H1003.93L960.204 42.3409H958.841L915.034 177ZM912.562 108.392H1005.97V137.199H912.562V108.392ZM1056.08 177V2.45454H1092.98V146.574H1167.81V177H1056.08ZM1278.54 52.6534C1277.86 45.7784 1274.93 40.4375 1269.76 36.6307C1264.59 32.8239 1257.57 30.9204 1248.71 30.9204C1242.69 30.9204 1237.6 31.7727 1233.45 33.4773C1229.31 35.125 1226.12 37.4261 1223.91 40.3807C1221.75 43.3352 1220.67 46.6875 1220.67 50.4375C1220.56 53.5625 1221.21 56.2898 1222.63 58.6193C1224.11 60.9489 1226.12 62.9659 1228.68 64.6705C1231.24 66.3182 1234.19 67.767 1237.54 69.017C1240.9 70.2102 1244.48 71.233 1248.28 72.0852L1263.97 75.8352C1271.58 77.5398 1278.57 79.8125 1284.93 82.6534C1291.29 85.4943 1296.81 88.9886 1301.47 93.1364C1306.12 97.2841 1309.73 102.17 1312.29 107.795C1314.9 113.42 1316.24 119.869 1316.29 127.142C1316.24 137.824 1313.51 147.085 1308.11 154.926C1302.77 162.71 1295.04 168.761 1284.93 173.08C1274.87 177.341 1262.74 179.472 1248.54 179.472C1234.45 179.472 1222.18 177.312 1211.72 172.994C1201.32 168.676 1193.2 162.284 1187.35 153.818C1181.55 145.295 1178.51 134.756 1178.23 122.199H1213.94C1214.33 128.051 1216.01 132.937 1218.97 136.858C1221.98 140.722 1225.98 143.648 1230.98 145.636C1236.04 147.568 1241.75 148.534 1248.11 148.534C1254.36 148.534 1259.79 147.625 1264.39 145.807C1269.05 143.989 1272.66 141.46 1275.22 138.222C1277.77 134.983 1279.05 131.261 1279.05 127.057C1279.05 123.136 1277.89 119.841 1275.56 117.17C1273.28 114.5 1269.93 112.227 1265.5 110.352C1261.12 108.477 1255.76 106.773 1249.39 105.239L1230.39 100.466C1215.67 96.8864 1204.05 91.2898 1195.53 83.6761C1187.01 76.0625 1182.77 65.8068 1182.83 52.9091C1182.77 42.3409 1185.58 33.108 1191.27 25.2102C1197.01 17.3125 1204.87 11.1477 1214.87 6.71591C1224.87 2.28409 1236.24 0.0681753 1248.97 0.0681753C1261.92 0.0681753 1273.23 2.28409 1282.89 6.71591C1292.6 11.1477 1300.16 17.3125 1305.56 25.2102C1310.95 33.108 1313.74 42.2557 1313.91 52.6534H1278.54Z"
        fill="#999999" />
</svg>