<svg width="1025" height="95" viewBox="0 0 1025 95" fill="none" xmlns="http://www.w3.org/2000/svg">
<path d="M82.22 49.3636C82.22 58.8807 80.416 66.9773 76.8081 73.6534C73.2285 80.3295 68.3422 85.429 62.149 88.9517C55.9842 92.446 49.0524 94.1932 41.3535 94.1932C33.5978 94.1932 26.6376 92.4318 20.4728 88.9091C14.3081 85.3864 9.43591 80.2869 5.85637 73.6108C2.27682 66.9347 0.487049 58.8523 0.487049 49.3636C0.487049 39.8466 2.27682 31.75 5.85637 25.0739C9.43591 18.3977 14.3081 13.3125 20.4728 9.81818C26.6376 6.29545 33.5978 4.53409 41.3535 4.53409C49.0524 4.53409 55.9842 6.29545 62.149 9.81818C68.3422 13.3125 73.2285 18.3977 76.8081 25.0739C80.416 31.75 82.22 39.8466 82.22 49.3636ZM63.5126 49.3636C63.5126 43.1989 62.5893 38 60.7427 33.767C58.9246 29.5341 56.3535 26.3239 53.0297 24.1364C49.7058 21.9489 45.8138 20.8551 41.3535 20.8551C36.8933 20.8551 33.0013 21.9489 29.6774 24.1364C26.3535 26.3239 23.7683 29.5341 21.9217 33.767C20.1035 38 19.1944 43.1989 19.1944 49.3636C19.1944 55.5284 20.1035 60.7273 21.9217 64.9602C23.7683 69.1932 26.3535 72.4034 29.6774 74.5909C33.0013 76.7784 36.8933 77.8722 41.3535 77.8722C45.8138 77.8722 49.7058 76.7784 53.0297 74.5909C56.3535 72.4034 58.9246 69.1932 60.7427 64.9602C62.5893 60.7273 63.5126 55.5284 63.5126 49.3636ZM133.322 65.1307V27.5455H151.475V93H134.046V81.1108H133.364C131.887 84.946 129.43 88.0284 125.992 90.358C122.583 92.6875 118.421 93.8523 113.507 93.8523C109.132 93.8523 105.282 92.858 101.958 90.8693C98.6344 88.8807 96.0349 86.054 94.1599 82.3892C92.3133 78.7244 91.3758 74.3352 91.3474 69.2216V27.5455H109.501V65.983C109.529 69.8466 110.566 72.9006 112.612 75.1449C114.657 77.3892 117.399 78.5114 120.836 78.5114C123.024 78.5114 125.069 78.0142 126.972 77.0199C128.876 75.9972 130.41 74.4915 131.575 72.5028C132.768 70.5142 133.35 68.0568 133.322 65.1307ZM161.796 93V27.5455H179.395V38.9659H180.077C181.27 34.9034 183.273 31.8352 186.086 29.7614C188.898 27.6591 192.137 26.608 195.802 26.608C196.711 26.608 197.691 26.6648 198.742 26.7784C199.793 26.892 200.716 27.0483 201.512 27.2472V43.3551C200.66 43.0994 199.481 42.8722 197.975 42.6733C196.469 42.4744 195.091 42.375 193.841 42.375C191.171 42.375 188.784 42.9574 186.682 44.1222C184.608 45.2585 182.961 46.8494 181.739 48.8949C180.546 50.9403 179.949 53.2983 179.949 55.9688V93H161.796ZM230.612 93V5.72727H265.044C271.663 5.72727 277.302 6.99148 281.961 9.51989C286.62 12.0199 290.171 15.5 292.615 19.9602C295.086 24.392 296.322 29.5057 296.322 35.3011C296.322 41.0966 295.072 46.2102 292.572 50.642C290.072 55.0739 286.45 58.5256 281.706 60.9972C276.99 63.4687 271.279 64.7045 264.575 64.7045H242.629V49.9176H261.592C265.143 49.9176 268.069 49.3068 270.37 48.0852C272.7 46.8352 274.433 45.1165 275.569 42.929C276.734 40.7131 277.316 38.1705 277.316 35.3011C277.316 32.4034 276.734 29.875 275.569 27.7159C274.433 25.5284 272.7 23.8381 270.37 22.6449C268.041 21.4233 265.086 20.8125 261.507 20.8125H249.063V93H230.612ZM384.306 49.3636C384.306 58.8807 382.502 66.9773 378.894 73.6534C375.314 80.3295 370.428 85.429 364.235 88.9517C358.07 92.446 351.138 94.1932 343.439 94.1932C335.684 94.1932 328.724 92.4318 322.559 88.9091C316.394 85.3864 311.522 80.2869 307.942 73.6108C304.363 66.9347 302.573 58.8523 302.573 49.3636C302.573 39.8466 304.363 31.75 307.942 25.0739C311.522 18.3977 316.394 13.3125 322.559 9.81818C328.724 6.29545 335.684 4.53409 343.439 4.53409C351.138 4.53409 358.07 6.29545 364.235 9.81818C370.428 13.3125 375.314 18.3977 378.894 25.0739C382.502 31.75 384.306 39.8466 384.306 49.3636ZM365.599 49.3636C365.599 43.1989 364.675 38 362.829 33.767C361.01 29.5341 358.439 26.3239 355.116 24.1364C351.792 21.9489 347.9 20.8551 343.439 20.8551C338.979 20.8551 335.087 21.9489 331.763 24.1364C328.439 26.3239 325.854 29.5341 324.008 33.767C322.189 38 321.28 43.1989 321.28 49.3636C321.28 55.5284 322.189 60.7273 324.008 64.9602C325.854 69.1932 328.439 72.4034 331.763 74.5909C335.087 76.7784 338.979 77.8722 343.439 77.8722C347.9 77.8722 351.792 76.7784 355.116 74.5909C358.439 72.4034 361.01 69.1932 362.829 64.9602C364.675 60.7273 365.599 55.5284 365.599 49.3636ZM441.118 30.8267C440.777 27.3892 439.314 24.7187 436.729 22.8153C434.144 20.9119 430.635 19.9602 426.203 19.9602C423.192 19.9602 420.649 20.3864 418.575 21.2386C416.502 22.0625 414.911 23.2131 413.803 24.6903C412.723 26.1676 412.183 27.8438 412.183 29.7188C412.127 31.2813 412.453 32.6449 413.163 33.8097C413.902 34.9744 414.911 35.983 416.189 36.8352C417.467 37.6591 418.945 38.3835 420.621 39.0085C422.297 39.6051 424.087 40.1165 425.99 40.5426L433.831 42.4176C437.638 43.2699 441.132 44.4062 444.314 45.8267C447.496 47.2472 450.252 48.9943 452.581 51.0682C454.911 53.142 456.715 55.5852 457.993 58.3977C459.3 61.2102 459.967 64.4347 459.996 68.071C459.967 73.4119 458.604 78.0426 455.905 81.9631C453.234 85.8551 449.371 88.8807 444.314 91.0398C439.286 93.1705 433.22 94.2358 426.118 94.2358C419.073 94.2358 412.936 93.1562 407.709 90.9972C402.51 88.8381 398.448 85.642 395.521 81.4091C392.624 77.1477 391.104 71.8778 390.962 65.5994H408.817C409.016 68.5256 409.854 70.9687 411.331 72.929C412.837 74.8608 414.84 76.3239 417.34 77.3182C419.868 78.2841 422.723 78.767 425.905 78.767C429.03 78.767 431.743 78.3125 434.044 77.4034C436.374 76.4943 438.178 75.2301 439.456 73.6108C440.734 71.9915 441.374 70.1307 441.374 68.0284C441.374 66.0682 440.791 64.4205 439.627 63.0852C438.49 61.75 436.814 60.6136 434.598 59.6761C432.411 58.7386 429.726 57.8864 426.544 57.1193L417.041 54.733C409.683 52.9432 403.874 50.1449 399.612 46.3381C395.351 42.5312 393.234 37.4034 393.263 30.9545C393.234 25.6705 394.641 21.054 397.482 17.1051C400.351 13.1562 404.286 10.0739 409.286 7.85795C414.286 5.64204 419.967 4.53409 426.331 4.53409C432.808 4.53409 438.462 5.64204 443.291 7.85795C448.149 10.0739 451.928 13.1562 454.627 17.1051C457.325 21.054 458.717 25.6278 458.803 30.8267H441.118ZM488.457 20.9403V5.72727H560.133V20.9403H533.414V93H515.175V20.9403H488.457ZM587.733 94.2784C581 94.2784 575.205 92.9148 570.347 90.1875C565.517 87.4318 561.796 83.5398 559.182 78.5114C556.568 73.4545 555.262 67.4744 555.262 60.571C555.262 53.8381 556.568 47.929 559.182 42.8438C561.796 37.7585 565.475 33.7955 570.219 30.9545C574.992 28.1136 580.588 26.6932 587.009 26.6932C591.327 26.6932 595.347 27.3892 599.068 28.7812C602.818 30.1449 606.086 32.2045 608.87 34.9602C611.682 37.7159 613.87 41.1818 615.432 45.358C616.995 49.5057 617.776 54.3636 617.776 59.9318V64.9176H562.506V53.6676H600.688C600.688 51.054 600.12 48.7386 598.983 46.7216C597.847 44.7045 596.27 43.1278 594.253 41.9915C592.264 40.8267 589.949 40.2443 587.307 40.2443C584.551 40.2443 582.108 40.8835 579.978 42.1619C577.875 43.4119 576.228 45.1023 575.034 47.233C573.841 49.3352 573.23 51.679 573.202 54.2642V64.9602C573.202 68.1989 573.799 70.9972 574.992 73.3551C576.213 75.7131 577.932 77.5312 580.148 78.8097C582.364 80.0881 584.992 80.7273 588.032 80.7273C590.049 80.7273 591.895 80.4432 593.571 79.875C595.247 79.3068 596.682 78.4545 597.875 77.3182C599.068 76.1818 599.978 74.7898 600.603 73.142L617.392 74.25C616.54 78.2841 614.793 81.8068 612.151 84.8182C609.537 87.8011 606.157 90.1307 602.009 91.8068C597.889 93.4545 593.131 94.2784 587.733 94.2784ZM625.422 93V27.5455H643.022V38.9659H643.704C644.897 34.9034 646.9 31.8352 649.712 29.7614C652.525 27.6591 655.763 26.608 659.428 26.608C660.337 26.608 661.317 26.6648 662.368 26.7784C663.42 26.892 664.343 27.0483 665.138 27.2472V43.3551C664.286 43.0994 663.107 42.8722 661.601 42.6733C660.096 42.4744 658.718 42.375 657.468 42.375C654.797 42.375 652.411 42.9574 650.309 44.1222C648.235 45.2585 646.587 46.8494 645.366 48.8949C644.172 50.9403 643.576 53.2983 643.576 55.9688V93H625.422ZM670.324 93V27.5455H687.625V39.0938H688.392C689.756 35.2585 692.029 32.233 695.21 30.017C698.392 27.8011 702.199 26.6932 706.631 26.6932C711.119 26.6932 714.94 27.8153 718.094 30.0597C721.247 32.2756 723.35 35.2869 724.401 39.0938H725.082C726.418 35.3438 728.832 32.3466 732.327 30.1023C735.85 27.8295 740.011 26.6932 744.813 26.6932C750.921 26.6932 755.878 28.6392 759.685 32.5312C763.52 36.3949 765.438 41.8778 765.438 48.9801V93H747.327V52.5597C747.327 48.9233 746.361 46.196 744.429 44.3778C742.497 42.5597 740.082 41.6506 737.185 41.6506C733.889 41.6506 731.318 42.7017 729.472 44.804C727.625 46.8778 726.702 49.6193 726.702 53.0284V93H709.102V52.1761C709.102 48.9659 708.179 46.4091 706.332 44.5057C704.514 42.6023 702.114 41.6506 699.131 41.6506C697.114 41.6506 695.296 42.1619 693.676 43.1847C692.085 44.179 690.821 45.5852 689.884 47.4034C688.946 49.1932 688.477 51.2955 688.477 53.7102V93H670.324ZM775.577 93V27.5455H793.73V93H775.577ZM784.696 19.108C781.998 19.108 779.682 18.2131 777.75 16.4233C775.847 14.6051 774.895 12.4318 774.895 9.90341C774.895 7.40341 775.847 5.25852 777.75 3.46875C779.682 1.65057 781.998 0.741473 784.696 0.741473C787.395 0.741473 789.696 1.65057 791.6 3.46875C793.532 5.25852 794.498 7.40341 794.498 9.90341C794.498 12.4318 793.532 14.6051 791.6 16.4233C789.696 18.2131 787.395 19.108 784.696 19.108ZM822.226 55.1591V93H804.072V27.5455H821.374V39.0938H822.141C823.589 35.2869 826.018 32.2756 829.428 30.0597C832.837 27.8153 836.97 26.6932 841.828 26.6932C846.374 26.6932 850.337 27.6875 853.717 29.6761C857.098 31.6648 859.726 34.5057 861.601 38.1989C863.476 41.8636 864.413 46.2386 864.413 51.3239V93H846.26V54.5625C846.288 50.5568 845.266 47.4318 843.192 45.1875C841.118 42.9148 838.263 41.7784 834.626 41.7784C832.183 41.7784 830.024 42.304 828.149 43.3551C826.303 44.4062 824.854 45.9403 823.803 47.9574C822.78 49.946 822.254 52.3466 822.226 55.1591ZM893.186 94.2358C889.01 94.2358 885.288 93.5114 882.021 92.0625C878.754 90.5852 876.169 88.4119 874.265 85.5426C872.39 82.6449 871.453 79.0369 871.453 74.7188C871.453 71.0824 872.12 68.0284 873.456 65.5568C874.791 63.0852 876.609 61.0966 878.91 59.5909C881.211 58.0852 883.825 56.9489 886.751 56.1818C889.706 55.4148 892.802 54.875 896.041 54.5625C899.848 54.1648 902.916 53.7955 905.245 53.4545C907.575 53.0852 909.265 52.5455 910.316 51.8352C911.367 51.125 911.893 50.0739 911.893 48.6818V48.4261C911.893 45.7273 911.041 43.6392 909.336 42.1619C907.66 40.6847 905.274 39.946 902.177 39.946C898.91 39.946 896.311 40.6705 894.379 42.1193C892.447 43.5398 891.169 45.3295 890.544 47.4886L873.754 46.125C874.606 42.1477 876.282 38.7102 878.782 35.8125C881.282 32.8864 884.507 30.642 888.456 29.0795C892.433 27.4886 897.035 26.6932 902.262 26.6932C905.899 26.6932 909.379 27.1193 912.703 27.9716C916.055 28.8239 919.024 30.1449 921.609 31.9347C924.223 33.7244 926.282 36.0256 927.788 38.8381C929.294 41.6222 930.046 44.9602 930.046 48.8523V93H912.831V83.9233H912.319C911.268 85.9688 909.862 87.7727 908.1 89.3352C906.339 90.8693 904.223 92.0767 901.751 92.9574C899.279 93.8097 896.424 94.2358 893.186 94.2358ZM898.385 81.7074C901.055 81.7074 903.413 81.1818 905.458 80.1307C907.504 79.0511 909.109 77.6023 910.274 75.7841C911.438 73.9659 912.021 71.9062 912.021 69.6051V62.6591C911.453 63.0284 910.671 63.3693 909.677 63.6818C908.711 63.9659 907.617 64.2358 906.396 64.4915C905.174 64.7187 903.953 64.9318 902.731 65.1307C901.51 65.3011 900.402 65.4574 899.407 65.5994C897.277 65.9119 895.416 66.4091 893.825 67.0909C892.234 67.7727 890.998 68.696 890.117 69.8608C889.237 70.9972 888.796 72.4176 888.796 74.1222C888.796 76.5938 889.691 78.483 891.481 79.7898C893.299 81.0682 895.6 81.7074 898.385 81.7074ZM958.084 5.72727V93H939.93V5.72727H958.084ZM1022.89 46.2102L1006.27 47.233C1005.98 45.8125 1005.37 44.5341 1004.43 43.3977C1003.5 42.233 1002.26 41.3097 1000.73 40.6278C999.221 39.9176 997.417 39.5625 995.315 39.5625C992.502 39.5625 990.13 40.1591 988.198 41.3523C986.266 42.517 985.301 44.0795 985.301 46.0398C985.301 47.6023 985.926 48.9233 987.176 50.0028C988.426 51.0824 990.57 51.9489 993.61 52.6023L1005.46 54.9886C1011.82 56.2955 1016.56 58.3977 1019.69 61.2955C1022.81 64.1932 1024.38 68 1024.38 72.7159C1024.38 77.0057 1023.11 80.7699 1020.58 84.0085C1018.08 87.2472 1014.65 89.7756 1010.27 91.5938C1005.93 93.3835 1000.91 94.2784 995.23 94.2784C986.565 94.2784 979.661 92.4744 974.519 88.8665C969.406 85.2301 966.408 80.2869 965.528 74.0369L983.383 73.0994C983.923 75.7415 985.23 77.7585 987.303 79.1506C989.377 80.5142 992.033 81.196 995.272 81.196C998.454 81.196 1001.01 80.5852 1002.94 79.3636C1004.9 78.1136 1005.9 76.5085 1005.93 74.5483C1005.9 72.9006 1005.2 71.5511 1003.84 70.5C1002.47 69.4205 1000.37 68.5966 997.531 68.0284L986.195 65.7699C979.803 64.4915 975.045 62.2756 971.92 59.1222C968.823 55.9687 967.275 51.9489 967.275 47.0625C967.275 42.858 968.411 39.2358 970.684 36.196C972.985 33.1562 976.21 30.8125 980.357 29.1648C984.533 27.517 989.42 26.6932 995.016 26.6932C1003.28 26.6932 1009.79 28.4403 1014.53 31.9347C1019.31 35.429 1022.09 40.1875 1022.89 46.2102Z" fill="#999999"/>
</svg>
