<svg width="61" height="18" viewBox="0 0 61 18" fill="none" xmlns="http://www.w3.org/2000/svg">
<mask id="path-1-inside-1_9_3204" fill="white">
<path fill-rule="evenodd" clip-rule="evenodd" d="M49.0908 8.56563L48.0081 6.85H47.9944L46.9117 5.13437L45.8291 3.41874L44.7464 1.70311L43.6638 0H39.3331L40.4158 1.70311L41.4985 3.41874L42.5811 5.13437L43.6638 6.85L44.7464 8.56563H46.9117L45.8291 10.2813L44.7464 11.9969L43.6638 13.7125L42.5811 15.4282L41.4985 17.1438H45.8291L46.9117 15.4282L48.0081 13.7125L49.0908 11.9969L50.1734 10.2813L51.2561 8.56563L52.3387 10.2813L53.4214 11.9969L54.5041 13.7125L55.5867 15.4282L56.6694 17.1438H61L59.9173 15.4282L58.8347 13.7125L57.752 11.9969L56.6694 10.2813L55.5867 8.56563H53.4214L54.5041 6.85L55.5867 5.13437L56.6694 3.41874L57.752 1.70311L58.8347 0H54.5041L53.4214 1.70311L52.3387 3.41874L51.2561 5.13437L50.1734 6.85L49.0908 8.56563ZM2.97388 0.375681H7.64713L10.5936 11.3833H10.7992L17.7337 0.375681H22.4069L19.4467 16.7681H15.7739L17.72 6.09863H17.5692L11.0047 16.693H8.48311L5.78331 6.06106H5.63256L3.67282 16.7681H0L2.97388 0.375681ZM25.6546 16.7682H21.5843L30.7664 0.375731H35.6589L38.8521 16.7682H34.7818L34.1423 13.0363H27.6703L25.6546 16.7682ZM32.6165 4.13259L33.6788 10.3314H29.1313L32.4794 4.13259H32.6165Z"/>
</mask>
<path fill-rule="evenodd" clip-rule="evenodd" d="M49.0908 8.56563L48.0081 6.85H47.9944L46.9117 5.13437L45.8291 3.41874L44.7464 1.70311L43.6638 0H39.3331L40.4158 1.70311L41.4985 3.41874L42.5811 5.13437L43.6638 6.85L44.7464 8.56563H46.9117L45.8291 10.2813L44.7464 11.9969L43.6638 13.7125L42.5811 15.4282L41.4985 17.1438H45.8291L46.9117 15.4282L48.0081 13.7125L49.0908 11.9969L50.1734 10.2813L51.2561 8.56563L52.3387 10.2813L53.4214 11.9969L54.5041 13.7125L55.5867 15.4282L56.6694 17.1438H61L59.9173 15.4282L58.8347 13.7125L57.752 11.9969L56.6694 10.2813L55.5867 8.56563H53.4214L54.5041 6.85L55.5867 5.13437L56.6694 3.41874L57.752 1.70311L58.8347 0H54.5041L53.4214 1.70311L52.3387 3.41874L51.2561 5.13437L50.1734 6.85L49.0908 8.56563ZM2.97388 0.375681H7.64713L10.5936 11.3833H10.7992L17.7337 0.375681H22.4069L19.4467 16.7681H15.7739L17.72 6.09863H17.5692L11.0047 16.693H8.48311L5.78331 6.06106H5.63256L3.67282 16.7681H0L2.97388 0.375681ZM25.6546 16.7682H21.5843L30.7664 0.375731H35.6589L38.8521 16.7682H34.7818L34.1423 13.0363H27.6703L25.6546 16.7682ZM32.6165 4.13259L33.6788 10.3314H29.1313L32.4794 4.13259H32.6165Z" fill="white"/>
<path d="M48.0081 6.85L48.2364 6.70596L48.1569 6.58009H48.0081V6.85ZM49.0908 8.56563L48.8625 8.70968L49.0908 9.0714L49.319 8.70968L49.0908 8.56563ZM47.9944 6.85L47.7661 6.99405L47.8456 7.11992H47.9944V6.85ZM46.9117 5.13437L46.6835 5.27842L46.9117 5.13437ZM45.8291 3.41874L46.0574 3.27469V3.27469L45.8291 3.41874ZM44.7464 1.70311L44.9747 1.55906L44.9742 1.55831L44.7464 1.70311ZM43.6638 0L43.8915 -0.144802L43.812 -0.269914H43.6638V0ZM39.3331 0V-0.269914H38.8417L39.1054 0.144802L39.3331 0ZM40.4158 1.70311L40.6441 1.55906L40.6436 1.55831L40.4158 1.70311ZM41.4985 3.41874L41.7267 3.27469L41.4985 3.41874ZM42.5811 5.13437L42.3528 5.27842L42.5811 5.13437ZM44.7464 8.56563L44.5182 8.70968L44.5976 8.83555H44.7464V8.56563ZM46.9117 8.56563L47.14 8.70968L47.4012 8.29572H46.9117V8.56563ZM45.8291 10.2813L46.0574 10.4253L45.8291 10.2813ZM44.7464 11.9969L44.5182 11.8528L44.7464 11.9969ZM43.6638 13.7125L43.4355 13.5685L43.6638 13.7125ZM42.5811 15.4282L42.8094 15.5722L42.5811 15.4282ZM41.4985 17.1438L41.2702 16.9997L41.009 17.4137H41.4985V17.1438ZM45.8291 17.1438V17.4137H45.9779L46.0574 17.2878L45.8291 17.1438ZM46.9117 15.4282L46.6843 15.2828L46.6835 15.2841L46.9117 15.4282ZM48.0081 13.7125L48.2355 13.8579L48.2364 13.8566L48.0081 13.7125ZM49.0908 11.9969L49.319 12.1409L49.0908 11.9969ZM51.2561 8.56563L51.4843 8.42159L51.2561 8.05987L51.0278 8.42159L51.2561 8.56563ZM52.3387 10.2813L52.567 10.1372L52.3387 10.2813ZM53.4214 11.9969L53.1931 12.1409L53.4214 11.9969ZM54.5041 13.7125L54.7323 13.5685L54.5041 13.7125ZM55.5867 15.4282L55.3584 15.5722L55.5867 15.4282ZM56.6694 17.1438L56.4411 17.2878L56.5205 17.4137H56.6694V17.1438ZM61 17.1438V17.4137H61.4895L61.2283 16.9997L61 17.1438ZM59.9173 15.4282L59.6891 15.5722L59.9173 15.4282ZM58.8347 13.7125L59.0629 13.5685L58.8347 13.7125ZM57.752 11.9969L57.9803 11.8528L57.752 11.9969ZM56.6694 10.2813L56.4411 10.4253L56.6694 10.2813ZM55.5867 8.56563L55.815 8.42159L55.7355 8.29572H55.5867V8.56563ZM53.4214 8.56563L53.1931 8.42159L52.9319 8.83555H53.4214V8.56563ZM55.5867 5.13437L55.815 5.27842L55.5867 5.13437ZM56.6694 3.41874L56.4411 3.27469V3.27469L56.6694 3.41874ZM57.752 1.70311L57.5242 1.55831L57.5238 1.55906L57.752 1.70311ZM58.8347 0L59.0625 0.144802L59.3261 -0.269914H58.8347V0ZM54.5041 0V-0.269914H54.3558L54.2763 -0.144802L54.5041 0ZM53.4214 1.70311L53.1936 1.55831L53.1931 1.55906L53.4214 1.70311ZM52.3387 3.41874L52.567 3.56279V3.56279L52.3387 3.41874ZM51.2561 5.13437L51.0278 4.99032V4.99032L51.2561 5.13437ZM7.64713 0.375681L7.90786 0.305888L7.8543 0.105767H7.64713V0.375681ZM2.97388 0.375681V0.105767H2.74853L2.70831 0.3275L2.97388 0.375681ZM10.5936 11.3833L10.3329 11.4531L10.3864 11.6532H10.5936V11.3833ZM10.7992 11.3833V11.6532H10.9481L11.0275 11.5271L10.7992 11.3833ZM17.7337 0.375681V0.105767H17.5847L17.5053 0.231811L17.7337 0.375681ZM22.4069 0.375681L22.6725 0.423646L22.7299 0.105767H22.4069V0.375681ZM19.4467 16.7681V17.038H19.6723L19.7124 16.8161L19.4467 16.7681ZM15.7739 16.7681L15.5084 16.7197L15.4503 17.038H15.7739V16.7681ZM17.72 6.09863L17.9855 6.14706L18.0436 5.82871H17.72V6.09863ZM17.5692 6.09863V5.82871H17.4189L17.3398 5.95646L17.5692 6.09863ZM11.0047 16.693V16.9629H11.155L11.2342 16.8351L11.0047 16.693ZM8.48311 16.693L8.2215 16.7594L8.27317 16.9629H8.48311V16.693ZM5.78331 6.06106L6.04492 5.99463L5.99325 5.79114H5.78331V6.06106ZM5.63256 6.06106V5.79114H5.40757L5.36706 6.01246L5.63256 6.06106ZM3.67282 16.7681V17.038H3.89781L3.93832 16.8167L3.67282 16.7681ZM0 16.7681L-0.265579 16.7199L-0.323287 17.038H0V16.7681ZM21.5843 16.7682L21.3489 16.6362L21.1238 17.0381H21.5843V16.7682ZM25.6546 16.7682V17.0381H25.8156L25.8921 16.8964L25.6546 16.7682ZM30.7664 0.375731V0.105817H30.6082L30.5309 0.243825L30.7664 0.375731ZM35.6589 0.375731L35.9238 0.324123L35.8813 0.105817H35.6589V0.375731ZM38.8521 16.7682V17.0381H39.1796L39.117 16.7165L38.8521 16.7682ZM34.7818 16.7682L34.5158 16.8137L34.5542 17.0381H34.7818V16.7682ZM34.1423 13.0363L34.4083 12.9907L34.3699 12.7664H34.1423V13.0363ZM27.6703 13.0363V12.7664H27.5093L27.4328 12.9081L27.6703 13.0363ZM33.6788 10.3314V10.6013H33.9989L33.9448 10.2858L33.6788 10.3314ZM32.6165 4.13259L32.8825 4.087L32.8441 3.86267H32.6165V4.13259ZM29.1313 10.3314L28.8938 10.2031L28.6787 10.6013H29.1313V10.3314ZM32.4794 4.13259V3.86267H32.3185L32.242 4.00431L32.4794 4.13259ZM47.7798 6.99405L48.8625 8.70968L49.319 8.42159L48.2364 6.70596L47.7798 6.99405ZM47.9944 7.11992H48.0081V6.58009H47.9944V7.11992ZM46.6835 5.27842L47.7661 6.99405L48.2227 6.70596L47.14 4.99032L46.6835 5.27842ZM45.6008 3.56279L46.6835 5.27842L47.14 4.99032L46.0574 3.27469L45.6008 3.56279ZM44.5182 1.84716L45.6008 3.56279L46.0574 3.27469L44.9747 1.55906L44.5182 1.84716ZM43.436 0.144802L44.5186 1.84791L44.9742 1.55831L43.8915 -0.144802L43.436 0.144802ZM39.3331 0.269914H43.6638V-0.269914H39.3331V0.269914ZM40.6436 1.55831L39.5609 -0.144802L39.1054 0.144802L40.188 1.84791L40.6436 1.55831ZM41.7267 3.27469L40.6441 1.55906L40.1875 1.84715L41.2702 3.56279L41.7267 3.27469ZM42.8094 4.99032L41.7267 3.27469L41.2702 3.56279L42.3528 5.27842L42.8094 4.99032ZM43.892 6.70596L42.8094 4.99032L42.3528 5.27842L43.4355 6.99405L43.892 6.70596ZM44.9747 8.42159L43.892 6.70596L43.4355 6.99405L44.5182 8.70968L44.9747 8.42159ZM46.9117 8.29572H44.7464V8.83555H46.9117V8.29572ZM46.0574 10.4253L47.14 8.70968L46.6835 8.42159L45.6008 10.1372L46.0574 10.4253ZM44.9747 12.1409L46.0574 10.4253L45.6008 10.1372L44.5182 11.8528L44.9747 12.1409ZM43.892 13.8566L44.9747 12.1409L44.5182 11.8528L43.4355 13.5685L43.892 13.8566ZM42.8094 15.5722L43.892 13.8566L43.4355 13.5685L42.3528 15.2841L42.8094 15.5722ZM41.7267 17.2878L42.8094 15.5722L42.3528 15.2841L41.2702 16.9997L41.7267 17.2878ZM45.8291 16.8739H41.4985V17.4137H45.8291V16.8739ZM46.6835 15.2841L45.6008 16.9997L46.0574 17.2878L47.14 15.5722L46.6835 15.2841ZM47.7807 13.5672L46.6843 15.2828L47.1392 15.5735L48.2355 13.8579L47.7807 13.5672ZM48.8625 11.8528L47.7798 13.5685L48.2364 13.8566L49.319 12.1409L48.8625 11.8528ZM49.9452 10.1372L48.8625 11.8528L49.319 12.1409L50.4017 10.4253L49.9452 10.1372ZM51.0278 8.42159L49.9452 10.1372L50.4017 10.4253L51.4843 8.70968L51.0278 8.42159ZM52.567 10.1372L51.4843 8.42159L51.0278 8.70968L52.1105 10.4253L52.567 10.1372ZM53.6497 11.8528L52.567 10.1372L52.1105 10.4253L53.1931 12.1409L53.6497 11.8528ZM54.7323 13.5685L53.6497 11.8528L53.1931 12.1409L54.2758 13.8566L54.7323 13.5685ZM55.815 15.2841L54.7323 13.5685L54.2758 13.8566L55.3584 15.5722L55.815 15.2841ZM56.8976 16.9997L55.815 15.2841L55.3584 15.5722L56.4411 17.2878L56.8976 16.9997ZM61 16.8739H56.6694V17.4137H61V16.8739ZM59.6891 15.5722L60.7717 17.2878L61.2283 16.9997L60.1456 15.2841L59.6891 15.5722ZM58.6064 13.8566L59.6891 15.5722L60.1456 15.2841L59.0629 13.5685L58.6064 13.8566ZM57.5238 12.1409L58.6064 13.8566L59.0629 13.5685L57.9803 11.8528L57.5238 12.1409ZM56.4411 10.4253L57.5238 12.1409L57.9803 11.8528L56.8976 10.1372L56.4411 10.4253ZM55.3584 8.70968L56.4411 10.4253L56.8976 10.1372L55.815 8.42159L55.3584 8.70968ZM53.4214 8.83555H55.5867V8.29572H53.4214V8.83555ZM54.2758 6.70596L53.1931 8.42159L53.6497 8.70968L54.7323 6.99405L54.2758 6.70596ZM55.3584 4.99032L54.2758 6.70596L54.7323 6.99405L55.815 5.27842L55.3584 4.99032ZM56.4411 3.27469L55.3584 4.99032L55.815 5.27842L56.8976 3.56279L56.4411 3.27469ZM57.5238 1.55906L56.4411 3.27469L56.8976 3.56279L57.9803 1.84716L57.5238 1.55906ZM58.6069 -0.144802L57.5242 1.55831L57.9798 1.84791L59.0625 0.144802L58.6069 -0.144802ZM54.5041 0.269914H58.8347V-0.269914H54.5041V0.269914ZM53.6492 1.84791L54.7318 0.144802L54.2763 -0.144802L53.1936 1.55831L53.6492 1.84791ZM52.567 3.56279L53.6497 1.84715L53.1931 1.55906L52.1105 3.27469L52.567 3.56279ZM51.4843 5.27842L52.567 3.56279L52.1105 3.27469L51.0278 4.99032L51.4843 5.27842ZM50.4017 6.99405L51.4843 5.27842L51.0278 4.99032L49.9452 6.70596L50.4017 6.99405ZM49.319 8.70968L50.4017 6.99405L49.9452 6.70596L48.8625 8.42159L49.319 8.70968ZM7.64713 0.105767H2.97388V0.645594H7.64713V0.105767ZM10.8543 11.3135L7.90786 0.305888L7.3864 0.445473L10.3329 11.4531L10.8543 11.3135ZM10.7992 11.1134H10.5936V11.6532H10.7992V11.1134ZM17.5053 0.231811L10.5708 11.2394L11.0275 11.5271L17.962 0.519551L17.5053 0.231811ZM22.4069 0.105767H17.7337V0.645594H22.4069V0.105767ZM19.7124 16.8161L22.6725 0.423646L22.1413 0.327715L19.1811 16.7201L19.7124 16.8161ZM15.7739 17.038H19.4467V16.4982H15.7739V17.038ZM17.4544 6.05019L15.5084 16.7197L16.0395 16.8165L17.9855 6.14706L17.4544 6.05019ZM17.5692 6.36854H17.72V5.82871H17.5692V6.36854ZM11.2342 16.8351L17.7987 6.24079L17.3398 5.95646L10.7753 16.5508L11.2342 16.8351ZM8.48311 16.9629H11.0047V16.423H8.48311V16.9629ZM5.5217 6.12749L8.2215 16.7594L8.74472 16.6265L6.04492 5.99463L5.5217 6.12749ZM5.63256 6.33097H5.78331V5.79114H5.63256V6.33097ZM3.93832 16.8167L5.89807 6.10965L5.36706 6.01246L3.40731 16.7195L3.93832 16.8167ZM0 17.038H3.67282V16.4982H0V17.038ZM2.70831 0.3275L-0.265579 16.7199L0.265579 16.8163L3.23946 0.423861L2.70831 0.3275ZM21.5843 17.0381H25.6546V16.4982H21.5843V17.0381ZM30.5309 0.243825L21.3489 16.6362L21.8198 16.9001L31.0019 0.507636L30.5309 0.243825ZM35.6589 0.105817H30.7664V0.645645H35.6589V0.105817ZM39.117 16.7165L35.9238 0.324123L35.394 0.427338L38.5871 16.8198L39.117 16.7165ZM34.7818 17.0381H38.8521V16.4982H34.7818V17.0381ZM33.8763 13.0819L34.5158 16.8137L35.0478 16.7226L34.4083 12.9907L33.8763 13.0819ZM27.6703 13.3063H34.1423V12.7664H27.6703V13.3063ZM25.8921 16.8964L27.9077 13.1646L27.4328 12.9081L25.4171 16.6399L25.8921 16.8964ZM33.9448 10.2858L32.8825 4.087L32.3505 4.17818L33.4127 10.377L33.9448 10.2858ZM29.1313 10.6013H33.6788V10.0615H29.1313V10.6013ZM32.242 4.00431L28.8938 10.2031L29.3688 10.4597L32.7169 4.26086L32.242 4.00431ZM32.6165 3.86267H32.4794V4.4025H32.6165V3.86267Z" fill="white" mask="url(#path-1-inside-1_9_3204)"/>
</svg>
