<svg width="125" height="36" viewBox="0 0 125 36" fill="none" xmlns="http://www.w3.org/2000/svg">
<mask id="path-1-inside-1_9_3263" fill="white">
<path fill-rule="evenodd" clip-rule="evenodd" d="M100.291 17.9873L98.0902 14.4998H98.0624L95.8616 11.0123L93.6608 7.52476L91.4599 4.03725L89.2591 0.575195H80.4559L82.6567 4.03725L84.8575 7.52476L87.0583 11.0123L89.2591 14.4998L91.4599 17.9873H95.8616L93.6608 21.4748L91.4599 24.9623L89.2591 28.4498L87.0583 31.9374L84.8575 35.4249H93.6608L95.8616 31.9374L98.0902 28.4498L100.291 24.9623L102.492 21.4748L104.693 17.9873L106.893 21.4748L109.094 24.9623L111.295 28.4498L113.496 31.9374L115.697 35.4249H124.5L122.299 31.9374L120.098 28.4498L117.898 24.9623L115.697 21.4748L113.496 17.9873H109.094L111.295 14.4998L113.496 11.0123L115.697 7.52476L117.898 4.03725L120.098 0.575195H111.295L109.094 4.03725L106.893 7.52476L104.693 11.0123L102.492 14.4998L100.291 17.9873ZM6.54527 1.33881H16.045L22.0345 23.7149H22.4524L36.5488 1.33881H46.0485L40.0311 34.6611H32.565L36.5209 12.9723H36.2145L22.8703 34.5084H17.7443L12.2562 12.896H11.9498L7.96605 34.6611H0.5L6.54527 1.33881ZM52.6504 34.6613H44.3765L63.0416 1.33896H72.987L79.478 34.6613H71.2041L69.9041 27.0753H56.7478L52.6504 34.6613ZM66.8025 8.97585L68.9618 21.5767H59.7178L66.5239 8.97585H66.8025Z"/>
</mask>
<path fill-rule="evenodd" clip-rule="evenodd" d="M100.291 17.9873L98.0902 14.4998H98.0624L95.8616 11.0123L93.6608 7.52476L91.4599 4.03725L89.2591 0.575195H80.4559L82.6567 4.03725L84.8575 7.52476L87.0583 11.0123L89.2591 14.4998L91.4599 17.9873H95.8616L93.6608 21.4748L91.4599 24.9623L89.2591 28.4498L87.0583 31.9374L84.8575 35.4249H93.6608L95.8616 31.9374L98.0902 28.4498L100.291 24.9623L102.492 21.4748L104.693 17.9873L106.893 21.4748L109.094 24.9623L111.295 28.4498L113.496 31.9374L115.697 35.4249H124.5L122.299 31.9374L120.098 28.4498L117.898 24.9623L115.697 21.4748L113.496 17.9873H109.094L111.295 14.4998L113.496 11.0123L115.697 7.52476L117.898 4.03725L120.098 0.575195H111.295L109.094 4.03725L106.893 7.52476L104.693 11.0123L102.492 14.4998L100.291 17.9873ZM6.54527 1.33881H16.045L22.0345 23.7149H22.4524L36.5488 1.33881H46.0485L40.0311 34.6611H32.565L36.5209 12.9723H36.2145L22.8703 34.5084H17.7443L12.2562 12.896H11.9498L7.96605 34.6611H0.5L6.54527 1.33881ZM52.6504 34.6613H44.3765L63.0416 1.33896H72.987L79.478 34.6613H71.2041L69.9041 27.0753H56.7478L52.6504 34.6613ZM66.8025 8.97585L68.9618 21.5767H59.7178L66.5239 8.97585H66.8025Z" fill="black"/>
<path d="M98.0902 14.4998L98.5543 14.207L98.3928 13.9511H98.0902V14.4998ZM100.291 17.9873L99.827 18.2801L100.291 19.0154L100.755 18.2801L100.291 17.9873ZM98.0624 14.4998L97.5984 14.7926L97.7598 15.0485H98.0624V14.4998ZM95.8616 11.0123L95.3976 11.3051V11.3051L95.8616 11.0123ZM93.6608 7.52476L94.1248 7.23195V7.23195L93.6608 7.52476ZM91.4599 4.03725L91.924 3.74443L91.923 3.7429L91.4599 4.03725ZM89.2591 0.575195L89.7222 0.280844L89.5605 0.026518H89.2591V0.575195ZM80.4559 0.575195V0.026518H79.4569L79.9928 0.869547L80.4559 0.575195ZM82.6567 4.03725L83.1207 3.74443L83.1197 3.7429L82.6567 4.03725ZM84.8575 7.52476L85.3215 7.23195V7.23195L84.8575 7.52476ZM87.0583 11.0123L86.5943 11.3051V11.3051L87.0583 11.0123ZM91.4599 17.9873L90.9959 18.2801L91.1574 18.536H91.4599V17.9873ZM95.8616 17.9873L96.3256 18.2801L96.8566 17.4386H95.8616V17.9873ZM93.6608 21.4748L94.1248 21.7676L93.6608 21.4748ZM91.4599 24.9623L90.9959 24.6695L91.4599 24.9623ZM89.2591 28.4498L88.7951 28.157L89.2591 28.4498ZM87.0583 31.9374L86.5943 31.6445L87.0583 31.9374ZM84.8575 35.4249L84.3935 35.132L83.8625 35.9735H84.8575V35.4249ZM93.6608 35.4249V35.9735H93.9633L94.1248 35.7177L93.6608 35.4249ZM95.8616 31.9374L95.3992 31.6419L95.3976 31.6445L95.8616 31.9374ZM98.0902 28.4498L98.5526 28.7453L98.5543 28.7427L98.0902 28.4498ZM100.291 24.9623L99.827 24.6695L100.291 24.9623ZM102.492 21.4748L102.028 21.182L102.492 21.4748ZM104.693 17.9873L105.157 17.6945L104.693 16.9592L104.229 17.6945L104.693 17.9873ZM106.893 21.4748L107.358 21.182L106.893 21.4748ZM109.094 24.9623L108.63 25.2551L109.094 24.9623ZM111.295 28.4498L111.759 28.157L111.295 28.4498ZM113.496 31.9374L113.032 32.2302L113.496 31.9374ZM115.697 35.4249L115.233 35.7177L115.394 35.9735H115.697V35.4249ZM124.5 35.4249V35.9735H125.495L124.964 35.132L124.5 35.4249ZM122.299 31.9374L121.835 32.2302L122.299 31.9374ZM120.098 28.4498L119.634 28.7427L120.098 28.4498ZM117.898 24.9623L118.362 24.6695L117.898 24.9623ZM115.697 21.4748L115.233 21.7676L115.697 21.4748ZM113.496 17.9873L113.96 17.6945L113.798 17.4386H113.496V17.9873ZM109.094 17.9873L108.63 17.6945L108.099 18.536H109.094V17.9873ZM113.496 11.0123L113.96 11.3051L113.496 11.0123ZM115.697 7.52476L115.233 7.23195V7.23195L115.697 7.52476ZM117.898 4.03725L117.435 3.7429L117.434 3.74443L117.898 4.03725ZM120.098 0.575195L120.561 0.869546L121.097 0.026518H120.098V0.575195ZM111.295 0.575195V0.026518H110.994L110.832 0.280844L111.295 0.575195ZM109.094 4.03725L108.631 3.7429L108.63 3.74444L109.094 4.03725ZM106.893 7.52476L107.358 7.81758V7.81758L106.893 7.52476ZM104.693 11.0123L104.229 10.7195V10.7195L104.693 11.0123ZM16.045 1.33881L16.575 1.19693L16.4661 0.790131H16.045V1.33881ZM6.54527 1.33881V0.790131H6.08718L6.00541 1.24087L6.54527 1.33881ZM22.0345 23.7149L21.5045 23.8568L21.6134 24.2636H22.0345V23.7149ZM22.4524 23.7149V24.2636H22.7552L22.9167 24.0074L22.4524 23.7149ZM36.5488 1.33881V0.790131H36.2459L36.0845 1.04635L36.5488 1.33881ZM46.0485 1.33881L46.5884 1.43631L46.7051 0.790131H46.0485V1.33881ZM40.0311 34.6611V35.2098H40.4895L40.571 34.7586L40.0311 34.6611ZM32.565 34.6611L32.0252 34.5627L31.9072 35.2098H32.565V34.6611ZM36.5209 12.9723L37.0607 13.0708L37.1787 12.4237H36.5209V12.9723ZM36.2145 12.9723V12.4237H35.909L35.7481 12.6833L36.2145 12.9723ZM22.8703 34.5084V35.057H23.1758L23.3367 34.7974L22.8703 34.5084ZM17.7443 34.5084L17.2125 34.6434L17.3176 35.057H17.7443V34.5084ZM12.2562 12.896L12.788 12.7609L12.683 12.3473H12.2562V12.896ZM11.9498 12.896V12.3473H11.4924L11.4101 12.7972L11.9498 12.896ZM7.96605 34.6611V35.2098H8.42342L8.50576 34.7599L7.96605 34.6611ZM0.5 34.6611L-0.039865 34.5632L-0.157173 35.2098H0.5V34.6611ZM44.3765 34.6613L43.8978 34.3931L43.4402 35.2099H44.3765V34.6613ZM52.6504 34.6613V35.2099H52.9776L53.1332 34.922L52.6504 34.6613ZM63.0416 1.33896V0.790284H62.72L62.5629 1.07083L63.0416 1.33896ZM72.987 1.33896L73.5256 1.23405L73.4392 0.790284H72.987V1.33896ZM79.478 34.6613V35.2099H80.1439L80.0166 34.5564L79.478 34.6613ZM71.2041 34.6613L70.6633 34.7539L70.7415 35.2099H71.2041V34.6613ZM69.9041 27.0753L70.4449 26.9826L70.3668 26.5266H69.9041V27.0753ZM56.7478 27.0753V26.5266H56.4206L56.2651 26.8145L56.7478 27.0753ZM68.9618 21.5767V22.1254H69.6125L69.5026 21.484L68.9618 21.5767ZM66.8025 8.97585L67.3433 8.88318L67.2651 8.42717H66.8025V8.97585ZM59.7178 21.5767L59.235 21.316L58.7978 22.1254H59.7178V21.5767ZM66.5239 8.97585V8.42717H66.1967L66.0411 8.7151L66.5239 8.97585ZM97.6262 14.7926L99.827 18.2801L100.755 17.6945L98.5543 14.207L97.6262 14.7926ZM98.0624 15.0485H98.0902V13.9511H98.0624V15.0485ZM95.3976 11.3051L97.5984 14.7926L98.5264 14.207L96.3256 10.7195L95.3976 11.3051ZM93.1967 7.81758L95.3976 11.3051L96.3256 10.7195L94.1248 7.23195L93.1967 7.81758ZM90.9959 4.33007L93.1967 7.81758L94.1248 7.23195L91.924 3.74443L90.9959 4.33007ZM88.7961 0.869546L90.9969 4.3316L91.923 3.7429L89.7222 0.280844L88.7961 0.869546ZM80.4559 1.12387H89.2591V0.026518H80.4559V1.12387ZM83.1197 3.7429L80.9189 0.280843L79.9928 0.869547L82.1937 4.3316L83.1197 3.7429ZM85.3215 7.23195L83.1207 3.74444L82.1927 4.33007L84.3935 7.81758L85.3215 7.23195ZM87.5223 10.7195L85.3215 7.23195L84.3935 7.81758L86.5943 11.3051L87.5223 10.7195ZM89.7231 14.207L87.5223 10.7195L86.5943 11.3051L88.7951 14.7926L89.7231 14.207ZM91.924 17.6945L89.7231 14.207L88.7951 14.7926L90.9959 18.2801L91.924 17.6945ZM95.8616 17.4386H91.4599V18.536H95.8616V17.4386ZM94.1248 21.7676L96.3256 18.2801L95.3976 17.6945L93.1967 21.182L94.1248 21.7676ZM91.924 25.2551L94.1248 21.7676L93.1967 21.182L90.9959 24.6695L91.924 25.2551ZM89.7231 28.7427L91.924 25.2551L90.9959 24.6695L88.7951 28.157L89.7231 28.7427ZM87.5223 32.2302L89.7231 28.7427L88.7951 28.157L86.5943 31.6445L87.5223 32.2302ZM85.3215 35.7177L87.5223 32.2302L86.5943 31.6445L84.3935 35.132L85.3215 35.7177ZM93.6608 34.8762H84.8575V35.9735H93.6608V34.8762ZM95.3976 31.6445L93.1967 35.132L94.1248 35.7177L96.3256 32.2302L95.3976 31.6445ZM97.6279 28.1544L95.3992 31.6419L96.3239 32.2328L98.5526 28.7453L97.6279 28.1544ZM99.827 24.6695L97.6262 28.157L98.5543 28.7427L100.755 25.2551L99.827 24.6695ZM102.028 21.182L99.827 24.6695L100.755 25.2551L102.956 21.7676L102.028 21.182ZM104.229 17.6945L102.028 21.182L102.956 21.7676L105.157 18.2801L104.229 17.6945ZM107.358 21.182L105.157 17.6945L104.229 18.2801L106.429 21.7676L107.358 21.182ZM109.558 24.6695L107.358 21.182L106.429 21.7676L108.63 25.2551L109.558 24.6695ZM111.759 28.157L109.558 24.6695L108.63 25.2551L110.831 28.7427L111.759 28.157ZM113.96 31.6445L111.759 28.157L110.831 28.7427L113.032 32.2302L113.96 31.6445ZM116.161 35.132L113.96 31.6445L113.032 32.2302L115.233 35.7177L116.161 35.132ZM124.5 34.8762H115.697V35.9735H124.5V34.8762ZM121.835 32.2302L124.036 35.7177L124.964 35.132L122.763 31.6445L121.835 32.2302ZM119.634 28.7427L121.835 32.2302L122.763 31.6445L120.562 28.157L119.634 28.7427ZM117.434 25.2551L119.634 28.7427L120.562 28.157L118.362 24.6695L117.434 25.2551ZM115.233 21.7676L117.434 25.2551L118.362 24.6695L116.161 21.182L115.233 21.7676ZM113.032 18.2801L115.233 21.7676L116.161 21.182L113.96 17.6945L113.032 18.2801ZM109.094 18.536H113.496V17.4386H109.094V18.536ZM110.831 14.207L108.63 17.6945L109.558 18.2801L111.759 14.7926L110.831 14.207ZM113.032 10.7195L110.831 14.207L111.759 14.7926L113.96 11.3051L113.032 10.7195ZM115.233 7.23195L113.032 10.7195L113.96 11.3051L116.161 7.81758L115.233 7.23195ZM117.434 3.74443L115.233 7.23195L116.161 7.81758L118.362 4.33007L117.434 3.74443ZM119.635 0.280845L117.435 3.7429L118.361 4.3316L120.561 0.869546L119.635 0.280845ZM111.295 1.12387H120.098V0.026518H111.295V1.12387ZM109.557 4.3316L111.758 0.869546L110.832 0.280844L108.631 3.7429L109.557 4.3316ZM107.358 7.81758L109.558 4.33007L108.63 3.74444L106.429 7.23195L107.358 7.81758ZM105.157 11.3051L107.358 7.81758L106.429 7.23195L104.229 10.7195L105.157 11.3051ZM102.956 14.7926L105.157 11.3051L104.229 10.7195L102.028 14.207L102.956 14.7926ZM100.755 18.2801L102.956 14.7926L102.028 14.207L99.827 17.6945L100.755 18.2801ZM16.045 0.790131H6.54527V1.88749H16.045V0.790131ZM22.5646 23.573L16.575 1.19693L15.515 1.48068L21.5045 23.8568L22.5646 23.573ZM22.4524 23.1662H22.0345V24.2636H22.4524V23.1662ZM36.0845 1.04635L21.9882 23.4224L22.9167 24.0074L37.013 1.63126L36.0845 1.04635ZM46.0485 0.790131H36.5488V1.88749H46.0485V0.790131ZM40.571 34.7586L46.5884 1.43631L45.5085 1.2413L39.4911 34.5636L40.571 34.7586ZM32.565 35.2098H40.0311V34.1124H32.565V35.2098ZM35.9811 12.8739L32.0252 34.5627L33.1048 34.7596L37.0607 13.0708L35.9811 12.8739ZM36.2145 13.521H36.5209V12.4237H36.2145V13.521ZM23.3367 34.7974L36.6809 13.2613L35.7481 12.6833L22.4039 34.2194L23.3367 34.7974ZM17.7443 35.057H22.8703V33.9597H17.7443V35.057ZM11.7244 13.031L17.2125 34.6434L18.2761 34.3733L12.788 12.7609L11.7244 13.031ZM11.9498 13.4446H12.2562V12.3473H11.9498V13.4446ZM8.50576 34.7599L12.4895 12.9948L11.4101 12.7972L7.42634 34.5623L8.50576 34.7599ZM0.5 35.2098H7.96605V34.1124H0.5V35.2098ZM6.00541 1.24087L-0.039865 34.5632L1.03987 34.759L7.08514 1.43675L6.00541 1.24087ZM44.3765 35.2099H52.6504V34.1126H44.3765V35.2099ZM62.5629 1.07083L43.8978 34.3931L44.8552 34.9294L63.5203 1.6071L62.5629 1.07083ZM72.987 0.790284H63.0416V1.88764H72.987V0.790284ZM80.0166 34.5564L73.5256 1.23405L72.4485 1.44387L78.9395 34.7662L80.0166 34.5564ZM71.2041 35.2099H79.478V34.1126H71.2041V35.2099ZM69.3633 27.168L70.6633 34.7539L71.7449 34.5686L70.4449 26.9826L69.3633 27.168ZM56.7478 27.624H69.9041V26.5266H56.7478V27.624ZM53.1332 34.922L57.2306 27.336L56.2651 26.8145L52.1677 34.4005L53.1332 34.922ZM69.5026 21.484L67.3433 8.88318L66.2617 9.06853L68.4211 21.6694L69.5026 21.484ZM59.7178 22.1254H68.9618V21.028H59.7178V22.1254ZM66.0411 8.7151L59.235 21.316L60.2005 21.8375L67.0067 9.2366L66.0411 8.7151ZM66.8025 8.42717H66.5239V9.52453H66.8025V8.42717Z" fill="white" mask="url(#path-1-inside-1_9_3263)"/>
</svg>
