<svg width="16" height="16" viewBox="0 0 16 16" fill="none" xmlns="http://www.w3.org/2000/svg">
    <g id="n-icons/outline/upload">
        <path id="Vector" d="M8 8V14" stroke="#121212" stroke-linecap="round" stroke-linejoin="round" />
        <path id="Vector_2"
            d="M13.5933 12.2623C14.2435 11.9078 14.7572 11.3469 15.0532 10.668C15.3493 9.98918 15.4108 9.23109 15.2281 8.51339C15.0454 7.7957 14.629 7.15928 14.0444 6.70457C13.4599 6.24986 12.7406 6.00276 12 6.00227H11.16C10.9582 5.22176 10.5821 4.49716 10.0599 3.88293C9.5378 3.2687 8.8832 2.78083 8.14537 2.45601C7.40754 2.13118 6.60567 1.97784 5.80005 2.00752C4.99443 2.03721 4.20602 2.24913 3.49409 2.62738C2.78216 3.00562 2.16525 3.54034 1.68972 4.19132C1.2142 4.84231 0.892434 5.59263 0.748627 6.38586C0.60482 7.1791 0.64271 7.99462 0.859449 8.77111C1.07619 9.54759 1.46613 10.2648 1.99997 10.8689"
            stroke="#121212" stroke-linecap="round" stroke-linejoin="round" />
        <path id="Vector_3" d="M5.17188 10.6581L8.00887 7.83825L10.8287 10.6752" stroke="#121212" stroke-linecap="round" stroke-linejoin="round" />
    </g>
</svg>