<svg width="19" height="19" viewBox="0 0 19 19" fill="none" xmlns="http://www.w3.org/2000/svg">
<g clip-path="url(#clip0_570_2089)">
<path d="M19.0562 9.01688C19.0562 9.12959 18.9999 9.18595 18.9435 9.2423L16.4076 10.7075C16.3512 10.7075 16.3512 10.7639 16.2949 10.7639C16.2385 10.7639 16.1821 10.7639 16.1821 10.7075C16.1258 10.6512 16.0694 10.5948 16.0694 10.4821V9.46772H9.3069C10.0395 10.5948 10.434 12.4545 11.2793 12.4545H12.0119V11.7219C12.0119 11.6092 12.1246 11.4965 12.2373 11.4965H14.7733C14.886 11.4965 14.9987 11.6092 14.9987 11.7219V14.2579C14.9987 14.3706 14.886 14.4833 14.7733 14.4833H12.2373C12.1246 14.4833 12.0119 14.3706 12.0119 14.2579V13.5252H11.2793C9.13784 13.5252 8.96877 9.52407 7.78533 9.52407H4.91125C4.68583 10.3694 3.89687 11.0456 2.93884 11.0456C1.8681 11.0456 0.966431 10.144 0.966431 9.01688C0.966431 7.88979 1.8681 6.98812 2.99519 6.98812C3.95322 6.98812 4.68583 7.60802 4.9676 8.50969C6.09469 8.50969 6.2074 8.79147 7.05272 6.81906C8.17981 4.2831 8.687 4.50852 10.0959 4.50852C10.3213 3.94498 10.8848 3.49414 11.5047 3.49414C12.35 3.49414 13.0263 4.17039 13.0263 5.01571C13.0263 5.86103 12.35 6.53729 11.5047 6.53729C10.8285 6.53729 10.3213 6.1428 10.0959 5.5229H9.25054C8.40523 5.5229 8.01075 7.43896 7.27814 8.50969H16.0131V7.49531C16.0131 7.3826 16.0694 7.32625 16.1258 7.26989C16.1821 7.21354 16.2949 7.21354 16.3512 7.26989L18.8872 8.79147C18.9999 8.84782 19.0562 8.90417 19.0562 9.01688Z" fill="white"/>
</g>
<defs>
<clipPath id="clip0_570_2089">
<rect width="18.0334" height="18.0334" fill="white" transform="translate(0.966431)"/>
</clipPath>
</defs>
</svg>
