<svg width="31" height="20" viewBox="0 0 31 20" fill="none" xmlns="http://www.w3.org/2000/svg">
<path d="M31.0942 10.0489C31.0942 10.237 31.0001 10.3311 30.9061 10.4251L26.6738 12.8704C26.5798 12.8704 26.5798 12.9645 26.4857 12.9645C26.3917 12.9645 26.2976 12.9645 26.2976 12.8704C26.2036 12.7764 26.1095 12.6823 26.1095 12.4942V10.8013H14.8235C16.0462 12.6823 16.7045 15.786 18.1153 15.786H19.3379V14.5633C19.3379 14.3752 19.526 14.1871 19.7141 14.1871H23.9464C24.1345 14.1871 24.3226 14.3752 24.3226 14.5633V18.7956C24.3226 18.9837 24.1345 19.1718 23.9464 19.1718H19.7141C19.526 19.1718 19.3379 18.9837 19.3379 18.7956V17.5729H18.1153C14.5414 17.5729 14.2592 10.8954 12.2842 10.8954H7.48761C7.11141 12.3061 5.79471 13.4347 4.19586 13.4347C2.40891 13.4347 0.904114 11.9299 0.904114 10.0489C0.904114 8.16793 2.40891 6.66313 4.28991 6.66313C5.88876 6.66313 7.11141 7.69768 7.58166 9.20249C9.46266 9.20249 9.65077 9.67274 11.0615 6.38098C12.9425 2.14873 13.789 2.52493 16.1402 2.52493C16.5164 1.58443 17.4569 0.832031 18.4915 0.832031C19.9022 0.832031 21.0308 1.96063 21.0308 3.37138C21.0308 4.78213 19.9022 5.91073 18.4915 5.91073C17.3629 5.91073 16.5164 5.25238 16.1402 4.21783H14.7295C13.3187 4.21783 12.6604 7.41553 11.4377 9.20249H26.0155V7.50958C26.0155 7.32148 26.1095 7.22743 26.2036 7.13338C26.2976 7.03933 26.4857 7.03933 26.5798 7.13338L30.812 9.67274C31.0001 9.76678 31.0942 9.86083 31.0942 10.0489Z" fill="#EFEFEF"/>
</svg>
