<svg width="22" height="8" viewBox="0 0 22 8" fill="none" xmlns="http://www.w3.org/2000/svg">
<path d="M11.4892 2.8133C11.4771 3.73284 12.3394 4.24602 12.989 4.5511C13.6564 4.86416 13.8806 5.06489 13.8781 5.3448C13.873 5.77327 13.3456 5.96233 12.8521 5.9697C11.991 5.98259 11.4905 5.74564 11.0924 5.5664L10.7823 6.96536C11.1816 7.14276 11.921 7.29745 12.6878 7.3042C14.4875 7.3042 15.6651 6.44788 15.6715 5.12013C15.6785 3.43512 13.2533 3.34182 13.2699 2.58863C13.2756 2.36028 13.5017 2.11658 13.9972 2.05458C14.2424 2.02328 14.9193 1.99934 15.6868 2.34002L15.988 0.986491C15.5753 0.841623 15.0448 0.702894 14.3844 0.702894C12.6903 0.702894 11.4987 1.57087 11.4892 2.8133ZM18.8826 0.819524C18.5539 0.819524 18.2769 1.00429 18.1533 1.28789L15.5823 7.20476H17.3808L17.7387 6.25145H19.9366L20.1442 7.20476H21.7293L20.3461 0.819524H18.8826ZM19.1341 2.54443L19.6532 4.94212H18.2317L19.1341 2.54443ZM9.30856 0.819524L7.89089 7.20476H9.6047L11.0217 0.819524H9.30856ZM6.77319 0.819524L4.98933 5.16556L4.26776 1.4702C4.18306 1.0577 3.84871 0.819524 3.47741 0.819524H0.561206L0.520447 1.00491C1.1191 1.13013 1.79927 1.33209 2.21133 1.54816C2.46352 1.68014 2.53549 1.79554 2.61828 2.10922L3.985 7.20476H5.79624L8.57298 0.819524H6.77319Z" fill="white"/>
</svg>
