<svg width="26" height="9" viewBox="0 0 26 9" fill="none" xmlns="http://www.w3.org/2000/svg">
<g clip-path="url(#clip0_2107_1798)">
<path d="M13.377 3.35266C13.3623 4.4698 14.41 5.09325 15.1992 5.46389C16.01 5.84422 16.2824 6.08808 16.2793 6.42815C16.2731 6.94868 15.6324 7.17838 15.0328 7.18732C13.9867 7.20299 13.3786 6.91512 12.895 6.69736L12.5182 8.39694C13.0033 8.61246 13.9016 8.80039 14.8332 8.80859C17.0197 8.80859 18.4503 7.76827 18.4581 6.1552C18.4666 4.10811 15.5202 3.99475 15.5404 3.07971C15.5473 2.80229 15.822 2.50623 16.424 2.43091C16.7218 2.39287 17.5443 2.36379 18.4766 2.77768L18.8426 1.13329C18.3412 0.957296 17.6967 0.788755 16.8944 0.788755C14.8363 0.788755 13.3887 1.84325 13.377 3.35266ZM22.3592 0.930449C21.9599 0.930449 21.6234 1.15492 21.4732 1.49946L18.3497 8.68778H20.5347L20.9696 7.52963H23.6397L23.8919 8.68778H25.8177L24.1372 0.930449H22.3592ZM22.6648 3.02602L23.2954 5.93893H21.5684L22.6648 3.02602ZM10.7278 0.930449L9.00553 8.68778H11.0876L12.8091 0.930449H10.7278ZM7.64765 0.930449L5.48046 6.21039L4.60384 1.72095C4.50093 1.2198 4.09473 0.930449 3.64365 0.930449H0.100788L0.0512695 1.15567C0.778566 1.3078 1.6049 1.55315 2.1055 1.81566C2.41189 1.976 2.49932 2.1162 2.5999 2.49728L4.2603 8.68778H6.46076L9.83418 0.930449H7.64765Z" fill="#868686"/>
</g>
<defs>
<clipPath id="clip0_2107_1798">
<rect width="25.7664" height="8.052" fill="white" transform="translate(0.0517578 0.789062)"/>
</clipPath>
</defs>
</svg>
