<svg width="27" height="9" viewBox="0 0 27 9" fill="none" xmlns="http://www.w3.org/2000/svg">
<path d="M10.3722 0.953456L6.96828 8.06579H4.74746L3.07236 2.38944C2.97066 2.03982 2.88278 1.91173 2.57295 1.76443C2.06798 1.52451 1.23409 1.29941 0.50108 1.15958L0.550236 0.953456H4.12522C4.5809 0.953456 4.99053 1.21912 5.09399 1.67868L5.97866 5.79404L8.16496 0.953456H10.3722ZM19.0738 5.74399C19.0827 3.8667 16.1098 3.7634 16.1303 2.92468C16.1366 2.66945 16.4146 2.3981 17.0214 2.32884C17.3225 2.29433 18.1519 2.268 19.0933 2.64716L19.4623 1.13882C18.9561 0.977176 18.3057 0.822998 17.4965 0.822998C15.4199 0.822998 13.9585 1.78981 13.9461 3.17421C13.9326 4.19818 14.9888 4.76959 15.7852 5.10985C16.6041 5.45829 16.8788 5.6822 16.8757 5.99388C16.8699 6.471 16.2226 6.68175 15.6177 6.68993C14.5615 6.70416 13.949 6.43969 13.4605 6.2408L13.0797 7.79906C13.5706 7.99629 14.4767 8.16838 15.4161 8.17703C17.6234 8.17703 19.067 7.2222 19.0738 5.74352V5.74399ZM24.5574 8.06579H26.5003L24.8043 0.953456H23.0109C22.8194 0.95201 22.6318 1.00098 22.4724 1.09403C22.3131 1.18708 22.1893 1.3199 22.1171 1.47529L18.9643 8.06579H21.1703L21.6083 7.00339H24.303L24.5574 8.06579ZM22.2132 5.54558L23.319 2.87475L23.9554 5.54534L22.2132 5.54558ZM13.374 0.953456L11.6368 8.06579H9.53591L11.2738 0.953456H13.374Z" fill="#121212"/>
</svg>
