<svg width="60" height="12" viewBox="0 0 53 10" fill="none" xmlns="http://www.w3.org/2000/svg">
    <path
        d="M2.64205 9L0.255682 0.272727H1.32955L3.15341 7.38068H3.23864L5.09659 0.272727H6.28977L8.14773 7.38068H8.23295L10.0568 0.272727H11.1307L8.74432 9H7.65341L5.72727 2.04545H5.65909L3.73295 9H2.64205ZM14.446 9.13636C13.8153 9.13636 13.2713 8.99716 12.8139 8.71875C12.3594 8.4375 12.0085 8.04545 11.7614 7.54261C11.517 7.03693 11.3949 6.44886 11.3949 5.77841C11.3949 5.10795 11.517 4.51705 11.7614 4.00568C12.0085 3.49148 12.3523 3.09091 12.7926 2.80398C13.2358 2.5142 13.7528 2.36932 14.3438 2.36932C14.6847 2.36932 15.0213 2.42614 15.3537 2.53977C15.6861 2.65341 15.9886 2.83807 16.2614 3.09375C16.5341 3.34659 16.7514 3.68182 16.9134 4.09943C17.0753 4.51705 17.1562 5.03125 17.1562 5.64205V6.06818H12.1108V5.19886H16.1335C16.1335 4.82955 16.0597 4.5 15.9119 4.21023C15.767 3.92045 15.5597 3.69176 15.2898 3.52415C15.0227 3.35653 14.7074 3.27273 14.3438 3.27273C13.9432 3.27273 13.5966 3.37216 13.304 3.57102C13.0142 3.76705 12.7912 4.02273 12.6349 4.33807C12.4787 4.65341 12.4006 4.99148 12.4006 5.35227V5.93182C12.4006 6.42614 12.4858 6.84517 12.6562 7.18892C12.8295 7.52983 13.0696 7.78977 13.3764 7.96875C13.6832 8.14489 14.0398 8.23295 14.446 8.23295C14.7102 8.23295 14.9489 8.19602 15.1619 8.12216C15.3778 8.04545 15.5639 7.93182 15.7202 7.78125C15.8764 7.62784 15.9972 7.4375 16.0824 7.21023L17.054 7.48295C16.9517 7.8125 16.7798 8.10227 16.5384 8.35227C16.2969 8.59943 15.9986 8.79261 15.6435 8.93182C15.2884 9.06818 14.8892 9.13636 14.446 9.13636ZM23.9872 9.15341C23.5724 9.15341 23.196 9.07528 22.858 8.91903C22.5199 8.75994 22.2514 8.53125 22.0526 8.23295C21.8537 7.93182 21.7543 7.56818 21.7543 7.14205C21.7543 6.76705 21.8281 6.46307 21.9759 6.23011C22.1236 5.99432 22.321 5.80966 22.5682 5.67614C22.8153 5.54261 23.0881 5.44318 23.3864 5.37784C23.6875 5.30966 23.9901 5.25568 24.294 5.21591C24.6918 5.16477 25.0142 5.12642 25.2614 5.10085C25.5114 5.07244 25.6932 5.02557 25.8068 4.96023C25.9233 4.89489 25.9815 4.78125 25.9815 4.61932V4.58523C25.9815 4.16477 25.8665 3.83807 25.6364 3.60511C25.4091 3.37216 25.0639 3.25568 24.6009 3.25568C24.1207 3.25568 23.7443 3.3608 23.4716 3.57102C23.1989 3.78125 23.0071 4.00568 22.8963 4.24432L21.9418 3.90341C22.1122 3.50568 22.3395 3.19602 22.6236 2.97443C22.9105 2.75 23.223 2.59375 23.5611 2.50568C23.902 2.41477 24.2372 2.36932 24.5668 2.36932C24.777 2.36932 25.0185 2.39489 25.2912 2.44602C25.5668 2.49432 25.8324 2.59517 26.0881 2.74858C26.3466 2.90199 26.5611 3.13352 26.7315 3.44318C26.902 3.75284 26.9872 4.16761 26.9872 4.6875V9H25.9815V8.11364H25.9304C25.8622 8.25568 25.7486 8.40767 25.5895 8.5696C25.4304 8.73153 25.2188 8.86932 24.9545 8.98295C24.6903 9.09659 24.3679 9.15341 23.9872 9.15341ZM24.1406 8.25C24.5384 8.25 24.8736 8.17188 25.1463 8.01562C25.4219 7.85938 25.6293 7.65767 25.7685 7.41051C25.9105 7.16335 25.9815 6.90341 25.9815 6.63068V5.71023C25.9389 5.76136 25.8452 5.80824 25.7003 5.85085C25.5582 5.89062 25.3935 5.92614 25.206 5.95739C25.0213 5.9858 24.8409 6.01136 24.6648 6.03409C24.4915 6.05398 24.3509 6.07102 24.2429 6.08523C23.9815 6.11932 23.7372 6.17472 23.5099 6.25142C23.2855 6.32528 23.1037 6.4375 22.9645 6.58807C22.8281 6.7358 22.7599 6.9375 22.7599 7.19318C22.7599 7.54261 22.8892 7.80682 23.1477 7.9858C23.4091 8.16193 23.7401 8.25 24.1406 8.25ZM28.8228 9V2.45455H29.7944V3.44318H29.8626C29.9819 3.11932 30.1978 2.85653 30.5103 2.65483C30.8228 2.45312 31.1751 2.35227 31.5671 2.35227C31.641 2.35227 31.7333 2.35369 31.8441 2.35653C31.9549 2.35937 32.0387 2.36364 32.0955 2.36932V3.39205C32.0614 3.38352 31.9833 3.37074 31.8612 3.35369C31.7418 3.33381 31.6154 3.32386 31.4819 3.32386C31.1637 3.32386 30.8796 3.39062 30.6296 3.52415C30.3825 3.65483 30.1864 3.83665 30.0415 4.0696C29.8995 4.29972 29.8285 4.5625 29.8285 4.85795V9H28.8228ZM35.8327 9.13636C35.2021 9.13636 34.658 8.99716 34.2006 8.71875C33.7461 8.4375 33.3952 8.04545 33.1481 7.54261C32.9038 7.03693 32.7816 6.44886 32.7816 5.77841C32.7816 5.10795 32.9038 4.51705 33.1481 4.00568C33.3952 3.49148 33.739 3.09091 34.1793 2.80398C34.6225 2.5142 35.1396 2.36932 35.7305 2.36932C36.0714 2.36932 36.408 2.42614 36.7404 2.53977C37.0728 2.65341 37.3754 2.83807 37.6481 3.09375C37.9208 3.34659 38.1381 3.68182 38.3001 4.09943C38.462 4.51705 38.543 5.03125 38.543 5.64205V6.06818H33.4975V5.19886H37.5202C37.5202 4.82955 37.4464 4.5 37.2987 4.21023C37.1538 3.92045 36.9464 3.69176 36.6765 3.52415C36.4094 3.35653 36.0941 3.27273 35.7305 3.27273C35.3299 3.27273 34.9833 3.37216 34.6907 3.57102C34.4009 3.76705 34.1779 4.02273 34.0217 4.33807C33.8654 4.65341 33.7873 4.99148 33.7873 5.35227V5.93182C33.7873 6.42614 33.8725 6.84517 34.043 7.18892C34.2163 7.52983 34.4563 7.78977 34.7631 7.96875C35.07 8.14489 35.4265 8.23295 35.8327 8.23295C36.0969 8.23295 36.3356 8.19602 36.5487 8.12216C36.7646 8.04545 36.9506 7.93182 37.1069 7.78125C37.2631 7.62784 37.3839 7.4375 37.4691 7.21023L38.4407 7.48295C38.3384 7.8125 38.1665 8.10227 37.9251 8.35227C37.6836 8.59943 37.3853 8.79261 37.0302 8.93182C36.6751 9.06818 36.2759 9.13636 35.8327 9.13636ZM48.979 9L48.3228 8.35227L51.0245 5.65057H44.0273V4.71307H51.0245L48.3228 2.01989L48.979 1.36364L52.7972 5.18182L48.979 9Z"
        fill="#B3B3B3" />
</svg>
    