<svg width="26" height="15" viewBox="0 0 26 15" fill="none" xmlns="http://www.w3.org/2000/svg">
<path d="M10.1633 13.994C7.17694 13.7653 4.5394 12.7952 2.81979 11.2927C1.89235 10.5154 1.25277 9.51216 0.983914 8.41285C0.860515 7.80844 0.860515 7.18965 0.983914 6.58523C1.35721 5.06311 2.47913 3.72679 4.2477 2.71562C8.28051 0.393135 14.4593 0.411 18.4553 2.74242C18.9449 3.02277 19.3989 3.34796 19.8098 3.7125C20.4171 4.23778 20.9179 4.84977 21.2908 5.52225C21.3401 5.56575 21.4048 5.59344 21.4743 5.60086C21.8376 5.69276 22.1691 5.86219 22.4392 6.09394C22.6758 6.28688 22.8472 6.49769 23.3082 7.09439C23.7692 7.69109 25.8192 10.4763 25.9437 10.6674C25.9926 10.7389 25.8968 10.8461 25.7887 10.8461C25.7111 10.8461 25.6581 10.8014 25.5439 10.6442C25.4643 10.5335 24.9319 9.82063 24.3791 9.05957C22.3943 6.36906 22.2882 6.24401 21.7273 6.00104L21.4376 5.8742H20.5952C19.7425 5.8742 19.7425 5.8742 19.7221 5.9528C19.6099 6.38336 19.5875 6.48876 19.6119 6.50841C19.6364 6.52806 20.1117 6.7621 20.687 7.04437L21.7334 7.5571L21.6681 7.6768C21.6314 7.7429 21.5906 7.7965 21.5763 7.7965C21.5621 7.7965 20.6788 7.36594 19.6181 6.84249C18.5573 6.31904 17.6231 5.87777 17.5476 5.8599C17.2457 5.78666 16.7806 6.07965 16.7806 6.34405C16.7806 6.60846 16.8704 6.68885 18.7389 8.02875C19.9036 8.86484 20.5748 9.36685 20.6727 9.48476C20.9003 9.77072 21.0834 10.0819 21.2173 10.4102C21.3358 10.7241 21.5468 11.0051 21.8291 11.2247C22.1113 11.4443 22.4548 11.5947 22.8247 11.6608L23.092 11.7197L23.0695 11.8466C23.0641 11.8955 23.0511 11.9436 23.0308 11.9895C22.9961 12.0234 22.4596 11.8733 22.1495 11.7429C21.6509 11.529 21.2471 11.1766 21.0011 10.7407C21.0011 10.7407 20.7971 10.7943 20.5788 10.8675C20.1709 10.998 20.1505 11.0087 19.7629 11.3392C18.1188 12.7487 15.7566 13.6474 12.9069 13.9529C11.9942 14.015 11.0779 14.0287 10.1633 13.994ZM13.0007 13.5616C14.1662 13.4439 15.308 13.1885 16.3951 12.8023C17.4617 12.4291 18.4439 11.8925 19.2958 11.2177L19.5854 10.9765L18.8429 10.671C18.0637 10.3441 17.9862 10.2905 17.8862 9.99928C17.8585 9.89728 17.8628 9.7906 17.8987 9.69058C17.9346 9.59055 18.0008 9.50091 18.0902 9.43117L18.2452 9.28289L17.9066 9.05779C17.6394 8.87913 17.5558 8.80231 17.4986 8.6844C17.4575 8.59179 17.4434 8.49165 17.4577 8.39306C17.4719 8.29448 17.514 8.20057 17.5802 8.11986L17.6822 7.99302L16.6133 7.82865C16.0259 7.73754 15.4771 7.65 15.3894 7.62499C15.3011 7.59435 15.2221 7.54612 15.1587 7.4841C15.0953 7.42208 15.0493 7.34798 15.0243 7.26769C15.0019 7.18372 15.5261 4.9452 15.6363 4.62363C15.6771 4.54137 15.7381 4.468 15.8149 4.40872C15.8918 4.34943 15.9826 4.3057 16.0809 4.28062C16.2584 4.25203 19.408 4.73618 19.565 4.81657C19.8139 4.94342 19.8914 5.14708 19.8139 5.46151L19.7813 5.59193H19.9546C20.0505 5.59193 20.2769 5.58121 20.4585 5.5687L20.7889 5.54548L20.6482 5.27392C20.1566 4.47177 19.2611 3.66605 18.1575 3.01754C17.4348 2.62971 16.6719 2.30251 15.879 2.04031C14.8502 1.72852 13.7838 1.52171 12.7009 1.42396C11.7827 1.36857 10.8612 1.36857 9.94299 1.42396C8.6449 1.53494 7.3726 1.81306 6.16721 2.24934C3.59698 3.2087 1.86921 4.79871 1.42656 6.61024C1.3094 7.18289 1.30319 7.76873 1.40821 8.34317C1.64789 9.30402 2.19397 10.1856 2.98298 10.8854C4.67607 12.4468 7.26669 13.408 10.3632 13.6241C10.7712 13.6527 12.5785 13.6099 13.0007 13.5616ZM12.4357 11.8573C12.3466 11.8264 12.2675 11.7768 12.2053 11.713C12.1431 11.6491 12.0996 11.5729 12.0787 11.491C12.0563 11.3874 12.0787 11.3124 12.2521 11.0283C12.9156 9.94534 13.254 8.73243 13.2353 7.50351C13.2542 6.323 12.9388 5.15679 12.3174 4.10911C12.2163 3.94284 12.131 3.76955 12.0624 3.59102C12.0711 3.51593 12.0981 3.44336 12.1418 3.3783C12.1855 3.31324 12.2447 3.25721 12.3154 3.21406C12.4106 3.16782 12.5191 3.14675 12.6277 3.15341C12.7363 3.16007 12.8404 3.19417 12.9273 3.25158C13.05 3.39209 13.1553 3.5436 13.2415 3.70357C13.7153 4.52347 14.0355 5.40475 14.19 6.31368C14.2903 7.03584 14.3019 7.76534 14.2247 8.48967C14.0955 9.41116 13.7951 10.3079 13.3353 11.1444C13.0538 11.6518 12.8784 11.8591 12.7233 11.8591C12.6875 11.8603 12.6519 11.8651 12.6173 11.8733C12.5567 11.8782 12.4956 11.8721 12.4377 11.8555L12.4357 11.8573ZM10.5284 10.9908C10.404 10.9561 10.299 10.8818 10.2341 10.7826C10.1691 10.6833 10.149 10.5664 10.1776 10.4548C10.1939 10.4066 10.3102 10.1869 10.4346 9.96534C10.9508 9.06124 11.1711 8.04961 11.071 7.04258C11.0123 6.31989 10.7838 5.6156 10.3999 4.97379C10.1205 4.47177 10.1062 4.39495 10.2694 4.19129C10.3595 4.0975 10.4881 4.03854 10.6274 4.02717C10.7668 4.0158 10.9056 4.05294 11.0139 4.13055C11.1547 4.2431 11.5932 5.04525 11.7626 5.49903C12.3211 7.00329 12.2348 8.63424 11.5198 10.0868C11.1506 10.8425 10.8915 11.0766 10.5284 10.9801V10.9908ZM8.56201 10.0975C8.48231 10.0652 8.41175 10.0178 8.35534 9.95883C8.29893 9.89985 8.25805 9.8307 8.23563 9.75632C8.21319 9.67056 8.25195 9.57766 8.43961 9.25609C8.7649 8.72708 8.93705 8.13626 8.94096 7.53543C8.94487 6.9346 8.78043 6.3421 8.46205 5.80988C8.17851 5.30787 8.17239 5.20782 8.41106 5.00952C8.45158 4.96762 8.50339 4.93523 8.5618 4.91526C8.62021 4.8953 8.68338 4.8884 8.74559 4.89518C9.02505 4.89518 9.16988 5.01845 9.41875 5.46687C9.78818 6.10258 9.97313 6.8082 9.95727 7.52137C9.97496 8.23775 9.78326 8.9462 9.40039 9.57945C9.1658 9.99571 9.04953 10.1065 8.81495 10.1333C8.72868 10.1375 8.6424 10.1253 8.56201 10.0975ZM6.72613 9.27217C6.58417 9.20674 6.47723 9.09511 6.42831 8.96131C6.38343 8.82196 6.42831 8.7112 6.59966 8.45215C6.81529 8.1736 6.91603 7.83897 6.88524 7.50351C6.91756 7.16844 6.81824 6.83375 6.60374 6.55486C6.53438 6.45936 6.47563 6.35826 6.42831 6.25294C6.4024 6.13459 6.43065 6.01206 6.50698 5.91179C6.5833 5.81152 6.70158 5.74155 6.83628 5.71698C7.07495 5.67768 7.24425 5.77058 7.45844 6.07429C7.76932 6.50653 7.93428 7.00696 7.93428 7.5178C7.93428 8.02864 7.76932 8.52907 7.45844 8.96131C7.23405 9.26324 6.98519 9.37043 6.72205 9.27574L6.72613 9.27217ZM20.3932 10.6192C20.532 10.5792 20.6682 10.5327 20.8012 10.4799C20.7879 10.3878 20.7568 10.2984 20.7094 10.2155C20.5829 9.93854 20.6033 9.94569 20.1505 10.0207C19.6629 10.1029 19.3794 10.0207 18.845 9.68486C18.746 9.60979 18.6337 9.54944 18.5125 9.5062C18.4395 9.52548 18.3749 9.56344 18.3268 9.61518C18.2615 9.67386 18.2211 9.75045 18.2126 9.8321C18.204 9.91375 18.2278 9.99549 18.2799 10.0636C18.7829 10.3362 19.3185 10.5597 19.8771 10.73C20.0538 10.7082 20.2269 10.6686 20.3932 10.6121V10.6192ZM20.1892 9.72595C20.3932 9.69021 20.4095 9.6795 20.3749 9.62233C20.3402 9.56516 18.4798 8.2074 18.3187 8.13236C18.2918 8.11551 18.2614 8.10348 18.2291 8.09696C18.1969 8.09044 18.1635 8.08957 18.1309 8.09438C18.0983 8.09919 18.0671 8.10961 18.0391 8.12502C18.0112 8.14043 17.9869 8.16053 17.9678 8.18417C17.6455 8.4861 17.6843 8.54148 18.5186 9.10959C19.5263 9.78669 19.6344 9.8242 20.1872 9.72952L20.1892 9.72595ZM17.6986 7.67859C17.6986 7.66965 17.4946 7.51065 17.2314 7.32128C16.5991 6.86929 16.4604 6.70314 16.4604 6.35834C16.4707 6.20556 16.5287 6.05817 16.6279 5.93219C16.7272 5.80621 16.8639 5.70645 17.0234 5.64373C17.2282 5.56311 17.458 5.54487 17.6761 5.59193C17.7985 5.62766 18.3533 5.89028 19.1203 6.27616L19.2815 6.35834L19.4141 5.80988C19.5508 5.24355 19.5528 5.09527 19.4263 5.05954C19.3876 5.04882 18.6471 4.93091 17.7822 4.79692C16.2441 4.55931 16.0748 4.54502 16.0034 4.64685C15.9647 4.70045 15.3792 7.07653 15.3792 7.17657C15.3799 7.22862 15.4032 7.27848 15.4445 7.31592C15.8085 7.40813 16.1793 7.47856 16.5542 7.52673C17.6639 7.70538 17.6986 7.70538 17.6986 7.68216V7.67859Z" fill="#121212"/>
</svg>
