<svg width="22" height="17" viewBox="0 0 22 17" fill="none" xmlns="http://www.w3.org/2000/svg">
<g clip-path="url(#clip0_2107_1789)">
<path fill-rule="evenodd" clip-rule="evenodd" d="M16.8375 3.43213C15.4073 1.81917 13.3448 0.806641 11.0516 0.806641C8.75841 0.806641 6.69583 1.81917 5.26568 3.43213H16.8375ZM5.26568 14.219C6.69583 15.832 8.75841 16.8445 11.0516 16.8445C13.3448 16.8445 15.4073 15.832 16.8375 14.219H5.26568ZM4.05665 4.11394C2.13873 4.11394 0.583984 5.70855 0.583984 7.67565V9.9755C0.583984 11.9426 2.13873 13.5372 4.05665 13.5372H18.0465C19.9645 13.5372 21.5192 11.9426 21.5192 9.9755V7.67565C21.5192 5.70855 19.9645 4.11394 18.0465 4.11394H4.05665ZM21.162 7.63494C21.162 5.89265 19.785 4.48029 18.0862 4.48029H14.6136C12.9148 4.48029 11.5378 5.89265 11.5378 7.63494V10.0264C11.5378 11.7687 10.1607 13.181 8.46197 13.181H18.0862C19.785 13.181 21.162 11.7687 21.162 10.0264V7.63494ZM9.09698 7.84865V11.217H10.0892V7.84865H9.09698ZM8.99776 6.78522C8.99776 7.11963 9.26206 7.39071 9.58811 7.39071C9.91416 7.39071 10.1785 7.11963 10.1785 6.78522C10.1785 6.45081 9.91416 6.17973 9.58811 6.17973C9.26206 6.17973 8.99776 6.45081 8.99776 6.78522ZM2.37985 6.30185L3.65977 11.217H4.48329L5.44572 7.81812L6.40814 11.217H7.26142L8.52151 6.30185H7.55908L6.82486 9.53791L5.91205 6.30185H5.029L4.11618 9.4565L3.42165 6.30185H2.37985ZM13.1153 6.30185V11.217H14.1671V9.29368H16.5483V8.2964H14.1671V7.29913H16.7071V6.30185H13.1153ZM17.4215 7.84865V11.217H18.4136V7.84865H17.4215ZM17.3322 6.77505C17.3322 7.10945 17.5965 7.38054 17.9225 7.38054C18.2486 7.38054 18.5129 7.10945 18.5129 6.77505C18.5129 6.44064 18.2486 6.16956 17.9225 6.16956C17.5965 6.16956 17.3322 6.44064 17.3322 6.77505Z" fill="#868686"/>
</g>
<defs>
<clipPath id="clip0_2107_1789">
<rect width="20.9352" height="16.104" fill="white" transform="translate(0.583496 0.806641)"/>
</clipPath>
</defs>
</svg>
