<svg width="18" height="14" viewBox="0 0 18 14" fill="none" xmlns="http://www.w3.org/2000/svg">
<path fill-rule="evenodd" clip-rule="evenodd" d="M14.0604 2.55001C12.8833 1.22235 11.1855 0.388916 9.29794 0.388916C7.41038 0.388916 5.71262 1.22235 4.53543 2.55001H14.0604ZM4.53543 11.4289C5.71262 12.7566 7.41038 13.59 9.29794 13.59C11.1855 13.59 12.8833 12.7566 14.0604 11.4289H4.53543ZM3.54025 3.11123C1.96157 3.11123 0.681824 4.42378 0.681824 6.04295V7.936C0.681824 9.55517 1.96157 10.8677 3.54025 10.8677H15.0556C16.6343 10.8677 17.9141 9.55517 17.9141 7.936V6.04295C17.9141 4.42378 16.6343 3.11123 15.0556 3.11123H3.54025ZM17.62 6.00944C17.62 4.57533 16.4866 3.41278 15.0883 3.41278H12.2299C10.8316 3.41278 9.69812 4.57533 9.69812 6.00944V7.97788C9.69812 9.412 8.56463 10.5745 7.16637 10.5745H15.0883C16.4866 10.5745 17.62 9.412 17.62 7.97788V6.00944ZM7.68905 6.18535V8.95792H8.50575V6.18535H7.68905ZM7.60738 5.31002C7.60738 5.58528 7.82494 5.80841 8.09332 5.80841C8.36169 5.80841 8.57925 5.58528 8.57925 5.31002C8.57925 5.03476 8.36169 4.81163 8.09332 4.81163C7.82494 4.81163 7.60738 5.03476 7.60738 5.31002ZM2.16004 4.91214L3.21357 8.95792H3.89143L4.68362 6.16022L5.47581 8.95792H6.17817L7.21537 4.91214H6.42318L5.81883 7.57582L5.06747 4.91214H4.34061L3.58925 7.50881L3.01757 4.91214H2.16004ZM10.9967 4.91214V8.95792H11.8624V7.37479H13.8224V6.5539H11.8624V5.73302H13.9531V4.91214H10.9967ZM14.5411 6.18535V8.95792H15.3578V6.18535H14.5411ZM14.4676 5.30164C14.4676 5.5769 14.6852 5.80003 14.9535 5.80003C15.2219 5.80003 15.4395 5.5769 15.4395 5.30164C15.4395 5.02638 15.2219 4.80325 14.9535 4.80325C14.6852 4.80325 14.4676 5.02638 14.4676 5.30164Z" fill="white"/>
</svg>
