<svg width="24" height="24" viewBox="0 0 24 24" fill="none" xmlns="http://www.w3.org/2000/svg">
<path d="M12 23.5C18.3513 23.5 23.5 18.3513 23.5 12H22.5C22.5 17.799 17.799 22.5 12 22.5V23.5ZM23.5 12C23.5 5.64873 18.3513 0.5 12 0.5V1.5C17.799 1.5 22.5 6.20101 22.5 12H23.5ZM12 0.5C5.64873 0.5 0.5 5.64873 0.5 12H1.5C1.5 6.20101 6.20101 1.5 12 1.5V0.5ZM0.5 12C0.5 18.3513 5.64873 23.5 12 23.5V22.5C6.20101 22.5 1.5 17.799 1.5 12H0.5ZM14.6464 8.64645L11.6464 11.6464L12.3536 12.3536L15.3536 9.35355L14.6464 8.64645ZM11.6464 11.6464L8.64645 14.6464L9.35355 15.3536L12.3536 12.3536L11.6464 11.6464ZM8.64645 9.35355L11.6464 12.3536L12.3536 11.6464L9.35355 8.64645L8.64645 9.35355ZM11.6464 12.3536L14.6464 15.3536L15.3536 14.6464L12.3536 11.6464L11.6464 12.3536Z" fill="#111111"/>
</svg>
