<svg width="108" height="23" viewBox="0 0 108 23" fill="none" xmlns="http://www.w3.org/2000/svg">
<path fill-rule="evenodd" clip-rule="evenodd" d="M84.1444 22.6712L79.8627 6.93072L73.517 21.5006C73.2911 21.9729 73.0139 22.3426 72.6853 22.6096C72.3773 22.856 71.9871 22.9792 71.5148 22.9792C70.5907 22.9792 69.9233 22.4864 69.5126 21.5006L64.3789 10.3499L64.7381 22.6712H60.8261V1.60177C61.093 0.533923 61.7399 0 62.7667 0C63.1774 0 63.5573 0.112946 63.9064 0.338836C64.276 0.564726 64.5533 0.89329 64.7381 1.32454L71.638 17.1574L78.5376 1.32454C78.9078 0.441513 79.534 0 80.4169 0C81.3614 0 81.9876 0.533923 82.2962 1.60177L88.0255 22.6712H84.1444ZM10.8735 22.774C9.31285 22.774 7.86511 22.4865 6.53029 21.9115C5.21601 21.316 4.06602 20.5151 3.08032 19.5088C2.11515 18.4821 1.35535 17.2705 0.800882 15.8741C0.266961 14.4777 0 12.9683 0 11.346C0 9.70318 0.266961 8.2041 0.800882 6.84872C1.35535 5.49338 2.11515 4.34339 3.08032 3.39876C4.06602 2.43359 5.21601 1.69431 6.53029 1.18093C7.86511 0.647008 9.31285 0.380046 10.8735 0.380046H23.01V4.29205H10.8735C9.8673 4.29205 8.9329 4.47688 8.07048 4.84651C7.22849 5.19562 6.49948 5.68847 5.88341 6.32507C5.26735 6.96167 4.78476 7.72147 4.43566 8.60452C4.08656 9.4875 3.91201 10.463 3.91201 11.5308C3.91201 12.5781 4.08656 13.5535 4.43566 14.4571C4.78476 15.3607 5.26735 16.141 5.88341 16.7982C6.49948 17.4347 7.22849 17.9378 8.07048 18.3076C8.9329 18.6772 9.8673 18.862 10.8735 18.862H20.4533V13.0402H10.3499V9.74421H24.3962V22.774H10.8735ZM27.5903 22.774V0.380046H31.5023V22.774H27.5903ZM40.8542 21.9115C42.189 22.4865 43.6368 22.774 45.1974 22.774H58.7201V9.74421H44.6738V13.0402H54.7772V18.862H45.1974C44.1912 18.862 43.2568 18.6772 42.3943 18.3076C41.5524 17.9378 40.8234 17.4347 40.2073 16.7982C39.5913 16.141 39.1087 15.3607 38.7596 14.4571C38.4105 13.5535 38.2359 12.5781 38.2359 11.5308C38.2359 10.463 38.4105 9.4875 38.7596 8.60452C39.1087 7.72147 39.5913 6.96167 40.2073 6.32507C40.8234 5.68847 41.5524 5.19562 42.3943 4.84651C43.2568 4.47688 44.1912 4.29205 45.1974 4.29205H57.334V0.380046H45.1974C43.6368 0.380046 42.189 0.647008 40.8542 1.18093C39.54 1.69431 38.39 2.43359 37.4042 3.39876C36.439 4.34339 35.6793 5.49338 35.1248 6.84872C34.5909 8.2041 34.3239 9.70318 34.3239 11.346C34.3239 12.9683 34.5909 14.4777 35.1248 15.8741C35.6793 17.2705 36.439 18.4821 37.4042 19.5088C38.39 20.5151 39.54 21.316 40.8542 21.9115ZM100.283 20.4636C100.283 22.2009 99.1092 22.8663 98.0282 22.8663H98.0186C96.7068 22.8663 95.7735 21.9884 95.7735 20.5283C95.7735 19.0313 96.7157 18.1349 98.0839 18.1349C99.4327 18.1349 100.283 19.096 100.283 20.4636ZM97.3998 20.5006C97.3998 21.2122 97.5934 21.7204 98.0468 21.7204H98.0557C98.4622 21.7204 98.6566 21.2029 98.6566 20.5006C98.6566 19.8814 98.4904 19.2808 98.0468 19.2808C97.5571 19.2808 97.3998 19.9 97.3998 20.5006ZM95.4752 21.4986C95.2905 21.5818 95.0872 21.6095 94.8379 21.6095C94.2651 21.6095 93.8118 21.2214 93.8118 20.4821C93.8029 19.7982 94.2184 19.3732 94.8194 19.3732C95.1057 19.3732 95.3001 19.4194 95.4478 19.4748L95.66 18.2828C95.4018 18.1903 95.0412 18.1442 94.7273 18.1442C93.0817 18.1442 92.1951 19.1977 92.1951 20.5468C92.1951 22.0068 93.1003 22.857 94.5241 22.857C94.9855 22.857 95.4107 22.7831 95.6325 22.6907L95.4752 21.4986ZM90.9249 22.8663C91.4703 22.8663 91.8397 22.4782 91.8397 21.9145C91.8308 21.3323 91.4517 20.9534 90.9338 20.9534C90.4167 20.9534 90.019 21.3507 90.019 21.9145C90.019 22.4782 90.4071 22.8663 90.916 22.8663H90.9249ZM100.845 22.7739H102.407V20.1033C102.407 19.9831 102.416 19.8629 102.453 19.7706C102.527 19.6042 102.666 19.4286 102.915 19.4286C103.276 19.4286 103.386 19.7798 103.386 20.2049V22.7739H104.948V20.1033C104.948 20.0016 104.957 19.8629 104.985 19.789C105.059 19.5765 105.216 19.4286 105.456 19.4286C105.799 19.4286 105.928 19.7613 105.928 20.2973V22.7739H107.489V20.057C107.489 18.8557 107 18.1349 106.048 18.1349C105.761 18.1349 105.512 18.1996 105.29 18.3105C105.068 18.4306 104.874 18.6062 104.708 18.8187H104.689C104.514 18.4029 104.098 18.1349 103.534 18.1349C102.841 18.1349 102.444 18.523 102.259 18.7818H102.231L102.157 18.2273H100.808C100.827 18.6617 100.845 19.1791 100.845 19.7428V22.7739ZM86.0408 3.77845H85.2417V1.3527H84.525V0.664243H86.7708V1.3527H86.0408V3.77845ZM90.2564 3.77845H89.4989L89.4574 2.70188C89.4485 2.38306 89.4388 1.97646 89.4388 1.53751H89.4247C89.3468 1.92563 89.2266 2.3692 89.1435 2.66491L88.8616 3.71376H88.2517L88.0069 2.66954C87.9372 2.37382 87.8452 1.93488 87.7851 1.53751H87.7754C87.7621 1.82751 87.7495 2.13397 87.7376 2.40156V2.41073L87.7294 2.59473L87.725 2.70188L87.6782 3.77845H86.9578L87.1655 0.664243H88.1731L88.3764 1.54676C88.4595 1.90715 88.547 2.30451 88.6071 2.67877H88.6212C88.6947 2.30913 88.7919 1.88867 88.875 1.54213L89.0968 0.664243H90.0903L90.2564 3.77845Z" fill="#383838"/>
</svg>
