<svg width="107" height="23" viewBox="0 0 107 23" fill="none" xmlns="http://www.w3.org/2000/svg">
<g clip-path="url(#clip0_220_3135)">
<rect y="-4.16406" width="107" height="31" fill="white"/>
<path d="M8.5273 11.304V9.30298H2.13286C1.85474 9.30731 1.58023 9.36672 1.32521 9.47777C1.07019 9.58883 0.839703 9.74934 0.647085 9.95001C0.227159 10.4073 -0.00401918 11.0067 5.28943e-05 11.6275C0.0463243 12.177 0.29828 12.6887 0.705547 13.0604C1.11281 13.4322 1.64538 13.6365 2.19677 13.6325H8.5273V20.0269C8.5273 21.2571 9.62566 22.2237 10.7919 22.1598C11.3407 22.1125 11.8514 21.8602 12.2223 21.453C12.5932 21.0458 12.797 20.5138 12.7929 19.963V13.6325H10.7919C10.1831 13.623 9.60296 13.3726 9.17847 12.9362C8.75399 12.4997 8.51983 11.9128 8.5273 11.304Z" fill="#383838"/>
<path d="M21.2562 11.3043C21.209 10.7555 20.9566 10.2448 20.5494 9.87386C20.1423 9.50297 19.6102 9.29922 19.0595 9.30325H12.725V2.97272C12.725 1.74256 11.6266 0.776005 10.4643 0.83991C9.917 0.888027 9.40778 1.14024 9.03782 1.54646C8.66786 1.95268 8.46421 2.48319 8.46732 3.03263V9.36316H10.4643C11.0616 9.37042 11.6324 9.61092 12.0548 10.0333C12.4772 10.4557 12.7177 11.0265 12.725 11.6238V13.6288H19.1234C19.7025 13.6288 20.2217 13.3692 20.6092 12.9818C20.8247 12.7603 20.9931 12.4975 21.1043 12.2092C21.2155 11.9209 21.2672 11.6131 21.2562 11.3043Z" fill="#383838"/>
<path d="M10.4643 9.36708H8.46729V11.3721C8.47454 11.9694 8.71504 12.5402 9.13743 12.9626C9.55981 13.3849 10.1306 13.6254 10.7279 13.6327H12.7289V11.6277C12.736 11.3289 12.6824 11.0317 12.5713 10.7543C12.4602 10.4768 12.294 10.2247 12.0826 10.0134C11.8713 9.80202 11.6192 9.63576 11.3417 9.52467C11.0643 9.41358 10.7671 9.35997 10.4683 9.36708H10.4643Z" fill="#383838"/>
<path d="M27.7784 7.04278H30.1069C31.397 7.04278 33.0785 7.17059 33.5937 8.59247C34.1768 10.27 33.1424 11.7597 31.4649 12.0153L34.1089 16.281H32.751L30.2347 12.1472H28.8089V16.281H27.7744V7.04278H27.7784ZM28.8768 11.1127H29.8473C30.8179 11.1127 32.3036 11.1766 32.5633 10.0143C32.8828 8.52856 31.5248 8.07724 30.3665 8.07724H28.8129V11.1127H28.8768ZM40.9627 15.1826C39.9282 16.4767 37.9272 16.8601 36.5054 15.9575C35.2792 15.1187 34.8918 13.4412 35.3431 12.0832C35.8623 10.6614 37.2802 9.88653 38.766 10.0782C40.3836 10.3379 41.1584 11.6958 41.1584 13.2455V13.565H36.2457C36.3775 15.6339 38.9617 16.0893 40.1878 14.6035L40.9627 15.1826ZM40.1239 12.6664C40.06 10.3379 36.5693 10.4697 36.3096 12.6664H40.1239ZM42.8359 6.39575H43.8743V16.2171H42.8359V6.39575ZM46.5184 7.04278C47.4889 7.04278 47.4889 8.52856 46.5184 8.52856C45.5478 8.52856 45.5478 7.04278 46.5184 7.04278ZM45.9992 10.1421H47.0376V16.2171H45.9992V10.1461V10.1421ZM48.9108 10.9809C49.8174 10.0782 51.431 9.75473 52.5933 10.274C53.5638 10.6614 53.8874 11.6319 53.8874 12.6624V15.3104C53.8874 15.6339 53.9513 16.0214 53.9513 16.3489H52.9807C52.9168 16.0893 52.9168 15.7018 52.9168 15.4422C51.8824 17.1197 48.3956 16.8002 48.6512 14.4717C48.8469 12.6624 51.1075 12.5985 52.4655 12.5985H52.8529V12.4028C52.8529 10.6614 50.4605 10.8531 49.5578 11.7597L48.9108 10.9849V10.9809ZM51.8824 13.3094C51.3032 13.3094 50.4605 13.3733 50.0092 13.8286C49.6217 14.2121 49.6896 14.9869 50.141 15.3104C51.3671 16.2171 52.8529 14.9909 52.9168 13.6968V13.3094H51.8824ZM55.7566 11.6279C55.7566 11.0488 55.6927 10.5935 55.6927 10.2061H56.6632V11.2445C57.1824 10.1421 58.6003 9.88653 59.6348 10.2061C60.6053 10.5935 60.9927 11.564 60.9927 12.5346V16.281H60.0861V12.5985C60.0861 11.5001 59.3752 10.7213 58.2129 10.9849C57.1145 11.2405 56.791 12.275 56.791 13.3094V16.281H55.7566V11.6279ZM67.3233 11.6918C67.0245 11.3332 66.6127 11.0868 66.1554 10.9932C65.6982 10.8996 65.2227 10.9643 64.807 11.1766C64.4679 11.3723 64.1873 11.6551 63.9942 11.9957C63.8011 12.3362 63.7025 12.7222 63.7087 13.1137C63.7087 13.9525 64.0282 14.7952 64.807 15.2465C65.2205 15.4699 65.6995 15.5402 66.1597 15.4453C66.62 15.3503 67.032 15.0961 67.3233 14.7273L68.1021 15.4422C67.1955 16.4767 65.514 16.6684 64.3517 16.0893C63.2534 15.57 62.6742 14.4078 62.6742 13.2455C62.6556 12.6528 62.8028 12.0666 63.0992 11.5529C63.3955 11.0393 63.8293 10.6185 64.3517 10.3379C65.5819 9.75473 67.1955 9.95044 68.166 10.9849L67.3273 11.6918H67.3233ZM74.7522 15.1826C73.7177 16.4767 71.7167 16.8601 70.2948 15.9575C69.0687 15.1187 68.6772 13.4412 69.1326 12.0832C69.6518 10.6614 71.0697 9.88653 72.5554 10.0782C74.173 10.3379 74.9479 11.6958 74.9479 13.2455V13.565H70.0352C70.167 15.6339 72.7512 16.0893 73.9773 14.6035L74.7522 15.1826ZM73.8495 12.6664C73.7816 10.3379 70.2948 10.4697 70.0352 12.6664H73.8495Z" fill="#383838"/>
<path d="M76.6938 7.04242H77.7922V10.9166H82.7009V7.04242H83.7992V16.2806H82.7009V12.019H77.7882V16.2846H76.6938V7.04242ZM86.1238 7.04242H87.7373L90.8407 14.2796L94.008 7.04242H95.6215V16.2806H94.5232V8.52819L91.2281 16.2806H90.5811L87.286 8.52819V16.2806H86.1916V7.04242H86.1277H86.1238ZM97.3709 11.6276C97.3709 9.62655 98.5292 7.75335 100.47 7.04242C102.407 6.39538 104.672 6.91061 105.962 8.46429C107.192 10.014 107.32 12.3385 106.35 14.0839C105.315 15.8932 103.182 16.668 101.181 16.3445C98.9206 16.025 97.3709 13.9561 97.3709 11.6316V11.6276ZM105.834 11.6276C105.834 10.0779 104.996 8.5921 103.506 8.01296C102.78 7.72927 101.983 7.68275 101.228 7.88006C100.474 8.07738 99.8021 8.50839 99.308 9.11132C97.2391 11.7594 99.3719 15.9571 102.863 15.378C104.672 15.1183 105.834 13.4369 105.834 11.6276Z" fill="#383838"/>
</g>
<defs>
<clipPath id="clip0_220_3135">
<rect width="107" height="21.3281" fill="white" transform="translate(0 0.835938)"/>
</clipPath>
</defs>
</svg>
