<svg width="20" height="20" viewBox="0 0 20 20" fill="none" xmlns="http://www.w3.org/2000/svg">
<path fill-rule="evenodd" clip-rule="evenodd" d="M12.9166 7.99483L8.90617 12.0052L7.08325 10.1823" fill="#FFCC00"/>
<path fill-rule="evenodd" clip-rule="evenodd" d="M9.99992 19.1667C15.0625 19.1667 19.1666 15.0626 19.1666 10C19.1666 4.93743 15.0625 0.833374 9.99992 0.833374C4.93731 0.833374 0.833252 4.93743 0.833252 10C0.833252 15.0626 4.93731 19.1667 9.99992 19.1667Z" fill="#FFCC00"/>
<path d="M12.9166 7.99483L8.90617 12.0052L7.08325 10.1823M9.99992 19.1667C15.0625 19.1667 19.1666 15.0626 19.1666 10C19.1666 4.93743 15.0625 0.833374 9.99992 0.833374C4.93731 0.833374 0.833252 4.93743 0.833252 10C0.833252 15.0626 4.93731 19.1667 9.99992 19.1667Z" stroke="#121212" stroke-linecap="round" stroke-linejoin="round"/>
</svg>
