<svg width="216" height="189" viewBox="0 0 216 189" fill="none" xmlns="http://www.w3.org/2000/svg">
<g filter="url(#filter0_d_15100_68408)">
<rect x="10" y="6" width="196" height="169" rx="5" fill="white" shape-rendering="crispEdges"/>
<path d="M103.938 68.9277L121.271 51.5943L119.646 50.037L103.938 65.8131L96.016 57.8912L94.4587 59.4485L103.938 68.9277ZM107.933 82.8079C104.592 82.8079 101.444 82.1646 98.4873 80.8782C95.5307 79.5917 92.9465 77.8426 90.7347 75.6308C88.5229 73.419 86.7738 70.8461 85.4873 67.912C84.2008 64.978 83.5576 61.8183 83.5576 58.4329C83.5576 55.0474 84.2008 51.8764 85.4873 48.9198C86.7738 45.9632 88.5229 43.3903 90.7347 41.2011C92.9465 39.0119 95.5194 37.274 98.4535 35.9875C101.387 34.7011 104.547 34.0579 107.933 34.0579C111.318 34.0579 114.489 34.7011 117.446 35.9875C120.402 37.274 122.975 39.0119 125.164 41.2011C127.354 43.3903 129.091 45.9632 130.378 48.9198C131.664 51.8764 132.308 55.0474 132.308 58.4329C132.308 61.7731 131.664 64.9216 130.378 67.8782C129.091 70.8348 127.354 73.419 125.164 75.6308C122.975 77.8426 120.402 79.5917 117.446 80.8782C114.489 82.1646 111.318 82.8079 107.933 82.8079ZM107.933 80.7089C114.117 80.7089 119.375 78.5422 123.709 74.2089C128.042 69.8756 130.209 64.6169 130.209 58.4329C130.209 52.2488 128.042 46.9902 123.709 42.6568C119.375 38.3235 114.117 36.1568 107.933 36.1568C101.749 36.1568 96.4899 38.3235 92.1566 42.6568C87.8232 46.9902 85.6566 52.2488 85.6566 58.4329C85.6566 64.6169 87.8232 69.8756 92.1566 74.2089C96.4899 78.5422 101.749 80.7089 107.933 80.7089Z" fill="#11BB00"/>
<path d="M33.2997 122V110.364H37.2315C38.1444 110.364 38.8906 110.528 39.4702 110.858C40.0535 111.184 40.4853 111.625 40.7656 112.182C41.0459 112.739 41.1861 113.36 41.1861 114.045C41.1861 114.731 41.0459 115.354 40.7656 115.915C40.4891 116.475 40.0611 116.922 39.4815 117.256C38.902 117.585 38.1596 117.75 37.2543 117.75H34.4361V116.5H37.2088C37.8338 116.5 38.3357 116.392 38.7145 116.176C39.0933 115.96 39.3679 115.669 39.5384 115.301C39.7126 114.93 39.7997 114.511 39.7997 114.045C39.7997 113.58 39.7126 113.163 39.5384 112.795C39.3679 112.428 39.0914 112.14 38.7088 111.932C38.3262 111.72 37.8187 111.614 37.1861 111.614H34.7088V122H33.2997ZM46.4759 122.182C45.7486 122.182 45.1065 121.998 44.5497 121.631C43.9929 121.259 43.5573 120.737 43.2429 120.062C42.9285 119.384 42.7713 118.583 42.7713 117.659C42.7713 116.742 42.9285 115.947 43.2429 115.273C43.5573 114.598 43.9948 114.078 44.5554 113.71C45.116 113.343 45.7637 113.159 46.4986 113.159C47.0668 113.159 47.5156 113.254 47.8452 113.443C48.1785 113.629 48.4323 113.841 48.6065 114.08C48.7846 114.314 48.9228 114.508 49.0213 114.659H49.1349V113.273H50.4759V122H49.1804V120.659H49.0213C48.9228 120.818 48.7827 121.019 48.6009 121.261C48.419 121.5 48.1596 121.714 47.8224 121.903C47.4853 122.089 47.0365 122.182 46.4759 122.182ZM46.6577 120.977C47.1955 120.977 47.6501 120.837 48.0213 120.557C48.3925 120.273 48.6747 119.881 48.8679 119.381C49.0611 118.877 49.1577 118.295 49.1577 117.636C49.1577 116.985 49.063 116.415 48.8736 115.926C48.6842 115.434 48.4039 115.051 48.0327 114.778C47.6615 114.502 47.2031 114.364 46.6577 114.364C46.0895 114.364 45.616 114.509 45.2372 114.801C44.8622 115.089 44.58 115.481 44.3906 115.977C44.205 116.47 44.1122 117.023 44.1122 117.636C44.1122 118.258 44.2069 118.822 44.3963 119.33C44.5895 119.833 44.8736 120.235 45.2486 120.534C45.6274 120.83 46.0971 120.977 46.6577 120.977ZM53.9815 125.273C53.7543 125.273 53.5516 125.254 53.3736 125.216C53.1955 125.182 53.0724 125.148 53.0043 125.114L53.3452 123.932C53.6709 124.015 53.9588 124.045 54.2088 124.023C54.4588 124 54.6804 123.888 54.8736 123.688C55.0705 123.491 55.2505 123.17 55.4134 122.727L55.6634 122.045L52.4361 113.273H53.8906L56.2997 120.227H56.3906L58.7997 113.273H60.2543L56.5497 123.273C56.383 123.723 56.1766 124.097 55.9304 124.392C55.6842 124.691 55.3982 124.913 55.0724 125.057C54.7505 125.201 54.3868 125.273 53.9815 125.273ZM62.0241 122V113.273H63.3196V114.636H63.4332C63.6151 114.17 63.9086 113.809 64.3139 113.551C64.7192 113.29 65.206 113.159 65.7741 113.159C66.3499 113.159 66.8291 113.29 67.2116 113.551C67.598 113.809 67.8991 114.17 68.1151 114.636H68.206C68.4295 114.186 68.7647 113.828 69.2116 113.562C69.6586 113.294 70.1946 113.159 70.8196 113.159C71.5999 113.159 72.2382 113.403 72.7344 113.892C73.2306 114.377 73.4787 115.133 73.4787 116.159V122H72.1378V116.159C72.1378 115.515 71.9616 115.055 71.6094 114.778C71.2571 114.502 70.8423 114.364 70.3651 114.364C69.7514 114.364 69.276 114.549 68.9389 114.92C68.6018 115.288 68.4332 115.754 68.4332 116.318V122H67.0696V116.023C67.0696 115.527 66.9086 115.127 66.5866 114.824C66.2647 114.517 65.8499 114.364 65.3423 114.364C64.9938 114.364 64.6681 114.456 64.3651 114.642C64.0658 114.828 63.8234 115.085 63.6378 115.415C63.456 115.741 63.3651 116.117 63.3651 116.545V122H62.0241ZM79.5895 122.182C78.7486 122.182 78.0232 121.996 77.4134 121.625C76.8073 121.25 76.3395 120.727 76.0099 120.057C75.6842 119.383 75.5213 118.598 75.5213 117.705C75.5213 116.811 75.6842 116.023 76.0099 115.341C76.3395 114.655 76.7978 114.121 77.3849 113.739C77.9759 113.352 78.6652 113.159 79.4531 113.159C79.9077 113.159 80.3565 113.235 80.7997 113.386C81.2429 113.538 81.6463 113.784 82.0099 114.125C82.3736 114.462 82.6634 114.909 82.8793 115.466C83.0952 116.023 83.2031 116.708 83.2031 117.523V118.091H76.4759V116.932H81.8395C81.8395 116.439 81.741 116 81.544 115.614C81.3509 115.227 81.0743 114.922 80.7145 114.699C80.3584 114.475 79.938 114.364 79.4531 114.364C78.919 114.364 78.4569 114.496 78.0668 114.761C77.6804 115.023 77.383 115.364 77.1747 115.784C76.9664 116.205 76.8622 116.655 76.8622 117.136V117.909C76.8622 118.568 76.9759 119.127 77.2031 119.585C77.4342 120.04 77.7543 120.386 78.1634 120.625C78.5724 120.86 79.0478 120.977 79.5895 120.977C79.9418 120.977 80.2599 120.928 80.544 120.83C80.8319 120.727 81.08 120.576 81.2884 120.375C81.4967 120.17 81.6577 119.917 81.7713 119.614L83.0668 119.977C82.9304 120.417 82.7012 120.803 82.3793 121.136C82.0573 121.466 81.6596 121.723 81.1861 121.909C80.7126 122.091 80.1804 122.182 79.5895 122.182ZM86.5838 116.75V122H85.2429V113.273H86.5384V114.636H86.652C86.8565 114.193 87.1671 113.837 87.5838 113.568C88.0005 113.295 88.5384 113.159 89.1974 113.159C89.7884 113.159 90.3054 113.28 90.7486 113.523C91.1918 113.761 91.5365 114.125 91.7827 114.614C92.0289 115.098 92.152 115.712 92.152 116.455V122H90.8111V116.545C90.8111 115.86 90.633 115.326 90.277 114.943C89.9209 114.557 89.4323 114.364 88.8111 114.364C88.383 114.364 88.0005 114.456 87.6634 114.642C87.33 114.828 87.0668 115.098 86.8736 115.455C86.6804 115.811 86.5838 116.242 86.5838 116.75ZM98.3977 113.273V114.409H93.875V113.273H98.3977ZM95.1932 111.182H96.5341V119.5C96.5341 119.879 96.589 120.163 96.6989 120.352C96.8125 120.538 96.9564 120.663 97.1307 120.727C97.3087 120.788 97.4962 120.818 97.6932 120.818C97.8409 120.818 97.9621 120.811 98.0568 120.795C98.1515 120.777 98.2273 120.761 98.2841 120.75L98.5568 121.955C98.4659 121.989 98.339 122.023 98.1761 122.057C98.0133 122.095 97.8068 122.114 97.5568 122.114C97.178 122.114 96.8068 122.032 96.4432 121.869C96.0833 121.706 95.7841 121.458 95.5455 121.125C95.3106 120.792 95.1932 120.371 95.1932 119.864V111.182ZM111.097 115.227L109.892 115.568C109.816 115.367 109.705 115.172 109.557 114.983C109.413 114.79 109.216 114.631 108.966 114.506C108.716 114.381 108.396 114.318 108.006 114.318C107.472 114.318 107.027 114.441 106.67 114.688C106.318 114.93 106.142 115.239 106.142 115.614C106.142 115.947 106.263 116.21 106.506 116.403C106.748 116.597 107.127 116.758 107.642 116.886L108.938 117.205C109.718 117.394 110.299 117.684 110.682 118.074C111.064 118.46 111.256 118.958 111.256 119.568C111.256 120.068 111.112 120.515 110.824 120.909C110.54 121.303 110.142 121.614 109.631 121.841C109.119 122.068 108.525 122.182 107.847 122.182C106.956 122.182 106.22 121.989 105.636 121.602C105.053 121.216 104.684 120.652 104.528 119.909L105.801 119.591C105.922 120.061 106.152 120.413 106.489 120.648C106.83 120.883 107.275 121 107.824 121C108.449 121 108.945 120.867 109.312 120.602C109.684 120.333 109.869 120.011 109.869 119.636C109.869 119.333 109.763 119.08 109.551 118.875C109.339 118.667 109.013 118.511 108.574 118.409L107.119 118.068C106.32 117.879 105.733 117.585 105.358 117.188C104.987 116.786 104.801 116.284 104.801 115.682C104.801 115.189 104.939 114.754 105.216 114.375C105.496 113.996 105.877 113.699 106.358 113.483C106.843 113.267 107.392 113.159 108.006 113.159C108.869 113.159 109.547 113.348 110.04 113.727C110.536 114.106 110.888 114.606 111.097 115.227ZM118.774 118.432V113.273H120.115V122H118.774V120.523H118.683C118.479 120.966 118.161 121.343 117.729 121.653C117.297 121.96 116.751 122.114 116.092 122.114C115.547 122.114 115.062 121.994 114.638 121.756C114.214 121.513 113.88 121.15 113.638 120.665C113.395 120.176 113.274 119.561 113.274 118.818V113.273H114.615V118.727C114.615 119.364 114.793 119.871 115.149 120.25C115.509 120.629 115.967 120.818 116.524 120.818C116.857 120.818 117.196 120.733 117.541 120.562C117.89 120.392 118.181 120.131 118.416 119.778C118.655 119.426 118.774 118.977 118.774 118.432ZM126.116 122.182C125.298 122.182 124.594 121.989 124.003 121.602C123.412 121.216 122.957 120.684 122.639 120.006C122.321 119.328 122.162 118.553 122.162 117.682C122.162 116.795 122.325 116.013 122.651 115.335C122.98 114.653 123.438 114.121 124.026 113.739C124.616 113.352 125.306 113.159 126.094 113.159C126.707 113.159 127.26 113.273 127.753 113.5C128.245 113.727 128.649 114.045 128.963 114.455C129.277 114.864 129.473 115.341 129.548 115.886H128.207C128.105 115.489 127.878 115.136 127.526 114.83C127.177 114.519 126.707 114.364 126.116 114.364C125.594 114.364 125.135 114.5 124.741 114.773C124.351 115.042 124.046 115.422 123.827 115.915C123.611 116.403 123.503 116.977 123.503 117.636C123.503 118.311 123.609 118.898 123.821 119.398C124.037 119.898 124.34 120.286 124.73 120.562C125.124 120.839 125.586 120.977 126.116 120.977C126.465 120.977 126.781 120.917 127.065 120.795C127.349 120.674 127.59 120.5 127.787 120.273C127.984 120.045 128.124 119.773 128.207 119.455H129.548C129.473 119.97 129.285 120.434 128.986 120.847C128.69 121.256 128.298 121.581 127.81 121.824C127.325 122.062 126.76 122.182 126.116 122.182ZM135.054 122.182C134.236 122.182 133.531 121.989 132.94 121.602C132.349 121.216 131.895 120.684 131.577 120.006C131.259 119.328 131.099 118.553 131.099 117.682C131.099 116.795 131.262 116.013 131.588 115.335C131.918 114.653 132.376 114.121 132.963 113.739C133.554 113.352 134.243 113.159 135.031 113.159C135.645 113.159 136.198 113.273 136.69 113.5C137.183 113.727 137.586 114.045 137.901 114.455C138.215 114.864 138.41 115.341 138.486 115.886H137.145C137.043 115.489 136.815 115.136 136.463 114.83C136.115 114.519 135.645 114.364 135.054 114.364C134.531 114.364 134.073 114.5 133.679 114.773C133.289 115.042 132.984 115.422 132.764 115.915C132.548 116.403 132.44 116.977 132.44 117.636C132.44 118.311 132.546 118.898 132.759 119.398C132.974 119.898 133.277 120.286 133.668 120.562C134.062 120.839 134.524 120.977 135.054 120.977C135.402 120.977 135.719 120.917 136.003 120.795C136.287 120.674 136.527 120.5 136.724 120.273C136.921 120.045 137.062 119.773 137.145 119.455H138.486C138.41 119.97 138.223 120.434 137.923 120.847C137.628 121.256 137.236 121.581 136.747 121.824C136.262 122.062 135.698 122.182 135.054 122.182ZM144.105 122.182C143.264 122.182 142.539 121.996 141.929 121.625C141.323 121.25 140.855 120.727 140.526 120.057C140.2 119.383 140.037 118.598 140.037 117.705C140.037 116.811 140.2 116.023 140.526 115.341C140.855 114.655 141.313 114.121 141.901 113.739C142.491 113.352 143.181 113.159 143.969 113.159C144.423 113.159 144.872 113.235 145.315 113.386C145.759 113.538 146.162 113.784 146.526 114.125C146.889 114.462 147.179 114.909 147.395 115.466C147.611 116.023 147.719 116.708 147.719 117.523V118.091H140.991V116.932H146.355C146.355 116.439 146.257 116 146.06 115.614C145.866 115.227 145.59 114.922 145.23 114.699C144.874 114.475 144.454 114.364 143.969 114.364C143.435 114.364 142.973 114.496 142.582 114.761C142.196 115.023 141.899 115.364 141.69 115.784C141.482 116.205 141.378 116.655 141.378 117.136V117.909C141.378 118.568 141.491 119.127 141.719 119.585C141.95 120.04 142.27 120.386 142.679 120.625C143.088 120.86 143.563 120.977 144.105 120.977C144.457 120.977 144.776 120.928 145.06 120.83C145.348 120.727 145.596 120.576 145.804 120.375C146.012 120.17 146.173 119.917 146.287 119.614L147.582 119.977C147.446 120.417 147.217 120.803 146.895 121.136C146.573 121.466 146.175 121.723 145.702 121.909C145.228 122.091 144.696 122.182 144.105 122.182ZM155.94 115.227L154.736 115.568C154.66 115.367 154.548 115.172 154.401 114.983C154.257 114.79 154.06 114.631 153.81 114.506C153.56 114.381 153.24 114.318 152.849 114.318C152.315 114.318 151.87 114.441 151.514 114.688C151.162 114.93 150.986 115.239 150.986 115.614C150.986 115.947 151.107 116.21 151.349 116.403C151.592 116.597 151.971 116.758 152.486 116.886L153.781 117.205C154.562 117.394 155.143 117.684 155.526 118.074C155.908 118.46 156.099 118.958 156.099 119.568C156.099 120.068 155.955 120.515 155.668 120.909C155.384 121.303 154.986 121.614 154.474 121.841C153.963 122.068 153.368 122.182 152.69 122.182C151.8 122.182 151.063 121.989 150.48 121.602C149.897 121.216 149.527 120.652 149.372 119.909L150.645 119.591C150.766 120.061 150.995 120.413 151.332 120.648C151.673 120.883 152.118 121 152.668 121C153.293 121 153.789 120.867 154.156 120.602C154.527 120.333 154.713 120.011 154.713 119.636C154.713 119.333 154.607 119.08 154.395 118.875C154.183 118.667 153.857 118.511 153.418 118.409L151.963 118.068C151.164 117.879 150.577 117.585 150.202 117.188C149.83 116.786 149.645 116.284 149.645 115.682C149.645 115.189 149.783 114.754 150.06 114.375C150.34 113.996 150.721 113.699 151.202 113.483C151.687 113.267 152.236 113.159 152.849 113.159C153.713 113.159 154.391 113.348 154.884 113.727C155.38 114.106 155.732 114.606 155.94 115.227ZM164.3 115.227L163.095 115.568C163.019 115.367 162.908 115.172 162.76 114.983C162.616 114.79 162.419 114.631 162.169 114.506C161.919 114.381 161.599 114.318 161.209 114.318C160.675 114.318 160.23 114.441 159.874 114.688C159.521 114.93 159.345 115.239 159.345 115.614C159.345 115.947 159.466 116.21 159.709 116.403C159.951 116.597 160.33 116.758 160.845 116.886L162.141 117.205C162.921 117.394 163.502 117.684 163.885 118.074C164.268 118.46 164.459 118.958 164.459 119.568C164.459 120.068 164.315 120.515 164.027 120.909C163.743 121.303 163.345 121.614 162.834 121.841C162.322 122.068 161.728 122.182 161.05 122.182C160.16 122.182 159.423 121.989 158.839 121.602C158.256 121.216 157.887 120.652 157.732 119.909L159.004 119.591C159.125 120.061 159.355 120.413 159.692 120.648C160.033 120.883 160.478 121 161.027 121C161.652 121 162.148 120.867 162.516 120.602C162.887 120.333 163.072 120.011 163.072 119.636C163.072 119.333 162.966 119.08 162.754 118.875C162.542 118.667 162.216 118.511 161.777 118.409L160.322 118.068C159.523 117.879 158.936 117.585 158.561 117.188C158.19 116.786 158.004 116.284 158.004 115.682C158.004 115.189 158.143 114.754 158.419 114.375C158.699 113.996 159.08 113.699 159.561 113.483C160.046 113.267 160.595 113.159 161.209 113.159C162.072 113.159 162.75 113.348 163.243 113.727C163.739 114.106 164.091 114.606 164.3 115.227ZM170.364 113.273V114.409H165.659V113.273H170.364ZM167.068 122V112.068C167.068 111.568 167.186 111.152 167.42 110.818C167.655 110.485 167.96 110.235 168.335 110.068C168.71 109.902 169.106 109.818 169.523 109.818C169.852 109.818 170.121 109.845 170.33 109.898C170.538 109.951 170.693 110 170.795 110.045L170.409 111.205C170.341 111.182 170.246 111.153 170.125 111.119C170.008 111.085 169.852 111.068 169.659 111.068C169.216 111.068 168.896 111.18 168.699 111.403C168.506 111.627 168.409 111.955 168.409 112.386V122H167.068ZM177.743 118.432V113.273H179.084V122H177.743V120.523H177.652C177.447 120.966 177.129 121.343 176.697 121.653C176.266 121.96 175.72 122.114 175.061 122.114C174.516 122.114 174.031 121.994 173.607 121.756C173.182 121.513 172.849 121.15 172.607 120.665C172.364 120.176 172.243 119.561 172.243 118.818V113.273H173.584V118.727C173.584 119.364 173.762 119.871 174.118 120.25C174.478 120.629 174.936 120.818 175.493 120.818C175.826 120.818 176.165 120.733 176.51 120.562C176.858 120.392 177.15 120.131 177.385 119.778C177.624 119.426 177.743 118.977 177.743 118.432ZM182.881 110.364V122H181.54V110.364H182.881Z" fill="#121212"/>
<path d="M89.7425 144.537V145.531H79.6004V144.537H89.7425ZM89.7425 146.685V147.679H79.6004V146.685H89.7425ZM88.7084 140.818V151H87.5152L81.9669 143.006H81.8675V151H80.6345V140.818H81.8277L87.3959 148.832H87.4953V140.818H88.7084ZM94.2915 151.139C93.7081 151.139 93.1828 151.023 92.7155 150.791C92.2481 150.559 91.8736 150.241 91.5919 149.837C91.3102 149.432 91.156 148.972 91.1295 148.455H92.3227C92.3691 148.915 92.5779 149.296 92.9491 149.598C93.3237 149.896 93.7711 150.045 94.2915 150.045C94.7091 150.045 95.0803 149.948 95.4051 149.752C95.7332 149.557 95.9901 149.288 96.1757 148.947C96.3646 148.602 96.4591 148.213 96.4591 147.778C96.4591 147.334 96.3613 146.938 96.1657 146.59C95.9735 146.239 95.7084 145.962 95.3703 145.76C95.0322 145.558 94.6461 145.455 94.2119 145.452C93.9004 145.448 93.5805 145.496 93.2524 145.596C92.9243 145.692 92.6541 145.816 92.442 145.969L91.2886 145.83L91.9051 140.818H97.1949V141.912H92.9392L92.5812 144.915H92.6409C92.8497 144.749 93.1115 144.612 93.4264 144.502C93.7413 144.393 94.0694 144.338 94.4108 144.338C95.0339 144.338 95.589 144.487 96.0763 144.786C96.5668 145.08 96.9513 145.485 97.2297 145.999C97.5114 146.512 97.6523 147.099 97.6523 147.759C97.6523 148.408 97.5064 148.988 97.2148 149.499C96.9264 150.006 96.5287 150.407 96.0216 150.702C95.5145 150.993 94.9378 151.139 94.2915 151.139ZM102.948 151.139C102.199 151.139 101.561 150.935 101.034 150.528C100.507 150.117 100.104 149.522 99.8261 148.743C99.5477 147.961 99.4085 147.016 99.4085 145.909C99.4085 144.809 99.5477 143.869 99.8261 143.09C100.108 142.308 100.512 141.711 101.039 141.3C101.569 140.886 102.206 140.679 102.948 140.679C103.691 140.679 104.325 140.886 104.852 141.3C105.383 141.711 105.787 142.308 106.065 143.09C106.347 143.869 106.488 144.809 106.488 145.909C106.488 147.016 106.349 147.961 106.07 148.743C105.792 149.522 105.389 150.117 104.862 150.528C104.335 150.935 103.697 151.139 102.948 151.139ZM102.948 150.045C103.691 150.045 104.267 149.687 104.678 148.972C105.089 148.256 105.295 147.235 105.295 145.909C105.295 145.027 105.2 144.277 105.011 143.657C104.826 143.037 104.557 142.565 104.206 142.24C103.858 141.915 103.439 141.753 102.948 141.753C102.212 141.753 101.637 142.116 101.223 142.842C100.809 143.564 100.602 144.587 100.602 145.909C100.602 146.791 100.694 147.54 100.88 148.156C101.066 148.773 101.332 149.242 101.68 149.563C102.032 149.885 102.454 150.045 102.948 150.045ZM111.698 151.139C110.949 151.139 110.311 150.935 109.784 150.528C109.257 150.117 108.854 149.522 108.576 148.743C108.298 147.961 108.158 147.016 108.158 145.909C108.158 144.809 108.298 143.869 108.576 143.09C108.858 142.308 109.262 141.711 109.789 141.3C110.319 140.886 110.956 140.679 111.698 140.679C112.441 140.679 113.075 140.886 113.602 141.3C114.133 141.711 114.537 142.308 114.815 143.09C115.097 143.869 115.238 144.809 115.238 145.909C115.238 147.016 115.099 147.961 114.82 148.743C114.542 149.522 114.139 150.117 113.612 150.528C113.085 150.935 112.447 151.139 111.698 151.139ZM111.698 150.045C112.441 150.045 113.017 149.687 113.428 148.972C113.839 148.256 114.045 147.235 114.045 145.909C114.045 145.027 113.95 144.277 113.761 143.657C113.576 143.037 113.307 142.565 112.956 142.24C112.608 141.915 112.189 141.753 111.698 141.753C110.962 141.753 110.387 142.116 109.973 142.842C109.559 143.564 109.352 144.587 109.352 145.909C109.352 146.791 109.444 147.54 109.63 148.156C109.816 148.773 110.082 149.242 110.43 149.563C110.782 149.885 111.204 150.045 111.698 150.045ZM117.647 151.08C117.401 151.08 117.191 150.992 117.015 150.816C116.84 150.64 116.752 150.43 116.752 150.185C116.752 149.939 116.84 149.729 117.015 149.553C117.191 149.378 117.401 149.29 117.647 149.29C117.892 149.29 118.102 149.378 118.278 149.553C118.454 149.729 118.542 149.939 118.542 150.185C118.542 150.347 118.5 150.496 118.417 150.632C118.338 150.768 118.23 150.877 118.094 150.96C117.962 151.04 117.812 151.08 117.647 151.08ZM123.593 151.139C122.844 151.139 122.206 150.935 121.679 150.528C121.152 150.117 120.749 149.522 120.471 148.743C120.192 147.961 120.053 147.016 120.053 145.909C120.053 144.809 120.192 143.869 120.471 143.09C120.752 142.308 121.157 141.711 121.684 141.3C122.214 140.886 122.85 140.679 123.593 140.679C124.335 140.679 124.97 140.886 125.497 141.3C126.027 141.711 126.432 142.308 126.71 143.09C126.992 143.869 127.133 144.809 127.133 145.909C127.133 147.016 126.993 147.961 126.715 148.743C126.437 149.522 126.034 150.117 125.507 150.528C124.98 150.935 124.342 151.139 123.593 151.139ZM123.593 150.045C124.335 150.045 124.912 149.687 125.323 148.972C125.734 148.256 125.939 147.235 125.939 145.909C125.939 145.027 125.845 144.277 125.656 143.657C125.47 143.037 125.202 142.565 124.851 142.24C124.503 141.915 124.083 141.753 123.593 141.753C122.857 141.753 122.282 142.116 121.868 142.842C121.453 143.564 121.246 144.587 121.246 145.909C121.246 146.791 121.339 147.54 121.525 148.156C121.71 148.773 121.977 149.242 122.325 149.563C122.676 149.885 123.099 150.045 123.593 150.045ZM132.343 151.139C131.594 151.139 130.956 150.935 130.429 150.528C129.902 150.117 129.499 149.522 129.221 148.743C128.942 147.961 128.803 147.016 128.803 145.909C128.803 144.809 128.942 143.869 129.221 143.09C129.502 142.308 129.907 141.711 130.434 141.3C130.964 140.886 131.6 140.679 132.343 140.679C133.085 140.679 133.72 140.886 134.247 141.3C134.777 141.711 135.182 142.308 135.46 143.09C135.742 143.869 135.883 144.809 135.883 145.909C135.883 147.016 135.743 147.961 135.465 148.743C135.187 149.522 134.784 150.117 134.257 150.528C133.73 150.935 133.092 151.139 132.343 151.139ZM132.343 150.045C133.085 150.045 133.662 149.687 134.073 148.972C134.484 148.256 134.689 147.235 134.689 145.909C134.689 145.027 134.595 144.277 134.406 143.657C134.22 143.037 133.952 142.565 133.601 142.24C133.253 141.915 132.833 141.753 132.343 141.753C131.607 141.753 131.032 142.116 130.618 142.842C130.203 143.564 129.996 144.587 129.996 145.909C129.996 146.791 130.089 147.54 130.275 148.156C130.46 148.773 130.727 149.242 131.075 149.563C131.426 149.885 131.849 150.045 132.343 150.045Z" fill="#555555"/>
</g>
<defs>
<filter id="filter0_d_15100_68408" x="0" y="0" width="216" height="189" filterUnits="userSpaceOnUse" color-interpolation-filters="sRGB">
<feFlood flood-opacity="0" result="BackgroundImageFix"/>
<feColorMatrix in="SourceAlpha" type="matrix" values="0 0 0 0 0 0 0 0 0 0 0 0 0 0 0 0 0 0 127 0" result="hardAlpha"/>
<feOffset dy="4"/>
<feGaussianBlur stdDeviation="5"/>
<feComposite in2="hardAlpha" operator="out"/>
<feColorMatrix type="matrix" values="0 0 0 0 0.219608 0 0 0 0 0.219608 0 0 0 0 0.219608 0 0 0 0.1 0"/>
<feBlend mode="normal" in2="BackgroundImageFix" result="effect1_dropShadow_15100_68408"/>
<feBlend mode="normal" in="SourceGraphic" in2="effect1_dropShadow_15100_68408" result="shape"/>
</filter>
</defs>
</svg>
