<svg width="70" height="70" viewBox="0 0 70 70" fill="none" xmlns="http://www.w3.org/2000/svg">
<mask id="mask0_4850_26326" style="mask-type:luminance" maskUnits="userSpaceOnUse" x="0" y="-1" width="70" height="71">
<path d="M2.41377 26.5513H0V28.9651H2.41377V26.5513Z" fill="white"/>
<path d="M2.41377 31.3792H0V33.7929H2.41377V31.3792Z" fill="white"/>
<path d="M4.82783 19.3103H2.41406V21.7241H4.82783V19.3103Z" fill="white"/>
<path d="M4.82783 24.1377H2.41406V26.5515H4.82783V24.1377Z" fill="white"/>
<path d="M4.82783 28.9653H2.41406V31.3791H4.82783V28.9653Z" fill="white"/>
<path d="M4.82783 41.0347H2.41406V43.4485H4.82783V41.0347Z" fill="white"/>
<path d="M4.82783 45.8618H2.41406V48.2756H4.82783V45.8618Z" fill="white"/>
<path d="M4.82783 48.2754H2.41406V50.6892H4.82783V48.2754Z" fill="white"/>
<path d="M7.2419 26.5513H4.82812V28.9651H7.2419V26.5513Z" fill="white"/>
<path d="M7.2419 31.3792H4.82812V33.7929H7.2419V31.3792Z" fill="white"/>
<path d="M7.2419 36.2068H4.82812V38.6206H7.2419V36.2068Z" fill="white"/>
<path d="M7.2419 43.4482H4.82812V45.862H7.2419V43.4482Z" fill="white"/>
<path d="M7.2419 45.8618H4.82812V48.2756H7.2419V45.8618Z" fill="white"/>
<path d="M9.65205 19.3103H7.23828V21.7241H9.65205V19.3103Z" fill="white"/>
<path d="M9.65205 21.7239H7.23828V24.1377H9.65205V21.7239Z" fill="white"/>
<path d="M9.65205 26.5513H7.23828V28.9651H9.65205V26.5513Z" fill="white"/>
<path d="M9.65205 31.3792H7.23828V33.7929H9.65205V31.3792Z" fill="white"/>
<path d="M9.65205 41.0347H7.23828V43.4485H9.65205V41.0347Z" fill="white"/>
<path d="M9.65205 45.8618H7.23828V48.2756H9.65205V45.8618Z" fill="white"/>
<path d="M9.65205 48.2754H7.23828V50.6892H9.65205V48.2754Z" fill="white"/>
<path d="M12.0661 19.3103H9.65234V21.7241H12.0661V19.3103Z" fill="white"/>
<path d="M12.0661 21.7239H9.65234V24.1377H12.0661V21.7239Z" fill="white"/>
<path d="M12.0661 24.1377H9.65234V26.5515H12.0661V24.1377Z" fill="white"/>
<path d="M12.0661 28.9653H9.65234V31.3791H12.0661V28.9653Z" fill="white"/>
<path d="M12.0661 36.2068H9.65234V38.6206H12.0661V36.2068Z" fill="white"/>
<path d="M12.0661 41.0347H9.65234V43.4485H12.0661V41.0347Z" fill="white"/>
<path d="M12.0661 45.8618H9.65234V48.2756H12.0661V45.8618Z" fill="white"/>
<path d="M14.4802 24.1377H12.0664V26.5515H14.4802V24.1377Z" fill="white"/>
<path d="M14.4802 26.5513H12.0664V28.9651H14.4802V26.5513Z" fill="white"/>
<path d="M14.4802 31.3792H12.0664V33.7929H14.4802V31.3792Z" fill="white"/>
<path d="M14.4802 38.6204H12.0664V41.0342H14.4802V38.6204Z" fill="white"/>
<path d="M14.4802 48.2754H12.0664V50.6892H14.4802V48.2754Z" fill="white"/>
<path d="M16.8942 19.3103H14.4805V21.7241H16.8942V19.3103Z" fill="white"/>
<path d="M16.8942 24.1377H14.4805V26.5515H16.8942V24.1377Z" fill="white"/>
<path d="M16.8942 28.9653H14.4805V31.3791H16.8942V28.9653Z" fill="white"/>
<path d="M16.8942 33.7927H14.4805V36.2065H16.8942V33.7927Z" fill="white"/>
<path d="M16.8942 38.6204H14.4805V41.0342H16.8942V38.6204Z" fill="white"/>
<path d="M16.8942 43.4482H14.4805V45.862H16.8942V43.4482Z" fill="white"/>
<path d="M16.8942 48.2754H14.4805V50.6892H16.8942V48.2754Z" fill="white"/>
<path d="M19.3122 19.3103H16.8984V21.7241H19.3122V19.3103Z" fill="white"/>
<path d="M19.3122 21.7239H16.8984V24.1377H19.3122V21.7239Z" fill="white"/>
<path d="M19.3122 24.1377H16.8984V26.5515H19.3122V24.1377Z" fill="white"/>
<path d="M19.3122 26.5513H16.8984V28.9651H19.3122V26.5513Z" fill="white"/>
<path d="M19.3122 33.7927H16.8984V36.2065H19.3122V33.7927Z" fill="white"/>
<path d="M19.3122 36.2068H16.8984V38.6206H19.3122V36.2068Z" fill="white"/>
<path d="M19.3122 38.6204H16.8984V41.0342H19.3122V38.6204Z" fill="white"/>
<path d="M19.3122 45.8618H16.8984V48.2756H19.3122V45.8618Z" fill="white"/>
<path d="M21.7263 2.41357H19.3125V4.82737H21.7263V2.41357Z" fill="white"/>
<path d="M21.7263 7.24121H19.3125V9.655H21.7263V7.24121Z" fill="white"/>
<path d="M21.7263 9.65503H19.3125V12.0688H21.7263V9.65503Z" fill="white"/>
<path d="M21.7263 12.0688H19.3125V14.4826H21.7263V12.0688Z" fill="white"/>
<path d="M21.7263 14.4827H19.3125V16.8965H21.7263V14.4827Z" fill="white"/>
<path d="M21.7263 19.3103H19.3125V21.7241H21.7263V19.3103Z" fill="white"/>
<path d="M21.7263 21.7239H19.3125V24.1377H21.7263V21.7239Z" fill="white"/>
<path d="M21.7263 31.3792H19.3125V33.7929H21.7263V31.3792Z" fill="white"/>
<path d="M21.7263 38.6204H19.3125V41.0342H21.7263V38.6204Z" fill="white"/>
<path d="M21.7263 41.0347H19.3125V43.4485H21.7263V41.0347Z" fill="white"/>
<path d="M21.7263 45.8618H19.3125V48.2756H21.7263V45.8618Z" fill="white"/>
<path d="M21.7263 48.2754H19.3125V50.6892H21.7263V48.2754Z" fill="white"/>
<path d="M21.7263 50.6897H19.3125V53.1035H21.7263V50.6897Z" fill="white"/>
<path d="M21.7263 53.1033H19.3125V55.5171H21.7263V53.1033Z" fill="white"/>
<path d="M21.7263 57.9309H19.3125V60.3447H21.7263V57.9309Z" fill="white"/>
<path d="M21.7263 60.3447H19.3125V62.7585H21.7263V60.3447Z" fill="white"/>
<path d="M21.7263 65.1721H19.3125V67.5859H21.7263V65.1721Z" fill="white"/>
<path d="M24.1364 -0.000244141H21.7227V2.41355H24.1364V-0.000244141Z" fill="white"/>
<path d="M24.1364 2.41357H21.7227V4.82737H24.1364V2.41357Z" fill="white"/>
<path d="M24.1364 7.24121H21.7227V9.655H24.1364V7.24121Z" fill="white"/>
<path d="M24.1364 16.8962H21.7227V19.31H24.1364V16.8962Z" fill="white"/>
<path d="M24.1364 19.3103H21.7227V21.7241H24.1364V19.3103Z" fill="white"/>
<path d="M24.1364 21.7239H21.7227V24.1377H24.1364V21.7239Z" fill="white"/>
<path d="M24.1364 24.1377H21.7227V26.5515H24.1364V24.1377Z" fill="white"/>
<path d="M24.1364 26.5513H21.7227V28.9651H24.1364V26.5513Z" fill="white"/>
<path d="M24.1364 31.3792H21.7227V33.7929H24.1364V31.3792Z" fill="white"/>
<path d="M24.1364 33.7927H21.7227V36.2065H24.1364V33.7927Z" fill="white"/>
<path d="M24.1364 36.2068H21.7227V38.6206H24.1364V36.2068Z" fill="white"/>
<path d="M24.1364 43.4482H21.7227V45.862H24.1364V43.4482Z" fill="white"/>
<path d="M24.1364 45.8618H21.7227V48.2756H24.1364V45.8618Z" fill="white"/>
<path d="M24.1364 48.2754H21.7227V50.6892H24.1364V48.2754Z" fill="white"/>
<path d="M24.1364 57.9309H21.7227V60.3447H24.1364V57.9309Z" fill="white"/>
<path d="M24.1364 62.7583H21.7227V65.1721H24.1364V62.7583Z" fill="white"/>
<path d="M24.1364 65.1721H21.7227V67.5859H24.1364V65.1721Z" fill="white"/>
<path d="M26.5505 4.82764H24.1367V7.24143H26.5505V4.82764Z" fill="white"/>
<path d="M26.5505 7.24121H24.1367V9.655H26.5505V7.24121Z" fill="white"/>
<path d="M26.5505 9.65503H24.1367V12.0688H26.5505V9.65503Z" fill="white"/>
<path d="M26.5505 14.4827H24.1367V16.8965H26.5505V14.4827Z" fill="white"/>
<path d="M26.5505 16.8962H24.1367V19.31H26.5505V16.8962Z" fill="white"/>
<path d="M26.5505 36.2068H24.1367V38.6206H26.5505V36.2068Z" fill="white"/>
<path d="M26.5505 41.0347H24.1367V43.4485H26.5505V41.0347Z" fill="white"/>
<path d="M26.5505 50.6897H24.1367V53.1035H26.5505V50.6897Z" fill="white"/>
<path d="M26.5505 53.1033H24.1367V55.5171H26.5505V53.1033Z" fill="white"/>
<path d="M26.5505 57.9309H24.1367V60.3447H26.5505V57.9309Z" fill="white"/>
<path d="M26.5505 60.3447H24.1367V62.7585H26.5505V60.3447Z" fill="white"/>
<path d="M26.5505 62.7583H24.1367V65.1721H26.5505V62.7583Z" fill="white"/>
<path d="M28.9646 -0.000244141H26.5508V2.41355H28.9646V-0.000244141Z" fill="white"/>
<path d="M28.9646 4.82764H26.5508V7.24143H28.9646V4.82764Z" fill="white"/>
<path d="M28.9646 16.8962H26.5508V19.31H28.9646V16.8962Z" fill="white"/>
<path d="M28.9646 19.3103H26.5508V21.7241H28.9646V19.3103Z" fill="white"/>
<path d="M28.9646 21.7239H26.5508V24.1377H28.9646V21.7239Z" fill="white"/>
<path d="M28.9646 26.5513H26.5508V28.9651H28.9646V26.5513Z" fill="white"/>
<path d="M28.9646 28.9653H26.5508V31.3791H28.9646V28.9653Z" fill="white"/>
<path d="M28.9646 31.3792H26.5508V33.7929H28.9646V31.3792Z" fill="white"/>
<path d="M28.9646 33.7927H26.5508V36.2065H28.9646V33.7927Z" fill="white"/>
<path d="M28.9646 38.6204H26.5508V41.0342H28.9646V38.6204Z" fill="white"/>
<path d="M28.9646 41.0347H26.5508V43.4485H28.9646V41.0347Z" fill="white"/>
<path d="M28.9646 45.8618H26.5508V48.2756H28.9646V45.8618Z" fill="white"/>
<path d="M28.9646 48.2754H26.5508V50.6892H28.9646V48.2754Z" fill="white"/>
<path d="M28.9646 67.5862H26.5508V70H28.9646V67.5862Z" fill="white"/>
<path d="M31.3786 -0.000244141H28.9648V2.41355H31.3786V-0.000244141Z" fill="white"/>
<path d="M31.3786 2.41357H28.9648V4.82737H31.3786V2.41357Z" fill="white"/>
<path d="M31.3786 4.82764H28.9648V7.24143H31.3786V4.82764Z" fill="white"/>
<path d="M31.3786 7.24121H28.9648V9.655H31.3786V7.24121Z" fill="white"/>
<path d="M31.3786 9.65503H28.9648V12.0688H31.3786V9.65503Z" fill="white"/>
<path d="M31.3786 12.0688H28.9648V14.4826H31.3786V12.0688Z" fill="white"/>
<path d="M31.3786 14.4827H28.9648V16.8965H31.3786V14.4827Z" fill="white"/>
<path d="M31.3786 19.3103H28.9648V21.7241H31.3786V19.3103Z" fill="white"/>
<path d="M31.3786 21.7239H28.9648V24.1377H31.3786V21.7239Z" fill="white"/>
<path d="M31.3786 24.1377H28.9648V26.5515H31.3786V24.1377Z" fill="white"/>
<path d="M31.3786 26.5513H28.9648V28.9651H31.3786V26.5513Z" fill="white"/>
<path d="M31.3786 28.9653H28.9648V31.3791H31.3786V28.9653Z" fill="white"/>
<path d="M31.3786 33.7927H28.9648V36.2065H31.3786V33.7927Z" fill="white"/>
<path d="M31.3786 43.4482H28.9648V45.862H31.3786V43.4482Z" fill="white"/>
<path d="M31.3786 48.2754H28.9648V50.6892H31.3786V48.2754Z" fill="white"/>
<path d="M31.3786 50.6897H28.9648V53.1035H31.3786V50.6897Z" fill="white"/>
<path d="M31.3786 53.1033H28.9648V55.5171H31.3786V53.1033Z" fill="white"/>
<path d="M31.3786 60.3447H28.9648V62.7585H31.3786V60.3447Z" fill="white"/>
<path d="M31.3786 65.1721H28.9648V67.5859H31.3786V65.1721Z" fill="white"/>
<path d="M33.7927 2.41357H31.3789V4.82737H33.7927V2.41357Z" fill="white"/>
<path d="M33.7927 7.24121H31.3789V9.655H33.7927V7.24121Z" fill="white"/>
<path d="M33.7927 9.65503H31.3789V12.0688H33.7927V9.65503Z" fill="white"/>
<path d="M33.7927 12.0688H31.3789V14.4826H33.7927V12.0688Z" fill="white"/>
<path d="M33.7927 16.8962H31.3789V19.31H33.7927V16.8962Z" fill="white"/>
<path d="M33.7927 21.7239H31.3789V24.1377H33.7927V21.7239Z" fill="white"/>
<path d="M33.7927 24.1377H31.3789V26.5515H33.7927V24.1377Z" fill="white"/>
<path d="M33.7927 33.7927H31.3789V36.2065H33.7927V33.7927Z" fill="white"/>
<path d="M33.7927 36.2068H31.3789V38.6206H33.7927V36.2068Z" fill="white"/>
<path d="M33.7927 38.6204H31.3789V41.0342H33.7927V38.6204Z" fill="white"/>
<path d="M33.7927 43.4482H31.3789V45.862H33.7927V43.4482Z" fill="white"/>
<path d="M33.7927 53.1033H31.3789V55.5171H33.7927V53.1033Z" fill="white"/>
<path d="M33.7927 57.9309H31.3789V60.3447H33.7927V57.9309Z" fill="white"/>
<path d="M33.7927 62.7583H31.3789V65.1721H33.7927V62.7583Z" fill="white"/>
<path d="M33.7927 67.5862H31.3789V70H33.7927V67.5862Z" fill="white"/>
<path d="M36.2067 4.82764H33.793V7.24143H36.2067V4.82764Z" fill="white"/>
<path d="M36.2067 7.24121H33.793V9.655H36.2067V7.24121Z" fill="white"/>
<path d="M36.2067 9.65503H33.793V12.0688H36.2067V9.65503Z" fill="white"/>
<path d="M36.2067 12.0688H33.793V14.4826H36.2067V12.0688Z" fill="white"/>
<path d="M36.2067 14.4827H33.793V16.8965H36.2067V14.4827Z" fill="white"/>
<path d="M36.2067 19.3103H33.793V21.7241H36.2067V19.3103Z" fill="white"/>
<path d="M36.2067 28.9653H33.793V31.3791H36.2067V28.9653Z" fill="white"/>
<path d="M36.2067 33.7927H33.793V36.2065H36.2067V33.7927Z" fill="white"/>
<path d="M36.2067 45.8618H33.793V48.2756H36.2067V45.8618Z" fill="white"/>
<path d="M36.2067 48.2754H33.793V50.6892H36.2067V48.2754Z" fill="white"/>
<path d="M36.2067 55.5171H33.793V57.9309H36.2067V55.5171Z" fill="white"/>
<path d="M36.2067 60.3447H33.793V62.7585H36.2067V60.3447Z" fill="white"/>
<path d="M36.2067 67.5862H33.793V70H36.2067V67.5862Z" fill="white"/>
<path d="M38.6208 16.8962H36.207V19.31H38.6208V16.8962Z" fill="white"/>
<path d="M38.6208 21.7239H36.207V24.1377H38.6208V21.7239Z" fill="white"/>
<path d="M38.6208 28.9653H36.207V31.3791H38.6208V28.9653Z" fill="white"/>
<path d="M38.6208 50.6897H36.207V53.1035H38.6208V50.6897Z" fill="white"/>
<path d="M38.6208 57.9309H36.207V60.3447H38.6208V57.9309Z" fill="white"/>
<path d="M38.6208 60.3447H36.207V62.7585H38.6208V60.3447Z" fill="white"/>
<path d="M38.6208 62.7583H36.207V65.1721H38.6208V62.7583Z" fill="white"/>
<path d="M41.0349 -0.000244141H38.6211V2.41355H41.0349V-0.000244141Z" fill="white"/>
<path d="M41.0349 4.82764H38.6211V7.24143H41.0349V4.82764Z" fill="white"/>
<path d="M41.0349 12.0688H38.6211V14.4826H41.0349V12.0688Z" fill="white"/>
<path d="M41.0349 14.4827H38.6211V16.8965H41.0349V14.4827Z" fill="white"/>
<path d="M41.0349 16.8962H38.6211V19.31H41.0349V16.8962Z" fill="white"/>
<path d="M41.0349 28.9653H38.6211V31.3791H41.0349V28.9653Z" fill="white"/>
<path d="M41.0349 31.3792H38.6211V33.7929H41.0349V31.3792Z" fill="white"/>
<path d="M41.0349 41.0347H38.6211V43.4485H41.0349V41.0347Z" fill="white"/>
<path d="M41.0349 43.4482H38.6211V45.862H41.0349V43.4482Z" fill="white"/>
<path d="M41.0349 45.8618H38.6211V48.2756H41.0349V45.8618Z" fill="white"/>
<path d="M41.0349 48.2754H38.6211V50.6892H41.0349V48.2754Z" fill="white"/>
<path d="M41.0349 55.5171H38.6211V57.9309H41.0349V55.5171Z" fill="white"/>
<path d="M41.0349 60.3447H38.6211V62.7585H41.0349V60.3447Z" fill="white"/>
<path d="M41.0349 65.1721H38.6211V67.5859H41.0349V65.1721Z" fill="white"/>
<path d="M43.4489 -0.000244141H41.0352V2.41355H43.4489V-0.000244141Z" fill="white"/>
<path d="M43.4489 4.82764H41.0352V7.24143H43.4489V4.82764Z" fill="white"/>
<path d="M43.4489 7.24121H41.0352V9.655H43.4489V7.24121Z" fill="white"/>
<path d="M43.4489 16.8962H41.0352V19.31H43.4489V16.8962Z" fill="white"/>
<path d="M43.4489 19.3103H41.0352V21.7241H43.4489V19.3103Z" fill="white"/>
<path d="M43.4489 21.7239H41.0352V24.1377H43.4489V21.7239Z" fill="white"/>
<path d="M43.4489 26.5513H41.0352V28.9651H43.4489V26.5513Z" fill="white"/>
<path d="M43.4489 43.4482H41.0352V45.862H43.4489V43.4482Z" fill="white"/>
<path d="M43.4489 45.8618H41.0352V48.2756H43.4489V45.8618Z" fill="white"/>
<path d="M43.4489 48.2754H41.0352V50.6892H43.4489V48.2754Z" fill="white"/>
<path d="M43.4489 50.6897H41.0352V53.1035H43.4489V50.6897Z" fill="white"/>
<path d="M43.4489 57.9309H41.0352V60.3447H43.4489V57.9309Z" fill="white"/>
<path d="M43.4489 60.3447H41.0352V62.7585H43.4489V60.3447Z" fill="white"/>
<path d="M43.4489 62.7583H41.0352V65.1721H43.4489V62.7583Z" fill="white"/>
<path d="M45.863 -0.000244141H43.4492V2.41355H45.863V-0.000244141Z" fill="white"/>
<path d="M45.863 2.41357H43.4492V4.82737H45.863V2.41357Z" fill="white"/>
<path d="M45.863 9.65503H43.4492V12.0688H45.863V9.65503Z" fill="white"/>
<path d="M45.863 14.4827H43.4492V16.8965H45.863V14.4827Z" fill="white"/>
<path d="M45.863 16.8962H43.4492V19.31H45.863V16.8962Z" fill="white"/>
<path d="M45.863 19.3103H43.4492V21.7241H45.863V19.3103Z" fill="white"/>
<path d="M45.863 21.7239H43.4492V24.1377H45.863V21.7239Z" fill="white"/>
<path d="M45.863 26.5513H43.4492V28.9651H45.863V26.5513Z" fill="white"/>
<path d="M45.863 28.9653H43.4492V31.3791H45.863V28.9653Z" fill="white"/>
<path d="M45.863 31.3792H43.4492V33.7929H45.863V31.3792Z" fill="white"/>
<path d="M45.863 38.6204H43.4492V41.0342H45.863V38.6204Z" fill="white"/>
<path d="M45.863 45.8618H43.4492V48.2756H45.863V45.8618Z" fill="white"/>
<path d="M45.863 60.3447H43.4492V62.7585H45.863V60.3447Z" fill="white"/>
<path d="M45.863 67.5862H43.4492V70H45.863V67.5862Z" fill="white"/>
<path d="M48.2771 -0.000244141H45.8633V2.41355H48.2771V-0.000244141Z" fill="white"/>
<path d="M48.2771 2.41357H45.8633V4.82737H48.2771V2.41357Z" fill="white"/>
<path d="M48.2771 7.24121H45.8633V9.655H48.2771V7.24121Z" fill="white"/>
<path d="M48.2771 9.65503H45.8633V12.0688H48.2771V9.65503Z" fill="white"/>
<path d="M48.2771 12.0688H45.8633V14.4826H48.2771V12.0688Z" fill="white"/>
<path d="M48.2771 19.3103H45.8633V21.7241H48.2771V19.3103Z" fill="white"/>
<path d="M48.2771 24.1377H45.8633V26.5515H48.2771V24.1377Z" fill="white"/>
<path d="M48.2771 26.5513H45.8633V28.9651H48.2771V26.5513Z" fill="white"/>
<path d="M48.2771 28.9653H45.8633V31.3791H48.2771V28.9653Z" fill="white"/>
<path d="M48.2771 31.3792H45.8633V33.7929H48.2771V31.3792Z" fill="white"/>
<path d="M48.2771 33.7927H45.8633V36.2065H48.2771V33.7927Z" fill="white"/>
<path d="M48.2771 36.2068H45.8633V38.6206H48.2771V36.2068Z" fill="white"/>
<path d="M48.2771 38.6204H45.8633V41.0342H48.2771V38.6204Z" fill="white"/>
<path d="M48.2771 43.4482H45.8633V45.862H48.2771V43.4482Z" fill="white"/>
<path d="M48.2771 45.8618H45.8633V48.2756H48.2771V45.8618Z" fill="white"/>
<path d="M48.2771 48.2754H45.8633V50.6892H48.2771V48.2754Z" fill="white"/>
<path d="M48.2771 50.6897H45.8633V53.1035H48.2771V50.6897Z" fill="white"/>
<path d="M48.2771 53.1033H45.8633V55.5171H48.2771V53.1033Z" fill="white"/>
<path d="M48.2771 55.5171H45.8633V57.9309H48.2771V55.5171Z" fill="white"/>
<path d="M48.2771 62.7583H45.8633V65.1721H48.2771V62.7583Z" fill="white"/>
<path d="M48.2771 65.1721H45.8633V67.5859H48.2771V65.1721Z" fill="white"/>
<path d="M50.6911 -0.000244141H48.2773V2.41355H50.6911V-0.000244141Z" fill="white"/>
<path d="M50.6911 2.41357H48.2773V4.82737H50.6911V2.41357Z" fill="white"/>
<path d="M50.6911 7.24121H48.2773V9.655H50.6911V7.24121Z" fill="white"/>
<path d="M50.6911 9.65503H48.2773V12.0688H50.6911V9.65503Z" fill="white"/>
<path d="M50.6911 14.4827H48.2773V16.8965H50.6911V14.4827Z" fill="white"/>
<path d="M50.6911 16.8962H48.2773V19.31H50.6911V16.8962Z" fill="white"/>
<path d="M50.6911 19.3103H48.2773V21.7241H50.6911V19.3103Z" fill="white"/>
<path d="M50.6911 21.7239H48.2773V24.1377H50.6911V21.7239Z" fill="white"/>
<path d="M50.6911 28.9653H48.2773V31.3791H50.6911V28.9653Z" fill="white"/>
<path d="M50.6911 33.7927H48.2773V36.2065H50.6911V33.7927Z" fill="white"/>
<path d="M50.6911 38.6204H48.2773V41.0342H50.6911V38.6204Z" fill="white"/>
<path d="M50.6911 41.0347H48.2773V43.4485H50.6911V41.0347Z" fill="white"/>
<path d="M50.6911 48.2754H48.2773V50.6892H50.6911V48.2754Z" fill="white"/>
<path d="M50.6911 50.6897H48.2773V53.1035H50.6911V50.6897Z" fill="white"/>
<path d="M50.6911 53.1033H48.2773V55.5171H50.6911V53.1033Z" fill="white"/>
<path d="M50.6911 55.5171H48.2773V57.9309H50.6911V55.5171Z" fill="white"/>
<path d="M50.6911 57.9309H48.2773V60.3447H50.6911V57.9309Z" fill="white"/>
<path d="M50.6911 60.3447H48.2773V62.7585H50.6911V60.3447Z" fill="white"/>
<path d="M50.6911 62.7583H48.2773V65.1721H50.6911V62.7583Z" fill="white"/>
<path d="M53.1013 19.3103H50.6875V21.7241H53.1013V19.3103Z" fill="white"/>
<path d="M53.1013 28.9653H50.6875V31.3791H53.1013V28.9653Z" fill="white"/>
<path d="M53.1013 31.3792H50.6875V33.7929H53.1013V31.3792Z" fill="white"/>
<path d="M53.1013 36.2068H50.6875V38.6206H53.1013V36.2068Z" fill="white"/>
<path d="M53.1013 41.0347H50.6875V43.4485H53.1013V41.0347Z" fill="white"/>
<path d="M53.1013 43.4482H50.6875V45.862H53.1013V43.4482Z" fill="white"/>
<path d="M53.1013 48.2754H50.6875V50.6892H53.1013V48.2754Z" fill="white"/>
<path d="M53.1013 57.9309H50.6875V60.3447H53.1013V57.9309Z" fill="white"/>
<path d="M53.1013 60.3447H50.6875V62.7585H53.1013V60.3447Z" fill="white"/>
<path d="M53.1013 62.7583H50.6875V65.1721H53.1013V62.7583Z" fill="white"/>
<path d="M55.5153 33.7927H53.1016V36.2065H55.5153V33.7927Z" fill="white"/>
<path d="M55.5153 36.2068H53.1016V38.6206H55.5153V36.2068Z" fill="white"/>
<path d="M55.5153 38.6204H53.1016V41.0342H55.5153V38.6204Z" fill="white"/>
<path d="M55.5153 45.8618H53.1016V48.2756H55.5153V45.8618Z" fill="white"/>
<path d="M55.5153 48.2754H53.1016V50.6892H55.5153V48.2754Z" fill="white"/>
<path d="M55.5153 53.1033H53.1016V55.5171H55.5153V53.1033Z" fill="white"/>
<path d="M55.5153 57.9309H53.1016V60.3447H55.5153V57.9309Z" fill="white"/>
<path d="M55.5153 62.7583H53.1016V65.1721H55.5153V62.7583Z" fill="white"/>
<path d="M57.9333 19.3103H55.5195V21.7241H57.9333V19.3103Z" fill="white"/>
<path d="M57.9333 21.7239H55.5195V24.1377H57.9333V21.7239Z" fill="white"/>
<path d="M57.9333 24.1377H55.5195V26.5515H57.9333V24.1377Z" fill="white"/>
<path d="M57.9333 26.5513H55.5195V28.9651H57.9333V26.5513Z" fill="white"/>
<path d="M57.9333 31.3792H55.5195V33.7929H57.9333V31.3792Z" fill="white"/>
<path d="M57.9333 36.2068H55.5195V38.6206H57.9333V36.2068Z" fill="white"/>
<path d="M57.9333 43.4482H55.5195V45.862H57.9333V43.4482Z" fill="white"/>
<path d="M57.9333 45.8618H55.5195V48.2756H57.9333V45.8618Z" fill="white"/>
<path d="M57.9333 48.2754H55.5195V50.6892H57.9333V48.2754Z" fill="white"/>
<path d="M57.9333 57.9309H55.5195V60.3447H57.9333V57.9309Z" fill="white"/>
<path d="M57.9333 60.3447H55.5195V62.7585H57.9333V60.3447Z" fill="white"/>
<path d="M57.9333 65.1721H55.5195V67.5859H57.9333V65.1721Z" fill="white"/>
<path d="M57.9333 67.5862H55.5195V70H57.9333V67.5862Z" fill="white"/>
<path d="M60.3474 19.3103H57.9336V21.7241H60.3474V19.3103Z" fill="white"/>
<path d="M60.3474 24.1377H57.9336V26.5515H60.3474V24.1377Z" fill="white"/>
<path d="M60.3474 33.7927H57.9336V36.2065H60.3474V33.7927Z" fill="white"/>
<path d="M60.3474 41.0347H57.9336V43.4485H60.3474V41.0347Z" fill="white"/>
<path d="M60.3474 45.8618H57.9336V48.2756H60.3474V45.8618Z" fill="white"/>
<path d="M60.3474 48.2754H57.9336V50.6892H60.3474V48.2754Z" fill="white"/>
<path d="M60.3474 50.6897H57.9336V53.1035H60.3474V50.6897Z" fill="white"/>
<path d="M60.3474 53.1033H57.9336V55.5171H60.3474V53.1033Z" fill="white"/>
<path d="M60.3474 55.5171H57.9336V57.9309H60.3474V55.5171Z" fill="white"/>
<path d="M60.3474 57.9309H57.9336V60.3447H60.3474V57.9309Z" fill="white"/>
<path d="M62.7614 19.3103H60.3477V21.7241H62.7614V19.3103Z" fill="white"/>
<path d="M62.7614 28.9653H60.3477V31.3791H62.7614V28.9653Z" fill="white"/>
<path d="M62.7614 33.7927H60.3477V36.2065H62.7614V33.7927Z" fill="white"/>
<path d="M62.7614 41.0347H60.3477V43.4485H62.7614V41.0347Z" fill="white"/>
<path d="M62.7614 43.4482H60.3477V45.862H62.7614V43.4482Z" fill="white"/>
<path d="M62.7614 55.5171H60.3477V57.9309H62.7614V55.5171Z" fill="white"/>
<path d="M62.7614 60.3447H60.3477V62.7585H62.7614V60.3447Z" fill="white"/>
<path d="M62.7614 62.7583H60.3477V65.1721H62.7614V62.7583Z" fill="white"/>
<path d="M62.7614 65.1721H60.3477V67.5859H62.7614V65.1721Z" fill="white"/>
<path d="M65.1677 21.7239H62.7539V24.1377H65.1677V21.7239Z" fill="white"/>
<path d="M65.1677 31.3792H62.7539V33.7929H65.1677V31.3792Z" fill="white"/>
<path d="M65.1677 36.2068H62.7539V38.6206H65.1677V36.2068Z" fill="white"/>
<path d="M65.1677 41.0347H62.7539V43.4485H65.1677V41.0347Z" fill="white"/>
<path d="M65.1677 48.2754H62.7539V50.6892H65.1677V48.2754Z" fill="white"/>
<path d="M65.1677 50.6897H62.7539V53.1035H65.1677V50.6897Z" fill="white"/>
<path d="M65.1677 55.5171H62.7539V57.9309H65.1677V55.5171Z" fill="white"/>
<path d="M65.1677 57.9309H62.7539V60.3447H65.1677V57.9309Z" fill="white"/>
<path d="M65.1677 62.7583H62.7539V65.1721H65.1677V62.7583Z" fill="white"/>
<path d="M65.1677 65.1721H62.7539V67.5859H65.1677V65.1721Z" fill="white"/>
<path d="M65.1677 67.5862H62.7539V70H65.1677V67.5862Z" fill="white"/>
<path d="M67.5856 19.3103H65.1719V21.7241H67.5856V19.3103Z" fill="white"/>
<path d="M67.5856 21.7239H65.1719V24.1377H67.5856V21.7239Z" fill="white"/>
<path d="M67.5856 24.1377H65.1719V26.5515H67.5856V24.1377Z" fill="white"/>
<path d="M67.5856 28.9653H65.1719V31.3791H67.5856V28.9653Z" fill="white"/>
<path d="M67.5856 33.7927H65.1719V36.2065H67.5856V33.7927Z" fill="white"/>
<path d="M67.5856 38.6204H65.1719V41.0342H67.5856V38.6204Z" fill="white"/>
<path d="M67.5856 43.4482H65.1719V45.862H67.5856V43.4482Z" fill="white"/>
<path d="M67.5856 45.8618H65.1719V48.2756H67.5856V45.8618Z" fill="white"/>
<path d="M67.5856 53.1033H65.1719V55.5171H67.5856V53.1033Z" fill="white"/>
<path d="M67.5856 57.9309H65.1719V60.3447H67.5856V57.9309Z" fill="white"/>
<path d="M67.5856 60.3447H65.1719V62.7585H67.5856V60.3447Z" fill="white"/>
<path d="M67.5856 62.7583H65.1719V65.1721H67.5856V62.7583Z" fill="white"/>
<path d="M67.5856 67.5862H65.1719V70H67.5856V67.5862Z" fill="white"/>
<path d="M69.9997 21.7239H67.5859V24.1377H69.9997V21.7239Z" fill="white"/>
<path d="M69.9997 26.5513H67.5859V28.9651H69.9997V26.5513Z" fill="white"/>
<path d="M69.9997 31.3792H67.5859V33.7929H69.9997V31.3792Z" fill="white"/>
<path d="M69.9997 33.7927H67.5859V36.2065H69.9997V33.7927Z" fill="white"/>
<path d="M69.9997 36.2068H67.5859V38.6206H69.9997V36.2068Z" fill="white"/>
<path d="M69.9997 45.8618H67.5859V48.2756H69.9997V45.8618Z" fill="white"/>
<path d="M69.9997 48.2754H67.5859V50.6892H69.9997V48.2754Z" fill="white"/>
<path d="M69.9997 50.6897H67.5859V53.1035H69.9997V50.6897Z" fill="white"/>
<path d="M69.9997 55.5171H67.5859V57.9309H69.9997V55.5171Z" fill="white"/>
<path d="M69.9997 57.9309H67.5859V60.3447H69.9997V57.9309Z" fill="white"/>
<path fill-rule="evenodd" clip-rule="evenodd" d="M0 -0.000244141V16.8963H16.8964V-0.000244141H0ZM2.41377 2.41355H14.4826V14.4825H2.41377V2.41355Z" fill="white"/>
<path d="M7.2419 4.82764H4.82812V7.24143H7.2419V4.82764Z" fill="white"/>
<path d="M7.2419 7.24121H4.82812V9.655H7.2419V7.24121Z" fill="white"/>
<path d="M7.2419 9.65503H4.82812V12.0688H7.2419V9.65503Z" fill="white"/>
<path d="M9.65205 4.82764H7.23828V7.24143H9.65205V4.82764Z" fill="white"/>
<path d="M9.65205 7.24121H7.23828V9.655H9.65205V7.24121Z" fill="white"/>
<path d="M9.65205 9.65503H7.23828V12.0688H9.65205V9.65503Z" fill="white"/>
<path d="M12.0661 4.82764H9.65234V7.24143H12.0661V4.82764Z" fill="white"/>
<path d="M12.0661 7.24121H9.65234V9.655H12.0661V7.24121Z" fill="white"/>
<path d="M12.0661 9.65503H9.65234V12.0688H12.0661V9.65503Z" fill="white"/>
<path fill-rule="evenodd" clip-rule="evenodd" d="M70 -0.000244141L53.1036 -0.000244141V16.8963H70V-0.000244141ZM67.5862 2.41355V14.4825L55.5174 14.4825V2.41355L67.5862 2.41355Z" fill="white"/>
<path d="M60.3474 4.82764H57.9336V7.24143H60.3474V4.82764Z" fill="white"/>
<path d="M60.3474 7.24121H57.9336V9.655H60.3474V7.24121Z" fill="white"/>
<path d="M60.3474 9.65503H57.9336V12.0688H60.3474V9.65503Z" fill="white"/>
<path d="M62.7614 4.82764H60.3477V7.24143H62.7614V4.82764Z" fill="white"/>
<path d="M62.7614 7.24121H60.3477V9.655H62.7614V7.24121Z" fill="white"/>
<path d="M62.7614 9.65503H60.3477V12.0688H62.7614V9.65503Z" fill="white"/>
<path d="M65.1677 4.82764H62.7539V7.24143H65.1677V4.82764Z" fill="white"/>
<path d="M65.1677 7.24121H62.7539V9.655H65.1677V7.24121Z" fill="white"/>
<path d="M65.1677 9.65503H62.7539V12.0688H65.1677V9.65503Z" fill="white"/>
<path fill-rule="evenodd" clip-rule="evenodd" d="M0 69.9998H16.8964V53.1032H0L0 69.9998ZM2.41377 67.586L2.41377 55.517H14.4826L14.4826 67.586H2.41377Z" fill="white"/>
<path d="M7.2419 57.9309H4.82812V60.3447H7.2419V57.9309Z" fill="white"/>
<path d="M7.2419 60.3447H4.82812V62.7585H7.2419V60.3447Z" fill="white"/>
<path d="M7.2419 62.7583H4.82812V65.1721H7.2419V62.7583Z" fill="white"/>
<path d="M9.65205 57.9309H7.23828V60.3447H9.65205V57.9309Z" fill="white"/>
<path d="M9.65205 60.3447H7.23828V62.7585H9.65205V60.3447Z" fill="white"/>
<path d="M9.65205 62.7583H7.23828V65.1721H9.65205V62.7583Z" fill="white"/>
<path d="M12.0661 57.9309H9.65234V60.3447H12.0661V57.9309Z" fill="white"/>
<path d="M12.0661 60.3447H9.65234V62.7585H12.0661V60.3447Z" fill="white"/>
<path d="M12.0661 62.7583H9.65234V65.1721H12.0661V62.7583Z" fill="white"/>
</mask>
<g mask="url(#mask0_4850_26326)">
<path d="M71.2061 -1.20703H-1.20703V71.2068H71.2061V-1.20703Z" fill="white"/>
</g>
<rect x="29.9062" y="29.9038" width="11.9615" height="11.9615" rx="2.71852" fill="white"/>
<path d="M32.6211 34.5122V32.8975L36.1846 34.9005V34.0942L39.6893 32.0786V33.7238L36.1846 35.7394L39.6893 37.7769V39.3894L36.1846 37.3519V38.1592L32.6211 40.2472V38.5768L36.1846 36.5167L32.6211 34.5122Z" fill="black"/>
</svg>
