<svg xmlns="http://www.w3.org/2000/svg" width="40" height="40" viewBox="0 0 40 40" fill="none">
  <path fill-rule="evenodd" clip-rule="evenodd"
    d="M12.7059 7.64706C12.1211 7.64706 11.6471 8.12111 11.6471 8.70588V31.2941C11.6471 31.8789 12.1211 32.3529 12.7059 32.3529H27.7647C28.3495 32.3529 28.8235 31.8789 28.8235 31.2941V8.70588C28.8235 8.12111 28.3495 7.64706 27.7647 7.64706H12.7059ZM10 8.70588C10 7.21146 11.2115 6 12.7059 6H27.7647C29.2591 6 30.4706 7.21146 30.4706 8.70588V31.2941C30.4706 32.7885 29.2591 34 27.7647 34H12.7059C11.2115 34 10 32.7885 10 31.2941V8.70588Z"
    fill="#FFCC00" />
  <path fill-rule="evenodd" clip-rule="evenodd"
    d="M18 28.4705C18 28.0157 18.3687 27.647 18.8235 27.647H21.6471C22.1019 27.647 22.4706 28.0157 22.4706 28.4705C22.4706 28.9253 22.1019 29.294 21.6471 29.294H18.8235C18.3687 29.294 18 28.9253 18 28.4705Z"
    fill="#FFCC00" />
  <path fill-rule="evenodd" clip-rule="evenodd"
    d="M16.4284 16.8036C16.7424 17.1175 16.7424 17.6265 16.4284 17.9404L14.5852 19.7836L16.4284 21.6268C16.7424 21.9407 16.7424 22.4497 16.4284 22.7636C16.1145 23.0776 15.6055 23.0776 15.2916 22.7636L12.88 20.352C12.566 20.0381 12.566 19.5291 12.88 19.2152L15.2916 16.8036C15.6055 16.4896 16.1145 16.4896 16.4284 16.8036Z"
    fill="#FFCC00" />
  <path fill-rule="evenodd" clip-rule="evenodd"
    d="M24.1339 16.8036C24.4478 16.4896 24.9568 16.4896 25.2707 16.8036L27.6823 19.2152C27.9963 19.5291 27.9963 20.0381 27.6823 20.352L25.2707 22.7636C24.9568 23.0776 24.4478 23.0776 24.1339 22.7636C23.82 22.4497 23.82 21.9407 24.1339 21.6268L25.9771 19.7836L24.1339 17.9404C23.82 17.6265 23.82 17.1175 24.1339 16.8036Z"
    fill="#FFCC00" />
  <path fill-rule="evenodd" clip-rule="evenodd"
    d="M21.7414 15.0014C22.1626 15.1418 22.3902 15.5971 22.2498 16.0183L19.8382 23.2531C19.6978 23.6743 19.2425 23.9019 18.8214 23.7615C18.4002 23.6211 18.1726 23.1658 18.313 22.7447L20.7246 15.5098C20.865 15.0887 21.3202 14.861 21.7414 15.0014Z"
    fill="#FFCC00" />
</svg>