<svg width="20" height="20" viewBox="0 0 20 20" fill="none" xmlns="http://www.w3.org/2000/svg">
<ellipse cx="14.167" cy="5.83325" rx="5" ry="5" fill="#FFCC00"/>
<path fill-rule="evenodd" clip-rule="evenodd" d="M4.66741 9.92105H7.95031C7.97776 8.38967 8.19589 6.99846 8.54233 5.95916C8.69535 5.5001 8.87748 5.09724 9.0879 4.77881C6.66108 5.29173 4.8149 7.37849 4.66741 9.92105ZM10.25 4C6.79822 4 4 6.79822 4 10.25C4 13.7018 6.79822 16.5 10.25 16.5C13.7018 16.5 16.5 13.7018 16.5 10.25C16.5 6.79822 13.7018 4 10.25 4ZM10.25 4.65789C10.1215 4.65789 9.94669 4.73573 9.74011 4.99786C9.53645 5.25628 9.33866 5.65061 9.16646 6.16721C8.84677 7.12629 8.63577 8.44428 8.60831 9.92105H11.8917C11.8642 8.44428 11.6532 7.12629 11.3335 6.16721C11.1613 5.65061 10.9635 5.25628 10.7599 4.99786C10.5533 4.73573 10.3785 4.65789 10.25 4.65789ZM12.5497 9.92105C12.5222 8.38967 12.3041 6.99846 11.9577 5.95916C11.8047 5.5001 11.6225 5.09724 11.4121 4.77881C13.8389 5.29173 15.6851 7.37849 15.8326 9.92105H12.5497ZM11.8917 10.5789H8.60831C8.63577 12.0557 8.84677 13.3737 9.16646 14.3328C9.33866 14.8494 9.53645 15.2437 9.74011 15.5021C9.94669 15.7643 10.1215 15.8421 10.25 15.8421C10.3785 15.8421 10.5533 15.7643 10.7599 15.5021C10.9635 15.2437 11.1613 14.8494 11.3335 14.3328C11.6532 13.3737 11.8642 12.0557 11.8917 10.5789ZM11.4121 15.7212C11.6225 15.4028 11.8047 14.9999 11.9577 14.5408C12.3041 13.5015 12.5222 12.1103 12.5497 10.5789H15.8326C15.6851 13.1215 13.8389 15.2083 11.4121 15.7212ZM9.0879 15.7212C8.87748 15.4028 8.69535 14.9999 8.54233 14.5408C8.19589 13.5015 7.97776 12.1103 7.95031 10.5789H4.66741C4.8149 13.1215 6.66108 15.2083 9.0879 15.7212Z" fill="#121212"/>
</svg>
