<svg xmlns="http://www.w3.org/2000/svg" width="30" height="30" viewBox="0 0 30 30" fill="none">
    <circle cx="21.875" cy="8.125" r="6.875" fill="#FFCC00" />
    <path fill-rule="evenodd" clip-rule="evenodd"
        d="M7.90893 7.10294C7.46379 7.10294 7.10294 7.46379 7.10294 7.90893V18.0899C7.10294 18.535 7.46379 18.8959 7.90893 18.8959H11.9813C12.2859 18.8959 12.5328 19.1428 12.5328 19.4473C12.5328 19.7519 12.2859 19.9988 11.9813 19.9988H7.90893C6.85466 19.9988 6 19.1441 6 18.0899V7.90893C6 6.85466 6.85466 6 7.90893 6H22.841C23.8953 6 24.7499 6.85466 24.7499 7.90893V14.6962C24.7499 15.0008 24.503 15.2477 24.1984 15.2477C23.8939 15.2477 23.647 15.0008 23.647 14.6962V7.90893C23.647 7.46379 23.2861 7.10294 22.841 7.10294H7.90893Z"
        fill="#121212" />
    <path fill-rule="evenodd" clip-rule="evenodd"
        d="M6 11.3027C6 10.9981 6.2469 10.7512 6.55147 10.7512H24.1984C24.503 10.7512 24.7499 10.9981 24.7499 11.3027C24.7499 11.6073 24.503 11.8542 24.1984 11.8542H6.55147C6.2469 11.8542 6 11.6073 6 11.3027Z"
        fill="#121212" />
    <path fill-rule="evenodd" clip-rule="evenodd"
        d="M9.39355 16.0537C9.39355 15.7491 9.64046 15.5022 9.94502 15.5022H11.9812C12.2858 15.5022 12.5327 15.7491 12.5327 16.0537C12.5327 16.3582 12.2858 16.6051 11.9812 16.6051H9.94502C9.64046 16.6051 9.39355 16.3582 9.39355 16.0537Z"
        fill="#121212" />
    <path fill-rule="evenodd" clip-rule="evenodd"
        d="M24.75 19.4472C24.75 19.1427 24.5031 18.8958 24.1985 18.8958H15.375C15.0705 18.8958 14.8236 19.1427 14.8236 19.4472C14.8236 19.7518 15.0705 19.9987 15.375 19.9987H24.1985C24.5031 19.9987 24.75 19.7518 24.75 19.4472Z"
        fill="#121212" />
    <path fill-rule="evenodd" clip-rule="evenodd"
        d="M18.4801 16.3424C18.2647 16.1271 17.9155 16.1271 17.7002 16.3424L14.9853 19.0573C14.8818 19.1608 14.8237 19.301 14.8237 19.4473C14.8237 19.5936 14.8818 19.7338 14.9853 19.8372L17.7002 22.5522C17.9155 22.7675 18.2647 22.7675 18.4801 22.5522C18.6954 22.3368 18.6954 21.9876 18.4801 21.7723L16.1551 19.4473L18.4801 17.1223C18.6954 16.907 18.6954 16.5578 18.4801 16.3424Z"
        fill="#121212" />
</svg>