<svg xmlns="http://www.w3.org/2000/svg" width="20" height="20" viewBox="0 0 20 20" fill="none">
    <circle cx="14.5833" cy="5.41659" r="4.58333" fill="#FFCC00" />
    <path fill-rule="evenodd" clip-rule="evenodd"
        d="M5.27262 4.73529C4.97586 4.73529 4.73529 4.97586 4.73529 5.27262V12.0599C4.73529 12.3567 4.97586 12.5972 5.27262 12.5972H7.98754C8.19058 12.5972 8.35518 12.7618 8.35518 12.9649C8.35518 13.1679 8.19058 13.3325 7.98754 13.3325H5.27262C4.56977 13.3325 4 12.7628 4 12.0599V5.27262C4 4.56977 4.56977 4 5.27262 4H15.2273C15.9302 4 16.4999 4.56977 16.4999 5.27262V9.79748C16.4999 10.0005 16.3353 10.1651 16.1323 10.1651C15.9292 10.1651 15.7646 10.0005 15.7646 9.79748V5.27262C15.7646 4.97586 15.5241 4.73529 15.2273 4.73529H5.27262Z"
        fill="#121212" />
    <path fill-rule="evenodd" clip-rule="evenodd"
        d="M4 7.53513C4 7.33208 4.1646 7.16748 4.36765 7.16748H16.1323C16.3353 7.16748 16.4999 7.33208 16.4999 7.53513C16.4999 7.73817 16.3353 7.90277 16.1323 7.90277H4.36765C4.1646 7.90277 4 7.73817 4 7.53513Z"
        fill="#121212" />
    <path fill-rule="evenodd" clip-rule="evenodd"
        d="M6.2627 10.7026C6.2627 10.4996 6.4273 10.335 6.63034 10.335H7.9878C8.19084 10.335 8.35545 10.4996 8.35545 10.7026C8.35545 10.9057 8.19084 11.0703 7.9878 11.0703H6.63034C6.4273 11.0703 6.2627 10.9057 6.2627 10.7026Z"
        fill="#121212" />
    <path fill-rule="evenodd" clip-rule="evenodd"
        d="M16.5 12.9648C16.5 12.7618 16.3354 12.5972 16.1324 12.5972H10.25C10.047 12.5972 9.88239 12.7618 9.88239 12.9648C9.88239 13.1679 10.047 13.3325 10.25 13.3325H16.1324C16.3354 13.3325 16.5 13.1679 16.5 12.9648Z"
        fill="#121212" />
    <path fill-rule="evenodd" clip-rule="evenodd"
        d="M12.3201 10.895C12.1765 10.7515 11.9437 10.7515 11.8001 10.895L9.99018 12.705C9.92123 12.7739 9.8825 12.8674 9.8825 12.9649C9.8825 13.0624 9.92123 13.156 9.99018 13.2249L11.8001 15.0349C11.9437 15.1784 12.1765 15.1784 12.3201 15.0349C12.4636 14.8913 12.4636 14.6585 12.3201 14.5149L10.7701 12.9649L12.3201 11.415C12.4636 11.2714 12.4636 11.0386 12.3201 10.895Z"
        fill="#121212" />
</svg>