<svg width="20" height="20" viewBox="0 0 20 20" fill="none" xmlns="http://www.w3.org/2000/svg">
<ellipse cx="14.167" cy="5.83325" rx="5" ry="5" fill="#FFF5CC"/>
<path fill-rule="evenodd" clip-rule="evenodd" d="M4.7799 4.65423C4.71049 4.65423 4.65423 4.71049 4.65423 4.7799V15.6468C4.65423 15.7162 4.71049 15.7724 4.7799 15.7724H7.04383C7.11324 15.7724 7.1695 15.7162 7.1695 15.6468V4.7799C7.1695 4.7105 7.11324 4.65423 7.04383 4.65423H4.7799ZM4 4.7799C4 4.34917 4.34917 4 4.7799 4H7.04383C7.47456 4 7.82373 4.34917 7.82373 4.7799V15.6468C7.82373 16.0775 7.47456 16.4267 7.04383 16.4267H4.7799C4.34917 16.4267 4 16.0775 4 15.6468V4.7799Z" fill="#121212"/>
<path fill-rule="evenodd" clip-rule="evenodd" d="M7.94982 6.46527C7.88042 6.46527 7.82415 6.52153 7.82415 6.59094V15.6467C7.82415 15.7161 7.88042 15.7723 7.94982 15.7723H10.2138C10.2832 15.7723 10.3394 15.7161 10.3394 15.6467V6.59094C10.3394 6.52153 10.2832 6.46527 10.2138 6.46527H7.94982ZM7.16992 6.59094C7.16992 6.16021 7.5191 5.81104 7.94982 5.81104H10.2138C10.6445 5.81104 10.9937 6.16021 10.9937 6.59094V15.6467C10.9937 16.0774 10.6445 16.4266 10.2138 16.4266H7.94982C7.5191 16.4266 7.16992 16.0774 7.16992 15.6467V6.59094Z" fill="#121212"/>
<path fill-rule="evenodd" clip-rule="evenodd" d="M11.5668 6.64747C11.4994 6.66432 11.4585 6.73256 11.4754 6.79989L13.6738 15.5847C13.6907 15.652 13.7589 15.693 13.8262 15.6761L15.5832 15.2364C15.6505 15.2196 15.6914 15.1513 15.6746 15.084L13.4761 6.29918C13.4593 6.23185 13.3911 6.19093 13.3237 6.20778L11.5668 6.64747ZM10.8407 6.95872C10.7361 6.54088 10.9901 6.11738 11.4079 6.01281L13.1649 5.57312C13.5827 5.46856 14.0062 5.72252 14.1108 6.14036L16.3092 14.9252C16.4138 15.343 16.1599 15.7665 15.742 15.8711L13.9851 16.3108C13.5672 16.4153 13.1437 16.1614 13.0391 15.7435L10.8407 6.95872Z" fill="#121212"/>
<path fill-rule="evenodd" clip-rule="evenodd" d="M4 12.9301C4 12.7495 4.14645 12.603 4.32711 12.603H7.49662C7.67728 12.603 7.82373 12.7495 7.82373 12.9301C7.82373 13.1108 7.67728 13.2573 7.49662 13.2573H4.32711C4.14645 13.2573 4 13.1108 4 12.9301Z" fill="#121212"/>
<path fill-rule="evenodd" clip-rule="evenodd" d="M7.16992 12.0244C7.16992 11.8437 7.31638 11.6973 7.49704 11.6973H10.6665C10.8472 11.6973 10.9937 11.8437 10.9937 12.0244C10.9937 12.205 10.8472 12.3515 10.6665 12.3515H7.49704C7.31638 12.3515 7.16992 12.205 7.16992 12.0244Z" fill="#121212"/>
<path fill-rule="evenodd" clip-rule="evenodd" d="M15.8551 13.1043C15.8989 13.2796 15.7924 13.4572 15.6171 13.501L13.0091 14.153C12.8338 14.1968 12.6562 14.0903 12.6124 13.915C12.5686 13.7397 12.6751 13.5621 12.8504 13.5183L15.4584 12.8663C15.6337 12.8225 15.8113 12.929 15.8551 13.1043Z" fill="#121212"/>
</svg>
