<svg width="30" height="30" viewBox="0 0 30 30" fill="none" xmlns="http://www.w3.org/2000/svg">
    <ellipse cx="21.25" cy="8.75" rx="7.5" ry="7.5" fill="#FFF5CC" />
    <path fill-rule="evenodd" clip-rule="evenodd"
        d="M6.47368 11.4278C5.92867 11.4278 5.48684 11.8696 5.48684 12.4146V22.7764C5.48684 23.3215 5.92867 23.7633 6.47368 23.7633H22.7566C23.3016 23.7633 23.7434 23.3215 23.7434 22.7764V12.4146C23.7434 11.8696 23.3016 11.4278 22.7566 11.4278H6.47368ZM4.5 12.4146C4.5 11.3246 5.38365 10.4409 6.47368 10.4409H22.7566C23.8466 10.4409 24.7303 11.3246 24.7303 12.4146V22.7764C24.7303 23.8665 23.8466 24.7501 22.7566 24.7501H6.47368C5.38365 24.7501 4.5 23.8665 4.5 22.7764V12.4146Z"
        fill="#121212" />
    <path fill-rule="evenodd" clip-rule="evenodd"
        d="M4.5 16.8552C4.5 16.5827 4.72091 16.3618 4.99342 16.3618H24.2368C24.5094 16.3618 24.7303 16.5827 24.7303 16.8552C24.7303 17.1277 24.5094 17.3487 24.2368 17.3487H4.99342C4.72091 17.3487 4.5 17.1277 4.5 16.8552Z"
        fill="#121212" />
    <path fill-rule="evenodd" clip-rule="evenodd"
        d="M14.615 14.8813C14.8875 14.8813 15.1084 15.1023 15.1084 15.3748V18.3353C15.1084 18.6078 14.8875 18.8287 14.615 18.8287C14.3425 18.8287 14.1216 18.6078 14.1216 18.3353V15.3748C14.1216 15.1023 14.3425 14.8813 14.615 14.8813Z"
        fill="#121212" />
    <path fill-rule="evenodd" clip-rule="evenodd"
        d="M11.1261 7.4452C12.0514 6.51985 13.3065 6 14.6151 6C15.9238 6 17.1788 6.51985 18.1041 7.4452C19.0295 8.37054 19.5493 9.62558 19.5493 10.9342C19.5493 11.2067 19.3284 11.4276 19.0559 11.4276C18.7834 11.4276 18.5625 11.2067 18.5625 10.9342C18.5625 9.8873 18.1466 8.88327 17.4063 8.143C16.6661 7.40272 15.662 6.98684 14.6151 6.98684C13.5682 6.98684 12.5642 7.40272 11.8239 8.143C11.0836 8.88328 10.6678 9.8873 10.6678 10.9342C10.6678 11.2067 10.4468 11.4276 10.1743 11.4276C9.90182 11.4276 9.68091 11.2067 9.68091 10.9342C9.68091 9.62558 10.2008 8.37054 11.1261 7.4452Z"
        fill="#121212" />
</svg>