<svg width="30" height="30" viewBox="0 0 30 30" fill="none" xmlns="http://www.w3.org/2000/svg">
    <circle cx="21.875" cy="8.125" r="6.875" fill="#EEEEEE" />
    <path fill-rule="evenodd" clip-rule="evenodd"
        d="M6.31706 7.17072C6.23624 7.17072 6.17072 7.23624 6.17072 7.31706V19.0243C6.17072 19.1051 6.23624 19.1706 6.31706 19.1706H23.8779C23.9587 19.1706 24.0242 19.1051 24.0242 19.0243V7.31706C24.0242 7.23624 23.9587 7.17072 23.8779 7.17072H6.31706ZM5 7.31706C5 6.58967 5.58967 6 6.31706 6H23.8779C24.6053 6 25.1949 6.58967 25.1949 7.31706V19.0243C25.1949 19.7517 24.6053 20.3413 23.8779 20.3413H6.31706C5.58967 20.3413 5 19.7517 5 19.0243V7.31706Z"
        fill="#0D0D0D" />
    <path fill-rule="evenodd" clip-rule="evenodd"
        d="M13.8523 19.2124C14.1524 19.3325 14.2984 19.6732 14.1784 19.9733L12.7149 23.6318C12.5949 23.932 12.2542 24.078 11.9541 23.9579C11.6539 23.8379 11.5079 23.4972 11.628 23.197L13.0914 19.5385C13.2114 19.2384 13.5521 19.0924 13.8523 19.2124Z"
        fill="#0D0D0D" />
    <path fill-rule="evenodd" clip-rule="evenodd"
        d="M16.3427 19.2124C16.6429 19.0924 16.9836 19.2384 17.1036 19.5385L18.567 23.197C18.6871 23.4972 18.5411 23.8379 18.2409 23.9579C17.9408 24.078 17.6001 23.932 17.48 23.6318L16.0166 19.9733C15.8966 19.6732 16.0426 19.3325 16.3427 19.2124Z"
        fill="#0D0D0D" />
    <path fill-rule="evenodd" clip-rule="evenodd"
        d="M10.1221 23.4147C10.1221 23.0914 10.3841 22.8293 10.7074 22.8293H19.4878C19.8111 22.8293 20.0732 23.0914 20.0732 23.4147C20.0732 23.738 19.8111 24.0001 19.4878 24.0001H10.7074C10.3841 24.0001 10.1221 23.738 10.1221 23.4147Z" fill="#0D0D0D" />
    <path fill-rule="evenodd" clip-rule="evenodd"
        d="M19.8731 9.80329C20.1164 10.0162 20.141 10.386 19.9282 10.6293L14.8062 16.4829C14.6046 16.7133 14.2595 16.7494 14.0145 16.5657L11.0877 14.3706C10.8291 14.1766 10.7767 13.8097 10.9706 13.5511C11.1646 13.2925 11.5315 13.2401 11.7901 13.434L14.2827 15.3034L19.0471 9.85835C19.26 9.61506 19.6298 9.5904 19.8731 9.80329Z"
        fill="#0D0D0D" />
</svg>