<svg width="30" height="30" viewBox="0 0 30 30" fill="none" xmlns="http://www.w3.org/2000/svg">
    <ellipse cx="21.25" cy="8.75" rx="7.5" ry="7.5" fill="#FFF5CC" />
    <path fill-rule="evenodd" clip-rule="evenodd"
        d="M7 9.52941C7 9.23703 7.25955 9 7.57971 9H22.4203C22.7405 9 23 9.23703 23 9.52941V26.4706C23 26.663 22.8856 26.8403 22.7013 26.9336C22.517 27.0269 22.2918 27.0215 22.113 26.9195L20.5652 26.0361L19.0174 26.9195C18.8294 27.0268 18.5909 27.0268 18.4029 26.9195L16.8551 26.0361L15.3072 26.9195C15.1193 27.0268 14.8807 27.0268 14.6928 26.9195L13.1449 26.0361L11.5971 26.9195C11.4091 27.0268 11.1706 27.0268 10.9826 26.9195L9.43478 26.0361L7.88696 26.9195C7.70825 27.0215 7.48301 27.0269 7.29868 26.9336C7.11436 26.8403 7 26.663 7 26.4706V9.52941ZM8.15942 10.0588V25.5154L9.12754 24.9628C9.31552 24.8555 9.55405 24.8555 9.74203 24.9628L11.2899 25.8463L12.8377 24.9628C13.0257 24.8555 13.2642 24.8555 13.4522 24.9628L15 25.8463L16.5478 24.9628C16.7358 24.8555 16.9743 24.8555 17.1623 24.9628L18.7101 25.8463L20.258 24.9628C20.446 24.8555 20.6845 24.8555 20.8725 24.9628L21.8406 25.5154V10.0588H8.15942ZM10.7101 12.9176C10.7101 12.6253 10.9697 12.3882 11.2899 12.3882H13.1449C13.4651 12.3882 13.7246 12.6253 13.7246 12.9176C13.7246 13.21 13.4651 13.4471 13.1449 13.4471H11.2899C10.9697 13.4471 10.7101 13.21 10.7101 12.9176ZM10.7101 16.3059C10.7101 16.0135 10.9697 15.7765 11.2899 15.7765H18.7101C19.0303 15.7765 19.2899 16.0135 19.2899 16.3059C19.2899 16.5983 19.0303 16.8353 18.7101 16.8353H11.2899C10.9697 16.8353 10.7101 16.5983 10.7101 16.3059ZM10.7101 19.6941C10.7101 19.4017 10.9697 19.1647 11.2899 19.1647H18.7101C19.0303 19.1647 19.2899 19.4017 19.2899 19.6941C19.2899 19.9865 19.0303 20.2235 18.7101 20.2235H11.2899C10.9697 20.2235 10.7101 19.9865 10.7101 19.6941Z"
        fill="#121212" />
</svg>