<svg width="30" height="30" viewBox="0 0 30 30" fill="none" xmlns="http://www.w3.org/2000/svg">
    <ellipse cx="21.25" cy="8.75" rx="7.5" ry="7.5" fill="#FFF5CC" />
    <path fill-rule="evenodd" clip-rule="evenodd"
        d="M10 9.36765C10 9.1646 10.1646 9 10.3676 9H19.7794C19.9825 9 20.1471 9.1646 20.1471 9.36765V21.1324C20.1471 21.266 20.0745 21.3891 19.9576 21.4539C19.8407 21.5187 19.6979 21.515 19.5846 21.4441L18.6029 20.8306L17.6213 21.4441C17.5021 21.5186 17.3508 21.5186 17.2316 21.4441L16.25 20.8306L15.2684 21.4441C15.1492 21.5186 14.9979 21.5186 14.8787 21.4441L13.8971 20.8306L12.9154 21.4441C12.7962 21.5186 12.645 21.5186 12.5257 21.4441L11.5441 20.8306L10.5625 21.4441C10.4492 21.515 10.3063 21.5187 10.1894 21.4539C10.0725 21.3891 10 21.266 10 21.1324V9.36765ZM10.7353 9.73529V20.469L11.3493 20.0853C11.4685 20.0108 11.6198 20.0108 11.739 20.0853L12.7206 20.6988L13.7022 20.0853C13.8214 20.0108 13.9727 20.0108 14.0919 20.0853L15.0735 20.6988L16.0551 20.0853C16.1744 20.0108 16.3256 20.0108 16.4449 20.0853L17.4265 20.6988L18.4081 20.0853C18.5273 20.0108 18.6786 20.0108 18.7978 20.0853L19.4118 20.469V9.73529H10.7353ZM12.3529 11.7206C12.3529 11.5175 12.5175 11.3529 12.7206 11.3529H13.8971C14.1001 11.3529 14.2647 11.5175 14.2647 11.7206C14.2647 11.9236 14.1001 12.0882 13.8971 12.0882H12.7206C12.5175 12.0882 12.3529 11.9236 12.3529 11.7206ZM12.3529 14.0735C12.3529 13.8705 12.5175 13.7059 12.7206 13.7059H17.4265C17.6295 13.7059 17.7941 13.8705 17.7941 14.0735C17.7941 14.2766 17.6295 14.4412 17.4265 14.4412H12.7206C12.5175 14.4412 12.3529 14.2766 12.3529 14.0735ZM12.3529 16.4265C12.3529 16.2234 12.5175 16.0588 12.7206 16.0588H17.4265C17.6295 16.0588 17.7941 16.2234 17.7941 16.4265C17.7941 16.6295 17.6295 16.7941 17.4265 16.7941H12.7206C12.5175 16.7941 12.3529 16.6295 12.3529 16.4265Z"
        fill="#121212" />
</svg>