<svg width="20" height="20" viewBox="0 0 20 20" fill="none" xmlns="http://www.w3.org/2000/svg">
<ellipse cx="14.167" cy="5.83325" rx="5" ry="5" fill="#FFF5CC"/>
<path fill-rule="evenodd" clip-rule="evenodd" d="M5.31579 5.64474C5.31579 4.73637 6.05217 4 6.96053 4H13.5395C14.4479 4 15.1842 4.73637 15.1842 5.64474V15.8421L16.1711 15.8421C16.3527 15.8421 16.5 15.9894 16.5 16.171C16.5 16.3527 16.3527 16.5 16.1711 16.5H4.32894C4.14727 16.5 4 16.3527 4 16.171C4 15.9894 4.14728 15.8421 4.32895 15.8421L5.31579 15.8421V5.64474ZM5.97369 15.8421H8.60527V12.8816C8.60527 12.3366 9.04709 11.8947 9.59211 11.8947H10.9079C11.4529 11.8947 11.8947 12.3366 11.8947 12.8816V15.8421H14.5263V5.64474C14.5263 5.09972 14.0845 4.6579 13.5395 4.6579H6.96053C6.41551 4.6579 5.97369 5.09972 5.97369 5.64474V15.8421ZM11.2369 15.8421V12.8816C11.2369 12.6999 11.0896 12.5526 10.9079 12.5526H9.59211C9.41044 12.5526 9.26316 12.6999 9.26316 12.8816V15.8421H11.2369ZM7.94737 6.96052C7.94737 6.77884 8.09465 6.63157 8.27632 6.63157H8.93422C9.11589 6.63157 9.26316 6.77884 9.26316 6.96052C9.26316 7.14219 9.11589 7.28946 8.93422 7.28946H8.27632C8.09465 7.28946 7.94737 7.14219 7.94737 6.96052ZM11.2369 6.96052C11.2369 6.77884 11.3841 6.63157 11.5658 6.63157H12.2237C12.4054 6.63157 12.5526 6.77884 12.5526 6.96052C12.5526 7.14219 12.4054 7.28946 12.2237 7.28946H11.5658C11.3841 7.28946 11.2369 7.14219 11.2369 6.96052ZM7.94737 9.5921C7.94737 9.41043 8.09465 9.26315 8.27632 9.26315H8.93422C9.11589 9.26315 9.26316 9.41043 9.26316 9.5921C9.26316 9.77377 9.11589 9.92105 8.93422 9.92105H8.27632C8.09465 9.92105 7.94737 9.77377 7.94737 9.5921ZM11.2369 9.5921C11.2369 9.41043 11.3841 9.26315 11.5658 9.26315H12.2237C12.4054 9.26315 12.5526 9.41043 12.5526 9.5921C12.5526 9.77377 12.4054 9.92105 12.2237 9.92105H11.5658C11.3841 9.92105 11.2369 9.77377 11.2369 9.5921Z" fill="#121212"/>
</svg>
