<svg width="30" height="30" viewBox="0 0 30 30" fill="none" xmlns="http://www.w3.org/2000/svg">
    <circle cx="21.875" cy="8.125" r="6.875" fill="#FFF5CC" />
    <path fill-rule="evenodd" clip-rule="evenodd"
        d="M7.90894 7.10294C7.4638 7.10294 7.10294 7.4638 7.10294 7.90894V18.0899C7.10294 18.5351 7.4638 18.8959 7.90894 18.8959H11.9813C12.2859 18.8959 12.5328 19.1428 12.5328 19.4474C12.5328 19.752 12.2859 19.9989 11.9813 19.9989H7.90894C6.85466 19.9989 6 19.1442 6 18.0899V7.90894C6 6.85466 6.85466 6 7.90894 6H22.8411C23.8953 6 24.75 6.85466 24.75 7.90894V14.6963C24.75 15.0008 24.5031 15.2477 24.1985 15.2477C23.894 15.2477 23.6471 15.0008 23.6471 14.6963V7.90894C23.6471 7.4638 23.2862 7.10294 22.8411 7.10294H7.90894Z"
        fill="#121212" />
    <path fill-rule="evenodd" clip-rule="evenodd"
        d="M6 11.3027C6 10.9981 6.2469 10.7512 6.55147 10.7512H24.1985C24.5031 10.7512 24.75 10.9981 24.75 11.3027C24.75 11.6073 24.5031 11.8542 24.1985 11.8542H6.55147C6.2469 11.8542 6 11.6073 6 11.3027Z"
        fill="#121212" />
    <path fill-rule="evenodd" clip-rule="evenodd"
        d="M9.39355 16.0539C9.39355 15.7493 9.64046 15.5024 9.94503 15.5024H11.9812C12.2858 15.5024 12.5327 15.7493 12.5327 16.0539C12.5327 16.3585 12.2858 16.6054 11.9812 16.6054H9.94503C9.64046 16.6054 9.39355 16.3585 9.39355 16.0539Z"
        fill="#121212" />
    <path fill-rule="evenodd" clip-rule="evenodd"
        d="M14.8232 19.4472C14.8232 19.1427 15.0701 18.8958 15.3747 18.8958H24.1982C24.5028 18.8958 24.7497 19.1427 24.7497 19.4472C24.7497 19.7518 24.5028 19.9987 24.1982 19.9987H15.3747C15.0701 19.9987 14.8232 19.7518 14.8232 19.4472Z"
        fill="#121212" />
    <path fill-rule="evenodd" clip-rule="evenodd"
        d="M21.0932 16.3424C21.3085 16.1271 21.6577 16.1271 21.8731 16.3424L24.588 19.0574C24.6914 19.1608 24.7495 19.3011 24.7495 19.4473C24.7495 19.5936 24.6914 19.7338 24.588 19.8373L21.8731 22.5522C21.6577 22.7676 21.3085 22.7676 21.0932 22.5522C20.8778 22.3368 20.8778 21.9877 21.0932 21.7723L23.4181 19.4473L21.0932 17.1223C20.8778 16.907 20.8778 16.5578 21.0932 16.3424Z"
        fill="#121212" />
</svg>