<svg xmlns="http://www.w3.org/2000/svg" width="20" height="20" viewBox="0 0 20 20" fill="none">
    <circle cx="14.5833" cy="5.41659" r="4.58333" fill="#FFCC00" />
    <path fill-rule="evenodd" clip-rule="evenodd"
        d="M5.27262 4.73529C4.97587 4.73529 4.73529 4.97586 4.73529 5.27262V12.06C4.73529 12.3567 4.97587 12.5973 5.27262 12.5973H7.98756C8.1906 12.5973 8.3552 12.7619 8.3552 12.9649C8.3552 13.168 8.1906 13.3326 7.98756 13.3326H5.27262C4.56977 13.3326 4 12.7628 4 12.06V5.27262C4 4.56977 4.56977 4 5.27262 4H15.2274C15.9302 4 16.5 4.56977 16.5 5.27262V9.79751C16.5 10.0006 16.3354 10.1652 16.1324 10.1652C15.9293 10.1652 15.7647 10.0006 15.7647 9.79751V5.27262C15.7647 4.97586 15.5241 4.73529 15.2274 4.73529H5.27262Z"
        fill="#121212" />
    <path fill-rule="evenodd" clip-rule="evenodd"
        d="M4 7.53513C4 7.33208 4.1646 7.16748 4.36765 7.16748H16.1324C16.3354 7.16748 16.5 7.33208 16.5 7.53513C16.5 7.73817 16.3354 7.90277 16.1324 7.90277H4.36765C4.1646 7.90277 4 7.73817 4 7.53513Z"
        fill="#121212" />
    <path fill-rule="evenodd" clip-rule="evenodd"
        d="M6.2627 10.7026C6.2627 10.4996 6.4273 10.335 6.63034 10.335H7.98781C8.19085 10.335 8.35546 10.4996 8.35546 10.7026C8.35546 10.9057 8.19085 11.0703 7.98781 11.0703H6.63034C6.4273 11.0703 6.2627 10.9057 6.2627 10.7026Z"
        fill="#121212" />
    <path fill-rule="evenodd" clip-rule="evenodd"
        d="M9.88281 12.9648C9.88281 12.7618 10.0474 12.5972 10.2505 12.5972H16.1328C16.3359 12.5972 16.5005 12.7618 16.5005 12.9648C16.5005 13.1679 16.3359 13.3325 16.1328 13.3325H10.2505C10.0474 13.3325 9.88281 13.1679 9.88281 12.9648Z"
        fill="#121212" />
    <path fill-rule="evenodd" clip-rule="evenodd"
        d="M14.0618 10.895C14.2054 10.7515 14.4381 10.7515 14.5817 10.895L16.3917 12.705C16.4606 12.7739 16.4994 12.8674 16.4994 12.965C16.4994 13.0625 16.4606 13.156 16.3917 13.2249L14.5817 15.0349C14.4381 15.1785 14.2054 15.1785 14.0618 15.0349C13.9182 14.8913 13.9182 14.6585 14.0618 14.5149L15.6118 12.965L14.0618 11.415C13.9182 11.2714 13.9182 11.0386 14.0618 10.895Z"
        fill="#121212" />
</svg>