<svg width="20" height="20" viewBox="0 0 20 20" fill="none" xmlns="http://www.w3.org/2000/svg">
    <ellipse cx="14.167" cy="5.83325" rx="5" ry="5" fill="#FFCC00" />
    <path fill-rule="evenodd" clip-rule="evenodd"
        d="M5.81375 4H13.2397C13.3843 4.00204 13.5258 4.04231 13.6498 4.11666C13.7738 4.19101 13.876 4.29683 13.9459 4.4234C14.0159 4.54997 14.0511 4.69278 14.0481 4.83735C14.045 4.98192 14.0038 5.12312 13.9286 5.24664L13.9265 5.25013L9.83599 11.8021C9.76883 11.9097 9.65096 11.9751 9.52413 11.9751C9.39731 11.9751 9.27944 11.9097 9.21227 11.8021L5.11963 5.24665C5.04442 5.12314 5.00323 4.98193 5.00018 4.83735C4.99714 4.69278 5.03237 4.54997 5.10232 4.4234C5.17226 4.29683 5.27443 4.19101 5.39846 4.11666C5.52249 4.04231 5.66397 4.00208 5.80856 4.00004L5.81375 4ZM5.81737 4.73529C5.80296 4.73576 5.78889 4.73989 5.77651 4.74732C5.76368 4.75501 5.75311 4.76596 5.74587 4.77905C5.73864 4.79214 5.73499 4.80692 5.73531 4.82187C5.73561 4.83641 5.73965 4.85063 5.74703 4.86315L9.52413 10.9132L13.3012 4.86315C13.3086 4.85063 13.3126 4.83642 13.313 4.82187C13.3133 4.80692 13.3096 4.79214 13.3024 4.77905C13.2952 4.76596 13.2846 4.75501 13.2718 4.74732C13.2594 4.73989 13.2453 4.73576 13.2309 4.73529H5.81737Z"
        fill="#121212" />
    <path fill-rule="evenodd" clip-rule="evenodd"
        d="M9.52487 11.2397C9.72792 11.2397 9.89252 11.4043 9.89252 11.6074V16.1322C9.89252 16.3353 9.72792 16.4999 9.52487 16.4999C9.32183 16.4999 9.15723 16.3353 9.15723 16.1322V11.6074C9.15723 11.4043 9.32183 11.2397 9.52487 11.2397Z"
        fill="#121212" />
    <path fill-rule="evenodd" clip-rule="evenodd"
        d="M6.89453 16.1323C6.89453 15.9292 7.05913 15.7646 7.26218 15.7646H11.787C11.9901 15.7646 12.1547 15.9292 12.1547 16.1323C12.1547 16.3353 11.9901 16.4999 11.787 16.4999H7.26218C7.05913 16.4999 6.89453 16.3353 6.89453 16.1323Z"
        fill="#121212" />
    <path fill-rule="evenodd" clip-rule="evenodd"
        d="M6.04395 6.6301C6.04395 6.42705 6.20855 6.26245 6.41159 6.26245H12.6378C12.8408 6.26245 13.0054 6.42705 13.0054 6.6301C13.0054 6.83314 12.8408 6.99774 12.6378 6.99774H6.41159C6.20855 6.99774 6.04395 6.83314 6.04395 6.6301Z"
        fill="#121212" />
</svg>