<svg width="30" height="30" viewBox="0 0 30 30" fill="none" xmlns="http://www.w3.org/2000/svg">
    <ellipse cx="21.25" cy="8.75" rx="7.5" ry="7.5" fill="#EEEEEE" />
    <path fill-rule="evenodd" clip-rule="evenodd"
        d="M18.3818 6.13645C18.1739 5.95452 17.8635 5.95452 17.6556 6.13645L12.2257 10.8875C12.1061 10.9923 12.0374 11.1435 12.0374 11.3026V24.1984C12.0374 24.503 12.2843 24.7499 12.5889 24.7499H23.4485C23.7531 24.7499 24 24.503 24 24.1984V11.3026C24 11.1435 23.9314 10.9923 23.8117 10.8875L18.3818 6.13645ZM22.8971 11.5528V23.6469H13.1403V11.5528L18.0187 7.28424L22.8971 11.5528Z"
        fill="#121212" />
    <path fill-rule="evenodd" clip-rule="evenodd"
        d="M13.1406 14.696C13.1406 14.3914 12.8937 14.1445 12.5892 14.1445H5.80187C5.49731 14.1445 5.25041 14.3914 5.25041 14.696V24.1982C5.25041 24.5028 5.49731 24.7497 5.80187 24.7497H12.5892C12.8937 24.7497 13.1406 24.5028 13.1406 24.1982C13.1406 23.8936 12.8937 23.6467 12.5892 23.6467H6.35334V15.2475H12.5892C12.8937 15.2475 13.1406 15.0006 13.1406 14.696Z"
        fill="#121212" />
    <path fill-rule="evenodd" clip-rule="evenodd"
        d="M18.0188 20.9321C17.7143 20.9321 17.4674 21.179 17.4674 21.4836V24.1985C17.4674 24.5031 17.7143 24.75 18.0188 24.75C18.3234 24.75 18.5703 24.5031 18.5703 24.1985V21.4836C18.5703 21.179 18.3234 20.9321 18.0188 20.9321Z" fill="#121212" />
    <path fill-rule="evenodd" clip-rule="evenodd"
        d="M20.6064 17.4111C20.6064 17.1065 20.3595 16.8596 20.055 16.8596H15.9826C15.678 16.8596 15.4311 17.1065 15.4311 17.4111C15.4311 17.7157 15.678 17.9626 15.9826 17.9626H20.055C20.3595 17.9626 20.6064 17.7157 20.6064 17.4111Z" fill="#121212" />
    <path fill-rule="evenodd" clip-rule="evenodd"
        d="M20.6064 13.3388C20.6064 13.0343 20.3595 12.7874 20.055 12.7874H15.9826C15.678 12.7874 15.4311 13.0343 15.4311 13.3388C15.4311 13.6434 15.678 13.8903 15.9826 13.8903H20.055C20.3595 13.8903 20.6064 13.6434 20.6064 13.3388Z" fill="#121212" />
</svg>