<svg width="30" height="30" viewBox="0 0 30 30" fill="none" xmlns="http://www.w3.org/2000/svg">
    <circle cx="21.875" cy="8.125" r="6.875" fill="#FFF5CC" />
    <path fill-rule="evenodd" clip-rule="evenodd"
        d="M9.31197 7.10294C8.92039 7.10294 8.60294 7.42039 8.60294 7.81197V22.938C8.60294 23.3296 8.92039 23.6471 9.31197 23.6471H19.396C19.7876 23.6471 20.105 23.3296 20.105 22.938V7.81197C20.105 7.42039 19.7876 7.10294 19.396 7.10294H9.31197ZM7.5 7.81197C7.5 6.81125 8.31125 6 9.31197 6H19.396C20.3967 6 21.208 6.81125 21.208 7.81197V22.938C21.208 23.9388 20.3967 24.75 19.396 24.75H9.31197C8.31125 24.75 7.5 23.9388 7.5 22.938V7.81197Z"
        fill="#121212" />
    <path fill-rule="evenodd" clip-rule="evenodd"
        d="M12.8574 21.0473C12.8574 20.7428 13.1043 20.4958 13.4089 20.4958H15.2996C15.6042 20.4958 15.8511 20.7428 15.8511 21.0473C15.8511 21.3519 15.6042 21.5988 15.2996 21.5988H13.4089C13.1043 21.5988 12.8574 21.3519 12.8574 21.0473Z"
        fill="#121212" />
</svg>