<svg xmlns="http://www.w3.org/2000/svg" width="20" height="20" viewBox="0 0 20 20" fill="none">
    <circle cx="14.5833" cy="5.41659" r="4.58333" fill="#FFCC00" />
    <path fill-rule="evenodd" clip-rule="evenodd"
        d="M6.20798 4.73529C5.94692 4.73529 5.73529 4.94692 5.73529 5.20798V15.292C5.73529 15.5531 5.94692 15.7647 6.20798 15.7647H12.9307C13.1917 15.7647 13.4034 15.5531 13.4034 15.292V5.20798C13.4034 4.94692 13.1917 4.73529 12.9307 4.73529H6.20798ZM5 5.20798C5 4.54083 5.54083 4 6.20798 4H12.9307C13.5978 4 14.1387 4.54083 14.1387 5.20798V15.292C14.1387 15.9592 13.5978 16.5 12.9307 16.5H6.20798C5.54083 16.5 5 15.9592 5 15.292V5.20798Z"
        fill="#121212" />
    <path fill-rule="evenodd" clip-rule="evenodd"
        d="M8.57129 14.0315C8.57129 13.8284 8.73589 13.6638 8.93894 13.6638H10.1994C10.4025 13.6638 10.5671 13.8284 10.5671 14.0315C10.5671 14.2345 10.4025 14.3991 10.1994 14.3991H8.93894C8.73589 14.3991 8.57129 14.2345 8.57129 14.0315Z"
        fill="#121212" />
</svg>