<svg width="30" height="30" viewBox="0 0 30 30" fill="none" xmlns="http://www.w3.org/2000/svg">
    <circle cx="21.875" cy="8.125" r="6.875" fill="#FFF5CC" />
    <path fill-rule="evenodd" clip-rule="evenodd"
        d="M12.7966 12.61C12.5464 12.8729 12.4497 13.1163 12.4497 13.3328C12.4497 13.5493 12.5464 13.7928 12.7966 14.0557C13.0493 14.3211 13.4382 14.5827 13.9565 14.813C14.9918 15.2732 16.4567 15.5704 18.101 15.5704C19.7454 15.5704 21.2103 15.2732 22.2456 14.813C22.7639 14.5827 23.1528 14.3211 23.4055 14.0557C23.6557 13.7928 23.7523 13.5493 23.7523 13.3328C23.7523 13.1163 23.6557 12.8729 23.4055 12.61C23.1528 12.3445 22.7639 12.083 22.2456 11.8526C21.2103 11.3925 19.7454 11.0953 18.101 11.0953C16.4567 11.0953 14.9918 11.3925 13.9565 11.8526C13.4382 12.083 13.0493 12.3445 12.7966 12.61ZM13.5557 10.9508C14.7443 10.4225 16.3517 10.1084 18.101 10.1084C19.8504 10.1084 21.4578 10.4225 22.6464 10.9508C23.2401 11.2147 23.7511 11.5416 24.1203 11.9296C24.492 12.3202 24.7392 12.7952 24.7392 13.3328C24.7392 13.8704 24.492 14.3455 24.1203 14.736C23.7511 15.124 23.2401 15.451 22.6464 15.7148C21.4578 16.2431 19.8504 16.5572 18.101 16.5572C16.3517 16.5572 14.7443 16.2431 13.5557 15.7148C12.962 15.451 12.451 15.124 12.0818 14.736C11.7101 14.3455 11.4629 13.8704 11.4629 13.3328C11.4629 12.7952 11.7101 12.3202 12.0818 11.9296C12.451 11.5416 12.962 11.2147 13.5557 10.9508Z"
        fill="#121212" />
    <path fill-rule="evenodd" clip-rule="evenodd"
        d="M11.9563 12.8391C12.2288 12.8391 12.4497 13.06 12.4497 13.3325V21.5255C12.4497 21.7411 12.5457 21.984 12.7945 22.2465C13.0457 22.5115 13.4327 22.7731 13.9496 23.0037C14.9821 23.4643 16.4467 23.7631 18.101 23.7631C19.7554 23.7631 21.22 23.4643 22.2525 23.0037C22.7694 22.7731 23.1564 22.5115 23.4076 22.2465C23.6564 21.984 23.7523 21.7411 23.7523 21.5255V13.3325C23.7523 13.06 23.9733 12.8391 24.2458 12.8391C24.5183 12.8391 24.7392 13.06 24.7392 13.3325V21.5255C24.7392 22.0609 24.4938 22.535 24.1239 22.9253C23.7563 23.3132 23.2472 23.6405 22.6546 23.9049C21.4682 24.4342 19.8604 24.7499 18.101 24.7499C16.3417 24.7499 14.7339 24.4342 13.5475 23.9049C12.9549 23.6405 12.4458 23.3132 12.0782 22.9253C11.7083 22.535 11.4629 22.0609 11.4629 21.5255V13.3325C11.4629 13.06 11.6838 12.8391 11.9563 12.8391Z"
        fill="#121212" />
    <path fill-rule="evenodd" clip-rule="evenodd"
        d="M11.9563 16.9358C12.2288 16.9358 12.4497 17.1567 12.4497 17.4292C12.4497 17.6448 12.5457 17.8877 12.7945 18.1502C13.0457 18.4152 13.4327 18.6768 13.9496 18.9074C14.9821 19.368 16.4467 19.6668 18.101 19.6668C19.7554 19.6668 21.22 19.368 22.2525 18.9074C22.7694 18.6768 23.1564 18.4152 23.4076 18.1502C23.6564 17.8877 23.7523 17.6448 23.7523 17.4292C23.7523 17.1567 23.9733 16.9358 24.2458 16.9358C24.5183 16.9358 24.7392 17.1567 24.7392 17.4292C24.7392 17.9646 24.4938 18.4387 24.1239 18.829C23.7563 19.2169 23.2472 19.5442 22.6546 19.8086C21.4682 20.3379 19.8604 20.6536 18.101 20.6536C16.3417 20.6536 14.7339 20.3379 13.5475 19.8086C12.9549 19.5442 12.4458 19.2169 12.0782 18.829C11.7083 18.4387 11.4629 17.9646 11.4629 17.4292C11.4629 17.1567 11.6838 16.9358 11.9563 16.9358Z"
        fill="#121212" />
    <path fill-rule="evenodd" clip-rule="evenodd"
        d="M12.6256 6.01199C14.5939 5.91424 16.5455 6.41596 18.2227 7.451C18.4546 7.59412 18.5266 7.89814 18.3835 8.13005C18.2404 8.36195 17.9364 8.43393 17.7045 8.29081C16.194 7.35868 14.4359 6.90787 12.6633 6.9982C12.6549 6.99863 12.6465 6.99884 12.6382 6.99884C10.9909 6.99884 9.52607 7.29752 8.49155 7.75837C7.97365 7.98908 7.58523 8.25077 7.33297 8.51604C7.083 8.77889 6.98686 9.02159 6.98686 9.2364C6.98686 9.46548 7.09739 9.72829 7.39109 10.0149C7.68632 10.3031 8.1374 10.5838 8.73004 10.8286C8.98192 10.9326 9.10176 11.2211 8.99773 11.473C8.89369 11.7249 8.60517 11.8447 8.3533 11.7407C7.68969 11.4666 7.11664 11.126 6.70182 10.7212C6.28546 10.3148 6 9.81297 6 9.2364C6 8.7002 6.24693 8.22601 6.61785 7.83598C6.98645 7.44837 7.4967 7.1212 8.08998 6.85691C9.27497 6.32903 10.8777 6.01349 12.6256 6.01199Z"
        fill="#121212" />
    <path fill-rule="evenodd" clip-rule="evenodd"
        d="M6.49343 8.74292C6.76594 8.74292 6.98686 8.96384 6.98686 9.23635V17.4293C6.98686 17.6584 7.09739 17.9212 7.39109 18.2078C7.68632 18.496 8.1374 18.7767 8.73004 19.0215C8.98192 19.1255 9.10176 19.4141 8.99773 19.6659C8.89369 19.9178 8.60517 20.0377 8.3533 19.9336C7.68969 19.6595 7.11664 19.319 6.70182 18.9141C6.28546 18.5077 6 18.0059 6 17.4293V9.23635C6 8.96384 6.22092 8.74292 6.49343 8.74292Z"
        fill="#121212" />
    <path fill-rule="evenodd" clip-rule="evenodd"
        d="M6.49343 12.8394C6.76594 12.8394 6.98686 13.0603 6.98686 13.3328C6.98686 13.5619 7.09739 13.8247 7.39109 14.1113C7.68632 14.3994 8.1374 14.6802 8.73004 14.925C8.98192 15.029 9.10176 15.3175 8.99773 15.5694C8.89369 15.8213 8.60517 15.9411 8.3533 15.8371C7.68969 15.563 7.11664 15.2224 6.70182 14.8176C6.28546 14.4112 6 13.9094 6 13.3328C6 13.0603 6.22092 12.8394 6.49343 12.8394Z"
        fill="#121212" />
</svg>