<svg width="30" height="30" viewBox="0 0 30 30" fill="none" xmlns="http://www.w3.org/2000/svg">
    <ellipse cx="21.25" cy="8.75" rx="7.5" ry="7.5" fill="#FFF5CC" />
    <path fill-rule="evenodd" clip-rule="evenodd"
        d="M6.55147 6C6.85604 6 7.10294 6.2469 7.10294 6.55147V23.6471H23.4313C23.7358 23.6471 23.9827 23.894 23.9827 24.1985C23.9827 24.5031 23.7358 24.75 23.4313 24.75H6.55147C6.2469 24.75 6 24.5031 6 24.1985V6.55147C6 6.2469 6.2469 6 6.55147 6Z"
        fill="#121212" />
    <path fill-rule="evenodd" clip-rule="evenodd"
        d="M19.2906 8.58103C19.4537 8.5587 19.6182 8.6104 19.7392 8.72199L24.573 13.1794C24.7969 13.3859 24.811 13.7348 24.6045 13.9587C24.3981 14.1826 24.0492 14.1967 23.8253 13.9902L19.4829 9.98591L14.3101 18.3506C14.2234 18.4908 14.0786 18.5848 13.9153 18.607C13.752 18.6292 13.5873 18.5772 13.4664 18.4652L10.0137 15.2683C9.79023 15.0613 9.77681 14.7124 9.98374 14.4889C10.1907 14.2655 10.5396 14.252 10.7631 14.459L13.7243 17.2009L18.8963 8.83735C18.9829 8.69735 19.1275 8.60335 19.2906 8.58103Z"
        fill="#121212" />
</svg>