<svg width="30" height="30" viewBox="0 0 30 30" fill="none" xmlns="http://www.w3.org/2000/svg">
    <circle cx="21.875" cy="8.125" r="6.875" fill="#EEEEEE" />
    <path fill-rule="evenodd" clip-rule="evenodd"
        d="M7.90894 7.10294C7.4638 7.10294 7.10294 7.4638 7.10294 7.90894V16.0537C7.10294 16.4989 7.4638 16.8597 7.90894 16.8597H22.8411C23.2862 16.8597 23.6471 16.4989 23.6471 16.0537V7.90894C23.6471 7.4638 23.2862 7.10294 22.8411 7.10294H7.90894ZM6 7.90894C6 6.85466 6.85466 6 7.90894 6H22.8411C23.8953 6 24.75 6.85466 24.75 7.90894V16.0537C24.75 17.108 23.8953 17.9627 22.8411 17.9627H7.90894C6.85466 17.9627 6 17.108 6 16.0537V7.90894Z"
        fill="#121212" />
    <path fill-rule="evenodd" clip-rule="evenodd"
        d="M16.3084 10.4965C15.4884 10.4965 14.8236 11.1612 14.8236 11.9812C14.8236 12.8012 15.4884 13.466 16.3084 13.466C17.1284 13.466 17.7931 12.8012 17.7931 11.9812C17.7931 11.1612 17.1284 10.4965 16.3084 10.4965ZM13.7207 11.9812C13.7207 10.5521 14.8792 9.39355 16.3084 9.39355C17.7375 9.39355 18.896 10.5521 18.896 11.9812C18.896 13.4104 17.7375 14.5689 16.3084 14.5689C14.8792 14.5689 13.7207 13.4104 13.7207 11.9812Z"
        fill="#121212" />
    <path fill-rule="evenodd" clip-rule="evenodd"
        d="M7.48926 20.8049C7.48926 20.5003 7.73616 20.2534 8.04073 20.2534H22.5863C22.8909 20.2534 23.1378 20.5003 23.1378 20.8049C23.1378 21.1095 22.8909 21.3564 22.5863 21.3564H8.04073C7.73616 21.3564 7.48926 21.1095 7.48926 20.8049Z" fill="#121212" />
    <path fill-rule="evenodd" clip-rule="evenodd"
        d="M8.75781 24.1984C8.75781 23.8939 9.00471 23.647 9.30928 23.647H21.4416C21.7462 23.647 21.9931 23.8939 21.9931 24.1984C21.9931 24.503 21.7462 24.7499 21.4416 24.7499H9.30928C9.00471 24.7499 8.75781 24.503 8.75781 24.1984Z" fill="#121212" />
</svg>