<svg width="30" height="34" viewBox="0 0 30 34" fill="none" xmlns="http://www.w3.org/2000/svg">
<circle cx="22" cy="8" r="8" fill="#FFCC00"/>
<path d="M16.15 6.82505L24.2875 11.2125C25.2375 11.725 25.2375 13.1875 24.2875 13.7L16.15 18.0875C15.425 18.475 14.575 18.475 13.85 18.0875L5.7125 13.7C4.7625 13.1875 4.7625 11.725 5.7125 11.2125L13.85 6.82505C14.575 6.43755 15.425 6.43755 16.15 6.82505Z" stroke="white" stroke-width="1.5" stroke-linecap="round" stroke-linejoin="round"/>
<path d="M4.5125 16.6625L12.075 20.45C13.0125 20.925 13.6125 21.8875 13.6125 22.9375V30.0875C13.6125 31.125 12.525 31.7875 11.6 31.325L4.0375 27.5375C3.1 27.0625 2.5 26.1 2.5 25.05V17.9C2.5 16.8625 3.5875 16.2 4.5125 16.6625Z" stroke="white" stroke-width="1.5" stroke-linecap="round" stroke-linejoin="round"/>
<path d="M25.4867 16.6626L17.9242 20.4501C16.9867 20.9251 16.3867 21.8876 16.3867 22.9376V30.0876C16.3867 31.1251 17.4742 31.7876 18.3992 31.3251L25.9617 27.5376C26.8992 27.0626 27.4992 26.1001 27.4992 25.0501V17.9001C27.4992 16.8626 26.4117 16.2001 25.4867 16.6626Z" stroke="white" stroke-width="1.5" stroke-linecap="round" stroke-linejoin="round"/>
</svg>
