<svg width="32" height="33" viewBox="0 0 32 33" fill="none" xmlns="http://www.w3.org/2000/svg">
<circle cx="24" cy="8" r="8" fill="#FFCC00"/>
<path d="M15 30.5C21.9036 30.5 27.5 24.9036 27.5 18C27.5 11.0964 21.9036 5.5 15 5.5C8.09644 5.5 2.5 11.0964 2.5 18C2.5 24.9036 8.09644 30.5 15 30.5Z" stroke="white" stroke-width="1.5" stroke-linecap="round" stroke-linejoin="round"/>
<path d="M10 6.75H11.25C8.8125 14.05 8.8125 21.95 11.25 29.25H10" stroke="white" stroke-width="1.5" stroke-linecap="round" stroke-linejoin="round"/>
<path d="M18.75 6.75C21.1875 14.05 21.1875 21.95 18.75 29.25" stroke="white" stroke-width="1.5" stroke-linecap="round" stroke-linejoin="round"/>
<path d="M3.75 23V21.75C11.05 24.1875 18.95 24.1875 26.25 21.75V23" stroke="white" stroke-width="1.5" stroke-linecap="round" stroke-linejoin="round"/>
<path d="M3.75 14.25C11.05 11.8125 18.95 11.8125 26.25 14.25" stroke="white" stroke-width="1.5" stroke-linecap="round" stroke-linejoin="round"/>
</svg>
