<svg width="31" height="30" viewBox="0 0 31 30" fill="none" xmlns="http://www.w3.org/2000/svg">
<ellipse cx="23" cy="8.26667" rx="8" ry="8.26667" fill="#FFCC00"/>
<path d="M9.92502 18.1376C9.15002 17.8501 8.46252 17.2876 8.02502 16.4876C7.02502 14.6626 7.63752 12.2876 9.41252 11.1876L12.3375 9.37509C14.1 8.27509 16.375 8.87508 17.375 10.6876C18.375 12.5126 17.7625 14.8876 15.9875 15.9876L15.6 16.2626" stroke="white" stroke-width="1.5" stroke-linecap="round" stroke-linejoin="round"/>
<path d="M20.1375 11.8125C20.9125 12.1 21.6 12.6625 22.0375 13.4625C23.0375 15.2875 22.425 17.6625 20.65 18.7625L17.725 20.575C15.9625 21.675 13.6875 21.075 12.6875 19.2625C11.6875 17.4375 12.3 15.0625 14.075 13.9625L14.4625 13.6875" stroke="white" stroke-width="1.5" stroke-linecap="round" stroke-linejoin="round"/>
<path d="M15 27.5C21.9036 27.5 27.5 21.9036 27.5 15C27.5 8.09644 21.9036 2.5 15 2.5C8.09644 2.5 2.5 8.09644 2.5 15C2.5 21.9036 8.09644 27.5 15 27.5Z" stroke="white" stroke-width="1.5" stroke-linecap="round" stroke-linejoin="round"/>
</svg>
