<svg width="24" height="24" viewBox="0 0 24 24" fill="none" xmlns="http://www.w3.org/2000/svg">
<path d="M12 22C17.522 22 22 17.523 22 12C22 6.478 17.522 2 12 2C6.477 2 2 6.478 2 12C2 17.523 6.477 22 12 22ZM15.5 8.5L8.5 15.5L15.5 8.5ZM9.25 10.5C9.94 10.5 10.5 9.94 10.5 9.25C10.5 8.56 9.94 8 9.25 8C8.56 8 8 8.56 8 9.25C8 9.94 8.56 10.5 9.25 10.5ZM14.75 16C15.44 16 16 15.44 16 14.75C16 14.06 15.44 13.5 14.75 13.5C14.06 13.5 13.5 14.06 13.5 14.75C13.5 15.44 14.06 16 14.75 16Z" stroke="black" stroke-linecap="round" stroke-linejoin="round"/>
</svg>
