<svg width="24" height="24" viewBox="0 0 24 24" fill="none" xmlns="http://www.w3.org/2000/svg">
<path d="M19.5 11.521C19.5 11.521 18.557 12.056 16.5 12.056M4.5 12.056C4.5 12.056 5.442 11.521 7.5 11.521M2 17.833V6.73301C2 6.73301 3.333 5.33301 7.333 5.33301C11.333 5.33301 12.399 7.33301 16.666 7.33301C18.473 7.28501 20.265 7.00501 22 6.50001V17.833C22 17.833 20.533 18.667 17.333 18.667C14.133 18.667 11.6 16.667 8 16.667C5.94 16.638 3.897 17.035 2 17.833ZM13.967 12C14.167 13.1 13.428 14 12.35 14C11.271 14 10.232 13.1 10.032 12C9.833 10.9 10.571 10 11.65 10C12.729 10 13.787 10.88 13.967 12Z" stroke="#111111" stroke-linecap="round" stroke-linejoin="round"/>
</svg>
