<svg width="1512" height="1656" viewBox="0 0 1512 1656" fill="none" xmlns="http://www.w3.org/2000/svg">
    <defs>
        <clipPath id="clip0_973_1476">
            <rect width="1512" height="1656" fill="white" />
        </clipPath>
    </defs>
    <g clip-path="url(#clip0_973_1476)">
        <rect width="1512" height="1697" fill="#1A1A1A" />
        <path d="M260.547 65.6818L77.0471 -41.9348C71.7139 -45.0625 65 -41.2166 65 -35.034V40.3776C65 43.2376 66.5269 45.8801 69.0047 47.3085L252.505 153.085C257.838 156.16 264.5 152.31 264.5 146.155V72.5826C264.5 69.7439 262.996 67.1178 260.547 65.6818Z"
            fill="#660099" />
        <path d="M289.547 1612.32L106.047 1719.93C100.714 1723.06 94 1719.22 94 1713.03V1637.62C94 1634.76 95.5269 1632.12 98.0047 1630.69L281.505 1524.91C286.838 1521.84 293.5 1525.69 293.5 1531.85V1605.42C293.5 1608.26 291.996 1610.88 289.547 1612.32Z"
            fill="#991400" />
        <path
            d="M1369.51 944.083L1511.78 1102.24C1515.92 1106.83 1523.48 1105.2 1525.35 1099.31L1548.2 1027.44C1549.07 1024.72 1548.41 1021.74 1546.49 1019.62L1403.66 863.224C1399.51 858.678 1391.99 860.328 1390.12 866.195L1367.84 936.309C1366.98 939.014 1367.61 941.973 1369.51 944.083Z"
            fill="#4D4D4D" />
        <path
            d="M834.585 461.875L728.56 646.299C725.479 651.659 717.741 651.647 714.677 646.277L677.296 580.782C675.878 578.298 675.894 575.247 677.338 572.778L784.275 389.951C787.383 384.638 795.077 384.678 798.129 390.025L834.598 453.922C836.005 456.387 836 459.414 834.585 461.875Z"
            fill="#997A00" />
        <path
            d="M315.219 928.784L439.145 1101.69C442.747 1106.71 450.444 1105.93 452.957 1100.28L483.605 1031.38C484.767 1028.76 484.446 1025.73 482.763 1023.42L358.089 852.193C354.466 847.216 346.814 848.026 344.312 853.65L314.412 920.872C313.258 923.466 313.566 926.477 315.219 928.784Z"
            fill="#003399" />
        <path d="M1165.55 1207.32L982.047 1314.93C976.714 1318.06 970 1314.22 970 1308.03V1232.62C970 1229.76 971.527 1227.12 974.005 1225.69L1157.5 1119.91C1162.84 1116.84 1169.5 1120.69 1169.5 1126.85V1200.42C1169.5 1203.26 1168 1205.88 1165.55 1207.32Z"
            fill="#994700" />
        <path
            d="M1391.97 385.139L1245.24 231.112C1240.98 226.636 1233.46 228.482 1231.76 234.425L1210.97 306.915C1210.18 309.664 1210.92 312.625 1212.91 314.682L1360.15 466.94C1364.43 471.366 1371.89 469.502 1373.59 463.584L1393.87 392.862C1394.65 390.134 1393.93 387.195 1391.97 385.139Z"
            fill="#1F9900" />
        <path d="M1365.55 1706.68L1182.05 1599.07C1176.71 1595.94 1170 1599.78 1170 1605.97V1681.38C1170 1684.24 1171.53 1686.88 1174 1688.31L1357.5 1794.09C1362.84 1797.16 1369.5 1793.31 1369.5 1787.15V1713.58C1369.5 1710.74 1368 1708.12 1365.55 1706.68Z"
            fill="#808080" />
        <path
            d="M1193.36 -13.4973L1048.35 142.145C1044.14 146.669 1036.6 144.906 1034.83 138.982L1013.24 66.7261C1012.42 63.9857 1013.13 61.0167 1015.1 58.9388L1160.64 -94.9409C1164.87 -99.4134 1172.35 -97.6322 1174.11 -91.7339L1195.18 -21.2409C1195.99 -18.521 1195.3 -15.5742 1193.36 -13.4973Z"
            fill="#808080" />
        <path
            d="M117.364 650.503L-27.6504 806.145C-31.865 810.669 -39.3989 808.906 -41.1688 802.982L-62.7564 730.726C-63.5751 727.986 -62.8686 725.017 -60.9033 722.939L84.6372 569.059C88.8672 564.587 96.3523 566.368 98.1145 572.266L119.176 642.759C119.988 645.479 119.299 648.426 117.364 650.503Z"
            fill="#009994" />
    </g>
</svg>