<svg width="48" height="48" viewBox="0 0 48 48" fill="none" xmlns="http://www.w3.org/2000/svg">
    <circle fill="#1A1A1A" cx="35" cy="13" r="11" />
    <path fill-rule="evenodd" clip-rule="evenodd"
        d="M4.7998 16.6C4.7998 12.734 7.93381 9.59998 11.7998 9.59998H35.7998C39.6658 9.59998 42.7998 12.734 42.7998 16.6V32.6C42.7998 36.466 39.6658 39.6 35.7998 39.6H11.7998C7.93381 39.6 4.7998 36.466 4.7998 32.6V16.6ZM6.7998 21.6V32.6C6.7998 35.3614 9.03838 37.6 11.7998 37.6H35.7998C38.5612 37.6 40.7998 35.3614 40.7998 32.6V21.6H6.7998ZM40.7998 19.6H6.7998V16.6C6.7998 13.8386 9.03838 11.6 11.7998 11.6H35.7998C38.5612 11.6 40.7998 13.8386 40.7998 16.6V19.6ZM12.7998 30.6C12.7998 30.0477 13.2475 29.6 13.7998 29.6H15.7998C16.3521 29.6 16.7998 30.0477 16.7998 30.6C16.7998 31.1523 16.3521 31.6 15.7998 31.6H13.7998C13.2475 31.6 12.7998 31.1523 12.7998 30.6ZM22.7998 30.6C22.7998 30.0477 23.2475 29.6 23.7998 29.6H25.7998C26.3521 29.6 26.7998 30.0477 26.7998 30.6C26.7998 31.1523 26.3521 31.6 25.7998 31.6H23.7998C23.2475 31.6 22.7998 31.1523 22.7998 30.6Z"
        fill="#4D4D4D" />
</svg>