<svg width="48" height="48" viewBox="0 0 48 48" fill="none" xmlns="http://www.w3.org/2000/svg">
    <circle cx="35" cy="13" r="11" fill="#1A1A1A" />
    <path fill-rule="evenodd" clip-rule="evenodd"
        d="M23.181 8.32833L8.47583 15.1907C8.39944 15.2314 8.33518 15.2917 8.28974 15.3655C8.24242 15.4424 8.21736 15.5309 8.21736 15.6212C8.21736 15.7114 8.24242 15.7999 8.28974 15.8768C8.33501 15.9503 8.39894 16.0104 8.47494 16.0511L23.1798 22.8618C23.4399 22.9732 23.7199 23.0306 24.0028 23.0306C24.2854 23.0306 24.5649 22.9733 24.8247 22.8623L39.5298 15.9999C39.6062 15.9592 39.6705 15.8989 39.7159 15.8251C39.7632 15.7482 39.7883 15.6597 39.7883 15.5695C39.7883 15.4792 39.7632 15.3907 39.7159 15.3138C39.6706 15.2403 39.6067 15.1802 39.5307 15.1395L24.8258 8.32881C24.5658 8.21744 24.2858 8.15999 24.0028 8.15999C23.7203 8.15999 23.4407 8.21727 23.181 8.32833ZM22.4055 6.57184C22.9096 6.35294 23.4533 6.23999 24.0028 6.23999C24.5524 6.23999 25.0961 6.35294 25.6002 6.57184L25.6214 6.58104L40.3851 13.4193C40.7831 13.62 41.1173 13.9277 41.3509 14.3073C41.5846 14.6868 41.7083 15.1238 41.7083 15.5695C41.7083 16.0151 41.5846 16.4521 41.3509 16.8316C41.1173 17.2112 40.7828 17.5184 40.3849 17.7191L40.3587 17.7323L25.6003 24.6191C25.0962 24.838 24.5524 24.9506 24.0028 24.9506C23.4533 24.9506 22.9096 24.8377 22.4055 24.6188L22.3843 24.6096L7.6205 17.7713C7.22256 17.5706 6.88838 17.2629 6.65473 16.8833C6.42108 16.5038 6.29736 16.0668 6.29736 15.6212C6.29736 15.1755 6.42108 14.7385 6.65473 14.359C6.88838 13.9794 7.2228 13.6722 7.62074 13.4715L7.64691 13.4583L22.4055 6.57184Z"
        fill="#4D4D4D" />
    <path fill-rule="evenodd" clip-rule="evenodd"
        d="M41.6775 24.4998C41.8994 24.9813 41.6888 25.5516 41.2073 25.7734L25.4385 33.0374L25.4352 33.0389C24.9734 33.2495 24.4717 33.3586 23.964 33.3586C23.4564 33.3586 22.9547 33.2495 22.4928 33.0389L22.4879 33.0366L22.4879 33.0366L6.79668 25.7726C6.31554 25.5499 6.10606 24.9793 6.3288 24.4982C6.55153 24.017 7.12214 23.8075 7.60327 24.0303L23.2896 31.292C23.2903 31.2923 23.291 31.2926 23.2917 31.293C23.5028 31.3889 23.7321 31.4386 23.964 31.4386C24.1962 31.4386 24.4257 31.3888 24.637 31.2927C24.6375 31.2924 24.6379 31.2922 24.6384 31.292L40.404 24.0295C40.8855 23.8077 41.4557 24.0182 41.6775 24.4998Z"
        fill="#4D4D4D" />
    <path fill-rule="evenodd" clip-rule="evenodd"
        d="M41.6775 32.9012C41.8994 33.3828 41.6888 33.953 41.2073 34.1748L25.4385 41.4388L25.4352 41.4403C24.9734 41.651 24.4717 41.76 23.964 41.76C23.4564 41.76 22.9547 41.651 22.4928 41.4403L22.4879 41.4381L22.4879 41.438L6.79668 34.1741C6.31554 33.9513 6.10606 33.3807 6.3288 32.8996C6.55153 32.4184 7.12214 32.209 7.60327 32.4317L23.2896 39.6934C23.2903 39.6938 23.2911 39.6941 23.2918 39.6944C23.5029 39.7903 23.7321 39.84 23.964 39.84C24.1962 39.84 24.4256 39.7903 24.6369 39.6941C24.6374 39.6939 24.6379 39.6937 24.6384 39.6934L40.404 32.4309C40.8855 32.2091 41.4557 32.4197 41.6775 32.9012Z"
        fill="#4D4D4D" />
</svg>