<svg xmlns="http://www.w3.org/2000/svg" width="31" height="31" viewBox="0 0 31 31" fill="none">
    <circle cx="21.5" cy="9.5" r="9.5" fill="#FFCC00" />
    <path fill-rule="evenodd" clip-rule="evenodd"
        d="M9.31197 8.10294C8.92039 8.10294 8.60294 8.42039 8.60294 8.81197V23.938C8.60294 24.3296 8.92039 24.6471 9.31197 24.6471H19.396C19.7876 24.6471 20.105 24.3296 20.105 23.938V8.81197C20.105 8.42039 19.7876 8.10294 19.396 8.10294H9.31197ZM7.5 8.81197C7.5 7.81125 8.31125 7 9.31197 7H19.396C20.3967 7 21.208 7.81125 21.208 8.81197V23.938C21.208 24.9388 20.3967 25.75 19.396 25.75H9.31197C8.31125 25.75 7.5 24.9388 7.5 23.938V8.81197Z"
        fill="white" />
    <path fill-rule="evenodd" clip-rule="evenodd"
        d="M12.8574 22.0472C12.8574 21.7427 13.1043 21.4958 13.4089 21.4958H15.2996C15.6042 21.4958 15.8511 21.7427 15.8511 22.0472C15.8511 22.3518 15.6042 22.5987 15.2996 22.5987H13.4089C13.1043 22.5987 12.8574 22.3518 12.8574 22.0472Z"
        fill="white" />
    <path fill-rule="evenodd" clip-rule="evenodd"
        d="M11.8053 14.2344C12.0156 14.4446 12.0156 14.7855 11.8053 14.9957L10.5711 16.23L11.8053 17.4642C12.0156 17.6745 12.0156 18.0153 11.8053 18.2255C11.5951 18.4357 11.2543 18.4357 11.0441 18.2255L9.42915 16.6106C9.21893 16.4004 9.21893 16.0596 9.42915 15.8493L11.0441 14.2344C11.2543 14.0242 11.5951 14.0242 11.8053 14.2344Z"
        fill="white" />
    <path fill-rule="evenodd" clip-rule="evenodd"
        d="M16.9643 14.2344C17.1745 14.0242 17.5154 14.0242 17.7256 14.2344L19.3405 15.8493C19.5507 16.0596 19.5507 16.4004 19.3405 16.6106L17.7256 18.2255C17.5154 18.4357 17.1745 18.4357 16.9643 18.2255C16.7541 18.0153 16.7541 17.6745 16.9643 17.4642L18.1986 16.23L16.9643 14.9957C16.7541 14.7855 16.7541 14.4446 16.9643 14.2344Z"
        fill="white" />
    <path fill-rule="evenodd" clip-rule="evenodd"
        d="M15.3627 13.0278C15.6447 13.1218 15.7971 13.4266 15.7031 13.7087L14.0882 18.5534C13.9942 18.8355 13.6893 18.9879 13.4073 18.8939C13.1252 18.7999 12.9728 18.495 13.0668 18.213L14.6817 13.3682C14.7758 13.0862 15.0806 12.9338 15.3627 13.0278Z"
        fill="white" />
</svg>