<svg width="39" height="24" viewBox="0 0 39 24" fill="none" xmlns="http://www.w3.org/2000/svg">
<path d="M24.5027 3.19179H14.4609V21.237H24.5027V3.19179Z" fill="white"/>
<path d="M15.0981 12.2144C15.0965 10.4765 15.4903 8.76105 16.2497 7.19786C17.0091 5.63468 18.1142 4.26475 19.4813 3.19179C17.7884 1.86106 15.7551 1.03351 13.6141 0.803703C11.473 0.5739 9.31045 0.951115 7.37363 1.89225C5.4368 2.83338 3.80384 4.30046 2.66138 6.12579C1.51893 7.95111 0.913086 10.061 0.913086 12.2144C0.913086 14.3678 1.51893 16.4777 2.66138 18.303C3.80384 20.1284 5.4368 21.5954 7.37363 22.5366C9.31045 23.4777 11.473 23.8549 13.6141 23.6251C15.7551 23.3953 17.7884 22.5678 19.4813 21.237C18.1142 20.1641 17.0092 18.7941 16.2497 17.231C15.4903 15.6678 15.0965 13.9523 15.0981 12.2144Z" fill="#121212"/>
<path d="M38.0491 12.2144C38.0492 14.3678 37.4434 16.4777 36.301 18.303C35.1586 20.1283 33.5257 21.5954 31.589 22.5365C29.6522 23.4777 27.4897 23.8549 25.3486 23.6251C23.2076 23.3953 21.1744 22.5678 19.4814 21.237C20.8474 20.163 21.9516 18.7928 22.7109 17.2299C23.4702 15.667 23.8647 13.952 23.8647 12.2144C23.8647 10.4768 23.4702 8.76186 22.7109 7.19892C21.9516 5.63598 20.8474 4.26583 19.4814 3.19178C21.1744 1.86106 23.2076 1.0335 25.3486 0.8037C27.4897 0.5739 29.6522 0.951131 31.589 1.89228C33.5257 2.83342 35.1586 4.3005 36.301 6.12582C37.4434 7.95115 38.0492 10.0611 38.0491 12.2144Z" fill="#C6C6C6"/>
<path d="M36.9541 19.3258V18.9563H37.103V18.8811H36.7236V18.9563H36.8727V19.3258H36.9541ZM37.6906 19.3258V18.8803H37.5743L37.4406 19.1867L37.3068 18.8803H37.1904V19.3258H37.2725V18.9898L37.398 19.2794H37.4831L37.6085 18.989V19.3258H37.6906Z" fill="#C6C6C6"/>
</svg>
