<svg width="46" height="28" viewBox="0 0 46 28" fill="none" xmlns="http://www.w3.org/2000/svg">
<g clip-path="url(#clip0_12844_60878)">
<path d="M17.2944 27.4161C11.9773 26.9512 7.28129 24.9791 4.21961 21.9247C2.56833 20.3445 1.4296 18.3049 0.950912 16.0701C0.731207 14.8414 0.731207 13.5834 0.950912 12.3547C1.61555 9.26033 3.61308 6.54367 6.76193 4.48803C13.9422 -0.233425 24.9431 -0.197107 32.058 4.54251C32.9296 5.11244 33.738 5.77353 34.4696 6.51462C35.5509 7.58248 36.4426 8.82661 37.1063 10.1937C37.1943 10.2822 37.3094 10.3384 37.4332 10.3535C38.08 10.5404 38.6702 10.8848 39.1511 11.3559C39.5724 11.7482 39.8775 12.1767 40.6983 13.3898C41.5191 14.6028 45.1691 20.2649 45.3907 20.6536C45.4778 20.7988 45.3071 21.0167 45.1146 21.0167C44.9766 21.0167 44.8822 20.9259 44.6788 20.6063C44.5372 20.3812 43.5893 18.932 42.605 17.3849C39.0712 11.9152 38.8823 11.661 37.8836 11.1671L37.3678 10.9092H35.8679C34.3497 10.9092 34.3497 10.9092 34.3134 11.069C34.1137 11.9443 34.0737 12.1586 34.1173 12.1985C34.1609 12.2385 35.0071 12.7142 36.0313 13.2881L37.8945 14.3304L37.7782 14.5738C37.7129 14.7082 37.6402 14.8171 37.6148 14.8171C37.5894 14.8171 36.0168 13.9418 34.1282 12.8777C32.2396 11.8135 30.5762 10.9165 30.4418 10.8801C29.9043 10.7312 29.0762 11.3269 29.0762 11.8644C29.0762 12.4019 29.236 12.5653 32.5628 15.2893C34.6367 16.989 35.8315 18.0095 36.0059 18.2492C36.4111 18.8306 36.7372 19.4632 36.9756 20.1306C37.1865 20.7688 37.5623 21.34 38.0648 21.7864C38.5674 22.2328 39.1789 22.5386 39.8375 22.6729L40.3133 22.7927L40.2733 23.0506C40.2638 23.1502 40.2406 23.2479 40.2043 23.3411C40.1426 23.4102 39.1874 23.1051 38.6354 22.8399C37.7476 22.4051 37.0286 21.6887 36.5906 20.8025C36.5906 20.8025 36.2274 20.9114 35.8388 21.0603C35.1124 21.3255 35.0761 21.3472 34.3861 22.0191C31.4588 24.8847 27.253 26.7115 22.1793 27.3326C20.5542 27.4588 18.9229 27.4867 17.2944 27.4161ZM22.3464 26.5372C24.4213 26.298 26.4543 25.7788 28.3898 24.9937C30.2889 24.2348 32.0377 23.144 33.5544 21.7722L34.0701 21.2819L32.7481 20.6608C31.3607 19.9962 31.2227 19.8872 31.0447 19.2952C30.9953 19.0879 31.003 18.871 31.067 18.6676C31.1309 18.4643 31.2487 18.2821 31.4079 18.1403L31.6839 17.8388L31.081 17.3812C30.6053 17.018 30.4564 16.8619 30.3547 16.6222C30.2814 16.4339 30.2563 16.2303 30.2817 16.0299C30.307 15.8295 30.3821 15.6386 30.4999 15.4745L30.6815 15.2166L28.7784 14.8825C27.7324 14.6973 26.7555 14.5193 26.5993 14.4684C26.442 14.4062 26.3013 14.3081 26.1885 14.182C26.0756 14.0559 25.9937 13.9053 25.9492 13.7421C25.9092 13.5714 26.8426 9.02062 27.0387 8.36688C27.1114 8.19966 27.2201 8.0505 27.3569 7.92998C27.4937 7.80946 27.6554 7.72055 27.8305 7.66956C28.1465 7.61145 33.7541 8.59569 34.0338 8.75913C34.4769 9.01699 34.6149 9.43102 34.4769 10.0702L34.4187 10.3354H34.7275C34.8981 10.3354 35.3013 10.3136 35.6245 10.2881L36.2129 10.2409L35.9623 9.68889C35.087 8.05817 33.4926 6.42019 31.5278 5.10182C30.241 4.31338 28.8827 3.64821 27.4709 3.11517C25.6392 2.48133 23.7405 2.06088 21.8125 1.86217C20.1776 1.74957 18.537 1.74957 16.9022 1.86217C14.591 2.08779 12.3257 2.65319 10.1795 3.5401C5.60336 5.49043 2.52715 8.72281 1.73903 12.4055C1.53042 13.5697 1.51937 14.7607 1.70634 15.9285C2.1331 17.8818 3.10536 19.6739 4.51016 21.0966C7.52463 24.2709 12.1371 26.2249 17.6503 26.6643C18.3767 26.7224 21.5946 26.6353 22.3464 26.5372ZM21.3403 23.0724C21.1817 23.0095 21.0408 22.9088 20.9301 22.7791C20.8193 22.6493 20.7419 22.4944 20.7047 22.3279C20.6648 22.1172 20.7047 21.9647 21.0134 21.3872C22.1948 19.1856 22.7972 16.7198 22.764 14.2215C22.7976 11.8216 22.2361 9.45077 21.1297 7.3209C20.9497 6.98288 20.7978 6.6306 20.6757 6.26765C20.6911 6.115 20.7393 5.96749 20.817 5.83521C20.8948 5.70294 21.0002 5.58904 21.126 5.50132C21.2956 5.40732 21.4887 5.36449 21.6821 5.37803C21.8755 5.39156 22.0608 5.46088 22.2156 5.57759C22.434 5.86324 22.6215 6.17126 22.7749 6.49646C23.6185 8.16328 24.1887 9.95485 24.4637 11.8026C24.6423 13.2708 24.663 14.7538 24.5255 16.2263C24.2955 18.0996 23.7606 19.9227 22.942 21.6233C22.4408 22.6547 22.1284 23.076 21.8524 23.076C21.7886 23.0786 21.7252 23.0883 21.6636 23.1051C21.5557 23.1149 21.4469 23.1025 21.344 23.0688L21.3403 23.0724ZM17.9445 21.3109C17.723 21.2403 17.536 21.0892 17.4204 20.8876C17.3048 20.6859 17.2689 20.4482 17.3198 20.2214C17.3489 20.1233 17.5559 19.6766 17.7774 19.2262C18.6965 17.3882 19.0887 15.3317 18.9106 13.2845C18.8059 11.8153 18.3991 10.3835 17.7157 9.07873C17.2181 8.05817 17.1927 7.902 17.4833 7.48797C17.6436 7.29729 17.8727 7.17743 18.1207 7.15432C18.3688 7.13121 18.616 7.20671 18.8089 7.36448C19.0595 7.59329 19.8404 9.22401 20.1418 10.1465C21.1362 13.2046 20.9826 16.5202 19.7096 19.4732C19.0522 21.0095 18.591 21.4853 17.9445 21.2891V21.3109ZM14.4434 19.495C14.3015 19.4292 14.1758 19.3329 14.0754 19.213C13.975 19.0931 13.9022 18.9525 13.8623 18.8013C13.8223 18.627 13.8913 18.4381 14.2255 17.7844C14.8046 16.7089 15.1111 15.5078 15.1181 14.2864C15.125 13.0649 14.8323 11.8604 14.2654 10.7785C13.7606 9.75789 13.7497 9.55451 14.1746 9.15137C14.2468 9.06619 14.339 9.00034 14.443 8.95976C14.547 8.91918 14.6595 8.90514 14.7702 8.91893C15.2678 8.91893 15.5257 9.16953 15.9688 10.0811C16.6265 11.3735 16.9558 12.808 16.9276 14.2578C16.9591 15.7142 16.6178 17.1544 15.9361 18.4417C15.5184 19.288 15.3114 19.5131 14.8937 19.5676C14.7401 19.5761 14.5865 19.5514 14.4434 19.495ZM11.1747 17.817C10.9219 17.684 10.7315 17.4571 10.6444 17.1851C10.5645 16.9018 10.6444 16.6766 10.9495 16.15C11.3334 15.5837 11.5128 14.9034 11.458 14.2215C11.5155 13.5403 11.3387 12.8599 10.9568 12.293C10.8333 12.0988 10.7287 11.8933 10.6444 11.6792C10.5983 11.4386 10.6486 11.1895 10.7845 10.9856C10.9204 10.7818 11.131 10.6395 11.3708 10.5896C11.7957 10.5097 12.0972 10.6986 12.4785 11.316C13.032 12.1947 13.3257 13.212 13.3257 14.2505C13.3257 15.289 13.032 16.3064 12.4785 17.1851C12.079 17.7989 11.6359 18.0168 11.1674 17.8243L11.1747 17.817ZM35.5083 20.5555C35.7553 20.4742 35.9978 20.3796 36.2347 20.2722C36.211 20.0851 36.1557 19.9033 36.0713 19.7347C35.8461 19.1717 35.8824 19.1863 35.0761 19.3388C34.2081 19.5059 33.7033 19.3388 32.7517 18.656C32.5756 18.5034 32.3756 18.3807 32.1597 18.2928C32.0299 18.332 31.9148 18.4092 31.8292 18.5144C31.7128 18.6337 31.641 18.7894 31.6258 18.9554C31.6106 19.1213 31.6529 19.2875 31.7457 19.426C32.6412 19.9802 33.5948 20.4345 34.5894 20.7807C34.9039 20.7363 35.2122 20.6559 35.5083 20.541V20.5555ZM35.1451 18.7395C35.5083 18.6669 35.5374 18.6451 35.4756 18.5289C35.4139 18.4127 32.1016 15.6524 31.8147 15.4999C31.7668 15.4656 31.7126 15.4412 31.6553 15.4279C31.5979 15.4147 31.5385 15.4129 31.4804 15.4227C31.4224 15.4325 31.3668 15.4536 31.317 15.485C31.2672 15.5163 31.224 15.5572 31.19 15.6052C30.6162 16.219 30.6852 16.3316 32.1706 17.4865C33.9648 18.863 34.1572 18.9393 35.1415 18.7468L35.1451 18.7395ZM30.7106 14.5774C30.7106 14.5592 30.3474 14.236 29.8789 13.851C28.753 12.9322 28.506 12.5944 28.506 11.8934C28.5245 11.5828 28.6277 11.2832 28.8044 11.0271C28.9811 10.771 29.2246 10.5682 29.5084 10.4407C29.8732 10.2768 30.2823 10.2397 30.6706 10.3354C30.8885 10.408 31.8764 10.9419 33.242 11.7264L33.5289 11.8934L33.765 10.7785C34.0083 9.62715 34.012 9.3257 33.7868 9.25306C33.7178 9.23127 32.3994 8.99157 30.8595 8.71917C28.1211 8.23613 27.8196 8.20708 27.6925 8.4141C27.6235 8.52305 26.5811 13.3535 26.5811 13.5568C26.5822 13.6627 26.6238 13.764 26.6973 13.8401C27.3455 14.0276 28.0056 14.1708 28.6731 14.2687C30.6488 14.6319 30.7106 14.6319 30.7106 14.5847V14.5774Z" fill="#121212"/>
</g>
<defs>
<clipPath id="clip0_12844_60878">
<rect width="44.6286" height="26.4837" fill="white" transform="translate(0.787109 0.972534)"/>
</clipPath>
</defs>
</svg>
