<svg width="50" height="17" viewBox="0 0 50 17" fill="none" xmlns="http://www.w3.org/2000/svg">
<g clip-path="url(#clip0_12844_60868)">
<path d="M18.6821 0.551144L12.2405 15.9191H8.03779L4.86784 3.65395C4.67539 2.89849 4.50908 2.62173 3.92275 2.30346C2.96715 1.78504 1.3891 1.29866 0.00195312 0.996525L0.0949759 0.551144H6.86027C7.72259 0.551144 8.49778 1.12517 8.69356 2.11818L10.3677 11.0104L14.5051 0.551144H18.6821ZM35.1489 10.9023C35.1659 6.84594 29.5399 6.62273 29.5786 4.81046C29.5906 4.25898 30.1167 3.67266 31.2651 3.523C31.8347 3.44843 33.4043 3.39154 35.1858 4.21081L35.8842 0.951679C34.9263 0.602396 33.6954 0.269257 32.164 0.269257C28.2342 0.269257 25.4687 2.3583 25.4454 5.34963C25.4197 7.56219 27.4186 8.79685 28.9256 9.53206C30.4753 10.285 30.9952 10.7688 30.9893 11.4422C30.9783 12.4732 29.7534 12.9285 28.6086 12.9462C26.6098 12.977 25.4507 12.4055 24.5264 11.9758L23.8058 15.3428C24.7347 15.7689 26.4494 16.1408 28.2271 16.1595C32.4041 16.1595 35.1361 14.0963 35.1489 10.9013V10.9023ZM45.526 15.9191H49.2028L45.9934 0.551144H42.5995C42.2371 0.54802 41.882 0.653841 41.5805 0.854888C41.2789 1.05594 41.0447 1.34294 40.9082 1.67869L34.9416 15.9191H39.1164L39.9451 13.6235H45.0447L45.526 15.9191ZM41.0899 10.4736L43.1825 4.70257L44.3869 10.4731L41.0899 10.4736ZM24.3627 0.551144L21.0751 15.9191H17.0994L20.3883 0.551144H24.3627Z" fill="#121212"/>
</g>
<defs>
<clipPath id="clip0_12844_60868">
<rect width="49.2024" height="15.8902" fill="white" transform="translate(0 0.269257)"/>
</clipPath>
</defs>
</svg>
