<svg width="138" height="41" viewBox="0 0 138 41" fill="none" xmlns="http://www.w3.org/2000/svg">
<rect x="0.671814" y="0.915771" width="136.77" height="39.625" fill="white"/>
<path d="M30.4221 21.7076C31.1851 21.6937 31.9467 21.7766 32.6888 21.9545C33.2373 22.085 33.755 22.3216 34.2128 22.6509C34.592 22.9322 34.8891 23.3098 35.0731 23.7447C35.2575 24.201 35.3486 24.6897 35.3413 25.1818C35.3423 25.4643 35.3007 25.7452 35.2178 26.0152C35.1337 26.2852 35.0032 26.5385 34.832 26.7637C34.6403 27.0112 34.4112 27.2272 34.153 27.4041C33.8444 27.614 33.5098 27.7826 33.1576 27.9057C34.0025 28.1115 34.6282 28.4433 35.0346 28.9011C35.4537 29.398 35.6713 30.0341 35.6442 30.6836C35.6484 31.2085 35.5399 31.7282 35.3259 32.2076C35.1111 32.6818 34.7935 33.1022 34.396 33.4383C33.9504 33.8103 33.4358 34.0909 32.8817 34.264C32.2168 34.4704 31.5233 34.57 30.8272 34.5591H25.6959V21.7076H30.4221ZM28.6763 23.9376V27.1128H30.2196C30.5182 27.1157 30.8165 27.0919 31.1108 27.0415C31.3499 27.0043 31.5793 26.9204 31.786 26.7945C31.9705 26.6772 32.1172 26.5091 32.2085 26.3103C32.3119 26.0666 32.3613 25.8034 32.3531 25.5387C32.3621 25.2767 32.3235 25.0153 32.2393 24.7671C32.1694 24.5747 32.0471 24.4057 31.8863 24.279C31.7078 24.146 31.5013 24.0556 31.2825 24.0147C30.9969 23.9566 30.7058 23.9294 30.4144 23.9337L28.6763 23.9376ZM30.7751 32.304C31.1031 32.3154 31.4303 32.265 31.7397 32.1555C31.9597 32.0731 32.1577 31.941 32.3184 31.7697C32.4569 31.616 32.5568 31.4315 32.6097 31.2314C32.6618 31.0331 32.6884 30.8289 32.6888 30.6238C32.6919 30.4086 32.6606 30.1944 32.5962 29.9891C32.5366 29.8042 32.4271 29.6393 32.2798 29.5126C32.1049 29.3708 31.9017 29.2682 31.6837 29.2117C31.3786 29.1353 31.0645 29.1003 30.7501 29.1075H28.6763V32.3059L30.7751 32.304ZM45.6522 25.4114V34.5533H43.9547C43.8072 34.5659 43.66 34.527 43.5379 34.4434C43.4159 34.3597 43.3266 34.2363 43.2853 34.0942L43.1251 33.5656C42.9538 33.7321 42.7714 33.8868 42.5792 34.0286C42.3912 34.1677 42.1888 34.286 41.9754 34.3816C41.7517 34.4817 41.5184 34.5586 41.279 34.6112C41.0107 34.6678 40.7372 34.6956 40.463 34.6942C40.0071 34.7028 39.5546 34.614 39.1358 34.4337C38.7608 34.2672 38.4279 34.0186 38.1616 33.7065C37.8909 33.3828 37.6875 33.0083 37.5636 32.605C37.4245 32.1539 37.3562 31.6841 37.361 31.2122V25.4114H40.0926V31.2122C40.0695 31.5873 40.1787 31.9587 40.4013 32.2616C40.5145 32.3884 40.6553 32.4877 40.8127 32.5519C40.9702 32.6161 41.1402 32.6435 41.3099 32.632C41.6013 32.6333 41.8892 32.5673 42.151 32.4391C42.431 32.3043 42.6907 32.1309 42.9226 31.924V25.4114H45.6522ZM56.7117 25.4114L51.8253 36.9242C51.7627 37.0819 51.6595 37.2203 51.5263 37.3254C51.355 37.4237 51.158 37.4681 50.9611 37.4527H48.9163L50.6794 33.7508L47.0296 25.4114H49.4448C49.6196 25.3999 49.7929 25.4497 49.9348 25.5522C50.0456 25.6402 50.1319 25.7551 50.1856 25.8859L51.6864 29.8271C51.8278 30.186 51.9426 30.5548 52.0298 30.9305L52.2227 30.3653C52.2857 30.1775 52.3532 29.9923 52.4253 29.8097L53.7756 25.8859C53.8322 25.7464 53.9306 25.6278 54.0573 25.5464C54.1867 25.4577 54.3402 25.4106 54.4971 25.4114H56.7117Z" fill="#383838"/>
<path d="M62.628 21.7077C63.4169 21.6913 64.2035 21.8 64.9583 22.0298C65.5488 22.2109 66.0953 22.5124 66.5633 22.9153C66.9751 23.2784 67.2939 23.7348 67.4932 24.2463C67.697 24.7755 67.7991 25.3383 67.7941 25.9054C67.8002 26.507 67.6956 27.1047 67.4854 27.6685C67.284 28.1951 66.9607 28.6664 66.5421 29.044C66.0738 29.4503 65.5258 29.7545 64.9333 29.9371C64.1869 30.1666 63.4087 30.2754 62.628 30.2593H61.0847V34.5534H58.0947V21.7077H62.628ZM62.628 28.0119C63.3996 28.0119 63.9578 27.8267 64.3025 27.4563C64.642 27.086 64.8137 26.569 64.8137 25.9131C64.8173 25.6398 64.7722 25.3681 64.6806 25.1106C64.5967 24.8747 64.4593 24.6614 64.2793 24.4875C64.0856 24.3063 63.8545 24.17 63.6022 24.0882C63.2876 23.9872 62.9584 23.939 62.628 23.9454H61.0847V28.0196L62.628 28.0119ZM73.5235 25.2707C74.1702 25.2621 74.813 25.3726 75.4198 25.5967C75.9695 25.8008 76.4698 26.119 76.8878 26.5304C77.3049 26.9501 77.629 27.4529 77.8389 28.0061C78.0728 28.6307 78.188 29.2934 78.1784 29.9603C78.1881 30.6322 78.073 31.3 77.8389 31.9299C77.6355 32.4864 77.314 32.9922 76.8963 33.4125C76.4787 33.8328 75.975 34.1575 75.4198 34.3644C74.1899 34.8042 72.8455 34.8042 71.6156 34.3644C71.0622 34.155 70.5579 33.8339 70.1341 33.4211C69.7094 32.9989 69.3804 32.4903 69.1695 31.9299C68.9345 31.3003 68.8194 30.6322 68.83 29.9603C68.8195 29.2934 68.9347 28.6304 69.1695 28.0061C69.381 27.4505 69.7101 26.9471 70.1341 26.5304C70.5574 26.1192 71.0621 25.8012 71.6156 25.5967C72.2263 25.3723 72.873 25.2618 73.5235 25.2707ZM73.5235 32.6668C74.1524 32.6668 74.6153 32.4449 74.9124 32.0013C75.2095 31.5576 75.3587 30.883 75.36 29.9776C75.36 29.0774 75.2114 28.4042 74.9144 27.9579C74.6173 27.5116 74.1543 27.2917 73.5254 27.2982C72.8824 27.2982 72.4091 27.5181 72.1056 27.9579C71.8021 28.3977 71.6523 29.071 71.6561 29.9776C71.6561 30.8779 71.806 31.5524 72.1056 32.0013C72.4053 32.4501 72.8779 32.6719 73.5235 32.6668ZM93.2715 25.4115L90.4319 34.5534H88.2115C88.1016 34.5564 87.9944 34.5186 87.9106 34.4473C87.8139 34.3505 87.7469 34.228 87.7177 34.0943L86.4136 29.5359C86.348 29.3314 86.2902 29.1289 86.24 28.9282C86.1899 28.7353 86.1455 28.525 86.105 28.3206C86.0625 28.525 86.0182 28.7315 85.968 28.9379C85.9179 29.1443 85.86 29.3488 85.7963 29.5552L84.473 34.0943C84.4484 34.2279 84.3762 34.3481 84.2698 34.4325C84.1634 34.5169 84.0299 34.5599 83.8942 34.5534H81.7723L78.9326 25.4115H81.1183C81.2916 25.4053 81.4626 25.4524 81.6083 25.5465C81.7324 25.6273 81.8266 25.7466 81.8764 25.8861L82.7947 29.9873C82.8693 30.2985 82.9368 30.5995 82.9972 30.8901C83.0551 31.1814 83.1091 31.4688 83.1554 31.7678C83.2326 31.4727 83.3136 31.1891 83.3985 30.8901C83.4834 30.5911 83.5759 30.2979 83.6763 29.9873L84.8221 25.8783C84.8713 25.7397 84.964 25.6206 85.0864 25.5388C85.221 25.4456 85.3818 25.3976 85.5455 25.4019H86.7609C86.9344 25.3962 87.1054 25.444 87.2509 25.5388C87.3748 25.6198 87.4689 25.739 87.519 25.8783L88.6128 29.9873C88.7015 30.2985 88.7883 30.6007 88.8732 30.894C88.9581 31.1891 89.0353 31.4843 89.1066 31.7852C89.1529 31.492 89.2089 31.2065 89.2745 30.9036C89.3401 30.6007 89.4114 30.3037 89.4944 29.9873L90.4589 25.8861C90.5086 25.7476 90.6012 25.6287 90.7232 25.5465C90.8575 25.4544 91.0176 25.4071 91.1804 25.4115H93.2715ZM96.8423 30.4715C96.931 31.2354 97.1631 31.7891 97.5387 32.1324C97.9384 32.4864 98.4597 32.6717 98.9932 32.6494C99.2709 32.6553 99.5478 32.6162 99.8131 32.5337C100.024 32.4653 100.229 32.3801 100.427 32.279L100.92 32.0225C101.066 31.9477 101.227 31.9087 101.391 31.9087C101.486 31.9027 101.582 31.9209 101.668 31.9618C101.754 32.0026 101.829 32.0646 101.885 32.1421L102.678 33.1221C102.414 33.4283 102.106 33.6942 101.765 33.9111C101.45 34.1087 101.113 34.268 100.76 34.3856C100.426 34.499 100.081 34.5791 99.7301 34.6248C99.4039 34.6676 99.0753 34.6895 98.7463 34.6904C98.1312 34.6949 97.5203 34.589 96.9426 34.3779C96.3917 34.1756 95.89 33.8587 95.4707 33.4481C95.0338 33.0096 94.6945 32.4837 94.4753 31.9048C94.2179 31.2236 94.0935 30.4993 94.1087 29.7712C94.1056 29.1782 94.2115 28.5897 94.4213 28.0351C94.6226 27.4962 94.9317 27.0041 95.3297 26.5888C95.7277 26.1735 96.2063 25.8438 96.7362 25.6198C97.87 25.1678 99.1289 25.1397 100.282 25.5408C100.767 25.7178 101.209 25.9974 101.576 26.3606C101.949 26.7347 102.238 27.1838 102.423 27.6782C102.634 28.2431 102.737 28.8424 102.728 29.4452C102.73 29.6135 102.721 29.7816 102.701 29.9487C102.69 30.057 102.657 30.162 102.604 30.2574C102.56 30.3307 102.492 30.3866 102.412 30.4156C102.314 30.4477 102.211 30.4627 102.109 30.4599L96.8423 30.4715ZM100.28 28.8839C100.28 28.6696 100.253 28.4561 100.197 28.2492C100.144 28.0492 100.051 27.8621 99.923 27.6994C99.7891 27.5341 99.6188 27.402 99.4253 27.3136C99.1898 27.2071 98.9332 27.1556 98.6749 27.1631C98.4527 27.1509 98.2303 27.1841 98.0213 27.2608C97.8124 27.3374 97.6212 27.4558 97.4596 27.6087C97.1382 27.9659 96.9359 28.4143 96.8808 28.8916L100.28 28.8839ZM107.122 26.8217C107.368 26.3753 107.699 25.982 108.097 25.6642C108.458 25.3834 108.904 25.2338 109.362 25.2398C109.72 25.2235 110.073 25.3259 110.367 25.5311L110.192 27.5412C110.177 27.6445 110.125 27.7387 110.045 27.8055C109.963 27.8573 109.866 27.8823 109.769 27.8769C109.721 27.8769 109.659 27.8769 109.576 27.8672L109.337 27.846L109.086 27.819C109.009 27.8101 108.931 27.8056 108.853 27.8055C108.503 27.7856 108.158 27.8994 107.888 28.1238C107.625 28.3699 107.419 28.6709 107.284 29.0054V34.5534H104.566V25.4115H106.189C106.303 25.4092 106.417 25.4209 106.528 25.4462C106.612 25.4658 106.69 25.5033 106.758 25.5562C106.82 25.6074 106.869 25.6738 106.899 25.7491C106.935 25.8461 106.963 25.9461 106.982 26.0481L107.122 26.8217ZM110.112 33.1684C110.111 32.9656 110.151 32.7646 110.23 32.5781C110.307 32.3993 110.419 32.2375 110.558 32.1016C110.854 31.8153 111.251 31.6573 111.663 31.6617C111.872 31.6593 112.079 31.7 112.271 31.7813C112.454 31.8565 112.622 31.9651 112.765 32.1016C112.909 32.2389 113.024 32.4045 113.101 32.5881C113.178 32.7716 113.217 32.9692 113.214 33.1684C113.216 33.373 113.176 33.5758 113.097 33.7644C113.02 33.9454 112.907 34.1089 112.765 34.2448C112.622 34.3814 112.455 34.4888 112.271 34.5612C112.078 34.6395 111.872 34.6788 111.663 34.6769C111.452 34.6792 111.242 34.6398 111.046 34.5612C110.864 34.4891 110.698 34.3816 110.558 34.2448C110.418 34.108 110.306 33.9447 110.23 33.7644C110.151 33.5758 110.111 33.373 110.112 33.1684ZM117.518 26.3992C117.691 26.2356 117.873 26.0823 118.064 25.9401C118.252 25.7991 118.454 25.6794 118.668 25.5832C118.891 25.4823 119.125 25.4054 119.364 25.3536C119.632 25.296 119.906 25.2682 120.18 25.2707C120.635 25.2612 121.087 25.3493 121.506 25.5292C121.877 25.6959 122.206 25.943 122.47 26.2526C122.743 26.5751 122.947 26.9499 123.07 27.3541C123.205 27.8044 123.27 28.2729 123.263 28.743V34.5534H120.551V28.743C120.573 28.3698 120.463 28.0006 120.242 27.6994C120.131 27.5693 119.991 27.4668 119.833 27.3998C119.675 27.3329 119.504 27.3034 119.333 27.3136C119.042 27.3123 118.754 27.3783 118.492 27.5065C118.212 27.6413 117.953 27.8147 117.721 28.0216V34.5534H114.995V25.4115H116.689C116.836 25.3992 116.983 25.4379 117.105 25.5212C117.227 25.6045 117.316 25.7272 117.358 25.8687L117.518 26.3992ZM133.607 25.6932V26.6886C133.61 26.7544 133.601 26.8203 133.579 26.8826C133.557 26.9448 133.523 27.0021 133.479 27.0512C133.355 27.1574 133.203 27.2274 133.042 27.2538L132.382 27.4043C132.416 27.5345 132.444 27.6665 132.465 27.7997C132.486 27.9402 132.496 28.0821 132.496 28.2241C132.503 28.6522 132.405 29.0755 132.21 29.4568C132.02 29.8206 131.752 30.138 131.425 30.3866C131.072 30.6535 130.673 30.8541 130.248 30.9788C129.776 31.1161 129.287 31.183 128.796 31.1775C128.655 31.1775 128.516 31.1775 128.381 31.164C128.248 31.1559 128.115 31.1398 127.983 31.1158C127.902 31.1529 127.831 31.2107 127.779 31.2835C127.726 31.3562 127.694 31.4414 127.684 31.5306C127.684 31.6049 127.708 31.6774 127.753 31.7369C127.797 31.7965 127.86 31.8398 127.931 31.8604C128.141 31.9386 128.36 31.986 128.583 32.0013C128.854 32.0283 129.162 32.0456 129.506 32.0553C129.849 32.0649 130.2 32.0842 130.559 32.117C130.913 32.1492 131.265 32.2033 131.612 32.279C131.938 32.349 132.249 32.4743 132.532 32.6494C132.802 32.8209 133.027 33.0553 133.186 33.3323C133.363 33.6678 133.448 34.0436 133.433 34.4223C133.431 34.8431 133.328 35.2572 133.132 35.6299C132.919 36.04 132.618 36.3983 132.251 36.6793C131.821 37.0056 131.338 37.2543 130.823 37.4143C130.195 37.6088 129.54 37.7025 128.882 37.6921C128.258 37.7024 127.634 37.6344 127.027 37.4895C126.57 37.3806 126.133 37.201 125.732 36.9571C125.415 36.7675 125.15 36.5024 124.961 36.1854C124.8 35.9129 124.715 35.6027 124.714 35.2865C124.701 34.9167 124.827 34.5556 125.067 34.2737C125.338 33.9793 125.677 33.7555 126.054 33.6217C125.838 33.4937 125.657 33.3149 125.526 33.1008C125.387 32.8505 125.32 32.5668 125.333 32.281C125.334 32.1354 125.358 31.9909 125.404 31.8527C125.455 31.6951 125.531 31.5467 125.628 31.4129C125.739 31.2602 125.868 31.1222 126.014 31.002C126.18 30.8645 126.364 30.7491 126.56 30.6586C126.106 30.4243 125.718 30.0801 125.431 29.6574C125.151 29.2271 125.007 28.7222 125.018 28.2087C125.012 27.7778 125.111 27.3518 125.308 26.9683C125.502 26.602 125.775 26.2831 126.106 26.0346C126.466 25.7675 126.87 25.5676 127.301 25.4443C127.785 25.3018 128.287 25.2316 128.792 25.236C129.504 25.2226 130.21 25.3738 130.854 25.6777L133.607 25.6932ZM130.906 34.8872C130.91 34.7885 130.885 34.6909 130.833 34.607C130.781 34.523 130.705 34.4566 130.615 34.4165C130.375 34.3071 130.119 34.2374 129.857 34.2101C129.51 34.1651 129.161 34.1399 128.811 34.1348C128.425 34.1252 128.039 34.104 127.654 34.0673C127.494 34.1727 127.353 34.303 127.235 34.4531C127.127 34.5933 127.069 34.766 127.071 34.9431C127.069 35.0652 127.098 35.1859 127.154 35.2942C127.223 35.4131 127.327 35.5085 127.451 35.5681C127.63 35.6574 127.821 35.7186 128.018 35.7495C128.317 35.7982 128.62 35.8201 128.923 35.8151C129.246 35.8203 129.569 35.7965 129.887 35.7437C130.098 35.7113 130.301 35.6462 130.491 35.5508C130.622 35.485 130.731 35.3824 130.804 35.2556C130.87 35.1435 130.909 35.0173 130.918 34.8872H130.906ZM128.784 29.5012C129.235 29.5012 129.556 29.3893 129.766 29.1616C129.975 28.9183 130.084 28.6046 130.071 28.2839C130.088 27.9644 129.979 27.651 129.766 27.412C129.563 27.1998 129.235 27.0956 128.784 27.0956C128.333 27.0956 128.012 27.1998 127.8 27.412C127.587 27.651 127.478 27.9644 127.495 28.2839C127.493 28.449 127.519 28.6133 127.571 28.77C127.619 28.9141 127.699 29.0458 127.804 29.1559C127.918 29.2689 128.055 29.3558 128.205 29.4105C128.395 29.4769 128.595 29.5076 128.796 29.5012H128.784Z" fill="#383838"/>
<path d="M19.1328 32.9134C20.4188 32.9134 21.4613 31.8709 21.4613 30.585C21.4613 29.2991 20.4188 28.2566 19.1328 28.2566C17.8469 28.2566 16.8044 29.2991 16.8044 30.585C16.8044 31.8709 17.8469 32.9134 19.1328 32.9134Z" stroke="#383838" stroke-width="0.241136" stroke-miterlimit="10"/>
<path d="M16.2993 32.9386C17.5852 32.9386 18.6277 31.8961 18.6277 30.6101C18.6277 29.3242 17.5852 28.2817 16.2993 28.2817C15.0133 28.2817 13.9709 29.3242 13.9709 30.6101C13.9709 31.8961 15.0133 32.9386 16.2993 32.9386Z" stroke="#383838" stroke-width="0.241136" stroke-miterlimit="10"/>
<path d="M23.0508 22.1782H4.89235C4.67927 22.1782 4.50653 22.351 4.50653 22.564V33.7797C4.50653 33.9928 4.67927 34.1656 4.89235 34.1656H23.0508C23.2639 34.1656 23.4366 33.9928 23.4366 33.7797V22.564C23.4366 22.351 23.2639 22.1782 23.0508 22.1782Z" stroke="#383838" stroke-width="0.771634" stroke-miterlimit="10"/>
<path d="M4.74365 24.4006H23.2243M4.74365 26.6596H23.2243" stroke="#383838" stroke-width="0.771634" stroke-miterlimit="10"/>
<path d="M14.8602 20.3379H10.6992L22.6981 7.30688L18.4155 18.0287H22.6981L10.6992 30.9092L14.8602 20.3379Z" fill="#383838"/>
</svg>
