<svg width="108" height="31" viewBox="0 0 108 31" fill="none" xmlns="http://www.w3.org/2000/svg">
<rect width="107" height="31" fill="white"/>
<path fill-rule="evenodd" clip-rule="evenodd" d="M84.1444 27.6712L79.8627 11.9307L73.517 26.5006C73.2911 26.9729 73.0139 27.3426 72.6853 27.6096C72.3773 27.856 71.9871 27.9792 71.5148 27.9792C70.5907 27.9792 69.9233 27.4864 69.5126 26.5006L64.3789 15.3499L64.7381 27.6712H60.8261V6.60177C61.093 5.53392 61.7399 5 62.7667 5C63.1774 5 63.5573 5.11295 63.9064 5.33884C64.276 5.56473 64.5533 5.89329 64.7381 6.32454L71.638 22.1574L78.5376 6.32454C78.9078 5.44151 79.534 5 80.4169 5C81.3614 5 81.9876 5.53392 82.2962 6.60177L88.0255 27.6712H84.1444ZM10.8735 27.774C9.31285 27.774 7.86511 27.4865 6.53029 26.9115C5.21601 26.316 4.06602 25.5151 3.08032 24.5088C2.11515 23.4821 1.35535 22.2705 0.800882 20.8741C0.266961 19.4777 0 17.9683 0 16.346C0 14.7032 0.266961 13.2041 0.800882 11.8487C1.35535 10.4934 2.11515 9.34339 3.08032 8.39876C4.06602 7.43359 5.21601 6.69431 6.53029 6.18093C7.86511 5.64701 9.31285 5.38005 10.8735 5.38005H23.01V9.29205H10.8735C9.8673 9.29205 8.9329 9.47688 8.07048 9.84651C7.22849 10.1956 6.49948 10.6885 5.88341 11.3251C5.26735 11.9617 4.78476 12.7215 4.43566 13.6045C4.08656 14.4875 3.91201 15.463 3.91201 16.5308C3.91201 17.5781 4.08656 18.5535 4.43566 19.4571C4.78476 20.3607 5.26735 21.141 5.88341 21.7982C6.49948 22.4347 7.22849 22.9378 8.07048 23.3076C8.9329 23.6772 9.8673 23.862 10.8735 23.862H20.4533V18.0402H10.3499V14.7442H24.3962V27.774H10.8735ZM27.5903 27.774V5.38005H31.5023V27.774H27.5903ZM40.8542 26.9115C42.189 27.4865 43.6368 27.774 45.1974 27.774H58.7201V14.7442H44.6738V18.0402H54.7772V23.862H45.1974C44.1912 23.862 43.2568 23.6772 42.3943 23.3076C41.5524 22.9378 40.8234 22.4347 40.2073 21.7982C39.5913 21.141 39.1087 20.3607 38.7596 19.4571C38.4105 18.5535 38.2359 17.5781 38.2359 16.5308C38.2359 15.463 38.4105 14.4875 38.7596 13.6045C39.1087 12.7215 39.5913 11.9617 40.2073 11.3251C40.8234 10.6885 41.5524 10.1956 42.3943 9.84651C43.2568 9.47688 44.1912 9.29205 45.1974 9.29205H57.334V5.38005H45.1974C43.6368 5.38005 42.189 5.64701 40.8542 6.18093C39.54 6.69431 38.39 7.43359 37.4042 8.39876C36.439 9.34339 35.6793 10.4934 35.1248 11.8487C34.5909 13.2041 34.3239 14.7032 34.3239 16.346C34.3239 17.9683 34.5909 19.4777 35.1248 20.8741C35.6793 22.2705 36.439 23.4821 37.4042 24.5088C38.39 25.5151 39.54 26.316 40.8542 26.9115ZM100.283 25.4636C100.283 27.2009 99.1092 27.8663 98.0282 27.8663H98.0186C96.7068 27.8663 95.7735 26.9884 95.7735 25.5283C95.7735 24.0313 96.7157 23.1349 98.0839 23.1349C99.4327 23.1349 100.283 24.096 100.283 25.4636ZM97.3998 25.5006C97.3998 26.2122 97.5934 26.7204 98.0468 26.7204H98.0557C98.4622 26.7204 98.6566 26.2029 98.6566 25.5006C98.6566 24.8814 98.4904 24.2808 98.0468 24.2808C97.5571 24.2808 97.3998 24.9 97.3998 25.5006ZM95.4752 26.4986C95.2905 26.5818 95.0872 26.6095 94.8379 26.6095C94.2651 26.6095 93.8118 26.2214 93.8118 25.4821C93.8029 24.7982 94.2184 24.3732 94.8194 24.3732C95.1057 24.3732 95.3001 24.4194 95.4478 24.4748L95.66 23.2828C95.4018 23.1903 95.0412 23.1442 94.7273 23.1442C93.0817 23.1442 92.1951 24.1977 92.1951 25.5468C92.1951 27.0068 93.1003 27.857 94.5241 27.857C94.9855 27.857 95.4107 27.7831 95.6325 27.6907L95.4752 26.4986ZM90.9249 27.8663C91.4703 27.8663 91.8397 27.4782 91.8397 26.9145C91.8308 26.3323 91.4517 25.9534 90.9338 25.9534C90.4167 25.9534 90.019 26.3507 90.019 26.9145C90.019 27.4782 90.4071 27.8663 90.916 27.8663H90.9249ZM100.845 27.7739H102.407V25.1033C102.407 24.9831 102.416 24.8629 102.453 24.7706C102.527 24.6042 102.666 24.4286 102.915 24.4286C103.276 24.4286 103.386 24.7798 103.386 25.2049V27.7739H104.948V25.1033C104.948 25.0016 104.957 24.8629 104.985 24.789C105.059 24.5765 105.216 24.4286 105.456 24.4286C105.799 24.4286 105.928 24.7613 105.928 25.2973V27.7739H107.489V25.057C107.489 23.8557 107 23.1349 106.048 23.1349C105.761 23.1349 105.512 23.1996 105.29 23.3105C105.068 23.4306 104.874 23.6062 104.708 23.8187H104.689C104.514 23.4029 104.098 23.1349 103.534 23.1349C102.841 23.1349 102.444 23.523 102.259 23.7818H102.231L102.157 23.2273H100.808C100.827 23.6617 100.845 24.1791 100.845 24.7428V27.7739ZM86.0408 8.77845H85.2417V6.3527H84.525V5.66424H86.7708V6.3527H86.0408V8.77845ZM90.2564 8.77845H89.4989L89.4574 7.70188C89.4485 7.38306 89.4388 6.97646 89.4388 6.53751H89.4247C89.3468 6.92563 89.2266 7.3692 89.1435 7.66491L88.8616 8.71376H88.2517L88.0069 7.66954C87.9372 7.37382 87.8452 6.93488 87.7851 6.53751H87.7754C87.7621 6.82751 87.7495 7.13397 87.7376 7.40156V7.41073L87.7294 7.59473L87.725 7.70188L87.6782 8.77845H86.9578L87.1655 5.66424H88.1731L88.3764 6.54676C88.4595 6.90715 88.547 7.30451 88.6071 7.67877H88.6212C88.6947 7.30913 88.7919 6.88867 88.875 6.54213L89.0968 5.66424H90.0903L90.2564 8.77845Z" fill="#383838"/>
</svg>
