<svg width="171" height="40" viewBox="0 0 171 40" fill="none" xmlns="http://www.w3.org/2000/svg">
    <path
        d="M37.7697 30.6948C37.7738 30.4015 37.7312 30.1095 37.6434 29.8296L37.6432 29.8289C37.5593 29.5686 37.4052 29.3365 37.1978 29.1581L37.1978 29.1581L37.1956 29.1563C36.9547 28.961 36.6747 28.8196 36.3744 28.7417L36.3736 28.7415C35.9639 28.639 35.5423 28.5919 35.12 28.6015H32.3912H32.2948V28.698V32.9084V33.0049L32.3913 33.0048L35.1525 33.0023C35.5958 33.0175 36.0379 32.9493 36.456 32.8012L36.456 32.8012L36.4577 32.8006C36.7612 32.687 37.0344 32.5048 37.256 32.2684L37.2573 32.267C37.45 32.0533 37.5888 31.7967 37.6624 31.5186L37.6624 31.5184C37.7331 31.2495 37.7691 30.9728 37.7697 30.6948ZM37.7697 30.6948C37.7697 30.695 37.7697 30.6952 37.7697 30.6954L37.6733 30.694L37.7697 30.6942C37.7697 30.6944 37.7697 30.6946 37.7697 30.6948ZM50.1715 33.1703C50.548 32.989 50.8974 32.7558 51.2092 32.4775L51.2414 32.4488V32.4056V23.9289H54.6419V35.7704H52.5036V35.77L52.4954 35.7707C52.3235 35.7854 52.1519 35.7401 52.0096 35.6425C51.8673 35.5449 51.7632 35.4011 51.715 35.2355L51.7147 35.2345L51.5039 34.5387L51.458 34.3871L51.3444 34.4975C51.122 34.7136 50.8852 34.9144 50.6357 35.0985L50.6356 35.0986C50.3937 35.2774 50.1333 35.4297 49.8587 35.5528C49.5704 35.6817 49.2696 35.7809 48.961 35.8487C48.6147 35.9217 48.2616 35.9576 47.9077 35.9557L47.9054 35.9558C47.3192 35.9669 46.7373 35.8528 46.1987 35.621C45.7186 35.4077 45.2924 35.0895 44.9513 34.6897C44.6033 34.2737 44.3419 33.7922 44.1826 33.2737L44.1826 33.2736C44.0025 32.6894 43.914 32.0808 43.9202 31.4695V31.4685V23.9289H47.3232V31.4656C47.292 31.9809 47.4424 32.491 47.7482 32.9071L47.7479 32.9073L47.754 32.9142C47.9129 33.0921 48.1103 33.2314 48.3312 33.3214C48.551 33.411 48.7882 33.4495 49.025 33.434C49.4223 33.4353 49.8146 33.3451 50.1715 33.1703ZM50.1715 33.1703C50.1713 33.1704 50.1712 33.1704 50.1711 33.1705L50.1292 33.0836L50.1716 33.1702C50.1716 33.1703 50.1715 33.1703 50.1715 33.1703ZM34.6894 19.0531V19.0532L34.6912 19.0531C35.6874 19.035 36.6818 19.1433 37.6508 19.3755L37.6509 19.3756C38.3605 19.5445 39.0303 19.8505 39.6225 20.2763C40.1074 20.6362 40.4873 21.1192 40.7229 21.6752C40.9605 22.2638 41.078 22.894 41.0685 23.5288L41.0685 23.5306C41.0699 23.8926 41.0166 24.2527 40.9103 24.5988C40.803 24.9433 40.6364 25.2665 40.418 25.5538C40.1719 25.8715 39.8779 26.1489 39.5463 26.376C39.1472 26.6474 38.7142 26.8656 38.2585 27.0249L37.9506 27.1325L38.2675 27.2096C39.3679 27.4776 40.1707 27.9068 40.6883 28.4894C41.224 29.1249 41.502 29.9382 41.4673 30.7687L41.4672 30.7687L41.4672 30.7735C41.4727 31.4506 41.3327 32.121 41.0567 32.7393C40.78 33.3503 40.3708 33.892 39.8586 34.3252C39.2817 34.8067 38.6157 35.1698 37.8984 35.3938C37.0329 35.6625 36.1303 35.7921 35.2242 35.778H35.2227H28.5642V19.0531H34.6894ZM32.391 21.7958L32.2948 21.796V21.8923V26.0722V26.1687H32.3912H34.4223C34.8207 26.1725 35.2188 26.1406 35.6115 26.0734C35.9385 26.0225 36.2523 25.9077 36.535 25.7356L36.535 25.7356L36.5365 25.7346C36.7952 25.5702 37.0008 25.3345 37.1286 25.056L37.1286 25.056L37.1297 25.0535C37.271 24.7208 37.3386 24.3614 37.3279 24.0002C37.3397 23.6447 37.2872 23.29 37.1729 22.9532L37.1729 22.9532L37.1722 22.9513C37.074 22.6812 36.9023 22.4438 36.6765 22.266L36.6765 22.266L36.6745 22.2644C36.428 22.0807 36.1427 21.9557 35.8405 21.8992C35.4582 21.8214 35.0686 21.785 34.6784 21.7907L32.391 21.7958ZM69.1512 23.9289L62.7757 38.9501L62.7757 38.9501L62.7749 38.9522C62.6996 39.1419 62.5761 39.3086 62.4167 39.4359C62.2095 39.5532 61.9719 39.606 61.7344 39.5875L61.7344 39.5872H61.7268H59.1878L61.4432 34.8519L61.4621 34.8121L61.4445 34.7717L56.699 23.9289H59.7309V23.9291L59.7372 23.9287C59.9441 23.915 60.1493 23.9737 60.3176 24.0947C60.4493 24.1998 60.5521 24.3368 60.6163 24.4926C60.6165 24.493 60.6166 24.4934 60.6168 24.4937L62.5915 29.6795L62.5919 29.6805C62.7763 30.1486 62.926 30.6296 63.0397 31.1196L63.116 31.4482L63.225 31.1289L63.4789 30.3849L63.4791 30.3844C63.5615 30.1388 63.6498 29.8966 63.744 29.6577L63.7441 29.6578L63.7455 29.6537L65.5222 24.491C65.5894 24.3268 65.7055 24.1872 65.8548 24.0913L65.8548 24.0914L65.8572 24.0897C66.0114 23.9841 66.1942 23.928 66.3812 23.9289H66.3816H69.1512Z"
        fill="#8C8C8C" stroke="#8C8C8C" stroke-width="0.192908" />
    <mask id="path-2-inside-1_8151_17963" fill="white">
        <path
            d="M77.0849 18.9568C78.1234 18.9353 79.1588 19.0784 80.1525 19.3809C80.9298 19.6192 81.6492 20.0161 82.2653 20.5465C82.8073 21.0245 83.227 21.6254 83.4894 22.2987C83.7577 22.9953 83.8921 23.7362 83.8855 24.4827C83.8936 25.2747 83.7558 26.0615 83.4792 26.8037C83.214 27.4968 82.7885 28.1173 82.2374 28.6143C81.6209 29.1493 80.8996 29.5497 80.1195 29.7901C79.137 30.0922 78.1126 30.2353 77.0849 30.2142H75.0533V35.867H71.1172V18.9568H77.0849ZM77.0849 27.2557C78.1007 27.2557 78.8354 27.0119 79.2891 26.5244C79.7361 26.0368 79.9621 25.3562 79.9621 24.4928C79.9668 24.1331 79.9075 23.7754 79.7868 23.4364C79.6764 23.1259 79.4956 22.8452 79.2586 22.6162C79.0037 22.3777 78.6994 22.1982 78.3673 22.0905C77.9531 21.9576 77.5198 21.8941 77.0849 21.9026H75.0533V27.2659L77.0849 27.2557ZM91.4276 23.6472C92.279 23.6359 93.1252 23.7814 93.9239 24.0763C94.6476 24.3451 95.3062 24.764 95.8564 25.3054C96.4055 25.8579 96.8321 26.5198 97.1084 27.2481C97.4164 28.0703 97.5679 28.9427 97.5553 29.8206C97.5681 30.705 97.4165 31.5842 97.1084 32.4133C96.8407 33.1459 96.4174 33.8118 95.8677 34.365C95.3179 34.9183 94.6548 35.3458 93.9239 35.6181C92.3049 36.1971 90.5352 36.1971 88.9161 35.6181C88.1877 35.3425 87.5238 34.9198 86.9658 34.3763C86.4068 33.8206 85.9737 33.1511 85.6961 32.4133C85.3867 31.5845 85.2352 30.7051 85.2492 29.8206C85.2353 28.9426 85.3869 28.0699 85.6961 27.2481C85.9745 26.5167 86.4077 25.854 86.9658 25.3054C87.5231 24.7642 88.1874 24.3455 88.9161 24.0763C89.72 23.781 90.5713 23.6355 91.4276 23.6472ZM91.4276 33.3834C92.2555 33.3834 92.865 33.0914 93.256 32.5073C93.6471 31.9232 93.8435 31.0353 93.8452 29.8434C93.8452 28.6583 93.6497 27.7721 93.2586 27.1846C92.8675 26.5972 92.258 26.3077 91.4302 26.3161C90.5837 26.3161 89.9607 26.6056 89.5612 27.1846C89.1616 27.7636 88.9644 28.6499 88.9695 29.8434C88.9695 31.0285 89.1667 31.9164 89.5612 32.5073C89.9556 33.0981 90.5778 33.3902 91.4276 33.3834ZM117.424 23.8326L113.686 35.867H110.763C110.618 35.8709 110.477 35.8212 110.367 35.7273C110.239 35.5999 110.151 35.4386 110.113 35.2626L108.396 29.2619C108.31 28.9927 108.234 28.7261 108.168 28.462C108.102 28.208 108.043 27.9312 107.99 27.662C107.934 27.9312 107.876 28.2029 107.81 28.4747C107.744 28.7464 107.667 29.0156 107.584 29.2873L105.842 35.2626C105.809 35.4385 105.714 35.5966 105.574 35.7078C105.434 35.8189 105.258 35.8755 105.08 35.867H102.286L98.5482 23.8326H101.425C101.654 23.8244 101.879 23.8864 102.07 24.0103C102.234 24.1167 102.358 24.2737 102.423 24.4573L103.632 29.8561C103.73 30.2658 103.819 30.662 103.899 31.0446C103.975 31.428 104.046 31.8064 104.107 32.2C104.209 31.8115 104.315 31.4382 104.427 31.0446C104.539 30.651 104.661 30.265 104.793 29.8561L106.301 24.4471C106.366 24.2645 106.488 24.1078 106.649 24.0002C106.826 23.8775 107.038 23.8143 107.253 23.8199H108.853C109.082 23.8124 109.307 23.8754 109.498 24.0002C109.661 24.1068 109.785 24.2637 109.851 24.4471L111.291 29.8561C111.408 30.2658 111.522 30.6637 111.634 31.0497C111.746 31.4382 111.847 31.8267 111.941 32.2229C112.002 31.8369 112.076 31.461 112.162 31.0623C112.249 30.6637 112.342 30.2726 112.452 29.8561L113.721 24.4573C113.787 24.275 113.909 24.1185 114.069 24.0103C114.246 23.889 114.457 23.8268 114.671 23.8326H117.424ZM122.124 30.4935C122.241 31.4991 122.547 32.228 123.041 32.68C123.567 33.1459 124.254 33.3899 124.956 33.3605C125.322 33.3683 125.686 33.3168 126.035 33.2082C126.313 33.1181 126.583 33.006 126.843 32.873L127.493 32.5352C127.685 32.4369 127.897 32.3855 128.112 32.3854C128.238 32.3775 128.363 32.4016 128.477 32.4553C128.591 32.509 128.689 32.5907 128.763 32.6927L129.806 33.9827C129.459 34.3859 129.054 34.7358 128.605 35.0213C128.191 35.2815 127.746 35.4912 127.282 35.646C126.841 35.7953 126.387 35.9008 125.926 35.9609C125.497 36.0173 125.064 36.0461 124.631 36.0473C123.821 36.0532 123.017 35.9138 122.256 35.6359C121.531 35.3696 120.871 34.9524 120.319 34.4119C119.744 33.8347 119.297 33.1423 119.009 32.3803C118.67 31.4835 118.506 30.5301 118.526 29.5717C118.522 28.7911 118.661 28.0164 118.937 27.2862C119.202 26.5768 119.609 25.929 120.133 25.3823C120.657 24.8357 121.287 24.4016 121.985 24.1068C123.477 23.5117 125.135 23.4748 126.652 24.0027C127.291 24.2357 127.872 24.6038 128.356 25.082C128.847 25.5744 129.227 26.1656 129.471 26.8164C129.748 27.56 129.885 28.3489 129.872 29.1425C129.875 29.364 129.863 29.5854 129.837 29.8053C129.822 29.9479 129.779 30.0861 129.71 30.2116C129.652 30.3082 129.562 30.3817 129.456 30.4199C129.327 30.4622 129.192 30.482 129.057 30.4783L122.124 30.4935ZM126.65 28.4036C126.65 28.1215 126.614 27.8405 126.541 27.5681C126.471 27.3048 126.348 27.0585 126.18 26.8443C126.004 26.6267 125.779 26.4529 125.525 26.3364C125.215 26.1963 124.877 26.1285 124.537 26.1384C124.244 26.1223 123.952 26.1661 123.677 26.2669C123.401 26.3678 123.15 26.5236 122.937 26.725C122.514 27.1952 122.248 27.7854 122.175 28.4137L126.65 28.4036ZM135.657 25.6889C135.98 25.1014 136.416 24.5835 136.94 24.1652C137.415 23.7956 138.003 23.5986 138.605 23.6065C139.077 23.5851 139.542 23.7199 139.928 23.99L139.697 26.6361C139.679 26.7721 139.61 26.8961 139.504 26.984C139.396 27.0522 139.269 27.0851 139.141 27.078C139.078 27.078 138.996 27.078 138.887 27.0653L138.572 27.0373L138.242 27.0018C138.14 26.9901 138.038 26.9842 137.935 26.984C137.474 26.9579 137.02 27.1076 136.665 27.403C136.319 27.727 136.047 28.1232 135.87 28.5635V35.867H132.292V23.8326H134.428C134.578 23.8295 134.728 23.8449 134.875 23.8783C134.985 23.904 135.088 23.9534 135.177 24.023C135.26 24.0904 135.324 24.1778 135.363 24.277C135.411 24.4046 135.447 24.5364 135.472 24.6706L135.657 25.6889ZM139.593 34.0437C139.591 33.7767 139.644 33.5122 139.748 33.2666C139.85 33.0313 139.996 32.8182 140.18 32.6393C140.57 32.2625 141.093 32.0545 141.635 32.0604C141.91 32.0571 142.182 32.1107 142.435 32.2178C142.676 32.3167 142.896 32.4596 143.085 32.6393C143.275 32.8201 143.426 33.0381 143.527 33.2797C143.629 33.5214 143.68 33.7815 143.677 34.0437C143.679 34.313 143.626 34.5801 143.522 34.8283C143.421 35.0666 143.272 35.2818 143.085 35.4607C142.897 35.6405 142.677 35.7819 142.435 35.8771C142.181 35.9802 141.909 36.032 141.635 36.0295C141.357 36.0325 141.081 35.9807 140.822 35.8771C140.583 35.7823 140.364 35.6408 140.18 35.4607C139.995 35.2806 139.849 35.0657 139.748 34.8283C139.644 34.5801 139.591 34.313 139.593 34.0437ZM149.342 25.1328C149.57 24.9174 149.81 24.7156 150.061 24.5284C150.308 24.3428 150.574 24.1853 150.856 24.0586C151.15 23.9258 151.457 23.8245 151.772 23.7564C152.125 23.6805 152.486 23.6439 152.847 23.6472C153.446 23.6347 154.041 23.7507 154.591 23.9875C155.08 24.207 155.513 24.5322 155.861 24.9398C156.22 25.3644 156.489 25.8578 156.651 26.3898C156.829 26.9826 156.914 27.5993 156.905 28.2182V35.867H153.334V28.2182C153.363 27.7269 153.219 27.2409 152.928 26.8443C152.781 26.6731 152.597 26.5381 152.389 26.45C152.182 26.3619 151.957 26.323 151.732 26.3364C151.348 26.3347 150.969 26.4216 150.625 26.5904C150.256 26.7678 149.914 26.9961 149.609 27.2684V35.867H146.021V23.8326H148.25C148.444 23.8163 148.637 23.8673 148.798 23.9769C148.958 24.0866 149.076 24.2481 149.131 24.4344L149.342 25.1328ZM170.521 24.2033V25.5137C170.526 25.6004 170.514 25.6871 170.485 25.7691C170.456 25.851 170.411 25.9264 170.354 25.9911C170.189 26.1308 169.99 26.223 169.777 26.2577L168.909 26.4558C168.954 26.6273 168.991 26.801 169.018 26.9764C169.046 27.1613 169.059 27.3481 169.058 27.5351C169.068 28.0986 168.939 28.6558 168.683 29.1578C168.432 29.6366 168.079 30.0545 167.649 30.3818C167.184 30.7331 166.659 30.9972 166.1 31.1614C165.479 31.342 164.835 31.4302 164.188 31.423C164.002 31.423 163.82 31.423 163.642 31.4052C163.466 31.3945 163.292 31.3733 163.119 31.3417C163.011 31.3906 162.918 31.4666 162.849 31.5624C162.78 31.6582 162.737 31.7703 162.725 31.8877C162.725 31.9856 162.756 32.081 162.815 32.1594C162.873 32.2377 162.956 32.2948 163.05 32.3219C163.326 32.4248 163.615 32.4873 163.908 32.5073C164.264 32.5428 164.67 32.5657 165.122 32.5784C165.574 32.5911 166.036 32.6165 166.509 32.6597C166.975 32.7021 167.438 32.7733 167.895 32.873C168.324 32.9651 168.734 33.13 169.107 33.3605C169.462 33.5863 169.757 33.8948 169.968 34.2595C170.2 34.7011 170.312 35.1958 170.293 35.6943C170.289 36.2482 170.154 36.7934 169.896 37.284C169.615 37.8239 169.219 38.2955 168.736 38.6654C168.171 39.0949 167.535 39.4224 166.857 39.633C166.03 39.889 165.168 40.0124 164.302 39.9986C163.48 40.0123 162.659 39.9227 161.859 39.732C161.258 39.5887 160.683 39.3522 160.155 39.0311C159.738 38.7815 159.389 38.4326 159.139 38.0153C158.928 37.6566 158.816 37.2482 158.814 36.832C158.798 36.3452 158.963 35.8698 159.279 35.4988C159.636 35.1112 160.082 34.8166 160.579 34.6404C160.295 34.4719 160.056 34.2365 159.883 33.9548C159.701 33.6253 159.613 33.2518 159.629 32.8755C159.631 32.6839 159.663 32.4936 159.723 32.3118C159.79 32.1043 159.89 31.9089 160.018 31.7328C160.164 31.5318 160.334 31.3501 160.526 31.1919C160.745 31.0109 160.987 30.859 161.245 30.7398C160.647 30.4314 160.136 29.9783 159.759 29.4219C159.39 28.8555 159.2 28.1907 159.216 27.5147C159.207 26.9475 159.338 26.3868 159.596 25.8819C159.852 25.3997 160.211 24.9799 160.648 24.6528C161.121 24.3012 161.653 24.038 162.22 23.8757C162.857 23.6881 163.518 23.5957 164.183 23.6015C165.12 23.5839 166.049 23.7829 166.897 24.183L170.521 24.2033ZM166.966 36.3063C166.972 36.1765 166.938 36.0479 166.87 35.9374C166.801 35.8269 166.701 35.7396 166.582 35.6867C166.267 35.5427 165.93 35.4509 165.584 35.415C165.128 35.3557 164.668 35.3226 164.208 35.3159C163.7 35.3032 163.192 35.2753 162.684 35.227C162.475 35.3658 162.289 35.5373 162.133 35.7349C161.991 35.9194 161.915 36.1467 161.917 36.3799C161.915 36.5407 161.953 36.6995 162.027 36.8421C162.118 36.9986 162.254 37.1242 162.418 37.2027C162.653 37.3202 162.905 37.4007 163.164 37.4414C163.558 37.5055 163.957 37.5344 164.355 37.5278C164.781 37.5347 165.206 37.5033 165.625 37.4338C165.902 37.3911 166.17 37.3054 166.42 37.1799C166.592 37.0932 166.735 36.9582 166.831 36.7913C166.919 36.6438 166.97 36.4775 166.981 36.3063H166.966ZM164.173 29.2162C164.767 29.2162 165.188 29.0689 165.465 28.7692C165.741 28.4489 165.884 28.0359 165.866 27.6138C165.889 27.1932 165.745 26.7806 165.465 26.466C165.198 26.1866 164.767 26.0495 164.173 26.0495C163.578 26.0495 163.157 26.1866 162.877 26.466C162.597 26.7806 162.453 27.1932 162.476 27.6138C162.474 27.8311 162.507 28.0473 162.575 28.2537C162.639 28.4434 162.744 28.6167 162.882 28.7616C163.032 28.9105 163.212 29.0249 163.411 29.0968C163.66 29.1842 163.924 29.2247 164.188 29.2162H164.173Z" />
    </mask>
    <path
        d="M77.0849 18.9568C78.1234 18.9353 79.1588 19.0784 80.1525 19.3809C80.9298 19.6192 81.6492 20.0161 82.2653 20.5465C82.8073 21.0245 83.227 21.6254 83.4894 22.2987C83.7577 22.9953 83.8921 23.7362 83.8855 24.4827C83.8936 25.2747 83.7558 26.0615 83.4792 26.8037C83.214 27.4968 82.7885 28.1173 82.2374 28.6143C81.6209 29.1493 80.8996 29.5497 80.1195 29.7901C79.137 30.0922 78.1126 30.2353 77.0849 30.2142H75.0533V35.867H71.1172V18.9568H77.0849ZM77.0849 27.2557C78.1007 27.2557 78.8354 27.0119 79.2891 26.5244C79.7361 26.0368 79.9621 25.3562 79.9621 24.4928C79.9668 24.1331 79.9075 23.7754 79.7868 23.4364C79.6764 23.1259 79.4956 22.8452 79.2586 22.6162C79.0037 22.3777 78.6994 22.1982 78.3673 22.0905C77.9531 21.9576 77.5198 21.8941 77.0849 21.9026H75.0533V27.2659L77.0849 27.2557ZM91.4276 23.6472C92.279 23.6359 93.1252 23.7814 93.9239 24.0763C94.6476 24.3451 95.3062 24.764 95.8564 25.3054C96.4055 25.8579 96.8321 26.5198 97.1084 27.2481C97.4164 28.0703 97.5679 28.9427 97.5553 29.8206C97.5681 30.705 97.4165 31.5842 97.1084 32.4133C96.8407 33.1459 96.4174 33.8118 95.8677 34.365C95.3179 34.9183 94.6548 35.3458 93.9239 35.6181C92.3049 36.1971 90.5352 36.1971 88.9161 35.6181C88.1877 35.3425 87.5238 34.9198 86.9658 34.3763C86.4068 33.8206 85.9737 33.1511 85.6961 32.4133C85.3867 31.5845 85.2352 30.7051 85.2492 29.8206C85.2353 28.9426 85.3869 28.0699 85.6961 27.2481C85.9745 26.5167 86.4077 25.854 86.9658 25.3054C87.5231 24.7642 88.1874 24.3455 88.9161 24.0763C89.72 23.781 90.5713 23.6355 91.4276 23.6472ZM91.4276 33.3834C92.2555 33.3834 92.865 33.0914 93.256 32.5073C93.6471 31.9232 93.8435 31.0353 93.8452 29.8434C93.8452 28.6583 93.6497 27.7721 93.2586 27.1846C92.8675 26.5972 92.258 26.3077 91.4302 26.3161C90.5837 26.3161 89.9607 26.6056 89.5612 27.1846C89.1616 27.7636 88.9644 28.6499 88.9695 29.8434C88.9695 31.0285 89.1667 31.9164 89.5612 32.5073C89.9556 33.0981 90.5778 33.3902 91.4276 33.3834ZM117.424 23.8326L113.686 35.867H110.763C110.618 35.8709 110.477 35.8212 110.367 35.7273C110.239 35.5999 110.151 35.4386 110.113 35.2626L108.396 29.2619C108.31 28.9927 108.234 28.7261 108.168 28.462C108.102 28.208 108.043 27.9312 107.99 27.662C107.934 27.9312 107.876 28.2029 107.81 28.4747C107.744 28.7464 107.667 29.0156 107.584 29.2873L105.842 35.2626C105.809 35.4385 105.714 35.5966 105.574 35.7078C105.434 35.8189 105.258 35.8755 105.08 35.867H102.286L98.5482 23.8326H101.425C101.654 23.8244 101.879 23.8864 102.07 24.0103C102.234 24.1167 102.358 24.2737 102.423 24.4573L103.632 29.8561C103.73 30.2658 103.819 30.662 103.899 31.0446C103.975 31.428 104.046 31.8064 104.107 32.2C104.209 31.8115 104.315 31.4382 104.427 31.0446C104.539 30.651 104.661 30.265 104.793 29.8561L106.301 24.4471C106.366 24.2645 106.488 24.1078 106.649 24.0002C106.826 23.8775 107.038 23.8143 107.253 23.8199H108.853C109.082 23.8124 109.307 23.8754 109.498 24.0002C109.661 24.1068 109.785 24.2637 109.851 24.4471L111.291 29.8561C111.408 30.2658 111.522 30.6637 111.634 31.0497C111.746 31.4382 111.847 31.8267 111.941 32.2229C112.002 31.8369 112.076 31.461 112.162 31.0623C112.249 30.6637 112.342 30.2726 112.452 29.8561L113.721 24.4573C113.787 24.275 113.909 24.1185 114.069 24.0103C114.246 23.889 114.457 23.8268 114.671 23.8326H117.424ZM122.124 30.4935C122.241 31.4991 122.547 32.228 123.041 32.68C123.567 33.1459 124.254 33.3899 124.956 33.3605C125.322 33.3683 125.686 33.3168 126.035 33.2082C126.313 33.1181 126.583 33.006 126.843 32.873L127.493 32.5352C127.685 32.4369 127.897 32.3855 128.112 32.3854C128.238 32.3775 128.363 32.4016 128.477 32.4553C128.591 32.509 128.689 32.5907 128.763 32.6927L129.806 33.9827C129.459 34.3859 129.054 34.7358 128.605 35.0213C128.191 35.2815 127.746 35.4912 127.282 35.646C126.841 35.7953 126.387 35.9008 125.926 35.9609C125.497 36.0173 125.064 36.0461 124.631 36.0473C123.821 36.0532 123.017 35.9138 122.256 35.6359C121.531 35.3696 120.871 34.9524 120.319 34.4119C119.744 33.8347 119.297 33.1423 119.009 32.3803C118.67 31.4835 118.506 30.5301 118.526 29.5717C118.522 28.7911 118.661 28.0164 118.937 27.2862C119.202 26.5768 119.609 25.929 120.133 25.3823C120.657 24.8357 121.287 24.4016 121.985 24.1068C123.477 23.5117 125.135 23.4748 126.652 24.0027C127.291 24.2357 127.872 24.6038 128.356 25.082C128.847 25.5744 129.227 26.1656 129.471 26.8164C129.748 27.56 129.885 28.3489 129.872 29.1425C129.875 29.364 129.863 29.5854 129.837 29.8053C129.822 29.9479 129.779 30.0861 129.71 30.2116C129.652 30.3082 129.562 30.3817 129.456 30.4199C129.327 30.4622 129.192 30.482 129.057 30.4783L122.124 30.4935ZM126.65 28.4036C126.65 28.1215 126.614 27.8405 126.541 27.5681C126.471 27.3048 126.348 27.0585 126.18 26.8443C126.004 26.6267 125.779 26.4529 125.525 26.3364C125.215 26.1963 124.877 26.1285 124.537 26.1384C124.244 26.1223 123.952 26.1661 123.677 26.2669C123.401 26.3678 123.15 26.5236 122.937 26.725C122.514 27.1952 122.248 27.7854 122.175 28.4137L126.65 28.4036ZM135.657 25.6889C135.98 25.1014 136.416 24.5835 136.94 24.1652C137.415 23.7956 138.003 23.5986 138.605 23.6065C139.077 23.5851 139.542 23.7199 139.928 23.99L139.697 26.6361C139.679 26.7721 139.61 26.8961 139.504 26.984C139.396 27.0522 139.269 27.0851 139.141 27.078C139.078 27.078 138.996 27.078 138.887 27.0653L138.572 27.0373L138.242 27.0018C138.14 26.9901 138.038 26.9842 137.935 26.984C137.474 26.9579 137.02 27.1076 136.665 27.403C136.319 27.727 136.047 28.1232 135.87 28.5635V35.867H132.292V23.8326H134.428C134.578 23.8295 134.728 23.8449 134.875 23.8783C134.985 23.904 135.088 23.9534 135.177 24.023C135.26 24.0904 135.324 24.1778 135.363 24.277C135.411 24.4046 135.447 24.5364 135.472 24.6706L135.657 25.6889ZM139.593 34.0437C139.591 33.7767 139.644 33.5122 139.748 33.2666C139.85 33.0313 139.996 32.8182 140.18 32.6393C140.57 32.2625 141.093 32.0545 141.635 32.0604C141.91 32.0571 142.182 32.1107 142.435 32.2178C142.676 32.3167 142.896 32.4596 143.085 32.6393C143.275 32.8201 143.426 33.0381 143.527 33.2797C143.629 33.5214 143.68 33.7815 143.677 34.0437C143.679 34.313 143.626 34.5801 143.522 34.8283C143.421 35.0666 143.272 35.2818 143.085 35.4607C142.897 35.6405 142.677 35.7819 142.435 35.8771C142.181 35.9802 141.909 36.032 141.635 36.0295C141.357 36.0325 141.081 35.9807 140.822 35.8771C140.583 35.7823 140.364 35.6408 140.18 35.4607C139.995 35.2806 139.849 35.0657 139.748 34.8283C139.644 34.5801 139.591 34.313 139.593 34.0437ZM149.342 25.1328C149.57 24.9174 149.81 24.7156 150.061 24.5284C150.308 24.3428 150.574 24.1853 150.856 24.0586C151.15 23.9258 151.457 23.8245 151.772 23.7564C152.125 23.6805 152.486 23.6439 152.847 23.6472C153.446 23.6347 154.041 23.7507 154.591 23.9875C155.08 24.207 155.513 24.5322 155.861 24.9398C156.22 25.3644 156.489 25.8578 156.651 26.3898C156.829 26.9826 156.914 27.5993 156.905 28.2182V35.867H153.334V28.2182C153.363 27.7269 153.219 27.2409 152.928 26.8443C152.781 26.6731 152.597 26.5381 152.389 26.45C152.182 26.3619 151.957 26.323 151.732 26.3364C151.348 26.3347 150.969 26.4216 150.625 26.5904C150.256 26.7678 149.914 26.9961 149.609 27.2684V35.867H146.021V23.8326H148.25C148.444 23.8163 148.637 23.8673 148.798 23.9769C148.958 24.0866 149.076 24.2481 149.131 24.4344L149.342 25.1328ZM170.521 24.2033V25.5137C170.526 25.6004 170.514 25.6871 170.485 25.7691C170.456 25.851 170.411 25.9264 170.354 25.9911C170.189 26.1308 169.99 26.223 169.777 26.2577L168.909 26.4558C168.954 26.6273 168.991 26.801 169.018 26.9764C169.046 27.1613 169.059 27.3481 169.058 27.5351C169.068 28.0986 168.939 28.6558 168.683 29.1578C168.432 29.6366 168.079 30.0545 167.649 30.3818C167.184 30.7331 166.659 30.9972 166.1 31.1614C165.479 31.342 164.835 31.4302 164.188 31.423C164.002 31.423 163.82 31.423 163.642 31.4052C163.466 31.3945 163.292 31.3733 163.119 31.3417C163.011 31.3906 162.918 31.4666 162.849 31.5624C162.78 31.6582 162.737 31.7703 162.725 31.8877C162.725 31.9856 162.756 32.081 162.815 32.1594C162.873 32.2377 162.956 32.2948 163.05 32.3219C163.326 32.4248 163.615 32.4873 163.908 32.5073C164.264 32.5428 164.67 32.5657 165.122 32.5784C165.574 32.5911 166.036 32.6165 166.509 32.6597C166.975 32.7021 167.438 32.7733 167.895 32.873C168.324 32.9651 168.734 33.13 169.107 33.3605C169.462 33.5863 169.757 33.8948 169.968 34.2595C170.2 34.7011 170.312 35.1958 170.293 35.6943C170.289 36.2482 170.154 36.7934 169.896 37.284C169.615 37.8239 169.219 38.2955 168.736 38.6654C168.171 39.0949 167.535 39.4224 166.857 39.633C166.03 39.889 165.168 40.0124 164.302 39.9986C163.48 40.0123 162.659 39.9227 161.859 39.732C161.258 39.5887 160.683 39.3522 160.155 39.0311C159.738 38.7815 159.389 38.4326 159.139 38.0153C158.928 37.6566 158.816 37.2482 158.814 36.832C158.798 36.3452 158.963 35.8698 159.279 35.4988C159.636 35.1112 160.082 34.8166 160.579 34.6404C160.295 34.4719 160.056 34.2365 159.883 33.9548C159.701 33.6253 159.613 33.2518 159.629 32.8755C159.631 32.6839 159.663 32.4936 159.723 32.3118C159.79 32.1043 159.89 31.9089 160.018 31.7328C160.164 31.5318 160.334 31.3501 160.526 31.1919C160.745 31.0109 160.987 30.859 161.245 30.7398C160.647 30.4314 160.136 29.9783 159.759 29.4219C159.39 28.8555 159.2 28.1907 159.216 27.5147C159.207 26.9475 159.338 26.3868 159.596 25.8819C159.852 25.3997 160.211 24.9799 160.648 24.6528C161.121 24.3012 161.653 24.038 162.22 23.8757C162.857 23.6881 163.518 23.5957 164.183 23.6015C165.12 23.5839 166.049 23.7829 166.897 24.183L170.521 24.2033ZM166.966 36.3063C166.972 36.1765 166.938 36.0479 166.87 35.9374C166.801 35.8269 166.701 35.7396 166.582 35.6867C166.267 35.5427 165.93 35.4509 165.584 35.415C165.128 35.3557 164.668 35.3226 164.208 35.3159C163.7 35.3032 163.192 35.2753 162.684 35.227C162.475 35.3658 162.289 35.5373 162.133 35.7349C161.991 35.9194 161.915 36.1467 161.917 36.3799C161.915 36.5407 161.953 36.6995 162.027 36.8421C162.118 36.9986 162.254 37.1242 162.418 37.2027C162.653 37.3202 162.905 37.4007 163.164 37.4414C163.558 37.5055 163.957 37.5344 164.355 37.5278C164.781 37.5347 165.206 37.5033 165.625 37.4338C165.902 37.3911 166.17 37.3054 166.42 37.1799C166.592 37.0932 166.735 36.9582 166.831 36.7913C166.919 36.6438 166.97 36.4775 166.981 36.3063H166.966ZM164.173 29.2162C164.767 29.2162 165.188 29.0689 165.465 28.7692C165.741 28.4489 165.884 28.0359 165.866 27.6138C165.889 27.1932 165.745 26.7806 165.465 26.466C165.198 26.1866 164.767 26.0495 164.173 26.0495C163.578 26.0495 163.157 26.1866 162.877 26.466C162.597 26.7806 162.453 27.1932 162.476 27.6138C162.474 27.8311 162.507 28.0473 162.575 28.2537C162.639 28.4434 162.744 28.6167 162.882 28.7616C163.032 28.9105 163.212 29.0249 163.411 29.0968C163.66 29.1842 163.924 29.2247 164.188 29.2162H164.173Z"
        fill="#8C8C8C" stroke="#8C8C8C" stroke-width="0.385817" mask="url(#path-2-inside-1_8151_17963)" />
    <path d="M19.8283 33.7083C21.5211 33.7083 22.8934 32.336 22.8934 30.6432C22.8934 28.9504 21.5211 27.5781 19.8283 27.5781C18.1355 27.5781 16.7632 28.9504 16.7632 30.6432C16.7632 32.336 18.1355 33.7083 19.8283 33.7083Z" stroke="#8C8C8C"
        stroke-width="0.241136" stroke-miterlimit="10" />
    <path d="M16.0973 33.7418C17.7901 33.7418 19.1624 32.3695 19.1624 30.6767C19.1624 28.9839 17.7901 27.6116 16.0973 27.6116C14.4045 27.6116 13.0322 28.9839 13.0322 30.6767C13.0322 32.3695 14.4045 33.7418 16.0973 33.7418Z" stroke="#8C8C8C"
        stroke-width="0.241136" stroke-miterlimit="10" />
    <path
        d="M24.9859 19.5763H1.08211C0.801608 19.5763 0.574219 19.8037 0.574219 20.0842V34.8485C0.574219 35.129 0.801608 35.3564 1.08211 35.3564H24.9859C25.2664 35.3564 25.4938 35.129 25.4938 34.8485V20.0842C25.4938 19.8037 25.2664 19.5763 24.9859 19.5763Z"
        stroke="#8C8C8C" stroke-width="0.771634" stroke-miterlimit="10" />
    <path d="M0.886719 22.5022H25.2146M0.886719 25.4759H25.2146" stroke="#8C8C8C" stroke-width="0.771634" stroke-miterlimit="10" />
    <path d="M14.2934 17.1893L14.3453 17.0575H14.2037H8.94601L24.2375 0.450692L18.7943 14.0784L18.7415 14.2107H18.8838H24.2997L9.00203 30.6323L14.2934 17.1893Z" fill="#8C8C8C" stroke="#8C8C8C" stroke-width="0.192908" />
</svg>