<svg width="61" height="40" viewBox="0 0 61 40" fill="none" xmlns="http://www.w3.org/2000/svg">
    <path
        d="M22.7766 15.9744V29.626C21.3297 30.246 19.3022 30.561 17.688 30.7382C17.0286 30.8071 16.438 30.8563 15.9754 30.8957C-1.39661 32.3031 0.237243 17.4508 0.237243 17.4508C2.20574 1.37796 21.8809 6.62402 21.8809 6.62402L20.5719 12.1949C6.79235 7.93307 7.127 18.1004 7.127 18.1004C7.127 26.624 16.0148 25.6102 16.0148 25.6102L12.8652 15.9744H22.7766Z"
        fill="#8C8C8C" />
    <path
        d="M60.1203 15.9744V29.626C58.6735 30.246 56.6459 30.561 55.0318 30.7382C54.3723 30.8071 53.7818 30.8563 53.3192 30.8957C35.9471 32.3031 37.581 17.4508 37.581 17.4508C39.5495 1.37796 59.2247 6.62402 59.2247 6.62402L57.9156 12.1949C44.1361 7.93307 44.4708 18.1004 44.4708 18.1004C44.4708 26.624 53.3585 25.6102 53.3585 25.6102L50.2089 15.9744H60.1203Z"
        fill="#8C8C8C" />
    <path d="M33.6056 5.80713H26.7158V31.063H33.6056V5.80713Z" fill="#8C8C8C" />
    <path d="M26.7158 5.44291H33.6056L30.1607 0L26.7158 5.44291Z" fill="#8C8C8C" />
    <path d="M37.5445 0H30.6548L34.0997 5.44291L37.5445 0Z" fill="#555555" />
    <path d="M9.06494 32.9133H9.96061V39.1338H12.9429V39.8917H9.06494V32.9133Z" fill="#8C8C8C" />
    <path
        d="M19.5069 36.3288C19.5069 38.7303 18.0502 40 16.2687 40C14.4281 40 13.1289 38.5728 13.1289 36.4567C13.1289 34.2421 14.5069 32.7953 16.3671 32.7953C18.2765 32.7953 19.5069 34.252 19.5069 36.3288ZM14.0935 36.437C14.0935 37.9232 14.9006 39.2618 16.3179 39.2618C17.745 39.2618 18.5521 37.9429 18.5521 36.3681C18.5521 34.9803 17.8238 33.5335 16.3277 33.5335C14.8415 33.5335 14.0935 34.9114 14.0935 36.437Z"
        fill="#8C8C8C" />
    <path
        d="M25.9847 39.5767C25.5811 39.7244 24.7839 39.9606 23.839 39.9606C22.7859 39.9606 21.9099 39.6948 21.2308 39.0354C20.6304 38.4547 20.2563 37.5196 20.2563 36.437C20.2662 34.3602 21.6934 32.8346 24.0359 32.8346C24.843 32.8346 25.4729 33.0118 25.778 33.1594L25.5615 33.8976C25.1874 33.7303 24.7248 33.6023 24.0162 33.6023C22.3233 33.6023 21.2111 34.6555 21.2111 36.4074C21.2111 38.1791 22.2741 39.2224 23.8981 39.2224C24.4886 39.2224 24.8922 39.1436 25.0989 39.0354V36.9586H23.6815V36.2303H25.9748V39.5767H25.9847Z"
        fill="#8C8C8C" />
    <path d="M28.2697 32.9133V39.8917H27.374V32.9133H28.2697Z" fill="#8C8C8C" />
    <path
        d="M29.7128 38.7894C30.1163 39.0354 30.7069 39.2421 31.327 39.2421C32.2522 39.2421 32.7836 38.7599 32.7836 38.0512C32.7836 37.4016 32.4096 37.0276 31.4648 36.6634C30.323 36.2599 29.6242 35.6693 29.6242 34.6851C29.6242 33.6024 30.5199 32.7953 31.8781 32.7953C32.5966 32.7953 33.1085 32.9626 33.4234 33.1398L33.1774 33.878C32.951 33.75 32.4884 33.5433 31.8486 33.5433C30.8939 33.5433 30.5297 34.1142 30.5297 34.5866C30.5297 35.2362 30.9529 35.561 31.9175 35.9351C33.0986 36.3878 33.699 36.9587 33.699 37.9823C33.699 39.0551 32.9018 39.9902 31.2581 39.9902C30.5888 39.9902 29.8506 39.7933 29.4766 39.5472L29.7128 38.7894Z"
        fill="#8C8C8C" />
    <path d="M36.2593 33.681H34.1333V32.9133H39.3006V33.681H37.1648V39.8917H36.2494V33.681H36.2593Z" fill="#8C8C8C" />
    <path d="M40.9845 32.9133V39.8917H40.0889V32.9133H40.9845Z" fill="#8C8C8C" />
    <path
        d="M47.4314 39.6555C47.0968 39.8228 46.4373 39.9902 45.5909 39.9902C43.6224 39.9902 42.146 38.75 42.146 36.4567C42.146 34.2717 43.6224 32.7953 45.7877 32.7953C46.6539 32.7953 47.205 32.9823 47.4413 33.1102L47.2247 33.8484C46.8802 33.6811 46.398 33.563 45.8172 33.563C44.1834 33.563 43.0909 34.6063 43.0909 36.437C43.0909 38.1496 44.0751 39.2421 45.768 39.2421C46.3192 39.2421 46.8802 39.124 47.2346 38.9567L47.4314 39.6555Z"
        fill="#8C8C8C" />
    <path
        d="M48.4335 38.7894C48.837 39.0354 49.4276 39.2421 50.0477 39.2421C50.9728 39.2421 51.5043 38.7599 51.5043 38.0512C51.5043 37.4016 51.1303 37.0276 50.1854 36.6634C49.0437 36.2599 48.3449 35.6693 48.3449 34.6851C48.3449 33.6024 49.2406 32.7953 50.5988 32.7953C51.3173 32.7953 51.8291 32.9626 52.1441 33.1398L51.898 33.878C51.6717 33.75 51.2091 33.5433 50.5693 33.5433C49.6146 33.5433 49.2504 34.1142 49.2504 34.5866C49.2504 35.2362 49.6736 35.561 50.6382 35.9351C51.8193 36.3878 52.4197 36.9587 52.4197 37.9823C52.4197 39.0551 51.6225 39.9902 49.9788 39.9902C49.3095 39.9902 48.5713 39.7933 48.1973 39.5472L48.4335 38.7894Z"
        fill="#8C8C8C" />
</svg>