<svg width="150" height="32" viewBox="0 0 150 32" fill="none" xmlns="http://www.w3.org/2000/svg">
    <defs>
        <clipPath id="clip0_8151_17961">
            <rect width="149.574" height="32" fill="white" />
        </clipPath>
    </defs>
    <g clip-path="url(#clip0_8151_17961)">
        <path fill-rule="evenodd" clip-rule="evenodd"
            d="M117.07 31.5425L111.113 9.64275L102.284 29.9139C101.97 30.571 101.585 31.0853 101.127 31.4568C100.699 31.7996 100.156 31.9711 99.4988 31.9711C98.2132 31.9711 97.2846 31.2854 96.7132 29.9139L89.5707 14.3999L90.0704 31.5425H84.6276V2.22855C84.999 0.742849 85.899 0 87.3276 0C87.8989 0 88.4276 0.157142 88.9132 0.471424C89.4275 0.785706 89.8133 1.24284 90.0704 1.84284L99.6703 23.8712L109.27 1.84284C109.785 0.614279 110.656 0 111.884 0C113.198 0 114.07 0.742849 114.499 2.22855L122.47 31.5425H117.07ZM15.1284 31.6856C12.957 31.6856 10.9428 31.2856 9.08561 30.4856C7.25706 29.657 5.65707 28.5428 4.28567 27.1427C2.94282 25.7142 1.8857 24.0285 1.11427 22.0857C0.371424 20.1429 0 18.0428 0 15.7857C0 13.5001 0.371424 11.4144 1.11427 9.52866C1.8857 7.64296 2.94282 6.04298 4.28567 4.72871C5.65707 3.38587 7.25706 2.35731 9.08561 1.64303C10.9428 0.900185 12.957 0.52876 15.1284 0.52876H32.0139V5.97155H15.1284C13.7284 5.97155 12.4284 6.2287 11.2285 6.74298C10.057 7.22869 9.04276 7.91439 8.18562 8.80009C7.32848 9.6858 6.65706 10.7429 6.17135 11.9715C5.68565 13.2 5.4428 14.5572 5.4428 16.0428C5.4428 17.5 5.68565 18.8571 6.17135 20.1143C6.65706 21.3714 7.32848 22.4571 8.18562 23.3714C9.04276 24.257 10.057 24.957 11.2285 25.4714C12.4284 25.9857 13.7284 26.2428 15.1284 26.2428H28.4568V18.1429H14.3998V13.5572H33.9425V31.6856H15.1284ZM38.3865 31.6856V0.52876H43.8293V31.6856H38.3865ZM56.8407 30.4856C58.6978 31.2856 60.712 31.6856 62.8834 31.6856H81.6975V13.5572H62.1548V18.1429H76.2118V26.2428H62.8834C61.4835 26.2428 60.1834 25.9857 58.9834 25.4714C57.812 24.957 56.7978 24.257 55.9406 23.3714C55.0836 22.4571 54.4121 21.3714 53.9264 20.1143C53.4407 18.8571 53.1978 17.5 53.1978 16.0428C53.1978 14.5572 53.4407 13.2 53.9264 11.9715C54.4121 10.7429 55.0836 9.6858 55.9406 8.80009C56.7978 7.91439 57.812 7.22869 58.9834 6.74298C60.1834 6.2287 61.4835 5.97155 62.8834 5.97155H79.769V0.52876H62.8834C60.712 0.52876 58.6978 0.900185 56.8407 1.64303C55.0121 2.35731 53.4121 3.38587 52.0407 4.72871C50.6978 6.04298 49.6408 7.64296 48.8693 9.52866C48.1264 11.4144 47.755 13.5001 47.755 15.7857C47.755 18.0428 48.1264 20.1429 48.8693 22.0857C49.6408 24.0285 50.6978 25.7142 52.0407 27.1427C53.4121 28.5428 55.0121 29.657 56.8407 30.4856ZM139.524 28.4711C139.524 30.8883 137.891 31.814 136.387 31.814H136.374C134.549 31.814 133.25 30.5925 133.25 28.5611C133.25 26.4783 134.561 25.2312 136.465 25.2312C138.341 25.2312 139.524 26.5684 139.524 28.4711ZM135.513 28.5225C135.513 29.5126 135.782 30.2197 136.413 30.2197H136.425C136.991 30.2197 137.261 29.4997 137.261 28.5225C137.261 27.6611 137.03 26.8255 136.413 26.8255C135.732 26.8255 135.513 27.6869 135.513 28.5225ZM132.835 29.9111C132.578 30.0268 132.295 30.0654 131.948 30.0654C131.151 30.0654 130.521 29.5255 130.521 28.4968C130.508 27.5454 131.086 26.954 131.923 26.954C132.321 26.954 132.591 27.0183 132.797 27.0954L133.092 25.4369C132.733 25.3083 132.231 25.2441 131.795 25.2441C129.505 25.2441 128.271 26.7098 128.271 28.5868C128.271 30.6182 129.531 31.8011 131.512 31.8011C132.154 31.8011 132.745 31.6983 133.054 31.5697L132.835 29.9111ZM126.504 31.814C127.263 31.814 127.777 31.274 127.777 30.4897C127.765 29.6797 127.237 29.1526 126.517 29.1526C125.797 29.1526 125.244 29.7054 125.244 30.4897C125.244 31.274 125.784 31.814 126.492 31.814H126.504ZM140.307 31.6854H142.479V27.9698C142.479 27.8026 142.492 27.6354 142.543 27.5069C142.647 27.2755 142.84 27.0311 143.187 27.0311C143.688 27.0311 143.842 27.5197 143.842 28.1112V31.6854H146.015V27.9698C146.015 27.8283 146.027 27.6354 146.067 27.5326C146.169 27.2368 146.388 27.0311 146.722 27.0311C147.198 27.0311 147.378 27.494 147.378 28.2397V31.6854H149.55V27.9054C149.55 26.234 148.869 25.2312 147.545 25.2312C147.146 25.2312 146.799 25.3212 146.491 25.4755C146.182 25.6426 145.912 25.8869 145.681 26.1826H145.655C145.411 25.604 144.832 25.2312 144.047 25.2312C143.083 25.2312 142.531 25.7711 142.274 26.1312H142.235L142.132 25.3598H140.255C140.281 25.9641 140.307 26.684 140.307 27.4683V31.6854ZM119.709 5.25697H118.597V1.88201H117.6V0.924164H120.725V1.88201H119.709V5.25697ZM125.574 5.25697H124.52L124.462 3.75913C124.45 3.31556 124.437 2.74985 124.437 2.13915H124.417C124.309 2.67914 124.141 3.29628 124.026 3.70771L123.634 5.16697H122.785L122.444 3.71414C122.347 3.30271 122.219 2.69201 122.136 2.13915H122.122C122.104 2.54263 122.086 2.969 122.07 3.3413V3.35406L122.058 3.61005L122.052 3.75913L121.987 5.25697H120.985L121.274 0.924164H122.676L122.958 2.15201C123.074 2.65343 123.196 3.20628 123.279 3.72699H123.299C123.401 3.21271 123.537 2.62772 123.652 2.14558L123.961 0.924164H125.343L125.574 5.25697Z"
            fill="#8C8C8C" />
    </g>
</svg>