<svg width="202" height="40" viewBox="0 0 202 40" fill="none" xmlns="http://www.w3.org/2000/svg">
    <defs>
        <clipPath id="clip0_8151_17973">
            <rect width="200.674" height="40" fill="white" transform="translate(0.521973)" />
        </clipPath>
    </defs>
    <g clip-path="url(#clip0_8151_17973)">
        <path
            d="M16.5146 19.6329V15.8801H4.52207C4.00046 15.8882 3.48564 15.9997 3.00735 16.2079C2.52906 16.4162 2.0968 16.7173 1.73556 17.0936C0.948001 17.9513 0.514435 19.0753 0.522072 20.2397C0.608852 21.2702 1.08139 22.2299 1.8452 22.9271C2.60901 23.6242 3.60782 24.0074 4.64192 24H16.5146V35.9925C16.5146 38.2996 18.5745 40.1123 20.7618 39.9925C21.7909 39.9039 22.7488 39.4306 23.4444 38.667C24.14 37.9034 24.5222 36.9056 24.5146 35.8726V24H20.7618C19.6201 23.9822 18.5319 23.5126 17.7358 22.694C16.9397 21.8755 16.5006 20.7747 16.5146 19.6329Z"
            fill="#8C8C8C" />
        <path
            d="M40.3869 19.6329C40.2984 18.6038 39.8251 17.6459 39.0614 16.9503C38.2978 16.2547 37.3 15.8725 36.2671 15.8801H24.3869V4.00745C24.3869 1.70033 22.327 -0.112401 20.1472 0.00744912C19.1207 0.097692 18.1657 0.570711 17.4719 1.33256C16.778 2.09441 16.3961 3.08936 16.4019 4.11981V15.9925H20.1472C21.2675 16.0061 22.338 16.4571 23.1301 17.2493C23.9223 18.0415 24.3733 19.112 24.3869 20.2322V23.9925H36.3869C37.4731 23.9925 38.4469 23.5056 39.1735 22.779C39.5776 22.3637 39.8935 21.8708 40.1021 21.3301C40.3106 20.7894 40.4075 20.2121 40.3869 19.6329Z"
            fill="#8C8C8C" />
        <path
            d="M20.1477 16H16.4023V19.7603C16.4159 20.8805 16.867 21.951 17.6592 22.7431C18.4513 23.5353 19.5218 23.9863 20.642 24H24.3949V20.2397C24.4082 19.6792 24.3076 19.122 24.0993 18.6015C23.891 18.0811 23.5791 17.6084 23.1828 17.212C22.7864 16.8157 22.3137 16.5039 21.7933 16.2955C21.2728 16.0872 20.7156 15.9866 20.1552 16H20.1477Z"
            fill="#8C8C8C" />
        <path
            d="M52.6193 11.6405H56.9863C59.4058 11.6405 62.5594 11.8802 63.5257 14.5469C64.6193 17.6929 62.6792 20.4869 59.5332 20.9663L64.492 28.9663H61.9451L57.226 21.2135H54.5519V28.9663H52.6118V11.6405H52.6193ZM54.6792 19.2734H56.4995C58.3197 19.2734 61.1062 19.3933 61.5931 17.2135C62.1923 14.427 59.6455 13.5806 57.4732 13.5806H54.5594V19.2734H54.6792ZM77.3459 26.9064C75.4058 29.3334 71.653 30.0525 68.9863 28.3596C66.6867 26.7866 65.9601 23.6405 66.8066 21.0937C67.7804 18.427 70.4395 16.9738 73.226 17.3334C76.2598 17.8203 77.7129 20.3671 77.7129 23.2734V23.8727H68.4995C68.7466 27.7528 73.5931 28.6068 75.8927 25.8203L77.3459 26.9064ZM75.7729 22.1873C75.653 17.8203 69.1062 18.0675 68.6193 22.1873H75.7729ZM80.859 10.427H82.8066V28.8465H80.859V10.427ZM87.7654 11.6405C89.5856 11.6405 89.5856 14.427 87.7654 14.427C85.9451 14.427 85.9451 11.6405 87.7654 11.6405ZM86.7916 17.4532H88.7392V28.8465H86.7916V17.4607V17.4532ZM92.2523 19.0263C93.9526 17.3334 96.9789 16.7266 99.1586 17.7004C100.979 18.427 101.586 20.2472 101.586 22.1798V27.1461C101.586 27.7528 101.705 28.4794 101.705 29.0937H99.8852C99.7654 28.6068 99.7654 27.8802 99.7654 27.3933C97.8253 30.5394 91.286 29.9401 91.7654 25.5731C92.1324 22.1798 96.3721 22.06 98.9189 22.06H99.6455V21.6929C99.6455 18.427 95.1586 18.7866 93.4657 20.4869L92.2523 19.0337V19.0263ZM97.8253 23.3933C96.7392 23.3933 95.1586 23.5131 94.3122 24.3671C93.5856 25.0862 93.7129 26.5394 94.5594 27.1461C96.859 28.8465 99.6455 26.5469 99.7654 24.1199V23.3933H97.8253ZM105.091 20.2397C105.091 19.1536 104.971 18.2997 104.971 17.5731H106.792V19.5206C107.765 17.4532 110.425 16.9738 112.365 17.5731C114.185 18.2997 114.911 20.1199 114.911 21.9401V28.9663H113.211V22.06C113.211 20 111.878 18.5394 109.698 19.0337C107.638 19.5131 107.031 21.4532 107.031 23.3933V28.9663H105.091V20.2397ZM126.784 20.3596C126.224 19.687 125.451 19.225 124.594 19.0494C123.736 18.8738 122.845 18.995 122.065 19.3933C121.429 19.7603 120.903 20.2907 120.541 20.9294C120.178 21.5681 119.994 22.2921 120.005 23.0263C120.005 24.5993 120.604 26.1798 122.065 27.0263C122.84 27.4451 123.739 27.5771 124.602 27.399C125.465 27.2209 126.238 26.7441 126.784 26.0525L128.245 27.3933C126.544 29.3334 123.391 29.6929 121.211 28.6068C119.151 27.633 118.065 25.4532 118.065 23.2734C118.03 22.1618 118.306 21.0625 118.862 20.0991C119.418 19.1357 120.231 18.3465 121.211 17.8203C123.518 16.7266 126.544 17.0937 128.365 19.0337L126.792 20.3596H126.784ZM140.717 26.9064C138.777 29.3334 135.024 30.0525 132.357 28.3596C130.058 26.7866 129.323 23.6405 130.177 21.0937C131.151 18.427 133.81 16.9738 136.597 17.3334C139.631 17.8203 141.084 20.3671 141.084 23.2734V23.8727H131.87C132.117 27.7528 136.964 28.6068 139.263 25.8203L140.717 26.9064ZM139.024 22.1873C138.896 17.8203 132.357 18.0675 131.87 22.1873H139.024Z"
            fill="#8C8C8C" />
        <path
            d="M144.357 11.6404H146.417V18.9064H155.623V11.6404H157.683V28.9663H155.623V20.9738H146.409V28.9738H144.357V11.6404ZM162.042 11.6404H165.069L170.889 25.2135L176.829 11.6404H179.855V28.9663H177.795V14.427L171.615 28.9663H170.402L164.222 14.427V28.9663H162.17V11.6404H162.05H162.042ZM183.136 20.2397C183.136 16.4869 185.308 12.9738 188.949 11.6404C192.582 10.427 196.829 11.3933 199.248 14.3071C201.555 17.2135 201.795 21.573 199.975 24.8464C198.035 28.2397 194.035 29.6929 190.282 29.0861C186.042 28.4869 183.136 24.6067 183.136 20.2472V20.2397ZM199.009 20.2397C199.009 17.3333 197.436 14.5468 194.642 13.4607C193.28 12.9286 191.785 12.8414 190.371 13.2114C188.956 13.5815 187.695 14.3898 186.769 15.5206C182.889 20.4869 186.889 28.3595 193.436 27.2734C196.829 26.7865 199.009 23.633 199.009 20.2397Z"
            fill="#8C8C8C" />
    </g>
</svg>