<svg width="205" height="148" viewBox="0 0 205 148" fill="none" xmlns="http://www.w3.org/2000/svg">
    <path
        d="M105.564 103.824C105.467 104.254 105.737 104.683 106.168 104.78C106.599 104.878 107.027 104.607 107.125 104.176L105.564 103.824ZM60.5467 55.3408C60.1826 55.5912 60.0905 56.0893 60.3408 56.4533L64.4209 62.3857C64.6712 62.7498 65.1693 62.8419 65.5334 62.5916C65.8974 62.3412 65.9895 61.8431 65.7392 61.4791L62.1125 56.2058L67.3857 52.5791C67.7498 52.3288 67.8419 51.8307 67.5916 51.4666C67.3412 51.1026 66.8431 51.0105 66.4791 51.2608L60.5467 55.3408ZM107.125 104.176C108.602 97.647 108.029 87.4145 101.595 77.7968C95.149 68.1601 82.8836 59.2351 61.1455 55.2133L60.8545 56.7867C82.2718 60.7491 94.1119 69.4874 100.266 78.6864C106.432 87.9043 106.954 97.6798 105.564 103.824L107.125 104.176Z"
        fill="#1A1A1A" />
    <path
        d="M12.5279 135.312C12.5279 135.856 12.3759 136.32 12.0719 136.704C11.7839 137.088 11.2799 137.28 10.5599 137.28C10.0639 137.28 9.55988 137.192 9.04788 137.016C8.55188 136.84 8.06388 136.608 7.58388 136.32C7.10388 136.032 6.63988 135.696 6.19188 135.312C5.75988 134.928 5.36788 134.528 5.01588 134.112C4.98388 134.256 4.93588 134.464 4.87188 134.736C4.80788 135.008 4.72788 135.28 4.63188 135.552C4.53588 135.824 4.42388 136.064 4.29588 136.272C4.18388 136.464 4.06388 136.56 3.93588 136.56C3.72788 136.56 3.49588 136.456 3.23988 136.248C2.99988 136.04 2.75188 135.768 2.49588 135.432C2.25588 135.08 2.01588 134.68 1.77588 134.232C1.55188 133.784 1.35188 133.32 1.17588 132.84C0.711877 131.512 0.415877 130.472 0.287877 129.72C0.159877 128.952 0.0958765 128.536 0.0958765 128.472C0.0958765 128.376 0.111877 128.288 0.143877 128.208C0.175877 128.128 0.247877 128.088 0.359877 128.088C0.535877 128.088 0.663877 128.144 0.743877 128.256C0.839877 128.352 0.903877 128.48 0.935877 128.64C1.01588 128.976 1.11988 129.368 1.24788 129.816C1.39188 130.248 1.54388 130.696 1.70388 131.16C1.87988 131.624 2.05588 132.08 2.23188 132.528C2.42388 132.96 2.60788 133.352 2.78388 133.704C2.95988 134.056 3.12788 134.344 3.28788 134.568C3.44788 134.776 3.58388 134.88 3.69588 134.88C3.80788 134.88 3.88788 134.792 3.93588 134.616C3.99988 134.424 4.04788 134.208 4.07988 133.968C4.11188 133.728 4.12788 133.496 4.12788 133.272C4.14388 133.048 4.15188 132.896 4.15188 132.816C4.07188 132.672 4.00788 132.504 3.95988 132.312C3.92788 132.12 3.91188 131.96 3.91188 131.832C3.91188 131.624 3.95988 131.448 4.05588 131.304C4.16788 131.16 4.27188 131.088 4.36788 131.088C4.43188 131.088 4.47188 131.096 4.48788 131.112C4.51988 131.128 4.55988 131.144 4.60788 131.16C4.65588 131.16 4.69588 131.16 4.72788 131.16C4.75988 131.144 4.79988 131.136 4.84788 131.136C4.87988 131.136 4.91188 131.152 4.94388 131.184C4.99188 131.2 5.03988 131.264 5.08788 131.376C5.29588 131.92 5.59188 132.48 5.97588 133.056C6.35988 133.632 6.79188 134.152 7.27188 134.616C7.75188 135.08 8.27188 135.464 8.83188 135.768C9.39188 136.072 9.95988 136.224 10.5359 136.224C10.7439 136.224 10.9359 136.16 11.1119 136.032C11.2879 135.888 11.3759 135.704 11.3759 135.48C11.3759 134.808 11.3039 134.12 11.1599 133.416C11.0319 132.712 10.8479 131.992 10.6079 131.256C10.3839 130.52 10.1199 129.776 9.81588 129.024C9.51188 128.256 9.19988 127.472 8.87988 126.672C8.60788 126 8.34388 125.472 8.08788 125.088C7.84788 124.688 7.63188 124.376 7.43988 124.152C7.26388 123.912 7.11988 123.72 7.00788 123.576C6.89588 123.416 6.83988 123.224 6.83988 123C6.83988 122.728 6.93588 122.528 7.12788 122.4C7.33588 122.272 7.55188 122.208 7.77588 122.208C7.90388 122.208 8.04788 122.336 8.20788 122.592C8.36788 122.832 8.53588 123.152 8.71188 123.552C8.88788 123.936 9.06388 124.368 9.23988 124.848C9.41588 125.328 9.59188 125.808 9.76788 126.288C10.0239 126.992 10.3119 127.752 10.6319 128.568C10.9519 129.368 11.2479 130.176 11.5199 130.992C11.8079 131.792 12.0479 132.568 12.2399 133.32C12.4319 134.072 12.5279 134.736 12.5279 135.312ZM20.3101 135.48C20.3261 135.512 20.3341 135.56 20.3341 135.624C20.3341 135.72 20.2621 135.864 20.1181 136.056C20.0701 136.12 19.9661 136.224 19.8061 136.368C19.6461 136.512 19.4301 136.656 19.1581 136.8C18.8861 136.944 18.5501 137.072 18.1501 137.184C17.7661 137.296 17.3101 137.352 16.7821 137.352C16.4141 137.352 16.0541 137.272 15.7021 137.112C15.3501 136.936 15.0381 136.688 14.7661 136.368C14.4941 136.032 14.2701 135.624 14.0941 135.144C13.9181 134.648 13.8301 134.072 13.8301 133.416C13.8301 132.792 13.9101 132.208 14.0701 131.664C14.2301 131.12 14.4301 130.64 14.6701 130.224C14.9261 129.808 15.2061 129.48 15.5101 129.24C15.8141 129 16.1101 128.88 16.3981 128.88C16.6541 128.88 16.9101 128.936 17.1661 129.048C17.4381 129.144 17.6781 129.272 17.8861 129.432C18.1101 129.592 18.2861 129.776 18.4141 129.984C18.5421 130.176 18.6061 130.376 18.6061 130.584C18.6061 130.824 18.4941 131.072 18.2701 131.328C18.0621 131.584 17.8061 131.824 17.5021 132.048C17.1981 132.256 16.8941 132.432 16.5901 132.576C16.2861 132.704 16.0461 132.768 15.8701 132.768C15.7741 132.768 15.6861 132.728 15.6061 132.648C15.5421 132.552 15.5101 132.44 15.5101 132.312C15.5101 132.088 15.6061 131.912 15.7981 131.784C16.0061 131.656 16.2301 131.544 16.4701 131.448C16.7101 131.336 16.9261 131.208 17.1181 131.064C17.3261 130.92 17.4301 130.72 17.4301 130.464C17.4301 130.432 17.3901 130.352 17.3101 130.224C17.2301 130.096 17.0141 130.032 16.6621 130.032C16.5021 130.032 16.3181 130.128 16.1101 130.32C15.9021 130.496 15.7021 130.744 15.5101 131.064C15.3181 131.368 15.1581 131.736 15.0301 132.168C14.9021 132.584 14.8381 133.04 14.8381 133.536C14.8381 133.952 14.9101 134.328 15.0541 134.664C15.2141 135 15.4141 135.288 15.6541 135.528C15.8941 135.752 16.1741 135.928 16.4941 136.056C16.8141 136.184 17.1421 136.248 17.4781 136.248C17.7181 136.248 17.9741 136.2 18.2461 136.104C18.5341 135.992 18.7981 135.88 19.0381 135.768C19.2941 135.64 19.5101 135.528 19.6861 135.432C19.8781 135.32 19.9981 135.264 20.0461 135.264C20.0941 135.264 20.1421 135.288 20.1901 135.336C20.2541 135.384 20.2941 135.432 20.3101 135.48ZM37.5908 127.44C37.6548 127.456 37.6868 127.504 37.6868 127.584C37.6868 127.696 37.6308 127.816 37.5188 127.944C37.4068 128.056 37.3508 128.184 37.3508 128.328C37.3508 128.36 37.3428 128.48 37.3268 128.688C37.3268 128.896 37.3268 129.128 37.3268 129.384C37.3268 129.64 37.3188 129.88 37.3028 130.104C37.3028 130.328 37.3028 130.456 37.3028 130.488V132.864C37.3028 132.88 37.2948 132.992 37.2788 133.2C37.2628 133.408 37.2308 133.656 37.1828 133.944C37.1508 134.232 37.1108 134.536 37.0628 134.856C37.0308 135.16 36.9908 135.424 36.9428 135.648C36.9268 135.712 36.8788 135.76 36.7988 135.792C36.7348 135.824 36.6548 135.856 36.5588 135.888C36.4788 135.904 36.3988 135.92 36.3188 135.936C36.2388 135.936 36.1908 135.936 36.1748 135.936C35.9988 135.936 35.8068 135.832 35.5988 135.624C35.4068 135.416 35.2228 135.184 35.0468 134.928C34.8708 134.672 34.7188 134.432 34.5908 134.208C34.4628 133.984 34.3908 133.856 34.3748 133.824C34.3108 134.048 34.2388 134.28 34.1588 134.52C34.0788 134.744 33.9908 134.952 33.8948 135.144C33.7988 135.336 33.6868 135.496 33.5588 135.624C33.4468 135.752 33.3188 135.816 33.1748 135.816C32.9828 135.816 32.7828 135.72 32.5748 135.528C32.3668 135.336 32.1508 135.088 31.9268 134.784C31.7188 134.48 31.5188 134.144 31.3268 133.776C31.1348 133.392 30.9668 133.024 30.8228 132.672C30.6788 132.32 30.5588 131.992 30.4628 131.688C30.3828 131.384 30.3428 131.144 30.3428 130.968C30.3428 130.904 30.3748 130.824 30.4388 130.728C30.5028 130.632 30.5908 130.584 30.7028 130.584C30.9268 130.584 31.0868 130.656 31.1828 130.8C31.1988 130.816 31.2468 130.96 31.3268 131.232C31.4228 131.504 31.5508 131.824 31.7108 132.192C31.8708 132.56 32.0548 132.944 32.2628 133.344C32.4868 133.728 32.7348 134.056 33.0068 134.328C33.1188 134.12 33.2068 133.888 33.2708 133.632C33.3508 133.376 33.4148 133.128 33.4628 132.888C33.5108 132.648 33.5428 132.432 33.5588 132.24C33.5748 132.032 33.5828 131.864 33.5828 131.736C33.5508 131.608 33.5268 131.48 33.5108 131.352C33.4948 131.24 33.4788 131.128 33.4628 131.016C33.4628 130.904 33.4628 130.808 33.4628 130.728C33.4628 130.328 33.6228 130.128 33.9428 130.128C34.1828 130.128 34.3668 130.208 34.4948 130.368C34.6228 130.512 34.7188 130.688 34.7828 130.896C34.8468 131.088 34.8868 131.28 34.9028 131.472C34.9348 131.664 34.9668 131.8 34.9988 131.88C35.1268 132.248 35.2388 132.592 35.3348 132.912C35.4468 133.232 35.6308 133.56 35.8868 133.896C35.9508 133.848 35.9988 133.768 36.0308 133.656C36.0788 133.528 36.1108 133.4 36.1268 133.272C36.1428 133.144 36.1508 133.032 36.1508 132.936C36.1508 132.824 36.1508 132.744 36.1508 132.696V127.92C36.1508 127.824 36.1908 127.736 36.2708 127.656C36.3508 127.576 36.4468 127.504 36.5588 127.44C36.6708 127.376 36.7748 127.328 36.8708 127.296C36.9828 127.248 37.0628 127.224 37.1108 127.224C37.1908 127.224 37.2628 127.248 37.3268 127.296C37.4068 127.344 37.4948 127.392 37.5908 127.44ZM43.1201 132.816C43.1201 133.168 43.0721 133.504 42.9761 133.824C42.8801 134.144 42.7521 134.424 42.5921 134.664C42.4321 134.904 42.2401 135.096 42.0161 135.24C41.8081 135.368 41.5761 135.432 41.3201 135.432C40.8721 135.432 40.5201 135.304 40.2641 135.048C40.0081 134.792 39.8081 134.496 39.6641 134.16C39.5361 133.824 39.4481 133.488 39.4001 133.152C39.3681 132.8 39.3521 132.536 39.3521 132.36C39.3521 132.072 39.3921 131.752 39.4721 131.4C39.5681 131.032 39.6881 130.696 39.8321 130.392C39.9921 130.088 40.1681 129.832 40.3601 129.624C40.5521 129.416 40.7521 129.312 40.9601 129.312C41.0081 129.312 41.0801 129.328 41.1761 129.36C41.2881 129.392 41.4001 129.44 41.5121 129.504C41.6241 129.568 41.7201 129.648 41.8001 129.744C41.8961 129.84 41.9601 129.952 41.9921 130.08C42.1681 130.096 42.3441 130.16 42.5201 130.272C42.6961 130.384 42.7921 130.472 42.8081 130.536C42.9361 130.952 43.0161 131.368 43.0481 131.784C43.0961 132.2 43.1201 132.544 43.1201 132.816ZM42.0401 132.384C42.0401 132.144 42.0161 131.896 41.9681 131.64C41.9201 131.368 41.8241 131.096 41.6801 130.824C41.6481 130.84 41.6081 130.848 41.5601 130.848C41.4961 130.848 41.4401 130.84 41.3921 130.824C41.3601 130.808 41.3281 130.8 41.2961 130.8C41.1041 130.8 40.9521 130.856 40.8401 130.968C40.7281 131.064 40.6401 131.2 40.5761 131.376C40.5281 131.536 40.4961 131.712 40.4801 131.904C40.4641 132.096 40.4561 132.28 40.4561 132.456C40.4561 132.632 40.4641 132.832 40.4801 133.056C40.4961 133.264 40.5281 133.464 40.5761 133.656C40.6401 133.848 40.7201 134.016 40.8161 134.16C40.9121 134.288 41.0401 134.352 41.2001 134.352C41.3601 134.352 41.4961 134.272 41.6081 134.112C41.7201 133.936 41.8081 133.736 41.8721 133.512C41.9361 133.288 41.9761 133.072 41.9921 132.864C42.0241 132.64 42.0401 132.48 42.0401 132.384ZM51.9506 135.048C51.9506 135.144 51.9186 135.24 51.8546 135.336C51.7906 135.432 51.7106 135.52 51.6146 135.6C51.5346 135.68 51.4386 135.752 51.3266 135.816C51.2306 135.864 51.1426 135.888 51.0626 135.888C50.7906 135.888 50.4386 135.832 50.0066 135.72C49.5906 135.592 49.2546 135.4 48.9986 135.144C48.7266 134.872 48.4866 134.552 48.2786 134.184C48.0706 133.8 47.8386 133.24 47.5826 132.504C47.4066 133.208 47.1986 133.904 46.9586 134.592C46.7346 135.28 46.3666 135.912 45.8546 136.488C45.8226 136.52 45.7746 136.536 45.7106 136.536C45.5986 136.536 45.4786 136.48 45.3506 136.368C45.2226 136.256 45.1586 136.144 45.1586 136.032C45.1586 135.92 45.1426 135.664 45.1106 135.264C45.0946 134.848 45.0706 134.392 45.0386 133.896C45.0066 133.384 44.9746 132.872 44.9426 132.36C44.9266 131.832 44.9186 131.4 44.9186 131.064C44.9186 130.904 44.9266 130.696 44.9426 130.44C44.9586 130.168 45.0066 129.936 45.0866 129.744C45.1026 129.712 45.1586 129.648 45.2546 129.552C45.3666 129.456 45.4866 129.408 45.6146 129.408C45.7266 129.408 45.7906 129.48 45.8066 129.624C45.8226 129.768 45.8306 129.928 45.8306 130.104V133.896C45.8306 133.976 45.8386 134.088 45.8546 134.232C45.8866 134.376 45.9266 134.48 45.9746 134.544C46.1506 134.16 46.3106 133.712 46.4546 133.2C46.6146 132.672 46.7666 132.176 46.9106 131.712C47.0546 131.232 47.1986 130.832 47.3426 130.512C47.4866 130.176 47.6306 130.008 47.7746 130.008C47.9346 130.008 48.0626 130.04 48.1586 130.104C48.2546 130.168 48.3346 130.296 48.3986 130.488C48.4786 130.952 48.5426 131.368 48.5906 131.736C48.6386 132.088 48.6946 132.408 48.7586 132.696C48.8386 132.984 48.9426 133.256 49.0706 133.512C49.2146 133.752 49.4066 133.976 49.6466 134.184C49.8706 134.392 50.1186 134.544 50.3906 134.64C50.6786 134.736 50.9266 134.784 51.1346 134.784C51.2306 134.784 51.3346 134.768 51.4466 134.736C51.5586 134.688 51.6386 134.664 51.6866 134.664C51.7506 134.664 51.8066 134.72 51.8546 134.832C51.9186 134.944 51.9506 135.016 51.9506 135.048ZM54.2361 130.8C54.2361 131.088 54.1721 131.352 54.0441 131.592C53.9321 131.832 53.7961 132.04 53.6361 132.216C53.4761 132.376 53.3241 132.504 53.1801 132.6C53.0361 132.696 52.9321 132.744 52.8681 132.744C52.8201 132.744 52.7561 132.712 52.6761 132.648C52.6121 132.568 52.5801 132.48 52.5801 132.384C52.5801 132.368 52.6121 132.312 52.6761 132.216C52.7401 132.12 52.8121 132.008 52.8921 131.88C52.9881 131.736 53.0681 131.576 53.1321 131.4C53.1961 131.208 53.2281 131.008 53.2281 130.8C53.2281 130.384 53.1881 130.016 53.1081 129.696C53.0281 129.36 52.9241 129.032 52.7961 128.712C52.7801 128.664 52.7561 128.608 52.7241 128.544C52.7081 128.48 52.7001 128.432 52.7001 128.4C52.7001 128.288 52.7321 128.216 52.7961 128.184C52.8761 128.152 52.9561 128.136 53.0361 128.136C53.1481 128.136 53.2761 128.24 53.4201 128.448C53.5641 128.64 53.6921 128.872 53.8041 129.144C53.9321 129.416 54.0361 129.712 54.1161 130.032C54.1961 130.336 54.2361 130.592 54.2361 130.8ZM61.6278 127.152C61.4198 127.392 61.1238 127.632 60.7398 127.872C60.3558 128.096 59.9718 128.304 59.5878 128.496C59.2038 128.688 58.8678 128.856 58.5798 129C58.2918 129.128 58.1478 129.216 58.1478 129.264C58.1478 129.312 58.1798 129.456 58.2438 129.696C58.3078 129.936 58.3798 130.224 58.4598 130.56C58.5558 130.88 58.6518 131.216 58.7478 131.568C58.8438 131.92 58.9238 132.232 58.9878 132.504C59.0198 132.664 59.0598 132.872 59.1078 133.128C59.1558 133.384 59.1958 133.64 59.2278 133.896C59.2758 134.152 59.3158 134.384 59.3478 134.592C59.3798 134.784 59.3958 134.888 59.3958 134.904C59.3958 135.144 59.3558 135.392 59.2758 135.648C59.1958 135.904 59.0678 136.032 58.8918 136.032C58.7958 136.032 58.7078 135.992 58.6278 135.912C58.5478 135.832 58.4758 135.744 58.4118 135.648C58.3478 135.536 58.2998 135.432 58.2678 135.336C58.2358 135.24 58.2198 135.168 58.2198 135.12C58.2198 135.088 58.2198 135.04 58.2198 134.976C58.2358 134.912 58.2438 134.84 58.2438 134.76C58.2438 134.456 58.1958 134.016 58.0998 133.44C58.0678 133.264 58.0038 132.992 57.9078 132.624C57.8118 132.256 57.7158 131.88 57.6198 131.496C57.5078 131.048 57.3798 130.56 57.2358 130.032C57.1718 129.808 57.1318 129.696 57.1158 129.696C57.0038 129.696 56.8118 129.768 56.5398 129.912C56.2838 130.04 55.9878 130.208 55.6518 130.416C55.3158 130.608 54.9638 130.824 54.5958 131.064C54.2278 131.288 53.8838 131.504 53.5638 131.712C53.2438 131.904 52.9718 132.072 52.7478 132.216C52.5078 132.344 52.3638 132.408 52.3158 132.408C52.1078 132.408 51.9398 132.336 51.8118 132.192C51.6838 132.048 51.6198 131.888 51.6198 131.712C51.6198 131.616 51.7558 131.48 52.0278 131.304C52.2838 131.112 52.6118 130.904 53.0118 130.68C53.3958 130.456 53.8198 130.224 54.2838 129.984C54.7318 129.744 55.1478 129.528 55.5318 129.336C55.9318 129.144 56.2598 128.984 56.5158 128.856C56.7878 128.728 56.9238 128.664 56.9238 128.664C56.7798 127.928 56.6598 127.272 56.5638 126.696C56.4838 126.2 56.4038 125.744 56.3238 125.328C56.2598 124.912 56.2278 124.688 56.2278 124.656C56.2278 124.448 56.2678 124.296 56.3478 124.2C56.4438 124.088 56.5478 124.032 56.6598 124.032C56.8358 124.032 56.9478 124.152 56.9958 124.392C57.1718 125.256 57.3318 126.024 57.4758 126.696C57.6358 127.368 57.7878 127.912 57.9318 128.328C58.0758 128.296 58.3238 128.208 58.6758 128.064C59.0278 127.904 59.3958 127.736 59.7798 127.56C60.1638 127.384 60.5078 127.232 60.8118 127.104C61.1318 126.96 61.3158 126.888 61.3638 126.888C61.4598 126.888 61.5158 126.92 61.5318 126.984C61.5638 127.048 61.5958 127.104 61.6278 127.152ZM76.6694 134.832C76.6694 135.104 76.5734 135.344 76.3814 135.552C76.2054 135.744 75.9734 135.912 75.6854 136.056C75.4134 136.184 75.1094 136.288 74.7734 136.368C74.4374 136.448 74.1174 136.512 73.8134 136.56C73.5094 136.592 73.2374 136.616 72.9974 136.632C72.7734 136.632 72.6294 136.632 72.5654 136.632C72.2134 136.632 71.9414 136.576 71.7494 136.464C71.5574 136.352 71.4614 136.152 71.4614 135.864C71.4614 135.768 71.4694 135.688 71.4854 135.624C71.5014 135.544 71.5654 135.504 71.6774 135.504C71.7254 135.504 71.8054 135.52 71.9174 135.552C72.0294 135.568 72.1174 135.576 72.1814 135.576C72.2454 135.576 72.4454 135.568 72.7814 135.552C73.1334 135.52 73.5014 135.472 73.8854 135.408C74.2854 135.344 74.6374 135.256 74.9414 135.144C75.2614 135.016 75.4214 134.856 75.4214 134.664C75.4214 134.632 75.2534 134.536 74.9174 134.376C74.5974 134.2 74.1094 133.912 73.4534 133.512C72.9414 133.192 72.5814 132.872 72.3734 132.552C72.1654 132.216 72.0614 131.768 72.0614 131.208C72.0614 130.856 72.1334 130.568 72.2774 130.344C72.4374 130.12 72.6454 129.944 72.9014 129.816C73.1734 129.688 73.4774 129.6 73.8134 129.552C74.1654 129.488 74.5334 129.456 74.9174 129.456C74.9494 129.456 75.0454 129.472 75.2054 129.504C75.3814 129.536 75.5654 129.592 75.7574 129.672C75.9494 129.736 76.1174 129.824 76.2614 129.936C76.4214 130.032 76.5014 130.144 76.5014 130.272C76.5014 130.304 76.4694 130.352 76.4054 130.416C76.3574 130.48 76.2694 130.6 76.1414 130.776C76.0934 130.76 76.0054 130.736 75.8774 130.704C75.7654 130.672 75.6294 130.64 75.4694 130.608C75.3254 130.56 75.1734 130.528 75.0134 130.512C74.8534 130.48 74.7254 130.464 74.6294 130.464C74.2134 130.464 73.8774 130.544 73.6214 130.704C73.3654 130.848 73.2374 131.136 73.2374 131.568C73.2374 131.776 73.3174 131.968 73.4774 132.144C73.6534 132.32 73.8694 132.488 74.1254 132.648C74.3814 132.792 74.6534 132.944 74.9414 133.104C75.2454 133.248 75.5254 133.408 75.7814 133.584C76.0374 133.76 76.2454 133.952 76.4054 134.16C76.5814 134.352 76.6694 134.576 76.6694 134.832ZM85.6265 131.064C85.6265 131.48 85.5065 131.88 85.2665 132.264C85.0425 132.648 84.7625 133.008 84.4265 133.344C84.0905 133.664 83.7225 133.968 83.3225 134.256C82.9225 134.528 82.5545 134.768 82.2185 134.976C81.8985 135.2 81.6345 135.384 81.4265 135.528C81.2185 135.672 81.1145 135.784 81.1145 135.864C81.1145 136.072 81.1385 136.368 81.1865 136.752C81.2345 137.12 81.2905 137.528 81.3545 137.976C81.4345 138.408 81.5065 138.856 81.5705 139.32C81.6505 139.784 81.7065 140.208 81.7385 140.592C81.7385 140.608 81.7465 140.68 81.7625 140.808C81.7945 140.936 81.8265 141.08 81.8585 141.24C81.9065 141.4 81.9385 141.544 81.9545 141.672C81.9865 141.816 82.0025 141.904 82.0025 141.936C82.0025 142.048 81.9945 142.168 81.9785 142.296C81.9785 142.44 81.9545 142.568 81.9065 142.68C81.8745 142.808 81.8185 142.912 81.7385 142.992C81.6585 143.072 81.5545 143.112 81.4265 143.112C81.2505 143.112 81.1225 143.032 81.0425 142.872C80.9625 142.728 80.9225 142.584 80.9225 142.44C80.9225 142.408 80.9225 142.376 80.9225 142.344C80.9385 142.312 80.9465 142.272 80.9465 142.224C80.9465 142.048 80.8825 141.576 80.7545 140.808C80.6265 140.04 80.4825 139.12 80.3225 138.048C80.1625 136.992 80.0185 135.856 79.8905 134.64C79.7625 133.408 79.6985 132.248 79.6985 131.16C79.6985 131.08 79.7065 130.992 79.7225 130.896C79.7385 130.784 79.7465 130.688 79.7465 130.608C79.5865 130.624 79.3465 130.696 79.0265 130.824C78.7225 130.952 78.4185 131.112 78.1145 131.304C77.8105 131.48 77.5385 131.672 77.2985 131.88C77.0745 132.072 76.9625 132.248 76.9625 132.408H76.7945C76.7465 132.408 76.6905 132.376 76.6265 132.312C76.5465 132.248 76.4825 132.176 76.4345 132.096C76.3705 132.016 76.3145 131.936 76.2665 131.856C76.2185 131.776 76.1945 131.72 76.1945 131.688C76.1945 131.352 76.3945 131.04 76.7945 130.752C77.1945 130.448 77.6905 130.184 78.2825 129.96C78.8905 129.72 79.5545 129.536 80.2745 129.408C80.9945 129.264 81.6745 129.192 82.3145 129.192C82.9385 129.192 83.4585 129.264 83.8745 129.408C84.3065 129.552 84.6505 129.728 84.9065 129.936C85.1625 130.128 85.3465 130.328 85.4585 130.536C85.5705 130.744 85.6265 130.92 85.6265 131.064ZM84.4505 130.992C84.4505 130.832 84.2505 130.672 83.8505 130.512C83.4505 130.336 82.9785 130.248 82.4345 130.248C81.9545 130.248 81.6025 130.264 81.3785 130.296C81.1545 130.328 81.0025 130.36 80.9225 130.392C80.8905 130.648 80.8665 130.952 80.8505 131.304C80.8345 131.656 80.8265 132.016 80.8265 132.384C80.8265 132.768 80.8345 133.144 80.8505 133.512C80.8825 133.864 80.9145 134.16 80.9465 134.4C81.1705 134.256 81.4745 134.064 81.8585 133.824C82.2585 133.568 82.6505 133.288 83.0345 132.984C83.4185 132.664 83.7465 132.336 84.0185 132C84.3065 131.648 84.4505 131.312 84.4505 130.992ZM97.5694 133.008C97.5694 133.296 97.4334 133.656 97.1614 134.088C96.9054 134.504 96.5534 134.912 96.1054 135.312C95.6574 135.712 95.1374 136.056 94.5454 136.344C93.9534 136.616 93.3374 136.752 92.6974 136.752C92.4094 136.752 92.1054 136.704 91.7854 136.608C91.4654 136.512 91.1534 136.376 90.8494 136.2C90.5454 136.008 90.2734 135.784 90.0334 135.528C89.7934 135.256 89.6174 134.952 89.5054 134.616C89.4094 134.712 89.2894 134.872 89.1454 135.096C89.0174 135.32 88.8734 135.552 88.7134 135.792C88.5534 136.016 88.3774 136.216 88.1854 136.392C87.9934 136.552 87.7934 136.632 87.5854 136.632C87.3774 136.632 87.2014 136.528 87.0574 136.32C86.9294 136.096 86.8254 135.856 86.7454 135.6C86.6654 135.328 86.6094 135.072 86.5774 134.832C86.5454 134.592 86.5294 134.456 86.5294 134.424C86.5294 134.232 86.5854 133.872 86.6974 133.344C86.8094 132.8 86.9774 132.24 87.2014 131.664C87.4254 131.088 87.7054 130.576 88.0414 130.128C88.3934 129.68 88.8014 129.456 89.2654 129.456C89.4414 129.456 89.5534 129.536 89.6014 129.696C89.6654 129.84 89.6974 129.984 89.6974 130.128V130.848C89.7774 130.912 89.8574 130.96 89.9374 130.992C90.0334 131.008 90.1134 131.04 90.1774 131.088C90.2574 131.12 90.3134 131.176 90.3454 131.256C90.3934 131.336 90.4174 131.464 90.4174 131.64C90.4174 131.752 90.4094 131.856 90.3934 131.952C90.3774 132.032 90.3694 132.112 90.3694 132.192C90.3694 132.608 90.4014 133.016 90.4654 133.416C90.5294 133.816 90.6574 134.176 90.8494 134.496C91.0414 134.8 91.3054 135.056 91.6414 135.264C91.9774 135.456 92.4254 135.552 92.9854 135.552C93.6894 135.552 94.2814 135.408 94.7614 135.12C95.2574 134.816 95.6654 134.488 95.9854 134.136C96.3214 133.768 96.5854 133.44 96.7774 133.152C96.9694 132.848 97.1294 132.696 97.2574 132.696C97.4654 132.696 97.5694 132.8 97.5694 133.008ZM89.1454 131.952C89.1454 131.888 89.1294 131.832 89.0974 131.784C89.0654 131.72 89.0494 131.664 89.0494 131.616C89.0494 131.552 89.0654 131.496 89.0974 131.448C89.1294 131.4 89.1454 131.336 89.1454 131.256C89.1454 131.208 89.1294 131.176 89.0974 131.16C89.0654 131.128 89.0494 131.096 89.0494 131.064C88.9054 131.096 88.7534 131.232 88.5934 131.472C88.4494 131.712 88.3054 131.992 88.1614 132.312C88.0334 132.632 87.9294 132.96 87.8494 133.296C87.7694 133.616 87.7294 133.88 87.7294 134.088C87.7294 134.2 87.7614 134.384 87.8254 134.64C87.8894 134.896 87.9614 135.064 88.0414 135.144C88.3134 134.584 88.5614 134.04 88.7854 133.512C89.0254 132.984 89.1454 132.464 89.1454 131.952ZM107.721 135.744C107.721 135.872 107.681 135.984 107.601 136.08C107.521 136.176 107.425 136.256 107.313 136.32C107.201 136.368 107.081 136.408 106.953 136.44C106.841 136.472 106.745 136.488 106.665 136.488C106.329 136.488 106.041 136.312 105.801 135.96C105.561 135.592 105.361 135.192 105.201 134.76C105.041 134.312 104.921 133.896 104.841 133.512C104.777 133.128 104.745 132.92 104.745 132.888C104.649 133.064 104.545 133.36 104.433 133.776C104.337 134.192 104.217 134.616 104.073 135.048C103.929 135.464 103.745 135.84 103.521 136.176C103.313 136.496 103.041 136.656 102.705 136.656C102.545 136.656 102.393 136.56 102.249 136.368C102.105 136.176 101.969 135.928 101.841 135.624C101.713 135.32 101.585 134.976 101.457 134.592C101.345 134.208 101.225 133.832 101.097 133.464C100.985 133.096 100.873 132.752 100.761 132.432C100.649 132.096 100.537 131.832 100.425 131.64C100.329 131.88 100.241 132.208 100.161 132.624C100.097 133.04 100.041 133.48 99.9927 133.944C99.9447 134.392 99.9047 134.84 99.8727 135.288C99.8407 135.736 99.8247 136.128 99.8247 136.464C99.8247 136.688 99.7607 136.848 99.6327 136.944C99.5207 137.04 99.4007 137.088 99.2727 137.088C99.0967 137.088 98.9207 136.976 98.7447 136.752C98.5687 136.512 98.3927 136.208 98.2167 135.84C98.0407 135.472 97.8727 135.056 97.7127 134.592C97.5687 134.128 97.4327 133.664 97.3047 133.2C97.1927 132.736 97.1047 132.296 97.0407 131.88C96.9767 131.448 96.9447 131.088 96.9447 130.8C96.9447 130.592 96.9527 130.4 96.9687 130.224C96.9847 130.08 96.9927 129.944 96.9927 129.816C97.0087 129.688 97.0167 129.616 97.0167 129.6C97.0167 129.552 97.0007 129.52 96.9687 129.504C96.9527 129.488 96.9447 129.448 96.9447 129.384C96.9447 129.336 97.0007 129.264 97.1127 129.168C97.2407 129.056 97.3687 129 97.4967 129C97.7207 129 97.8647 129.048 97.9287 129.144C98.0087 129.24 98.0487 129.352 98.0487 129.48C98.0487 129.528 98.0407 129.6 98.0247 129.696C98.0247 129.792 98.0247 130.008 98.0247 130.344C98.0247 130.568 98.0647 130.904 98.1447 131.352C98.2247 131.8 98.3207 132.256 98.4327 132.72C98.5447 133.184 98.6567 133.616 98.7687 134.016C98.8967 134.4 99.0007 134.64 99.0807 134.736C99.1127 134.672 99.1287 134.6 99.1287 134.52C99.1447 134.424 99.1607 134.352 99.1767 134.304L99.4407 132.336C99.5047 131.84 99.6327 131.32 99.8247 130.776C100.033 130.216 100.249 129.784 100.473 129.48C100.553 129.352 100.641 129.288 100.737 129.288C100.833 129.288 100.921 129.36 101.001 129.504C101.273 129.952 101.473 130.4 101.601 130.848C101.745 131.28 101.865 131.712 101.961 132.144C102.073 132.56 102.193 132.984 102.321 133.416C102.465 133.832 102.681 134.256 102.969 134.688C103.097 134.48 103.257 134.144 103.449 133.68C103.641 133.2 103.833 132.72 104.025 132.24C104.233 131.76 104.425 131.344 104.601 130.992C104.777 130.624 104.913 130.44 105.009 130.44C105.057 130.44 105.137 130.448 105.249 130.464C105.361 130.48 105.441 130.488 105.489 130.488C105.633 130.488 105.753 130.656 105.849 130.992C105.945 131.312 106.025 131.696 106.089 132.144C106.169 132.576 106.241 133.016 106.305 133.464C106.385 133.896 106.473 134.224 106.569 134.448C106.633 134.608 106.729 134.76 106.857 134.904C106.985 135.048 107.113 135.184 107.241 135.312C107.401 135.456 107.561 135.6 107.721 135.744ZM123.004 126.768C122.796 127.872 122.604 128.936 122.428 129.96C122.348 130.392 122.268 130.848 122.188 131.328C122.108 131.792 122.028 132.256 121.948 132.72C121.884 133.168 121.82 133.6 121.756 134.016C121.708 134.416 121.668 134.784 121.636 135.12C121.572 135.632 121.524 136.216 121.492 136.872C121.46 137.528 121.428 138.152 121.396 138.744C121.364 139.432 121.348 140.128 121.348 140.832C121.348 140.976 121.332 141.136 121.3 141.312C121.268 141.488 121.252 141.664 121.252 141.84C121.252 142 121.212 142.136 121.132 142.248C121.068 142.36 120.964 142.416 120.82 142.416C120.692 142.416 120.588 142.312 120.508 142.104C120.444 141.912 120.388 141.68 120.34 141.408C120.292 141.152 120.26 140.888 120.244 140.616C120.228 140.36 120.22 140.176 120.22 140.064C120.22 139.936 120.22 139.776 120.22 139.584C120.22 139.408 120.228 139.136 120.244 138.768C120.276 138.416 120.316 137.952 120.364 137.376C120.412 136.784 120.484 136.016 120.58 135.072C120.58 135.056 120.468 134.976 120.244 134.832C120.036 134.688 119.772 134.512 119.452 134.304C119.148 134.08 118.828 133.84 118.492 133.584C118.172 133.328 117.9 133.08 117.676 132.84C117.644 132.808 117.596 132.736 117.532 132.624C117.468 132.512 117.436 132.376 117.436 132.216C117.436 132.136 117.476 132.056 117.556 131.976C117.636 131.88 117.724 131.832 117.82 131.832C117.884 131.832 117.948 131.864 118.012 131.928C118.38 132.248 118.804 132.608 119.284 133.008C119.764 133.392 120.236 133.744 120.7 134.064C120.732 133.776 120.796 133.336 120.892 132.744C121.004 132.152 121.116 131.52 121.228 130.848C121.34 130.16 121.444 129.496 121.54 128.856C121.652 128.216 121.732 127.704 121.78 127.32C121.78 127.256 121.796 127.152 121.828 127.008C121.86 126.864 121.908 126.72 121.972 126.576C122.036 126.432 122.108 126.312 122.188 126.216C122.268 126.104 122.356 126.048 122.452 126.048C122.5 126.048 122.604 126.096 122.764 126.192C122.924 126.272 123.004 126.464 123.004 126.768ZM128.258 132.816C128.258 133.168 128.21 133.504 128.114 133.824C128.018 134.144 127.89 134.424 127.73 134.664C127.57 134.904 127.378 135.096 127.154 135.24C126.946 135.368 126.714 135.432 126.458 135.432C126.01 135.432 125.658 135.304 125.402 135.048C125.146 134.792 124.946 134.496 124.802 134.16C124.674 133.824 124.586 133.488 124.538 133.152C124.506 132.8 124.49 132.536 124.49 132.36C124.49 132.072 124.53 131.752 124.61 131.4C124.706 131.032 124.826 130.696 124.97 130.392C125.13 130.088 125.306 129.832 125.498 129.624C125.69 129.416 125.89 129.312 126.098 129.312C126.146 129.312 126.218 129.328 126.314 129.36C126.426 129.392 126.538 129.44 126.65 129.504C126.762 129.568 126.858 129.648 126.938 129.744C127.034 129.84 127.098 129.952 127.13 130.08C127.306 130.096 127.482 130.16 127.658 130.272C127.834 130.384 127.93 130.472 127.946 130.536C128.074 130.952 128.154 131.368 128.186 131.784C128.234 132.2 128.258 132.544 128.258 132.816ZM127.178 132.384C127.178 132.144 127.154 131.896 127.106 131.64C127.058 131.368 126.962 131.096 126.818 130.824C126.786 130.84 126.746 130.848 126.698 130.848C126.634 130.848 126.578 130.84 126.53 130.824C126.498 130.808 126.466 130.8 126.434 130.8C126.242 130.8 126.09 130.856 125.978 130.968C125.866 131.064 125.778 131.2 125.714 131.376C125.666 131.536 125.634 131.712 125.618 131.904C125.602 132.096 125.594 132.28 125.594 132.456C125.594 132.632 125.602 132.832 125.618 133.056C125.634 133.264 125.666 133.464 125.714 133.656C125.778 133.848 125.858 134.016 125.954 134.16C126.05 134.288 126.178 134.352 126.338 134.352C126.498 134.352 126.634 134.272 126.746 134.112C126.858 133.936 126.946 133.736 127.01 133.512C127.074 133.288 127.114 133.072 127.13 132.864C127.162 132.64 127.178 132.48 127.178 132.384ZM137.784 134.016C137.784 134.16 137.688 134.312 137.496 134.472C137.304 134.632 137.08 134.784 136.824 134.928C136.568 135.056 136.304 135.168 136.032 135.264C135.776 135.36 135.584 135.408 135.456 135.408C135.312 135.408 135.152 135.368 134.976 135.288C134.816 135.208 134.656 135.112 134.496 135C134.352 134.888 134.224 134.784 134.112 134.688C134 134.592 133.928 134.528 133.896 134.496C133.848 134.544 133.776 134.64 133.68 134.784C133.584 134.928 133.464 135.088 133.32 135.264C133.192 135.424 133.048 135.568 132.888 135.696C132.744 135.824 132.592 135.888 132.432 135.888C132.016 135.888 131.656 135.664 131.352 135.216C131.048 134.768 130.792 134.256 130.584 133.68C130.392 133.104 130.24 132.552 130.128 132.024C130.032 131.48 129.984 131.112 129.984 130.92C129.984 130.808 130.04 130.72 130.152 130.656C130.28 130.576 130.376 130.536 130.44 130.536C130.664 130.536 130.816 130.616 130.896 130.776C130.976 130.92 131.016 131.08 131.016 131.256C131.016 131.4 131.056 131.656 131.136 132.024C131.232 132.392 131.344 132.768 131.472 133.152C131.6 133.536 131.736 133.88 131.88 134.184C132.024 134.472 132.152 134.616 132.264 134.616C132.472 134.616 132.648 134.488 132.792 134.232C132.952 133.96 133.08 133.656 133.176 133.32C133.272 132.968 133.344 132.64 133.392 132.336C133.44 132.016 133.464 131.808 133.464 131.712C133.464 131.696 133.464 131.648 133.464 131.568C133.48 131.472 133.496 131.376 133.512 131.28C133.528 131.184 133.536 131.096 133.536 131.016C133.552 130.936 133.56 130.88 133.56 130.848C133.56 130.736 133.536 130.664 133.488 130.632C133.44 130.584 133.416 130.496 133.416 130.368C133.416 130.272 133.464 130.184 133.56 130.104C133.656 130.008 133.864 129.96 134.184 129.96C134.312 129.96 134.408 130 134.472 130.08C134.552 130.144 134.608 130.224 134.64 130.32C134.672 130.416 134.688 130.512 134.688 130.608C134.704 130.688 134.712 130.744 134.712 130.776C134.712 130.792 134.704 130.904 134.688 131.112C134.672 131.32 134.656 131.552 134.64 131.808C134.64 132.048 134.632 132.28 134.616 132.504C134.6 132.728 134.592 132.864 134.592 132.912C134.592 132.96 134.616 133.056 134.664 133.2C134.712 133.344 134.768 133.496 134.832 133.656C134.912 133.8 135 133.936 135.096 134.064C135.192 134.176 135.296 134.232 135.408 134.232C135.6 134.232 135.776 134.208 135.936 134.16C136.112 134.096 136.272 134.032 136.416 133.968C136.576 133.888 136.72 133.824 136.848 133.776C136.976 133.712 137.096 133.68 137.208 133.68C137.352 133.68 137.48 133.712 137.592 133.776C137.72 133.84 137.784 133.92 137.784 134.016ZM140.155 137.232C140.155 137.408 140.083 137.664 139.939 138C139.811 138.336 139.643 138.672 139.435 139.008C139.227 139.344 138.987 139.632 138.715 139.872C138.459 140.128 138.211 140.256 137.971 140.256C137.843 140.256 137.731 140.2 137.635 140.088C137.555 139.992 137.515 139.92 137.515 139.872C137.515 139.856 137.587 139.752 137.731 139.56C137.891 139.384 138.067 139.168 138.259 138.912C138.451 138.656 138.619 138.376 138.763 138.072C138.923 137.768 139.003 137.472 139.003 137.184C139.003 136.88 138.963 136.656 138.883 136.512C138.819 136.352 138.747 136.224 138.667 136.128C138.587 136.016 138.507 135.92 138.427 135.84C138.363 135.744 138.331 135.608 138.331 135.432C138.331 135.192 138.459 135.072 138.715 135.072C138.971 135.072 139.187 135.16 139.363 135.336C139.539 135.496 139.683 135.696 139.795 135.936C139.923 136.16 140.011 136.392 140.059 136.632C140.123 136.872 140.155 137.072 140.155 137.232ZM158.255 131.064C158.255 131.48 158.135 131.88 157.895 132.264C157.671 132.648 157.391 133.008 157.055 133.344C156.719 133.664 156.351 133.968 155.951 134.256C155.551 134.528 155.183 134.768 154.847 134.976C154.527 135.2 154.263 135.384 154.055 135.528C153.847 135.672 153.743 135.784 153.743 135.864C153.743 136.072 153.767 136.368 153.815 136.752C153.863 137.12 153.919 137.528 153.983 137.976C154.063 138.408 154.135 138.856 154.199 139.32C154.279 139.784 154.335 140.208 154.367 140.592C154.367 140.608 154.375 140.68 154.391 140.808C154.423 140.936 154.455 141.08 154.487 141.24C154.535 141.4 154.567 141.544 154.583 141.672C154.615 141.816 154.631 141.904 154.631 141.936C154.631 142.048 154.623 142.168 154.607 142.296C154.607 142.44 154.583 142.568 154.535 142.68C154.503 142.808 154.447 142.912 154.367 142.992C154.287 143.072 154.183 143.112 154.055 143.112C153.879 143.112 153.751 143.032 153.671 142.872C153.591 142.728 153.551 142.584 153.551 142.44C153.551 142.408 153.551 142.376 153.551 142.344C153.567 142.312 153.575 142.272 153.575 142.224C153.575 142.048 153.511 141.576 153.383 140.808C153.255 140.04 153.111 139.12 152.951 138.048C152.791 136.992 152.647 135.856 152.519 134.64C152.391 133.408 152.327 132.248 152.327 131.16C152.327 131.08 152.335 130.992 152.351 130.896C152.367 130.784 152.375 130.688 152.375 130.608C152.215 130.624 151.975 130.696 151.655 130.824C151.351 130.952 151.047 131.112 150.743 131.304C150.439 131.48 150.167 131.672 149.927 131.88C149.703 132.072 149.591 132.248 149.591 132.408H149.423C149.375 132.408 149.319 132.376 149.255 132.312C149.175 132.248 149.111 132.176 149.063 132.096C148.999 132.016 148.943 131.936 148.895 131.856C148.847 131.776 148.823 131.72 148.823 131.688C148.823 131.352 149.023 131.04 149.423 130.752C149.823 130.448 150.319 130.184 150.911 129.96C151.519 129.72 152.183 129.536 152.903 129.408C153.623 129.264 154.303 129.192 154.943 129.192C155.567 129.192 156.087 129.264 156.503 129.408C156.935 129.552 157.279 129.728 157.535 129.936C157.791 130.128 157.975 130.328 158.087 130.536C158.199 130.744 158.255 130.92 158.255 131.064ZM157.079 130.992C157.079 130.832 156.879 130.672 156.479 130.512C156.079 130.336 155.607 130.248 155.063 130.248C154.583 130.248 154.231 130.264 154.007 130.296C153.783 130.328 153.631 130.36 153.551 130.392C153.519 130.648 153.495 130.952 153.479 131.304C153.463 131.656 153.455 132.016 153.455 132.384C153.455 132.768 153.463 133.144 153.479 133.512C153.511 133.864 153.543 134.16 153.575 134.4C153.799 134.256 154.103 134.064 154.487 133.824C154.887 133.568 155.279 133.288 155.663 132.984C156.047 132.664 156.375 132.336 156.647 132C156.935 131.648 157.079 131.312 157.079 130.992ZM164.461 130.68C164.461 130.792 164.413 130.888 164.317 130.968C164.221 131.032 164.109 131.088 163.981 131.136C163.853 131.184 163.725 131.224 163.597 131.256C163.469 131.272 163.365 131.28 163.285 131.28C163.045 131.28 162.885 131.264 162.805 131.232C162.725 131.2 162.661 131.184 162.613 131.184C162.213 131.184 161.893 131.216 161.653 131.28C161.413 131.344 161.221 131.448 161.077 131.592C160.949 131.736 160.861 131.92 160.813 132.144C160.781 132.352 160.765 132.608 160.765 132.912C160.765 133.424 160.781 133.832 160.813 134.136C160.861 134.44 160.901 134.688 160.933 134.88C160.981 135.072 161.021 135.224 161.053 135.336C161.101 135.432 161.125 135.528 161.125 135.624C161.125 135.752 161.053 135.888 160.909 136.032C160.781 136.176 160.661 136.248 160.549 136.248C160.357 136.248 160.181 136.08 160.021 135.744C159.877 135.392 159.749 134.984 159.637 134.52C159.541 134.04 159.461 133.568 159.397 133.104C159.333 132.64 159.301 132.288 159.301 132.048C159.301 131.776 159.325 131.52 159.373 131.28C159.421 131.024 159.485 130.808 159.565 130.632C159.645 130.44 159.733 130.288 159.829 130.176C159.925 130.064 160.021 130.008 160.117 130.008C160.197 130.008 160.261 130.04 160.309 130.104C160.357 130.152 160.397 130.216 160.429 130.296C160.461 130.36 160.493 130.424 160.525 130.488C160.573 130.536 160.629 130.56 160.693 130.56C160.837 130.56 161.069 130.488 161.389 130.344C161.709 130.2 162.101 130.128 162.565 130.128C162.997 130.128 163.317 130.144 163.525 130.176C163.749 130.192 163.965 130.24 164.173 130.32C164.221 130.336 164.277 130.376 164.341 130.44C164.421 130.488 164.461 130.568 164.461 130.68ZM169.887 132.816C169.887 133.168 169.839 133.504 169.743 133.824C169.647 134.144 169.519 134.424 169.359 134.664C169.199 134.904 169.007 135.096 168.783 135.24C168.575 135.368 168.343 135.432 168.087 135.432C167.639 135.432 167.287 135.304 167.031 135.048C166.775 134.792 166.575 134.496 166.431 134.16C166.303 133.824 166.215 133.488 166.167 133.152C166.135 132.8 166.119 132.536 166.119 132.36C166.119 132.072 166.159 131.752 166.239 131.4C166.335 131.032 166.455 130.696 166.599 130.392C166.759 130.088 166.935 129.832 167.127 129.624C167.319 129.416 167.519 129.312 167.727 129.312C167.775 129.312 167.847 129.328 167.943 129.36C168.055 129.392 168.167 129.44 168.279 129.504C168.391 129.568 168.487 129.648 168.567 129.744C168.663 129.84 168.727 129.952 168.759 130.08C168.935 130.096 169.111 130.16 169.287 130.272C169.463 130.384 169.559 130.472 169.575 130.536C169.703 130.952 169.783 131.368 169.815 131.784C169.863 132.2 169.887 132.544 169.887 132.816ZM168.807 132.384C168.807 132.144 168.783 131.896 168.735 131.64C168.687 131.368 168.591 131.096 168.447 130.824C168.415 130.84 168.375 130.848 168.327 130.848C168.263 130.848 168.207 130.84 168.159 130.824C168.127 130.808 168.095 130.8 168.063 130.8C167.871 130.8 167.719 130.856 167.607 130.968C167.495 131.064 167.407 131.2 167.343 131.376C167.295 131.536 167.263 131.712 167.247 131.904C167.231 132.096 167.223 132.28 167.223 132.456C167.223 132.632 167.231 132.832 167.247 133.056C167.263 133.264 167.295 133.464 167.343 133.656C167.407 133.848 167.487 134.016 167.583 134.16C167.679 134.288 167.807 134.352 167.967 134.352C168.127 134.352 168.263 134.272 168.375 134.112C168.487 133.936 168.575 133.736 168.639 133.512C168.703 133.288 168.743 133.072 168.759 132.864C168.791 132.64 168.807 132.48 168.807 132.384ZM182.174 135.744C182.174 135.872 182.134 135.984 182.054 136.08C181.974 136.176 181.878 136.256 181.766 136.32C181.654 136.368 181.534 136.408 181.406 136.44C181.294 136.472 181.198 136.488 181.118 136.488C180.782 136.488 180.494 136.312 180.254 135.96C180.014 135.592 179.814 135.192 179.654 134.76C179.494 134.312 179.374 133.896 179.294 133.512C179.23 133.128 179.198 132.92 179.198 132.888C179.102 133.064 178.998 133.36 178.886 133.776C178.79 134.192 178.67 134.616 178.526 135.048C178.382 135.464 178.198 135.84 177.974 136.176C177.766 136.496 177.494 136.656 177.158 136.656C176.998 136.656 176.846 136.56 176.702 136.368C176.558 136.176 176.422 135.928 176.294 135.624C176.166 135.32 176.038 134.976 175.91 134.592C175.798 134.208 175.678 133.832 175.55 133.464C175.438 133.096 175.326 132.752 175.214 132.432C175.102 132.096 174.99 131.832 174.878 131.64C174.782 131.88 174.694 132.208 174.614 132.624C174.55 133.04 174.494 133.48 174.446 133.944C174.398 134.392 174.358 134.84 174.326 135.288C174.294 135.736 174.278 136.128 174.278 136.464C174.278 136.688 174.214 136.848 174.086 136.944C173.974 137.04 173.854 137.088 173.726 137.088C173.55 137.088 173.374 136.976 173.198 136.752C173.022 136.512 172.846 136.208 172.67 135.84C172.494 135.472 172.326 135.056 172.166 134.592C172.022 134.128 171.886 133.664 171.758 133.2C171.646 132.736 171.558 132.296 171.494 131.88C171.43 131.448 171.398 131.088 171.398 130.8C171.398 130.592 171.406 130.4 171.422 130.224C171.438 130.08 171.446 129.944 171.446 129.816C171.462 129.688 171.47 129.616 171.47 129.6C171.47 129.552 171.454 129.52 171.422 129.504C171.406 129.488 171.398 129.448 171.398 129.384C171.398 129.336 171.454 129.264 171.566 129.168C171.694 129.056 171.822 129 171.95 129C172.174 129 172.318 129.048 172.382 129.144C172.462 129.24 172.502 129.352 172.502 129.48C172.502 129.528 172.494 129.6 172.478 129.696C172.478 129.792 172.478 130.008 172.478 130.344C172.478 130.568 172.518 130.904 172.598 131.352C172.678 131.8 172.774 132.256 172.886 132.72C172.998 133.184 173.11 133.616 173.222 134.016C173.35 134.4 173.454 134.64 173.534 134.736C173.566 134.672 173.582 134.6 173.582 134.52C173.598 134.424 173.614 134.352 173.63 134.304L173.894 132.336C173.958 131.84 174.086 131.32 174.278 130.776C174.486 130.216 174.702 129.784 174.926 129.48C175.006 129.352 175.094 129.288 175.19 129.288C175.286 129.288 175.374 129.36 175.454 129.504C175.726 129.952 175.926 130.4 176.054 130.848C176.198 131.28 176.318 131.712 176.414 132.144C176.526 132.56 176.646 132.984 176.774 133.416C176.918 133.832 177.134 134.256 177.422 134.688C177.55 134.48 177.71 134.144 177.902 133.68C178.094 133.2 178.286 132.72 178.478 132.24C178.686 131.76 178.878 131.344 179.054 130.992C179.23 130.624 179.366 130.44 179.462 130.44C179.51 130.44 179.59 130.448 179.702 130.464C179.814 130.48 179.894 130.488 179.942 130.488C180.086 130.488 180.206 130.656 180.302 130.992C180.398 131.312 180.478 131.696 180.542 132.144C180.622 132.576 180.694 133.016 180.758 133.464C180.838 133.896 180.926 134.224 181.022 134.448C181.086 134.608 181.182 134.76 181.31 134.904C181.438 135.048 181.566 135.184 181.694 135.312C181.854 135.456 182.014 135.6 182.174 135.744ZM184.72 126.96C184.72 126.992 184.664 127.056 184.552 127.152C184.44 127.248 184.304 127.352 184.144 127.464C184 127.56 183.848 127.648 183.688 127.728C183.528 127.808 183.4 127.848 183.304 127.848C183.24 127.848 183.152 127.848 183.04 127.848C182.944 127.832 182.84 127.8 182.728 127.752C182.632 127.704 182.544 127.64 182.464 127.56C182.384 127.464 182.344 127.344 182.344 127.2C182.344 126.976 182.424 126.768 182.584 126.576C182.744 126.368 182.952 126.264 183.208 126.264C183.256 126.264 183.36 126.288 183.52 126.336C183.696 126.368 183.872 126.416 184.048 126.48C184.224 126.544 184.376 126.616 184.504 126.696C184.648 126.776 184.72 126.864 184.72 126.96ZM185.512 135.936C185.512 136.048 185.424 136.144 185.248 136.224C185.088 136.304 184.968 136.344 184.888 136.344C184.728 136.344 184.584 136.24 184.456 136.032C184.328 135.824 184.216 135.584 184.12 135.312C184.024 135.04 183.944 134.784 183.88 134.544C183.816 134.288 183.768 134.112 183.736 134.016C183.688 133.856 183.624 133.664 183.544 133.44C183.464 133.216 183.384 133 183.304 132.792C183.24 132.584 183.184 132.4 183.136 132.24C183.088 132.08 183.064 131.992 183.064 131.976C183.064 131.752 183.104 131.544 183.184 131.352C183.28 131.16 183.392 131.064 183.52 131.064C183.664 131.064 183.816 131.176 183.976 131.4C184.136 131.624 184.288 131.912 184.432 132.264C184.592 132.6 184.736 132.976 184.864 133.392C184.992 133.792 185.104 134.176 185.2 134.544C185.296 134.896 185.368 135.208 185.416 135.48C185.48 135.736 185.512 135.888 185.512 135.936ZM191.63 134.832C191.63 135.104 191.534 135.344 191.342 135.552C191.166 135.744 190.934 135.912 190.646 136.056C190.374 136.184 190.07 136.288 189.734 136.368C189.398 136.448 189.078 136.512 188.774 136.56C188.47 136.592 188.198 136.616 187.958 136.632C187.734 136.632 187.59 136.632 187.526 136.632C187.174 136.632 186.902 136.576 186.71 136.464C186.518 136.352 186.422 136.152 186.422 135.864C186.422 135.768 186.43 135.688 186.446 135.624C186.462 135.544 186.526 135.504 186.638 135.504C186.686 135.504 186.766 135.52 186.878 135.552C186.99 135.568 187.078 135.576 187.142 135.576C187.206 135.576 187.406 135.568 187.742 135.552C188.094 135.52 188.462 135.472 188.846 135.408C189.246 135.344 189.598 135.256 189.902 135.144C190.222 135.016 190.382 134.856 190.382 134.664C190.382 134.632 190.214 134.536 189.878 134.376C189.558 134.2 189.07 133.912 188.414 133.512C187.902 133.192 187.542 132.872 187.334 132.552C187.126 132.216 187.022 131.768 187.022 131.208C187.022 130.856 187.094 130.568 187.238 130.344C187.398 130.12 187.606 129.944 187.862 129.816C188.134 129.688 188.438 129.6 188.774 129.552C189.126 129.488 189.494 129.456 189.878 129.456C189.91 129.456 190.006 129.472 190.166 129.504C190.342 129.536 190.526 129.592 190.718 129.672C190.91 129.736 191.078 129.824 191.222 129.936C191.382 130.032 191.462 130.144 191.462 130.272C191.462 130.304 191.43 130.352 191.366 130.416C191.318 130.48 191.23 130.6 191.102 130.776C191.054 130.76 190.966 130.736 190.838 130.704C190.726 130.672 190.59 130.64 190.43 130.608C190.286 130.56 190.134 130.528 189.974 130.512C189.814 130.48 189.686 130.464 189.59 130.464C189.174 130.464 188.838 130.544 188.582 130.704C188.326 130.848 188.198 131.136 188.198 131.568C188.198 131.776 188.278 131.968 188.438 132.144C188.614 132.32 188.83 132.488 189.086 132.648C189.342 132.792 189.614 132.944 189.902 133.104C190.206 133.248 190.486 133.408 190.742 133.584C190.998 133.76 191.206 133.952 191.366 134.16C191.542 134.352 191.63 134.576 191.63 134.832ZM199.555 135.48C199.571 135.512 199.579 135.56 199.579 135.624C199.579 135.72 199.507 135.864 199.363 136.056C199.315 136.12 199.211 136.224 199.051 136.368C198.891 136.512 198.675 136.656 198.403 136.8C198.131 136.944 197.795 137.072 197.395 137.184C197.011 137.296 196.555 137.352 196.027 137.352C195.659 137.352 195.299 137.272 194.947 137.112C194.595 136.936 194.283 136.688 194.011 136.368C193.739 136.032 193.515 135.624 193.339 135.144C193.163 134.648 193.075 134.072 193.075 133.416C193.075 132.792 193.155 132.208 193.315 131.664C193.475 131.12 193.675 130.64 193.915 130.224C194.171 129.808 194.451 129.48 194.755 129.24C195.059 129 195.355 128.88 195.643 128.88C195.899 128.88 196.155 128.936 196.411 129.048C196.683 129.144 196.923 129.272 197.131 129.432C197.355 129.592 197.531 129.776 197.659 129.984C197.787 130.176 197.851 130.376 197.851 130.584C197.851 130.824 197.739 131.072 197.515 131.328C197.307 131.584 197.051 131.824 196.747 132.048C196.443 132.256 196.139 132.432 195.835 132.576C195.531 132.704 195.291 132.768 195.115 132.768C195.019 132.768 194.931 132.728 194.851 132.648C194.787 132.552 194.755 132.44 194.755 132.312C194.755 132.088 194.851 131.912 195.043 131.784C195.251 131.656 195.475 131.544 195.715 131.448C195.955 131.336 196.171 131.208 196.363 131.064C196.571 130.92 196.675 130.72 196.675 130.464C196.675 130.432 196.635 130.352 196.555 130.224C196.475 130.096 196.259 130.032 195.907 130.032C195.747 130.032 195.563 130.128 195.355 130.32C195.147 130.496 194.947 130.744 194.755 131.064C194.563 131.368 194.403 131.736 194.275 132.168C194.147 132.584 194.083 133.04 194.083 133.536C194.083 133.952 194.155 134.328 194.299 134.664C194.459 135 194.659 135.288 194.899 135.528C195.139 135.752 195.419 135.928 195.739 136.056C196.059 136.184 196.387 136.248 196.723 136.248C196.963 136.248 197.219 136.2 197.491 136.104C197.779 135.992 198.043 135.88 198.283 135.768C198.539 135.64 198.755 135.528 198.931 135.432C199.123 135.32 199.243 135.264 199.291 135.264C199.339 135.264 199.387 135.288 199.435 135.336C199.499 135.384 199.539 135.432 199.555 135.48ZM203.091 126.408C203.091 126.552 203.019 126.864 202.875 127.344C202.731 127.824 202.571 128.36 202.395 128.952C202.235 129.528 202.083 130.096 201.939 130.656C201.811 131.216 201.747 131.656 201.747 131.976C201.747 132.312 201.763 132.592 201.795 132.816C201.827 133.024 201.859 133.2 201.891 133.344C201.939 133.488 201.979 133.616 202.011 133.728C202.043 133.824 202.059 133.944 202.059 134.088C202.059 134.408 201.915 134.568 201.627 134.568C201.579 134.568 201.531 134.536 201.483 134.472C201.131 133.96 200.915 133.456 200.835 132.96C200.771 132.464 200.739 132.08 200.739 131.808C200.739 131.472 200.787 131.04 200.883 130.512C200.979 129.968 201.099 129.4 201.243 128.808C201.387 128.2 201.547 127.6 201.723 127.008C201.915 126.4 202.099 125.872 202.275 125.424C202.307 125.392 202.347 125.36 202.395 125.328C202.443 125.296 202.507 125.28 202.587 125.28C202.699 125.28 202.787 125.328 202.851 125.424C202.915 125.504 202.963 125.608 202.995 125.736C203.027 125.848 203.051 125.968 203.067 126.096C203.083 126.224 203.091 126.328 203.091 126.408ZM203.883 137.184C203.883 137.36 203.827 137.544 203.715 137.736C203.619 137.912 203.491 138 203.331 138C203.123 138 202.923 137.896 202.731 137.688C202.555 137.48 202.467 137.24 202.467 136.968C202.467 136.872 202.483 136.752 202.515 136.608C202.563 136.448 202.667 136.368 202.827 136.368C202.891 136.368 202.979 136.376 203.091 136.392C203.203 136.408 203.315 136.448 203.427 136.512C203.555 136.56 203.659 136.64 203.739 136.752C203.835 136.864 203.883 137.008 203.883 137.184Z"
        fill="#1A1A1A" />
    <path d="M56.0019 1.08745C53.7303 4.46231 52.1136 7.62683 50.0015 11.0892" stroke="#1A1A1A" stroke-width="1.6" stroke-miterlimit="1.5" stroke-linecap="round" stroke-linejoin="round" />
    <path d="M71.0021 3.08741C65.7054 7.09991 58.8667 10.2497 54.242 14.9978" stroke="#1A1A1A" stroke-width="1.6" stroke-miterlimit="1.5" stroke-linecap="round" stroke-linejoin="round" />
    <path d="M71.5021 17.0877C67.0025 17.8146 60.3092 18.766 55.9616 20.5903" stroke="#1A1A1A" stroke-width="1.6" stroke-miterlimit="1.5" stroke-linecap="round" stroke-linejoin="round" />
</svg>