<svg width="330" height="763" viewBox="0 0 330 763" fill="none" xmlns="http://www.w3.org/2000/svg">
    <path
        d="M307.034 19.0893L307.11 18.8992L302.197 17.0844C300.639 16.4953 298.976 16.2007 297.313 16.2007H28.3155C26.6432 16.2007 24.9899 16.4953 23.4221 17.0844L18.5096 18.8992L18.5856 19.0893L18.7186 19.2508C19.2412 18.8232 36.6486 5.01698 49.0201 0.399077L48.9536 0.199546V0.408588H276.675V0.199546L276.599 0.399077C288.971 5.01698 306.388 18.8232 306.901 19.2508L307.034 19.0893L307.167 18.9277C306.616 18.4906 289.227 4.67493 276.742 0.00951115L276.704 0H48.906L48.8775 0.00951115C36.3921 4.67493 19.0037 18.4811 18.4526 18.9277L17.4739 19.7259L23.5741 17.4739C25.0944 16.9038 26.7002 16.6093 28.3155 16.6093H297.313C298.929 16.6093 300.544 16.8943 302.055 17.4739L308.145 19.7164L307.167 18.9182L307.034 19.0893Z"
        fill="white" />
    <path
        d="M305.096 147.82H304.887V275.839C304.887 277.578 303.48 278.975 301.741 278.984H23.8689C22.149 278.984 20.7428 277.597 20.7237 275.877V148.03H26.8335V269.549C26.8335 271.981 28.8098 273.948 31.2328 273.948H294.378C296.81 273.948 298.777 271.972 298.777 269.549V148.03H305.096V147.82V147.611H298.359V269.549C298.359 270.651 297.912 271.639 297.2 272.361C296.477 273.084 295.48 273.53 294.387 273.53H31.2328C30.1306 273.53 29.1424 273.084 28.4203 272.361C27.6981 271.639 27.2516 270.651 27.2516 269.549V147.611H20.3057V275.887C20.3342 277.835 21.921 279.402 23.8689 279.402H301.741C303.708 279.402 305.305 277.806 305.305 275.839V147.611H305.096V147.82Z"
        fill="white" />
    <path
        d="M298.568 147.821H298.359V269.549C298.359 270.651 297.913 271.639 297.19 272.362C296.468 273.084 295.471 273.53 294.378 273.53H31.2332C30.131 273.53 29.1428 273.084 28.4207 272.362C27.6985 271.639 27.2519 270.651 27.2519 269.549V148.03H70.5044V147.821L70.3049 147.906C71.5592 150.852 74.3052 156.268 79.2462 160.962C84.1776 165.656 91.304 169.608 101.252 169.608H224.359C234.298 169.608 241.424 165.656 246.365 160.962C251.296 156.277 254.052 150.852 255.306 147.906L255.116 147.821V148.03H298.578V147.821H298.369H298.568V147.612H254.974L254.917 147.735C253.681 150.643 250.954 156.021 246.08 160.648C241.205 165.275 234.193 169.181 224.368 169.181H101.252C91.418 169.181 84.4152 165.275 79.5407 160.648C74.6663 156.021 71.9297 150.643 70.6945 147.735L70.647 147.612H26.8339V269.549C26.8339 271.981 28.8102 273.948 31.2332 273.948H294.378C296.81 273.948 298.777 271.972 298.777 269.549V147.612H298.568V147.821Z"
        fill="white" />
    <path
        d="M255.106 147.82L254.907 147.735C253.672 150.643 250.944 156.021 246.07 160.648C241.196 165.275 234.183 169.181 224.358 169.181H101.252C91.4176 169.181 84.4148 165.275 79.5403 160.648C74.6658 156.021 71.9293 150.643 70.6941 147.735L70.504 147.82V148.03H255.106V147.82V147.611H70.1904L70.314 147.897C71.5682 150.842 74.3142 156.258 79.2552 160.952C84.1867 165.646 91.3131 169.599 101.262 169.599H224.368C234.307 169.599 241.433 165.646 246.374 160.952C251.306 156.268 254.061 150.842 255.315 147.897L255.439 147.611H255.125V147.82H255.106Z"
        fill="white" />
    <path
        d="M0.0292969 241.214C0.0292969 241.214 3.69702 248.787 8.07738 256.921C10.2628 260.988 12.6288 265.197 14.8047 268.675C16.9806 272.153 18.9475 274.889 20.3918 276.048L20.6484 275.716C19.2896 274.632 17.3132 271.905 15.1563 268.447C11.9066 263.249 8.2199 256.398 5.34084 250.84C3.90606 248.065 2.67083 245.614 1.79666 243.846C0.922487 242.089 0.399884 241.024 0.399884 241.024L0.0292969 241.214Z"
        fill="white" />
    <path
        d="M325.21 241.034C325.21 241.034 324.982 241.509 324.574 242.336C323.13 245.262 319.443 252.645 315.509 259.781C313.542 263.344 311.509 266.85 309.665 269.711C307.822 272.561 306.159 274.775 304.971 275.725L305.237 276.048C306.682 274.889 308.649 272.143 310.825 268.675C317.333 258.251 325.6 241.224 325.6 241.224L325.21 241.034Z"
        fill="white" />
    <path d="M0.42785 126.327V119.267H0.00976562V126.327" fill="white" />
    <path d="M325.611 126.327V119.267H325.193V126.327" fill="white" />
    <path
        d="M201.724 327.966H201.515V357.194C201.515 360.358 200.232 363.218 198.161 365.29C196.089 367.361 193.229 368.644 190.056 368.644H136.266C133.102 368.644 130.241 367.361 128.17 365.29C126.099 363.218 124.816 360.358 124.816 357.194V328.176H201.715V327.966H201.505H201.724V327.757H124.407V357.194C124.407 363.75 129.719 369.062 136.275 369.062H190.065C196.622 369.062 201.933 363.75 201.933 357.194V327.757H201.724V327.966Z"
        fill="white" />
    <path
        d="M297.284 347.493H297.075V391.316H293.446V338.01C293.446 335.483 292.524 333.155 291.004 331.359L290.842 331.501L290.738 331.682C291.165 331.929 297.056 335.445 297.066 347.483H297.284H297.493C297.503 335.302 291.479 331.606 290.956 331.311L289.939 330.741L290.69 331.625C292.153 333.345 293.028 335.568 293.028 338.001V391.724H297.493V347.474H297.284V347.493Z"
        fill="white" />
    <path d="M25.2938 331.302L25.2559 331.321L25.4459 331.701L25.4744 331.682" fill="white" />
    <path
        d="M25.3517 331.511L25.1901 331.378C23.6698 333.174 22.7481 335.492 22.7481 338.019V391.325H19.1279V347.493C19.1279 335.463 25.0286 331.938 25.4562 331.691L25.3517 331.511L25.2471 331.33C24.715 331.615 18.7003 335.321 18.7099 347.493V391.743H23.1757V338.019C23.1757 335.596 24.0499 333.373 25.5132 331.644L26.2638 330.751L25.2471 331.33L25.3517 331.511Z"
        fill="white" />
    <path
        d="M201.724 327.966H201.515V357.194C201.515 360.358 200.232 363.218 198.161 365.29C196.089 367.361 193.229 368.644 190.056 368.644H136.266C133.102 368.644 130.241 367.361 128.17 365.29C126.099 363.218 124.816 360.358 124.816 357.194V328.176H201.715V327.966H201.505H201.724V327.757H124.407V357.194C124.407 363.75 129.719 369.062 136.275 369.062H190.065C196.622 369.062 201.933 363.75 201.933 357.194V327.757H201.724V327.966Z"
        fill="white" />
    <path
        d="M297.284 347.493H297.075V391.316H293.446V338.01C293.446 335.483 292.524 333.155 291.004 331.359L290.842 331.501L290.738 331.682C291.165 331.929 297.056 335.445 297.066 347.483H297.284H297.493C297.503 335.302 291.479 331.606 290.956 331.311L289.939 330.741L290.69 331.625C292.153 333.345 293.028 335.568 293.028 338.001V391.724H297.493V347.474H297.284V347.493Z"
        fill="white" />
    <path
        d="M25.3517 331.511L25.1901 331.378C23.6698 333.174 22.7481 335.492 22.7481 338.019V391.325H19.1279V347.493C19.1279 335.463 25.0286 331.938 25.4562 331.691L25.3517 331.511L25.2471 331.33C24.715 331.615 18.7003 335.321 18.7099 347.493V391.743H23.1757V338.019C23.1757 335.596 24.0499 333.373 25.5132 331.644L26.2638 330.751L25.2471 331.33L25.3517 331.511Z"
        fill="white" />
    <path
        d="M126.166 741.26H125.957V743.863H48.3931C43.9367 743.863 39.6989 742.865 35.9171 741.07C25.9877 736.395 19.1273 726.294 19.1273 714.597V678.585H22.7475V714.445C22.7475 729.363 34.8434 741.459 49.7708 741.459H126.156V741.26H125.947H126.166V741.051H49.7804C42.4354 741.051 35.7936 738.067 30.9762 733.259C26.1587 728.442 23.1846 721.79 23.1846 714.455V678.177H18.7188V714.607C18.7188 726.475 25.6836 736.718 35.7556 741.459C39.5848 743.274 43.8797 744.281 48.4026 744.281H126.375V741.06H126.166V741.26Z"
        fill="white" />
    <path
        d="M325.401 710.246H325.61V126.327L325.192 126.299L325.183 126.337C325.097 126.793 324.204 130.86 318.009 135.611L318.132 135.782L318.018 135.611L306.93 143.193L306.835 143.241C306.407 143.497 304.44 144.552 301.295 144.552H24.3155C22.5197 144.552 21.1039 144.21 20.1442 143.868C19.6596 143.697 19.2986 143.526 19.0515 143.393C18.928 143.336 18.833 143.279 18.776 143.241L18.6904 143.193L18.5764 143.364L18.6999 143.193L7.61126 135.611L7.49724 135.782L7.63025 135.611C4.3236 133.074 2.52777 130.736 1.55857 129.035C1.07398 128.18 0.798433 127.496 0.646403 127.021C0.560887 126.783 0.513374 126.593 0.49437 126.479L0.465866 126.337L0.456355 126.299L0.0382701 126.327V710.246C0.0382701 710.246 0.0287589 710.369 0.0287589 710.597C0.0382608 712.174 0.133279 718.769 1.69159 726.313C3.24989 733.858 6.27149 742.362 12.1532 747.749L12.2957 747.597L12.1342 747.73C12.1532 747.759 23.7454 763 51.8045 763C52.042 763 52.2795 763 52.5171 763H273.141C273.378 763 273.616 763 273.854 763C301.913 763 313.505 747.768 313.524 747.73L313.353 747.597L313.495 747.749C319.387 742.352 322.408 733.839 323.966 726.294C325.525 718.74 325.629 712.146 325.629 710.597C325.629 710.369 325.629 710.255 325.629 710.255L325.401 710.246H325.192C325.192 710.246 325.192 710.36 325.192 710.588C325.192 712.117 325.097 718.683 323.539 726.199C321.99 733.706 318.978 742.153 313.191 747.436L313.172 747.445L313.163 747.455C313.163 747.455 313.115 747.512 313.03 747.616C311.68 749.251 299.974 762.553 273.825 762.553C273.587 762.553 273.35 762.553 273.122 762.553H52.4886C52.251 762.553 52.0135 762.553 51.7759 762.553C37.8272 762.553 27.9928 758.772 21.636 754.99C18.4624 753.109 16.1629 751.218 14.6521 749.802C13.9015 749.089 13.3409 748.5 12.9798 748.091C12.7898 747.892 12.6568 747.721 12.5712 747.616C12.4857 747.512 12.4382 747.455 12.4382 747.455L12.4287 747.445L12.4192 747.436C6.64207 742.153 3.62997 733.725 2.08117 726.228C0.522859 718.731 0.42785 712.155 0.42785 710.607C0.42785 710.379 0.42785 710.265 0.42785 710.265V126.327H0.218808L0.00976562 126.356C0.0192675 126.403 0.665405 130.812 7.35472 135.943L7.3642 135.953L18.4529 143.535C18.4719 143.554 20.6098 144.97 24.3155 144.97H301.304C305.02 144.97 307.148 143.554 307.167 143.535L318.256 135.953L318.265 135.943C324.964 130.812 325.601 126.403 325.61 126.356L325.401 126.327H325.192V710.246H325.401ZM198.513 750.685H198.304C198.304 753.907 195.701 756.51 192.48 756.51H134.974C131.753 756.51 129.15 753.907 129.15 750.685V725.962C129.15 724.356 129.805 722.902 130.85 721.847C131.905 720.793 133.359 720.137 134.965 720.137H192.47C194.085 720.137 195.539 720.793 196.594 721.847C197.649 722.902 198.295 724.356 198.295 725.962V750.685H198.513H198.722V725.962C198.722 722.522 195.929 719.719 192.48 719.719H134.974C131.525 719.719 128.732 722.513 128.732 725.962V750.685C128.732 752.415 129.435 753.973 130.565 755.104C131.696 756.235 133.254 756.938 134.974 756.938H192.48C194.209 756.938 195.767 756.235 196.898 755.104C198.029 753.973 198.732 752.415 198.732 750.685H198.513ZM124.712 693.047V692.838C123.696 692.838 122.764 693.256 122.099 693.921C121.871 694.149 121.662 694.406 121.501 694.701L121.691 694.795V694.586H97.765C94.7149 694.586 91.9498 693.351 89.9544 691.346C87.959 689.351 86.7238 686.586 86.7238 683.536C86.7238 680.486 87.959 677.721 89.9544 675.725C91.9498 673.73 94.7149 672.495 97.765 672.495H228.482C231.532 672.495 234.297 673.73 236.293 675.725C238.288 677.721 239.523 680.486 239.523 683.536C239.523 686.586 238.288 689.351 236.293 691.346C234.297 693.342 231.532 694.586 228.482 694.586H205.687V694.795L205.868 694.691C205.231 693.579 204.024 692.829 202.647 692.829H124.712V693.047V693.256H202.647C203.872 693.256 204.927 693.921 205.497 694.91L205.554 695.014H228.473C231.637 695.014 234.506 693.722 236.578 691.65C238.649 689.579 239.932 686.709 239.932 683.545C239.932 677.208 234.801 672.077 228.473 672.077H97.7555C94.5913 672.077 91.7218 673.359 89.6504 675.431C87.579 677.502 86.2962 680.372 86.2962 683.536C86.2962 689.864 91.4177 695.005 97.7555 695.005H121.814L121.871 694.891C122.014 694.634 122.194 694.406 122.403 694.206C122.992 693.617 123.81 693.247 124.722 693.247V693.047H124.712ZM302.663 666.356H302.454C302.454 671.963 301.114 674.908 299.813 676.457C299.157 677.227 298.511 677.654 298.036 677.892C297.789 678.006 297.599 678.082 297.456 678.12L297.304 678.158L297.257 678.167L297.076 678.196V714.597C297.076 726.294 290.206 736.395 280.277 741.07C276.505 742.856 272.267 743.854 267.81 743.854H201.497V741.469H241.623V683.555C241.623 676.305 235.732 670.414 228.482 670.414H97.7555C90.5055 670.414 84.6144 676.305 84.6144 683.555V741.469H125.948V743.854H48.3838C43.9274 743.854 39.6896 742.856 35.9173 741.07C25.9879 736.395 19.118 726.294 19.118 714.597V678.196L18.9375 678.167L18.89 678.158C18.6334 678.11 17.3507 677.768 16.1344 676.153C14.9182 674.538 13.74 671.611 13.74 666.356V403.544C13.74 401.102 13.987 399.164 14.3861 397.634C15.0987 394.869 16.2484 393.406 17.2176 392.617C17.7022 392.228 18.1393 392.009 18.4529 391.886C18.6049 391.828 18.7379 391.79 18.8235 391.771L18.9185 391.752H18.947L19.1275 391.724V347.502C19.1275 335.463 25.0282 331.948 25.4558 331.701L25.4938 331.682L25.5128 331.653C27.3181 329.534 30.0071 328.185 33.0192 328.185H283.184C286.197 328.185 288.885 329.534 290.691 331.653L290.71 331.682L290.748 331.701C291.175 331.948 297.067 335.463 297.076 347.502V391.724L297.257 391.752H297.285C297.599 391.819 300.468 392.465 301.799 397.615C302.198 399.154 302.454 401.102 302.454 403.554V666.356H302.663H302.872V403.544C302.872 401.064 302.606 399.078 302.198 397.501C301.476 394.679 300.269 393.121 299.233 392.285C298.197 391.448 297.333 391.325 297.304 391.325L297.276 391.534H297.485V347.493C297.485 335.311 291.47 331.615 290.938 331.321L290.843 331.511L290.995 331.368C289.114 329.154 286.311 327.748 283.175 327.748H33.0192C29.8836 327.748 27.0711 329.145 25.1992 331.368L25.3513 331.511L25.2562 331.321C24.7241 331.606 18.7094 335.311 18.7094 347.493V391.534H18.9185L18.89 391.325C18.8615 391.325 17.9968 391.448 16.9611 392.294C15.9254 393.14 14.7091 394.698 13.987 397.53C13.5784 399.107 13.3219 401.083 13.3219 403.554V666.356C13.3219 672.029 14.6711 675.079 16.0679 676.723C17.4552 678.367 18.852 678.566 18.89 678.576L18.9185 678.367H18.7094V714.588C18.7094 726.446 25.6838 736.699 35.7463 741.44C39.5755 743.255 43.8704 744.262 48.3933 744.262H126.375V741.032H85.042V683.536C85.042 680.02 86.4673 676.846 88.7667 674.547C91.0757 672.238 94.2493 670.822 97.7555 670.822H228.473C231.979 670.822 235.162 672.248 237.461 674.547C239.761 676.856 241.186 680.03 241.186 683.536V741.032H201.069V744.262H267.801C272.324 744.262 276.619 743.246 280.448 741.44C290.51 736.699 297.485 726.446 297.485 714.588V678.367H297.276L297.304 678.576C297.342 678.576 298.739 678.367 300.126 676.723C301.513 675.079 302.872 672.02 302.872 666.356H302.663ZM305.096 275.839H304.887C304.887 277.578 303.48 278.975 301.742 278.984H23.8689C22.1491 278.984 20.7428 277.597 20.7238 275.877V148.03H304.877V275.839H305.096H305.305V147.612H20.3057V275.887C20.3342 277.835 21.9211 279.402 23.8689 279.402H301.742C303.708 279.402 305.305 277.816 305.305 275.839H305.096Z"
        fill="white" />
    <path
        d="M84.6426 327.966H84.4336V668.951H84.6426L84.5001 668.798C80.4618 672.438 77.9153 677.702 77.9153 683.545V741.051H49.7708C42.4258 741.051 35.7745 738.077 30.9571 733.259C26.1396 728.442 23.1655 721.8 23.1655 714.455V338.019C23.1655 335.587 24.0397 333.364 25.503 331.644C27.3083 329.515 29.9974 328.176 33.0095 328.176H84.6331V327.966H84.4241H84.6426V327.757H33.019C29.8833 327.757 27.0708 329.154 25.1989 331.378C23.6691 333.174 22.757 335.492 22.757 338.029V714.455C22.757 729.373 34.8528 741.478 49.7803 741.478H78.3429V683.555C78.3429 677.825 80.8324 672.685 84.7851 669.122L84.8517 669.055V327.757H84.6426V327.966Z"
        fill="white" />
    <path
        d="M22.9656 391.534H22.7565V678.167H18.9178V678.376L18.9463 678.167H18.8988C18.6422 678.11 17.3595 677.778 16.1432 676.162C14.927 674.547 13.7487 671.63 13.7487 666.366V403.544C13.7487 401.102 13.9958 399.164 14.3949 397.634C15.098 394.869 16.2572 393.406 17.2264 392.617C17.711 392.228 18.1481 391.999 18.4617 391.885C18.6137 391.819 18.7467 391.79 18.8322 391.762L18.9273 391.743H18.9558L18.9273 391.534V391.743H22.9751V391.534H22.766H22.9656V391.325H18.9083H18.8892C18.8607 391.325 17.9961 391.458 16.9604 392.294C15.9152 393.14 14.7084 394.698 13.9863 397.53C13.5777 399.107 13.3212 401.074 13.3212 403.544V666.356C13.3212 672.029 14.6704 675.089 16.0577 676.732C17.445 678.376 18.8512 678.576 18.8797 678.585H18.8892H23.1556V391.325H22.9466V391.534H22.9656Z"
        fill="white" />
    <path
        d="M25.3517 331.511L25.1901 331.378C23.6698 333.174 22.7481 335.492 22.7481 338.019V391.325H19.1279V347.493C19.1279 335.463 25.0286 331.938 25.4562 331.691L25.3517 331.511L25.2471 331.33C24.715 331.615 18.7003 335.321 18.7099 347.493V391.743H23.1757V338.019C23.1757 335.596 24.0499 333.373 25.5132 331.644L26.2638 330.751L25.2471 331.33L25.3517 331.511Z"
        fill="white" />
    <path
        d="M248.113 683.545H247.904V741.051H241.623V683.545C241.623 676.305 235.732 670.404 228.482 670.404H97.7647C90.5148 670.404 84.6236 676.295 84.6236 683.545V741.051H78.3429V683.545C78.3429 677.816 80.8324 672.675 84.7852 669.103C88.2248 666.014 92.7857 664.124 97.7647 664.124H228.482C233.404 664.124 237.908 665.967 241.328 668.998C245.357 672.561 247.904 677.759 247.904 683.545H248.113H248.322C248.322 677.635 245.718 672.314 241.613 668.684C238.117 665.587 233.518 663.706 228.491 663.706H97.7647C92.6717 663.706 88.0158 665.634 84.5001 668.798C80.4618 672.438 77.9248 677.702 77.9248 683.555V741.478H85.0512V683.555C85.0512 680.049 86.4765 676.866 88.7759 674.566C91.0849 672.267 94.2585 670.841 97.7647 670.841H228.482C231.988 670.841 235.171 672.267 237.471 674.566C239.77 676.875 241.195 680.049 241.195 683.555V741.478H248.312V683.555H248.113V683.545Z"
        fill="white" />
    <path
        d="M293.237 338.019H293.028V714.445C293.028 721.79 290.044 728.442 285.236 733.259C280.419 738.076 273.768 741.051 266.432 741.051H248.322V683.555C248.322 677.645 245.718 672.324 241.604 668.694L241.461 668.855H241.67V328.175H283.174C286.187 328.175 288.876 329.525 290.681 331.644C292.144 333.373 293.018 335.587 293.018 338.019H293.237H293.446C293.446 335.492 292.534 333.173 291.013 331.368C289.132 329.154 286.329 327.748 283.184 327.748H241.262V668.931L241.328 668.998C245.357 672.552 247.904 677.759 247.904 683.545V741.459H266.432C281.35 741.459 293.446 729.363 293.446 714.436V338.019H293.237Z"
        fill="white" />
    <path
        d="M201.724 327.966H201.515V357.194C201.515 360.358 200.232 363.218 198.161 365.29C196.09 367.361 193.23 368.644 190.056 368.644H136.266C133.102 368.644 130.242 367.361 128.17 365.29C126.099 363.218 124.816 360.358 124.816 357.194V327.757H84.4142V669.416L84.7658 669.103C88.2055 666.014 92.7663 664.124 97.7453 664.124H228.462C233.384 664.124 237.888 665.957 241.309 668.998L241.651 669.302V327.757H201.496V327.966H201.724V328.176H241.252V668.846H241.461L241.604 668.694C238.107 665.596 233.508 663.715 228.482 663.715H97.7643C92.6713 663.715 88.0154 665.644 84.4997 668.808L84.6422 668.96H84.8513V328.166H124.417V357.185C124.417 363.741 129.729 369.053 136.285 369.053H190.075C196.631 369.053 201.943 363.741 201.943 357.185V327.957H201.724V328.166V327.966Z"
        fill="white" />
    <path
        d="M201.724 327.966H201.515V357.194C201.515 360.358 200.232 363.218 198.161 365.29C196.089 367.361 193.229 368.644 190.056 368.644H136.266C133.102 368.644 130.241 367.361 128.17 365.29C126.099 363.218 124.816 360.358 124.816 357.194V328.176H201.715V327.966H201.505H201.724V327.757H124.407V357.194C124.407 363.75 129.719 369.062 136.275 369.062H190.065C196.622 369.062 201.933 363.75 201.933 357.194V327.757H201.724V327.966Z"
        fill="white" />
    <path
        d="M297.284 347.493H297.075V391.316H293.446V338.01C293.446 335.483 292.524 333.155 291.004 331.359L290.842 331.501L290.738 331.682C291.165 331.929 297.056 335.445 297.066 347.483H297.284H297.493C297.503 335.302 291.479 331.606 290.956 331.311L289.939 330.741L290.69 331.625C292.153 333.345 293.028 335.568 293.028 338.001V391.724H297.493V347.474H297.284V347.493Z"
        fill="white" />
    <path
        d="M302.662 403.544H302.453V666.357C302.453 671.963 301.113 674.908 299.812 676.457C299.156 677.227 298.51 677.654 298.025 677.892C297.788 678.006 297.588 678.082 297.446 678.12L297.294 678.158L297.246 678.167L297.275 678.376V678.167H293.436V391.743H297.275V391.534L297.246 391.743H297.275C297.579 391.81 300.458 392.456 301.788 397.606C302.187 399.145 302.444 401.093 302.444 403.544H302.662H302.871C302.871 401.064 302.615 399.078 302.206 397.501C301.474 394.679 300.277 393.121 299.242 392.294C298.206 391.448 297.341 391.334 297.313 391.325H297.294H293.027V678.595H297.303H297.313C297.351 678.595 298.747 678.386 300.135 676.742C301.522 675.098 302.881 672.039 302.871 666.376V403.544H302.662Z"
        fill="white" />
    <path
        d="M297.285 678.376H297.076V714.597C297.076 726.294 290.207 736.395 280.277 741.07C276.505 742.856 272.267 743.854 267.801 743.854H248.313V741.469H266.423C281.341 741.469 293.447 729.373 293.447 714.445V678.585H297.285V678.376V678.167H293.029V714.445C293.029 721.79 290.045 728.442 285.237 733.25C280.42 738.067 273.768 741.041 266.433 741.041H247.904V744.272H267.811C272.334 744.272 276.628 743.255 280.458 741.44C290.53 736.699 297.495 726.456 297.495 714.588V678.158H297.285V678.376Z"
        fill="white" />
    <path d="M241.613 744.063V741.26H241.195V744.063" fill="white" />
    <path
        d="M239.732 683.545H239.523C239.523 686.596 238.288 689.361 236.292 691.356C234.297 693.351 231.532 694.596 228.482 694.596H205.687V694.805L205.867 694.701C205.231 693.579 204.034 692.838 202.646 692.838H124.712C123.695 692.838 122.764 693.256 122.108 693.921C121.88 694.15 121.671 694.406 121.51 694.71L121.7 694.805V694.596H97.7742C94.7241 694.596 91.959 693.361 89.9636 691.365C87.9682 689.361 86.733 686.605 86.733 683.555C86.733 680.505 87.9682 677.74 89.9636 675.744C91.959 673.749 94.7241 672.514 97.7742 672.514H228.491C231.541 672.514 234.306 673.749 236.302 675.744C238.297 677.74 239.533 680.505 239.533 683.555H239.732H239.941C239.941 677.227 234.81 672.096 228.482 672.096H97.7551C94.591 672.096 91.7215 673.378 89.6501 675.45C87.5786 677.521 86.2959 680.391 86.2959 683.555C86.2959 689.883 91.4269 695.024 97.7551 695.024H121.814L121.871 694.919C122.013 694.663 122.184 694.435 122.393 694.235C122.983 693.646 123.8 693.275 124.712 693.275H202.646C203.872 693.275 204.927 693.94 205.497 694.929L205.554 695.033H228.472C231.636 695.033 234.506 693.741 236.577 691.67C238.649 689.598 239.932 686.729 239.932 683.564H239.732V683.545Z"
        fill="white" />
    <path
        d="M192.48 719.938V719.729H134.975C131.526 719.729 128.732 722.532 128.732 725.971V750.695C128.732 752.415 129.426 753.983 130.557 755.104C131.688 756.235 133.255 756.938 134.975 756.938H192.48C194.21 756.938 195.768 756.244 196.899 755.104C198.03 753.983 198.723 752.415 198.723 750.695V725.971C198.723 722.532 195.93 719.729 192.48 719.729V719.938V720.147C194.086 720.147 195.55 720.802 196.595 721.857C197.649 722.912 198.305 724.365 198.305 725.971V750.695C198.305 753.916 195.702 756.52 192.48 756.52H134.975C131.754 756.52 129.151 753.916 129.151 750.695V725.971C129.151 724.365 129.797 722.912 130.851 721.857C131.906 720.802 133.36 720.147 134.966 720.147H192.471V719.938H192.48ZM194.371 744.367H194.162C194.162 745.564 193.678 746.647 192.899 747.426C192.11 748.206 191.027 748.7 189.829 748.7H136.495C135.298 748.7 134.225 748.215 133.436 747.426C132.657 746.647 132.172 745.555 132.172 744.367V740.186C132.172 738.989 132.657 737.915 133.436 737.126C134.215 736.347 135.298 735.863 136.495 735.863H189.829C191.027 735.863 192.11 736.347 192.899 737.126C193.678 737.915 194.162 738.998 194.162 740.186V744.367H194.371H194.58V740.186C194.58 737.564 192.461 735.435 189.829 735.435H136.495C133.873 735.435 131.754 737.564 131.754 740.186V744.367C131.754 746.989 133.873 749.118 136.495 749.118H189.829C192.461 749.118 194.58 746.989 194.58 744.367H194.371Z"
        fill="white" />
    <path
        d="M189.828 735.644V735.435H136.494C133.872 735.435 131.753 737.563 131.753 740.186V744.367C131.753 746.989 133.872 749.118 136.494 749.118H189.828C192.46 749.118 194.579 746.989 194.579 744.367V740.186C194.579 737.563 192.451 735.435 189.828 735.435V735.644V735.853C191.035 735.853 192.109 736.338 192.897 737.117C193.676 737.906 194.161 738.989 194.161 740.176V744.357C194.161 745.555 193.676 746.638 192.897 747.417C192.118 748.196 191.035 748.69 189.828 748.69H136.494C135.297 748.69 134.223 748.206 133.435 747.417C132.655 746.638 132.171 745.545 132.171 744.357V740.176C132.171 738.979 132.655 737.906 133.435 737.117C134.214 736.338 135.297 735.853 136.494 735.853H189.828V735.644ZM192.698 744.367H192.489C192.489 745.821 191.301 747.018 189.838 747.018H136.494C135.04 747.018 133.853 745.83 133.843 744.367V740.186C133.843 738.723 135.031 737.535 136.494 737.535H189.838C191.301 737.535 192.489 738.723 192.489 740.186V744.367H192.698H192.907V740.186C192.907 738.485 191.529 737.107 189.838 737.107H136.494C134.803 737.107 133.425 738.485 133.425 740.186V744.367C133.425 746.058 134.803 747.436 136.494 747.436H189.838C191.529 747.436 192.907 746.058 192.907 744.367H192.698Z"
        fill="white" />
    <path
        d="M192.698 740.186H192.489V743.854H133.843V740.186C133.843 738.723 135.031 737.535 136.494 737.535H189.838C191.301 737.535 192.489 738.723 192.489 740.186H192.698H192.907C192.907 738.485 191.529 737.107 189.838 737.107H136.494C134.803 737.107 133.425 738.485 133.425 740.186V744.272H192.907V740.186H192.698Z"
        fill="white" />
    <path
        d="M192.698 744.063H192.489V744.367C192.489 745.821 191.301 747.008 189.838 747.018H136.494C135.04 747.018 133.853 745.83 133.843 744.367V744.272H192.698V744.063V743.854H133.425V744.367C133.425 746.058 134.803 747.436 136.494 747.436H189.838C191.529 747.436 192.907 746.058 192.907 744.367V744.063V743.854H192.698V744.063Z"
        fill="white" />
    <path
        d="M201.724 327.966H201.515V357.194C201.515 360.358 200.232 363.218 198.161 365.29C196.089 367.361 193.229 368.644 190.056 368.644H136.266C133.102 368.644 130.241 367.361 128.17 365.29C126.099 363.218 124.816 360.358 124.816 357.194V328.176H201.715V327.966H201.505H201.724V327.757H124.407V357.194C124.407 363.75 129.719 369.062 136.275 369.062H190.065C196.622 369.062 201.933 363.75 201.933 357.194V327.757H201.724V327.966Z"
        fill="white" />
    <path
        d="M200.052 327.966H199.843V357.194C199.843 359.893 198.741 362.335 196.974 364.102C195.206 365.869 192.764 366.962 190.066 366.962H136.276C133.577 366.962 131.135 365.869 129.368 364.102C127.601 362.335 126.508 359.893 126.508 357.194V328.176H200.052V327.966V327.757H126.09V357.194C126.09 362.819 130.66 367.38 136.276 367.38H190.066C195.691 367.38 200.261 362.81 200.261 357.194V327.757H200.052V327.966Z"
        fill="white" />
    <path
        d="M188.812 357.574V357.365H136.827C135.088 357.365 133.691 355.959 133.691 354.22V350.647C133.691 348.909 135.098 347.512 136.827 347.502H188.812C190.55 347.502 191.947 348.909 191.947 350.647V354.22C191.947 355.959 190.541 357.356 188.812 357.365V357.574V357.783C190.778 357.783 192.375 356.196 192.375 354.22V350.647C192.375 348.681 190.778 347.084 188.812 347.084H136.827C134.86 347.084 133.264 348.681 133.264 350.647V354.22C133.264 356.187 134.86 357.783 136.827 357.783H188.812V357.574Z"
        fill="white" />
    <path
        d="M188.812 360.586V360.377H136.827C135.088 360.377 133.691 358.971 133.691 357.232V350.638C133.691 348.899 135.098 347.502 136.827 347.502H188.812C190.55 347.502 191.947 348.908 191.947 350.638V357.232C191.947 358.971 190.541 360.368 188.812 360.377V360.586V360.795C190.778 360.795 192.375 359.208 192.375 357.232V350.638C192.375 348.671 190.778 347.075 188.812 347.075H136.827C134.86 347.075 133.264 348.671 133.264 350.638V357.232C133.264 359.199 134.86 360.795 136.827 360.795H188.812V360.586Z"
        fill="white" />
    <path
        d="M192.156 329.097H191.947V332.67C191.947 333.116 191.852 333.544 191.691 333.924C191.206 335.036 190.094 335.805 188.802 335.805H136.818C135.079 335.805 133.682 334.399 133.672 332.66V329.088C133.672 328.717 133.739 328.356 133.862 328.033L133.663 327.957V328.166H191.947V327.957L191.748 328.033C191.871 328.356 191.938 328.717 191.938 329.088H192.156H192.365C192.365 328.669 192.299 328.261 192.156 327.881L192.109 327.748H133.53L133.482 327.881C133.34 328.261 133.273 328.669 133.273 329.088V332.66C133.273 334.627 134.87 336.223 136.837 336.223H188.821C190.285 336.223 191.539 335.34 192.09 334.086C192.28 333.648 192.375 333.173 192.375 332.66V329.088H192.156V329.097Z"
        fill="white" />
    <path
        d="M192.157 350.857H194.371C196.357 350.857 198.305 351.465 199.939 352.605L200.177 352.263C198.476 351.075 196.452 350.429 194.371 350.429H192.157V350.857Z"
        fill="white" />
    <path
        d="M133.473 350.429H131.981C129.901 350.429 127.877 351.066 126.176 352.253L126.423 352.595C128.057 351.455 129.996 350.847 131.991 350.847H133.483V350.429H133.473Z"
        fill="white" />
    <path
        d="M133.747 333.801H131.999C130.013 333.801 128.065 333.192 126.431 332.052L126.193 332.394C127.894 333.582 129.918 334.228 131.999 334.228H133.747V333.801Z"
        fill="white" />
    <path
        d="M191.881 334.219H194.37C196.451 334.219 198.475 333.582 200.176 332.394L199.938 332.052C198.304 333.192 196.366 333.801 194.37 333.801H191.881V334.219Z"
        fill="white" />
    <path
        d="M7.93406 33.5606L7.72502 33.5321L6.64182 41.9222L6.85087 41.9507L6.66082 41.8557C6.65132 41.8747 0 54.3792 0 72.7178H0.418084V69.8767C0.418084 62.8833 1.09274 55.8995 2.57503 49.0676C3.76276 43.661 5.53009 37.8079 8.10509 33.6651L7.93406 33.5606L7.75353 33.4466C5.13101 37.6654 3.36366 43.547 2.16642 48.9821C0.674631 55.8424 0 62.8643 0 69.8767V72.7178H0.418084C0.418084 63.596 2.07142 55.928 3.72474 50.5404C4.55141 47.8419 5.37805 45.723 5.99568 44.2692C6.29974 43.547 6.5658 42.9864 6.74633 42.6159C6.92687 42.2453 7.0314 42.0552 7.0314 42.0552L7.0504 42.0172L8.25712 32.6294L7.75353 33.4466L7.93406 33.5606Z"
        fill="white" />
    <path
        d="M6.85087 41.9602L6.64182 41.9317L0.427596 90.3912V72.7273C0.427596 63.6055 2.08093 55.9375 3.73426 50.5499C4.56092 47.8514 5.38757 45.7325 6.00519 44.2882C6.30925 43.566 6.57531 43.0054 6.75584 42.6349C6.93638 42.2643 7.04089 42.0742 7.04089 42.0742L6.85087 41.9602L6.66082 41.8652C6.65132 41.8842 0 54.3887 0 72.7273V93.6694L0.418084 93.6979L7.20243 40.8485L6.66082 41.8557L6.85087 41.9602Z"
        fill="white" />
    <path
        d="M325.401 93.6694H325.192V126.327H325.401L325.192 126.299L325.182 126.346C325.097 126.793 324.204 130.86 318.009 135.62L318.132 135.782L318.018 135.611L306.929 143.193L306.844 143.25C306.416 143.497 304.449 144.552 301.304 144.552H24.3153C22.5195 144.552 21.1037 144.21 20.144 143.868C19.6594 143.697 19.2984 143.526 19.0513 143.402C18.9278 143.336 18.8328 143.288 18.7758 143.25L18.6903 143.193L7.60156 135.611L7.48755 135.782L7.61108 135.62C4.30443 133.083 2.50856 130.746 1.53937 129.045C1.05477 128.19 0.779247 127.506 0.617715 127.03C0.532198 126.793 0.484685 126.612 0.465682 126.489L0.437177 126.356L0.427666 126.308L0.218624 126.337H0.427666V93.6789L7.05998 41.9792L8.14318 33.5891L9.12187 25.9496L8.91283 25.9211L9.11236 25.9876C9.3119 25.3985 9.90104 24.6858 10.7087 23.9637C11.9154 22.89 13.5878 21.7973 15.1081 20.9326C16.6284 20.0679 18.0251 19.4408 18.6142 19.2983L18.6332 19.2888L18.6618 19.2793L23.5647 17.4739C25.085 16.9038 26.6908 16.6092 28.3061 16.6092H297.304C298.919 16.6092 300.535 16.9038 302.045 17.4739L306.948 19.2793H306.958L306.977 19.2888L306.996 19.2983C307.794 19.4978 309.989 20.5525 312.06 21.8638C313.096 22.5194 314.103 23.251 314.902 23.9637C315.709 24.6763 316.298 25.389 316.498 25.9876L316.697 25.9211L316.488 25.9496L317.467 33.5891L318.55 41.9792L325.182 93.6884L325.401 93.6694L325.61 93.6409L318.978 41.9317L317.895 33.5321L316.906 25.8641V25.8451C316.65 25.1229 316.023 24.3913 315.196 23.6501C313.951 22.5384 312.26 21.4457 310.721 20.5715C309.172 19.7069 307.794 19.0702 307.11 18.8897L307.062 19.0892L307.157 18.8992L307.138 18.8897H307.129L302.216 17.0748C300.649 16.4857 298.995 16.1912 297.323 16.1912H28.3251C26.6623 16.1912 24.9995 16.4857 23.4317 17.0748L18.5192 18.8897L18.4907 18.8992L18.5857 19.0892L18.5382 18.8897C17.6355 19.1272 15.4596 20.1724 13.3597 21.5027C12.305 22.1773 11.2788 22.8995 10.4616 23.6406C9.63497 24.3818 8.99836 25.1229 8.75131 25.8356L8.7418 25.8546L7.76311 33.5226L6.67988 41.9222L0.0380859 93.6504V126.337V126.346C0.0380859 126.394 0.693725 130.803 7.38304 135.934L7.39252 135.943L18.4812 143.526C18.5002 143.535 20.6381 144.96 24.3439 144.96H301.333C305.048 144.96 307.176 143.545 307.195 143.526L318.284 135.943L318.294 135.934C324.992 130.803 325.629 126.394 325.639 126.346V126.337V93.6504V93.6409L325.401 93.6694Z"
        fill="white" />
    <path
        d="M325.401 69.8767H325.192V72.7178H325.61C325.61 54.3791 318.959 41.8652 318.949 41.8557L318.769 41.9507L318.978 41.9222L317.895 33.5225L317.686 33.5511L317.505 33.6556C320.08 37.7984 321.848 43.6515 323.035 49.0581C324.527 55.8899 325.192 62.8738 325.192 69.8672H325.401H325.61C325.61 62.8453 324.936 55.8329 323.444 48.9726C322.247 43.5375 320.479 37.6559 317.857 33.437L317.344 32.6199L318.55 42.0077L318.569 42.0457C318.569 42.0457 318.664 42.2358 318.854 42.6063C320.118 45.2289 325.183 56.7546 325.183 72.7083H325.601V69.8672H325.401V69.8767Z"
        fill="white" />
    <path
        d="M325.402 72.7177H325.193V90.3817L318.978 41.9222L318.769 41.9507L318.579 42.0457C318.579 42.0457 318.674 42.2358 318.864 42.6063C320.128 45.2289 325.193 56.7546 325.193 72.7082H325.402H325.611C325.611 54.3696 318.959 41.8652 318.95 41.8462L318.418 40.839L325.202 93.6789L325.62 93.6504V72.7082H325.402V72.7177Z"
        fill="white" />
    <path d="M198.513 741.26H198.504V744.063H198.513V741.26Z" fill="white" />
    <path
        d="M198.513 741.259H198.304V744.062H198.513V743.853H198.504V744.062H198.713V741.259H198.504V741.459H198.513V741.259H198.304H198.513V741.05H198.504H198.295V744.271H198.513H198.723V741.05H198.513V741.259Z"
        fill="white" />
    <path
        d="M329.488 307.167L329.678 307.072C329.573 306.853 329.364 306.654 329.127 306.454C328.889 306.264 328.623 306.093 328.386 305.979L328.291 306.169L328.49 306.122L328.452 305.989L328.253 306.036H328.462C328.462 305.941 328.49 305.894 328.566 305.818C328.671 305.713 328.88 305.609 329.089 305.476C329.193 305.409 329.298 305.333 329.374 305.219C329.459 305.115 329.517 304.972 329.517 304.81C329.517 304.601 329.421 304.421 329.298 304.297C329.117 304.107 328.889 304.012 328.728 303.898C328.557 303.775 328.49 303.699 328.49 303.556C328.49 303.461 328.519 303.414 328.595 303.338C328.699 303.233 328.908 303.129 329.117 302.996C329.212 302.929 329.317 302.853 329.402 302.739C329.488 302.625 329.545 302.483 329.545 302.321C329.545 302.102 329.45 301.922 329.326 301.798C329.136 301.618 328.918 301.513 328.756 301.399C328.585 301.276 328.519 301.2 328.519 301.067C328.519 300.972 328.547 300.924 328.623 300.848C328.728 300.744 328.937 300.639 329.146 300.506C329.25 300.44 329.355 300.364 329.431 300.25C329.516 300.145 329.574 300.003 329.574 299.841C329.574 299.622 329.478 299.442 329.355 299.318C329.165 299.128 328.946 299.033 328.785 298.91C328.614 298.796 328.547 298.71 328.547 298.577C328.547 298.482 328.585 298.435 328.652 298.359C328.756 298.254 328.975 298.15 329.174 298.017C329.279 297.95 329.374 297.874 329.459 297.76C329.545 297.656 329.602 297.513 329.602 297.352C329.611 297.133 329.507 296.962 329.383 296.838C329.203 296.648 328.975 296.553 328.813 296.43C328.652 296.306 328.576 296.23 328.576 296.097C328.576 296.002 328.604 295.955 328.68 295.879C328.785 295.774 328.994 295.67 329.203 295.537C329.307 295.47 329.412 295.394 329.488 295.28C329.573 295.176 329.631 295.033 329.631 294.872C329.631 294.662 329.526 294.482 329.412 294.358C329.222 294.168 329.003 294.073 328.842 293.959C328.68 293.836 328.604 293.76 328.604 293.627C328.604 293.532 328.633 293.484 328.709 293.408C328.813 293.304 329.022 293.199 329.231 293.066C329.336 293 329.44 292.924 329.526 292.81C329.611 292.705 329.669 292.553 329.669 292.392C329.669 292.173 329.574 291.992 329.45 291.869C329.26 291.688 329.041 291.584 328.88 291.47C328.709 291.356 328.642 291.27 328.642 291.137C328.652 291.071 328.671 291.014 328.747 290.947C328.861 290.843 329.079 290.738 329.279 290.624C329.383 290.567 329.478 290.501 329.564 290.415C329.65 290.33 329.726 290.206 329.726 290.054C329.726 289.978 329.707 289.893 329.669 289.817C329.535 289.56 329.279 289.313 328.984 289.094C328.69 288.876 328.376 288.695 328.11 288.629C327.759 288.534 327.217 288.515 326.628 288.515C326.523 288.515 326.409 288.515 326.295 288.515H325.393H325.184V343.065H326.295H326.504V342.846H326.295V343.055C326.438 343.055 326.571 343.055 326.704 343.055C327.17 343.055 327.578 343.036 327.873 342.97C328.139 342.903 328.452 342.732 328.756 342.523C329.051 342.314 329.317 342.077 329.459 341.82C329.497 341.744 329.526 341.659 329.526 341.573C329.526 341.374 329.393 341.231 329.279 341.136C329.098 340.994 328.87 340.899 328.699 340.775C328.614 340.718 328.547 340.661 328.509 340.614L328.452 340.471C328.452 340.376 328.481 340.328 328.557 340.252C328.661 340.148 328.87 340.043 329.079 339.91C329.184 339.844 329.288 339.768 329.364 339.654C329.45 339.549 329.507 339.407 329.507 339.245C329.507 339.036 329.412 338.856 329.288 338.732C329.108 338.542 328.88 338.447 328.718 338.333C328.547 338.21 328.481 338.134 328.481 337.991C328.481 337.896 328.509 337.848 328.585 337.772C328.69 337.668 328.899 337.563 329.108 337.44C329.203 337.373 329.307 337.297 329.393 337.183C329.478 337.079 329.535 336.936 329.535 336.775C329.535 336.556 329.44 336.376 329.317 336.252C329.127 336.072 328.908 335.967 328.747 335.853C328.576 335.73 328.509 335.654 328.509 335.521C328.509 335.425 328.538 335.378 328.614 335.302C328.718 335.197 328.927 335.093 329.136 334.969C329.241 334.903 329.345 334.827 329.421 334.713C329.507 334.608 329.564 334.466 329.564 334.295C329.564 334.076 329.469 333.896 329.345 333.772C329.155 333.582 328.937 333.487 328.775 333.364C328.604 333.25 328.538 333.164 328.538 333.031C328.538 332.936 328.576 332.888 328.642 332.812C328.747 332.708 328.965 332.603 329.165 332.47C329.269 332.404 329.364 332.328 329.45 332.214C329.535 332.109 329.592 331.967 329.592 331.805C329.602 331.587 329.497 331.416 329.374 331.283C329.193 331.102 328.965 330.998 328.804 330.884C328.642 330.76 328.566 330.684 328.566 330.551C328.566 330.456 328.595 330.409 328.671 330.332C328.775 330.228 328.984 330.123 329.193 329.99C329.298 329.924 329.402 329.848 329.478 329.734C329.564 329.629 329.621 329.487 329.621 329.325C329.621 329.116 329.516 328.936 329.402 328.812C329.212 328.622 328.994 328.527 328.832 328.413C328.671 328.29 328.595 328.214 328.595 328.081C328.595 327.986 328.623 327.938 328.699 327.862C328.804 327.757 329.013 327.653 329.222 327.529C329.326 327.463 329.431 327.387 329.517 327.273C329.602 327.168 329.659 327.016 329.659 326.855C329.659 326.636 329.564 326.456 329.44 326.332C329.25 326.152 329.032 326.047 328.87 325.933C328.699 325.819 328.633 325.734 328.633 325.601C328.642 325.534 328.661 325.477 328.737 325.411C328.851 325.306 329.07 325.201 329.269 325.087C329.374 325.03 329.469 324.964 329.554 324.878C329.64 324.793 329.716 324.669 329.716 324.517C329.716 324.432 329.697 324.356 329.659 324.28C329.554 324.061 329.345 323.852 329.108 323.662C328.87 323.472 328.604 323.301 328.367 323.187L328.272 323.377L328.471 323.33L328.433 323.197L328.234 323.244H328.443C328.443 323.149 328.471 323.102 328.547 323.026C328.652 322.921 328.861 322.817 329.07 322.683C329.174 322.617 329.279 322.541 329.355 322.427C329.44 322.322 329.497 322.18 329.497 322.018C329.497 321.809 329.402 321.629 329.279 321.505C329.098 321.315 328.87 321.22 328.709 321.106C328.538 320.983 328.471 320.907 328.471 320.764C328.471 320.669 328.5 320.622 328.576 320.546C328.68 320.441 328.889 320.337 329.098 320.204C329.193 320.137 329.298 320.061 329.383 319.947C329.469 319.842 329.526 319.7 329.526 319.538C329.526 319.32 329.431 319.139 329.307 319.016C329.117 318.835 328.899 318.731 328.737 318.617C328.566 318.493 328.5 318.417 328.5 318.284C328.5 318.189 328.528 318.142 328.604 318.066C328.709 317.961 328.918 317.857 329.127 317.724C329.231 317.657 329.336 317.581 329.412 317.467C329.497 317.362 329.554 317.22 329.554 317.058C329.554 316.84 329.459 316.659 329.336 316.536C329.146 316.346 328.927 316.251 328.766 316.127C328.595 316.013 328.528 315.928 328.528 315.795C328.528 315.7 328.566 315.652 328.633 315.576C328.737 315.472 328.956 315.367 329.155 315.234C329.26 315.168 329.355 315.091 329.44 314.977C329.526 314.873 329.583 314.73 329.583 314.569C329.592 314.35 329.488 314.179 329.364 314.046C329.184 313.866 328.956 313.761 328.794 313.647C328.633 313.524 328.557 313.448 328.557 313.315C328.557 313.22 328.585 313.172 328.661 313.096C328.766 312.992 328.975 312.887 329.184 312.754C329.288 312.688 329.393 312.612 329.469 312.498C329.554 312.393 329.611 312.25 329.611 312.089C329.611 311.88 329.507 311.699 329.393 311.576C329.203 311.386 328.984 311.291 328.823 311.177C328.661 311.053 328.585 310.977 328.585 310.844C328.585 310.749 328.614 310.702 328.69 310.626C328.794 310.521 329.003 310.417 329.212 310.284C329.317 310.217 329.421 310.141 329.507 310.027C329.593 309.922 329.649 309.77 329.649 309.609C329.649 309.39 329.554 309.21 329.431 309.086C329.241 308.906 329.022 308.801 328.861 308.687C328.69 308.573 328.623 308.488 328.623 308.355C328.633 308.288 328.652 308.231 328.728 308.165C328.842 308.06 329.06 307.956 329.26 307.842C329.364 307.785 329.459 307.718 329.545 307.633C329.63 307.547 329.706 307.424 329.706 307.271C329.706 307.195 329.687 307.11 329.649 307.034L329.488 307.167L329.298 307.262L329.317 307.309C329.317 307.319 329.317 307.347 329.231 307.414C329.108 307.509 328.889 307.604 328.671 307.737C328.566 307.804 328.462 307.88 328.376 307.984C328.291 308.089 328.234 308.231 328.234 308.383C328.234 308.592 328.329 308.773 328.452 308.896C328.633 309.077 328.861 309.181 329.022 309.295C329.184 309.409 329.26 309.495 329.26 309.628C329.26 309.723 329.231 309.77 329.155 309.846C329.051 309.951 328.832 310.056 328.633 310.189C328.528 310.255 328.433 310.331 328.348 310.445C328.262 310.55 328.205 310.702 328.205 310.863C328.205 311.082 328.3 311.262 328.424 311.376C328.604 311.566 328.832 311.661 328.994 311.775C329.155 311.899 329.231 311.975 329.231 312.108C329.231 312.203 329.193 312.25 329.127 312.326C329.022 312.431 328.804 312.535 328.604 312.659C328.5 312.726 328.405 312.802 328.31 312.916C328.224 313.02 328.167 313.163 328.167 313.324C328.167 313.543 328.262 313.723 328.386 313.847C328.566 314.027 328.794 314.132 328.956 314.246C329.117 314.369 329.193 314.445 329.193 314.578C329.193 314.673 329.165 314.721 329.089 314.797C328.984 314.901 328.775 315.006 328.566 315.139C328.462 315.206 328.357 315.282 328.272 315.396C328.186 315.51 328.129 315.652 328.129 315.814C328.129 316.032 328.224 316.203 328.348 316.327C328.538 316.507 328.756 316.612 328.918 316.726C329.089 316.849 329.155 316.925 329.155 317.068C329.146 317.163 329.117 317.21 329.051 317.286C328.946 317.391 328.728 317.495 328.528 317.629C328.424 317.695 328.329 317.771 328.243 317.885C328.158 317.99 328.101 318.142 328.101 318.303C328.101 318.512 328.196 318.693 328.319 318.816C328.5 318.997 328.728 319.101 328.889 319.215C329.051 319.339 329.127 319.415 329.127 319.557C329.127 319.652 329.098 319.7 329.032 319.766C328.927 319.871 328.709 319.975 328.509 320.108C328.414 320.175 328.31 320.251 328.224 320.365C328.139 320.47 328.082 320.622 328.082 320.783C328.082 321.002 328.186 321.182 328.3 321.306C328.49 321.486 328.709 321.591 328.87 321.705C329.032 321.828 329.108 321.904 329.108 322.037C329.108 322.132 329.079 322.18 329.003 322.256C328.899 322.36 328.68 322.465 328.481 322.598C328.386 322.664 328.281 322.741 328.196 322.855C328.11 322.959 328.053 323.102 328.053 323.273V323.301L328.091 323.463L328.12 323.558L328.215 323.596C328.414 323.691 328.661 323.843 328.87 324.014C329.079 324.185 329.26 324.375 329.307 324.489L329.317 324.536C329.317 324.546 329.317 324.574 329.231 324.641C329.108 324.736 328.889 324.831 328.671 324.964C328.566 325.03 328.462 325.106 328.376 325.211C328.291 325.315 328.234 325.458 328.234 325.61C328.234 325.819 328.329 326 328.452 326.123C328.633 326.304 328.861 326.408 329.022 326.522C329.184 326.636 329.26 326.722 329.26 326.855C329.26 326.95 329.231 326.997 329.155 327.073C329.051 327.178 328.832 327.282 328.633 327.415C328.528 327.482 328.433 327.558 328.348 327.672C328.262 327.776 328.205 327.929 328.205 328.09C328.205 328.309 328.3 328.489 328.424 328.603C328.604 328.793 328.832 328.888 328.994 329.002C329.155 329.126 329.231 329.202 329.231 329.335C329.231 329.43 329.193 329.477 329.127 329.553C329.022 329.658 328.804 329.762 328.604 329.895C328.5 329.962 328.405 330.038 328.31 330.152C328.224 330.256 328.167 330.399 328.167 330.561C328.167 330.779 328.262 330.96 328.386 331.083C328.566 331.264 328.794 331.368 328.956 331.482C329.117 331.606 329.193 331.682 329.193 331.815C329.193 331.91 329.165 331.957 329.089 332.033C328.984 332.138 328.775 332.242 328.566 332.366C328.462 332.432 328.357 332.508 328.272 332.622C328.186 332.736 328.129 332.879 328.129 333.041C328.129 333.259 328.224 333.43 328.348 333.554C328.538 333.734 328.756 333.839 328.918 333.953C329.089 334.076 329.155 334.152 329.155 334.285C329.146 334.38 329.117 334.428 329.051 334.504C328.946 334.608 328.728 334.713 328.528 334.846C328.424 334.912 328.329 334.988 328.243 335.102C328.158 335.207 328.101 335.359 328.101 335.521C328.101 335.73 328.196 335.91 328.319 336.034C328.5 336.214 328.728 336.319 328.889 336.433C329.051 336.556 329.127 336.632 329.127 336.765C329.127 336.86 329.098 336.908 329.032 336.984C328.927 337.088 328.709 337.193 328.509 337.326C328.414 337.392 328.31 337.468 328.224 337.582C328.139 337.687 328.082 337.839 328.082 338.001C328.082 338.219 328.186 338.4 328.3 338.523C328.49 338.704 328.709 338.808 328.87 338.922C329.032 339.046 329.108 339.122 329.108 339.255C329.108 339.35 329.079 339.397 329.003 339.473C328.899 339.578 328.68 339.682 328.481 339.806C328.386 339.872 328.281 339.948 328.196 340.062C328.11 340.167 328.053 340.309 328.053 340.471C328.053 340.68 328.158 340.861 328.281 340.975C328.471 341.155 328.709 341.26 328.88 341.374C328.975 341.421 329.041 341.478 329.079 341.516L329.117 341.583L329.098 341.64C329.032 341.782 328.794 342.01 328.528 342.191C328.262 342.381 327.958 342.533 327.787 342.571C327.569 342.618 327.16 342.647 326.723 342.647C326.59 342.647 326.457 342.647 326.324 342.647H326.115V342.656H325.63V288.942H326.324C326.428 288.942 326.542 288.942 326.647 288.942C327.208 288.942 327.759 288.971 328.015 289.037C328.186 289.085 328.481 289.237 328.737 289.436C328.994 289.626 329.231 289.874 329.298 290.016L329.307 290.064C329.307 290.073 329.307 290.102 329.222 290.168C329.098 290.263 328.88 290.358 328.661 290.491C328.557 290.558 328.452 290.634 328.367 290.738C328.281 290.843 328.224 290.985 328.224 291.137C328.224 291.346 328.319 291.527 328.443 291.65C328.623 291.831 328.851 291.935 329.013 292.049C329.174 292.163 329.25 292.249 329.25 292.382C329.25 292.477 329.222 292.525 329.146 292.601C329.041 292.705 328.823 292.81 328.623 292.943C328.519 293.009 328.424 293.085 328.338 293.199C328.253 293.304 328.196 293.456 328.196 293.617C328.196 293.836 328.291 294.016 328.414 294.13C328.595 294.32 328.823 294.415 328.984 294.529C329.146 294.653 329.222 294.729 329.222 294.862C329.222 294.957 329.184 295.005 329.117 295.081C329.013 295.185 328.794 295.29 328.595 295.423C328.49 295.489 328.395 295.565 328.3 295.679C328.215 295.784 328.158 295.926 328.158 296.097C328.158 296.316 328.253 296.496 328.376 296.62C328.557 296.8 328.785 296.905 328.946 297.019C329.108 297.142 329.184 297.218 329.184 297.352C329.184 297.447 329.155 297.494 329.079 297.57C328.975 297.675 328.766 297.779 328.557 297.912C328.452 297.979 328.348 298.055 328.262 298.169C328.177 298.273 328.12 298.416 328.12 298.577C328.12 298.796 328.215 298.967 328.338 299.09C328.528 299.271 328.747 299.375 328.908 299.489C329.079 299.613 329.146 299.689 329.146 299.831C329.136 299.927 329.108 299.974 329.041 300.05C328.937 300.155 328.718 300.259 328.519 300.392C328.414 300.459 328.319 300.535 328.234 300.649C328.148 300.753 328.091 300.905 328.091 301.067C328.091 301.276 328.186 301.456 328.31 301.58C328.49 301.76 328.718 301.865 328.88 301.979C329.041 302.102 329.117 302.178 329.117 302.321C329.117 302.416 329.089 302.464 329.022 302.53C328.918 302.635 328.699 302.739 328.5 302.872C328.405 302.939 328.3 303.015 328.215 303.129C328.129 303.233 328.072 303.385 328.072 303.547C328.072 303.765 328.177 303.946 328.291 304.069C328.481 304.25 328.699 304.354 328.861 304.468C329.022 304.592 329.098 304.668 329.098 304.801C329.098 304.896 329.07 304.943 328.994 305.02C328.889 305.124 328.671 305.229 328.471 305.352C328.376 305.419 328.272 305.495 328.186 305.609C328.101 305.713 328.044 305.856 328.044 306.027V306.055L328.082 306.217L328.11 306.312L328.205 306.35C328.405 306.445 328.652 306.597 328.861 306.768C329.07 306.939 329.25 307.129 329.298 307.252L329.488 307.167Z"
        fill="white" />
</svg>