<svg width="117" height="13" viewBox="0 0 117 13" fill="none" xmlns="http://www.w3.org/2000/svg">
<path d="M7.76711 4.64706C7.69049 4.38069 7.58284 4.14534 7.44418 3.941C7.30553 3.73301 7.13585 3.55786 6.93516 3.41556C6.73812 3.2696 6.51189 3.15831 6.25646 3.08168C6.00469 3.00505 5.72555 2.96674 5.41904 2.96674C4.84616 2.96674 4.34261 3.10905 3.90839 3.39366C3.47781 3.67828 3.14211 4.09243 2.90129 4.63612C2.66046 5.17616 2.54004 5.83661 2.54004 6.61748C2.54004 7.39834 2.65863 8.06245 2.89581 8.60978C3.13299 9.15712 3.46869 9.57492 3.90291 9.86319C4.33713 10.1478 4.84981 10.2901 5.44093 10.2901C5.97732 10.2901 6.43526 10.1952 6.81475 10.0055C7.19788 9.8121 7.4898 9.54026 7.69049 9.18996C7.89482 8.83966 7.99699 8.42551 7.99699 7.94751L8.47865 8.01866H5.58871V6.23434H10.2794V7.64647C10.2794 8.63168 10.0714 9.47822 9.65542 10.1861C9.23945 10.8904 8.66657 11.434 7.93679 11.8172C7.207 12.1967 6.3714 12.3864 5.42998 12.3864C4.3791 12.3864 3.45592 12.1547 2.66046 11.6913C1.86499 11.2242 1.24468 10.562 0.799512 9.70446C0.357994 8.84331 0.137234 7.82162 0.137234 6.63937C0.137234 5.73079 0.268595 4.92073 0.531317 4.20919C0.797688 3.49401 1.16988 2.88829 1.64788 2.39204C2.12589 1.89578 2.68235 1.51812 3.31726 1.25905C3.95217 0.999974 4.63999 0.870438 5.38072 0.870438C6.01563 0.870438 6.60676 0.963485 7.15409 1.14958C7.70143 1.33203 8.18674 1.5911 8.61001 1.9268C9.03693 2.2625 9.38541 2.66205 9.65542 3.12547C9.92544 3.58523 10.0988 4.09243 10.1754 4.64706H7.76711ZM12.0596 12.2332V1.02369H16.4821C17.3286 1.02369 18.0511 1.17512 18.6495 1.47798C19.2516 1.77719 19.7095 2.20229 20.0234 2.75328C20.3408 3.30061 20.4995 3.94465 20.4995 4.68538C20.4995 5.42976 20.339 6.07014 20.0179 6.60653C19.6968 7.13927 19.2315 7.54795 18.6222 7.83256C18.0165 8.11718 17.283 8.25949 16.4219 8.25949H13.4608V6.35475H16.0387C16.4912 6.35475 16.867 6.29272 17.1663 6.16866C17.4655 6.0446 17.6881 5.8585 17.834 5.61038C17.9836 5.36225 18.0584 5.05392 18.0584 4.68538C18.0584 4.31319 17.9836 3.99938 17.834 3.74396C17.6881 3.48853 17.4636 3.29514 17.1608 3.16378C16.8616 3.02877 16.4839 2.96127 16.0278 2.96127H14.4296V12.2332H12.0596ZM18.1131 7.13197L20.8991 12.2332H18.2828L15.5571 7.13197H18.1131ZM24.5444 1.02369V12.2332H22.1744V1.02369H24.5444ZM26.4942 12.2332V1.02369H28.8642V10.2792H33.6698V12.2332H26.4942ZM35.2393 12.2332V1.02369H37.6093V10.2792H42.4149V12.2332H35.2393ZM50.0653 4.24751C50.0215 3.80599 49.8336 3.46299 49.5016 3.21851C49.1695 2.97404 48.7189 2.8518 48.1496 2.8518C47.7629 2.8518 47.4363 2.90653 47.1699 3.016C46.9035 3.12182 46.6992 3.2696 46.5569 3.45934C46.4182 3.64909 46.3489 3.86437 46.3489 4.1052C46.3416 4.30589 46.3836 4.48104 46.4748 4.63064C46.5697 4.78025 46.6992 4.90979 46.8634 5.01925C47.0276 5.12507 47.2173 5.21812 47.4326 5.29839C47.6479 5.37502 47.8778 5.4407 48.1223 5.49544L49.1294 5.73626C49.6183 5.84573 50.0671 5.99169 50.4758 6.17413C50.8845 6.35658 51.2384 6.58099 51.5377 6.84736C51.8369 7.11373 52.0686 7.42754 52.2328 7.78878C52.4006 8.15002 52.4864 8.56417 52.49 9.03123C52.4864 9.71723 52.3112 10.312 51.9646 10.8156C51.6216 11.3155 51.1253 11.7041 50.4758 11.9814C49.83 12.255 49.0509 12.3919 48.1387 12.3919C47.2338 12.3919 46.4456 12.2532 45.7742 11.9759C45.1064 11.6986 44.5846 11.2881 44.2088 10.7444C43.8366 10.1971 43.6414 9.52019 43.6232 8.71378H45.9165C45.942 9.08962 46.0497 9.40342 46.2394 9.6552C46.4328 9.90332 46.6901 10.0912 47.0112 10.219C47.3359 10.343 47.7026 10.405 48.1113 10.405C48.5127 10.405 48.8612 10.3467 49.1567 10.2299C49.4559 10.1131 49.6877 9.95076 49.8519 9.74277C50.0161 9.53478 50.0982 9.29578 50.0982 9.02576C50.0982 8.77398 50.0234 8.56235 49.8737 8.39085C49.7278 8.21935 49.5125 8.07339 49.2279 7.95298C48.9469 7.83256 48.6021 7.7231 48.1934 7.62458L46.9729 7.31807C46.0278 7.08819 45.2816 6.72877 44.7343 6.23981C44.1869 5.75086 43.9151 5.09223 43.9187 4.26393C43.9151 3.58523 44.0957 2.99228 44.4606 2.48508C44.8291 1.97788 45.3345 1.58198 45.9767 1.29736C46.6189 1.01275 47.3487 0.870438 48.1661 0.870438C48.998 0.870438 49.7241 1.01275 50.3445 1.29736C50.9684 1.58198 51.4537 1.97788 51.8004 2.48508C52.147 2.99228 52.3258 3.57976 52.3368 4.24751H50.0653ZM61.0449 12.3974C60.2713 12.3974 59.6036 12.2587 59.0416 11.9814C58.4797 11.7041 58.0473 11.3282 57.7445 10.8539C57.4452 10.3759 57.2956 9.84312 57.2956 9.25564C57.2956 8.81777 57.3832 8.42916 57.5584 8.08981C57.7335 7.75046 57.978 7.43848 58.2918 7.15387C58.6056 6.8656 58.9705 6.57916 59.3865 6.29455L61.5594 4.866C61.8404 4.6872 62.0465 4.49928 62.1779 4.30224C62.3092 4.10155 62.3749 3.88444 62.3749 3.65091C62.3749 3.42833 62.2855 3.22216 62.1067 3.03242C61.9279 2.84268 61.6743 2.74963 61.3459 2.75328C61.127 2.75328 60.9373 2.80254 60.7767 2.90106C60.6161 2.99593 60.4903 3.12182 60.399 3.27872C60.3115 3.43198 60.2677 3.60347 60.2677 3.79322C60.2677 4.02675 60.3334 4.26393 60.4647 4.50476C60.5961 4.74558 60.7712 5.00101 60.9902 5.27103C61.2091 5.5374 61.4481 5.82566 61.7072 6.13582L67.0218 12.2332H64.5916L60.1582 7.29617C59.8663 6.96412 59.5744 6.61748 59.2825 6.25623C58.9942 5.89134 58.7534 5.50456 58.56 5.09588C58.3666 4.68355 58.2699 4.23656 58.2699 3.7549C58.2699 3.21122 58.3958 2.72226 58.6476 2.28804C58.903 1.85382 59.2606 1.51082 59.7203 1.25905C60.1801 1.00362 60.7165 0.875912 61.3295 0.875912C61.9279 0.875912 62.4443 0.99815 62.8785 1.24263C63.3163 1.48346 63.652 1.80456 63.8856 2.20594C64.1228 2.60367 64.2413 3.04154 64.2413 3.51955C64.2413 4.04864 64.11 4.52847 63.8473 4.95905C63.5882 5.38597 63.2233 5.7691 62.7526 6.10845L60.4647 7.75594C60.1546 7.98217 59.9247 8.21388 59.7751 8.45106C59.6291 8.68459 59.5561 8.90899 59.5561 9.12428C59.5561 9.39065 59.6218 9.62965 59.7532 9.84129C59.8845 10.0529 60.0706 10.2208 60.3115 10.3448C60.5523 10.4653 60.8351 10.5255 61.1598 10.5255C61.5539 10.5255 61.9425 10.4361 62.3257 10.2573C62.7124 10.0748 63.0627 9.81757 63.3766 9.48552C63.694 9.14982 63.9476 8.75209 64.1374 8.29233C64.3271 7.83256 64.422 7.32354 64.422 6.76526H66.3541C66.3541 7.45125 66.2793 8.06974 66.1297 8.62073C65.9801 9.16807 65.7721 9.64607 65.5057 10.0548C65.2393 10.4598 64.9346 10.7918 64.5916 11.0509C64.4822 11.1202 64.3764 11.1859 64.2742 11.2479C64.172 11.31 64.0662 11.3757 63.9567 11.445C63.5408 11.7807 63.0755 12.0233 62.561 12.1729C62.0502 12.3226 61.5448 12.3974 61.0449 12.3974ZM71.6044 12.2332V1.02369H76.0269C76.8771 1.02369 77.6014 1.18607 78.1998 1.51082C78.7982 1.83193 79.2543 2.27892 79.5681 2.8518C79.8856 3.42103 80.0443 4.07783 80.0443 4.82221C80.0443 5.56659 79.8838 6.22339 79.5627 6.79262C79.2416 7.36185 78.7763 7.8052 78.167 8.12265C77.5612 8.44011 76.8278 8.59884 75.9667 8.59884H73.1479V6.69958H75.5835C76.0396 6.69958 76.4155 6.62113 76.711 6.46422C77.0103 6.30367 77.2328 6.08291 77.3788 5.80194C77.5284 5.51733 77.6032 5.19075 77.6032 4.82221C77.6032 4.45002 77.5284 4.12527 77.3788 3.84795C77.2328 3.56698 77.0103 3.34987 76.711 3.19662C76.4118 3.03972 76.0324 2.96127 75.5726 2.96127H73.9744V12.2332H71.6044ZM83.9537 1.02369V12.2332H81.5837V1.02369H83.9537ZM85.7832 12.2332V10.8265L91.3769 2.97769H85.7722V1.02369H94.3545V2.43035L88.7552 10.2792H94.3654V12.2332H85.7832ZM96.0635 12.2332V10.8265L101.657 2.97769H96.0526V1.02369H104.635V2.43035L99.0356 10.2792H104.646V12.2332H96.0635ZM108.396 12.2332H105.857L109.726 1.02369H112.781L116.645 12.2332H114.105L111.297 3.58523H111.21L108.396 12.2332ZM108.238 7.82709H114.236V9.67709H108.238V7.82709Z" fill="#717171"/>
</svg>
