<svg width="83" height="17" viewBox="0 0 83 17" fill="none" xmlns="http://www.w3.org/2000/svg">
<path d="M0.0264999 16.2332V1.14349H3.21684V13.6028H9.68595V16.2332H0.0264999ZM14.7846 16.2332H11.3658L16.575 1.14349H20.6864L25.8882 16.2332H22.4694L18.6896 4.59172H18.5717L14.7846 16.2332ZM14.5709 10.3019H22.6463V12.7923H14.5709V10.3019ZM40.3092 6.42635H37.082C37.0231 6.00883 36.9027 5.63797 36.721 5.31378C36.5392 4.98468 36.3059 4.70469 36.021 4.47383C35.7361 4.24297 35.407 4.06613 35.0337 3.94333C34.6653 3.82053 34.265 3.75913 33.8327 3.75913C33.0517 3.75913 32.3714 3.95316 31.7918 4.34121C31.2122 4.72434 30.7627 5.28431 30.4434 6.02111C30.1242 6.753 29.9645 7.64207 29.9645 8.68832C29.9645 9.76405 30.1242 10.6679 30.4434 11.3997C30.7676 12.1316 31.2195 12.6842 31.7991 13.0575C32.3788 13.4309 33.0493 13.6175 33.8106 13.6175C34.238 13.6175 34.6334 13.561 34.9969 13.4481C35.3653 13.3351 35.6919 13.1705 35.9768 12.9544C36.2617 12.7334 36.4975 12.4657 36.6841 12.1513C36.8757 11.8369 37.0083 11.4783 37.082 11.0756L40.3092 11.0903C40.2257 11.7829 40.0169 12.4509 39.6829 13.0944C39.3538 13.7329 38.9093 14.3052 38.3493 14.8111C37.7942 15.3122 37.1311 15.71 36.3599 16.0047C35.5937 16.2946 34.7267 16.4395 33.759 16.4395C32.4131 16.4395 31.2097 16.1349 30.1487 15.5258C29.0926 14.9167 28.2576 14.035 27.6436 12.8807C27.0345 11.7264 26.73 10.3289 26.73 8.68832C26.73 7.04281 27.0394 5.64289 27.6583 4.48857C28.2772 3.33425 29.1172 2.455 30.1782 1.85082C31.2392 1.24173 32.4328 0.937191 33.759 0.937191C34.6334 0.937191 35.4439 1.05999 36.1905 1.30559C36.942 1.55119 37.6076 1.90977 38.1872 2.38132C38.7668 2.84796 39.2384 3.42021 39.6019 4.09806C39.9703 4.77592 40.206 5.55201 40.3092 6.42635ZM56.4635 8.68832C56.4635 10.3338 56.1516 11.7338 55.5278 12.8881C54.9089 14.0424 54.064 14.9241 52.9932 15.5332C51.9273 16.1374 50.7288 16.4395 49.3976 16.4395C48.0566 16.4395 46.8532 16.1349 45.7873 15.5258C44.7214 14.9167 43.879 14.035 43.2601 12.8807C42.6412 11.7264 42.3317 10.3289 42.3317 8.68832C42.3317 7.04281 42.6412 5.64289 43.2601 4.48857C43.879 3.33425 44.7214 2.455 45.7873 1.85082C46.8532 1.24173 48.0566 0.937191 49.3976 0.937191C50.7288 0.937191 51.9273 1.24173 52.9932 1.85082C54.064 2.455 54.9089 3.33425 55.5278 4.48857C56.1516 5.64289 56.4635 7.04281 56.4635 8.68832ZM53.229 8.68832C53.229 7.62242 53.0693 6.72353 52.7501 5.99164C52.4357 5.25975 51.9911 4.70469 51.4164 4.32647C50.8417 3.94825 50.1688 3.75913 49.3976 3.75913C48.6264 3.75913 47.9535 3.94825 47.3788 4.32647C46.8041 4.70469 46.3571 5.25975 46.0378 5.99164C45.7234 6.72353 45.5663 7.62242 45.5663 8.68832C45.5663 9.75423 45.7234 10.6531 46.0378 11.385C46.3571 12.1169 46.8041 12.672 47.3788 13.0502C47.9535 13.4284 48.6264 13.6175 49.3976 13.6175C50.1688 13.6175 50.8417 13.4284 51.4164 13.0502C51.9911 12.672 52.4357 12.1169 52.7501 11.385C53.0693 10.6531 53.229 9.75423 53.229 8.68832ZM58.8268 16.2332V1.14349H64.7801C65.9197 1.14349 66.8923 1.34734 67.6979 1.75504C68.5084 2.15782 69.1248 2.73007 69.5472 3.47178C69.9746 4.20858 70.1883 5.07555 70.1883 6.07269C70.1883 7.07473 69.9721 7.93679 69.5399 8.65885C69.1076 9.376 68.4813 9.92615 67.661 10.3093C66.8456 10.6924 65.8583 10.884 64.6991 10.884H60.713V8.31992H64.1833C64.7924 8.31992 65.2984 8.23642 65.7011 8.06941C66.1039 7.9024 66.4036 7.65189 66.6 7.31788C66.8014 6.98386 66.9021 6.5688 66.9021 6.07269C66.9021 5.57166 66.8014 5.14923 66.6 4.80539C66.4036 4.46155 66.1015 4.20121 65.6938 4.02438C65.291 3.84264 64.7826 3.75177 64.1686 3.75177H62.0171V16.2332H58.8268ZM66.9758 9.36618L70.7261 16.2332H67.2042L63.535 9.36618H66.9758ZM72.4429 16.2332V1.14349H82.6107V3.77387H75.6332V7.36945H82.0876V9.99983H75.6332V13.6028H82.6402V16.2332H72.4429Z" fill="#717171"/>
</svg>
