<svg width="94" height="20" viewBox="0 0 94 20" fill="none" xmlns="http://www.w3.org/2000/svg">
<path d="M0 5.95843V2.00498L8.72485 6.90911V4.93508L17.3057 0V4.0281L8.72485 8.96318L17.3057 13.9516V17.8997L8.72485 12.9112V14.8878L0 20V15.9102L8.72485 10.8662L0 5.95843Z" fill="white"/>
<path d="M28.5858 8.93167V15.769H25.3057V3.94225H28.4318V6.02887H28.5704C28.8322 5.34103 29.2711 4.79692 29.8871 4.39653C30.503 3.99102 31.2499 3.78826 32.1277 3.78826C32.949 3.78826 33.665 3.96792 34.2759 4.32724C34.8867 4.68656 35.3615 5.19987 35.7003 5.86718C36.0391 6.52936 36.2085 7.31986 36.2085 8.23869V15.769H32.9284V8.82387C32.9336 8.1001 32.7488 7.53545 32.3741 7.12993C31.9993 6.71928 31.4835 6.51396 30.8264 6.51396C30.385 6.51396 29.9948 6.60892 29.6561 6.79885C29.3224 6.98877 29.0606 7.26596 28.8707 7.63041C28.6859 7.98973 28.5909 8.42349 28.5858 8.93167Z" fill="white"/>
<path d="M43.27 16C42.074 16 41.0396 15.7459 40.167 15.2377C39.2995 14.7244 38.6296 14.0109 38.1574 13.0972C37.6851 12.1784 37.449 11.1132 37.449 9.90183C37.449 8.68014 37.6851 7.61245 38.1574 6.69875C38.6296 5.77992 39.2995 5.06641 40.167 4.55823C41.0396 4.04491 42.074 3.78826 43.27 3.78826C44.466 3.78826 45.4978 4.04491 46.3653 4.55823C47.2379 5.06641 47.9104 5.77992 48.3826 6.69875C48.8549 7.61245 49.091 8.68014 49.091 9.90183C49.091 11.1132 48.8549 12.1784 48.3826 13.0972C47.9104 14.0109 47.2379 14.7244 46.3653 15.2377C45.4978 15.7459 44.466 16 43.27 16ZM43.2854 13.4591C43.8295 13.4591 44.2838 13.3051 44.6482 12.9971C45.0127 12.684 45.2873 12.2579 45.4721 11.719C45.662 11.18 45.757 10.5666 45.757 9.87873C45.757 9.19089 45.662 8.57748 45.4721 8.0385C45.2873 7.49952 45.0127 7.07347 44.6482 6.76035C44.2838 6.44722 43.8295 6.29066 43.2854 6.29066C42.7362 6.29066 42.2742 6.44722 41.8994 6.76035C41.5299 7.07347 41.2501 7.49952 41.0602 8.0385C40.8754 8.57748 40.783 9.19089 40.783 9.87873C40.783 10.5666 40.8754 11.18 41.0602 11.719C41.2501 12.2579 41.5299 12.684 41.8994 12.9971C42.2742 13.3051 42.7362 13.4591 43.2854 13.4591Z" fill="white"/>
<path d="M50.3565 15.769V3.94225H53.4826V6.02887H53.6212C53.8676 5.3359 54.2782 4.78922 54.8531 4.38883C55.428 3.98845 56.1159 3.78826 56.9167 3.78826C57.7277 3.78826 58.4181 3.99102 58.9879 4.39653C59.5577 4.79692 59.9375 5.34103 60.1274 6.02887H60.2506C60.4919 5.3513 60.9282 4.80975 61.5596 4.40423C62.1961 3.99358 62.9481 3.78826 63.8156 3.78826C64.9192 3.78826 65.815 4.13988 66.5028 4.84312C67.1958 5.54123 67.5423 6.53192 67.5423 7.81521V15.769H64.2699V8.46198C64.2699 7.80494 64.0954 7.31216 63.7463 6.98364C63.3973 6.65512 62.9609 6.49086 62.4374 6.49086C61.8419 6.49086 61.3774 6.68078 61.0437 7.06064C60.7101 7.43535 60.5432 7.9307 60.5432 8.54668V15.769H57.3632V8.39269C57.3632 7.81264 57.1964 7.35066 56.8628 7.00674C56.5342 6.66282 56.1005 6.49086 55.5615 6.49086C55.1971 6.49086 54.8685 6.58325 54.5759 6.76805C54.2885 6.94771 54.0601 7.2018 53.8907 7.53032C53.7213 7.85371 53.6366 8.23356 53.6366 8.66988V15.769H50.3565Z" fill="white"/>
<path d="M69.3275 15.769V0H72.6076V5.92878H72.7077C72.8514 5.61052 73.0593 5.28714 73.3314 4.95861C73.6086 4.62496 73.9679 4.34777 74.4093 4.12705C74.8559 3.90119 75.4103 3.78826 76.0725 3.78826C76.9348 3.78826 77.7305 4.01412 78.4594 4.46583C79.1883 4.91242 79.7709 5.58742 80.2072 6.49086C80.6435 7.38916 80.8617 8.51588 80.8617 9.87103C80.8617 11.1902 80.6487 12.3041 80.2226 13.2127C79.8017 14.1161 79.2268 14.8014 78.4979 15.2685C77.7741 15.7305 76.9631 15.9615 76.0648 15.9615C75.4283 15.9615 74.8867 15.8563 74.4401 15.6458C73.9987 15.4354 73.6368 15.171 73.3545 14.8527C73.0721 14.5294 72.8565 14.2034 72.7077 13.8749H72.5614V15.769H69.3275ZM72.5383 9.85563C72.5383 10.5589 72.6358 11.1723 72.8309 11.6959C73.0259 12.2194 73.3083 12.6275 73.6779 12.9201C74.0474 13.2076 74.4966 13.3513 75.0253 13.3513C75.5592 13.3513 76.0109 13.205 76.3805 12.9124C76.75 12.6147 77.0298 12.204 77.2197 11.6805C77.4148 11.1517 77.5123 10.5435 77.5123 9.85563C77.5123 9.17292 77.4173 8.57235 77.2274 8.0539C77.0375 7.53545 76.7577 7.12993 76.3881 6.83734C76.0186 6.54475 75.5643 6.39846 75.0253 6.39846C74.4915 6.39846 74.0397 6.53962 73.6702 6.82194C73.3057 7.10427 73.0259 7.50465 72.8309 8.0231C72.6358 8.54155 72.5383 9.15239 72.5383 9.85563Z" fill="white"/>
<path d="M86.5411 15.9615C85.6428 15.9615 84.8292 15.7305 84.1003 15.2685C83.3765 14.8014 82.8016 14.1161 82.3755 13.2127C81.9546 12.3041 81.7441 11.1902 81.7441 9.87103C81.7441 8.51588 81.9623 7.38916 82.3986 6.49086C82.8349 5.58742 83.415 4.91242 84.1388 4.46583C84.8677 4.01412 85.6659 3.78826 86.5334 3.78826C87.1955 3.78826 87.7474 3.90119 88.1888 4.12705C88.6354 4.34777 88.9947 4.62496 89.2668 4.95861C89.544 5.28714 89.7544 5.61052 89.8981 5.92878H89.9982V3.94225H93.2706V15.769H90.0367V13.8749H89.8981C89.7441 14.2034 89.526 14.5294 89.2437 14.8527C88.9665 15.171 88.6046 15.4354 88.158 15.6458C87.7166 15.8563 87.1776 15.9615 86.5411 15.9615ZM87.5805 13.3513C88.1092 13.3513 88.5558 13.2076 88.9203 12.9201C89.2899 12.6275 89.5722 12.2194 89.7672 11.6959C89.9674 11.1723 90.0675 10.5589 90.0675 9.85563C90.0675 9.15239 89.97 8.54155 89.7749 8.0231C89.5799 7.50465 89.2976 7.10427 88.928 6.82194C88.5584 6.53962 88.1092 6.39846 87.5805 6.39846C87.0415 6.39846 86.5873 6.54475 86.2177 6.83734C85.8481 7.12993 85.5683 7.53545 85.3784 8.0539C85.1885 8.57235 85.0935 9.17292 85.0935 9.85563C85.0935 10.5435 85.1885 11.1517 85.3784 11.6805C85.5735 12.204 85.8532 12.6147 86.2177 12.9124C86.5873 13.205 87.0415 13.3513 87.5805 13.3513Z" fill="white"/>
</svg>
