<svg width="119" height="75" viewBox="0 0 119 75" fill="none" xmlns="http://www.w3.org/2000/svg">
<path d="M2.10252 14.0659H7.61084L13.4286 28.2596H13.6762L19.4939 14.0659H25.0023V35.1914H20.6699V21.4412H20.4945L15.0275 35.0883H12.0773L6.61026 21.3897H6.43491V35.1914H2.10252V14.0659ZM32.3235 35.1914H27.5372L34.8301 14.0659H40.5859L47.8685 35.1914H43.0822L37.7905 18.8934H37.6255L32.3235 35.1914ZM32.0243 26.8877H43.3298V30.3742H32.0243V26.8877ZM50.4112 35.1914V14.0659H58.7459C60.3413 14.0659 61.7029 14.3513 62.8307 14.922C63.9653 15.4859 64.8284 16.2871 65.4198 17.3255C66.0181 18.357 66.3172 19.5708 66.3172 20.9667C66.3172 22.3696 66.0146 23.5765 65.4095 24.5874C64.8043 25.5914 63.9275 26.3616 62.7791 26.898C61.6375 27.4344 60.2553 27.7026 58.6324 27.7026H53.0519V24.1129H57.9103C58.763 24.1129 59.4714 23.996 60.0352 23.7622C60.5991 23.5284 61.0186 23.1776 61.2937 22.71C61.5757 22.2424 61.7166 21.6613 61.7166 20.9667C61.7166 20.2653 61.5757 19.6739 61.2937 19.1925C61.0186 18.7112 60.5957 18.3467 60.0249 18.0991C59.461 17.8447 58.7493 17.7175 57.8897 17.7175H54.8777V35.1914H50.4112ZM61.8198 25.5776L67.0702 35.1914H62.1396L57.0026 25.5776H61.8198ZM73.9401 14.0659V35.1914H69.4737V14.0659H73.9401ZM97.0281 24.6286C97.0281 26.9324 96.5915 28.8923 95.7181 30.5083C94.8516 32.1244 93.6688 33.3587 92.1697 34.2115C90.6774 35.0573 88.9995 35.4802 87.1359 35.4802C85.2585 35.4802 83.5737 35.0539 82.0814 34.2011C80.5891 33.3484 79.4098 32.114 78.5433 30.498C77.6768 28.8819 77.2436 26.9255 77.2436 24.6286C77.2436 22.3249 77.6768 20.365 78.5433 18.749C79.4098 17.1329 80.5891 15.902 82.0814 15.0561C83.5737 14.2034 85.2585 13.7771 87.1359 13.7771C88.9995 13.7771 90.6774 14.2034 92.1697 15.0561C93.6688 15.902 94.8516 17.1329 95.7181 18.749C96.5915 20.365 97.0281 22.3249 97.0281 24.6286ZM92.4998 24.6286C92.4998 23.1364 92.2763 21.8779 91.8293 20.8533C91.3892 19.8286 90.7668 19.0516 89.9622 18.522C89.1576 17.9925 88.2155 17.7278 87.1359 17.7278C86.0562 17.7278 85.1141 17.9925 84.3095 18.522C83.5049 19.0516 82.8791 19.8286 82.4321 20.8533C81.992 21.8779 81.772 23.1364 81.772 24.6286C81.772 26.1209 81.992 27.3794 82.4321 28.404C82.8791 29.4286 83.5049 30.2057 84.3095 30.7352C85.1141 31.2648 86.0562 31.5295 87.1359 31.5295C88.2155 31.5295 89.1576 31.2648 89.9622 30.7352C90.7668 30.2057 91.3892 29.4286 91.8293 28.404C92.2763 27.3794 92.4998 26.1209 92.4998 24.6286ZM111.797 20.1415C111.714 19.3094 111.36 18.663 110.734 18.2023C110.109 17.7415 109.259 17.5112 108.187 17.5112C107.458 17.5112 106.842 17.6143 106.34 17.8206C105.838 18.02 105.453 18.2986 105.185 18.6561C104.924 19.0137 104.793 19.4195 104.793 19.8733C104.779 20.2516 104.858 20.5816 105.03 20.8636C105.209 21.1455 105.453 21.3897 105.763 21.596C106.072 21.7954 106.43 21.9708 106.835 22.1221C107.241 22.2665 107.674 22.3902 108.135 22.4934L110.033 22.9473C110.955 23.1536 111.8 23.4286 112.571 23.7725C113.341 24.1163 114.008 24.5392 114.572 25.0413C115.136 25.5433 115.572 26.1347 115.882 26.8155C116.198 27.4963 116.36 28.2768 116.367 29.157C116.36 30.4499 116.03 31.5708 115.376 32.5198C114.73 33.4619 113.795 34.1943 112.571 34.7169C111.353 35.2327 109.885 35.4905 108.166 35.4905C106.461 35.4905 104.975 35.2292 103.71 34.7066C102.451 34.184 101.468 33.4103 100.76 32.3857C100.058 31.3542 99.6903 30.0785 99.6559 28.5587H103.978C104.026 29.267 104.229 29.8584 104.587 30.3329C104.951 30.8006 105.436 31.1547 106.041 31.3954C106.653 31.6292 107.344 31.7461 108.114 31.7461C108.871 31.7461 109.528 31.6361 110.085 31.416C110.648 31.196 111.085 30.89 111.395 30.498C111.704 30.106 111.859 29.6556 111.859 29.1467C111.859 28.6722 111.718 28.2733 111.436 27.9501C111.161 27.6269 110.755 27.3519 110.219 27.1249C109.689 26.898 109.039 26.6917 108.269 26.506L105.969 25.9284C104.188 25.4951 102.781 24.8178 101.75 23.8963C100.718 22.9748 100.206 21.7335 100.213 20.1725C100.206 18.8934 100.546 17.7759 101.234 16.82C101.929 15.8642 102.881 15.118 104.091 14.5816C105.302 14.0453 106.677 13.7771 108.218 13.7771C109.785 13.7771 111.154 14.0453 112.323 14.5816C113.499 15.118 114.414 15.8642 115.067 16.82C115.72 17.7759 116.057 18.8831 116.078 20.1415H111.797Z" fill="#717171"/>
<path d="M8.67336 48.096C8.59674 47.8297 8.48909 47.5943 8.35043 47.39C8.21178 47.182 8.0421 47.0068 7.84141 46.8645C7.64437 46.7186 7.41814 46.6073 7.16271 46.5307C6.91094 46.454 6.6318 46.4157 6.32529 46.4157C5.75241 46.4157 5.24886 46.558 4.81464 46.8426C4.38406 47.1273 4.04836 47.5414 3.80754 48.0851C3.56671 48.6251 3.44629 49.2856 3.44629 50.0665C3.44629 50.8473 3.56488 51.5114 3.80206 52.0588C4.03924 52.6061 4.37494 53.0239 4.80916 53.3122C5.24338 53.5968 5.75606 53.7391 6.34718 53.7391C6.88357 53.7391 7.34151 53.6442 7.721 53.4545C8.10413 53.2611 8.39605 52.9892 8.59674 52.6389C8.80107 52.2886 8.90324 51.8745 8.90324 51.3965L9.3849 51.4676H6.49496V49.6833H11.1856V51.0954C11.1856 52.0807 10.9777 52.9272 10.5617 53.6351C10.1457 54.3393 9.57282 54.883 8.84304 55.2662C8.11325 55.6456 7.27765 55.8354 6.33623 55.8354C5.28535 55.8354 4.36217 55.6037 3.56671 55.1403C2.77124 54.6732 2.15093 54.0109 1.70576 53.1534C1.26424 52.2923 1.04348 51.2706 1.04348 50.0883C1.04348 49.1798 1.17485 48.3697 1.43757 47.6582C1.70394 46.943 2.07613 46.3373 2.55413 45.841C3.03214 45.3448 3.5886 44.9671 4.22351 44.708C4.85842 44.4489 5.54624 44.3194 6.28697 44.3194C6.92188 44.3194 7.51301 44.4125 8.06034 44.5986C8.60768 44.781 9.09299 45.0401 9.51626 45.3758C9.94318 45.7115 10.2917 46.111 10.5617 46.5744C10.8317 47.0342 11.005 47.5414 11.0816 48.096H8.67336ZM12.9659 55.6821V44.4727H17.3883C18.2349 44.4727 18.9574 44.6241 19.5558 44.927C20.1579 45.2262 20.6158 45.6513 20.9296 46.2023C21.2471 46.7496 21.4058 47.3936 21.4058 48.1344C21.4058 48.8787 21.2452 49.5191 20.9241 50.0555C20.603 50.5882 20.1378 50.9969 19.5284 51.2815C18.9227 51.5662 18.1893 51.7085 17.3281 51.7085H14.367V49.8037H16.945C17.3975 49.8037 17.7733 49.7417 18.0725 49.6176C18.3717 49.4936 18.5943 49.3075 18.7403 49.0594C18.8899 48.8112 18.9647 48.5029 18.9647 48.1344C18.9647 47.7622 18.8899 47.4484 18.7403 47.1929C18.5943 46.9375 18.3699 46.7441 18.067 46.6128C17.7678 46.4777 17.3902 46.4102 16.934 46.4102H15.3358V55.6821H12.9659ZM19.0194 50.5809L21.8053 55.6821H19.1891L16.4633 50.5809H19.0194ZM25.4506 44.4727V55.6821H23.0806V44.4727H25.4506ZM27.4005 55.6821V44.4727H29.7705V53.7281H34.5761V55.6821H27.4005ZM36.1456 55.6821V44.4727H38.5155V53.7281H43.3212V55.6821H36.1456ZM50.9716 47.6965C50.9278 47.255 50.7399 46.912 50.4078 46.6675C50.0758 46.423 49.6251 46.3008 49.0559 46.3008C48.6691 46.3008 48.3425 46.3555 48.0762 46.465C47.8098 46.5708 47.6054 46.7186 47.4631 46.9083C47.3245 47.0981 47.2551 47.3133 47.2551 47.5542C47.2479 47.7549 47.2898 47.93 47.381 48.0796C47.4759 48.2292 47.6054 48.3588 47.7696 48.4682C47.9338 48.574 48.1236 48.6671 48.3389 48.7474C48.5542 48.824 48.784 48.8897 49.0285 48.9444L50.0356 49.1852C50.5246 49.2947 50.9734 49.4407 51.3821 49.6231C51.7907 49.8056 52.1447 50.03 52.4439 50.2963C52.7431 50.5627 52.9748 50.8765 53.139 51.2378C53.3069 51.599 53.3926 52.0131 53.3963 52.4802C53.3926 53.1662 53.2175 53.761 52.8708 54.2645C52.5278 54.7644 52.0316 55.153 51.3821 55.4304C50.7362 55.704 49.9572 55.8409 49.0449 55.8409C48.14 55.8409 47.3518 55.7022 46.6804 55.4249C46.0127 55.1476 45.4909 54.7371 45.1151 54.1934C44.7429 53.646 44.5477 52.9692 44.5294 52.1628H46.8228C46.8483 52.5386 46.9559 52.8524 47.1457 53.1042C47.3391 53.3523 47.5963 53.5402 47.9174 53.6679C48.2422 53.792 48.6089 53.854 49.0176 53.854C49.419 53.854 49.7674 53.7956 50.063 53.6789C50.3622 53.5621 50.5939 53.3997 50.7581 53.1917C50.9223 52.9838 51.0044 52.7448 51.0044 52.4747C51.0044 52.223 50.9296 52.0113 50.78 51.8398C50.634 51.6683 50.4188 51.5224 50.1341 51.402C49.8532 51.2815 49.5084 51.1721 49.0997 51.0736L47.8791 50.767C46.934 50.5372 46.1878 50.1777 45.6405 49.6888C45.0932 49.1998 44.8213 48.5412 44.825 47.7129C44.8213 47.0342 45.0019 46.4413 45.3668 45.9341C45.7354 45.4269 46.2408 45.031 46.883 44.7463C47.5252 44.4617 48.255 44.3194 49.0723 44.3194C49.9043 44.3194 50.6304 44.4617 51.2507 44.7463C51.8747 45.031 52.36 45.4269 52.7066 45.9341C53.0533 46.4413 53.2321 47.0287 53.243 47.6965H50.9716ZM61.9511 55.8463C61.1776 55.8463 60.5098 55.7077 59.9479 55.4304C59.386 55.153 58.9536 54.7772 58.6507 54.3028C58.3515 53.8248 58.2019 53.2921 58.2019 52.7046C58.2019 52.2667 58.2895 51.8781 58.4646 51.5388C58.6398 51.1994 58.8842 50.8875 59.198 50.6028C59.5118 50.3146 59.8767 50.0281 60.2927 49.7435L62.4656 48.315C62.7466 48.1362 62.9528 47.9483 63.0841 47.7512C63.2155 47.5505 63.2812 47.3334 63.2812 47.0999C63.2812 46.8773 63.1918 46.6711 63.013 46.4814C62.8342 46.2917 62.5806 46.1986 62.2522 46.2023C62.0332 46.2023 61.8435 46.2515 61.683 46.35C61.5224 46.4449 61.3965 46.5708 61.3053 46.7277C61.2177 46.881 61.1739 47.0524 61.1739 47.2422C61.1739 47.4757 61.2396 47.7129 61.371 47.9537C61.5023 48.1946 61.6775 48.45 61.8964 48.72C62.1153 48.9864 62.3544 49.2746 62.6134 49.5848L67.9281 55.6821H65.4979L61.0645 50.7451C60.7725 50.4131 60.4806 50.0665 60.1887 49.7052C59.9005 49.3403 59.6596 48.9535 59.4662 48.5449C59.2728 48.1325 59.1761 47.6855 59.1761 47.2039C59.1761 46.6602 59.302 46.1712 59.5538 45.737C59.8092 45.3028 60.1668 44.9598 60.6266 44.708C61.0864 44.4526 61.6227 44.3249 62.2358 44.3249C62.8342 44.3249 63.3505 44.4471 63.7847 44.6916C64.2226 44.9324 64.5583 45.2535 64.7918 45.6549C65.029 46.0526 65.1476 46.4905 65.1476 46.9685C65.1476 47.4976 65.0162 47.9774 64.7535 48.408C64.4944 48.8349 64.1295 49.2181 63.6588 49.5574L61.371 51.2049C61.0608 51.4311 60.8309 51.6629 60.6813 51.9C60.5354 52.1336 60.4624 52.358 60.4624 52.5733C60.4624 52.8396 60.5281 53.0786 60.6594 53.2903C60.7908 53.5019 60.9769 53.6698 61.2177 53.7938C61.4585 53.9142 61.7413 53.9744 62.0661 53.9744C62.4602 53.9744 62.8488 53.885 63.2319 53.7062C63.6187 53.5238 63.969 53.2665 64.2828 52.9345C64.6003 52.5988 64.8539 52.2011 65.0436 51.7413C65.2333 51.2815 65.3282 50.7725 65.3282 50.2142H67.2603C67.2603 50.9002 67.1855 51.5187 67.0359 52.0697C66.8863 52.617 66.6783 53.095 66.4119 53.5037C66.1456 53.9088 65.8409 54.2408 65.4979 54.4999C65.3884 54.5692 65.2826 54.6349 65.1804 54.6969C65.0783 54.759 64.9724 54.8246 64.863 54.894C64.447 55.2297 63.9818 55.4723 63.4673 55.6219C62.9564 55.7715 62.451 55.8463 61.9511 55.8463ZM72.5106 55.6821V44.4727H76.9331C77.7833 44.4727 78.5076 44.635 79.1061 44.9598C79.7045 45.2809 80.1606 45.7279 80.4744 46.3008C80.7919 46.87 80.9506 47.5268 80.9506 48.2712C80.9506 49.0156 80.79 49.6724 80.4689 50.2416C80.1478 50.8108 79.6826 51.2542 79.0732 51.5716C78.4675 51.8891 77.7341 52.0478 76.8729 52.0478H74.0541V50.1486H76.4898C76.9459 50.1486 77.3217 50.0701 77.6173 49.9132C77.9165 49.7526 78.1391 49.5319 78.285 49.2509C78.4347 48.9663 78.5095 48.6397 78.5095 48.2712C78.5095 47.899 78.4347 47.5742 78.285 47.2969C78.1391 47.016 77.9165 46.7988 77.6173 46.6456C77.3181 46.4887 76.9386 46.4102 76.4788 46.4102H74.8806V55.6821H72.5106ZM84.8599 44.4727V55.6821H82.49V44.4727H84.8599ZM86.6894 55.6821V54.2755L92.2832 46.4267H86.6785V44.4727H95.2607V45.8793L89.6614 53.7281H95.2717V55.6821H86.6894ZM96.9698 55.6821V54.2755L102.564 46.4267H96.9588V44.4727H105.541V45.8793L99.9418 53.7281H105.552V55.6821H96.9698ZM109.303 55.6821H106.763L110.633 44.4727H113.687L117.551 55.6821H115.011L112.204 47.0342H112.116L109.303 55.6821ZM109.144 51.2761H115.143V53.1261H109.144V51.2761Z" fill="#717171"/>
</svg>
