<svg width="1010" height="291" viewBox="0 0 1010 291" fill="none" xmlns="http://www.w3.org/2000/svg">
<path d="M23.5233 227.853L66.1262 243.641L129.585 263.106L191.84 278.897L167.442 199.6L36.0615 172.881L23.5233 227.853Z" stroke="#EEEEEE" stroke-width="0.989806" stroke-miterlimit="10"/>
<path d="M45.403 24.9026L154.379 24.7438L159.214 27.449L174.491 48.616C174.491 48.616 176.753 52.6281 184.805 52.8388L1007.64 51.9049L1008.71 62.2119L60.6517 63.3707L53.2355 63.3815L54.3109 74.303L52.5505 87.7077L37.5691 152.738L36.2888 153.884L166.088 193.001L167.376 197.237L34.7437 169.598C34.7437 169.598 33.6839 169.367 33.0513 171.476L21.7406 218.109L19.1759 217.594L1.26176 182.181L17.9766 63.4328C17.9766 63.4328 17.8215 58.7502 16.3999 57.4386L20.9769 50.2593L151.236 48.724L151.226 41.9859L47.3229 41.0036C47.3229 41.0036 45.0231 40.4878 44.9609 34.2053L43.996 26.3879L45.403 24.9026Z" stroke="#EEEEEE" stroke-width="0.989806" stroke-miterlimit="10"/>
<path d="M77.0058 2.50165L979.36 1.18702C979.36 1.18702 996.151 7.60408 999.984 13.4891L50.9822 14.8717C50.9822 14.8717 69.0923 3.00053 77.0058 2.50165Z" stroke="#EEEEEE" stroke-width="0.989806" stroke-miterlimit="10"/>
<path d="M50.9816 14.8718L999.983 13.4892C1000.1 13.6514 1000.2 13.8211 1000.29 13.9974L1007.58 51.9155L184.752 52.8494C176.7 52.6069 174.437 48.6266 174.437 48.6266L159.161 27.4596L154.325 24.7544L45.4022 24.9131L50.9816 14.8718Z" stroke="#EEEEEE" stroke-width="0.989806" stroke-miterlimit="10"/>
<path d="M199.452 27.7081C194.291 27.7156 190.114 31.9053 190.121 37.0661C190.129 42.2268 194.318 46.4043 199.479 46.3968L231.708 46.3498C236.868 46.3423 241.046 42.1526 241.038 36.9919C241.031 31.8311 236.841 27.6536 231.68 27.6611L199.452 27.7081Z" stroke="#EEEEEE" stroke-width="0.989806" stroke-miterlimit="10"/>
<path d="M299.426 22.3925C292.838 22.4021 287.505 27.7508 287.514 34.3393C287.524 40.9277 292.873 46.2609 299.461 46.2513L332.23 46.2036C338.818 46.194 344.151 40.8452 344.142 34.2568C344.132 27.6683 338.783 22.3351 332.195 22.3447L299.426 22.3925Z" stroke="#EEEEEE" stroke-width="0.989806" stroke-miterlimit="10"/>
<path d="M377.166 34.1981L377.166 34.2087C377.176 41.2828 382.919 47.0091 389.993 46.9988L439.713 46.9264C446.787 46.9161 452.514 41.173 452.503 34.0989L452.503 34.0883C452.493 27.0143 446.75 21.2879 439.676 21.2982L389.956 21.3707C382.882 21.381 377.155 27.124 377.166 34.1981Z" stroke="#EEEEEE" stroke-width="0.989806" stroke-miterlimit="10"/>
<path d="M445.824 88.8086L977.346 88.0342L964.386 108.119L963.445 109.583C954.517 121.827 942.354 131.343 928.321 137.063L909.613 138.267L877.196 140.316L432.625 140.964L432.583 112.051C432.583 112.051 432.465 96.6469 445.824 88.8086Z" stroke="#EEEEEE" stroke-width="0.989806" stroke-miterlimit="10"/>
<path d="M873.658 140.459L432.625 141.017L877.196 140.369L875.84 140.456L873.658 140.459Z" stroke="#EEEEEE" stroke-width="0.989806" stroke-miterlimit="10"/>
<path d="M60.5665 63.3815L92.1808 63.3354L121.895 176.92L40.6826 152.13C40.6826 152.13 59.7017 73.3523 60.5665 63.3815Z" stroke="#EEEEEE" stroke-width="0.989806" stroke-miterlimit="10"/>
<path d="M445.795 69.0072L1006.64 68.1901C1005.52 69.6233 1004.27 70.9546 1002.92 72.1685C995.512 78.9704 984.553 83.4997 984.553 83.4997L978.726 83.5082L978.642 83.7732L897.911 83.8908C897.72 83.6898 894.505 80.4101 884.355 80.4249L531.83 80.9385C521.68 80.9533 518.475 84.2423 518.285 84.4439L514.577 84.4493L462.843 84.3763C461.953 84.3776 461.084 84.4531 460.247 84.5284C455.165 84.8335 450.218 86.2899 445.781 88.7874C432.465 96.6256 432.583 112.115 432.583 112.115L432.625 140.964L431.491 140.966L366.085 253.957C364.477 258.222 361.852 262.03 358.439 265.052C355.026 268.073 350.928 270.217 346.5 271.297L323.592 276.904L290.538 284.983C261.318 292.081 247.701 290.088 247.701 290.088L247.595 217.769L309.94 200.218C309.94 200.218 320.424 196.717 325.813 187.026L395.612 100.917C395.612 100.917 417.121 72.7888 445.795 69.0072Z" stroke="#EEEEEE" stroke-width="0.989806" stroke-miterlimit="10"/>
<path d="M514.577 84.4496L518.285 84.4442" stroke="#EEEEEE" stroke-width="0.989806" stroke-miterlimit="10"/>
<path d="M462.844 84.3765L514.577 84.4494L460.248 84.5286C461.085 84.4532 461.954 84.4095 462.844 84.3765Z" stroke="#EEEEEE" stroke-width="0.989806" stroke-miterlimit="10"/>
<path d="M531.83 80.9386L884.345 80.425C894.494 80.4102 897.709 83.6899 897.9 83.8909L518.285 84.444C518.475 84.2424 521.681 80.9534 531.83 80.9386Z" stroke="#EEEEEE" stroke-width="0.989806" stroke-miterlimit="10"/>
<path d="M92.1807 63.3461L1008.62 62.2228L1008.06 66.0907C1007.63 66.8283 1007.15 67.5369 1006.63 68.2117L445.796 69.0287C417.196 72.8103 395.581 100.939 395.581 100.939L325.782 187.048C320.425 196.739 309.909 200.24 309.909 200.24L247.596 217.77L247.701 290.088L192.593 279.055L167.343 197.195L166.055 192.959C166.055 192.959 166.051 189.781 160.582 188.666L121.863 176.877L92.1807 63.3461Z" stroke="#EEEEEE" stroke-width="0.989806" stroke-miterlimit="10"/>
<path d="M323.551 276.904L324.318 279.869L321.589 283.422C320.831 284.404 319.752 285.088 318.541 285.355L297.793 290.026C297.05 290.186 296.275 290.082 295.6 289.732L291.422 287.503L290.592 284.983L323.551 276.904Z" stroke="#EEEEEE" stroke-width="0.989806" stroke-miterlimit="10"/>
<path d="M452.649 140.935L452.331 140.936L438.018 140.956C438.018 140.956 440.254 140.953 440.653 146.027C440.724 146.886 441.101 147.69 441.716 148.293C441.876 148.455 442.046 148.607 442.225 148.748C442.827 149.225 443.514 149.584 444.25 149.804L444.253 151.87L461.204 151.846L461.201 149.78C461.937 149.557 462.623 149.197 463.223 148.717C463.402 148.576 463.571 148.423 463.731 148.261C464.344 147.656 464.719 146.851 464.787 145.992C465.172 140.938 467.407 140.914 467.407 140.914L452.978 140.935L452.649 140.935Z" stroke="#EEEEEE" stroke-width="0.989806" stroke-miterlimit="10"/>
<path d="M873.658 140.459C874.06 140.411 874.465 140.41 874.866 140.457" stroke="#EEEEEE" stroke-width="0.989806" stroke-miterlimit="10"/>
<path d="M916.068 140.26L917.368 145.206C917.503 145.75 917.416 146.327 917.127 146.808C916.838 147.289 916.369 147.636 915.825 147.772L893.488 152.932C892.942 153.05 892.372 152.947 891.901 152.646C891.43 152.345 891.098 151.87 890.975 151.325L890.068 146.909L916.068 140.26Z" stroke="#EEEEEE" stroke-width="0.989806" stroke-miterlimit="10"/>
<path d="M1002.92 72.169L1002.92 73.79C999.288 81.2114 1001.5 89.6838 1001.5 89.6838C1002.19 92.0454 1001.52 98.1594 1001.52 98.1594L964.387 108.119L977.346 88.0345L978.738 83.5086L984.554 83.5001C984.554 83.5001 995.492 78.9709 1002.92 72.169Z" stroke="#EEEEEE" stroke-width="0.989806" stroke-miterlimit="10"/>
<path d="M1001.52 98.1595C1001.7 98.9856 1000.26 99.7081 1000.26 99.7081L963.446 109.583L964.386 108.119L1001.52 98.1595Z" stroke="#EEEEEE" stroke-width="0.989806" stroke-miterlimit="10"/>
<path d="M928.321 137.063L916.068 140.26L890.089 146.93L887.134 147.686L881.534 143.541C879.69 141.842 877.356 140.77 874.866 140.479L875.841 140.477L877.197 140.391L909.613 138.32L928.321 137.063Z" stroke="#EEEEEE" stroke-width="0.989806" stroke-miterlimit="10"/>
<path d="M901.789 83.8853L909.534 83.8528L909.534 83.874L901.789 83.8853Z" stroke="#EEEEEE" stroke-width="0.989806" stroke-miterlimit="10"/>
<path d="M462.844 84.3765L514.577 84.4494L460.248 84.5286C461.085 84.4532 461.954 84.4095 462.844 84.3765Z" stroke="#EEEEEE" stroke-width="0.989806" stroke-miterlimit="10"/>
<path d="M531.83 80.9386L884.345 80.425C894.494 80.4102 897.709 83.6899 897.9 83.8909L518.285 84.444C518.475 84.2424 521.681 80.9534 531.83 80.9386Z" stroke="#EEEEEE" stroke-width="0.989806" stroke-miterlimit="10"/>
<path d="M514.577 84.4495L518.275 84.4441L897.901 83.891L978.642 83.7734L977.335 88.0131L445.824 88.7875C450.261 86.29 455.208 84.8336 460.29 84.5285L514.577 84.4495Z" stroke="#EEEEEE" stroke-width="0.989806" stroke-miterlimit="10"/>
<path d="M514.577 84.4496L518.285 84.4442" stroke="#EEEEEE" stroke-width="0.989806" stroke-miterlimit="10"/>
</svg>
