<svg width="2097" height="604" viewBox="0 0 2097 604" fill="none" xmlns="http://www.w3.org/2000/svg">
<path d="M46.8548 473.101L135.48 505.977L267.491 546.512L397 579.395L346.245 414.266L72.9375 358.626L46.8548 473.101Z" stroke="#EEEEEE" stroke-width="0.989806" stroke-miterlimit="10"/>
<path d="M92.3702 50.4739L319.07 50.1433L329.129 55.7766L360.908 99.855C360.908 99.855 365.614 108.21 382.365 108.649L2094.08 106.704L2096.31 128.167L124.092 130.58L108.664 130.603L110.901 153.346L107.239 181.26L76.0736 316.68L73.4103 319.067L343.427 400.525L346.107 409.346L70.196 351.79C70.196 351.79 67.9914 351.308 66.6754 355.7L43.146 452.809L37.8109 451.736L0.544585 377.992L35.316 130.71C35.316 130.71 34.9932 120.959 32.036 118.227L41.5574 103.277L312.531 100.08L312.511 86.0484L96.3641 84.0029C96.3641 84.0029 91.58 82.9288 91.4507 69.846L89.4435 53.5669L92.3702 50.4739Z" stroke="#EEEEEE" stroke-width="0.989806" stroke-miterlimit="10"/>
<path d="M158.113 3.82615L2035.25 1.08855C2035.25 1.08855 2070.18 14.4515 2078.16 26.7066L103.977 29.5857C103.977 29.5857 141.651 4.86503 158.113 3.82615Z" stroke="#EEEEEE" stroke-width="0.989806" stroke-miterlimit="10"/>
<path d="M103.975 29.5861L2078.16 26.707C2078.39 27.0446 2078.61 27.3981 2078.8 27.765L2093.97 106.726L382.254 108.671C365.503 108.166 360.796 99.8774 360.796 99.8774L329.017 55.799L318.959 50.1656L92.3687 50.4961L103.975 29.5861Z" stroke="#EEEEEE" stroke-width="0.989806" stroke-miterlimit="10"/>
<path d="M412.834 56.3163C402.098 56.3319 393.408 65.0566 393.424 75.8034C393.439 86.5502 402.155 95.2495 412.891 95.2339L479.935 95.1361C490.67 95.1204 499.361 86.3958 499.345 75.649C499.33 64.9022 490.614 56.2028 479.878 56.2185L412.834 56.3163Z" stroke="#EEEEEE" stroke-width="0.989806" stroke-miterlimit="10"/>
<path d="M620.808 45.2469C607.102 45.2669 596.007 56.4053 596.027 70.1251C596.047 83.8449 607.174 94.9508 620.88 94.9308L689.048 94.8314C702.754 94.8114 713.848 83.6731 713.828 69.9533C713.808 56.2335 702.681 45.1275 688.976 45.1475L620.808 45.2469Z" stroke="#EEEEEE" stroke-width="0.989806" stroke-miterlimit="10"/>
<path d="M782.527 69.8312L782.527 69.8533C782.548 84.5844 794.495 96.509 809.211 96.4875L912.643 96.3367C927.359 96.3152 939.271 84.3559 939.249 69.6247L939.249 69.6026C939.228 54.8715 927.281 42.9469 912.565 42.9684L809.134 43.1192C794.418 43.1407 782.505 55.1 782.527 69.8312Z" stroke="#EEEEEE" stroke-width="0.989806" stroke-miterlimit="10"/>
<path d="M925.355 183.553L2031.06 181.94L2004.1 223.766L2002.15 226.813C1983.57 252.312 1958.27 272.128 1929.08 284.039L1890.16 286.545L1822.73 290.813L897.898 292.162L897.81 231.954C897.81 231.954 897.565 199.875 925.355 183.553Z" stroke="#EEEEEE" stroke-width="0.989806" stroke-miterlimit="10"/>
<path d="M1815.37 291.11L897.897 292.272L1822.73 290.923L1819.91 291.104L1815.37 291.11Z" stroke="#EEEEEE" stroke-width="0.989806" stroke-miterlimit="10"/>
<path d="M123.915 130.603L189.681 130.507L251.494 367.036L82.5505 315.414C82.5505 315.414 122.115 151.366 123.915 130.603Z" stroke="#EEEEEE" stroke-width="0.989806" stroke-miterlimit="10"/>
<path d="M925.294 142.318L2092.01 140.616C2089.67 143.601 2087.08 146.373 2084.26 148.901C2068.86 163.066 2046.06 172.497 2046.06 172.497L2033.94 172.515L2033.76 173.067L1865.82 173.312C1865.42 172.893 1858.73 166.064 1837.62 166.094L1104.27 167.164C1083.16 167.195 1076.49 174.044 1076.09 174.464L1068.38 174.475L960.758 174.323C958.907 174.326 957.1 174.483 955.359 174.64C944.786 175.275 934.496 178.308 925.266 183.508C897.564 199.831 897.809 232.086 897.809 232.086L897.896 292.161L895.538 292.165L759.477 527.46C756.13 536.341 750.67 544.271 743.571 550.564C736.471 556.856 727.946 561.32 718.734 563.57L671.079 575.244L602.317 592.067C541.531 606.85 513.204 602.699 513.204 602.699L512.985 452.102L642.68 415.554C642.68 415.554 664.488 408.263 675.699 388.082L820.9 208.768C820.9 208.768 865.644 150.193 925.294 142.318Z" stroke="#EEEEEE" stroke-width="0.989806" stroke-miterlimit="10"/>
<path d="M1068.38 174.476L1076.09 174.464" stroke="#EEEEEE" stroke-width="0.989806" stroke-miterlimit="10"/>
<path d="M960.76 174.323L1068.38 174.475L955.361 174.64C957.101 174.483 958.909 174.392 960.76 174.323Z" stroke="#EEEEEE" stroke-width="0.989806" stroke-miterlimit="10"/>
<path d="M1104.27 167.164L1837.6 166.095C1858.71 166.064 1865.4 172.894 1865.8 173.312L1076.09 174.464C1076.49 174.044 1083.16 167.195 1104.27 167.164Z" stroke="#EEEEEE" stroke-width="0.989806" stroke-miterlimit="10"/>
<path d="M189.681 130.529L2096.11 128.19L2094.96 136.244C2094.06 137.781 2093.07 139.256 2091.99 140.661L925.295 142.363C865.8 150.238 820.836 208.813 820.836 208.813L675.634 388.127C664.49 408.308 642.615 415.599 642.615 415.599L512.986 452.102L513.206 602.7L398.566 579.724L346.039 409.258L343.36 400.437C343.36 400.437 343.35 393.818 331.974 391.496L251.427 366.948L189.681 130.529Z" stroke="#EEEEEE" stroke-width="0.989806" stroke-miterlimit="10"/>
<path d="M670.993 575.245L672.588 581.42L666.913 588.819C665.335 590.862 663.091 592.287 660.572 592.844L617.41 602.57C615.865 602.902 614.251 602.686 612.847 601.959L604.157 597.316L602.43 592.068L670.993 575.245Z" stroke="#EEEEEE" stroke-width="0.989806" stroke-miterlimit="10"/>
<path d="M939.553 292.102L938.892 292.103L909.116 292.146C909.116 292.146 913.767 292.139 914.597 302.706C914.746 304.493 915.53 306.167 916.808 307.424C917.141 307.761 917.495 308.078 917.868 308.371C919.119 309.366 920.549 310.112 922.08 310.571L922.087 314.873L957.35 314.822L957.343 310.52C958.873 310.056 960.301 309.305 961.55 308.307C961.921 308.013 962.274 307.695 962.606 307.357C963.881 306.097 964.661 304.42 964.803 302.633C965.604 292.108 970.254 292.057 970.254 292.057L940.236 292.101L939.553 292.102Z" stroke="#EEEEEE" stroke-width="0.989806" stroke-miterlimit="10"/>
<path d="M1815.37 291.11C1816.2 291.01 1817.04 291.008 1817.88 291.107" stroke="#EEEEEE" stroke-width="0.989806" stroke-miterlimit="10"/>
<path d="M1903.59 290.695L1906.29 300.994C1906.58 302.129 1906.4 303.329 1905.79 304.331C1905.19 305.333 1904.22 306.055 1903.08 306.338L1856.62 317.084C1855.48 317.329 1854.3 317.115 1853.32 316.488C1852.34 315.862 1851.64 314.873 1851.39 313.738L1849.5 304.541L1903.59 290.695Z" stroke="#EEEEEE" stroke-width="0.989806" stroke-miterlimit="10"/>
<path d="M2084.26 148.902L2084.27 152.278C2076.71 167.732 2081.32 185.375 2081.32 185.375C2082.74 190.293 2081.35 203.025 2081.35 203.025L2004.11 223.766L2031.06 181.941L2033.96 172.516L2046.06 172.498C2046.06 172.498 2068.81 163.067 2084.26 148.902Z" stroke="#EEEEEE" stroke-width="0.989806" stroke-miterlimit="10"/>
<path d="M2081.35 203.025C2081.72 204.745 2078.73 206.25 2078.73 206.25L2002.15 226.813L2004.11 223.766L2081.35 203.025Z" stroke="#EEEEEE" stroke-width="0.989806" stroke-miterlimit="10"/>
<path d="M1929.08 284.039L1903.59 290.695L1849.55 304.585L1843.4 306.16L1831.75 297.529C1827.91 293.99 1823.06 291.758 1817.88 291.151L1819.91 291.148L1822.73 290.968L1890.16 286.655L1929.08 284.039Z" stroke="#EEEEEE" stroke-width="0.989806" stroke-miterlimit="10"/>
<path d="M1873.89 173.3L1890 173.233L1890 173.277L1873.89 173.3Z" stroke="#EEEEEE" stroke-width="0.989806" stroke-miterlimit="10"/>
<path d="M960.76 174.323L1068.38 174.475L955.361 174.64C957.101 174.483 958.909 174.392 960.76 174.323Z" stroke="#EEEEEE" stroke-width="0.989806" stroke-miterlimit="10"/>
<path d="M1104.27 167.164L1837.6 166.095C1858.71 166.064 1865.4 172.894 1865.8 173.312L1076.09 174.464C1076.49 174.044 1083.16 167.195 1104.27 167.164Z" stroke="#EEEEEE" stroke-width="0.989806" stroke-miterlimit="10"/>
<path d="M1068.38 174.475L1076.07 174.464L1865.8 173.312L2033.76 173.067L2031.04 181.896L925.355 183.509C934.585 178.308 944.876 175.275 955.449 174.64L1068.38 174.475Z" stroke="#EEEEEE" stroke-width="0.989806" stroke-miterlimit="10"/>
<path d="M1068.38 174.476L1076.09 174.464" stroke="#EEEEEE" stroke-width="0.989806" stroke-miterlimit="10"/>
</svg>
