<svg width="55" height="40" viewBox="0 0 55 40" fill="none" xmlns="http://www.w3.org/2000/svg">
<path d="M6.57989 3.61885C6.53611 3.17733 6.34819 2.83433 6.01614 2.58985C5.68408 2.34537 5.23344 2.22314 4.66421 2.22314C4.27743 2.22314 3.95085 2.27787 3.68448 2.38734C3.41811 2.49316 3.21377 2.64094 3.07146 2.83068C2.9328 3.02042 2.86348 3.23571 2.86348 3.47654C2.85618 3.67723 2.89814 3.85238 2.98936 4.00198C3.08423 4.15159 3.21377 4.28112 3.37797 4.39059C3.54217 4.49641 3.73192 4.58946 3.9472 4.66973C4.16249 4.74636 4.39237 4.81204 4.63685 4.86677L5.64395 5.1076C6.1329 5.21707 6.58172 5.36303 6.9904 5.54547C7.39907 5.72792 7.75302 5.95233 8.05223 6.2187C8.35144 6.48507 8.58315 6.79887 8.74735 7.16012C8.9152 7.52136 9.00095 7.93551 9.0046 8.40257C9.00095 9.08857 8.8258 9.68334 8.47915 10.1869C8.13615 10.6868 7.6399 11.0754 6.9904 11.3527C6.34454 11.6264 5.5655 11.7632 4.65327 11.7632C3.74834 11.7632 2.96017 11.6246 2.28877 11.3472C1.62102 11.0699 1.09923 10.6594 0.723387 10.1157C0.351198 9.5684 0.155981 8.89153 0.137737 8.08512H2.43108C2.45662 8.46095 2.56426 8.77476 2.75401 9.02653C2.9474 9.27466 3.20465 9.46258 3.52575 9.59029C3.85051 9.71436 4.21722 9.77639 4.6259 9.77639C5.02728 9.77639 5.37575 9.718 5.67131 9.60124C5.97052 9.48447 6.20223 9.3221 6.36643 9.11411C6.53063 8.90612 6.61273 8.66712 6.61273 8.3971C6.61273 8.14532 6.53793 7.93369 6.38833 7.76219C6.24237 7.59069 6.02708 7.44473 5.74247 7.32432C5.4615 7.2039 5.11668 7.09444 4.708 6.99591L3.48744 6.68941C2.54237 6.45952 1.79617 6.10011 1.24883 5.61115C0.701494 5.1222 0.42965 4.46357 0.433299 3.63526C0.42965 2.95657 0.610271 2.36362 0.975162 1.85642C1.3437 1.34922 1.84908 0.953314 2.49129 0.668699C3.13349 0.384084 3.86328 0.241776 4.68063 0.241776C5.51259 0.241776 6.23872 0.384084 6.85904 0.668699C7.483 0.953314 7.9683 1.34922 8.31495 1.85642C8.6616 2.36362 8.84039 2.95109 8.85134 3.61885H6.57989ZM10.5987 0.39503H13.5215L16.6085 7.92639H16.7398L19.8268 0.39503H22.7496V11.6045H20.4508V4.30849H20.3577L17.4568 11.5498H15.8915L12.9906 4.28112H12.8975V11.6045H10.5987V0.39503ZM35.0031 5.99976C35.0031 7.22215 34.7714 8.26209 34.308 9.11958C33.8482 9.97708 33.2206 10.6321 32.4251 11.0845C31.6333 11.5333 30.743 11.7577 29.7541 11.7577C28.758 11.7577 27.864 11.5315 27.0722 11.079C26.2804 10.6266 25.6546 9.9716 25.1948 9.11411C24.7351 8.25661 24.5052 7.2185 24.5052 5.99976C24.5052 4.77738 24.7351 3.73744 25.1948 2.87994C25.6546 2.02245 26.2804 1.36929 27.0722 0.920474C27.864 0.468009 28.758 0.241776 29.7541 0.241776C30.743 0.241776 31.6333 0.468009 32.4251 0.920474C33.2206 1.36929 33.8482 2.02245 34.308 2.87994C34.7714 3.73744 35.0031 4.77738 35.0031 5.99976ZM32.6003 5.99976C32.6003 5.20795 32.4817 4.5402 32.2445 3.99651C32.011 3.45282 31.6808 3.04049 31.2538 2.75953C30.8269 2.47856 30.327 2.33808 29.7541 2.33808C29.1813 2.33808 28.6814 2.47856 28.2544 2.75953C27.8275 3.04049 27.4955 3.45282 27.2583 3.99651C27.0248 4.5402 26.908 5.20795 26.908 5.99976C26.908 6.79158 27.0248 7.45933 27.2583 8.00301C27.4955 8.5467 27.8275 8.95903 28.2544 9.24C28.6814 9.52096 29.1813 9.66145 29.7541 9.66145C30.327 9.66145 30.8269 9.52096 31.2538 9.24C31.6808 8.95903 32.011 8.5467 32.2445 8.00301C32.4817 7.45933 32.6003 6.79158 32.6003 5.99976ZM36.7587 11.6045V0.39503H39.1287V5.33748H39.2764L43.3103 0.39503H46.151L41.9912 5.41411L46.2003 11.6045H43.365L40.2945 6.99591L39.1287 8.41899V11.6045H36.7587ZM47.3852 11.6045V0.39503H54.9385V2.34902H49.7552V5.02003H54.5499V6.97402H49.7552V9.6505H54.9604V11.6045H47.3852ZM0.498979 25.6045V14.395H2.86895V19.02H7.68004V14.395H10.0445V25.6045H7.68004V20.974H2.86895V25.6045H0.498979ZM22.2994 19.9998C22.2994 21.2221 22.0677 22.2621 21.6043 23.1196C21.1445 23.9771 20.5169 24.6321 19.7215 25.0845C18.9296 25.5333 18.0393 25.7577 17.0504 25.7577C16.0543 25.7577 15.1603 25.5315 14.3685 25.079C13.5767 24.6266 12.9509 23.9716 12.4911 23.1141C12.0314 22.2566 11.8015 21.2185 11.8015 19.9998C11.8015 18.7774 12.0314 17.7374 12.4911 16.8799C12.9509 16.0224 13.5767 15.3693 14.3685 14.9205C15.1603 14.468 16.0543 14.2418 17.0504 14.2418C18.0393 14.2418 18.9296 14.468 19.7215 14.9205C20.5169 15.3693 21.1445 16.0224 21.6043 16.8799C22.0677 17.7374 22.2994 18.7774 22.2994 19.9998ZM19.8966 19.9998C19.8966 19.2079 19.778 18.5402 19.5408 17.9965C19.3073 17.4528 18.9771 17.0405 18.5502 16.7595C18.1232 16.4786 17.6233 16.3381 17.0504 16.3381C16.4776 16.3381 15.9777 16.4786 15.5507 16.7595C15.1238 17.0405 14.7918 17.4528 14.5546 17.9965C14.3211 18.5402 14.2043 19.2079 14.2043 19.9998C14.2043 20.7916 14.3211 21.4593 14.5546 22.003C14.7918 22.5467 15.1238 22.959 15.5507 23.24C15.9777 23.521 16.4776 23.6614 17.0504 23.6614C17.6233 23.6614 18.1232 23.521 18.5502 23.24C18.9771 22.959 19.3073 22.5467 19.5408 22.003C19.778 21.4593 19.8966 20.7916 19.8966 19.9998ZM30.9788 14.395H33.3488V21.6746C33.3488 22.492 33.1536 23.2072 32.7631 23.8202C32.3763 24.4332 31.8345 24.9112 31.1375 25.2542C30.4406 25.5935 29.6287 25.7632 28.7019 25.7632C27.7714 25.7632 26.9577 25.5935 26.2608 25.2542C25.5638 24.9112 25.022 24.4332 24.6352 23.8202C24.2484 23.2072 24.055 22.492 24.055 21.6746V14.395H26.425V21.4721C26.425 21.899 26.518 22.2785 26.7041 22.6106C26.8938 22.9426 27.1602 23.2035 27.5032 23.3933C27.8462 23.583 28.2458 23.6779 28.7019 23.6779C29.1616 23.6779 29.5612 23.583 29.9006 23.3933C30.2436 23.2035 30.5081 22.9426 30.6942 22.6106C30.8839 22.2785 30.9788 21.899 30.9788 21.4721V14.395ZM41.3796 17.6188C41.3358 17.1773 41.1479 16.8343 40.8158 16.5899C40.4838 16.3454 40.0331 16.2231 39.4639 16.2231C39.0771 16.2231 38.7505 16.2779 38.4842 16.3873C38.2178 16.4932 38.0135 16.6409 37.8711 16.8307C37.7325 17.0204 37.6632 17.2357 37.6632 17.4765C37.6559 17.6772 37.6978 17.8524 37.789 18.002C37.8839 18.1516 38.0135 18.2811 38.1777 18.3906C38.3419 18.4964 38.5316 18.5895 38.7469 18.6697C38.9622 18.7464 39.1921 18.812 39.4365 18.8668L40.4436 19.1076C40.9326 19.2171 41.3814 19.363 41.7901 19.5455C42.1988 19.7279 42.5527 19.9523 42.8519 20.2187C43.1511 20.4851 43.3828 20.7989 43.547 21.1601C43.7149 21.5214 43.8006 21.9355 43.8043 22.4026C43.8006 23.0886 43.6255 23.6833 43.2788 24.1869C42.9358 24.6868 42.4396 25.0754 41.7901 25.3527C41.1442 25.6264 40.3652 25.7632 39.453 25.7632C38.548 25.7632 37.7599 25.6246 37.0885 25.3472C36.4207 25.0699 35.8989 24.6594 35.5231 24.1157C35.1509 23.5684 34.9557 22.8915 34.9374 22.0851H37.2308C37.2563 22.461 37.364 22.7748 37.5537 23.0265C37.7471 23.2747 38.0043 23.4626 38.3254 23.5903C38.6502 23.7144 39.0169 23.7764 39.4256 23.7764C39.827 23.7764 40.1754 23.718 40.471 23.6012C40.7702 23.4845 41.0019 23.3221 41.1661 23.1141C41.3303 22.9061 41.4124 22.6671 41.4124 22.3971C41.4124 22.1453 41.3376 21.9337 41.188 21.7622C41.0421 21.5907 40.8268 21.4447 40.5422 21.3243C40.2612 21.2039 39.9164 21.0944 39.5077 20.9959L38.2871 20.6894C37.3421 20.4595 36.5959 20.1001 36.0485 19.6112C35.5012 19.1222 35.2293 18.4636 35.233 17.6353C35.2293 16.9566 35.41 16.3636 35.7748 15.8564C36.1434 15.3492 36.6488 14.9533 37.291 14.6687C37.9332 14.3841 38.663 14.2418 39.4803 14.2418C40.3123 14.2418 41.0384 14.3841 41.6587 14.6687C42.2827 14.9533 42.768 15.3492 43.1146 15.8564C43.4613 16.3636 43.6401 16.9511 43.651 17.6188H41.3796ZM45.3984 25.6045V14.395H52.9517V16.349H47.7684V19.02H52.563V20.974H47.7684V23.6505H52.9735V25.6045H45.3984ZM7.93182 32.0184C7.85519 31.752 7.74755 31.5167 7.60889 31.3123C7.47023 31.1043 7.30055 30.9292 7.09986 30.7869C6.90282 30.6409 6.67659 30.5296 6.42117 30.453C6.16939 30.3764 5.89025 30.3381 5.58374 30.3381C5.01086 30.3381 4.50731 30.4804 4.07309 30.765C3.64252 31.0496 3.30682 31.4638 3.06599 32.0075C2.82516 32.5475 2.70475 33.2079 2.70475 33.9888C2.70475 34.7697 2.82334 35.4338 3.06052 35.9811C3.2977 36.5285 3.6334 36.9463 4.06762 37.2345C4.50184 37.5191 5.01451 37.6614 5.60563 37.6614C6.14202 37.6614 6.59996 37.5666 6.97945 37.3768C7.36259 37.1834 7.6545 36.9116 7.85519 36.5613C8.05953 36.211 8.1617 35.7969 8.1617 35.3188L8.64335 35.39H5.75341V33.6057H10.4441V35.0178C10.4441 36.003 10.2361 36.8496 9.82013 37.5575C9.40415 38.2617 8.83127 38.8054 8.10149 39.1885C7.37171 39.568 6.53611 39.7577 5.59469 39.7577C4.5438 39.7577 3.62062 39.526 2.82516 39.0626C2.0297 38.5956 1.40938 37.9333 0.964216 37.0758C0.522697 36.2147 0.301938 35.193 0.301938 34.0107C0.301938 33.1021 0.433299 32.2921 0.69602 31.5805C0.962391 30.8653 1.33458 30.2596 1.81259 29.7634C2.2906 29.2671 2.84705 28.8895 3.48197 28.6304C4.11688 28.3713 4.8047 28.2418 5.54543 28.2418C6.18034 28.2418 6.77146 28.3348 7.3188 28.5209C7.86614 28.7034 8.35144 28.9624 8.77471 29.2981C9.20164 29.6338 9.55011 30.0334 9.82013 30.4968C10.0901 30.9566 10.2635 31.4638 10.3401 32.0184H7.93182ZM12.2243 39.6045V28.395H16.6468C17.4933 28.395 18.2158 28.5465 18.8142 28.8493C19.4163 29.1485 19.8743 29.5736 20.1881 30.1246C20.5055 30.672 20.6642 31.316 20.6642 32.0567C20.6642 32.8011 20.5037 33.4415 20.1826 33.9779C19.8615 34.5106 19.3962 34.9193 18.7869 35.2039C18.1812 35.4885 17.4477 35.6308 16.5866 35.6308H13.6255V33.7261H16.2034C16.6559 33.7261 17.0317 33.6641 17.331 33.54C17.6302 33.4159 17.8528 33.2298 17.9987 32.9817C18.1483 32.7336 18.2231 32.4253 18.2231 32.0567C18.2231 31.6845 18.1483 31.3707 17.9987 31.1153C17.8528 30.8599 17.6283 30.6665 17.3255 30.5351C17.0263 30.4001 16.6486 30.3326 16.1925 30.3326H14.5943V39.6045H12.2243ZM18.2779 34.5033L21.0638 39.6045H18.4475L15.7218 34.5033H18.2779ZM24.7091 28.395V39.6045H22.3391V28.395H24.7091ZM26.659 39.6045V28.395H29.0289V37.6505H33.8345V39.6045H26.659ZM35.404 39.6045V28.395H37.774V37.6505H42.5796V39.6045H35.404Z" fill="#717171"/>
</svg>
