<svg width="435" height="167" viewBox="0 0 435 167" fill="none" xmlns="http://www.w3.org/2000/svg">
<g clip-path="url(#clip0_3634_21755)">
<path d="M26.3871 9.23901H67.3271L93.1673 114.75H95.0065L155.652 9.23901H196.598L170.516 166.264H138.343L155.363 64.0616H154.06L96.5186 165.497H74.5875L50.994 63.6755H49.691L32.5322 166.264H0.316406L26.3871 9.23901Z" fill="white" stroke="white" stroke-width="0.536214" stroke-miterlimit="10"/>
<path d="M223.43 33.3151C218.796 33.4012 214.316 31.651 210.968 28.4463C209.323 26.9776 208.01 25.1746 207.118 23.1577C206.225 21.1409 205.774 18.9568 205.794 16.7514C205.794 12.2544 207.518 8.38293 210.968 5.13705C214.362 2.00664 218.81 0.268555 223.427 0.268555C228.044 0.268555 232.492 2.00664 235.886 5.13705C239.339 8.38293 241.066 12.2544 241.066 16.7514C241.085 18.9573 240.633 21.1419 239.74 23.1589C238.847 25.1758 237.533 26.9785 235.886 28.4463C232.54 31.6507 228.062 33.401 223.43 33.3151ZM207.022 166.264V48.4953H239.688V166.264H207.022Z" fill="white" stroke="white" stroke-width="0.536214" stroke-miterlimit="10"/>
<path d="M298.409 98.1756V166.275H265.748V48.4954H296.848V69.2737H298.232C300.732 62.563 305.342 56.8448 311.369 52.9781C317.503 48.9672 324.941 46.9618 333.681 46.9618C341.86 46.9618 348.99 48.7492 355.071 52.3239C361.184 55.935 366.112 61.2492 369.254 67.6168C372.632 74.2408 374.319 82.1267 374.315 91.2746V166.264H341.655V97.0925C341.705 89.8858 339.864 84.2501 336.132 80.1856C332.399 76.1211 327.263 74.0942 320.721 74.105C316.668 74.0187 312.663 74.9967 309.106 76.9415C305.739 78.8503 303.017 81.7197 301.288 85.1832C299.422 88.7865 298.462 93.1173 298.409 98.1756Z" fill="white" stroke="white" stroke-width="0.536214" stroke-miterlimit="10"/>
<path d="M416.408 33.3151C411.774 33.4012 407.295 31.651 403.947 28.4463C402.301 26.9776 400.989 25.1746 400.096 23.1577C399.204 21.1409 398.752 18.9568 398.772 16.7514C398.772 12.2544 400.497 8.38293 403.947 5.13705C407.34 2.00664 411.788 0.268555 416.406 0.268555C421.023 0.268555 425.471 2.00664 428.864 5.13705C432.318 8.38293 434.044 12.2544 434.044 16.7514C434.064 18.9573 433.612 21.1419 432.719 23.1589C431.825 25.1758 430.511 26.9785 428.864 28.4463C425.518 31.6507 421.04 33.401 416.408 33.3151ZM400.016 166.264V48.4953H432.677V166.264H400.016Z" fill="white" stroke="white" stroke-width="0.536214" stroke-miterlimit="10"/>
</g>
<defs>
<clipPath id="clip0_3634_21755">
<rect width="434.312" height="166.532" fill="white"/>
</clipPath>
</defs>
</svg>
