<svg width="100" height="100" viewBox="0 0 100 100" fill="none" xmlns="http://www.w3.org/2000/svg">
<g clip-path="url(#clip0_5771_576)">
<path d="M50.001 0.209961C22.5008 0.209961 0.210938 22.4998 0.210938 50C0.210938 77.5002 22.5008 99.7901 50.001 99.7901C77.5012 99.7901 99.7911 77.5002 99.7911 50C99.7911 22.4998 77.497 0.209961 50.001 0.209961ZM50.001 77.5506C34.7856 77.5506 22.4504 65.2154 22.4504 50C22.4504 34.7846 34.7856 22.4494 50.001 22.4494C65.2164 22.4494 77.5516 34.7846 77.5516 50C77.5516 65.2154 65.2164 77.5506 50.001 77.5506Z" fill="#FFCC00" stroke="#DDB300" stroke-miterlimit="10"/>
<path d="M14.7079 40.6415L9.02734 38.8068L9.41361 37.606L14.1033 39.1217L14.8927 36.6865L15.8835 37.0056L14.7079 40.6415Z" fill="black"/>
<path d="M11.2027 32.8618L16.686 35.2172L16.1864 36.376L10.7031 34.0206L11.2027 32.8618Z" fill="black"/>
<path d="M11.7969 31.3208L12.5946 29.9815L16.8813 30.6197L16.9191 30.5609L14.316 27.0971L15.1137 25.7578L20.2443 28.8101L19.6187 29.864L16.2809 27.8781L16.2557 27.92L18.779 31.2201L18.3507 31.938L14.2362 31.2872L14.211 31.3292L17.5614 33.3235L16.9358 34.3773L11.8053 31.325L11.7969 31.3208Z" fill="black"/>
<path d="M16.9603 23.5117L21.65 27.2064L20.8691 28.1973L16.1836 24.5026L16.9645 23.5117H16.9603Z" fill="black"/>
<path d="M18.4778 23.2134L17.7305 22.4871L21.1439 18.9688L21.8912 19.6951L20.619 21.005L24.1542 24.4394L23.2851 25.3337L19.75 21.8993L18.4778 23.2092V23.2134Z" fill="black"/>
<path d="M25.9036 22.7434L22.2383 18.0327L25.4124 15.564L26.0505 16.3869L23.8715 18.0831L24.7448 19.2041L26.7601 17.638L27.3982 18.4609L25.383 20.027L26.2563 21.1522L28.4437 19.4518L29.0818 20.2747L25.8994 22.7518L25.9036 22.7434Z" fill="black"/>
<path d="M31.5751 18.7546L29.7319 19.7958L26.793 14.6023L28.6487 13.5527C29.1693 13.2588 29.6815 13.1076 30.1728 13.0992C30.6682 13.095 31.1258 13.2252 31.5499 13.4981C31.9739 13.771 32.335 14.174 32.6415 14.7156C32.948 15.2573 33.1075 15.7779 33.1243 16.2817C33.1411 16.7855 33.0194 17.2473 32.7548 17.6714C32.4945 18.0954 32.0999 18.4565 31.5709 18.7546H31.5751ZM30.2987 18.234L30.9957 17.8393C31.319 17.6546 31.5625 17.4447 31.7178 17.2012C31.8732 16.9576 31.9403 16.6847 31.9151 16.3783C31.89 16.0718 31.7682 15.7233 31.5499 15.337C31.3316 14.955 31.1006 14.6695 30.8487 14.4931C30.5968 14.3126 30.3281 14.2286 30.0426 14.237C29.7571 14.2454 29.4506 14.3462 29.1273 14.5267L28.4262 14.9214L30.2987 18.234Z" fill="black"/>
<path d="M38.2571 11.2815C38.1647 11.0631 38.0094 10.9204 37.8037 10.8532C37.5937 10.7818 37.346 10.7944 37.0605 10.8868C36.8632 10.9498 36.7079 11.0296 36.5903 11.1303C36.4727 11.2269 36.393 11.3361 36.3552 11.4578C36.3132 11.5754 36.3132 11.6971 36.3552 11.8189C36.3846 11.9238 36.435 12.0036 36.5063 12.0624C36.5777 12.1212 36.6659 12.1674 36.7666 12.1967C36.8674 12.2261 36.9808 12.2387 37.1025 12.2471C37.2243 12.2555 37.3502 12.2471 37.4846 12.2345L38.0346 12.1925C38.2991 12.1674 38.551 12.1674 38.7903 12.1925C39.0254 12.2177 39.2438 12.2723 39.4369 12.3605C39.63 12.4487 39.8022 12.5662 39.9449 12.7216C40.0877 12.8769 40.1968 13.0742 40.2766 13.3093C40.3858 13.6578 40.3941 13.9853 40.3018 14.296C40.2094 14.6067 40.0205 14.8838 39.7392 15.1315C39.4579 15.375 39.0842 15.5723 38.6224 15.7235C38.1647 15.8704 37.7407 15.9292 37.3586 15.8998C36.9766 15.8704 36.6407 15.7445 36.3636 15.5304C36.0865 15.3162 35.8766 15.0055 35.7338 14.5983L36.8968 14.2246C36.9724 14.4094 37.0773 14.5521 37.2159 14.6487C37.3544 14.7452 37.514 14.7956 37.6987 14.8082C37.8834 14.8208 38.0766 14.7914 38.2865 14.7242C38.488 14.6571 38.656 14.5731 38.7903 14.4639C38.9205 14.3548 39.0128 14.2372 39.0632 14.1029C39.1136 13.9727 39.1136 13.8342 39.0716 13.6998C39.0296 13.5739 38.9583 13.4773 38.8575 13.4143C38.7525 13.3513 38.6224 13.3135 38.4586 13.2968C38.2949 13.28 38.1018 13.2842 37.8792 13.2968L37.2117 13.3429C36.6953 13.3807 36.2586 13.3219 35.9018 13.1624C35.5449 13.0029 35.2972 12.7132 35.167 12.2933C35.0537 11.949 35.0495 11.6215 35.1502 11.3025C35.251 10.9834 35.4441 10.7021 35.7212 10.4544C35.9983 10.2067 36.3468 10.0135 36.7624 9.87917C37.1823 9.74482 37.577 9.69444 37.938 9.74062C38.2991 9.7826 38.6098 9.90436 38.8701 10.1059C39.1304 10.3074 39.3151 10.5761 39.4285 10.912L38.2781 11.2815H38.2571Z" fill="black"/>
<path d="M40.3753 9.96736L40.2031 8.94293L45.0356 8.12842L45.2077 9.15285L43.4066 9.45515L44.2253 14.317L42.9951 14.5227L42.1764 9.66087L40.3753 9.96316V9.96736Z" fill="black"/>
<path d="M52.0655 10.891C52.0781 11.5418 51.9605 12.096 51.7254 12.5578C51.4903 13.0197 51.1586 13.3724 50.7388 13.6201C50.3189 13.8678 49.8487 13.9937 49.3197 14.0021C48.7907 14.0105 48.312 13.8972 47.8838 13.662C47.4555 13.4269 47.1197 13.0827 46.8677 12.6334C46.6158 12.18 46.4857 11.63 46.4731 10.9792C46.4647 10.3284 46.5781 9.77423 46.8132 9.3124C47.0525 8.85056 47.38 8.49789 47.7956 8.25017C48.2113 8.00246 48.6857 7.87651 49.2189 7.86811C49.7437 7.85971 50.2224 7.97307 50.6464 8.20399C51.0747 8.43911 51.4147 8.77919 51.6666 9.23262C51.9186 9.68606 52.0529 10.2361 52.0613 10.8868L52.0655 10.891ZM50.785 10.912C50.7766 10.4922 50.7094 10.1353 50.5792 9.8498C50.4491 9.56431 50.2685 9.34598 50.0376 9.19904C49.8067 9.05209 49.5422 8.98071 49.2357 8.98911C48.9292 8.99331 48.6647 9.07308 48.4422 9.22843C48.2155 9.38377 48.0433 9.60209 47.9258 9.89599C47.8082 10.1899 47.7494 10.5426 47.7536 10.9666C47.762 11.3865 47.8292 11.7433 47.9594 12.0288C48.0895 12.3143 48.27 12.5327 48.501 12.6796C48.7319 12.8265 48.9964 12.8979 49.3029 12.8895C49.6094 12.8853 49.8739 12.8056 50.0964 12.6502C50.3189 12.4949 50.4953 12.2765 50.6128 11.9826C50.7304 11.6888 50.7892 11.3361 50.785 10.912Z" fill="black"/>
<path d="M58.6151 10.9581L57.3556 10.7566C57.3556 10.5886 57.3346 10.4375 57.2842 10.2989C57.2338 10.1604 57.1582 10.0386 57.0617 9.92947C56.9651 9.82031 56.8476 9.73214 56.709 9.66076C56.5705 9.58939 56.4193 9.53901 56.2514 9.51382C55.9449 9.46343 55.6678 9.49702 55.4201 9.61458C55.1682 9.72794 54.9582 9.92107 54.7903 10.1856C54.6182 10.4543 54.5006 10.7902 54.4376 11.1974C54.3704 11.6173 54.3788 11.9825 54.4586 12.2848C54.5384 12.5913 54.6811 12.8348 54.8827 13.0154C55.0842 13.1959 55.3361 13.3135 55.6342 13.3596C55.8021 13.3848 55.9617 13.389 56.1086 13.368C56.2598 13.3471 56.3941 13.3009 56.5201 13.2337C56.646 13.1665 56.7552 13.0783 56.8476 12.965C56.9399 12.8558 57.0155 12.7215 57.0701 12.5703L58.3296 12.7761C58.2541 13.0406 58.1323 13.2883 57.9644 13.5192C57.7964 13.7501 57.5865 13.9432 57.3388 14.107C57.0911 14.2707 56.8056 14.3841 56.4865 14.4513C56.1674 14.5184 55.8189 14.5226 55.4411 14.4597C54.9162 14.3757 54.4628 14.1826 54.0891 13.8803C53.7113 13.578 53.4426 13.1791 53.2746 12.6921C53.1067 12.2051 53.0731 11.6383 53.1739 10.9959C53.2746 10.3535 53.4846 9.82451 53.7952 9.41305C54.1101 9.0016 54.4922 8.7077 54.9414 8.53556C55.3949 8.36343 55.8777 8.32144 56.3983 8.40121C56.7384 8.45579 57.0491 8.55236 57.3262 8.69511C57.6033 8.83786 57.8426 9.01839 58.0399 9.23671C58.2373 9.45504 58.3884 9.71115 58.4892 9.99664C58.5899 10.2821 58.6319 10.6012 58.6193 10.9497L58.6151 10.9581Z" fill="black"/>
<path d="M58.6722 14.9803L60.5237 9.30811L61.7245 9.69857L60.9058 12.2009L60.9813 12.2261L63.8405 10.3913L65.2764 10.8616L62.3417 12.7131L63.4501 16.5421L62.0142 16.0719L61.2207 13.2337L60.3936 13.7627L59.8687 15.3749L58.668 14.9845L58.6722 14.9803Z" fill="black"/>
<path d="M66.394 17.9907L65.2227 17.3147L69.9964 13.1792L71.4029 13.9937L70.1937 20.1907L69.0223 19.5147L70.0341 14.7788L69.9922 14.7536L66.3898 17.9907H66.394ZM67.494 15.9166L70.2609 17.5163L69.7696 18.3686L67.0028 16.7689L67.494 15.9166Z" fill="black"/>
<path d="M70.582 20.5476L74.2809 15.8621L75.2718 16.643L72.2194 20.514L74.2263 22.0968L73.584 22.9156L70.582 20.5476Z" fill="black"/>
<path d="M74.0703 23.3562L78.336 19.1829L81.149 22.0588L80.4059 22.7852L78.4745 20.8119L77.4585 21.8069L79.2429 23.6333L78.4997 24.3596L76.7154 22.5333L75.6951 23.5283L77.6348 25.51L76.8917 26.2364L74.0703 23.352V23.3562Z" fill="black"/>
<path d="M77.4222 26.841L82.2211 23.2932L83.6192 25.1867C83.8879 25.5478 84.0516 25.9047 84.1146 26.2574C84.1776 26.61 84.1398 26.9417 84.0054 27.2482C83.8711 27.5589 83.6444 27.8276 83.3253 28.0627C83.0062 28.2978 82.6829 28.4322 82.3512 28.4658C82.0195 28.4994 81.6962 28.428 81.3856 28.26C81.0749 28.0921 80.7768 27.8192 80.5039 27.4539L79.5676 26.186L80.3821 25.5814L81.1966 26.6856C81.3394 26.8787 81.4863 27.0215 81.6333 27.1097C81.7802 27.1978 81.9314 27.2356 82.0867 27.2188C82.2379 27.202 82.3932 27.139 82.5527 27.0215C82.7123 26.9039 82.8214 26.7738 82.8844 26.6268C82.9474 26.4841 82.96 26.3245 82.9222 26.1524C82.8844 25.9803 82.7921 25.7997 82.6493 25.6024L82.1413 24.918L78.1695 27.8528L77.418 26.8368L77.4222 26.841ZM81.5241 27.8192L80.2226 30.628L79.3955 29.507L80.718 26.7234L81.5283 27.8192H81.5241Z" fill="black"/>
<path d="M84.6954 28.5205L85.6107 28.0293L87.9282 32.3496L87.013 32.8408L86.1481 31.2286L81.8026 33.5545L81.2148 32.4545L85.5603 30.1285L84.6954 28.5163V28.5205Z" fill="black"/>
<path d="M87.8711 43.719L88.9963 43.6183L88.228 42.7828L88.8493 42.2915L89.4959 43.2194L89.8318 42.1404L90.5707 42.4217L90.0879 43.4503L91.1921 43.2068L91.3097 43.9835L90.1845 44.0801L90.9528 44.9156L90.3314 45.4068L89.689 44.4789L89.3532 45.558L88.6142 45.2767L89.0971 44.248L87.9929 44.4957L87.8753 43.719H87.8711Z" fill="black"/>
<path d="M85.285 56.2767L91.1083 57.5908L90.8312 58.821L86.0239 57.7335L85.4613 60.2317L84.4453 60.0007L85.2892 56.2725L85.285 56.2767Z" fill="black"/>
<path d="M89.473 63.7249L83.8008 61.8734L84.1912 60.6726L89.8634 62.5241L89.473 63.7249Z" fill="black"/>
<path d="M89.0224 65.3119L88.3507 66.7142L84.022 66.4623L83.9926 66.5253L86.898 69.7413L86.2262 71.1436L80.8438 68.5616L81.3728 67.4573L84.8743 69.1368L84.8953 69.0906L82.0865 66.0299L82.4476 65.2783L86.6041 65.5596L86.6251 65.5134L83.1067 63.8256L83.6358 62.7214L89.0182 65.3035L89.0224 65.3119Z" fill="black"/>
<path d="M84.5825 73.5451L79.582 70.2829L80.2706 69.2249L85.271 72.4871L84.5825 73.5451Z" fill="black"/>
<path d="M83.0927 73.9861L83.8988 74.6411L80.8129 78.4491L80.0068 77.7941L81.1572 76.375L77.3281 73.2723L78.1132 72.3025L81.9423 75.4052L83.0927 73.9861Z" fill="black"/>
<path d="M75.7328 75.1155L79.8012 79.4819L76.858 82.2235L76.1484 81.4636L78.1679 79.5827L77.1981 78.5415L75.3297 80.2838L74.6202 79.5239L76.4885 77.7815L75.5187 76.7403L73.4908 78.6296L72.7812 77.8697L75.7328 75.1197V75.1155Z" fill="black"/>
<path d="M70.4483 79.5912L72.1907 78.3904L75.5831 83.3026L73.8281 84.516C73.3327 84.8561 72.8415 85.0534 72.3503 85.1038C71.859 85.1542 71.3888 85.0618 70.9437 84.8309C70.4987 84.6 70.0998 84.2263 69.7472 83.7183C69.3945 83.2061 69.1846 82.7022 69.1258 82.1984C69.0628 81.6988 69.1468 81.2244 69.3693 80.7793C69.5918 80.3343 69.9529 79.9396 70.4525 79.5953L70.4483 79.5912ZM71.7667 79.9942L71.1075 80.4518C70.801 80.666 70.5785 80.8969 70.4441 81.153C70.3098 81.4091 70.2678 81.6862 70.3224 81.9927C70.377 82.2992 70.5281 82.6309 70.78 83.0003C71.0319 83.3614 71.288 83.6217 71.5525 83.7813C71.817 83.9366 72.0941 83.9996 72.3754 83.9618C72.6567 83.924 72.9548 83.8022 73.2613 83.5881L73.9247 83.1305L71.7625 79.9984L71.7667 79.9942Z" fill="black"/>
<path d="M64.4655 87.6353C64.5789 87.841 64.7426 87.9712 64.9568 88.0215C65.1709 88.0719 65.4186 88.0383 65.6957 87.9208C65.8846 87.841 66.0358 87.7444 66.1407 87.6353C66.2499 87.5261 66.3171 87.4128 66.3465 87.291C66.3759 87.1692 66.3633 87.0475 66.3129 86.9299C66.2751 86.8292 66.2163 86.7536 66.1407 86.699C66.0652 86.6444 65.9728 86.6108 65.872 86.5899C65.7671 86.5731 65.6579 86.5647 65.5362 86.5731C65.4144 86.5773 65.2885 86.5941 65.1583 86.6192L64.6125 86.7116C64.3522 86.7578 64.1003 86.783 63.861 86.7788C63.6216 86.7788 63.4033 86.7368 63.2018 86.6696C63.0003 86.6024 62.8197 86.4975 62.6644 86.3547C62.509 86.212 62.3789 86.0273 62.2823 85.8005C62.1396 85.4647 62.1018 85.1372 62.169 84.8181C62.2319 84.499 62.3957 84.2051 62.656 83.9364C62.9163 83.6677 63.269 83.4368 63.7182 83.2478C64.1632 83.0589 64.5747 82.9623 64.961 82.9581C65.3472 82.9539 65.6873 83.0463 65.9854 83.2352C66.2835 83.4242 66.5186 83.7139 66.695 84.1043L65.5697 84.583C65.4774 84.4024 65.3598 84.2723 65.2129 84.1925C65.0659 84.1085 64.9022 84.0707 64.7175 84.0791C64.5327 84.0833 64.3396 84.1295 64.1423 84.2135C63.9449 84.2975 63.7854 84.3982 63.6636 84.52C63.5419 84.6375 63.4621 84.7677 63.4243 84.9021C63.3865 85.0364 63.3949 85.1708 63.4537 85.3051C63.5041 85.4269 63.5881 85.515 63.693 85.5696C63.798 85.6242 63.9365 85.6494 64.1003 85.6494C64.264 85.6494 64.4571 85.6326 64.6755 85.5948L65.3388 85.4898C65.851 85.4059 66.2919 85.4269 66.6614 85.5528C67.0308 85.6788 67.3037 85.9433 67.4717 86.3505C67.6144 86.6822 67.648 87.0097 67.5766 87.3372C67.5011 87.6605 67.3373 87.9628 67.0812 88.2357C66.8251 88.5086 66.4976 88.7311 66.0988 88.9032C65.6915 89.0754 65.3052 89.1593 64.94 89.1509C64.5747 89.1425 64.2556 89.0502 63.9785 88.8738C63.7014 88.6975 63.4915 88.4456 63.3487 88.1223L64.4613 87.6479L64.4655 87.6353Z" fill="black"/>
<path d="M62.4745 89.1342L62.739 90.1419L57.9989 91.3888L57.7344 90.3812L59.5019 89.9152L58.2508 85.1498L59.4558 84.835L60.7069 89.6003L62.4745 89.1342Z" fill="black"/>
<path d="M50.7337 89.2434C50.6708 88.5968 50.7379 88.0342 50.9395 87.5556C51.141 87.077 51.4391 86.6991 51.8337 86.4178C52.2284 86.1365 52.6902 85.9728 53.2151 85.9182C53.7441 85.8678 54.2269 85.9392 54.6719 86.1365C55.117 86.3338 55.4822 86.6487 55.7677 87.0812C56.0574 87.5136 56.2338 88.051 56.2968 88.6976C56.3597 89.3442 56.2968 89.9068 56.0952 90.3854C55.8979 90.864 55.5998 91.2419 55.2009 91.5232C54.8063 91.8045 54.3444 91.9682 53.8154 92.0228C53.2906 92.0732 52.8078 92.0018 52.3628 91.8045C51.9177 91.6072 51.5524 91.2923 51.2627 90.864C50.973 90.4316 50.7967 89.8942 50.7337 89.2476V89.2434ZM52.0059 89.1174C52.0479 89.5373 52.1444 89.8858 52.2956 90.1587C52.4467 90.4358 52.6441 90.6373 52.8876 90.7633C53.1269 90.8892 53.3998 90.9396 53.7063 90.9102C54.0086 90.8808 54.2689 90.7801 54.4788 90.6079C54.6887 90.4358 54.8441 90.2007 54.9406 89.9026C55.0372 89.6045 55.0666 89.2434 55.0246 88.8236C54.9826 88.4037 54.8861 88.0552 54.7349 87.7823C54.5838 87.5052 54.3864 87.3037 54.1429 87.1777C53.9036 87.0518 53.6307 87.0014 53.3242 87.0308C53.0219 87.0602 52.7616 87.1609 52.5517 87.3331C52.3418 87.5052 52.1864 87.7403 52.0899 88.0384C51.9933 88.3407 51.9639 88.6976 52.0059 89.1174Z" fill="black"/>
<path d="M44.2151 89.7766L45.4873 89.8648C45.4999 90.0327 45.5377 90.1797 45.6006 90.314C45.6636 90.4484 45.7476 90.5659 45.8526 90.6625C45.9575 90.7591 46.0835 90.8388 46.2262 90.8976C46.369 90.9564 46.5243 90.99 46.6965 91.0026C47.0029 91.0236 47.28 90.9648 47.5194 90.8304C47.7587 90.6919 47.9518 90.4862 48.0946 90.2049C48.2415 89.9236 48.3255 89.5751 48.3549 89.1636C48.3842 88.7396 48.3423 88.3785 48.2373 88.0804C48.1323 87.7823 47.9686 87.5514 47.7461 87.3918C47.5278 87.2281 47.2674 87.1357 46.9652 87.1189C46.7972 87.1064 46.6377 87.1189 46.4907 87.1525C46.3438 87.1861 46.2094 87.2449 46.0919 87.3247C45.9743 87.4044 45.8735 87.501 45.7896 87.6228C45.7056 87.7403 45.6468 87.8789 45.6048 88.0384L44.3327 87.9461C44.3831 87.6732 44.4838 87.417 44.6308 87.1735C44.7777 86.93 44.9709 86.7159 45.2018 86.5312C45.4369 86.3464 45.7098 86.2079 46.0205 86.1113C46.3312 86.0147 46.6797 85.9812 47.0617 86.0063C47.5949 86.0441 48.061 86.1953 48.4598 86.464C48.8587 86.7327 49.1652 87.1022 49.3793 87.5766C49.5934 88.051 49.6732 88.6094 49.6312 89.256C49.5892 89.9068 49.4297 90.4484 49.1526 90.8892C48.8755 91.33 48.5228 91.6533 48.0862 91.8633C47.6495 92.0732 47.1709 92.1614 46.6503 92.1278C46.306 92.1026 45.9869 92.0354 45.6972 91.9178C45.4075 91.8003 45.1556 91.6407 44.9373 91.4434C44.719 91.2419 44.551 91.0026 44.4251 90.7255C44.2991 90.4484 44.2277 90.1335 44.2109 89.7892L44.2151 89.7766Z" fill="black"/>
<path d="M43.7955 85.7755L42.4604 91.5947L41.2302 91.3134L41.818 88.7481L41.7425 88.7313L39.0596 90.8179L37.5859 90.4821L40.3402 88.3702L38.8917 84.6545L40.3612 84.9904L41.4066 87.7488L42.1791 87.1485L42.557 85.4942L43.7871 85.7755H43.7955Z" fill="black"/>
<path d="M35.8341 83.4748L37.06 84.0458L32.6768 88.5928L31.2031 87.9084L31.8497 81.6274L33.0757 82.1984L32.4921 87.0057L32.5341 87.0267L35.8299 83.479L35.8341 83.4748ZM34.923 85.637L32.026 84.2935L32.4417 83.3992L35.3387 84.7427L34.923 85.637Z" fill="black"/>
<path d="M31.4374 81.3081L28.1752 86.3044L27.1172 85.6158L29.8126 81.4887L27.6714 80.0906L28.2382 79.2173L31.4374 81.3081Z" fill="black"/>
<path d="M27.7133 78.8268L23.8381 83.3654L20.7773 80.754L21.4533 79.9646L23.5526 81.7574L24.4762 80.6742L22.5365 79.0158L23.2125 78.2265L25.1522 79.8849L26.0759 78.8017L23.9682 77.0005L24.6442 76.2112L27.7133 78.831V78.8268Z" fill="black"/>
<path d="M24.0672 75.6529L19.6042 79.6163L18.0423 77.8571C17.7442 77.5213 17.5469 77.177 17.4545 76.8327C17.3622 76.4884 17.3706 76.1567 17.4755 75.8334C17.5805 75.5144 17.782 75.2247 18.0801 74.9602C18.3782 74.6957 18.6889 74.5361 19.0164 74.4731C19.3439 74.4102 19.6713 74.4521 19.9988 74.5949C20.3263 74.7376 20.6454 74.977 20.9477 75.3212L21.9931 76.501L21.2332 77.1728L20.3221 76.1483C20.1626 75.9678 20.003 75.8419 19.8477 75.7663C19.6923 75.6907 19.5412 75.6697 19.39 75.6949C19.2389 75.7201 19.092 75.8041 18.945 75.9342C18.7981 76.0644 18.6973 76.2071 18.6469 76.3541C18.5965 76.5052 18.6007 76.6606 18.6511 76.8285C18.7057 76.9964 18.8107 77.1686 18.9744 77.3491L19.5412 77.9873L23.2317 74.7083L24.0714 75.6529H24.0672ZM19.8939 75.0441L20.9393 72.1304L21.863 73.1716L20.7965 76.0602L19.8939 75.0441Z" fill="black"/>
<path d="M16.67 74.6284L15.8009 75.1994L13.1055 71.1016L13.9746 70.5306L14.978 72.0589L19.0967 69.3508L19.7811 70.3921L15.6624 73.1001L16.6658 74.6284H16.67Z" fill="black"/>
<path d="M12.1387 59.77L11.0261 59.9715L11.8658 60.7356L11.2906 61.2814L10.5642 60.4123L10.3291 61.5208L9.56919 61.3066L9.95545 60.236L8.87643 60.5761L8.6875 59.8162L9.8001 59.6188L8.9604 58.8547L9.5356 58.3089L10.2619 59.1738L10.4971 58.0696L11.257 58.2837L10.8707 59.3543L11.9455 59.01L12.1345 59.77H12.1387Z" fill="black"/>
<path d="M31.9876 54.3728V47.1001H33.5252V50.1008H36.6467V47.1001H38.1808V54.3728H36.6467V51.3685H33.5252V54.3728H31.9876ZM43.9407 47.1001H45.4783V51.8231C45.4783 52.3534 45.3517 52.8174 45.0984 53.2151C44.8474 53.6129 44.4959 53.923 44.0437 54.1455C43.5915 54.3657 43.0647 54.4758 42.4634 54.4758C41.8597 54.4758 41.3318 54.3657 40.8796 54.1455C40.4274 53.923 40.0759 53.6129 39.8249 53.2151C39.574 52.8174 39.4485 52.3534 39.4485 51.8231V47.1001H40.9862V51.6917C40.9862 51.9687 41.0465 52.2149 41.1673 52.4303C41.2904 52.6458 41.4632 52.815 41.6857 52.9381C41.9083 53.0612 42.1675 53.1228 42.4634 53.1228C42.7617 53.1228 43.021 53.0612 43.2411 52.9381C43.4637 52.815 43.6353 52.6458 43.756 52.4303C43.8791 52.2149 43.9407 51.9687 43.9407 51.6917V47.1001ZM46.7434 54.3728V47.1001H49.6127C50.162 47.1001 50.6307 47.1983 51.019 47.3948C51.4096 47.5889 51.7067 47.8648 51.9103 48.2222C52.1163 48.5773 52.2193 48.9952 52.2193 49.4758C52.2193 49.9587 52.1151 50.3742 51.9068 50.7222C51.6984 51.0679 51.3966 51.333 51.0012 51.5177C50.6083 51.7023 50.1324 51.7947 49.5737 51.7947H47.6525V50.5589H49.3251C49.6187 50.5589 49.8625 50.5186 50.0566 50.4381C50.2508 50.3577 50.3952 50.2369 50.4899 50.0759C50.5869 49.9149 50.6355 49.7149 50.6355 49.4758C50.6355 49.2343 50.5869 49.0307 50.4899 48.865C50.3952 48.6993 50.2496 48.5738 50.0531 48.4886C49.859 48.401 49.6139 48.3572 49.318 48.3572H48.2811V54.3728H46.7434ZM50.671 51.0631L52.4785 54.3728H50.7811L49.0126 51.0631H50.671ZM53.3059 54.3728V47.1001H56.1752C56.7245 47.1001 57.1932 47.1983 57.5815 47.3948C57.9721 47.5889 58.2692 47.8648 58.4728 48.2222C58.6788 48.5773 58.7818 48.9952 58.7818 49.4758C58.7818 49.9587 58.6776 50.3742 58.4693 50.7222C58.2609 51.0679 57.9591 51.333 57.5637 51.5177C57.1708 51.7023 56.6949 51.7947 56.1362 51.7947H54.215V50.5589H55.8876C56.1812 50.5589 56.425 50.5186 56.6191 50.4381C56.8133 50.3577 56.9577 50.2369 57.0524 50.0759C57.1494 49.9149 57.198 49.7149 57.198 49.4758C57.198 49.2343 57.1494 49.0307 57.0524 48.865C56.9577 48.6993 56.8121 48.5738 56.6156 48.4886C56.4215 48.401 56.1764 48.3572 55.8805 48.3572H54.8436V54.3728H53.3059ZM57.2335 51.0631L59.041 54.3728H57.3436L55.5751 51.0631H57.2335ZM59.1396 47.1001H60.8619L62.5202 50.2322H62.5913L64.2496 47.1001H65.9719L63.3192 51.8018V54.3728H61.7923V51.8018L59.1396 47.1001ZM68.5909 47.1001L68.4524 52.1924H67.1527L67.0107 47.1001H68.5909ZM67.8026 54.4651C67.5682 54.4651 67.367 54.3823 67.1989 54.2166C67.0308 54.0485 66.9479 53.8472 66.9503 53.6129C66.9479 53.3809 67.0308 53.182 67.1989 53.0163C67.367 52.8505 67.5682 52.7677 67.8026 52.7677C68.0275 52.7677 68.2251 52.8505 68.3956 53.0163C68.5661 53.182 68.6525 53.3809 68.6548 53.6129C68.6525 53.7691 68.611 53.9123 68.5305 54.0425C68.4524 54.1704 68.3494 54.2734 68.2216 54.3515C68.0938 54.4273 67.9541 54.4651 67.8026 54.4651Z" fill="white"/>
</g>
<defs>
<clipPath id="clip0_5771_576">
<rect width="100" height="100" fill="white"/>
</clipPath>
</defs>
</svg>
