<svg width="428" height="1120" viewBox="0 0 428 1120" fill="none" xmlns="http://www.w3.org/2000/svg">
    <defs>
        <clipPath id="clip0_1093_134">
            <rect width="428" height="1120" fill="white" />
        </clipPath>
    </defs>
    <g clip-path="url(#clip0_1093_134)">
        <rect width="1512" height="1697" fill="#1A1A1A" />
        <path
            d="M134.593 30.8588L36.0471 -26.9348C30.7139 -30.0625 24 -26.2166 24 -20.034V15.3489C24 18.2089 25.5269 20.8514 28.0047 22.2798L126.55 79.0854C131.884 82.1598 138.545 78.3105 138.545 72.1545V37.7596C138.545 34.9209 137.041 32.2948 134.593 30.8588Z"
            fill="#660099" />
        <path
            d="M415.749 -8.03505L337.872 75.5499C333.657 80.0734 326.124 78.3105 324.354 72.3866L314.225 38.4845C313.406 35.7441 314.113 32.7751 316.078 30.6972L394.238 -51.9412C398.468 -56.4136 405.953 -54.6325 407.715 -48.7341L417.561 -15.7786C418.374 -13.0588 417.684 -10.112 415.749 -8.03505Z"
            fill="#808080" />
        <path
            d="M477.507 284.83L398.709 202.112C394.445 197.636 386.931 199.482 385.227 205.425L375.474 239.437C374.686 242.187 375.425 245.148 377.413 247.204L456.483 328.972C460.763 333.397 468.228 331.533 469.925 325.615L479.405 292.553C480.187 289.824 479.465 286.885 477.507 284.83Z"
            fill="#1F9900" />
        <path
            d="M258.383 329.85L201.444 428.891C198.362 434.251 190.625 434.239 187.56 428.87L170.021 398.14C168.603 395.656 168.62 392.604 170.064 390.135L227.492 291.951C230.6 286.638 238.294 286.678 241.346 292.025L258.395 321.897C259.802 324.362 259.797 327.389 258.383 329.85Z"
            fill="#997A00" />
        <path
            d="M-23.0291 611.988L43.5231 704.844C47.1249 709.869 54.8223 709.084 57.335 703.435L71.7149 671.106C72.8773 668.492 72.5562 665.457 70.8726 663.145L3.91889 571.193C0.295322 566.216 -7.35602 567.026 -9.85787 572.65L-23.8363 604.077C-24.99 606.67 -24.6828 609.681 -23.0291 611.988Z"
            fill="#003399" />
        <path
            d="M17.7493 380.965L-60.1279 464.55C-64.3425 469.073 -71.8764 467.31 -73.6463 461.387L-83.7751 427.484C-84.5938 424.744 -83.8873 421.775 -81.9221 419.697L-3.76208 337.059C0.467979 332.586 7.95304 334.367 9.71527 340.266L19.5613 373.221C20.3739 375.941 19.6844 378.888 17.7493 380.965Z"
            fill="#009994" />
        <path
            d="M388.417 653.747L464.822 738.681C468.957 743.277 476.52 741.646 478.393 735.754L489.113 702.034C489.98 699.309 489.325 696.328 487.396 694.216L410.693 610.224C406.542 605.678 399.026 607.328 397.161 613.195L386.741 645.973C385.881 648.679 386.519 651.637 388.417 653.747Z"
            fill="#4D4D4D" />
        <path
            d="M347.593 787.141L249.047 844.935C243.714 848.062 237 844.217 237 838.034V802.651C237 799.791 238.527 797.149 241.005 795.72L339.55 738.915C344.884 735.84 351.545 739.69 351.545 745.845V780.24C351.545 783.079 350.041 785.705 347.593 787.141Z"
            fill="#994700" />
        <path
            d="M418.593 1133.86L320.047 1076.07C314.714 1072.94 308 1076.78 308 1082.97V1118.35C308 1121.21 309.527 1123.85 312.005 1125.28L410.55 1182.09C415.884 1185.16 422.545 1181.31 422.545 1175.15V1140.76C422.545 1137.92 421.041 1135.29 418.593 1133.86Z"
            fill="#808080" />
        <path
            d="M77.5925 1081.14L-20.9529 1138.93C-26.2861 1142.06 -33 1138.22 -33 1132.03V1096.65C-33 1093.79 -31.4731 1091.15 -28.9953 1089.72L69.5502 1032.91C74.8835 1029.84 81.5454 1033.69 81.5454 1039.85V1074.24C81.5454 1077.08 80.0412 1079.71 77.5925 1081.14Z"
            fill="#991400" />
    </g>
</svg>