<svg xmlns="http://www.w3.org/2000/svg" viewBox="500 -2228 1512 4968" xmlns:v="https://vecta.io/nano">
	<path d="M760.5-1961L577-2280.6c-5.3-9.3-12 2.1-12 20.5v224c0 8.5 1.5 16.3 4 20.6l183.5 314.1c5.3 9.1 12-2.3 12-20.6v-218.5c0-8.4-1.5-16.2-4-20.5z" fill="#609" />
	<path d="M789.5 2632.2L606 2951.7c-5.3 9.3-12-2.1-12-20.5v-223.9c0-8.5 1.5-16.3 4-20.6l183.5-314.1c5.3-9.1 12 2.3 12 20.6v218.5c0 8.4-1.5 16.2-4 20.5z" fill="#991400" />
	<path d="M1869.5 647.6l142.3 469.7c4.1 13.6 11.7 8.8 13.6-8.7l22.8-213.4c.9-8.1.2-16.9-1.7-23.2l-142.8-464.5c-4.2-13.5-11.7-8.6-13.5 8.8l-22.3 208.2c-.9 8.1-.3 16.9 1.6 23.1z" fill="#4d4d4d" />
	<path d="M1334.6-784.4l-106 547.7c-3.1 15.9-10.8 15.9-13.9-.1l-37.4-194.5c-1.4-7.4-1.4-16.4 0-23.8l106.9-543c3.1-15.8 10.8-15.7 13.9.2l36.5 189.8c1.4 7.4 1.4 16.4 0 23.7z" fill="#997a00" />
	<path d="M815.2 602.2l123.9 513.5c3.6 14.9 11.3 12.6 13.8-4.2l30.6-204.6c1.2-7.8.8-16.8-.8-23.6L858.1 374.8c-3.6-14.8-11.3-12.4-13.8 4.3l-29.9 199.6c-1.1 7.7-.8 16.7.8 23.5z" fill="#039" />
	<path d="M1665.6 1429.4L1482 1749c-5.3 9.3-12-2.1-12-20.5v-223.9c0-8.5 1.5-16.3 4-20.6l183.5-314.1c5.3-9.1 12 2.3 12 20.6V1409c0 8.3-1.5 16.1-3.9 20.4z" fill="#994700" />
	<path d="M1892-1012.3l-146.7-457.4c-4.3-13.3-11.8-7.8-13.5 9.8l-20.8 215.3c-.8 8.2 0 17 1.9 23.1l147.2 452.2c4.3 13.1 11.7 7.6 13.4-10l20.3-210c.9-8.1.1-16.9-1.8-23z" fill="#1f9900" />
	<path
		d="M1865.6 2912.4l-183.5-319.6c-5.3-9.3-12.1 2.1-12.1 20.5v223.9c0 8.5 1.5 16.3 4 20.6l183.5 314.1c5.3 9.1 12-2.3 12-20.6v-218.5c0-8.4-1.5-16.1-3.9-20.4zm-172.2-5108.5l-145 462.2c-4.2 13.4-11.8 8.2-13.5-9.4l-21.6-214.6c-.8-8.1-.1-17 1.9-23.1l145.5-457c4.2-13.3 11.7-8 13.5 9.5l21.1 209.3c.7 8.1 0 16.9-1.9 23.1z"
		fill="gray" />
	<path d="M617.4-224.2L472.3 238c-4.2 13.4-11.7 8.2-13.5-9.4L437.2 14c-.8-8.1-.1-17 1.9-23.1l145.5-457c4.2-13.3 11.7-8 13.5 9.5l21.1 209.3c.8 8.2.1 16.9-1.8 23.1z" fill="#009994" />
</svg>