<svg width="513" height="445" viewBox="0 0 513 445" fill="none" xmlns="http://www.w3.org/2000/svg">
    <rect opacity="0.4" width="513" height="445" rx="32" fill="#1A1A1A" />
    <rect x="99" y="125" width="316" height="60" rx="8" fill="white" />
    <circle cx="133" cy="155" r="22" fill="#F5FFF2" />
    <path fill-rule="evenodd" clip-rule="evenodd"
        d="M133 166C139.075 166 144 161.075 144 155C144 148.925 139.075 144 133 144C126.925 144 122 148.925 122 155C122 161.075 126.925 166 133 166ZM138.097 153.222C138.634 152.685 138.634 151.815 138.097 151.278C137.56 150.741 136.69 150.741 136.153 151.278L131.625 155.805L129.847 154.028C129.31 153.491 128.44 153.491 127.903 154.028C127.366 154.565 127.366 155.435 127.903 155.972L130.653 158.722C131.19 159.259 132.06 159.259 132.597 158.722L138.097 153.222Z"
        fill="#29CC00" />
    <path
        d="M163.959 147V138.273H167.07C167.749 138.273 168.311 138.396 168.757 138.643C169.203 138.891 169.537 139.229 169.759 139.658C169.98 140.084 170.091 140.564 170.091 141.098C170.091 141.635 169.979 142.118 169.754 142.547C169.533 142.973 169.197 143.311 168.749 143.561C168.303 143.808 167.741 143.932 167.065 143.932H164.926V142.815H166.946C167.375 142.815 167.723 142.741 167.99 142.594C168.257 142.443 168.453 142.239 168.578 141.98C168.703 141.722 168.766 141.428 168.766 141.098C168.766 140.768 168.703 140.476 168.578 140.22C168.453 139.964 168.256 139.764 167.986 139.619C167.719 139.474 167.366 139.402 166.929 139.402H165.276V147H163.959ZM173.379 147.145C172.964 147.145 172.589 147.068 172.254 146.915C171.918 146.759 171.653 146.533 171.457 146.237C171.263 145.942 171.167 145.58 171.167 145.151C171.167 144.781 171.238 144.477 171.38 144.239C171.522 144 171.714 143.811 171.955 143.672C172.197 143.533 172.467 143.428 172.765 143.357C173.063 143.286 173.367 143.232 173.677 143.195C174.069 143.149 174.387 143.112 174.631 143.084C174.876 143.053 175.053 143.003 175.164 142.935C175.275 142.866 175.33 142.756 175.33 142.602V142.572C175.33 142.2 175.225 141.912 175.015 141.707C174.808 141.503 174.498 141.401 174.086 141.401C173.657 141.401 173.319 141.496 173.072 141.686C172.827 141.874 172.658 142.082 172.565 142.312L171.367 142.04C171.509 141.642 171.717 141.321 171.989 141.077C172.265 140.83 172.582 140.651 172.94 140.54C173.298 140.426 173.674 140.369 174.069 140.369C174.33 140.369 174.607 140.401 174.9 140.463C175.195 140.523 175.471 140.634 175.727 140.795C175.985 140.957 176.197 141.189 176.362 141.49C176.526 141.788 176.609 142.176 176.609 142.653V147H175.364V146.105H175.313C175.231 146.27 175.107 146.432 174.942 146.591C174.778 146.75 174.566 146.882 174.308 146.987C174.049 147.092 173.739 147.145 173.379 147.145ZM173.656 146.122C174.008 146.122 174.309 146.053 174.559 145.913C174.812 145.774 175.004 145.592 175.134 145.368C175.268 145.141 175.335 144.898 175.335 144.639V143.795C175.289 143.841 175.201 143.884 175.07 143.923C174.942 143.96 174.796 143.993 174.631 144.021C174.467 144.047 174.306 144.071 174.15 144.094C173.994 144.114 173.863 144.131 173.758 144.145C173.511 144.176 173.285 144.229 173.08 144.303C172.879 144.376 172.717 144.483 172.594 144.622C172.475 144.759 172.415 144.94 172.415 145.168C172.415 145.483 172.532 145.722 172.765 145.884C172.998 146.043 173.295 146.122 173.656 146.122ZM178.877 149.455C178.686 149.455 178.513 149.439 178.357 149.408C178.201 149.379 178.084 149.348 178.007 149.314L178.314 148.27C178.547 148.332 178.755 148.359 178.936 148.351C179.118 148.342 179.279 148.274 179.418 148.146C179.56 148.018 179.685 147.81 179.793 147.52L179.951 147.085L177.556 140.455H178.919L180.577 145.534H180.645L182.303 140.455H183.671L180.973 147.874C180.848 148.214 180.689 148.503 180.496 148.739C180.303 148.977 180.073 149.156 179.806 149.276C179.539 149.395 179.229 149.455 178.877 149.455ZM184.868 147V140.455H186.091V141.52H186.172C186.309 141.159 186.532 140.878 186.841 140.676C187.151 140.472 187.522 140.369 187.953 140.369C188.391 140.369 188.757 140.472 189.053 140.676C189.351 140.881 189.571 141.162 189.713 141.52H189.782C189.938 141.17 190.186 140.892 190.527 140.685C190.868 140.474 191.275 140.369 191.746 140.369C192.34 140.369 192.824 140.555 193.199 140.928C193.577 141.3 193.766 141.861 193.766 142.611V147H192.492V142.73C192.492 142.287 192.371 141.966 192.13 141.767C191.888 141.568 191.6 141.469 191.265 141.469C190.85 141.469 190.527 141.597 190.297 141.852C190.067 142.105 189.952 142.43 189.952 142.828V147H188.682V142.649C188.682 142.294 188.571 142.009 188.35 141.793C188.128 141.577 187.84 141.469 187.485 141.469C187.243 141.469 187.02 141.533 186.816 141.661C186.614 141.786 186.451 141.96 186.326 142.185C186.203 142.409 186.142 142.669 186.142 142.964V147H184.868ZM198.295 147.132C197.65 147.132 197.094 146.994 196.629 146.719C196.165 146.44 195.808 146.05 195.555 145.547C195.305 145.041 195.18 144.449 195.18 143.77C195.18 143.099 195.305 142.509 195.555 141.997C195.808 141.486 196.16 141.087 196.612 140.8C197.066 140.513 197.597 140.369 198.205 140.369C198.575 140.369 198.933 140.43 199.279 140.553C199.626 140.675 199.937 140.866 200.212 141.128C200.488 141.389 200.705 141.729 200.864 142.146C201.023 142.561 201.103 143.065 201.103 143.659V144.111H195.9V143.156H199.854C199.854 142.821 199.786 142.524 199.65 142.266C199.513 142.004 199.322 141.798 199.075 141.648C198.83 141.497 198.543 141.422 198.214 141.422C197.856 141.422 197.543 141.51 197.276 141.686C197.012 141.859 196.808 142.087 196.663 142.368C196.521 142.646 196.45 142.949 196.45 143.276V144.021C196.45 144.459 196.526 144.831 196.68 145.138C196.836 145.445 197.053 145.679 197.332 145.841C197.61 146 197.935 146.08 198.308 146.08C198.549 146.08 198.769 146.045 198.968 145.977C199.167 145.906 199.339 145.801 199.484 145.662C199.629 145.523 199.739 145.351 199.816 145.146L201.022 145.364C200.925 145.719 200.752 146.03 200.502 146.297C200.255 146.561 199.944 146.767 199.569 146.915C199.197 147.06 198.772 147.132 198.295 147.132ZM203.791 143.114V147H202.517V140.455H203.74V141.52H203.821C203.971 141.173 204.207 140.895 204.528 140.685C204.852 140.474 205.26 140.369 205.751 140.369C206.197 140.369 206.588 140.463 206.923 140.651C207.258 140.835 207.518 141.111 207.703 141.477C207.887 141.844 207.98 142.297 207.98 142.837V147H206.706V142.99C206.706 142.516 206.582 142.145 206.335 141.878C206.088 141.608 205.748 141.473 205.316 141.473C205.021 141.473 204.758 141.537 204.528 141.665C204.301 141.793 204.12 141.98 203.987 142.227C203.856 142.472 203.791 142.767 203.791 143.114ZM212.744 140.455V141.477H209.169V140.455H212.744ZM210.127 138.886H211.402V145.078C211.402 145.325 211.439 145.511 211.512 145.636C211.586 145.759 211.681 145.842 211.798 145.888C211.917 145.93 212.047 145.952 212.186 145.952C212.288 145.952 212.377 145.945 212.454 145.93C212.531 145.916 212.591 145.905 212.633 145.896L212.863 146.949C212.789 146.977 212.684 147.006 212.548 147.034C212.412 147.065 212.241 147.082 212.037 147.085C211.701 147.091 211.389 147.031 211.099 146.906C210.809 146.781 210.575 146.588 210.396 146.327C210.217 146.065 210.127 145.737 210.127 145.342V138.886ZM217.329 147V140.455H218.561V141.494H218.629C218.748 141.142 218.958 140.865 219.26 140.663C219.564 140.459 219.907 140.357 220.291 140.357C220.37 140.357 220.464 140.359 220.572 140.365C220.683 140.371 220.77 140.378 220.832 140.386V141.605C220.781 141.591 220.69 141.575 220.559 141.558C220.429 141.538 220.298 141.528 220.167 141.528C219.866 141.528 219.598 141.592 219.362 141.72C219.129 141.845 218.944 142.02 218.808 142.244C218.672 142.466 218.603 142.719 218.603 143.003V147H217.329ZM224.521 147.132C223.876 147.132 223.321 146.994 222.855 146.719C222.392 146.44 222.034 146.05 221.781 145.547C221.531 145.041 221.406 144.449 221.406 143.77C221.406 143.099 221.531 142.509 221.781 141.997C222.034 141.486 222.386 141.087 222.838 140.8C223.293 140.513 223.824 140.369 224.432 140.369C224.801 140.369 225.159 140.43 225.506 140.553C225.852 140.675 226.163 140.866 226.439 141.128C226.714 141.389 226.932 141.729 227.091 142.146C227.25 142.561 227.33 143.065 227.33 143.659V144.111H222.126V143.156H226.081C226.081 142.821 226.013 142.524 225.876 142.266C225.74 142.004 225.548 141.798 225.301 141.648C225.057 141.497 224.77 141.422 224.44 141.422C224.082 141.422 223.77 141.51 223.503 141.686C223.239 141.859 223.034 142.087 222.889 142.368C222.747 142.646 222.676 142.949 222.676 143.276V144.021C222.676 144.459 222.753 144.831 222.906 145.138C223.062 145.445 223.28 145.679 223.558 145.841C223.837 146 224.162 146.08 224.534 146.08C224.776 146.08 224.996 146.045 225.195 145.977C225.393 145.906 225.565 145.801 225.71 145.662C225.855 145.523 225.966 145.351 226.043 145.146L227.249 145.364C227.152 145.719 226.979 146.03 226.729 146.297C226.482 146.561 226.17 146.767 225.795 146.915C225.423 147.06 224.999 147.132 224.521 147.132ZM231.5 147.132C230.867 147.132 230.321 146.989 229.864 146.702C229.409 146.412 229.06 146.013 228.816 145.504C228.571 144.996 228.449 144.413 228.449 143.757C228.449 143.092 228.574 142.506 228.824 141.997C229.074 141.486 229.426 141.087 229.881 140.8C230.336 140.513 230.871 140.369 231.488 140.369C231.985 140.369 232.428 140.462 232.817 140.646C233.206 140.828 233.52 141.084 233.759 141.413C234 141.743 234.144 142.128 234.189 142.568H232.949C232.881 142.261 232.725 141.997 232.48 141.776C232.239 141.554 231.915 141.443 231.509 141.443C231.154 141.443 230.843 141.537 230.576 141.724C230.311 141.909 230.105 142.173 229.958 142.517C229.81 142.858 229.736 143.261 229.736 143.727C229.736 144.205 229.809 144.616 229.953 144.963C230.098 145.31 230.303 145.578 230.567 145.768C230.834 145.959 231.148 146.054 231.509 146.054C231.75 146.054 231.969 146.01 232.165 145.922C232.364 145.831 232.53 145.702 232.664 145.534C232.8 145.366 232.895 145.165 232.949 144.929H234.189C234.144 145.352 234.006 145.73 233.776 146.062C233.546 146.395 233.238 146.656 232.851 146.847C232.468 147.037 232.017 147.132 231.5 147.132ZM238.373 147.132C237.728 147.132 237.173 146.994 236.707 146.719C236.244 146.44 235.886 146.05 235.633 145.547C235.383 145.041 235.258 144.449 235.258 143.77C235.258 143.099 235.383 142.509 235.633 141.997C235.886 141.486 236.238 141.087 236.69 140.8C237.144 140.513 237.675 140.369 238.283 140.369C238.653 140.369 239.011 140.43 239.357 140.553C239.704 140.675 240.015 140.866 240.29 141.128C240.566 141.389 240.783 141.729 240.942 142.146C241.102 142.561 241.181 143.065 241.181 143.659V144.111H235.978V143.156H239.933C239.933 142.821 239.864 142.524 239.728 142.266C239.592 142.004 239.4 141.798 239.153 141.648C238.908 141.497 238.621 141.422 238.292 141.422C237.934 141.422 237.621 141.51 237.354 141.686C237.09 141.859 236.886 142.087 236.741 142.368C236.599 142.646 236.528 142.949 236.528 143.276V144.021C236.528 144.459 236.604 144.831 236.758 145.138C236.914 145.445 237.131 145.679 237.41 145.841C237.688 146 238.013 146.08 238.386 146.08C238.627 146.08 238.847 146.045 239.046 145.977C239.245 145.906 239.417 145.801 239.562 145.662C239.707 145.523 239.817 145.351 239.894 145.146L241.1 145.364C241.004 145.719 240.83 146.03 240.58 146.297C240.333 146.561 240.022 146.767 239.647 146.915C239.275 147.06 238.85 147.132 238.373 147.132ZM242.595 147V140.455H243.869V147H242.595ZM243.238 139.445C243.017 139.445 242.826 139.371 242.667 139.223C242.511 139.072 242.433 138.893 242.433 138.686C242.433 138.476 242.511 138.297 242.667 138.149C242.826 137.999 243.017 137.923 243.238 137.923C243.46 137.923 243.649 137.999 243.805 138.149C243.964 138.297 244.044 138.476 244.044 138.686C244.044 138.893 243.964 139.072 243.805 139.223C243.649 139.371 243.46 139.445 243.238 139.445ZM251.183 140.455L248.809 147H247.445L245.067 140.455H246.435L248.093 145.491H248.161L249.815 140.455H251.183ZM254.978 147.132C254.333 147.132 253.778 146.994 253.312 146.719C252.849 146.44 252.491 146.05 252.238 145.547C251.988 145.041 251.863 144.449 251.863 143.77C251.863 143.099 251.988 142.509 252.238 141.997C252.491 141.486 252.843 141.087 253.295 140.8C253.75 140.513 254.281 140.369 254.889 140.369C255.258 140.369 255.616 140.43 255.963 140.553C256.309 140.675 256.62 140.866 256.896 141.128C257.172 141.389 257.389 141.729 257.548 142.146C257.707 142.561 257.787 143.065 257.787 143.659V144.111H252.583V143.156H256.538C256.538 142.821 256.47 142.524 256.333 142.266C256.197 142.004 256.005 141.798 255.758 141.648C255.514 141.497 255.227 141.422 254.897 141.422C254.539 141.422 254.227 141.51 253.96 141.686C253.696 141.859 253.491 142.087 253.346 142.368C253.204 142.646 253.133 142.949 253.133 143.276V144.021C253.133 144.459 253.21 144.831 253.363 145.138C253.52 145.445 253.737 145.679 254.015 145.841C254.294 146 254.619 146.08 254.991 146.08C255.233 146.08 255.453 146.045 255.652 145.977C255.85 145.906 256.022 145.801 256.167 145.662C256.312 145.523 256.423 145.351 256.5 145.146L257.706 145.364C257.609 145.719 257.436 146.03 257.186 146.297C256.939 146.561 256.627 146.767 256.252 146.915C255.88 147.06 255.456 147.132 254.978 147.132ZM261.651 147.128C261.122 147.128 260.651 146.993 260.236 146.723C259.824 146.45 259.5 146.062 259.264 145.56C259.031 145.054 258.915 144.447 258.915 143.74C258.915 143.033 259.033 142.428 259.268 141.925C259.507 141.422 259.834 141.037 260.249 140.77C260.663 140.503 261.134 140.369 261.659 140.369C262.065 140.369 262.392 140.438 262.639 140.574C262.889 140.707 263.082 140.864 263.219 141.043C263.358 141.222 263.466 141.379 263.543 141.516H263.619V138.273H264.893V147H263.649V145.982H263.543C263.466 146.121 263.355 146.28 263.21 146.459C263.068 146.638 262.872 146.794 262.622 146.928C262.372 147.061 262.048 147.128 261.651 147.128ZM261.932 146.041C262.298 146.041 262.608 145.945 262.861 145.751C263.116 145.555 263.31 145.284 263.44 144.938C263.574 144.591 263.641 144.187 263.641 143.727C263.641 143.273 263.575 142.875 263.445 142.534C263.314 142.193 263.122 141.928 262.869 141.737C262.616 141.547 262.304 141.452 261.932 141.452C261.548 141.452 261.229 141.551 260.973 141.75C260.717 141.949 260.524 142.22 260.393 142.564C260.266 142.908 260.202 143.295 260.202 143.727C260.202 144.165 260.267 144.558 260.398 144.908C260.528 145.257 260.722 145.534 260.977 145.739C261.236 145.94 261.554 146.041 261.932 146.041Z"
        fill="#0D0D0D" />
    <path
        d="M303.835 140.455V141.307H300.307V140.455H303.835ZM301.364 147V139.551C301.364 139.176 301.452 138.864 301.628 138.614C301.804 138.364 302.033 138.176 302.314 138.051C302.595 137.926 302.892 137.864 303.205 137.864C303.452 137.864 303.653 137.884 303.81 137.923C303.966 137.963 304.082 138 304.159 138.034L303.869 138.903C303.818 138.886 303.747 138.865 303.656 138.839C303.568 138.814 303.452 138.801 303.307 138.801C302.974 138.801 302.734 138.885 302.587 139.053C302.442 139.22 302.369 139.466 302.369 139.79V147H301.364ZM307.634 147.136C307.043 147.136 306.525 146.996 306.079 146.714C305.636 146.433 305.289 146.04 305.039 145.534C304.792 145.028 304.668 144.437 304.668 143.761C304.668 143.08 304.792 142.484 305.039 141.976C305.289 141.467 305.636 141.072 306.079 140.791C306.525 140.51 307.043 140.369 307.634 140.369C308.225 140.369 308.742 140.51 309.185 140.791C309.631 141.072 309.978 141.467 310.225 141.976C310.475 142.484 310.6 143.08 310.6 143.761C310.6 144.437 310.475 145.028 310.225 145.534C309.978 146.04 309.631 146.433 309.185 146.714C308.742 146.996 308.225 147.136 307.634 147.136ZM307.634 146.233C308.083 146.233 308.452 146.118 308.742 145.888C309.032 145.658 309.246 145.355 309.386 144.98C309.525 144.605 309.594 144.199 309.594 143.761C309.594 143.324 309.525 142.916 309.386 142.538C309.246 142.161 309.032 141.855 308.742 141.622C308.452 141.389 308.083 141.273 307.634 141.273C307.185 141.273 306.816 141.389 306.526 141.622C306.237 141.855 306.022 142.161 305.883 142.538C305.744 142.916 305.674 143.324 305.674 143.761C305.674 144.199 305.744 144.605 305.883 144.98C306.022 145.355 306.237 145.658 306.526 145.888C306.816 146.118 307.185 146.233 307.634 146.233ZM312.135 147V140.455H313.107V141.443H313.175C313.294 141.119 313.51 140.857 313.823 140.655C314.135 140.453 314.488 140.352 314.88 140.352C314.953 140.352 315.046 140.354 315.157 140.357C315.267 140.359 315.351 140.364 315.408 140.369V141.392C315.374 141.384 315.296 141.371 315.174 141.354C315.054 141.334 314.928 141.324 314.794 141.324C314.476 141.324 314.192 141.391 313.942 141.524C313.695 141.655 313.499 141.837 313.354 142.07C313.212 142.3 313.141 142.562 313.141 142.858V147H312.135ZM327.058 138.273V147H325.847L321.411 140.599H321.33V147H320.013V138.273H321.232L325.673 144.682H325.754V138.273H327.058ZM328.876 147V140.455H330.15V147H328.876ZM329.52 139.445C329.298 139.445 329.108 139.371 328.949 139.223C328.792 139.072 328.714 138.893 328.714 138.686C328.714 138.476 328.792 138.297 328.949 138.149C329.108 137.999 329.298 137.923 329.52 137.923C329.741 137.923 329.93 137.999 330.086 138.149C330.245 138.297 330.325 138.476 330.325 138.686C330.325 138.893 330.245 139.072 330.086 139.223C329.93 139.371 329.741 139.445 329.52 139.445ZM333.036 144.78L333.028 143.224H333.249L335.857 140.455H337.383L334.408 143.608H334.208L333.036 144.78ZM331.864 147V138.273H333.138V147H331.864ZM335.998 147L333.654 143.889L334.532 142.999L337.562 147H335.998ZM341.096 147.132C340.451 147.132 339.895 146.994 339.429 146.719C338.966 146.44 338.608 146.05 338.355 145.547C338.105 145.041 337.98 144.449 337.98 143.77C337.98 143.099 338.105 142.509 338.355 141.997C338.608 141.486 338.961 141.087 339.412 140.8C339.867 140.513 340.398 140.369 341.006 140.369C341.375 140.369 341.733 140.43 342.08 140.553C342.426 140.675 342.738 140.866 343.013 141.128C343.289 141.389 343.506 141.729 343.665 142.146C343.824 142.561 343.904 143.065 343.904 143.659V144.111H338.701V143.156H342.655C342.655 142.821 342.587 142.524 342.451 142.266C342.314 142.004 342.123 141.798 341.875 141.648C341.631 141.497 341.344 141.422 341.015 141.422C340.657 141.422 340.344 141.51 340.077 141.686C339.813 141.859 339.608 142.087 339.463 142.368C339.321 142.646 339.25 142.949 339.25 143.276V144.021C339.25 144.459 339.327 144.831 339.48 145.138C339.637 145.445 339.854 145.679 340.132 145.841C340.411 146 340.736 146.08 341.108 146.08C341.35 146.08 341.57 146.045 341.769 145.977C341.968 145.906 342.14 145.801 342.284 145.662C342.429 145.523 342.54 145.351 342.617 145.146L343.823 145.364C343.726 145.719 343.553 146.03 343.303 146.297C343.056 146.561 342.745 146.767 342.37 146.915C341.998 147.06 341.573 147.132 341.096 147.132ZM349.333 147H347.935L351.076 138.273H352.597L355.738 147H354.34L351.873 139.858H351.804L349.333 147ZM349.567 143.582H354.101V144.69H349.567V143.582ZM356.954 147V140.455H358.228V147H356.954ZM357.598 139.445C357.376 139.445 357.186 139.371 357.027 139.223C356.87 139.072 356.792 138.893 356.792 138.686C356.792 138.476 356.87 138.297 357.027 138.149C357.186 137.999 357.376 137.923 357.598 137.923C357.819 137.923 358.008 137.999 358.164 138.149C358.324 138.297 358.403 138.476 358.403 138.686C358.403 138.893 358.324 139.072 358.164 139.223C358.008 139.371 357.819 139.445 357.598 139.445ZM359.942 147V140.455H361.174V141.494H361.242C361.362 141.142 361.572 140.865 361.873 140.663C362.177 140.459 362.521 140.357 362.904 140.357C362.984 140.357 363.077 140.359 363.185 140.365C363.296 140.371 363.383 140.378 363.445 140.386V141.605C363.394 141.591 363.303 141.575 363.173 141.558C363.042 141.538 362.911 141.528 362.781 141.528C362.479 141.528 362.211 141.592 361.975 141.72C361.742 141.845 361.558 142.02 361.421 142.244C361.285 142.466 361.217 142.719 361.217 143.003V147H359.942ZM368.05 140.455V141.477H364.351V140.455H368.05ZM365.365 147V139.696C365.365 139.287 365.455 138.947 365.634 138.678C365.813 138.405 366.05 138.202 366.345 138.068C366.641 137.932 366.962 137.864 367.308 137.864C367.564 137.864 367.783 137.885 367.964 137.928C368.146 137.967 368.281 138.004 368.369 138.038L368.071 139.07C368.011 139.053 367.935 139.033 367.841 139.01C367.747 138.984 367.634 138.972 367.5 138.972C367.19 138.972 366.969 139.048 366.835 139.202C366.705 139.355 366.639 139.577 366.639 139.866V147H365.365ZM371.864 147.132C371.25 147.132 370.714 146.991 370.257 146.71C369.8 146.429 369.445 146.036 369.192 145.53C368.939 145.024 368.812 144.433 368.812 143.757C368.812 143.078 368.939 142.484 369.192 141.976C369.445 141.467 369.8 141.072 370.257 140.791C370.714 140.51 371.25 140.369 371.864 140.369C372.477 140.369 373.013 140.51 373.47 140.791C373.928 141.072 374.283 141.467 374.536 141.976C374.788 142.484 374.915 143.078 374.915 143.757C374.915 144.433 374.788 145.024 374.536 145.53C374.283 146.036 373.928 146.429 373.47 146.71C373.013 146.991 372.477 147.132 371.864 147.132ZM371.868 146.062C372.266 146.062 372.595 145.957 372.857 145.747C373.118 145.537 373.311 145.257 373.436 144.908C373.564 144.558 373.628 144.173 373.628 143.753C373.628 143.335 373.564 142.952 373.436 142.602C373.311 142.25 373.118 141.967 372.857 141.754C372.595 141.541 372.266 141.435 371.868 141.435C371.467 141.435 371.135 141.541 370.871 141.754C370.609 141.967 370.415 142.25 370.287 142.602C370.162 142.952 370.099 143.335 370.099 143.753C370.099 144.173 370.162 144.558 370.287 144.908C370.415 145.257 370.609 145.537 370.871 145.747C371.135 145.957 371.467 146.062 371.868 146.062ZM376.337 147V140.455H377.569V141.494H377.637C377.756 141.142 377.966 140.865 378.267 140.663C378.571 140.459 378.915 140.357 379.299 140.357C379.378 140.357 379.472 140.359 379.58 140.365C379.691 140.371 379.777 140.378 379.84 140.386V141.605C379.789 141.591 379.698 141.575 379.567 141.558C379.436 141.538 379.306 141.528 379.175 141.528C378.874 141.528 378.605 141.592 378.37 141.72C378.137 141.845 377.952 142.02 377.816 142.244C377.679 142.466 377.611 142.719 377.611 143.003V147H376.337ZM383.465 147.132C382.832 147.132 382.286 146.989 381.829 146.702C381.374 146.412 381.025 146.013 380.781 145.504C380.536 144.996 380.414 144.413 380.414 143.757C380.414 143.092 380.539 142.506 380.789 141.997C381.039 141.486 381.391 141.087 381.846 140.8C382.3 140.513 382.836 140.369 383.452 140.369C383.95 140.369 384.393 140.462 384.782 140.646C385.171 140.828 385.485 141.084 385.724 141.413C385.965 141.743 386.109 142.128 386.154 142.568H384.914C384.846 142.261 384.69 141.997 384.445 141.776C384.204 141.554 383.88 141.443 383.474 141.443C383.119 141.443 382.808 141.537 382.54 141.724C382.276 141.909 382.07 142.173 381.923 142.517C381.775 142.858 381.701 143.261 381.701 143.727C381.701 144.205 381.773 144.616 381.918 144.963C382.063 145.31 382.268 145.578 382.532 145.768C382.799 145.959 383.113 146.054 383.474 146.054C383.715 146.054 383.934 146.01 384.13 145.922C384.329 145.831 384.495 145.702 384.629 145.534C384.765 145.366 384.86 145.165 384.914 144.929H386.154C386.109 145.352 385.971 145.73 385.741 146.062C385.511 146.395 385.202 146.656 384.816 146.847C384.433 147.037 383.982 147.132 383.465 147.132ZM390.338 147.132C389.693 147.132 389.137 146.994 388.672 146.719C388.208 146.44 387.85 146.05 387.598 145.547C387.348 145.041 387.223 144.449 387.223 143.77C387.223 143.099 387.348 142.509 387.598 141.997C387.85 141.486 388.203 141.087 388.654 140.8C389.109 140.513 389.64 140.369 390.248 140.369C390.618 140.369 390.975 140.43 391.322 140.553C391.669 140.675 391.98 140.866 392.255 141.128C392.531 141.389 392.748 141.729 392.907 142.146C393.066 142.561 393.146 143.065 393.146 143.659V144.111H387.943V143.156H391.897C391.897 142.821 391.829 142.524 391.693 142.266C391.556 142.004 391.365 141.798 391.118 141.648C390.873 141.497 390.586 141.422 390.257 141.422C389.899 141.422 389.586 141.51 389.319 141.686C389.055 141.859 388.85 142.087 388.706 142.368C388.564 142.646 388.493 142.949 388.493 143.276V144.021C388.493 144.459 388.569 144.831 388.723 145.138C388.879 145.445 389.096 145.679 389.375 145.841C389.653 146 389.978 146.08 390.35 146.08C390.592 146.08 390.812 146.045 391.011 145.977C391.21 145.906 391.382 145.801 391.527 145.662C391.672 145.523 391.782 145.351 391.859 145.146L393.065 145.364C392.968 145.719 392.795 146.03 392.545 146.297C392.298 146.561 391.987 146.767 391.612 146.915C391.24 147.06 390.815 147.132 390.338 147.132ZM401.029 138.273V147H399.708V139.594H399.657L397.569 140.957V139.696L399.747 138.273H401.029Z"
        fill="#808080" />
    <path
        d="M171.94 165.46V166.312H163.247V165.46H171.94ZM171.94 167.301V168.153H163.247V167.301H171.94ZM171.118 162.273V171H169.903L165.467 164.599H165.391V171H164.07V162.273H165.293L169.729 168.682H169.81V162.273H171.118ZM179.241 171.119C178.656 171.119 178.133 171.018 177.673 170.817C177.216 170.615 176.853 170.335 176.586 169.977C176.322 169.616 176.18 169.199 176.16 168.724H177.498C177.515 168.983 177.602 169.207 177.758 169.398C177.917 169.585 178.125 169.73 178.38 169.832C178.636 169.935 178.92 169.986 179.233 169.986C179.576 169.986 179.88 169.926 180.145 169.807C180.412 169.687 180.62 169.521 180.771 169.308C180.922 169.092 180.997 168.844 180.997 168.562C180.997 168.27 180.922 168.013 180.771 167.791C180.623 167.567 180.406 167.391 180.119 167.263C179.835 167.135 179.491 167.071 179.088 167.071H178.35V165.997H179.088C179.412 165.997 179.696 165.939 179.94 165.822C180.187 165.706 180.38 165.544 180.52 165.337C180.659 165.126 180.728 164.881 180.728 164.599C180.728 164.33 180.667 164.095 180.545 163.896C180.426 163.695 180.255 163.537 180.034 163.423C179.815 163.31 179.556 163.253 179.258 163.253C178.974 163.253 178.708 163.305 178.461 163.411C178.217 163.513 178.018 163.661 177.865 163.854C177.711 164.044 177.629 164.273 177.618 164.54H176.343C176.358 164.068 176.497 163.653 176.761 163.295C177.028 162.937 177.38 162.658 177.818 162.456C178.255 162.254 178.741 162.153 179.275 162.153C179.835 162.153 180.318 162.263 180.724 162.482C181.133 162.697 181.449 162.986 181.67 163.347C181.895 163.707 182.005 164.102 182.002 164.531C182.005 165.02 181.869 165.435 181.593 165.776C181.321 166.116 180.957 166.345 180.502 166.462V166.53C181.082 166.618 181.531 166.848 181.849 167.22C182.17 167.592 182.329 168.054 182.326 168.605C182.329 169.085 182.196 169.516 181.926 169.896C181.659 170.277 181.294 170.577 180.831 170.795C180.368 171.011 179.838 171.119 179.241 171.119ZM186.975 171.145C186.302 171.142 185.727 170.964 185.25 170.612C184.772 170.26 184.407 169.747 184.154 169.074C183.902 168.401 183.775 167.589 183.775 166.641C183.775 165.695 183.902 164.886 184.154 164.216C184.41 163.545 184.777 163.034 185.254 162.682C185.734 162.33 186.308 162.153 186.975 162.153C187.643 162.153 188.216 162.331 188.693 162.686C189.17 163.038 189.535 163.55 189.788 164.22C190.044 164.888 190.172 165.695 190.172 166.641C190.172 167.592 190.045 168.405 189.792 169.078C189.539 169.749 189.174 170.261 188.697 170.616C188.22 170.969 187.646 171.145 186.975 171.145ZM186.975 170.007C187.566 170.007 188.028 169.719 188.36 169.142C188.696 168.565 188.863 167.732 188.863 166.641C188.863 165.916 188.787 165.304 188.633 164.804C188.483 164.301 188.265 163.92 187.981 163.662C187.7 163.401 187.365 163.27 186.975 163.27C186.387 163.27 185.926 163.56 185.591 164.139C185.255 164.719 185.086 165.553 185.083 166.641C185.083 167.368 185.159 167.983 185.309 168.486C185.463 168.986 185.68 169.365 185.961 169.624C186.243 169.879 186.581 170.007 186.975 170.007ZM193.042 169.807L192.978 170.271C192.935 170.612 192.863 170.967 192.76 171.337C192.661 171.709 192.557 172.054 192.449 172.372C192.344 172.69 192.257 172.943 192.189 173.131H191.286C191.323 172.955 191.374 172.716 191.439 172.415C191.505 172.116 191.569 171.783 191.631 171.413C191.694 171.044 191.74 170.668 191.772 170.284L191.814 169.807H193.042ZM197.546 171.145C196.873 171.142 196.297 170.964 195.82 170.612C195.343 170.26 194.978 169.747 194.725 169.074C194.472 168.401 194.346 167.589 194.346 166.641C194.346 165.695 194.472 164.886 194.725 164.216C194.98 163.545 195.347 163.034 195.824 162.682C196.304 162.33 196.878 162.153 197.546 162.153C198.213 162.153 198.786 162.331 199.263 162.686C199.74 163.038 200.105 163.55 200.358 164.22C200.614 164.888 200.742 165.695 200.742 166.641C200.742 167.592 200.615 168.405 200.363 169.078C200.11 169.749 199.745 170.261 199.267 170.616C198.79 170.969 198.216 171.145 197.546 171.145ZM197.546 170.007C198.137 170.007 198.598 169.719 198.931 169.142C199.266 168.565 199.434 167.732 199.434 166.641C199.434 165.916 199.357 165.304 199.203 164.804C199.053 164.301 198.836 163.92 198.551 163.662C198.27 163.401 197.935 163.27 197.546 163.27C196.958 163.27 196.496 163.56 196.161 164.139C195.826 164.719 195.657 165.553 195.654 166.641C195.654 167.368 195.729 167.983 195.88 168.486C196.033 168.986 196.25 169.365 196.532 169.624C196.813 169.879 197.151 170.007 197.546 170.007ZM205.292 171.145C204.619 171.142 204.043 170.964 203.566 170.612C203.089 170.26 202.724 169.747 202.471 169.074C202.218 168.401 202.092 167.589 202.092 166.641C202.092 165.695 202.218 164.886 202.471 164.216C202.727 163.545 203.093 163.034 203.57 162.682C204.05 162.33 204.624 162.153 205.292 162.153C205.96 162.153 206.532 162.331 207.009 162.686C207.487 163.038 207.852 163.55 208.104 164.22C208.36 164.888 208.488 165.695 208.488 166.641C208.488 167.592 208.362 168.405 208.109 169.078C207.856 169.749 207.491 170.261 207.013 170.616C206.536 170.969 205.962 171.145 205.292 171.145ZM205.292 170.007C205.883 170.007 206.344 169.719 206.677 169.142C207.012 168.565 207.18 167.732 207.18 166.641C207.18 165.916 207.103 165.304 206.95 164.804C206.799 164.301 206.582 163.92 206.298 163.662C206.016 163.401 205.681 163.27 205.292 163.27C204.704 163.27 204.242 163.56 203.907 164.139C203.572 164.719 203.403 165.553 203.4 166.641C203.4 167.368 203.475 167.983 203.626 168.486C203.779 168.986 203.996 169.365 204.278 169.624C204.559 169.879 204.897 170.007 205.292 170.007ZM213.038 171.145C212.365 171.142 211.789 170.964 211.312 170.612C210.835 170.26 210.47 169.747 210.217 169.074C209.964 168.401 209.838 167.589 209.838 166.641C209.838 165.695 209.964 164.886 210.217 164.216C210.473 163.545 210.839 163.034 211.316 162.682C211.797 162.33 212.37 162.153 213.038 162.153C213.706 162.153 214.278 162.331 214.755 162.686C215.233 163.038 215.598 163.55 215.85 164.22C216.106 164.888 216.234 165.695 216.234 166.641C216.234 167.592 216.108 168.405 215.855 169.078C215.602 169.749 215.237 170.261 214.76 170.616C214.282 170.969 213.708 171.145 213.038 171.145ZM213.038 170.007C213.629 170.007 214.091 169.719 214.423 169.142C214.758 168.565 214.926 167.732 214.926 166.641C214.926 165.916 214.849 165.304 214.696 164.804C214.545 164.301 214.328 163.92 214.044 163.662C213.762 163.401 213.427 163.27 213.038 163.27C212.45 163.27 211.988 163.56 211.653 164.139C211.318 164.719 211.149 165.553 211.146 166.641C211.146 167.368 211.221 167.983 211.372 168.486C211.525 168.986 211.743 169.365 212.024 169.624C212.305 169.879 212.643 170.007 213.038 170.007Z"
        fill="#999999" />
    <rect x="333" y="162.5" width="70" height="9" rx="4" fill="#FFEB99" />
    <rect x="99" y="193" width="316" height="60" rx="8" fill="white" />
    <circle cx="133" cy="223" r="22" fill="#F5FFF2" />
    <path fill-rule="evenodd" clip-rule="evenodd"
        d="M133 234C139.075 234 144 229.075 144 223C144 216.925 139.075 212 133 212C126.925 212 122 216.925 122 223C122 229.075 126.925 234 133 234ZM138.097 221.222C138.634 220.685 138.634 219.815 138.097 219.278C137.56 218.741 136.69 218.741 136.153 219.278L131.625 223.805L129.847 222.028C129.31 221.491 128.44 221.491 127.903 222.028C127.366 222.565 127.366 223.435 127.903 223.972L130.653 226.722C131.19 227.259 132.06 227.259 132.597 226.722L138.097 221.222Z"
        fill="#29CC00" />
    <path
        d="M163.959 215V206.273H167.07C167.749 206.273 168.311 206.396 168.757 206.643C169.203 206.891 169.537 207.229 169.759 207.658C169.98 208.084 170.091 208.564 170.091 209.098C170.091 209.635 169.979 210.118 169.754 210.547C169.533 210.973 169.197 211.311 168.749 211.561C168.303 211.808 167.741 211.932 167.065 211.932H164.926V210.815H166.946C167.375 210.815 167.723 210.741 167.99 210.594C168.257 210.443 168.453 210.239 168.578 209.98C168.703 209.722 168.766 209.428 168.766 209.098C168.766 208.768 168.703 208.476 168.578 208.22C168.453 207.964 168.256 207.764 167.986 207.619C167.719 207.474 167.366 207.402 166.929 207.402H165.276V215H163.959ZM173.379 215.145C172.964 215.145 172.589 215.068 172.254 214.915C171.918 214.759 171.653 214.533 171.457 214.237C171.263 213.942 171.167 213.58 171.167 213.151C171.167 212.781 171.238 212.477 171.38 212.239C171.522 212 171.714 211.811 171.955 211.672C172.197 211.533 172.467 211.428 172.765 211.357C173.063 211.286 173.367 211.232 173.677 211.195C174.069 211.149 174.387 211.112 174.631 211.084C174.876 211.053 175.053 211.003 175.164 210.935C175.275 210.866 175.33 210.756 175.33 210.602V210.572C175.33 210.2 175.225 209.912 175.015 209.707C174.808 209.503 174.498 209.401 174.086 209.401C173.657 209.401 173.319 209.496 173.072 209.686C172.827 209.874 172.658 210.082 172.565 210.312L171.367 210.04C171.509 209.642 171.717 209.321 171.989 209.077C172.265 208.83 172.582 208.651 172.94 208.54C173.298 208.426 173.674 208.369 174.069 208.369C174.33 208.369 174.607 208.401 174.9 208.463C175.195 208.523 175.471 208.634 175.727 208.795C175.985 208.957 176.197 209.189 176.362 209.49C176.526 209.788 176.609 210.176 176.609 210.653V215H175.364V214.105H175.313C175.231 214.27 175.107 214.432 174.942 214.591C174.778 214.75 174.566 214.882 174.308 214.987C174.049 215.092 173.739 215.145 173.379 215.145ZM173.656 214.122C174.008 214.122 174.309 214.053 174.559 213.913C174.812 213.774 175.004 213.592 175.134 213.368C175.268 213.141 175.335 212.898 175.335 212.639V211.795C175.289 211.841 175.201 211.884 175.07 211.923C174.942 211.96 174.796 211.993 174.631 212.021C174.467 212.047 174.306 212.071 174.15 212.094C173.994 212.114 173.863 212.131 173.758 212.145C173.511 212.176 173.285 212.229 173.08 212.303C172.879 212.376 172.717 212.483 172.594 212.622C172.475 212.759 172.415 212.94 172.415 213.168C172.415 213.483 172.532 213.722 172.765 213.884C172.998 214.043 173.295 214.122 173.656 214.122ZM178.877 217.455C178.686 217.455 178.513 217.439 178.357 217.408C178.201 217.379 178.084 217.348 178.007 217.314L178.314 216.27C178.547 216.332 178.755 216.359 178.936 216.351C179.118 216.342 179.279 216.274 179.418 216.146C179.56 216.018 179.685 215.81 179.793 215.52L179.951 215.085L177.556 208.455H178.919L180.577 213.534H180.645L182.303 208.455H183.671L180.973 215.874C180.848 216.214 180.689 216.503 180.496 216.739C180.303 216.977 180.073 217.156 179.806 217.276C179.539 217.395 179.229 217.455 178.877 217.455ZM184.868 215V208.455H186.091V209.52H186.172C186.309 209.159 186.532 208.878 186.841 208.676C187.151 208.472 187.522 208.369 187.953 208.369C188.391 208.369 188.757 208.472 189.053 208.676C189.351 208.881 189.571 209.162 189.713 209.52H189.782C189.938 209.17 190.186 208.892 190.527 208.685C190.868 208.474 191.275 208.369 191.746 208.369C192.34 208.369 192.824 208.555 193.199 208.928C193.577 209.3 193.766 209.861 193.766 210.611V215H192.492V210.73C192.492 210.287 192.371 209.966 192.13 209.767C191.888 209.568 191.6 209.469 191.265 209.469C190.85 209.469 190.527 209.597 190.297 209.852C190.067 210.105 189.952 210.43 189.952 210.828V215H188.682V210.649C188.682 210.294 188.571 210.009 188.35 209.793C188.128 209.577 187.84 209.469 187.485 209.469C187.243 209.469 187.02 209.533 186.816 209.661C186.614 209.786 186.451 209.96 186.326 210.185C186.203 210.409 186.142 210.669 186.142 210.964V215H184.868ZM198.295 215.132C197.65 215.132 197.094 214.994 196.629 214.719C196.165 214.44 195.808 214.05 195.555 213.547C195.305 213.041 195.18 212.449 195.18 211.77C195.18 211.099 195.305 210.509 195.555 209.997C195.808 209.486 196.16 209.087 196.612 208.8C197.066 208.513 197.597 208.369 198.205 208.369C198.575 208.369 198.933 208.43 199.279 208.553C199.626 208.675 199.937 208.866 200.212 209.128C200.488 209.389 200.705 209.729 200.864 210.146C201.023 210.561 201.103 211.065 201.103 211.659V212.111H195.9V211.156H199.854C199.854 210.821 199.786 210.524 199.65 210.266C199.513 210.004 199.322 209.798 199.075 209.648C198.83 209.497 198.543 209.422 198.214 209.422C197.856 209.422 197.543 209.51 197.276 209.686C197.012 209.859 196.808 210.087 196.663 210.368C196.521 210.646 196.45 210.949 196.45 211.276V212.021C196.45 212.459 196.526 212.831 196.68 213.138C196.836 213.445 197.053 213.679 197.332 213.841C197.61 214 197.935 214.08 198.308 214.08C198.549 214.08 198.769 214.045 198.968 213.977C199.167 213.906 199.339 213.801 199.484 213.662C199.629 213.523 199.739 213.351 199.816 213.146L201.022 213.364C200.925 213.719 200.752 214.03 200.502 214.297C200.255 214.561 199.944 214.767 199.569 214.915C199.197 215.06 198.772 215.132 198.295 215.132ZM203.791 211.114V215H202.517V208.455H203.74V209.52H203.821C203.971 209.173 204.207 208.895 204.528 208.685C204.852 208.474 205.26 208.369 205.751 208.369C206.197 208.369 206.588 208.463 206.923 208.651C207.258 208.835 207.518 209.111 207.703 209.477C207.887 209.844 207.98 210.297 207.98 210.837V215H206.706V210.99C206.706 210.516 206.582 210.145 206.335 209.878C206.088 209.608 205.748 209.473 205.316 209.473C205.021 209.473 204.758 209.537 204.528 209.665C204.301 209.793 204.12 209.98 203.987 210.227C203.856 210.472 203.791 210.767 203.791 211.114ZM212.744 208.455V209.477H209.169V208.455H212.744ZM210.127 206.886H211.402V213.078C211.402 213.325 211.439 213.511 211.512 213.636C211.586 213.759 211.681 213.842 211.798 213.888C211.917 213.93 212.047 213.952 212.186 213.952C212.288 213.952 212.377 213.945 212.454 213.93C212.531 213.916 212.591 213.905 212.633 213.896L212.863 214.949C212.789 214.977 212.684 215.006 212.548 215.034C212.412 215.065 212.241 215.082 212.037 215.085C211.701 215.091 211.389 215.031 211.099 214.906C210.809 214.781 210.575 214.588 210.396 214.327C210.217 214.065 210.127 213.737 210.127 213.342V206.886ZM217.329 215V208.455H218.561V209.494H218.629C218.748 209.142 218.958 208.865 219.26 208.663C219.564 208.459 219.907 208.357 220.291 208.357C220.37 208.357 220.464 208.359 220.572 208.365C220.683 208.371 220.77 208.378 220.832 208.386V209.605C220.781 209.591 220.69 209.575 220.559 209.558C220.429 209.538 220.298 209.528 220.167 209.528C219.866 209.528 219.598 209.592 219.362 209.72C219.129 209.845 218.944 210.02 218.808 210.244C218.672 210.466 218.603 210.719 218.603 211.003V215H217.329ZM224.521 215.132C223.876 215.132 223.321 214.994 222.855 214.719C222.392 214.44 222.034 214.05 221.781 213.547C221.531 213.041 221.406 212.449 221.406 211.77C221.406 211.099 221.531 210.509 221.781 209.997C222.034 209.486 222.386 209.087 222.838 208.8C223.293 208.513 223.824 208.369 224.432 208.369C224.801 208.369 225.159 208.43 225.506 208.553C225.852 208.675 226.163 208.866 226.439 209.128C226.714 209.389 226.932 209.729 227.091 210.146C227.25 210.561 227.33 211.065 227.33 211.659V212.111H222.126V211.156H226.081C226.081 210.821 226.013 210.524 225.876 210.266C225.74 210.004 225.548 209.798 225.301 209.648C225.057 209.497 224.77 209.422 224.44 209.422C224.082 209.422 223.77 209.51 223.503 209.686C223.239 209.859 223.034 210.087 222.889 210.368C222.747 210.646 222.676 210.949 222.676 211.276V212.021C222.676 212.459 222.753 212.831 222.906 213.138C223.062 213.445 223.28 213.679 223.558 213.841C223.837 214 224.162 214.08 224.534 214.08C224.776 214.08 224.996 214.045 225.195 213.977C225.393 213.906 225.565 213.801 225.71 213.662C225.855 213.523 225.966 213.351 226.043 213.146L227.249 213.364C227.152 213.719 226.979 214.03 226.729 214.297C226.482 214.561 226.17 214.767 225.795 214.915C225.423 215.06 224.999 215.132 224.521 215.132ZM231.5 215.132C230.867 215.132 230.321 214.989 229.864 214.702C229.409 214.412 229.06 214.013 228.816 213.504C228.571 212.996 228.449 212.413 228.449 211.757C228.449 211.092 228.574 210.506 228.824 209.997C229.074 209.486 229.426 209.087 229.881 208.8C230.336 208.513 230.871 208.369 231.488 208.369C231.985 208.369 232.428 208.462 232.817 208.646C233.206 208.828 233.52 209.084 233.759 209.413C234 209.743 234.144 210.128 234.189 210.568H232.949C232.881 210.261 232.725 209.997 232.48 209.776C232.239 209.554 231.915 209.443 231.509 209.443C231.154 209.443 230.843 209.537 230.576 209.724C230.311 209.909 230.105 210.173 229.958 210.517C229.81 210.858 229.736 211.261 229.736 211.727C229.736 212.205 229.809 212.616 229.953 212.963C230.098 213.31 230.303 213.578 230.567 213.768C230.834 213.959 231.148 214.054 231.509 214.054C231.75 214.054 231.969 214.01 232.165 213.922C232.364 213.831 232.53 213.702 232.664 213.534C232.8 213.366 232.895 213.165 232.949 212.929H234.189C234.144 213.352 234.006 213.73 233.776 214.062C233.546 214.395 233.238 214.656 232.851 214.847C232.468 215.037 232.017 215.132 231.5 215.132ZM238.373 215.132C237.728 215.132 237.173 214.994 236.707 214.719C236.244 214.44 235.886 214.05 235.633 213.547C235.383 213.041 235.258 212.449 235.258 211.77C235.258 211.099 235.383 210.509 235.633 209.997C235.886 209.486 236.238 209.087 236.69 208.8C237.144 208.513 237.675 208.369 238.283 208.369C238.653 208.369 239.011 208.43 239.357 208.553C239.704 208.675 240.015 208.866 240.29 209.128C240.566 209.389 240.783 209.729 240.942 210.146C241.102 210.561 241.181 211.065 241.181 211.659V212.111H235.978V211.156H239.933C239.933 210.821 239.864 210.524 239.728 210.266C239.592 210.004 239.4 209.798 239.153 209.648C238.908 209.497 238.621 209.422 238.292 209.422C237.934 209.422 237.621 209.51 237.354 209.686C237.09 209.859 236.886 210.087 236.741 210.368C236.599 210.646 236.528 210.949 236.528 211.276V212.021C236.528 212.459 236.604 212.831 236.758 213.138C236.914 213.445 237.131 213.679 237.41 213.841C237.688 214 238.013 214.08 238.386 214.08C238.627 214.08 238.847 214.045 239.046 213.977C239.245 213.906 239.417 213.801 239.562 213.662C239.707 213.523 239.817 213.351 239.894 213.146L241.1 213.364C241.004 213.719 240.83 214.03 240.58 214.297C240.333 214.561 240.022 214.767 239.647 214.915C239.275 215.06 238.85 215.132 238.373 215.132ZM242.595 215V208.455H243.869V215H242.595ZM243.238 207.445C243.017 207.445 242.826 207.371 242.667 207.223C242.511 207.072 242.433 206.893 242.433 206.686C242.433 206.476 242.511 206.297 242.667 206.149C242.826 205.999 243.017 205.923 243.238 205.923C243.46 205.923 243.649 205.999 243.805 206.149C243.964 206.297 244.044 206.476 244.044 206.686C244.044 206.893 243.964 207.072 243.805 207.223C243.649 207.371 243.46 207.445 243.238 207.445ZM251.183 208.455L248.809 215H247.445L245.067 208.455H246.435L248.093 213.491H248.161L249.815 208.455H251.183ZM254.978 215.132C254.333 215.132 253.778 214.994 253.312 214.719C252.849 214.44 252.491 214.05 252.238 213.547C251.988 213.041 251.863 212.449 251.863 211.77C251.863 211.099 251.988 210.509 252.238 209.997C252.491 209.486 252.843 209.087 253.295 208.8C253.75 208.513 254.281 208.369 254.889 208.369C255.258 208.369 255.616 208.43 255.963 208.553C256.309 208.675 256.62 208.866 256.896 209.128C257.172 209.389 257.389 209.729 257.548 210.146C257.707 210.561 257.787 211.065 257.787 211.659V212.111H252.583V211.156H256.538C256.538 210.821 256.47 210.524 256.333 210.266C256.197 210.004 256.005 209.798 255.758 209.648C255.514 209.497 255.227 209.422 254.897 209.422C254.539 209.422 254.227 209.51 253.96 209.686C253.696 209.859 253.491 210.087 253.346 210.368C253.204 210.646 253.133 210.949 253.133 211.276V212.021C253.133 212.459 253.21 212.831 253.363 213.138C253.52 213.445 253.737 213.679 254.015 213.841C254.294 214 254.619 214.08 254.991 214.08C255.233 214.08 255.453 214.045 255.652 213.977C255.85 213.906 256.022 213.801 256.167 213.662C256.312 213.523 256.423 213.351 256.5 213.146L257.706 213.364C257.609 213.719 257.436 214.03 257.186 214.297C256.939 214.561 256.627 214.767 256.252 214.915C255.88 215.06 255.456 215.132 254.978 215.132ZM261.651 215.128C261.122 215.128 260.651 214.993 260.236 214.723C259.824 214.45 259.5 214.062 259.264 213.56C259.031 213.054 258.915 212.447 258.915 211.74C258.915 211.033 259.033 210.428 259.268 209.925C259.507 209.422 259.834 209.037 260.249 208.77C260.663 208.503 261.134 208.369 261.659 208.369C262.065 208.369 262.392 208.438 262.639 208.574C262.889 208.707 263.082 208.864 263.219 209.043C263.358 209.222 263.466 209.379 263.543 209.516H263.619V206.273H264.893V215H263.649V213.982H263.543C263.466 214.121 263.355 214.28 263.21 214.459C263.068 214.638 262.872 214.794 262.622 214.928C262.372 215.061 262.048 215.128 261.651 215.128ZM261.932 214.041C262.298 214.041 262.608 213.945 262.861 213.751C263.116 213.555 263.31 213.284 263.44 212.938C263.574 212.591 263.641 212.187 263.641 211.727C263.641 211.273 263.575 210.875 263.445 210.534C263.314 210.193 263.122 209.928 262.869 209.737C262.616 209.547 262.304 209.452 261.932 209.452C261.548 209.452 261.229 209.551 260.973 209.75C260.717 209.949 260.524 210.22 260.393 210.564C260.266 210.908 260.202 211.295 260.202 211.727C260.202 212.165 260.267 212.558 260.398 212.908C260.528 213.257 260.722 213.534 260.977 213.739C261.236 213.94 261.554 214.041 261.932 214.041Z"
        fill="#0D0D0D" />
    <path
        d="M331.835 208.455V209.307H328.307V208.455H331.835ZM329.364 215V207.551C329.364 207.176 329.452 206.864 329.628 206.614C329.804 206.364 330.033 206.176 330.314 206.051C330.595 205.926 330.892 205.864 331.205 205.864C331.452 205.864 331.653 205.884 331.81 205.923C331.966 205.963 332.082 206 332.159 206.034L331.869 206.903C331.818 206.886 331.747 206.865 331.656 206.839C331.568 206.814 331.452 206.801 331.307 206.801C330.974 206.801 330.734 206.885 330.587 207.053C330.442 207.22 330.369 207.466 330.369 207.79V215H329.364ZM335.634 215.136C335.043 215.136 334.525 214.996 334.079 214.714C333.636 214.433 333.289 214.04 333.039 213.534C332.792 213.028 332.668 212.437 332.668 211.761C332.668 211.08 332.792 210.484 333.039 209.976C333.289 209.467 333.636 209.072 334.079 208.791C334.525 208.51 335.043 208.369 335.634 208.369C336.225 208.369 336.742 208.51 337.185 208.791C337.631 209.072 337.978 209.467 338.225 209.976C338.475 210.484 338.6 211.08 338.6 211.761C338.6 212.437 338.475 213.028 338.225 213.534C337.978 214.04 337.631 214.433 337.185 214.714C336.742 214.996 336.225 215.136 335.634 215.136ZM335.634 214.233C336.083 214.233 336.452 214.118 336.742 213.888C337.032 213.658 337.246 213.355 337.386 212.98C337.525 212.605 337.594 212.199 337.594 211.761C337.594 211.324 337.525 210.916 337.386 210.538C337.246 210.161 337.032 209.855 336.742 209.622C336.452 209.389 336.083 209.273 335.634 209.273C335.185 209.273 334.816 209.389 334.526 209.622C334.237 209.855 334.022 210.161 333.883 210.538C333.744 210.916 333.674 211.324 333.674 211.761C333.674 212.199 333.744 212.605 333.883 212.98C334.022 213.355 334.237 213.658 334.526 213.888C334.816 214.118 335.185 214.233 335.634 214.233ZM340.135 215V208.455H341.107V209.443H341.175C341.294 209.119 341.51 208.857 341.823 208.655C342.135 208.453 342.488 208.352 342.88 208.352C342.953 208.352 343.046 208.354 343.157 208.357C343.267 208.359 343.351 208.364 343.408 208.369V209.392C343.374 209.384 343.296 209.371 343.174 209.354C343.054 209.334 342.928 209.324 342.794 209.324C342.476 209.324 342.192 209.391 341.942 209.524C341.695 209.655 341.499 209.837 341.354 210.07C341.212 210.3 341.141 210.562 341.141 210.858V215H340.135ZM347.911 215V208.455H349.185V215H347.911ZM348.555 207.445C348.333 207.445 348.143 207.371 347.984 207.223C347.827 207.072 347.749 206.893 347.749 206.686C347.749 206.476 347.827 206.297 347.984 206.149C348.143 205.999 348.333 205.923 348.555 205.923C348.776 205.923 348.965 205.999 349.121 206.149C349.281 206.297 349.36 206.476 349.36 206.686C349.36 206.893 349.281 207.072 349.121 207.223C348.965 207.371 348.776 207.445 348.555 207.445ZM351.002 215V206.273H354.113C354.792 206.273 355.354 206.396 355.8 206.643C356.246 206.891 356.58 207.229 356.801 207.658C357.023 208.084 357.134 208.564 357.134 209.098C357.134 209.635 357.022 210.118 356.797 210.547C356.576 210.973 356.24 211.311 355.792 211.561C355.346 211.808 354.784 211.932 354.108 211.932H351.969V210.815H353.989C354.418 210.815 354.766 210.741 355.033 210.594C355.3 210.443 355.496 210.239 355.621 209.98C355.746 209.722 355.809 209.428 355.809 209.098C355.809 208.768 355.746 208.476 355.621 208.22C355.496 207.964 355.299 207.764 355.029 207.619C354.762 207.474 354.409 207.402 353.972 207.402H352.319V215H351.002ZM359.849 211.114V215H358.575V206.273H359.832V209.52H359.913C360.067 209.168 360.301 208.888 360.616 208.68C360.932 208.473 361.344 208.369 361.852 208.369C362.301 208.369 362.693 208.462 363.028 208.646C363.366 208.831 363.628 209.107 363.812 209.473C364 209.837 364.094 210.291 364.094 210.837V215H362.82V210.99C362.82 210.51 362.696 210.138 362.449 209.874C362.202 209.607 361.858 209.473 361.418 209.473C361.116 209.473 360.847 209.537 360.608 209.665C360.372 209.793 360.186 209.98 360.05 210.227C359.916 210.472 359.849 210.767 359.849 211.114ZM368.551 215.132C367.938 215.132 367.402 214.991 366.945 214.71C366.487 214.429 366.132 214.036 365.879 213.53C365.626 213.024 365.5 212.433 365.5 211.757C365.5 211.078 365.626 210.484 365.879 209.976C366.132 209.467 366.487 209.072 366.945 208.791C367.402 208.51 367.938 208.369 368.551 208.369C369.165 208.369 369.7 208.51 370.158 208.791C370.615 209.072 370.97 209.467 371.223 209.976C371.476 210.484 371.602 211.078 371.602 211.757C371.602 212.433 371.476 213.024 371.223 213.53C370.97 214.036 370.615 214.429 370.158 214.71C369.7 214.991 369.165 215.132 368.551 215.132ZM368.555 214.062C368.953 214.062 369.283 213.957 369.544 213.747C369.805 213.537 369.999 213.257 370.124 212.908C370.251 212.558 370.315 212.173 370.315 211.753C370.315 211.335 370.251 210.952 370.124 210.602C369.999 210.25 369.805 209.967 369.544 209.754C369.283 209.541 368.953 209.435 368.555 209.435C368.155 209.435 367.822 209.541 367.558 209.754C367.297 209.967 367.102 210.25 366.974 210.602C366.849 210.952 366.787 211.335 366.787 211.753C366.787 212.173 366.849 212.558 366.974 212.908C367.102 213.257 367.297 213.537 367.558 213.747C367.822 213.957 368.155 214.062 368.555 214.062ZM374.299 211.114V215H373.025V208.455H374.248V209.52H374.328C374.479 209.173 374.715 208.895 375.036 208.685C375.36 208.474 375.767 208.369 376.259 208.369C376.705 208.369 377.096 208.463 377.431 208.651C377.766 208.835 378.026 209.111 378.211 209.477C378.395 209.844 378.488 210.297 378.488 210.837V215H377.213V210.99C377.213 210.516 377.09 210.145 376.843 209.878C376.596 209.608 376.256 209.473 375.824 209.473C375.529 209.473 375.266 209.537 375.036 209.665C374.809 209.793 374.628 209.98 374.495 210.227C374.364 210.472 374.299 210.767 374.299 211.114ZM383.017 215.132C382.373 215.132 381.817 214.994 381.351 214.719C380.888 214.44 380.53 214.05 380.277 213.547C380.027 213.041 379.902 212.449 379.902 211.77C379.902 211.099 380.027 210.509 380.277 209.997C380.53 209.486 380.882 209.087 381.334 208.8C381.789 208.513 382.32 208.369 382.928 208.369C383.297 208.369 383.655 208.43 384.002 208.553C384.348 208.675 384.659 208.866 384.935 209.128C385.211 209.389 385.428 209.729 385.587 210.146C385.746 210.561 385.826 211.065 385.826 211.659V212.111H380.623V211.156H384.577C384.577 210.821 384.509 210.524 384.373 210.266C384.236 210.004 384.044 209.798 383.797 209.648C383.553 209.497 383.266 209.422 382.936 209.422C382.578 209.422 382.266 209.51 381.999 209.686C381.735 209.859 381.53 210.087 381.385 210.368C381.243 210.646 381.172 210.949 381.172 211.276V212.021C381.172 212.459 381.249 212.831 381.402 213.138C381.559 213.445 381.776 213.679 382.054 213.841C382.333 214 382.658 214.08 383.03 214.08C383.272 214.08 383.492 214.045 383.691 213.977C383.89 213.906 384.061 213.801 384.206 213.662C384.351 213.523 384.462 213.351 384.539 213.146L385.745 213.364C385.648 213.719 385.475 214.03 385.225 214.297C384.978 214.561 384.667 214.767 384.292 214.915C383.919 215.06 383.495 215.132 383.017 215.132ZM393.709 206.273V215H392.388V207.594H392.337L390.249 208.957V207.696L392.426 206.273H393.709ZM398.951 215.119C398.417 215.119 397.936 215.017 397.51 214.812C397.087 214.605 396.749 214.321 396.496 213.96C396.243 213.599 396.108 213.188 396.091 212.724H397.37C397.401 213.099 397.567 213.408 397.868 213.649C398.169 213.891 398.53 214.011 398.951 214.011C399.286 214.011 399.583 213.935 399.841 213.781C400.103 213.625 400.307 213.411 400.455 213.138C400.605 212.865 400.681 212.554 400.681 212.205C400.681 211.849 400.604 211.533 400.451 211.254C400.297 210.976 400.086 210.757 399.816 210.598C399.549 210.439 399.242 210.358 398.895 210.355C398.631 210.355 398.365 210.401 398.098 210.491C397.831 210.582 397.615 210.702 397.451 210.849L396.245 210.67L396.735 206.273H401.533V207.402H397.83L397.553 209.844H397.604C397.775 209.679 398 209.541 398.282 209.43C398.566 209.32 398.87 209.264 399.194 209.264C399.725 209.264 400.198 209.391 400.613 209.643C401.03 209.896 401.358 210.241 401.597 210.679C401.838 211.114 401.958 211.614 401.955 212.179C401.958 212.744 401.83 213.249 401.571 213.692C401.316 214.135 400.961 214.484 400.506 214.74C400.054 214.993 399.536 215.119 398.951 215.119Z"
        fill="#808080" />
    <path
        d="M171.94 233.46V234.312H163.247V233.46H171.94ZM171.94 235.301V236.153H163.247V235.301H171.94ZM171.118 230.273V239H169.903L165.467 232.599H165.391V239H164.07V230.273H165.293L169.729 236.682H169.81V230.273H171.118ZM179.152 239.119C178.541 239.119 178.001 239.014 177.532 238.804C177.066 238.594 176.701 238.304 176.437 237.935C176.173 237.565 176.042 237.145 176.045 236.673C176.042 236.304 176.118 235.964 176.271 235.655C176.427 235.342 176.639 235.082 176.906 234.875C177.173 234.665 177.471 234.531 177.801 234.474V234.423C177.366 234.318 177.018 234.085 176.757 233.724C176.495 233.364 176.366 232.949 176.369 232.48C176.366 232.034 176.484 231.636 176.723 231.287C176.964 230.935 177.295 230.658 177.716 230.456C178.136 230.254 178.615 230.153 179.152 230.153C179.683 230.153 180.157 230.256 180.575 230.46C180.995 230.662 181.326 230.939 181.568 231.291C181.809 231.641 181.931 232.037 181.934 232.48C181.931 232.949 181.798 233.364 181.534 233.724C181.27 234.085 180.926 234.318 180.502 234.423V234.474C180.829 234.531 181.123 234.665 181.385 234.875C181.649 235.082 181.859 235.342 182.015 235.655C182.174 235.964 182.255 236.304 182.258 236.673C182.255 237.145 182.122 237.565 181.858 237.935C181.593 238.304 181.227 238.594 180.758 238.804C180.292 239.014 179.757 239.119 179.152 239.119ZM179.152 238.041C179.512 238.041 179.825 237.982 180.089 237.862C180.353 237.74 180.558 237.571 180.703 237.355C180.848 237.136 180.922 236.881 180.924 236.588C180.922 236.284 180.842 236.016 180.686 235.783C180.532 235.55 180.324 235.366 180.059 235.233C179.795 235.099 179.493 235.033 179.152 235.033C178.808 235.033 178.502 235.099 178.235 235.233C177.968 235.366 177.758 235.55 177.605 235.783C177.451 236.016 177.376 236.284 177.379 236.588C177.376 236.881 177.446 237.136 177.588 237.355C177.733 237.571 177.939 237.74 178.206 237.862C178.473 237.982 178.788 238.041 179.152 238.041ZM179.152 233.98C179.441 233.98 179.699 233.922 179.923 233.805C180.147 233.689 180.324 233.527 180.451 233.32C180.582 233.112 180.649 232.869 180.652 232.591C180.649 232.318 180.583 232.08 180.456 231.875C180.331 231.67 180.156 231.513 179.931 231.402C179.707 231.288 179.447 231.232 179.152 231.232C178.85 231.232 178.586 231.288 178.359 231.402C178.135 231.513 177.96 231.67 177.835 231.875C177.71 232.08 177.649 232.318 177.652 232.591C177.649 232.869 177.711 233.112 177.839 233.32C177.967 233.527 178.143 233.689 178.368 233.805C178.595 233.922 178.856 233.98 179.152 233.98ZM186.823 239.145C186.15 239.142 185.575 238.964 185.097 238.612C184.62 238.26 184.255 237.747 184.002 237.074C183.749 236.401 183.623 235.589 183.623 234.641C183.623 233.695 183.749 232.886 184.002 232.216C184.258 231.545 184.624 231.034 185.102 230.682C185.582 230.33 186.156 230.153 186.823 230.153C187.491 230.153 188.063 230.331 188.54 230.686C189.018 231.038 189.383 231.55 189.636 232.22C189.891 232.888 190.019 233.695 190.019 234.641C190.019 235.592 189.893 236.405 189.64 237.078C189.387 237.749 189.022 238.261 188.545 238.616C188.067 238.969 187.494 239.145 186.823 239.145ZM186.823 238.007C187.414 238.007 187.876 237.719 188.208 237.142C188.543 236.565 188.711 235.732 188.711 234.641C188.711 233.916 188.634 233.304 188.481 232.804C188.33 232.301 188.113 231.92 187.829 231.662C187.548 231.401 187.212 231.27 186.823 231.27C186.235 231.27 185.773 231.56 185.438 232.139C185.103 232.719 184.934 233.553 184.931 234.641C184.931 235.368 185.006 235.983 185.157 236.486C185.31 236.986 185.528 237.365 185.809 237.624C186.09 237.879 186.428 238.007 186.823 238.007ZM192.889 237.807L192.825 238.271C192.783 238.612 192.71 238.967 192.608 239.337C192.509 239.709 192.405 240.054 192.297 240.372C192.192 240.69 192.105 240.943 192.037 241.131H191.134C191.17 240.955 191.222 240.716 191.287 240.415C191.352 240.116 191.416 239.783 191.479 239.413C191.541 239.044 191.588 238.668 191.619 238.284L191.662 237.807H192.889ZM197.412 239.119C196.877 239.119 196.397 239.017 195.971 238.812C195.548 238.605 195.21 238.321 194.957 237.96C194.704 237.599 194.569 237.188 194.552 236.724H195.831C195.862 237.099 196.028 237.408 196.329 237.649C196.63 237.891 196.991 238.011 197.412 238.011C197.747 238.011 198.044 237.935 198.302 237.781C198.564 237.625 198.768 237.411 198.916 237.138C199.066 236.865 199.142 236.554 199.142 236.205C199.142 235.849 199.065 235.533 198.912 235.254C198.758 234.976 198.547 234.757 198.277 234.598C198.01 234.439 197.703 234.358 197.356 234.355C197.092 234.355 196.826 234.401 196.559 234.491C196.292 234.582 196.076 234.702 195.912 234.849L194.706 234.67L195.196 230.273H199.994V231.402H196.291L196.014 233.844H196.065C196.235 233.679 196.461 233.541 196.743 233.43C197.027 233.32 197.331 233.264 197.654 233.264C198.186 233.264 198.659 233.391 199.074 233.643C199.491 233.896 199.819 234.241 200.058 234.679C200.299 235.114 200.419 235.614 200.416 236.179C200.419 236.744 200.291 237.249 200.032 237.692C199.777 238.135 199.422 238.484 198.967 238.74C198.515 238.993 197.997 239.119 197.412 239.119ZM201.972 239V238.045L204.925 234.986C205.241 234.653 205.501 234.362 205.705 234.112C205.913 233.859 206.067 233.619 206.17 233.392C206.272 233.165 206.323 232.923 206.323 232.668C206.323 232.378 206.255 232.128 206.119 231.918C205.982 231.705 205.796 231.541 205.56 231.428C205.325 231.311 205.059 231.253 204.763 231.253C204.451 231.253 204.178 231.317 203.945 231.445C203.712 231.572 203.533 231.753 203.408 231.986C203.283 232.219 203.221 232.491 203.221 232.804H201.964C201.964 232.273 202.086 231.808 202.33 231.411C202.575 231.013 202.91 230.705 203.336 230.486C203.762 230.264 204.246 230.153 204.789 230.153C205.337 230.153 205.82 230.263 206.238 230.482C206.658 230.697 206.987 230.993 207.222 231.368C207.458 231.74 207.576 232.161 207.576 232.629C207.576 232.953 207.515 233.27 207.393 233.58C207.273 233.889 207.065 234.234 206.766 234.615C206.468 234.993 206.053 235.452 205.522 235.991L203.788 237.807V237.871H207.717V239H201.972ZM212.37 239.145C211.697 239.142 211.121 238.964 210.644 238.612C210.167 238.26 209.802 237.747 209.549 237.074C209.296 236.401 209.17 235.589 209.17 234.641C209.17 233.695 209.296 232.886 209.549 232.216C209.805 231.545 210.171 231.034 210.648 230.682C211.129 230.33 211.702 230.153 212.37 230.153C213.038 230.153 213.61 230.331 214.087 230.686C214.565 231.038 214.93 231.55 215.183 232.22C215.438 232.888 215.566 233.695 215.566 234.641C215.566 235.592 215.44 236.405 215.187 237.078C214.934 237.749 214.569 238.261 214.092 238.616C213.614 238.969 213.04 239.145 212.37 239.145ZM212.37 238.007C212.961 238.007 213.423 237.719 213.755 237.142C214.09 236.565 214.258 235.732 214.258 234.641C214.258 233.916 214.181 233.304 214.028 232.804C213.877 232.301 213.66 231.92 213.376 231.662C213.094 231.401 212.759 231.27 212.37 231.27C211.782 231.27 211.32 231.56 210.985 232.139C210.65 232.719 210.481 233.553 210.478 234.641C210.478 235.368 210.553 235.983 210.704 236.486C210.857 236.986 211.075 237.365 211.356 237.624C211.637 237.879 211.975 238.007 212.37 238.007Z"
        fill="#999999" />
    <rect x="307" y="230.5" width="96" height="9" rx="4" fill="#FFEB99" />
    <rect x="99" y="261" width="316" height="60" rx="8" fill="white" />
    <circle cx="133" cy="291" r="22" fill="#F5FFF2" />
    <path fill-rule="evenodd" clip-rule="evenodd"
        d="M133 302C139.075 302 144 297.075 144 291C144 284.925 139.075 280 133 280C126.925 280 122 284.925 122 291C122 297.075 126.925 302 133 302ZM138.097 289.222C138.634 288.685 138.634 287.815 138.097 287.278C137.56 286.741 136.69 286.741 136.153 287.278L131.625 291.805L129.847 290.028C129.31 289.491 128.44 289.491 127.903 290.028C127.366 290.565 127.366 291.435 127.903 291.972L130.653 294.722C131.19 295.259 132.06 295.259 132.597 294.722L138.097 289.222Z"
        fill="#29CC00" />
    <path
        d="M163.959 283V274.273H167.07C167.749 274.273 168.311 274.396 168.757 274.643C169.203 274.891 169.537 275.229 169.759 275.658C169.98 276.084 170.091 276.564 170.091 277.098C170.091 277.635 169.979 278.118 169.754 278.547C169.533 278.973 169.197 279.311 168.749 279.561C168.303 279.808 167.741 279.932 167.065 279.932H164.926V278.815H166.946C167.375 278.815 167.723 278.741 167.99 278.594C168.257 278.443 168.453 278.239 168.578 277.98C168.703 277.722 168.766 277.428 168.766 277.098C168.766 276.768 168.703 276.476 168.578 276.22C168.453 275.964 168.256 275.764 167.986 275.619C167.719 275.474 167.366 275.402 166.929 275.402H165.276V283H163.959ZM173.379 283.145C172.964 283.145 172.589 283.068 172.254 282.915C171.918 282.759 171.653 282.533 171.457 282.237C171.263 281.942 171.167 281.58 171.167 281.151C171.167 280.781 171.238 280.477 171.38 280.239C171.522 280 171.714 279.811 171.955 279.672C172.197 279.533 172.467 279.428 172.765 279.357C173.063 279.286 173.367 279.232 173.677 279.195C174.069 279.149 174.387 279.112 174.631 279.084C174.876 279.053 175.053 279.003 175.164 278.935C175.275 278.866 175.33 278.756 175.33 278.602V278.572C175.33 278.2 175.225 277.912 175.015 277.707C174.808 277.503 174.498 277.401 174.086 277.401C173.657 277.401 173.319 277.496 173.072 277.686C172.827 277.874 172.658 278.082 172.565 278.312L171.367 278.04C171.509 277.642 171.717 277.321 171.989 277.077C172.265 276.83 172.582 276.651 172.94 276.54C173.298 276.426 173.674 276.369 174.069 276.369C174.33 276.369 174.607 276.401 174.9 276.463C175.195 276.523 175.471 276.634 175.727 276.795C175.985 276.957 176.197 277.189 176.362 277.49C176.526 277.788 176.609 278.176 176.609 278.653V283H175.364V282.105H175.313C175.231 282.27 175.107 282.432 174.942 282.591C174.778 282.75 174.566 282.882 174.308 282.987C174.049 283.092 173.739 283.145 173.379 283.145ZM173.656 282.122C174.008 282.122 174.309 282.053 174.559 281.913C174.812 281.774 175.004 281.592 175.134 281.368C175.268 281.141 175.335 280.898 175.335 280.639V279.795C175.289 279.841 175.201 279.884 175.07 279.923C174.942 279.96 174.796 279.993 174.631 280.021C174.467 280.047 174.306 280.071 174.15 280.094C173.994 280.114 173.863 280.131 173.758 280.145C173.511 280.176 173.285 280.229 173.08 280.303C172.879 280.376 172.717 280.483 172.594 280.622C172.475 280.759 172.415 280.94 172.415 281.168C172.415 281.483 172.532 281.722 172.765 281.884C172.998 282.043 173.295 282.122 173.656 282.122ZM178.877 285.455C178.686 285.455 178.513 285.439 178.357 285.408C178.201 285.379 178.084 285.348 178.007 285.314L178.314 284.27C178.547 284.332 178.755 284.359 178.936 284.351C179.118 284.342 179.279 284.274 179.418 284.146C179.56 284.018 179.685 283.81 179.793 283.52L179.951 283.085L177.556 276.455H178.919L180.577 281.534H180.645L182.303 276.455H183.671L180.973 283.874C180.848 284.214 180.689 284.503 180.496 284.739C180.303 284.977 180.073 285.156 179.806 285.276C179.539 285.395 179.229 285.455 178.877 285.455ZM184.868 283V276.455H186.091V277.52H186.172C186.309 277.159 186.532 276.878 186.841 276.676C187.151 276.472 187.522 276.369 187.953 276.369C188.391 276.369 188.757 276.472 189.053 276.676C189.351 276.881 189.571 277.162 189.713 277.52H189.782C189.938 277.17 190.186 276.892 190.527 276.685C190.868 276.474 191.275 276.369 191.746 276.369C192.34 276.369 192.824 276.555 193.199 276.928C193.577 277.3 193.766 277.861 193.766 278.611V283H192.492V278.73C192.492 278.287 192.371 277.966 192.13 277.767C191.888 277.568 191.6 277.469 191.265 277.469C190.85 277.469 190.527 277.597 190.297 277.852C190.067 278.105 189.952 278.43 189.952 278.828V283H188.682V278.649C188.682 278.294 188.571 278.009 188.35 277.793C188.128 277.577 187.84 277.469 187.485 277.469C187.243 277.469 187.02 277.533 186.816 277.661C186.614 277.786 186.451 277.96 186.326 278.185C186.203 278.409 186.142 278.669 186.142 278.964V283H184.868ZM198.295 283.132C197.65 283.132 197.094 282.994 196.629 282.719C196.165 282.44 195.808 282.05 195.555 281.547C195.305 281.041 195.18 280.449 195.18 279.77C195.18 279.099 195.305 278.509 195.555 277.997C195.808 277.486 196.16 277.087 196.612 276.8C197.066 276.513 197.597 276.369 198.205 276.369C198.575 276.369 198.933 276.43 199.279 276.553C199.626 276.675 199.937 276.866 200.212 277.128C200.488 277.389 200.705 277.729 200.864 278.146C201.023 278.561 201.103 279.065 201.103 279.659V280.111H195.9V279.156H199.854C199.854 278.821 199.786 278.524 199.65 278.266C199.513 278.004 199.322 277.798 199.075 277.648C198.83 277.497 198.543 277.422 198.214 277.422C197.856 277.422 197.543 277.51 197.276 277.686C197.012 277.859 196.808 278.087 196.663 278.368C196.521 278.646 196.45 278.949 196.45 279.276V280.021C196.45 280.459 196.526 280.831 196.68 281.138C196.836 281.445 197.053 281.679 197.332 281.841C197.61 282 197.935 282.08 198.308 282.08C198.549 282.08 198.769 282.045 198.968 281.977C199.167 281.906 199.339 281.801 199.484 281.662C199.629 281.523 199.739 281.351 199.816 281.146L201.022 281.364C200.925 281.719 200.752 282.03 200.502 282.297C200.255 282.561 199.944 282.767 199.569 282.915C199.197 283.06 198.772 283.132 198.295 283.132ZM203.791 279.114V283H202.517V276.455H203.74V277.52H203.821C203.971 277.173 204.207 276.895 204.528 276.685C204.852 276.474 205.26 276.369 205.751 276.369C206.197 276.369 206.588 276.463 206.923 276.651C207.258 276.835 207.518 277.111 207.703 277.477C207.887 277.844 207.98 278.297 207.98 278.837V283H206.706V278.99C206.706 278.516 206.582 278.145 206.335 277.878C206.088 277.608 205.748 277.473 205.316 277.473C205.021 277.473 204.758 277.537 204.528 277.665C204.301 277.793 204.12 277.98 203.987 278.227C203.856 278.472 203.791 278.767 203.791 279.114ZM212.744 276.455V277.477H209.169V276.455H212.744ZM210.127 274.886H211.402V281.078C211.402 281.325 211.439 281.511 211.512 281.636C211.586 281.759 211.681 281.842 211.798 281.888C211.917 281.93 212.047 281.952 212.186 281.952C212.288 281.952 212.377 281.945 212.454 281.93C212.531 281.916 212.591 281.905 212.633 281.896L212.863 282.949C212.789 282.977 212.684 283.006 212.548 283.034C212.412 283.065 212.241 283.082 212.037 283.085C211.701 283.091 211.389 283.031 211.099 282.906C210.809 282.781 210.575 282.588 210.396 282.327C210.217 282.065 210.127 281.737 210.127 281.342V274.886ZM217.329 283V276.455H218.561V277.494H218.629C218.748 277.142 218.958 276.865 219.26 276.663C219.564 276.459 219.907 276.357 220.291 276.357C220.37 276.357 220.464 276.359 220.572 276.365C220.683 276.371 220.77 276.378 220.832 276.386V277.605C220.781 277.591 220.69 277.575 220.559 277.558C220.429 277.538 220.298 277.528 220.167 277.528C219.866 277.528 219.598 277.592 219.362 277.72C219.129 277.845 218.944 278.02 218.808 278.244C218.672 278.466 218.603 278.719 218.603 279.003V283H217.329ZM224.521 283.132C223.876 283.132 223.321 282.994 222.855 282.719C222.392 282.44 222.034 282.05 221.781 281.547C221.531 281.041 221.406 280.449 221.406 279.77C221.406 279.099 221.531 278.509 221.781 277.997C222.034 277.486 222.386 277.087 222.838 276.8C223.293 276.513 223.824 276.369 224.432 276.369C224.801 276.369 225.159 276.43 225.506 276.553C225.852 276.675 226.163 276.866 226.439 277.128C226.714 277.389 226.932 277.729 227.091 278.146C227.25 278.561 227.33 279.065 227.33 279.659V280.111H222.126V279.156H226.081C226.081 278.821 226.013 278.524 225.876 278.266C225.74 278.004 225.548 277.798 225.301 277.648C225.057 277.497 224.77 277.422 224.44 277.422C224.082 277.422 223.77 277.51 223.503 277.686C223.239 277.859 223.034 278.087 222.889 278.368C222.747 278.646 222.676 278.949 222.676 279.276V280.021C222.676 280.459 222.753 280.831 222.906 281.138C223.062 281.445 223.28 281.679 223.558 281.841C223.837 282 224.162 282.08 224.534 282.08C224.776 282.08 224.996 282.045 225.195 281.977C225.393 281.906 225.565 281.801 225.71 281.662C225.855 281.523 225.966 281.351 226.043 281.146L227.249 281.364C227.152 281.719 226.979 282.03 226.729 282.297C226.482 282.561 226.17 282.767 225.795 282.915C225.423 283.06 224.999 283.132 224.521 283.132ZM231.5 283.132C230.867 283.132 230.321 282.989 229.864 282.702C229.409 282.412 229.06 282.013 228.816 281.504C228.571 280.996 228.449 280.413 228.449 279.757C228.449 279.092 228.574 278.506 228.824 277.997C229.074 277.486 229.426 277.087 229.881 276.8C230.336 276.513 230.871 276.369 231.488 276.369C231.985 276.369 232.428 276.462 232.817 276.646C233.206 276.828 233.52 277.084 233.759 277.413C234 277.743 234.144 278.128 234.189 278.568H232.949C232.881 278.261 232.725 277.997 232.48 277.776C232.239 277.554 231.915 277.443 231.509 277.443C231.154 277.443 230.843 277.537 230.576 277.724C230.311 277.909 230.105 278.173 229.958 278.517C229.81 278.858 229.736 279.261 229.736 279.727C229.736 280.205 229.809 280.616 229.953 280.963C230.098 281.31 230.303 281.578 230.567 281.768C230.834 281.959 231.148 282.054 231.509 282.054C231.75 282.054 231.969 282.01 232.165 281.922C232.364 281.831 232.53 281.702 232.664 281.534C232.8 281.366 232.895 281.165 232.949 280.929H234.189C234.144 281.352 234.006 281.73 233.776 282.062C233.546 282.395 233.238 282.656 232.851 282.847C232.468 283.037 232.017 283.132 231.5 283.132ZM238.373 283.132C237.728 283.132 237.173 282.994 236.707 282.719C236.244 282.44 235.886 282.05 235.633 281.547C235.383 281.041 235.258 280.449 235.258 279.77C235.258 279.099 235.383 278.509 235.633 277.997C235.886 277.486 236.238 277.087 236.69 276.8C237.144 276.513 237.675 276.369 238.283 276.369C238.653 276.369 239.011 276.43 239.357 276.553C239.704 276.675 240.015 276.866 240.29 277.128C240.566 277.389 240.783 277.729 240.942 278.146C241.102 278.561 241.181 279.065 241.181 279.659V280.111H235.978V279.156H239.933C239.933 278.821 239.864 278.524 239.728 278.266C239.592 278.004 239.4 277.798 239.153 277.648C238.908 277.497 238.621 277.422 238.292 277.422C237.934 277.422 237.621 277.51 237.354 277.686C237.09 277.859 236.886 278.087 236.741 278.368C236.599 278.646 236.528 278.949 236.528 279.276V280.021C236.528 280.459 236.604 280.831 236.758 281.138C236.914 281.445 237.131 281.679 237.41 281.841C237.688 282 238.013 282.08 238.386 282.08C238.627 282.08 238.847 282.045 239.046 281.977C239.245 281.906 239.417 281.801 239.562 281.662C239.707 281.523 239.817 281.351 239.894 281.146L241.1 281.364C241.004 281.719 240.83 282.03 240.58 282.297C240.333 282.561 240.022 282.767 239.647 282.915C239.275 283.06 238.85 283.132 238.373 283.132ZM242.595 283V276.455H243.869V283H242.595ZM243.238 275.445C243.017 275.445 242.826 275.371 242.667 275.223C242.511 275.072 242.433 274.893 242.433 274.686C242.433 274.476 242.511 274.297 242.667 274.149C242.826 273.999 243.017 273.923 243.238 273.923C243.46 273.923 243.649 273.999 243.805 274.149C243.964 274.297 244.044 274.476 244.044 274.686C244.044 274.893 243.964 275.072 243.805 275.223C243.649 275.371 243.46 275.445 243.238 275.445ZM251.183 276.455L248.809 283H247.445L245.067 276.455H246.435L248.093 281.491H248.161L249.815 276.455H251.183ZM254.978 283.132C254.333 283.132 253.778 282.994 253.312 282.719C252.849 282.44 252.491 282.05 252.238 281.547C251.988 281.041 251.863 280.449 251.863 279.77C251.863 279.099 251.988 278.509 252.238 277.997C252.491 277.486 252.843 277.087 253.295 276.8C253.75 276.513 254.281 276.369 254.889 276.369C255.258 276.369 255.616 276.43 255.963 276.553C256.309 276.675 256.62 276.866 256.896 277.128C257.172 277.389 257.389 277.729 257.548 278.146C257.707 278.561 257.787 279.065 257.787 279.659V280.111H252.583V279.156H256.538C256.538 278.821 256.47 278.524 256.333 278.266C256.197 278.004 256.005 277.798 255.758 277.648C255.514 277.497 255.227 277.422 254.897 277.422C254.539 277.422 254.227 277.51 253.96 277.686C253.696 277.859 253.491 278.087 253.346 278.368C253.204 278.646 253.133 278.949 253.133 279.276V280.021C253.133 280.459 253.21 280.831 253.363 281.138C253.52 281.445 253.737 281.679 254.015 281.841C254.294 282 254.619 282.08 254.991 282.08C255.233 282.08 255.453 282.045 255.652 281.977C255.85 281.906 256.022 281.801 256.167 281.662C256.312 281.523 256.423 281.351 256.5 281.146L257.706 281.364C257.609 281.719 257.436 282.03 257.186 282.297C256.939 282.561 256.627 282.767 256.252 282.915C255.88 283.06 255.456 283.132 254.978 283.132ZM261.651 283.128C261.122 283.128 260.651 282.993 260.236 282.723C259.824 282.45 259.5 282.062 259.264 281.56C259.031 281.054 258.915 280.447 258.915 279.74C258.915 279.033 259.033 278.428 259.268 277.925C259.507 277.422 259.834 277.037 260.249 276.77C260.663 276.503 261.134 276.369 261.659 276.369C262.065 276.369 262.392 276.438 262.639 276.574C262.889 276.707 263.082 276.864 263.219 277.043C263.358 277.222 263.466 277.379 263.543 277.516H263.619V274.273H264.893V283H263.649V281.982H263.543C263.466 282.121 263.355 282.28 263.21 282.459C263.068 282.638 262.872 282.794 262.622 282.928C262.372 283.061 262.048 283.128 261.651 283.128ZM261.932 282.041C262.298 282.041 262.608 281.945 262.861 281.751C263.116 281.555 263.31 281.284 263.44 280.938C263.574 280.591 263.641 280.187 263.641 279.727C263.641 279.273 263.575 278.875 263.445 278.534C263.314 278.193 263.122 277.928 262.869 277.737C262.616 277.547 262.304 277.452 261.932 277.452C261.548 277.452 261.229 277.551 260.973 277.75C260.717 277.949 260.524 278.22 260.393 278.564C260.266 278.908 260.202 279.295 260.202 279.727C260.202 280.165 260.267 280.558 260.398 280.908C260.528 281.257 260.722 281.534 260.977 281.739C261.236 281.94 261.554 282.041 261.932 282.041Z"
        fill="#0D0D0D" />
    <path
        d="M333.835 276.455V277.307H330.307V276.455H333.835ZM331.364 283V275.551C331.364 275.176 331.452 274.864 331.628 274.614C331.804 274.364 332.033 274.176 332.314 274.051C332.595 273.926 332.892 273.864 333.205 273.864C333.452 273.864 333.653 273.884 333.81 273.923C333.966 273.963 334.082 274 334.159 274.034L333.869 274.903C333.818 274.886 333.747 274.865 333.656 274.839C333.568 274.814 333.452 274.801 333.307 274.801C332.974 274.801 332.734 274.885 332.587 275.053C332.442 275.22 332.369 275.466 332.369 275.79V283H331.364ZM337.634 283.136C337.043 283.136 336.525 282.996 336.079 282.714C335.636 282.433 335.289 282.04 335.039 281.534C334.792 281.028 334.668 280.437 334.668 279.761C334.668 279.08 334.792 278.484 335.039 277.976C335.289 277.467 335.636 277.072 336.079 276.791C336.525 276.51 337.043 276.369 337.634 276.369C338.225 276.369 338.742 276.51 339.185 276.791C339.631 277.072 339.978 277.467 340.225 277.976C340.475 278.484 340.6 279.08 340.6 279.761C340.6 280.437 340.475 281.028 340.225 281.534C339.978 282.04 339.631 282.433 339.185 282.714C338.742 282.996 338.225 283.136 337.634 283.136ZM337.634 282.233C338.083 282.233 338.452 282.118 338.742 281.888C339.032 281.658 339.246 281.355 339.386 280.98C339.525 280.605 339.594 280.199 339.594 279.761C339.594 279.324 339.525 278.916 339.386 278.538C339.246 278.161 339.032 277.855 338.742 277.622C338.452 277.389 338.083 277.273 337.634 277.273C337.185 277.273 336.816 277.389 336.526 277.622C336.237 277.855 336.022 278.161 335.883 278.538C335.744 278.916 335.674 279.324 335.674 279.761C335.674 280.199 335.744 280.605 335.883 280.98C336.022 281.355 336.237 281.658 336.526 281.888C336.816 282.118 337.185 282.233 337.634 282.233ZM342.135 283V276.455H343.107V277.443H343.175C343.294 277.119 343.51 276.857 343.823 276.655C344.135 276.453 344.488 276.352 344.88 276.352C344.953 276.352 345.046 276.354 345.157 276.357C345.267 276.359 345.351 276.364 345.408 276.369V277.392C345.374 277.384 345.296 277.371 345.174 277.354C345.054 277.334 344.928 277.324 344.794 277.324C344.476 277.324 344.192 277.391 343.942 277.524C343.695 277.655 343.499 277.837 343.354 278.07C343.212 278.3 343.141 278.562 343.141 278.858V283H342.135ZM357.058 274.273V283H355.847L351.411 276.599H351.33V283H350.013V274.273H351.232L355.673 280.682H355.754V274.273H357.058ZM361.697 283.132C361.052 283.132 360.497 282.994 360.031 282.719C359.568 282.44 359.21 282.05 358.957 281.547C358.707 281.041 358.582 280.449 358.582 279.77C358.582 279.099 358.707 278.509 358.957 277.997C359.21 277.486 359.562 277.087 360.014 276.8C360.468 276.513 361 276.369 361.608 276.369C361.977 276.369 362.335 276.43 362.681 276.553C363.028 276.675 363.339 276.866 363.615 277.128C363.89 277.389 364.108 277.729 364.267 278.146C364.426 278.561 364.505 279.065 364.505 279.659V280.111H359.302V279.156H363.257C363.257 278.821 363.189 278.524 363.052 278.266C362.916 278.004 362.724 277.798 362.477 277.648C362.233 277.497 361.946 277.422 361.616 277.422C361.258 277.422 360.946 277.51 360.679 277.686C360.414 277.859 360.21 278.087 360.065 278.368C359.923 278.646 359.852 278.949 359.852 279.276V280.021C359.852 280.459 359.929 280.831 360.082 281.138C360.238 281.445 360.456 281.679 360.734 281.841C361.012 282 361.338 282.08 361.71 282.08C361.951 282.08 362.172 282.045 362.37 281.977C362.569 281.906 362.741 281.801 362.886 281.662C363.031 281.523 363.142 281.351 363.218 281.146L364.424 281.364C364.328 281.719 364.154 282.03 363.904 282.297C363.657 282.561 363.346 282.767 362.971 282.915C362.599 283.06 362.174 283.132 361.697 283.132ZM368.676 283.132C368.043 283.132 367.497 282.989 367.04 282.702C366.585 282.412 366.236 282.013 365.991 281.504C365.747 280.996 365.625 280.413 365.625 279.757C365.625 279.092 365.75 278.506 366 277.997C366.25 277.486 366.602 277.087 367.057 276.8C367.511 276.513 368.047 276.369 368.663 276.369C369.161 276.369 369.604 276.462 369.993 276.646C370.382 276.828 370.696 277.084 370.935 277.413C371.176 277.743 371.32 278.128 371.365 278.568H370.125C370.057 278.261 369.901 277.997 369.656 277.776C369.415 277.554 369.091 277.443 368.685 277.443C368.33 277.443 368.018 277.537 367.751 277.724C367.487 277.909 367.281 278.173 367.134 278.517C366.986 278.858 366.912 279.261 366.912 279.727C366.912 280.205 366.984 280.616 367.129 280.963C367.274 281.31 367.479 281.578 367.743 281.768C368.01 281.959 368.324 282.054 368.685 282.054C368.926 282.054 369.145 282.01 369.341 281.922C369.54 281.831 369.706 281.702 369.839 281.534C369.976 281.366 370.071 281.165 370.125 280.929H371.365C371.32 281.352 371.182 281.73 370.952 282.062C370.722 282.395 370.413 282.656 370.027 282.847C369.643 283.037 369.193 283.132 368.676 283.132ZM373.9 280.78L373.891 279.224H374.113L376.721 276.455H378.246L375.272 279.608H375.071L373.9 280.78ZM372.728 283V274.273H374.002V283H372.728ZM376.861 283L374.517 279.889L375.395 278.999L378.425 283H376.861ZM380.681 274.273V283H379.407V274.273H380.681ZM384.3 283.145C383.886 283.145 383.511 283.068 383.175 282.915C382.84 282.759 382.575 282.533 382.379 282.237C382.185 281.942 382.089 281.58 382.089 281.151C382.089 280.781 382.16 280.477 382.302 280.239C382.444 280 382.636 279.811 382.877 279.672C383.119 279.533 383.388 279.428 383.687 279.357C383.985 279.286 384.289 279.232 384.599 279.195C384.991 279.149 385.309 279.112 385.553 279.084C385.798 279.053 385.975 279.003 386.086 278.935C386.197 278.866 386.252 278.756 386.252 278.602V278.572C386.252 278.2 386.147 277.912 385.937 277.707C385.729 277.503 385.42 277.401 385.008 277.401C384.579 277.401 384.241 277.496 383.994 277.686C383.749 277.874 383.58 278.082 383.487 278.312L382.289 278.04C382.431 277.642 382.638 277.321 382.911 277.077C383.187 276.83 383.504 276.651 383.862 276.54C384.219 276.426 384.596 276.369 384.991 276.369C385.252 276.369 385.529 276.401 385.822 276.463C386.117 276.523 386.393 276.634 386.648 276.795C386.907 276.957 387.119 277.189 387.283 277.49C387.448 277.788 387.531 278.176 387.531 278.653V283H386.286V282.105H386.235C386.153 282.27 386.029 282.432 385.864 282.591C385.7 282.75 385.488 282.882 385.229 282.987C384.971 283.092 384.661 283.145 384.3 283.145ZM384.577 282.122C384.93 282.122 385.231 282.053 385.481 281.913C385.734 281.774 385.925 281.592 386.056 281.368C386.19 281.141 386.256 280.898 386.256 280.639V279.795C386.211 279.841 386.123 279.884 385.992 279.923C385.864 279.96 385.718 279.993 385.553 280.021C385.388 280.047 385.228 280.071 385.072 280.094C384.915 280.114 384.785 280.131 384.68 280.145C384.433 280.176 384.207 280.229 384.002 280.303C383.8 280.376 383.638 280.483 383.516 280.622C383.397 280.759 383.337 280.94 383.337 281.168C383.337 281.483 383.454 281.722 383.687 281.884C383.92 282.043 384.217 282.122 384.577 282.122ZM391.985 283.132C391.351 283.132 390.806 282.989 390.348 282.702C389.894 282.412 389.544 282.013 389.3 281.504C389.056 280.996 388.934 280.413 388.934 279.757C388.934 279.092 389.059 278.506 389.309 277.997C389.559 277.486 389.911 277.087 390.365 276.8C390.82 276.513 391.355 276.369 391.972 276.369C392.469 276.369 392.912 276.462 393.301 276.646C393.691 276.828 394.005 277.084 394.243 277.413C394.485 277.743 394.628 278.128 394.674 278.568H393.434C393.365 278.261 393.209 277.997 392.965 277.776C392.723 277.554 392.4 277.443 391.993 277.443C391.638 277.443 391.327 277.537 391.06 277.724C390.796 277.909 390.59 278.173 390.442 278.517C390.294 278.858 390.221 279.261 390.221 279.727C390.221 280.205 390.293 280.616 390.438 280.963C390.583 281.31 390.787 281.578 391.051 281.768C391.319 281.959 391.632 282.054 391.993 282.054C392.235 282.054 392.453 282.01 392.65 281.922C392.848 281.831 393.015 281.702 393.148 281.534C393.284 281.366 393.38 281.165 393.434 280.929H394.674C394.628 281.352 394.49 281.73 394.26 282.062C394.03 282.395 393.722 282.656 393.336 282.847C392.952 283.037 392.502 283.132 391.985 283.132ZM398.857 283.132C398.212 283.132 397.657 282.994 397.191 282.719C396.728 282.44 396.37 282.05 396.117 281.547C395.867 281.041 395.742 280.449 395.742 279.77C395.742 279.099 395.867 278.509 396.117 277.997C396.37 277.486 396.722 277.087 397.174 276.8C397.629 276.513 398.16 276.369 398.768 276.369C399.137 276.369 399.495 276.43 399.842 276.553C400.188 276.675 400.499 276.866 400.775 277.128C401.05 277.389 401.268 277.729 401.427 278.146C401.586 278.561 401.665 279.065 401.665 279.659V280.111H396.462V279.156H400.417C400.417 278.821 400.349 278.524 400.212 278.266C400.076 278.004 399.884 277.798 399.637 277.648C399.393 277.497 399.106 277.422 398.776 277.422C398.418 277.422 398.106 277.51 397.839 277.686C397.575 277.859 397.37 278.087 397.225 278.368C397.083 278.646 397.012 278.949 397.012 279.276V280.021C397.012 280.459 397.089 280.831 397.242 281.138C397.398 281.445 397.616 281.679 397.894 281.841C398.173 282 398.498 282.08 398.87 282.08C399.112 282.08 399.332 282.045 399.531 281.977C399.729 281.906 399.901 281.801 400.046 281.662C400.191 281.523 400.302 281.351 400.379 281.146L401.585 281.364C401.488 281.719 401.315 282.03 401.065 282.297C400.817 282.561 400.506 282.767 400.131 282.915C399.759 283.06 399.335 283.132 398.857 283.132Z"
        fill="#808080" />
    <path
        d="M171.94 301.46V302.312H163.247V301.46H171.94ZM171.94 303.301V304.153H163.247V303.301H171.94ZM171.118 298.273V307H169.903L165.467 300.599H165.391V307H164.07V298.273H165.293L169.729 304.682H169.81V298.273H171.118ZM179.514 298.273V307H178.193V299.594H178.142L176.054 300.957V299.696L178.231 298.273H179.514ZM182.169 307L185.978 299.466V299.402H181.572V298.273H187.342V299.44L183.545 307H182.169ZM188.999 305.807L188.935 306.271C188.892 306.612 188.82 306.967 188.717 307.337C188.618 307.709 188.514 308.054 188.406 308.372C188.301 308.69 188.214 308.943 188.146 309.131H187.243C187.28 308.955 187.331 308.716 187.396 308.415C187.462 308.116 187.526 307.783 187.588 307.413C187.651 307.044 187.697 306.668 187.729 306.284L187.771 305.807H188.999ZM193.437 307.119C192.826 307.119 192.286 307.014 191.817 306.804C191.352 306.594 190.987 306.304 190.722 305.935C190.458 305.565 190.327 305.145 190.33 304.673C190.327 304.304 190.403 303.964 190.556 303.655C190.712 303.342 190.924 303.082 191.191 302.875C191.458 302.665 191.756 302.531 192.086 302.474V302.423C191.651 302.318 191.303 302.085 191.042 301.724C190.781 301.364 190.651 300.949 190.654 300.48C190.651 300.034 190.769 299.636 191.008 299.287C191.249 298.935 191.58 298.658 192.001 298.456C192.421 298.254 192.9 298.153 193.437 298.153C193.968 298.153 194.442 298.256 194.86 298.46C195.281 298.662 195.612 298.939 195.853 299.291C196.094 299.641 196.217 300.037 196.219 300.48C196.217 300.949 196.083 301.364 195.819 301.724C195.555 302.085 195.211 302.318 194.788 302.423V302.474C195.114 302.531 195.408 302.665 195.67 302.875C195.934 303.082 196.144 303.342 196.3 303.655C196.46 303.964 196.54 304.304 196.543 304.673C196.54 305.145 196.407 305.565 196.143 305.935C195.879 306.304 195.512 306.594 195.043 306.804C194.577 307.014 194.042 307.119 193.437 307.119ZM193.437 306.041C193.798 306.041 194.11 305.982 194.374 305.862C194.638 305.74 194.843 305.571 194.988 305.355C195.133 305.136 195.207 304.881 195.21 304.588C195.207 304.284 195.127 304.016 194.971 303.783C194.817 303.55 194.609 303.366 194.344 303.233C194.08 303.099 193.778 303.033 193.437 303.033C193.093 303.033 192.788 303.099 192.521 303.233C192.254 303.366 192.043 303.55 191.89 303.783C191.737 304.016 191.661 304.284 191.664 304.588C191.661 304.881 191.731 305.136 191.873 305.355C192.018 305.571 192.224 305.74 192.491 305.862C192.758 305.982 193.073 306.041 193.437 306.041ZM193.437 301.98C193.727 301.98 193.984 301.922 194.208 301.805C194.433 301.689 194.609 301.527 194.737 301.32C194.867 301.112 194.934 300.869 194.937 300.591C194.934 300.318 194.869 300.08 194.741 299.875C194.616 299.67 194.441 299.513 194.217 299.402C193.992 299.288 193.732 299.232 193.437 299.232C193.136 299.232 192.871 299.288 192.644 299.402C192.42 299.513 192.245 299.67 192.12 299.875C191.995 300.08 191.934 300.318 191.937 300.591C191.934 300.869 191.996 301.112 192.124 301.32C192.252 301.527 192.428 301.689 192.653 301.805C192.88 301.922 193.141 301.98 193.437 301.98ZM201.108 307.145C200.435 307.142 199.86 306.964 199.382 306.612C198.905 306.26 198.54 305.747 198.287 305.074C198.034 304.401 197.908 303.589 197.908 302.641C197.908 301.695 198.034 300.886 198.287 300.216C198.543 299.545 198.909 299.034 199.387 298.682C199.867 298.33 200.441 298.153 201.108 298.153C201.776 298.153 202.348 298.331 202.826 298.686C203.303 299.038 203.668 299.55 203.921 300.22C204.176 300.888 204.304 301.695 204.304 302.641C204.304 303.592 204.178 304.405 203.925 305.078C203.672 305.749 203.307 306.261 202.83 306.616C202.353 306.969 201.779 307.145 201.108 307.145ZM201.108 306.007C201.699 306.007 202.161 305.719 202.493 305.142C202.828 304.565 202.996 303.732 202.996 302.641C202.996 301.916 202.919 301.304 202.766 300.804C202.615 300.301 202.398 299.92 202.114 299.662C201.833 299.401 201.498 299.27 201.108 299.27C200.52 299.27 200.059 299.56 199.723 300.139C199.388 300.719 199.219 301.553 199.216 302.641C199.216 303.368 199.292 303.983 199.442 304.486C199.596 304.986 199.813 305.365 200.094 305.624C200.375 305.879 200.713 306.007 201.108 306.007ZM208.854 307.145C208.181 307.142 207.606 306.964 207.129 306.612C206.651 306.26 206.286 305.747 206.033 305.074C205.781 304.401 205.654 303.589 205.654 302.641C205.654 301.695 205.781 300.886 206.033 300.216C206.289 299.545 206.656 299.034 207.133 298.682C207.613 298.33 208.187 298.153 208.854 298.153C209.522 298.153 210.094 298.331 210.572 298.686C211.049 299.038 211.414 299.55 211.667 300.22C211.923 300.888 212.05 301.695 212.05 302.641C212.05 303.592 211.924 304.405 211.671 305.078C211.418 305.749 211.053 306.261 210.576 306.616C210.099 306.969 209.525 307.145 208.854 307.145ZM208.854 306.007C209.445 306.007 209.907 305.719 210.239 305.142C210.575 304.565 210.742 303.732 210.742 302.641C210.742 301.916 210.665 301.304 210.512 300.804C210.362 300.301 210.144 299.92 209.86 299.662C209.579 299.401 209.244 299.27 208.854 299.27C208.266 299.27 207.805 299.56 207.469 300.139C207.134 300.719 206.965 301.553 206.962 302.641C206.962 303.368 207.038 303.983 207.188 304.486C207.342 304.986 207.559 305.365 207.84 305.624C208.121 305.879 208.46 306.007 208.854 306.007Z"
        fill="#999999" />
    <rect x="348" y="298.5" width="55" height="9" rx="4" fill="#FFEB99" />
</svg>