<svg xmlns="http://www.w3.org/2000/svg" width="98" height="38" viewBox="0 0 98 38" fill="none">
  <g clip-path="url(#clip0_13196_979)">
    <path d="M66.9062 21.5819L67.8861 21.8798C67.8208 22.1612 67.7228 22.3929 67.5758 22.5749C67.4288 22.757 67.2655 22.9059 67.0532 22.9887C66.8409 23.088 66.5796 23.1376 66.253 23.1376C65.8611 23.1376 65.5508 23.088 65.2895 22.9721C65.0446 22.8563 64.8323 22.6577 64.6526 22.3598C64.473 22.0784 64.375 21.6977 64.375 21.2509C64.375 20.6551 64.5383 20.1917 64.8486 19.8606C65.1589 19.5296 65.6161 19.3807 66.1877 19.3807C66.645 19.3807 66.9879 19.48 67.2492 19.662C67.5105 19.8441 67.7064 20.1255 67.8208 20.5227L66.8409 20.7378C66.8083 20.622 66.7756 20.5392 66.7266 20.4896C66.6613 20.4068 66.596 20.3406 66.498 20.291C66.4 20.2413 66.302 20.2248 66.204 20.2248C65.9591 20.2248 65.7631 20.3241 65.6325 20.5392C65.5345 20.6882 65.4855 20.9364 65.4855 21.2509C65.4855 21.6481 65.5508 21.9295 65.6651 22.0784C65.7794 22.2274 65.9591 22.3101 66.1714 22.3101C66.3837 22.3101 66.547 22.2439 66.645 22.1281C66.7756 21.9791 66.8573 21.8136 66.9062 21.5819Z" fill="#B3B3B3"/>
    <path d="M68.2783 21.2509C68.2783 20.6551 68.4416 20.1917 68.7682 19.8607C69.0949 19.5296 69.5521 19.3641 70.14 19.3641C70.7279 19.3641 71.2015 19.5296 71.5281 19.8441C71.8547 20.1751 72.018 20.622 72.018 21.2178C72.018 21.6481 71.9527 21.9957 71.8057 22.2605C71.6588 22.5253 71.4628 22.7404 71.1852 22.8894C70.9239 23.0384 70.5809 23.1211 70.189 23.1211C69.7971 23.1211 69.4541 23.0549 69.1765 22.9225C68.9152 22.7901 68.7029 22.5915 68.5233 22.2936C68.3436 21.9957 68.2783 21.6812 68.2783 21.2509ZM69.3888 21.2509C69.3888 21.615 69.4541 21.8798 69.5848 22.0453C69.7154 22.2108 69.8951 22.2936 70.14 22.2936C70.385 22.2936 70.5646 22.2108 70.6952 22.0619C70.8259 21.8964 70.8912 21.615 70.8912 21.2178C70.8912 20.8702 70.8259 20.622 70.6789 20.473C70.5483 20.3075 70.3523 20.2413 70.1237 20.2413C69.895 20.2413 69.7154 20.3241 69.5848 20.4896C69.4541 20.622 69.3888 20.8868 69.3888 21.2509Z" fill="#B3B3B3"/>
    <path d="M72.5893 19.4304H74.0427L74.598 21.6481L75.1532 19.4304H76.6066V23.0715H75.6921V20.291L74.9899 23.0715H74.1734L73.4712 20.291V23.0715H72.5566V19.4304H72.5893Z" fill="#B3B3B3"/>
    <path d="M77.3252 19.4304H79.1706C79.5788 19.4304 79.8728 19.5297 80.0687 19.7283C80.2647 19.9269 80.3627 20.1917 80.3627 20.5558C80.3627 20.9199 80.2484 21.2178 80.0361 21.4164C79.8238 21.6316 79.4808 21.7309 79.0399 21.7309H78.4357V23.088H77.3252V19.4304ZM78.4357 20.9861H78.7133C78.9256 20.9861 79.0726 20.953 79.1706 20.8703C79.2522 20.7875 79.3012 20.7047 79.3012 20.5889C79.3012 20.473 79.2685 20.3737 79.1869 20.291C79.1052 20.2082 78.9746 20.1751 78.7623 20.1751H78.452V20.9861H78.4357Z" fill="#B3B3B3"/>
    <path d="M80.9502 19.4304H82.0607V22.1777H83.7917V23.0715H80.9502V19.4304Z" fill="#B3B3B3"/>
    <path d="M84.3477 19.4304H85.4581V23.0715H84.3477V19.4304Z" fill="#B3B3B3"/>
    <path d="M88.4623 22.4591H87.2049L87.0253 23.0549H85.8984L87.2539 19.4138H88.4623L89.8178 23.0549H88.6583L88.4623 22.4591ZM88.2337 21.6812L87.8418 20.3737L87.4498 21.6812H88.2337Z" fill="#B3B3B3"/>
    <path d="M90.1611 19.4304H91.19L92.5454 21.4495V19.4304H93.5906V23.0715H92.5454L91.2063 21.0689V23.0715H90.1611V19.4304Z" fill="#B3B3B3"/>
    <path d="M94.0801 19.4304H97.4605V20.3241H96.3337V23.0715H95.2232V20.3241H94.0964V19.4304H94.0801Z" fill="#B3B3B3"/>
    <path d="M53.5481 24.9747L56.7652 23.9486L55.7201 21.5984C54.9525 22.5749 54.185 23.8328 53.5481 24.9747ZM52.4539 14.2334L46.1503 0L0 2.64808L12.7869 38L37.3971 30.1385C35.8294 27.8545 35.2578 25.1402 37.0705 23.8162C39.0955 22.3267 42.1493 24.0479 44.0927 26.4808C45.9707 23.3031 51.2455 15.9051 52.4539 14.2334Z" fill="#333333"/>
    <path d="M44.7135 10.2861C46.6405 10.2861 48.2083 8.7966 48.2083 6.94294C48.2083 5.08928 46.6405 3.59973 44.7135 3.59973C42.7865 3.59973 41.2188 5.08928 41.2188 6.94294C41.2188 8.78005 42.7865 10.2861 44.7135 10.2861ZM41.8556 11.726H47.5714V26.8698H41.8556V11.726Z" fill="#B3B3B3"/>
    <path d="M39.0297 16.145C39.0787 16.1616 39.1113 16.145 39.1113 16.0954V12.2556C39.1113 12.206 39.0787 12.1563 39.0297 12.1232C39.0297 12.1232 38.2785 11.6267 35.9922 11.4943C35.8779 11.4281 33.8692 11.4116 33.3303 11.4943C25.0017 12.1729 24.6914 18.28 24.6914 18.5448V20.0344C24.6914 20.2164 24.6914 26.456 33.3303 27.0022C34.1795 27.0684 35.8289 27.0022 35.9922 27.0022C37.9845 27.0022 39.3563 26.3898 39.3563 26.3898C39.4053 26.3732 39.4379 26.3236 39.4379 26.2739V22.6825C39.4379 22.6328 39.4053 22.6163 39.3726 22.6494C39.3726 22.6494 38.7521 23.1459 36.0412 23.4273C35.2736 23.51 34.898 23.4769 34.6204 23.4273C30.7664 22.7652 30.5868 19.9185 30.5868 19.9185C30.5868 19.8689 30.5704 19.7861 30.5704 19.753V18.6607C30.5704 18.611 30.5704 18.5283 30.5868 18.4952C30.5868 18.4952 30.848 15.4333 34.6204 15.1023H36.0412C37.6906 15.3175 39.0297 16.145 39.0297 16.145Z" fill="#B3B3B3"/>
    <path d="M8.81836 26.8201C8.81836 26.8698 8.85102 26.9029 8.90001 26.9029H14.4688C14.5177 26.9029 14.5504 26.8698 14.5504 26.8201V22.4177C14.5504 22.368 14.5831 22.3349 14.6321 22.3349C14.6321 22.3349 23.5322 22.9804 23.5322 16.9395C23.5322 12.1564 17.9472 11.6433 16.1181 11.7261H8.90001C8.85102 11.7261 8.81836 11.7592 8.81836 11.8088V26.8201ZM14.4524 18.9752V15.0196H15.8242C15.8242 15.0196 17.8002 15.1024 17.9635 16.4761C17.9962 16.5754 17.9962 17.2539 17.9635 17.287C17.7022 18.8924 15.9875 18.9752 15.9875 18.9752H14.4524Z" fill="#B3B3B3"/>
    <path d="M44.8768 34.1768C45.3341 34.1768 45.6934 34.1768 46.2813 33.912C48.3063 32.8362 55.1488 15.905 62.3669 10.6916C62.4159 10.6585 62.4649 10.6089 62.4976 10.5592C62.5466 10.493 62.5465 10.4268 62.5465 10.4268C62.5465 10.4268 62.5465 10.0793 61.4851 10.0793C55.0671 9.8972 48.3879 23.5514 44.8768 28.9468C44.8278 29.0131 44.5992 28.9468 44.5992 28.9468C44.5992 28.9468 42.2476 26.1333 40.2063 25.0575C40.1573 25.0409 39.9287 24.9582 39.6837 24.9747C39.5204 24.9747 38.5732 25.1733 38.1323 25.6367C37.6097 26.1995 37.626 26.5139 37.626 27.1925C37.626 27.2421 37.6587 27.4739 37.724 27.5897C38.2303 28.4834 40.5002 31.6611 42.3782 33.4155C42.6559 33.6306 43.0968 34.1768 44.8768 34.1768Z" fill="#666666"/>
    <path d="M64.2607 5.57751H69.6009C70.6623 5.57751 71.5115 5.72647 72.1484 6.00783C72.8017 6.30574 73.3406 6.7195 73.7488 7.24912C74.1734 7.79528 74.4837 8.4242 74.6633 9.13588C74.8593 9.84755 74.9573 10.6089 74.9573 11.4198C74.9573 12.6777 74.8103 13.6542 74.5327 14.3493C74.2551 15.0444 73.8631 15.6237 73.3569 16.1036C72.8506 16.5671 72.3117 16.8815 71.7402 17.047C70.9563 17.2622 70.2377 17.3615 69.6009 17.3615H64.2607V5.57751ZM67.8535 8.24215V14.6803H68.7353C69.4865 14.6803 70.0255 14.5975 70.3357 14.432C70.646 14.2665 70.9073 13.9686 71.0869 13.5549C71.2666 13.1411 71.3646 12.446 71.3646 11.5026C71.3646 10.2448 71.1686 9.40069 70.7603 8.93727C70.3521 8.47386 69.6988 8.24215 68.7517 8.24215H67.8535Z" fill="#B3B3B3"/>
    <path d="M75.9531 13.4721L79.3826 13.257C79.4642 13.8197 79.6112 14.25 79.8398 14.5479C80.2154 15.0279 80.738 15.2596 81.4239 15.2596C81.9301 15.2596 82.3384 15.1437 82.616 14.8955C82.8936 14.6472 83.0406 14.3658 83.0406 14.0514C83.0406 13.7535 82.91 13.4721 82.6487 13.2239C82.3874 12.9756 81.7668 12.7604 80.8033 12.5453C79.2192 12.1812 78.1088 11.7012 77.4229 11.1054C76.737 10.5096 76.4104 9.74825 76.4104 8.82142C76.4104 8.20905 76.59 7.64634 76.933 7.10017C77.2759 6.554 77.7985 6.14024 78.5007 5.82578C79.2029 5.51132 80.1501 5.36237 81.3586 5.36237C82.8446 5.36237 83.9878 5.64372 84.7553 6.20644C85.5392 6.76916 85.9965 7.66289 86.1434 8.88763L82.7467 9.08623C82.6487 8.55662 82.469 8.17595 82.1751 7.9277C81.8811 7.67944 81.4892 7.56359 80.983 7.56359C80.5584 7.56359 80.2481 7.64634 80.0358 7.82839C79.8235 8.01045 79.7255 8.22561 79.7255 8.49041C79.7255 8.67247 79.8071 8.85453 79.9868 9.00348C80.1501 9.15244 80.5584 9.30139 81.1953 9.43379C82.763 9.78135 83.8898 10.1289 84.5757 10.4765C85.2616 10.824 85.7515 11.2709 86.0618 11.784C86.3721 12.297 86.519 12.8929 86.519 13.5383C86.519 14.2996 86.3067 14.9948 85.8985 15.6237C85.4902 16.2692 84.9023 16.7491 84.1674 17.0801C83.4325 17.4111 82.4854 17.5766 81.3586 17.5766C79.3826 17.5766 78.0108 17.196 77.2432 16.4181C76.492 15.6402 76.0674 14.6638 75.9531 13.4721Z" fill="#B3B3B3"/>
    <path d="M87.4346 13.4721L90.864 13.257C90.9457 13.8197 91.0926 14.25 91.3213 14.5479C91.6969 15.0279 92.2194 15.2596 92.9053 15.2596C93.4116 15.2596 93.8198 15.1437 94.0975 14.8955C94.3751 14.6472 94.5221 14.3658 94.5221 14.0514C94.5221 13.7535 94.3914 13.4721 94.1301 13.2239C93.8688 12.9756 93.2483 12.7604 92.2848 12.5453C90.7007 12.1812 89.5902 11.7012 88.9043 11.1054C88.2348 10.5096 87.8918 9.74825 87.8918 8.82142C87.8918 8.20905 88.0715 7.64634 88.4144 7.10017C88.7573 6.554 89.2799 6.14024 89.9821 5.82578C90.6844 5.51132 91.6315 5.36237 92.84 5.36237C94.3261 5.36237 95.4692 5.64372 96.2368 6.20644C97.0206 6.76916 97.4779 7.66289 97.6249 8.88763L94.2281 9.08623C94.1301 8.55662 93.9505 8.17595 93.6565 7.9277C93.3626 7.67944 92.9706 7.56359 92.4644 7.56359C92.0398 7.56359 91.7295 7.64634 91.5172 7.82839C91.3049 8.01045 91.2069 8.22561 91.2069 8.49041C91.2069 8.67247 91.2886 8.85453 91.4682 9.00348C91.6315 9.15244 92.0398 9.30139 92.6767 9.43379C94.2444 9.78135 95.3712 10.1289 96.0571 10.4765C96.743 10.824 97.2329 11.2709 97.5432 11.784C97.8535 12.297 98.0005 12.8929 98.0005 13.5383C98.0005 14.2996 97.7882 14.9948 97.3799 15.6237C96.9716 16.2692 96.3837 16.7491 95.6489 17.0801C94.914 17.4111 93.9668 17.5766 92.84 17.5766C90.864 17.5766 89.4922 17.196 88.7247 16.4181C87.9571 15.6402 87.5326 14.6638 87.4346 13.4721Z" fill="#B3B3B3"/>
  </g>
  <defs>
    <clipPath id="clip0_13196_979">
      <rect width="98" height="38" fill="white"/>
    </clipPath>
  </defs>
</svg>