<svg width="48" height="48" viewBox="0 0 48 48" fill="none" xmlns="http://www.w3.org/2000/svg">
    <circle cx="35" cy="13" r="11" fill="#1A1A1A" />
    <path fill-rule="evenodd" clip-rule="evenodd"
        d="M4.7998 14.6C4.7998 11.8386 7.03838 9.59998 9.7998 9.59998H37.7998C40.5612 9.59998 42.7998 11.8386 42.7998 14.6V20.6C42.7998 21.1523 42.3521 21.6 41.7998 21.6C40.1429 21.6 38.7998 22.9431 38.7998 24.6C38.7998 26.2568 40.1429 27.6 41.7998 27.6C42.3521 27.6 42.7998 28.0477 42.7998 28.6V34.6C42.7998 37.3614 40.5612 39.6 37.7998 39.6H9.7998C7.03838 39.6 4.7998 37.3614 4.7998 34.6V28.6C4.7998 28.0477 5.24752 27.6 5.7998 27.6C7.45666 27.6 8.7998 26.2568 8.7998 24.6C8.7998 22.9431 7.45666 21.6 5.7998 21.6C5.24752 21.6 4.7998 21.1523 4.7998 20.6V14.6ZM30.7998 37.6V34.6C30.7998 34.0477 30.3521 33.6 29.7998 33.6C29.2475 33.6 28.7998 34.0477 28.7998 34.6V37.6H9.7998C8.14295 37.6 6.7998 36.2568 6.7998 34.6V29.5C9.08204 29.0367 10.7998 27.0189 10.7998 24.6C10.7998 22.181 9.08204 20.1633 6.7998 19.7V14.6C6.7998 12.9431 8.14295 11.6 9.7998 11.6H28.7998V14.6C28.7998 15.1523 29.2475 15.6 29.7998 15.6C30.3521 15.6 30.7998 15.1523 30.7998 14.6V11.6H37.7998C39.4567 11.6 40.7998 12.9431 40.7998 14.6V19.7C38.5176 20.1633 36.7998 22.181 36.7998 24.6C36.7998 27.0189 38.5176 29.0367 40.7998 29.5V34.6C40.7998 36.2568 39.4567 37.6 37.7998 37.6H30.7998ZM29.7998 21.6C30.3521 21.6 30.7998 22.0477 30.7998 22.6V26.6C30.7998 27.1523 30.3521 27.6 29.7998 27.6C29.2475 27.6 28.7998 27.1523 28.7998 26.6V22.6C28.7998 22.0477 29.2475 21.6 29.7998 21.6Z"
        fill="#4D4D4D" />
</svg>