<svg width="302" height="269" viewBox="0 0 302 269" fill="none" xmlns="http://www.w3.org/2000/svg">
<g filter="url(#filter0_d_15233_68177)">
<rect x="10" y="6" width="282" height="249" rx="5" fill="white" shape-rendering="crispEdges"/>
<path d="M30.9588 42V33.2727H34.0696C34.7486 33.2727 35.3111 33.3963 35.7571 33.6435C36.2031 33.8906 36.5369 34.2287 36.7585 34.6577C36.9801 35.0838 37.0909 35.5639 37.0909 36.098C37.0909 36.6349 36.9787 37.1179 36.7543 37.5469C36.5327 37.973 36.1974 38.3111 35.7486 38.5611C35.3026 38.8082 34.7415 38.9318 34.0653 38.9318H31.9261V37.8153H33.946C34.375 37.8153 34.723 37.7415 34.9901 37.5938C35.2571 37.4432 35.4531 37.2386 35.5781 36.9801C35.7031 36.7216 35.7656 36.4276 35.7656 36.098C35.7656 35.7685 35.7031 35.4759 35.5781 35.2202C35.4531 34.9645 35.2557 34.7642 34.9858 34.6193C34.7188 34.4744 34.3665 34.402 33.929 34.402H32.2756V42H30.9588ZM38.446 42H37.0483L40.1889 33.2727H41.7102L44.8509 42H43.4531L40.9858 34.858H40.9176L38.446 42ZM38.6804 38.5824H43.2145V39.6903H38.6804V38.5824ZM44.5472 33.2727H46.043L48.3228 37.2401H48.4165L50.6964 33.2727H52.1921L49.0259 38.5739V42H47.7134V38.5739L44.5472 33.2727ZM53.4354 33.2727H55.0334L57.8118 40.0568H57.9141L60.6925 33.2727H62.2905V42H61.0376V35.6847H60.9567L58.3828 41.9872H57.343L54.7692 35.6804H54.6882V42H53.4354V33.2727ZM64.2049 42V33.2727H69.6765V34.4062H65.5217V37.0653H69.391V38.1946H65.5217V40.8665H69.7276V42H64.2049ZM78.4794 33.2727V42H77.2692L72.8331 35.5994H72.7521V42H71.4354V33.2727H72.6541L77.0945 39.6818H77.1754V33.2727H78.4794ZM79.9698 34.4062V33.2727H86.7241V34.4062H84.0011V42H82.6886V34.4062H79.9698ZM98.9734 37.6364C98.9734 38.5682 98.8029 39.3693 98.462 40.0398C98.1211 40.7074 97.6538 41.2216 97.06 41.5824C96.4691 41.9403 95.7972 42.1193 95.0444 42.1193C94.2887 42.1193 93.614 41.9403 93.0202 41.5824C92.4293 41.2216 91.9634 40.706 91.6225 40.0355C91.2816 39.3651 91.1112 38.5653 91.1112 37.6364C91.1112 36.7045 91.2816 35.9048 91.6225 35.2372C91.9634 34.5668 92.4293 34.0526 93.0202 33.6946C93.614 33.3338 94.2887 33.1534 95.0444 33.1534C95.7972 33.1534 96.4691 33.3338 97.06 33.6946C97.6538 34.0526 98.1211 34.5668 98.462 35.2372C98.8029 35.9048 98.9734 36.7045 98.9734 37.6364ZM97.6694 37.6364C97.6694 36.9261 97.5543 36.3281 97.3242 35.8423C97.0969 35.3537 96.7844 34.9844 96.3867 34.7344C95.9918 34.4815 95.5444 34.3551 95.0444 34.3551C94.5415 34.3551 94.0927 34.4815 93.6978 34.7344C93.3029 34.9844 92.9904 35.3537 92.7603 35.8423C92.533 36.3281 92.4194 36.9261 92.4194 37.6364C92.4194 38.3466 92.533 38.946 92.7603 39.4347C92.9904 39.9205 93.3029 40.2898 93.6978 40.5426C94.0927 40.7926 94.5415 40.9176 95.0444 40.9176C95.5444 40.9176 95.9918 40.7926 96.3867 40.5426C96.7844 40.2898 97.0969 39.9205 97.3242 39.4347C97.5543 38.946 97.6694 38.3466 97.6694 37.6364ZM100.615 42V33.2727H103.726C104.405 33.2727 104.967 33.3963 105.413 33.6435C105.859 33.8906 106.193 34.2287 106.415 34.6577C106.636 35.0838 106.747 35.5639 106.747 36.098C106.747 36.6349 106.635 37.1179 106.411 37.5469C106.189 37.973 105.854 38.3111 105.405 38.5611C104.959 38.8082 104.398 38.9318 103.722 38.9318H101.582V37.8153H103.602C104.031 37.8153 104.379 37.7415 104.646 37.5938C104.913 37.4432 105.109 37.2386 105.234 36.9801C105.359 36.7216 105.422 36.4276 105.422 36.098C105.422 35.7685 105.359 35.4759 105.234 35.2202C105.109 34.9645 104.912 34.7642 104.642 34.6193C104.375 34.4744 104.023 34.402 103.585 34.402H101.932V42H100.615ZM107.86 34.4062V33.2727H114.615V34.4062H111.892V42H110.579V34.4062H107.86ZM117.424 33.2727V42H116.107V33.2727H117.424ZM126.923 37.6364C126.923 38.5682 126.752 39.3693 126.411 40.0398C126.07 40.7074 125.603 41.2216 125.009 41.5824C124.418 41.9403 123.746 42.1193 122.994 42.1193C122.238 42.1193 121.563 41.9403 120.969 41.5824C120.379 41.2216 119.913 40.706 119.572 40.0355C119.231 39.3651 119.06 38.5653 119.06 37.6364C119.06 36.7045 119.231 35.9048 119.572 35.2372C119.913 34.5668 120.379 34.0526 120.969 33.6946C121.563 33.3338 122.238 33.1534 122.994 33.1534C123.746 33.1534 124.418 33.3338 125.009 33.6946C125.603 34.0526 126.07 34.5668 126.411 35.2372C126.752 35.9048 126.923 36.7045 126.923 37.6364ZM125.619 37.6364C125.619 36.9261 125.504 36.3281 125.273 35.8423C125.046 35.3537 124.734 34.9844 124.336 34.7344C123.941 34.4815 123.494 34.3551 122.994 34.3551C122.491 34.3551 122.042 34.4815 121.647 34.7344C121.252 34.9844 120.94 35.3537 120.71 35.8423C120.482 36.3281 120.369 36.9261 120.369 37.6364C120.369 38.3466 120.482 38.946 120.71 39.4347C120.94 39.9205 121.252 40.2898 121.647 40.5426C122.042 40.7926 122.491 40.9176 122.994 40.9176C123.494 40.9176 123.941 40.7926 124.336 40.5426C124.734 40.2898 125.046 39.9205 125.273 39.4347C125.504 38.946 125.619 38.3466 125.619 37.6364ZM135.608 33.2727V42H134.398L129.962 35.5994H129.881V42H128.564V33.2727H129.783L134.223 39.6818H134.304V33.2727H135.608ZM142.289 35.5653C142.244 35.1619 142.056 34.8494 141.727 34.6278C141.397 34.4034 140.982 34.2912 140.482 34.2912C140.124 34.2912 139.815 34.348 139.553 34.4616C139.292 34.5724 139.089 34.7259 138.944 34.9219C138.802 35.1151 138.731 35.3352 138.731 35.5824C138.731 35.7898 138.779 35.9687 138.876 36.1193C138.975 36.2699 139.104 36.3963 139.263 36.4986C139.425 36.598 139.599 36.6818 139.783 36.75C139.968 36.8153 140.146 36.8693 140.316 36.9119L141.168 37.1335C141.447 37.2017 141.732 37.294 142.025 37.4105C142.317 37.527 142.589 37.6804 142.839 37.8707C143.089 38.0611 143.29 38.2969 143.444 38.5781C143.6 38.8594 143.678 39.196 143.678 39.5881C143.678 40.0824 143.55 40.5213 143.295 40.9048C143.042 41.2884 142.674 41.5909 142.191 41.8125C141.711 42.0341 141.13 42.1449 140.448 42.1449C139.795 42.1449 139.229 42.0412 138.752 41.8338C138.275 41.6264 137.901 41.3324 137.631 40.9517C137.362 40.5682 137.212 40.1136 137.184 39.5881H138.505C138.531 39.9034 138.633 40.1662 138.812 40.3764C138.994 40.5838 139.225 40.7386 139.506 40.8409C139.79 40.9403 140.102 40.9901 140.44 40.9901C140.812 40.9901 141.143 40.9318 141.433 40.8153C141.725 40.696 141.955 40.5312 142.123 40.321C142.29 40.108 142.374 39.8594 142.374 39.5753C142.374 39.3168 142.3 39.1051 142.153 38.9403C142.008 38.7756 141.81 38.6392 141.56 38.5312C141.313 38.4233 141.033 38.3281 140.721 38.2457L139.69 37.9645C138.991 37.7741 138.437 37.4943 138.028 37.125C137.621 36.7557 137.418 36.267 137.418 35.6591C137.418 35.1562 137.555 34.7173 137.827 34.3423C138.1 33.9673 138.469 33.6761 138.935 33.4688C139.401 33.2585 139.927 33.1534 140.512 33.1534C141.103 33.1534 141.624 33.2571 142.076 33.4645C142.531 33.6719 142.888 33.9574 143.15 34.321C143.411 34.6818 143.548 35.0966 143.559 35.5653H142.289Z" fill="#999999"/>
<path d="M272 55H30V57H272V55Z" fill="#EEEEEE" mask="url(#path-2-inside-1_15233_68177)"/>
<mask id="path-5-inside-2_15233_68177" fill="white">
<path d="M30 61H272V115H30V61Z"/>
</mask>
<path d="M30 61H272V115H30V61Z" fill="white"/>
<path d="M35.0455 94H31.2784V82.3636H35.1648C36.3049 82.3636 37.2841 82.5966 38.1023 83.0625C38.9205 83.5246 39.5473 84.1894 39.983 85.0568C40.4223 85.9205 40.642 86.9564 40.642 88.1648C40.642 89.3769 40.4205 90.4186 39.9773 91.2898C39.5379 92.161 38.9015 92.8314 38.0682 93.3011C37.2348 93.767 36.2273 94 35.0455 94ZM33.0341 92.4659H34.9489C35.8352 92.4659 36.572 92.2992 37.1591 91.9659C37.7462 91.6288 38.1856 91.142 38.4773 90.5057C38.7689 89.8655 38.9148 89.0852 38.9148 88.1648C38.9148 87.2519 38.7689 86.4773 38.4773 85.8409C38.1894 85.2045 37.7595 84.7216 37.1875 84.392C36.6155 84.0625 35.9053 83.8977 35.0568 83.8977H33.0341V92.4659ZM46.4503 94.1761C45.5904 94.1761 44.8499 93.9924 44.2287 93.625C43.6113 93.2538 43.134 92.733 42.7969 92.0625C42.4635 91.3883 42.2969 90.5985 42.2969 89.6932C42.2969 88.7992 42.4635 88.0114 42.7969 87.3295C43.134 86.6477 43.6037 86.1155 44.206 85.733C44.812 85.3504 45.5204 85.1591 46.331 85.1591C46.8234 85.1591 47.3007 85.2405 47.7628 85.4034C48.2249 85.5663 48.6397 85.822 49.0071 86.1705C49.3745 86.5189 49.6643 86.9716 49.8764 87.5284C50.0885 88.0814 50.1946 88.7538 50.1946 89.5455V90.1477H43.2571V88.875H48.5298C48.5298 88.428 48.4389 88.0322 48.2571 87.6875C48.0753 87.339 47.8196 87.0644 47.4901 86.8636C47.1643 86.6629 46.7817 86.5625 46.3423 86.5625C45.8651 86.5625 45.4484 86.6799 45.0923 86.9148C44.7401 87.1458 44.4673 87.4489 44.2741 87.8239C44.0848 88.1951 43.9901 88.5985 43.9901 89.0341V90.0284C43.9901 90.6117 44.0923 91.108 44.2969 91.517C44.5052 91.9261 44.795 92.2386 45.1662 92.4545C45.5374 92.6667 45.9711 92.7727 46.4673 92.7727C46.7893 92.7727 47.0829 92.7273 47.348 92.6364C47.6132 92.5417 47.8423 92.4015 48.0355 92.2159C48.2287 92.0303 48.3764 91.8011 48.4787 91.5284L50.0866 91.8182C49.9579 92.2917 49.7268 92.7064 49.3935 93.0625C49.0639 93.4148 48.6491 93.6894 48.1491 93.8864C47.6529 94.0795 47.0866 94.1761 46.4503 94.1761ZM52.2159 94V82.3636H53.9148V86.6875H54.017C54.1155 86.5057 54.2576 86.2955 54.4432 86.0568C54.6288 85.8182 54.8864 85.6098 55.2159 85.4318C55.5455 85.25 55.9811 85.1591 56.5227 85.1591C57.2273 85.1591 57.8561 85.3371 58.4091 85.6932C58.9621 86.0492 59.3958 86.5625 59.7102 87.233C60.0284 87.9034 60.1875 88.7102 60.1875 89.6534C60.1875 90.5966 60.0303 91.4053 59.7159 92.0795C59.4015 92.75 58.9697 93.267 58.4205 93.6307C57.8712 93.9905 57.2443 94.1705 56.5398 94.1705C56.0095 94.1705 55.5758 94.0814 55.2386 93.9034C54.9053 93.7254 54.6439 93.517 54.4545 93.2784C54.2652 93.0398 54.1193 92.8277 54.017 92.642H53.875V94H52.2159ZM53.8807 89.6364C53.8807 90.25 53.9697 90.7879 54.1477 91.25C54.3258 91.7121 54.5833 92.0739 54.9205 92.3352C55.2576 92.5928 55.6705 92.7216 56.1591 92.7216C56.6667 92.7216 57.0909 92.5871 57.4318 92.3182C57.7727 92.0455 58.0303 91.6761 58.2045 91.2102C58.3826 90.7443 58.4716 90.2197 58.4716 89.6364C58.4716 89.0606 58.3845 88.5436 58.2102 88.0852C58.0398 87.6269 57.7822 87.2652 57.4375 87C57.0966 86.7348 56.6705 86.6023 56.1591 86.6023C55.6667 86.6023 55.25 86.7292 54.9091 86.983C54.572 87.2367 54.3163 87.5909 54.142 88.0455C53.9678 88.5 53.8807 89.0303 53.8807 89.6364ZM62.0952 94V85.2727H63.794V94H62.0952ZM62.9531 83.9261C62.6577 83.9261 62.4039 83.8277 62.1918 83.6307C61.9834 83.4299 61.8793 83.1913 61.8793 82.9148C61.8793 82.6345 61.9834 82.3958 62.1918 82.1989C62.4039 81.9981 62.6577 81.8977 62.9531 81.8977C63.2486 81.8977 63.5005 81.9981 63.7088 82.1989C63.9209 82.3958 64.027 82.6345 64.027 82.9148C64.027 83.1913 63.9209 83.4299 63.7088 83.6307C63.5005 83.8277 63.2486 83.9261 62.9531 83.9261ZM70.1534 85.2727V86.6364H65.3864V85.2727H70.1534ZM66.6648 83.1818H68.3636V91.4375C68.3636 91.767 68.4129 92.0152 68.5114 92.1818C68.6098 92.3447 68.7367 92.4564 68.892 92.517C69.0511 92.5739 69.2235 92.6023 69.4091 92.6023C69.5455 92.6023 69.6648 92.5928 69.767 92.5739C69.8693 92.5549 69.9489 92.5398 70.0057 92.5284L70.3125 93.9318C70.214 93.9697 70.0739 94.0076 69.892 94.0455C69.7102 94.0871 69.483 94.1098 69.2102 94.1136C68.7633 94.1212 68.3466 94.0417 67.9602 93.875C67.5739 93.7083 67.2614 93.4508 67.0227 93.1023C66.7841 92.7538 66.6648 92.3163 66.6648 91.7898V83.1818ZM86.0682 86.1477H84.2955C84.2273 85.7689 84.1004 85.4356 83.9148 85.1477C83.7292 84.8598 83.5019 84.6155 83.233 84.4148C82.964 84.214 82.6629 84.0625 82.3295 83.9602C82 83.858 81.6496 83.8068 81.2784 83.8068C80.608 83.8068 80.0076 83.9754 79.4773 84.3125C78.9508 84.6496 78.5341 85.1439 78.2273 85.7955C77.9242 86.447 77.7727 87.2424 77.7727 88.1818C77.7727 89.1288 77.9242 89.928 78.2273 90.5795C78.5341 91.2311 78.9527 91.7235 79.483 92.0568C80.0133 92.3902 80.6098 92.5568 81.2727 92.5568C81.6402 92.5568 81.9886 92.5076 82.3182 92.4091C82.6515 92.3068 82.9527 92.1572 83.2216 91.9602C83.4905 91.7633 83.7178 91.5227 83.9034 91.2386C84.0928 90.9508 84.2235 90.6212 84.2955 90.25L86.0682 90.2557C85.9735 90.8277 85.7898 91.3542 85.517 91.8352C85.2481 92.3125 84.9015 92.7254 84.4773 93.0739C84.0568 93.4186 83.5758 93.6856 83.0341 93.875C82.4924 94.0644 81.9015 94.1591 81.2614 94.1591C80.2538 94.1591 79.3561 93.9205 78.5682 93.4432C77.7803 92.9621 77.1591 92.2746 76.7045 91.3807C76.2538 90.4867 76.0284 89.4205 76.0284 88.1818C76.0284 86.9394 76.2557 85.8731 76.7102 84.983C77.1648 84.089 77.786 83.4034 78.5739 82.9261C79.3617 82.4451 80.2576 82.2045 81.2614 82.2045C81.8788 82.2045 82.4545 82.2936 82.9886 82.4716C83.5265 82.6458 84.0095 82.9034 84.4375 83.2443C84.8655 83.5814 85.2197 83.9943 85.5 84.483C85.7803 84.9678 85.9697 85.5227 86.0682 86.1477ZM91.2997 94.1705C90.5952 94.1705 89.9664 93.9905 89.4134 93.6307C88.8641 93.267 88.4323 92.75 88.1179 92.0795C87.8073 91.4053 87.652 90.5966 87.652 89.6534C87.652 88.7102 87.8092 87.9034 88.1236 87.233C88.4418 86.5625 88.8774 86.0492 89.4304 85.6932C89.9834 85.3371 90.6103 85.1591 91.3111 85.1591C91.8527 85.1591 92.2884 85.25 92.6179 85.4318C92.9512 85.6098 93.2088 85.8182 93.3906 86.0568C93.5762 86.2955 93.7202 86.5057 93.8224 86.6875H93.9247V85.2727H95.6236V94H93.9645V92.642H93.8224C93.7202 92.8277 93.5724 93.0398 93.3793 93.2784C93.1899 93.517 92.9285 93.7254 92.5952 93.9034C92.2618 94.0814 91.83 94.1705 91.2997 94.1705ZM91.6747 92.7216C92.1634 92.7216 92.5762 92.5928 92.9134 92.3352C93.2543 92.0739 93.5118 91.7121 93.6861 91.25C93.8641 90.7879 93.9531 90.25 93.9531 89.6364C93.9531 89.0303 93.866 88.5 93.6918 88.0455C93.5175 87.5909 93.2618 87.2367 92.9247 86.983C92.5876 86.7292 92.1709 86.6023 91.6747 86.6023C91.1634 86.6023 90.7372 86.7348 90.3963 87C90.0554 87.2652 89.7978 87.6269 89.6236 88.0852C89.4531 88.5436 89.3679 89.0606 89.3679 89.6364C89.3679 90.2197 89.455 90.7443 89.6293 91.2102C89.8035 91.6761 90.0611 92.0455 90.402 92.3182C90.7467 92.5871 91.1709 92.7216 91.6747 92.7216ZM98.0483 94V85.2727H99.6903V86.6591H99.7812C99.9403 86.1894 100.221 85.8201 100.622 85.5511C101.027 85.2784 101.486 85.142 101.997 85.142C102.103 85.142 102.228 85.1458 102.372 85.1534C102.52 85.161 102.635 85.1705 102.719 85.1818V86.8068C102.651 86.7879 102.529 86.767 102.355 86.7443C102.181 86.7178 102.007 86.7045 101.832 86.7045C101.431 86.7045 101.073 86.7898 100.759 86.9602C100.448 87.1269 100.202 87.3598 100.02 87.6591C99.8381 87.9545 99.7472 88.2917 99.7472 88.6705V94H98.0483ZM107.143 94.1705C106.439 94.1705 105.81 93.9905 105.257 93.6307C104.708 93.267 104.276 92.75 103.962 92.0795C103.651 91.4053 103.496 90.5966 103.496 89.6534C103.496 88.7102 103.653 87.9034 103.967 87.233C104.286 86.5625 104.721 86.0492 105.274 85.6932C105.827 85.3371 106.454 85.1591 107.155 85.1591C107.696 85.1591 108.132 85.25 108.462 85.4318C108.795 85.6098 109.053 85.8182 109.234 86.0568C109.42 86.2955 109.564 86.5057 109.666 86.6875H109.768V82.3636H111.467V94H109.808V92.642H109.666C109.564 92.8277 109.416 93.0398 109.223 93.2784C109.034 93.517 108.772 93.7254 108.439 93.9034C108.106 94.0814 107.674 94.1705 107.143 94.1705ZM107.518 92.7216C108.007 92.7216 108.42 92.5928 108.757 92.3352C109.098 92.0739 109.356 91.7121 109.53 91.25C109.708 90.7879 109.797 90.25 109.797 89.6364C109.797 89.0303 109.71 88.5 109.536 88.0455C109.361 87.5909 109.106 87.2367 108.768 86.983C108.431 86.7292 108.015 86.6023 107.518 86.6023C107.007 86.6023 106.581 86.7348 106.24 87C105.899 87.2652 105.642 87.6269 105.467 88.0852C105.297 88.5436 105.212 89.0606 105.212 89.6364C105.212 90.2197 105.299 90.7443 105.473 91.2102C105.647 91.6761 105.905 92.0455 106.246 92.3182C106.59 92.5871 107.015 92.7216 107.518 92.7216Z" fill="#383838"/>
<path d="M247 92L251 88L247 84" stroke="#121212" stroke-miterlimit="10" stroke-linecap="round" stroke-linejoin="round"/>
<path d="M272 114H30V116H272V114Z" fill="#EEEEEE" mask="url(#path-5-inside-2_15233_68177)"/>
<mask id="path-9-inside-3_15233_68177" fill="white">
<path d="M30 120H272V174H30V120Z"/>
</mask>
<path d="M30 120H272V174H30V120Z" fill="white"/>
<path d="M31.2784 153V141.364H35.5398C36.3655 141.364 37.0492 141.5 37.5909 141.773C38.1326 142.042 38.5379 142.407 38.8068 142.869C39.0758 143.328 39.2102 143.845 39.2102 144.42C39.2102 144.905 39.1212 145.314 38.9432 145.648C38.7652 145.977 38.5265 146.242 38.2273 146.443C37.9318 146.64 37.6061 146.784 37.25 146.875V146.989C37.6364 147.008 38.0133 147.133 38.3807 147.364C38.7519 147.591 39.0587 147.915 39.3011 148.335C39.5436 148.756 39.6648 149.267 39.6648 149.869C39.6648 150.464 39.5246 150.998 39.2443 151.472C38.9678 151.941 38.5398 152.314 37.9602 152.591C37.3807 152.864 36.6402 153 35.7386 153H31.2784ZM33.0341 151.494H35.5682C36.4091 151.494 37.0114 151.331 37.375 151.006C37.7386 150.68 37.9205 150.273 37.9205 149.784C37.9205 149.417 37.8277 149.08 37.642 148.773C37.4564 148.466 37.1913 148.222 36.8466 148.04C36.5057 147.858 36.1004 147.767 35.6307 147.767H33.0341V151.494ZM33.0341 146.398H35.3864C35.7803 146.398 36.1345 146.322 36.4489 146.17C36.767 146.019 37.0189 145.807 37.2045 145.534C37.3939 145.258 37.4886 144.932 37.4886 144.557C37.4886 144.076 37.3201 143.672 36.983 143.347C36.6458 143.021 36.1288 142.858 35.4318 142.858H33.0341V146.398ZM44.8778 153.17C44.1733 153.17 43.5445 152.991 42.9915 152.631C42.4422 152.267 42.0104 151.75 41.696 151.08C41.3854 150.405 41.2301 149.597 41.2301 148.653C41.2301 147.71 41.3873 146.903 41.7017 146.233C42.0199 145.562 42.4555 145.049 43.0085 144.693C43.5616 144.337 44.1884 144.159 44.8892 144.159C45.4309 144.159 45.8665 144.25 46.196 144.432C46.5294 144.61 46.7869 144.818 46.9688 145.057C47.1544 145.295 47.2983 145.506 47.4006 145.688H47.5028V144.273H49.2017V153H47.5426V151.642H47.4006C47.2983 151.828 47.1506 152.04 46.9574 152.278C46.768 152.517 46.5066 152.725 46.1733 152.903C45.84 153.081 45.4081 153.17 44.8778 153.17ZM45.2528 151.722C45.7415 151.722 46.1544 151.593 46.4915 151.335C46.8324 151.074 47.09 150.712 47.2642 150.25C47.4422 149.788 47.5312 149.25 47.5312 148.636C47.5312 148.03 47.4441 147.5 47.2699 147.045C47.0956 146.591 46.84 146.237 46.5028 145.983C46.1657 145.729 45.7491 145.602 45.2528 145.602C44.7415 145.602 44.3153 145.735 43.9744 146C43.6335 146.265 43.3759 146.627 43.2017 147.085C43.0313 147.544 42.946 148.061 42.946 148.636C42.946 149.22 43.0331 149.744 43.2074 150.21C43.3816 150.676 43.6392 151.045 43.9801 151.318C44.3248 151.587 44.7491 151.722 45.2528 151.722ZM53.3253 147.818V153H51.6264V144.273H53.2571V145.693H53.3651C53.5658 145.231 53.8802 144.86 54.3082 144.58C54.7401 144.299 55.2836 144.159 55.9389 144.159C56.5336 144.159 57.0545 144.284 57.5014 144.534C57.9484 144.78 58.295 145.148 58.5412 145.636C58.7874 146.125 58.9105 146.729 58.9105 147.449V153H57.2116V147.653C57.2116 147.021 57.0469 146.527 56.7173 146.17C56.3878 145.811 55.9351 145.631 55.3594 145.631C54.9654 145.631 54.6151 145.716 54.3082 145.886C54.0052 146.057 53.7647 146.307 53.5866 146.636C53.4124 146.962 53.3253 147.356 53.3253 147.818ZM62.7514 150.04L62.7401 147.966H63.0355L66.5128 144.273H68.5469L64.581 148.477H64.3139L62.7514 150.04ZM61.1889 153V141.364H62.8878V153H61.1889ZM66.7003 153L63.5753 148.852L64.7457 147.665L68.7855 153H66.7003ZM73.892 142.875V141.364H82.8977V142.875H79.267V153H77.517V142.875H73.892ZM83.8452 153V144.273H85.4872V145.659H85.5781C85.7372 145.189 86.0175 144.82 86.419 144.551C86.8243 144.278 87.2827 144.142 87.794 144.142C87.9001 144.142 88.0251 144.146 88.169 144.153C88.3168 144.161 88.4323 144.17 88.5156 144.182V145.807C88.4474 145.788 88.3262 145.767 88.152 145.744C87.9777 145.718 87.8035 145.705 87.6293 145.705C87.2277 145.705 86.8698 145.79 86.5554 145.96C86.2448 146.127 85.9986 146.36 85.8168 146.659C85.6349 146.955 85.544 147.292 85.544 147.67V153H83.8452ZM92.9403 153.17C92.2358 153.17 91.607 152.991 91.054 152.631C90.5047 152.267 90.0729 151.75 89.7585 151.08C89.4479 150.405 89.2926 149.597 89.2926 148.653C89.2926 147.71 89.4498 146.903 89.7642 146.233C90.0824 145.562 90.518 145.049 91.071 144.693C91.6241 144.337 92.2509 144.159 92.9517 144.159C93.4934 144.159 93.929 144.25 94.2585 144.432C94.5919 144.61 94.8494 144.818 95.0312 145.057C95.2169 145.295 95.3608 145.506 95.4631 145.688H95.5653V144.273H97.2642V153H95.6051V151.642H95.4631C95.3608 151.828 95.2131 152.04 95.0199 152.278C94.8305 152.517 94.5691 152.725 94.2358 152.903C93.9025 153.081 93.4706 153.17 92.9403 153.17ZM93.3153 151.722C93.804 151.722 94.2169 151.593 94.554 151.335C94.8949 151.074 95.1525 150.712 95.3267 150.25C95.5047 149.788 95.5938 149.25 95.5938 148.636C95.5938 148.03 95.5066 147.5 95.3324 147.045C95.1581 146.591 94.9025 146.237 94.5653 145.983C94.2282 145.729 93.8116 145.602 93.3153 145.602C92.804 145.602 92.3778 145.735 92.0369 146C91.696 146.265 91.4384 146.627 91.2642 147.085C91.0938 147.544 91.0085 148.061 91.0085 148.636C91.0085 149.22 91.0956 149.744 91.2699 150.21C91.4441 150.676 91.7017 151.045 92.0426 151.318C92.3873 151.587 92.8116 151.722 93.3153 151.722ZM101.388 147.818V153H99.6889V144.273H101.32V145.693H101.428C101.628 145.231 101.943 144.86 102.371 144.58C102.803 144.299 103.346 144.159 104.001 144.159C104.596 144.159 105.117 144.284 105.564 144.534C106.011 144.78 106.357 145.148 106.604 145.636C106.85 146.125 106.973 146.729 106.973 147.449V153H105.274V147.653C105.274 147.021 105.109 146.527 104.78 146.17C104.45 145.811 103.998 145.631 103.422 145.631C103.028 145.631 102.678 145.716 102.371 145.886C102.068 146.057 101.827 146.307 101.649 146.636C101.475 146.962 101.388 147.356 101.388 147.818ZM115.791 146.403L114.251 146.676C114.187 146.479 114.085 146.292 113.945 146.114C113.808 145.936 113.623 145.79 113.388 145.676C113.153 145.562 112.859 145.506 112.507 145.506C112.026 145.506 111.625 145.614 111.303 145.83C110.981 146.042 110.82 146.316 110.82 146.653C110.82 146.945 110.928 147.18 111.143 147.358C111.359 147.536 111.708 147.682 112.189 147.795L113.575 148.114C114.378 148.299 114.977 148.585 115.371 148.972C115.765 149.358 115.962 149.86 115.962 150.477C115.962 151 115.81 151.466 115.507 151.875C115.208 152.28 114.789 152.598 114.251 152.83C113.717 153.061 113.098 153.176 112.393 153.176C111.416 153.176 110.619 152.968 110.001 152.551C109.384 152.131 109.005 151.534 108.865 150.761L110.507 150.511C110.609 150.939 110.82 151.263 111.138 151.483C111.456 151.699 111.871 151.807 112.382 151.807C112.939 151.807 113.384 151.691 113.717 151.46C114.051 151.225 114.217 150.939 114.217 150.602C114.217 150.33 114.115 150.1 113.911 149.915C113.71 149.729 113.401 149.589 112.984 149.494L111.507 149.17C110.693 148.985 110.09 148.689 109.7 148.284C109.314 147.879 109.121 147.366 109.121 146.744C109.121 146.229 109.265 145.778 109.553 145.392C109.84 145.006 110.238 144.705 110.746 144.489C111.253 144.269 111.835 144.159 112.49 144.159C113.433 144.159 114.176 144.364 114.717 144.773C115.259 145.178 115.617 145.722 115.791 146.403ZM121.983 144.273V145.636H117.051V144.273H121.983ZM118.403 153V143.261C118.403 142.716 118.523 142.263 118.761 141.903C119 141.54 119.316 141.269 119.71 141.091C120.104 140.909 120.532 140.818 120.994 140.818C121.335 140.818 121.627 140.847 121.869 140.903C122.112 140.956 122.292 141.006 122.409 141.051L122.011 142.426C121.932 142.403 121.83 142.377 121.705 142.347C121.58 142.312 121.428 142.295 121.25 142.295C120.837 142.295 120.542 142.398 120.364 142.602C120.189 142.807 120.102 143.102 120.102 143.489V153H118.403ZM127.153 153.176C126.294 153.176 125.553 152.992 124.932 152.625C124.314 152.254 123.837 151.733 123.5 151.062C123.167 150.388 123 149.598 123 148.693C123 147.799 123.167 147.011 123.5 146.33C123.837 145.648 124.307 145.116 124.909 144.733C125.515 144.35 126.223 144.159 127.034 144.159C127.527 144.159 128.004 144.241 128.466 144.403C128.928 144.566 129.343 144.822 129.71 145.17C130.078 145.519 130.367 145.972 130.58 146.528C130.792 147.081 130.898 147.754 130.898 148.545V149.148H123.96V147.875H129.233C129.233 147.428 129.142 147.032 128.96 146.688C128.778 146.339 128.523 146.064 128.193 145.864C127.867 145.663 127.485 145.562 127.045 145.562C126.568 145.562 126.152 145.68 125.795 145.915C125.443 146.146 125.17 146.449 124.977 146.824C124.788 147.195 124.693 147.598 124.693 148.034V149.028C124.693 149.612 124.795 150.108 125 150.517C125.208 150.926 125.498 151.239 125.869 151.455C126.241 151.667 126.674 151.773 127.17 151.773C127.492 151.773 127.786 151.727 128.051 151.636C128.316 151.542 128.545 151.402 128.739 151.216C128.932 151.03 129.08 150.801 129.182 150.528L130.79 150.818C130.661 151.292 130.43 151.706 130.097 152.062C129.767 152.415 129.352 152.689 128.852 152.886C128.356 153.08 127.79 153.176 127.153 153.176ZM132.783 153V144.273H134.425V145.659H134.516C134.675 145.189 134.955 144.82 135.357 144.551C135.762 144.278 136.22 144.142 136.732 144.142C136.838 144.142 136.963 144.146 137.107 144.153C137.254 144.161 137.37 144.17 137.453 144.182V145.807C137.385 145.788 137.264 145.767 137.089 145.744C136.915 145.718 136.741 145.705 136.567 145.705C136.165 145.705 135.807 145.79 135.493 145.96C135.182 146.127 134.936 146.36 134.754 146.659C134.572 146.955 134.482 147.292 134.482 147.67V153H132.783Z" fill="#383838"/>
<path d="M247 151L251 147L247 143" stroke="#121212" stroke-miterlimit="10" stroke-linecap="round" stroke-linejoin="round"/>
<path d="M272 173H30V175H272V173Z" fill="#EEEEEE" mask="url(#path-9-inside-3_15233_68177)"/>
<mask id="path-13-inside-4_15233_68177" fill="white">
<path d="M30 179H272V235H30V179Z"/>
</mask>
<path d="M30 179H272V235H30V179Z" fill="white"/>
<path d="M40.9432 205.148H39.1705C39.1023 204.769 38.9754 204.436 38.7898 204.148C38.6042 203.86 38.3769 203.616 38.108 203.415C37.839 203.214 37.5379 203.062 37.2045 202.96C36.875 202.858 36.5246 202.807 36.1534 202.807C35.483 202.807 34.8826 202.975 34.3523 203.312C33.8258 203.65 33.4091 204.144 33.1023 204.795C32.7992 205.447 32.6477 206.242 32.6477 207.182C32.6477 208.129 32.7992 208.928 33.1023 209.58C33.4091 210.231 33.8277 210.723 34.358 211.057C34.8883 211.39 35.4848 211.557 36.1477 211.557C36.5152 211.557 36.8636 211.508 37.1932 211.409C37.5265 211.307 37.8277 211.157 38.0966 210.96C38.3655 210.763 38.5928 210.523 38.7784 210.239C38.9678 209.951 39.0985 209.621 39.1705 209.25L40.9432 209.256C40.8485 209.828 40.6648 210.354 40.392 210.835C40.1231 211.312 39.7765 211.725 39.3523 212.074C38.9318 212.419 38.4508 212.686 37.9091 212.875C37.3674 213.064 36.7765 213.159 36.1364 213.159C35.1288 213.159 34.2311 212.92 33.4432 212.443C32.6553 211.962 32.0341 211.275 31.5795 210.381C31.1288 209.487 30.9034 208.42 30.9034 207.182C30.9034 205.939 31.1307 204.873 31.5852 203.983C32.0398 203.089 32.661 202.403 33.4489 201.926C34.2367 201.445 35.1326 201.205 36.1364 201.205C36.7538 201.205 37.3295 201.294 37.8636 201.472C38.4015 201.646 38.8845 201.903 39.3125 202.244C39.7405 202.581 40.0947 202.994 40.375 203.483C40.6553 203.968 40.8447 204.523 40.9432 205.148ZM46.1747 213.17C45.4702 213.17 44.8414 212.991 44.2884 212.631C43.7391 212.267 43.3073 211.75 42.9929 211.08C42.6823 210.405 42.527 209.597 42.527 208.653C42.527 207.71 42.6842 206.903 42.9986 206.233C43.3168 205.562 43.7524 205.049 44.3054 204.693C44.8584 204.337 45.4853 204.159 46.1861 204.159C46.7277 204.159 47.1634 204.25 47.4929 204.432C47.8262 204.61 48.0838 204.818 48.2656 205.057C48.4512 205.295 48.5952 205.506 48.6974 205.688H48.7997V204.273H50.4986V213H48.8395V211.642H48.6974C48.5952 211.828 48.4474 212.04 48.2543 212.278C48.0649 212.517 47.8035 212.725 47.4702 212.903C47.1368 213.081 46.705 213.17 46.1747 213.17ZM46.5497 211.722C47.0384 211.722 47.4512 211.593 47.7884 211.335C48.1293 211.074 48.3868 210.712 48.5611 210.25C48.7391 209.788 48.8281 209.25 48.8281 208.636C48.8281 208.03 48.741 207.5 48.5668 207.045C48.3925 206.591 48.1368 206.237 47.7997 205.983C47.4626 205.729 47.0459 205.602 46.5497 205.602C46.0384 205.602 45.6122 205.735 45.2713 206C44.9304 206.265 44.6728 206.627 44.4986 207.085C44.3281 207.544 44.2429 208.061 44.2429 208.636C44.2429 209.22 44.33 209.744 44.5043 210.21C44.6785 210.676 44.9361 211.045 45.277 211.318C45.6217 211.587 46.0459 211.722 46.5497 211.722ZM59.4631 206.403L57.9233 206.676C57.8589 206.479 57.7566 206.292 57.6165 206.114C57.4801 205.936 57.2945 205.79 57.0597 205.676C56.8248 205.562 56.5313 205.506 56.179 205.506C55.6979 205.506 55.2964 205.614 54.9744 205.83C54.6525 206.042 54.4915 206.316 54.4915 206.653C54.4915 206.945 54.5994 207.18 54.8153 207.358C55.0313 207.536 55.3797 207.682 55.8608 207.795L57.2472 208.114C58.0502 208.299 58.6487 208.585 59.0426 208.972C59.4366 209.358 59.6335 209.86 59.6335 210.477C59.6335 211 59.482 211.466 59.179 211.875C58.8797 212.28 58.4612 212.598 57.9233 212.83C57.3892 213.061 56.7699 213.176 56.0653 213.176C55.0881 213.176 54.2907 212.968 53.6733 212.551C53.0559 212.131 52.6771 211.534 52.5369 210.761L54.179 210.511C54.2813 210.939 54.4915 211.263 54.8097 211.483C55.1278 211.699 55.5426 211.807 56.054 211.807C56.6108 211.807 57.0559 211.691 57.3892 211.46C57.7225 211.225 57.8892 210.939 57.8892 210.602C57.8892 210.33 57.7869 210.1 57.5824 209.915C57.3816 209.729 57.0729 209.589 56.6562 209.494L55.179 209.17C54.3646 208.985 53.7623 208.689 53.3722 208.284C52.9858 207.879 52.7926 207.366 52.7926 206.744C52.7926 206.229 52.9366 205.778 53.2244 205.392C53.5123 205.006 53.91 204.705 54.4176 204.489C54.9252 204.269 55.5066 204.159 56.1619 204.159C57.1051 204.159 57.8475 204.364 58.3892 204.773C58.9309 205.178 59.2888 205.722 59.4631 206.403ZM63.2003 207.818V213H61.5014V201.364H63.1776V205.693H63.2855C63.4901 205.223 63.8026 204.85 64.223 204.574C64.6435 204.297 65.1927 204.159 65.8707 204.159C66.4692 204.159 66.992 204.282 67.4389 204.528C67.8897 204.775 68.2382 205.142 68.4844 205.631C68.7344 206.116 68.8594 206.722 68.8594 207.449V213H67.1605V207.653C67.1605 207.013 66.9957 206.517 66.6662 206.165C66.3366 205.809 65.8783 205.631 65.2912 205.631C64.8897 205.631 64.5298 205.716 64.2116 205.886C63.8973 206.057 63.6491 206.307 63.4673 206.636C63.2893 206.962 63.2003 207.356 63.2003 207.818Z" fill="#383838"/>
<rect x="90" y="194" width="84" height="26" rx="5" fill="#121212"/>
<path d="M106.839 206.092H105.732C105.689 205.856 105.61 205.647 105.494 205.467C105.378 205.287 105.236 205.135 105.067 205.009C104.899 204.884 104.711 204.789 104.503 204.725C104.297 204.661 104.078 204.629 103.846 204.629C103.427 204.629 103.052 204.735 102.72 204.945C102.391 205.156 102.131 205.465 101.939 205.872C101.75 206.279 101.655 206.777 101.655 207.364C101.655 207.955 101.75 208.455 101.939 208.862C102.131 209.269 102.392 209.577 102.724 209.786C103.055 209.994 103.428 210.098 103.842 210.098C104.072 210.098 104.29 210.067 104.496 210.006C104.704 209.942 104.892 209.848 105.06 209.725C105.228 209.602 105.371 209.452 105.487 209.274C105.605 209.094 105.687 208.888 105.732 208.656L106.839 208.66C106.78 209.017 106.665 209.346 106.495 209.647C106.327 209.945 106.11 210.203 105.845 210.421C105.582 210.637 105.282 210.804 104.943 210.922C104.605 211.04 104.235 211.099 103.835 211.099C103.205 211.099 102.644 210.95 102.152 210.652C101.66 210.351 101.271 209.922 100.987 209.363C100.705 208.804 100.565 208.138 100.565 207.364C100.565 206.587 100.707 205.921 100.991 205.364C101.275 204.806 101.663 204.377 102.156 204.079C102.648 203.778 103.208 203.628 103.835 203.628C104.221 203.628 104.581 203.683 104.915 203.795C105.251 203.904 105.553 204.065 105.82 204.278C106.088 204.488 106.309 204.746 106.484 205.052C106.66 205.355 106.778 205.702 106.839 206.092ZM110.365 211.11C109.854 211.11 109.407 210.993 109.026 210.759C108.645 210.524 108.349 210.196 108.138 209.775C107.928 209.353 107.822 208.861 107.822 208.298C107.822 207.732 107.928 207.237 108.138 206.813C108.349 206.389 108.645 206.06 109.026 205.826C109.407 205.592 109.854 205.474 110.365 205.474C110.876 205.474 111.323 205.592 111.704 205.826C112.085 206.06 112.381 206.389 112.591 206.813C112.802 207.237 112.907 207.732 112.907 208.298C112.907 208.861 112.802 209.353 112.591 209.775C112.381 210.196 112.085 210.524 111.704 210.759C111.323 210.993 110.876 211.11 110.365 211.11ZM110.368 210.219C110.7 210.219 110.974 210.131 111.192 209.956C111.41 209.781 111.571 209.548 111.675 209.256C111.782 208.965 111.835 208.644 111.835 208.294C111.835 207.946 111.782 207.626 111.675 207.335C111.571 207.042 111.41 206.806 111.192 206.629C110.974 206.451 110.7 206.362 110.368 206.362C110.035 206.362 109.758 206.451 109.537 206.629C109.32 206.806 109.157 207.042 109.051 207.335C108.947 207.626 108.895 207.946 108.895 208.294C108.895 208.644 108.947 208.965 109.051 209.256C109.157 209.548 109.32 209.781 109.537 209.956C109.758 210.131 110.035 210.219 110.368 210.219ZM114.093 211V205.545H115.112V206.433H115.179C115.293 206.133 115.479 205.898 115.737 205.73C115.995 205.56 116.304 205.474 116.664 205.474C117.028 205.474 117.334 205.56 117.58 205.73C117.828 205.901 118.012 206.135 118.13 206.433H118.187C118.317 206.142 118.525 205.91 118.809 205.737C119.093 205.562 119.431 205.474 119.824 205.474C120.319 205.474 120.723 205.629 121.035 205.94C121.35 206.25 121.507 206.717 121.507 207.342V211H120.446V207.442C120.446 207.072 120.345 206.805 120.144 206.639C119.943 206.473 119.702 206.391 119.423 206.391C119.077 206.391 118.809 206.497 118.617 206.71C118.425 206.921 118.329 207.192 118.329 207.523V211H117.271V207.374C117.271 207.078 117.179 206.84 116.994 206.661C116.809 206.481 116.569 206.391 116.273 206.391C116.072 206.391 115.886 206.444 115.716 206.55C115.547 206.655 115.411 206.8 115.307 206.987C115.205 207.174 115.154 207.391 115.154 207.637V211H114.093ZM122.931 211V205.545H123.992V211H122.931ZM123.467 204.704C123.282 204.704 123.124 204.642 122.991 204.519C122.861 204.394 122.796 204.245 122.796 204.072C122.796 203.897 122.861 203.747 122.991 203.624C123.124 203.499 123.282 203.436 123.467 203.436C123.651 203.436 123.809 203.499 123.939 203.624C124.072 203.747 124.138 203.897 124.138 204.072C124.138 204.245 124.072 204.394 123.939 204.519C123.809 204.642 123.651 204.704 123.467 204.704ZM126.483 207.761V211H125.421V205.545H126.44V206.433H126.507C126.633 206.144 126.829 205.912 127.097 205.737C127.367 205.562 127.707 205.474 128.116 205.474C128.488 205.474 128.813 205.553 129.093 205.709C129.372 205.863 129.589 206.092 129.743 206.398C129.896 206.703 129.973 207.081 129.973 207.531V211H128.912V207.658C128.912 207.263 128.809 206.954 128.603 206.732C128.397 206.507 128.114 206.394 127.754 206.394C127.508 206.394 127.289 206.447 127.097 206.554C126.908 206.661 126.757 206.817 126.646 207.023C126.537 207.226 126.483 207.473 126.483 207.761ZM133.684 213.159C133.251 213.159 132.878 213.102 132.566 212.989C132.256 212.875 132.002 212.725 131.806 212.538C131.609 212.351 131.462 212.146 131.365 211.923L132.278 211.547C132.342 211.651 132.427 211.761 132.534 211.877C132.643 211.996 132.789 212.096 132.974 212.179C133.161 212.262 133.401 212.303 133.695 212.303C134.097 212.303 134.43 212.205 134.693 212.009C134.956 211.814 135.087 211.504 135.087 211.078V210.006H135.02C134.956 210.122 134.863 210.251 134.743 210.393C134.624 210.535 134.461 210.658 134.252 210.762C134.044 210.866 133.773 210.918 133.439 210.918C133.008 210.918 132.62 210.818 132.275 210.616C131.931 210.413 131.659 210.113 131.458 209.718C131.259 209.32 131.159 208.831 131.159 208.251C131.159 207.671 131.258 207.174 131.454 206.76C131.653 206.346 131.925 206.028 132.271 205.808C132.617 205.586 133.008 205.474 133.446 205.474C133.785 205.474 134.058 205.531 134.267 205.645C134.475 205.756 134.637 205.886 134.753 206.036C134.872 206.185 134.963 206.316 135.027 206.43H135.105V205.545H136.145V211.121C136.145 211.589 136.036 211.974 135.819 212.275C135.601 212.576 135.306 212.798 134.934 212.942C134.565 213.087 134.148 213.159 133.684 213.159ZM133.674 210.038C133.979 210.038 134.237 209.967 134.448 209.825C134.661 209.68 134.822 209.474 134.931 209.207C135.042 208.937 135.098 208.614 135.098 208.237C135.098 207.87 135.043 207.547 134.934 207.268C134.825 206.988 134.666 206.771 134.455 206.614C134.244 206.456 133.984 206.376 133.674 206.376C133.354 206.376 133.088 206.459 132.875 206.625C132.662 206.788 132.501 207.011 132.392 207.293C132.285 207.574 132.232 207.889 132.232 208.237C132.232 208.595 132.286 208.908 132.395 209.178C132.504 209.448 132.665 209.659 132.878 209.81C133.094 209.962 133.359 210.038 133.674 210.038ZM144.303 206.877L143.341 207.048C143.3 206.924 143.237 206.807 143.149 206.696C143.064 206.585 142.948 206.494 142.801 206.423C142.654 206.352 142.471 206.316 142.251 206.316C141.95 206.316 141.699 206.384 141.498 206.518C141.296 206.651 141.196 206.823 141.196 207.033C141.196 207.216 141.263 207.362 141.398 207.474C141.533 207.585 141.751 207.676 142.052 207.747L142.918 207.946C143.42 208.062 143.794 208.241 144.04 208.482C144.287 208.724 144.41 209.037 144.41 209.423C144.41 209.75 144.315 210.041 144.126 210.297C143.939 210.55 143.677 210.749 143.341 210.893C143.007 211.038 142.62 211.11 142.18 211.11C141.569 211.11 141.07 210.98 140.684 210.719C140.299 210.457 140.062 210.084 139.974 209.601L141.001 209.445C141.064 209.712 141.196 209.915 141.395 210.052C141.594 210.187 141.853 210.254 142.172 210.254C142.52 210.254 142.799 210.182 143.007 210.038C143.215 209.891 143.319 209.712 143.319 209.501C143.319 209.331 143.256 209.188 143.128 209.072C143.002 208.956 142.809 208.868 142.549 208.809L141.626 208.607C141.117 208.491 140.74 208.306 140.496 208.053C140.255 207.799 140.134 207.478 140.134 207.09C140.134 206.768 140.224 206.487 140.404 206.245C140.584 206.004 140.832 205.815 141.15 205.68C141.467 205.543 141.83 205.474 142.24 205.474C142.829 205.474 143.293 205.602 143.632 205.858C143.97 206.111 144.194 206.451 144.303 206.877ZM147.875 211.11C147.363 211.11 146.917 210.993 146.536 210.759C146.155 210.524 145.859 210.196 145.648 209.775C145.437 209.353 145.332 208.861 145.332 208.298C145.332 207.732 145.437 207.237 145.648 206.813C145.859 206.389 146.155 206.06 146.536 205.826C146.917 205.592 147.363 205.474 147.875 205.474C148.386 205.474 148.832 205.592 149.213 205.826C149.595 206.06 149.891 206.389 150.101 206.813C150.312 207.237 150.417 207.732 150.417 208.298C150.417 208.861 150.312 209.353 150.101 209.775C149.891 210.196 149.595 210.524 149.213 210.759C148.832 210.993 148.386 211.11 147.875 211.11ZM147.878 210.219C148.21 210.219 148.484 210.131 148.702 209.956C148.92 209.781 149.081 209.548 149.185 209.256C149.292 208.965 149.345 208.644 149.345 208.294C149.345 207.946 149.292 207.626 149.185 207.335C149.081 207.042 148.92 206.806 148.702 206.629C148.484 206.451 148.21 206.362 147.878 206.362C147.544 206.362 147.267 206.451 147.047 206.629C146.829 206.806 146.667 207.042 146.561 207.335C146.457 207.626 146.404 207.946 146.404 208.294C146.404 208.644 146.457 208.965 146.561 209.256C146.667 209.548 146.829 209.781 147.047 209.956C147.267 210.131 147.544 210.219 147.878 210.219ZM153.9 211.11C153.389 211.11 152.942 210.993 152.561 210.759C152.18 210.524 151.884 210.196 151.673 209.775C151.463 209.353 151.357 208.861 151.357 208.298C151.357 207.732 151.463 207.237 151.673 206.813C151.884 206.389 152.18 206.06 152.561 205.826C152.942 205.592 153.389 205.474 153.9 205.474C154.411 205.474 154.858 205.592 155.239 205.826C155.62 206.06 155.916 206.389 156.127 206.813C156.337 207.237 156.443 207.732 156.443 208.298C156.443 208.861 156.337 209.353 156.127 209.775C155.916 210.196 155.62 210.524 155.239 210.759C154.858 210.993 154.411 211.11 153.9 211.11ZM153.904 210.219C154.235 210.219 154.51 210.131 154.727 209.956C154.945 209.781 155.106 209.548 155.21 209.256C155.317 208.965 155.37 208.644 155.37 208.294C155.37 207.946 155.317 207.626 155.21 207.335C155.106 207.042 154.945 206.806 154.727 206.629C154.51 206.451 154.235 206.362 153.904 206.362C153.57 206.362 153.293 206.451 153.073 206.629C152.855 206.806 152.693 207.042 152.586 207.335C152.482 207.626 152.43 207.946 152.43 208.294C152.43 208.644 152.482 208.965 152.586 209.256C152.693 209.548 152.855 209.781 153.073 209.956C153.293 210.131 153.57 210.219 153.904 210.219ZM158.69 207.761V211H157.628V205.545H158.647V206.433H158.714C158.84 206.144 159.036 205.912 159.304 205.737C159.574 205.562 159.914 205.474 160.323 205.474C160.695 205.474 161.02 205.553 161.3 205.709C161.579 205.863 161.796 206.092 161.95 206.398C162.103 206.703 162.18 207.081 162.18 207.531V211H161.119V207.658C161.119 207.263 161.016 206.954 160.81 206.732C160.604 206.507 160.321 206.394 159.961 206.394C159.715 206.394 159.496 206.447 159.304 206.554C159.115 206.661 158.964 206.817 158.853 207.023C158.744 207.226 158.69 207.473 158.69 207.761Z" fill="#EEEEEE"/>
<path d="M247 211L251 207L247 203" stroke="#121212" stroke-miterlimit="10" stroke-linecap="round" stroke-linejoin="round"/>
<path d="M272 234H30V236H272V234Z" fill="#EEEEEE" mask="url(#path-13-inside-4_15233_68177)"/>
</g>
<defs>
<filter id="filter0_d_15233_68177" x="0" y="0" width="302" height="269" filterUnits="userSpaceOnUse" color-interpolation-filters="sRGB">
<feFlood flood-opacity="0" result="BackgroundImageFix"/>
<feColorMatrix in="SourceAlpha" type="matrix" values="0 0 0 0 0 0 0 0 0 0 0 0 0 0 0 0 0 0 127 0" result="hardAlpha"/>
<feOffset dy="4"/>
<feGaussianBlur stdDeviation="5"/>
<feComposite in2="hardAlpha" operator="out"/>
<feColorMatrix type="matrix" values="0 0 0 0 0.219608 0 0 0 0 0.219608 0 0 0 0 0.219608 0 0 0 0.1 0"/>
<feBlend mode="normal" in2="BackgroundImageFix" result="effect1_dropShadow_15233_68177"/>
<feBlend mode="normal" in="SourceGraphic" in2="effect1_dropShadow_15233_68177" result="shape"/>
</filter>
</defs>
</svg>
