<svg width="216" height="190" viewBox="0 0 216 190" fill="none" xmlns="http://www.w3.org/2000/svg">
    <g filter="url(#filter0_d_15100_68402)">
    <rect x="10" y="6" width="196" height="170" rx="5" fill="white" shape-rendering="crispEdges"/>
    <path fill-rule="evenodd" clip-rule="evenodd" d="M109.478 24.4377C72.7284 24.4377 42.9375 54.239 42.9375 91C42.9375 127.761 72.7284 157.562 109.478 157.562C133.018 157.562 153.702 145.335 165.531 126.883H163.14C151.561 144.177 131.848 155.562 109.478 155.562C73.8336 155.562 44.9375 126.657 44.9375 91C44.9375 55.3429 73.8336 26.4377 109.478 26.4377C139.401 26.4377 164.568 46.8085 171.877 74.4436H173.944C166.586 45.6923 140.514 24.4377 109.478 24.4377Z" fill="url(#paint0_linear_15100_68402)"/>
    <path d="M165.531 126.883L166.373 127.423C166.57 127.115 166.584 126.724 166.409 126.403C166.233 126.083 165.897 125.883 165.531 125.883V126.883ZM163.14 126.883V125.883C162.806 125.883 162.495 126.049 162.309 126.327L163.14 126.883ZM171.877 74.4436L170.91 74.6993C171.026 75.138 171.423 75.4436 171.877 75.4436V74.4436ZM173.944 74.4436V75.4436C174.253 75.4436 174.544 75.3008 174.734 75.0568C174.923 74.8128 174.989 74.495 174.913 74.1957L173.944 74.4436ZM43.9375 91C43.9375 54.7909 73.281 25.4377 109.478 25.4377V23.4377C72.1758 23.4377 41.9375 53.687 41.9375 91H43.9375ZM109.478 156.562C73.281 156.562 43.9375 127.209 43.9375 91H41.9375C41.9375 128.313 72.1758 158.562 109.478 158.562V156.562ZM164.689 126.343C153.037 144.521 132.663 156.562 109.478 156.562V158.562C133.373 158.562 154.368 146.149 166.373 127.423L164.689 126.343ZM165.531 125.883H163.14V127.883H165.531V125.883ZM109.478 156.562C132.196 156.562 152.214 144.999 163.971 127.439L162.309 126.327C150.907 143.355 131.501 154.562 109.478 154.562V156.562ZM43.9375 91C43.9375 127.209 73.281 156.562 109.478 156.562V154.562C74.3862 154.562 45.9375 126.105 45.9375 91H43.9375ZM109.478 25.4377C73.281 25.4377 43.9375 54.7909 43.9375 91H45.9375C45.9375 55.8949 74.3862 27.4377 109.478 27.4377V25.4377ZM172.843 74.1879C165.422 46.1253 139.866 25.4377 109.478 25.4377V27.4377C138.936 27.4377 163.715 47.4917 170.91 74.6993L172.843 74.1879ZM171.877 75.4436H173.944V73.4436H171.877V75.4436ZM109.478 25.4377C140.046 25.4377 165.728 46.3718 172.975 74.6915L174.913 74.1957C167.445 45.0128 140.982 23.4377 109.478 23.4377V25.4377Z" fill="#FFCC00"/>
    <path d="M82.9881 100.384C81.5221 100.378 80.2608 100.017 79.204 99.3011C78.1528 98.5852 77.3432 97.5483 76.775 96.1903C76.2125 94.8324 75.9341 93.1989 75.9398 91.2898C75.9398 89.3864 76.221 87.7642 76.7835 86.4233C77.3517 85.0824 78.1613 84.0625 79.2125 83.3636C80.2693 82.6591 81.5278 82.3068 82.9881 82.3068C84.4483 82.3068 85.704 82.6591 86.7551 83.3636C87.8119 84.0682 88.6244 85.0909 89.1926 86.4318C89.7608 87.767 90.042 89.3864 90.0363 91.2898C90.0363 93.2045 89.7523 94.8409 89.1841 96.1989C88.6216 97.5568 87.8148 98.5937 86.7636 99.3097C85.7125 100.026 84.454 100.384 82.9881 100.384ZM82.9881 97.3239C83.9881 97.3239 84.7863 96.821 85.3829 95.8153C85.9795 94.8097 86.275 93.3011 86.2693 91.2898C86.2693 89.9659 86.1329 88.8636 85.8602 87.983C85.5932 87.1023 85.2125 86.4403 84.7182 85.9972C84.2295 85.554 83.6528 85.3324 82.9881 85.3324C81.9937 85.3324 81.1983 85.8295 80.6017 86.8239C80.0051 87.8182 79.704 89.3068 79.6983 91.2898C79.6983 92.6307 79.8318 93.75 80.0988 94.6477C80.3716 95.5398 80.7551 96.2102 81.2494 96.6591C81.7437 97.1023 82.3233 97.3239 82.9881 97.3239ZM99.0315 100.384C97.5656 100.378 96.3042 100.017 95.2474 99.3011C94.1963 98.5852 93.3866 97.5483 92.8184 96.1903C92.2559 94.8324 91.9775 93.1989 91.9832 91.2898C91.9832 89.3864 92.2644 87.7642 92.8269 86.4233C93.3951 85.0824 94.2048 84.0625 95.2559 83.3636C96.3127 82.6591 97.5713 82.3068 99.0315 82.3068C100.492 82.3068 101.747 82.6591 102.799 83.3636C103.855 84.0682 104.668 85.0909 105.236 86.4318C105.804 87.767 106.085 89.3864 106.08 91.2898C106.08 93.2045 105.796 94.8409 105.228 96.1989C104.665 97.5568 103.858 98.5937 102.807 99.3097C101.756 100.026 100.497 100.384 99.0315 100.384ZM99.0315 97.3239C100.031 97.3239 100.83 96.821 101.426 95.8153C102.023 94.8097 102.318 93.3011 102.313 91.2898C102.313 89.9659 102.176 88.8636 101.904 87.983C101.637 87.1023 101.256 86.4403 100.762 85.9972C100.273 85.554 99.6963 85.3324 99.0315 85.3324C98.0372 85.3324 97.2417 85.8295 96.6451 86.8239C96.0485 87.8182 95.7474 89.3068 95.7417 91.2898C95.7417 92.6307 95.8752 93.75 96.1423 94.6477C96.415 95.5398 96.7985 96.2102 97.2929 96.6591C97.7872 97.1023 98.3667 97.3239 99.0315 97.3239ZM110.387 97.9716C109.825 97.9716 109.342 97.7727 108.939 97.375C108.541 96.9773 108.342 96.4943 108.342 95.9261C108.342 95.3693 108.541 94.892 108.939 94.4943C109.342 94.0966 109.825 93.8977 110.387 93.8977C110.933 93.8977 111.41 94.0966 111.819 94.4943C112.228 94.892 112.433 95.3693 112.433 95.9261C112.433 96.3011 112.336 96.6449 112.143 96.9574C111.956 97.2642 111.708 97.5114 111.402 97.6989C111.095 97.8807 110.757 97.9716 110.387 97.9716ZM110.387 89.4062C109.825 89.4062 109.342 89.2074 108.939 88.8097C108.541 88.4119 108.342 87.929 108.342 87.3608C108.342 86.804 108.541 86.3295 108.939 85.9375C109.342 85.5398 109.825 85.3409 110.387 85.3409C110.933 85.3409 111.41 85.5398 111.819 85.9375C112.228 86.3295 112.433 86.804 112.433 87.3608C112.433 87.7415 112.336 88.0881 112.143 88.4006C111.956 88.7074 111.708 88.9517 111.402 89.1335C111.095 89.3153 110.757 89.4062 110.387 89.4062ZM122.493 82.5455V100H118.803V86.0483H118.701L114.704 88.554V85.2812L119.025 82.5455H122.493ZM133.006 100.384C131.54 100.378 130.278 100.017 129.221 99.3011C128.17 98.5852 127.361 97.5483 126.792 96.1903C126.23 94.8324 125.952 93.1989 125.957 91.2898C125.957 89.3864 126.239 87.7642 126.801 86.4233C127.369 85.0824 128.179 84.0625 129.23 83.3636C130.287 82.6591 131.545 82.3068 133.006 82.3068C134.466 82.3068 135.721 82.6591 136.773 83.3636C137.829 84.0682 138.642 85.0909 139.21 86.4318C139.778 87.767 140.06 89.3864 140.054 91.2898C140.054 93.2045 139.77 94.8409 139.202 96.1989C138.639 97.5568 137.832 98.5937 136.781 99.3097C135.73 100.026 134.471 100.384 133.006 100.384ZM133.006 97.3239C134.006 97.3239 134.804 96.821 135.4 95.8153C135.997 94.8097 136.292 93.3011 136.287 91.2898C136.287 89.9659 136.15 88.8636 135.878 87.983C135.611 87.1023 135.23 86.4403 134.736 85.9972C134.247 85.554 133.67 85.3324 133.006 85.3324C132.011 85.3324 131.216 85.8295 130.619 86.8239C130.023 87.8182 129.721 89.3068 129.716 91.2898C129.716 92.6307 129.849 93.75 130.116 94.6477C130.389 95.5398 130.773 96.2102 131.267 96.6591C131.761 97.1023 132.341 97.3239 133.006 97.3239Z" fill="#383838"/>
    </g>
    <defs>
    <filter id="filter0_d_15100_68402" x="0" y="0" width="216" height="190" filterUnits="userSpaceOnUse" color-interpolation-filters="sRGB">
    <feFlood flood-opacity="0" result="BackgroundImageFix"/>
    <feColorMatrix in="SourceAlpha" type="matrix" values="0 0 0 0 0 0 0 0 0 0 0 0 0 0 0 0 0 0 127 0" result="hardAlpha"/>
    <feOffset dy="4"/>
    <feGaussianBlur stdDeviation="5"/>
    <feComposite in2="hardAlpha" operator="out"/>
    <feColorMatrix type="matrix" values="0 0 0 0 0.219608 0 0 0 0 0.219608 0 0 0 0 0.219608 0 0 0 0.1 0"/>
    <feBlend mode="normal" in2="BackgroundImageFix" result="effect1_dropShadow_15100_68402"/>
    <feBlend mode="normal" in="SourceGraphic" in2="effect1_dropShadow_15100_68402" result="shape"/>
    </filter>
    <linearGradient id="paint0_linear_15100_68402" x1="55.1863" y1="43.1076" x2="152.648" y2="132.165" gradientUnits="userSpaceOnUse">
    <stop offset="0.864583"/>
    <stop offset="1" stop-color="#848484" stop-opacity="0.87"/>
    </linearGradient>
    </defs>
    </svg>
    