
<svg version="1.1" id="Layer_1"  x="0px" y="0px"
	 viewBox="0 0 1600 1082.4">
<style type="text/css">
	.st0{fill:#FFFFFF;stroke:#FFCC00;stroke-width:24.35;stroke-linecap:round;stroke-linejoin:round;stroke-miterlimit:10;}
	.st1{fill:#FFFFFF;stroke:#000000;stroke-width:24.35;stroke-linecap:round;stroke-linejoin:round;stroke-miterlimit:10;}
	.st2{fill:#FFFFFF;}
	.st3{fill:#121212;}
	.st4{fill:none;stroke:#000000;stroke-width:24.35;stroke-linecap:round;stroke-linejoin:round;stroke-miterlimit:10;}
	.st5{fill:#121212;stroke:#121212;stroke-width:1.6233;stroke-miterlimit:10;}
	.st6{fill:#717171;}
</style>
<g>
	<polygon class="st0" points="423.1,82.8 423.1,999.6 70.5,999.6 70.5,82.8 130,82.8 130,138.4 363.3,138.4 363.3,82.8 	"/>
	<polygon class="st0" points="423.1,82.8 423.1,999.6 70.5,999.6 70.5,82.8 130,82.8 130,138.4 363.3,138.4 363.3,82.8 	"/>
	<path class="st1" d="M467.2,26.9H26.3c-6.5,0-11.7,4.9-11.7,10.9v1007c0,6,5.2,10.9,11.7,10.9h440.9c6.5,0,11.7-4.9,11.7-10.9V37.8
		C478.9,31.8,473.5,26.9,467.2,26.9z M423.1,999.6H70.5V82.8H130v55.8h233.3V82.8h59.6L423.1,999.6L423.1,999.6z"/>
	<g>
		<polygon class="st2" points="1529.5,82.8 1529.5,999.6 1176.9,999.6 1176.9,82.8 1236.7,82.8 1236.7,138.4 1470,138.4 1470,82.8 
					"/>
		<g>
			<path class="st3" d="M1527.1,82.8c0,8.3,0,16.4,0,24.7c0,22.2,0,44.3,0,66.6c0,33,0,66.1,0,99c0,39.9,0,80,0,120
				c0,44.2,0,88.1,0,132.3s0,88.5,0,132.6c0,41.6,0,83,0,124.5c0,34.9,0,69.6,0,104.5c0,25.2,0,50.5,0,75.6c0,7.8,0,15.6,0,23.4
				c0,4.1-0.3,8.3,0,12.2c0,0.5,0,1,0,1.6c0.8-0.8,1.6-1.6,2.4-2.4c-11.7,0-23.4,0-35.1,0c-28.1,0-56,0-84.1,0
				c-34.1,0-68.2,0-102.1,0c-29.4,0-58.6,0-88,0c-9.6,0-19.3,0-28.9,0c-3.1,0-6.2,0-9.3,0c-1.3,0-3.4-0.3-4.7,0c-0.2,0-0.5,0-0.6,0
				c0.8,0.8,1.6,1.6,2.4,2.4c0-8.3,0-16.4,0-24.7c0-22.2,0-44.3,0-66.6c0-33,0-66.1,0-99c0-39.9,0-80,0-120c0-44.2,0-88.1,0-132.3
				s0-88.5,0-132.6c0-41.6,0-83,0-124.5c0-34.9,0-69.6,0-104.5c0-25.2,0-50.5,0-75.6c0-7.8,0-15.6,0-23.4c0-4.1,0.3-8.3,0-12.2
				c0-0.5,0-1,0-1.6c-0.8,0.8-1.6,1.6-2.4,2.4c19.8,0,39.8,0,59.6,0c-0.8-0.8-1.6-1.6-2.4-2.4c0,18.7,0,37.2,0,55.8
				c0,1.3,1.1,2.4,2.4,2.4c26.3,0,52.6,0,78.7,0c41.9,0,83.8,0,125.6,0c9.6,0,19.3,0,28.9,0c1.3,0,2.4-1.1,2.4-2.4
				c0-18.7,0-37.2,0-55.8c-0.8,0.8-1.6,1.6-2.4,2.4c19.8,0,39.8,0,59.6,0c3.1,0,3.1-4.9,0-4.9c-19.8,0-39.8,0-59.6,0
				c-1.3,0-2.4,1.1-2.4,2.4c0,18.7,0,37.2,0,55.8c0.8-0.8,1.6-1.6,2.4-2.4c-26.3,0-52.6,0-78.7,0c-41.9,0-83.8,0-125.6,0
				c-9.6,0-19.3,0-28.9,0c0.8,0.8,1.6,1.6,2.4,2.4c0-18.7,0-37.2,0-55.8c0-1.3-1.1-2.4-2.4-2.4c-19.8,0-39.8,0-59.6,0
				c-1.3,0-2.4,1.1-2.4,2.4c0,8.3,0,16.4,0,24.7c0,22.2,0,44.3,0,66.6c0,33,0,66.1,0,99c0,39.9,0,80,0,120c0,44.2,0,88.1,0,132.3
				s0,88.5,0,132.6c0,41.6,0,83,0,124.5c0,34.9,0,69.6,0,104.5c0,25.2,0,50.5,0,75.6c0,11.9-0.2,23.7,0,35.6c0,0.5,0,1,0,1.6
				c0,1.3,1.1,2.4,2.4,2.4c11.7,0,23.4,0,35.1,0c28.1,0,56,0,84.1,0c34.1,0,68.2,0,102.1,0c29.4,0,58.6,0,88,0c9.6,0,19.3,0,28.9,0
				c4.5,0,9.4,0.3,14,0c0.2,0,0.3,0,0.6,0c1.3,0,2.4-1.1,2.4-2.4c0-8.3,0-16.4,0-24.7c0-22.2,0-44.3,0-66.6c0-33,0-66.1,0-99
				c0-39.9,0-80,0-120c0-44.2,0-88.1,0-132.3s0-88.5,0-132.6c0-41.6,0-83,0-124.5c0-34.9,0-69.6,0-104.5c0-25.2,0-50.5,0-75.6
				c0-11.9,0.2-23.7,0-35.6c0-0.5,0-1,0-1.6C1532,79.5,1527.1,79.5,1527.1,82.8z"/>
		</g>
	</g>
	<g>
		<polygon class="st2" points="1529.5,82.8 1529.5,999.6 1176.9,999.6 1176.9,82.8 1236.7,82.8 1236.7,138.4 1470,138.4 1470,82.8 
					"/>
		<g>
			<path class="st3" d="M1527.1,82.8c0,8.3,0,16.4,0,24.7c0,22.2,0,44.3,0,66.6c0,33,0,66.1,0,99c0,39.9,0,80,0,120
				c0,44.2,0,88.1,0,132.3s0,88.5,0,132.6c0,41.6,0,83,0,124.5c0,34.9,0,69.6,0,104.5c0,25.2,0,50.5,0,75.6c0,7.8,0,15.6,0,23.4
				c0,4.1-0.3,8.3,0,12.2c0,0.5,0,1,0,1.6c0.8-0.8,1.6-1.6,2.4-2.4c-11.7,0-23.4,0-35.1,0c-28.1,0-56,0-84.1,0
				c-34.1,0-68.2,0-102.1,0c-29.4,0-58.6,0-88,0c-9.6,0-19.3,0-28.9,0c-3.1,0-6.2,0-9.3,0c-1.3,0-3.4-0.3-4.7,0c-0.2,0-0.5,0-0.6,0
				c0.8,0.8,1.6,1.6,2.4,2.4c0-8.3,0-16.4,0-24.7c0-22.2,0-44.3,0-66.6c0-33,0-66.1,0-99c0-39.9,0-80,0-120c0-44.2,0-88.1,0-132.3
				s0-88.5,0-132.6c0-41.6,0-83,0-124.5c0-34.9,0-69.6,0-104.5c0-25.2,0-50.5,0-75.6c0-7.8,0-15.6,0-23.4c0-4.1,0.3-8.3,0-12.2
				c0-0.5,0-1,0-1.6c-0.8,0.8-1.6,1.6-2.4,2.4c19.8,0,39.8,0,59.6,0c-0.8-0.8-1.6-1.6-2.4-2.4c0,18.7,0,37.2,0,55.8
				c0,1.3,1.1,2.4,2.4,2.4c26.3,0,52.6,0,78.7,0c41.9,0,83.8,0,125.6,0c9.6,0,19.3,0,28.9,0c1.3,0,2.4-1.1,2.4-2.4
				c0-18.7,0-37.2,0-55.8c-0.8,0.8-1.6,1.6-2.4,2.4c19.8,0,39.8,0,59.6,0c3.1,0,3.1-4.9,0-4.9c-19.8,0-39.8,0-59.6,0
				c-1.3,0-2.4,1.1-2.4,2.4c0,18.7,0,37.2,0,55.8c0.8-0.8,1.6-1.6,2.4-2.4c-26.3,0-52.6,0-78.7,0c-41.9,0-83.8,0-125.6,0
				c-9.6,0-19.3,0-28.9,0c0.8,0.8,1.6,1.6,2.4,2.4c0-18.7,0-37.2,0-55.8c0-1.3-1.1-2.4-2.4-2.4c-19.8,0-39.8,0-59.6,0
				c-1.3,0-2.4,1.1-2.4,2.4c0,8.3,0,16.4,0,24.7c0,22.2,0,44.3,0,66.6c0,33,0,66.1,0,99c0,39.9,0,80,0,120c0,44.2,0,88.1,0,132.3
				s0,88.5,0,132.6c0,41.6,0,83,0,124.5c0,34.9,0,69.6,0,104.5c0,25.2,0,50.5,0,75.6c0,11.9-0.2,23.7,0,35.6c0,0.5,0,1,0,1.6
				c0,1.3,1.1,2.4,2.4,2.4c11.7,0,23.4,0,35.1,0c28.1,0,56,0,84.1,0c34.1,0,68.2,0,102.1,0c29.4,0,58.6,0,88,0c9.6,0,19.3,0,28.9,0
				c4.5,0,9.4,0.3,14,0c0.2,0,0.3,0,0.6,0c1.3,0,2.4-1.1,2.4-2.4c0-8.3,0-16.4,0-24.7c0-22.2,0-44.3,0-66.6c0-33,0-66.1,0-99
				c0-39.9,0-80,0-120c0-44.2,0-88.1,0-132.3s0-88.5,0-132.6c0-41.6,0-83,0-124.5c0-34.9,0-69.6,0-104.5c0-25.2,0-50.5,0-75.6
				c0-11.9,0.2-23.7,0-35.6c0-0.5,0-1,0-1.6C1532,79.5,1527.1,79.5,1527.1,82.8z"/>
		</g>
	</g>
	<g>
		<path class="st1" d="M1573.7,26.9h-440.9c-6.5,0-11.7,4.9-11.7,10.9v1007c0,6,5.2,10.9,11.7,10.9h440.9c6.3,0,11.7-4.9,11.7-10.9
			V37.8C1585.4,31.8,1580.2,26.9,1573.7,26.9z M1529.5,999.6h-352.6V82.8h59.6v55.8h233.3V82.8h59.6L1529.5,999.6L1529.5,999.6z"/>
	</g>
	<line class="st4" x1="258" y1="362.6" x2="258" y2="762.9"/>
	<g>
		<path class="st1" d="M702.1,498.7c-31.7,55.8-93,185.9-109.7,210.1c-16.7,24.2-76.3,20.5-124.5,20.5c-48.4,0-96.8-26-148.7-27.9
			c-14.8-0.5-11.2-0.8-61.2-0.8V424.3h53.7c66.9,0,125.3-32,162.7-132.5c19.5-52.3,49.8-67.7,85.2-56.5
			c35.4,11.2,28.6,36.2,15.6,85.2c-13,49.2-53.2,103.7,39.6,103.7C707.6,424.3,733.8,442.8,702.1,498.7z"/>
	</g>
	<g>
		<path class="st1" d="M863.1,414.9c0,30.4,13.8,41.9,33.1,41.9c39.8,0,173.5,0,173.5,0V549c0,10.2-8.3,18.7-18.7,18.7H814.4
			c-10.2,0-18.7-8.3-18.7-18.7V280.8c0-10.2,8.3-18.7,18.7-18.7h236.7c10.2,0,18.7,8.3,18.7,18.7v67.9
			c-48.1-20.9-66.7,8.6-112.3,16.6C908.3,373.7,863.1,373.8,863.1,414.9z"/>
	</g>
	<rect x="845.6" y="262.1" class="st5" width="43.3" height="305.2"/>
	<path class="st6" d="M1069.8,456.6v16.2l-78.1-13l-1.3-3.2C1031.8,456.6,1069.8,456.6,1069.8,456.6z"/>
	<g>
		<path class="st1" d="M1353.2,418.6v276.6h-42c-21.9,0-47.7,1.6-82.8,23.1c-51.5,31.5-147.7,33.4-169.6,5
			c-20.1-26-76-105.8-106.8-155.7h99c10.2,0,18.7-8.3,18.7-18.7v-92.2c0,0-133.8,0-173.5,0c-19.3,0-33.1-11.5-33.1-41.9
			c0-41.1,45.1-41.2,94.3-49.7c45.5-7.8,64.1-37.3,112.3-16.6c48.1,20.9,69,57.8,114.9,66.2h168.5L1353.2,418.6L1353.2,418.6z"/>
		<line class="st4" x1="1353.2" y1="362.6" x2="1353.2" y2="762.9"/>
	</g>
	<path class="st6" d="M1031.3,567.5l-61.5,27.8l0,0c-8.8-13.3-10.9-16.6-17.9-27.8H1031.3z"/>
	<line class="st4" x1="258" y1="362.6" x2="258" y2="762.9"/>
</g>
</svg>
