<svg width="60" height="92" viewBox="0 0 60 92" fill="none" xmlns="http://www.w3.org/2000/svg">
<path d="M1.00003 72.3822V48.5162C0.997918 48.1584 1.09798 47.8075 1.28846 47.5046C1.47893 47.2017 1.75191 46.9595 2.07531 46.8064L25.6828 35.8149C26.8965 35.2495 28.2741 36.161 28.2741 37.5247V47.306" fill="white"/>
<path d="M1.00003 72.3822V48.5162C0.997918 48.1584 1.09798 47.8075 1.28846 47.5046C1.47893 47.2017 1.75191 46.9595 2.07531 46.8064L25.6828 35.8149C26.8965 35.2495 28.2741 36.161 28.2741 37.5247V47.306" stroke="black" stroke-width="1.73059" stroke-miterlimit="10" stroke-linecap="round"/>
<path d="M28.2734 47.0254V49.289" stroke="black" stroke-width="1.73059" stroke-miterlimit="10" stroke-linecap="round"/>
<path d="M42.7836 36.382C43.4512 33.5536 41.6995 30.7194 38.871 30.0519C36.0425 29.3843 33.2084 31.136 32.5408 33.9645C31.8732 36.793 33.625 39.6271 36.4535 40.2947C39.2819 40.9623 42.1161 39.2105 42.7836 36.382Z" fill="white" stroke="black" stroke-width="1.73059" stroke-linecap="round" stroke-linejoin="round"/>
<path d="M33.5161 12.8478C36.4554 11.6304 37.8512 8.26061 36.6337 5.32132C35.4162 2.38204 32.0465 0.986244 29.1072 2.20374C26.1679 3.42123 24.7721 6.79097 25.9896 9.73026C27.2071 12.6695 30.5769 14.0653 33.5161 12.8478Z" fill="white" stroke="black" stroke-width="1.73059" stroke-linecap="round" stroke-linejoin="round"/>
<path d="M23.0071 33.9407C25.021 33.1065 25.9773 30.7977 25.1432 28.7838C24.309 26.77 22.0002 25.8136 19.9863 26.6478C17.9724 27.482 17.0161 29.7908 17.8503 31.8047C18.6844 33.8185 20.9932 34.7749 23.0071 33.9407Z" fill="white" stroke="black" stroke-width="1.73059" stroke-linecap="round" stroke-linejoin="round"/>
<path d="M25.6543 18.3701C25.6543 18.7211 25.5503 19.0641 25.3553 19.356C25.1603 19.6478 24.8832 19.8752 24.5589 20.0095C24.2347 20.1438 23.8779 20.1789 23.5337 20.1105C23.1895 20.042 22.8733 19.873 22.6252 19.6248C22.377 19.3767 22.208 19.0605 22.1396 18.7163C22.0711 18.3721 22.1062 18.0153 22.2405 17.6911C22.3748 17.3669 22.6023 17.0897 22.8941 16.8947C23.1859 16.6998 23.5289 16.5957 23.8799 16.5957C24.3505 16.5957 24.8018 16.7827 25.1346 17.1154C25.4674 17.4482 25.6543 17.8995 25.6543 18.3701Z" fill="white" stroke="black" stroke-width="1.73059" stroke-linecap="round" stroke-linejoin="round"/>
<path d="M34.9682 24.0895C34.9682 24.7219 34.7806 25.34 34.4293 25.8658C34.078 26.3916 33.5786 26.8013 32.9944 27.0433C32.4101 27.2852 31.7673 27.3485 31.1471 27.225C30.5269 27.1016 29.9572 26.797 29.5102 26.3497C29.0631 25.9025 28.7587 25.3328 28.6355 24.7125C28.5123 24.0923 28.5758 23.4495 28.8179 22.8653C29.0601 22.2812 29.47 21.782 29.9959 21.4308C30.5218 21.0797 31.14 20.8924 31.7723 20.8926C32.62 20.8929 33.4329 21.2298 34.0322 21.8294C34.6315 22.4289 34.9682 23.2419 34.9682 24.0895" fill="white"/>
<path d="M34.9682 24.0895C34.9682 24.7219 34.7806 25.34 34.4293 25.8658C34.078 26.3916 33.5786 26.8013 32.9944 27.0433C32.4101 27.2852 31.7673 27.3485 31.1471 27.225C30.5269 27.1016 29.9572 26.797 29.5102 26.3497C29.0631 25.9025 28.7587 25.3328 28.6355 24.7125C28.5123 24.0923 28.5758 23.4495 28.8179 22.8653C29.0601 22.2812 29.47 21.782 29.9959 21.4308C30.5218 21.0797 31.14 20.8924 31.7723 20.8926C32.62 20.8929 33.4329 21.2298 34.0322 21.8294C34.6315 22.4289 34.9682 23.2419 34.9682 24.0895" stroke="black" stroke-width="1.73059" stroke-linecap="round" stroke-linejoin="round"/>
<path d="M52.9215 75.0482V89.8355C52.9215 90.0803 52.8243 90.3151 52.6512 90.4882C52.4781 90.6612 52.2433 90.7585 51.9985 90.7585H1.92689C1.6821 90.7585 1.44733 90.6612 1.27424 90.4882C1.10115 90.3151 1.00391 90.0803 1.00391 89.8355V47.9484C1.00391 47.7036 1.10115 47.4688 1.27424 47.2957C1.44733 47.1226 1.6821 47.0254 1.92689 47.0254H51.9985C52.2433 47.0254 52.4781 47.1226 52.6512 47.2957C52.8243 47.4688 52.9215 47.7036 52.9215 47.9484V58.5499" fill="white"/>
<path d="M52.9215 75.0482V89.8355C52.9215 90.0803 52.8243 90.3151 52.6512 90.4882C52.4781 90.6612 52.2433 90.7585 51.9985 90.7585H1.92689C1.6821 90.7585 1.44733 90.6612 1.27424 90.4882C1.10115 90.3151 1.00391 90.0803 1.00391 89.8355V47.9484C1.00391 47.7036 1.10115 47.4688 1.27424 47.2957C1.44733 47.1226 1.6821 47.0254 1.92689 47.0254H51.9985C52.2433 47.0254 52.4781 47.1226 52.6512 47.2957C52.8243 47.4688 52.9215 47.7036 52.9215 47.9484V58.5499" stroke="black" stroke-width="1.73059" stroke-miterlimit="10" stroke-linecap="round"/>
<path d="M57.7443 59.75H41.6925C41.1828 59.75 40.7695 60.1632 40.7695 60.673V72.4041C40.7695 72.9138 41.1828 73.327 41.6925 73.327H57.7443C58.254 73.327 58.6673 72.9138 58.6673 72.4041V60.673C58.6673 60.1632 58.254 59.75 57.7443 59.75Z" fill="white" stroke="black" stroke-width="1.73059" stroke-miterlimit="10" stroke-linecap="round"/>
<path d="M47.3705 68.4364C48.4187 68.4364 49.2684 67.5867 49.2684 66.5385C49.2684 65.4903 48.4187 64.6406 47.3705 64.6406C46.3224 64.6406 45.4727 65.4903 45.4727 66.5385C45.4727 67.5867 46.3224 68.4364 47.3705 68.4364Z" fill="white"/>
</svg>
