<svg width="113" height="90" viewBox="0 0 113 90" fill="none" xmlns="http://www.w3.org/2000/svg">
<path d="M7.33538 31.9212L1 34.3633L5.84984 46.945L12.1852 44.5029L7.33538 31.9212Z" fill="white"/>
<path d="M11.3002 23.3392L4.96484 25.7812L12.1816 44.5033L18.5169 42.0612L11.3002 23.3392Z" fill="white"/>
<path d="M15.7905 16.1107L9.45508 18.5527L18.5167 42.0609L24.8521 39.6189L15.7905 16.1107Z" fill="white"/>
<path d="M7.33538 31.9212L1 34.3633L5.84984 46.945L12.1852 44.5029L7.33538 31.9212Z" stroke="#231F20" stroke-width="0.454469" stroke-miterlimit="10"/>
<path d="M11.3002 23.3392L4.96484 25.7812L12.1816 44.5033L18.5169 42.0612L11.3002 23.3392Z" stroke="#231F20" stroke-width="0.454469" stroke-miterlimit="10"/>
<path d="M15.7905 16.1107L9.45508 18.5527L18.5167 42.0609L24.8521 39.6189L15.7905 16.1107Z" stroke="#231F20" stroke-width="0.454469" stroke-miterlimit="10"/>
<path d="M7.33538 31.9212L1 34.3633L5.84984 46.945L12.1852 44.5029L7.33538 31.9212Z" stroke="black" stroke-width="0.761542" stroke-linecap="round" stroke-linejoin="round"/>
<path d="M11.3002 23.3392L4.96484 25.7812L12.1816 44.5033L18.5169 42.0612L11.3002 23.3392Z" stroke="black" stroke-width="0.761542" stroke-linecap="round" stroke-linejoin="round"/>
<path d="M15.7905 16.1107L9.45508 18.5527L18.5167 42.0609L24.8521 39.6189L15.7905 16.1107Z" stroke="black" stroke-width="0.761542" stroke-linecap="round" stroke-linejoin="round"/>
<path d="M53.0215 41.4102L57.5995 36.9201L61.0323 40.2665L70.8033 30.3181L74.942 34.5432L81.8954 27.502" stroke="#231F20" stroke-width="0.454469" stroke-miterlimit="10"/>
<path d="M53.0215 41.4102L57.5995 36.9201L61.0323 40.2665L70.8033 30.3181L74.942 34.5432L81.8954 27.502" stroke="white" stroke-width="0.761542" stroke-linecap="round" stroke-linejoin="round"/>
<path d="M44.1557 14.5358L56.7612 12.0635C57.0858 13.7144 57.0827 15.413 56.7521 17.0626C55.3675 23.9721 48.5428 28.5198 41.6334 27.1352C34.724 25.7506 30.1763 18.926 31.5609 12.0165C32.9243 5.1889 39.611 0.654822 46.4614 1.90158L44.1557 14.5358Z" fill="white" stroke="black" stroke-width="0.761542" stroke-linecap="round" stroke-linejoin="round"/>
<path d="M48.1035 10.6499L51.3863 1C52.8506 1.49858 54.1823 2.32368 55.2807 3.41286C56.379 4.50204 57.2153 5.82677 57.7261 7.28681L48.1035 10.6499Z" fill="white" stroke="black" stroke-width="0.761542" stroke-linecap="round" stroke-linejoin="round"/>
<path d="M45.2406 70.4292C44.3423 70.5928 43.4515 70.7927 42.5714 71.0351C41.9224 71.2375 41.2617 71.4004 40.5929 71.5229C39.2114 71.7335 37.7919 71.6941 36.4058 71.5653C33.2245 71.2623 30.0614 70.4579 27.0725 69.3339C25.697 68.8173 24.3821 68.1704 23.0399 67.5721C21.6189 66.9404 20.1858 66.3329 18.783 65.6603C17.5862 65.0861 16.3592 64.4741 15.32 63.6424C14.6564 63.1137 13.8959 62.376 13.9414 61.4549C13.9702 60.8656 14.3625 60.3339 14.6867 59.8719C15.0859 59.2613 15.6197 58.7503 16.2471 58.3782C17.2318 57.8389 18.3376 57.9919 19.3753 58.2752C22.1294 59.0326 24.8835 59.7688 27.6739 60.3809L28.4798 60.5505C28.2571 60.6226 28.0451 60.7246 27.8496 60.8535C27.4553 61.1232 27.1596 61.5141 27.0074 61.967C26.8418 62.5059 26.7786 63.0711 26.821 63.6333C26.8468 64.2393 26.9013 64.8604 27.2088 65.3936C27.7785 66.3814 28.9692 66.6525 30.0235 66.7298C31.5202 66.8404 33.0367 66.651 34.5212 66.4768C36.4558 66.2511 38.3873 66.0314 40.3384 66.0223C40.3891 66.0179 40.4362 65.9947 40.4705 65.9573C40.5049 65.9198 40.5239 65.8709 40.5239 65.8201C40.5239 65.7693 40.5049 65.7203 40.4705 65.6829C40.4362 65.6454 40.3891 65.6222 40.3384 65.6178C38.6766 65.6428 37.0175 65.7637 35.3696 65.9799C33.9107 66.1511 32.4489 66.345 30.9764 66.3601C30.3631 66.3795 29.7496 66.3287 29.1479 66.2087C28.6789 66.1231 28.2411 65.9139 27.8799 65.6027C27.5409 65.2665 27.3271 64.8244 27.274 64.3499C27.1829 63.7701 27.1773 63.1801 27.2573 62.5987C27.3101 62.1046 27.538 61.6457 27.8996 61.3049C28.3314 60.9323 28.9358 60.8005 29.4872 60.7444C29.5071 60.7421 29.5264 60.737 29.5448 60.7293C29.6599 60.7293 29.7736 60.7202 29.8948 60.7156C30.7567 60.6823 31.6202 60.7035 32.4822 60.6687C34.2722 60.5987 36.0536 60.3828 37.8086 60.0233C39.6264 59.6461 41.3474 59.0553 43.0819 58.4266C44.6226 57.8676 46.2208 57.2253 47.8675 57.0844C48.5004 57.0567 49.1344 57.0698 49.7656 57.1238C50.4958 57.1572 51.226 57.192 51.9562 57.2359C53.8013 57.345 55.6465 57.5071 57.478 57.7722C58.4031 57.9055 59.3236 58.0676 60.2396 58.2585L60.1624 58.5115C60.0518 58.866 59.9427 59.222 59.8321 59.5719L58.6611 63.3591C58.2339 64.7417 57.8062 66.1243 57.378 67.5069C57.176 68.1614 56.974 68.8178 56.772 69.4763C56.6933 69.7308 56.6205 69.9838 56.5372 70.2337C52.7851 69.7001 48.972 69.7661 45.2406 70.4292Z" fill="white" stroke="#131313" stroke-width="0.757448" stroke-miterlimit="10"/>
<path d="M57.8589 75.1657C57.4599 75.0924 57.0649 74.9983 56.6757 74.8839C56.4492 74.8008 56.2544 74.6489 56.1186 74.4495C55.9827 74.2501 55.9127 74.0132 55.9183 73.772C55.937 73.5711 55.9834 73.3739 56.0561 73.1857L56.8818 70.515C56.9378 70.3317 56.9954 70.1468 57.0514 69.962C57.212 69.447 57.3721 68.9309 57.5316 68.4138C57.9356 67.11 58.3396 65.8057 58.7436 64.5008L59.9752 60.5212C60.1277 60.0243 60.2792 59.5274 60.4296 59.0305L60.6978 58.167L61.3931 55.9174L61.9233 54.2056C61.9645 54.0405 62.0261 53.8813 62.1066 53.7314C62.2352 53.5257 62.4252 53.3656 62.6497 53.2737C62.8743 53.1818 63.122 53.1628 63.3579 53.2194C64.4396 53.4754 65.5151 53.7633 66.5922 54.0344L66.7437 54.0738C66.6513 54.4177 66.5574 54.7616 66.465 55.1054C66.263 55.8599 66.061 56.6143 65.859 57.3687C65.6823 58.0272 65.5045 58.6836 65.3258 59.3381L64.7759 61.3756C64.3123 63.0925 63.8493 64.8094 63.3867 66.5262L63.2352 67.1155L61.9491 71.8769C61.74 72.6555 61.5305 73.4337 61.3204 74.2113L61.0659 75.1521C61.0038 75.3838 60.9144 75.6217 60.8659 75.8595L57.8589 75.1657Z" fill="white" stroke="#131313" stroke-width="0.757448" stroke-miterlimit="10"/>
<path d="M110.924 64.74C110.569 66.2296 110.215 67.7192 109.864 69.2089L108.652 74.3156L107.44 79.4238L106.39 83.817L105.663 86.868C105.553 87.3225 105.493 88.0103 105.181 88.3829C104.709 88.9571 104.089 88.7798 103.491 88.6526L101.455 88.2178L98.2205 87.527L94.0469 86.6362L89.2568 85.6152L84.1168 84.5169L78.8798 83.4004L73.8806 82.34L69.3753 81.378L65.6457 80.5827L62.9401 80.0131L61.613 79.7374C61.1722 79.642 60.7965 79.3905 60.6526 78.9375C60.5405 78.5876 60.6526 78.2634 60.7389 77.9256L61.0616 76.7288C61.1116 76.5425 61.1616 76.3562 61.2131 76.1698L61.8084 73.9626C62.2558 72.3084 62.7022 70.6536 63.1476 68.9983L63.6157 67.2623L64.9973 62.1434L66.2304 57.5775C66.3077 57.2867 66.3819 56.9973 66.4652 56.7065C66.7061 55.8142 66.9757 54.9249 67.1878 54.0251C67.1878 54.013 67.1954 54.0009 67.1984 53.9887C67.2939 53.6373 67.3878 53.2843 67.4832 52.9283C67.6711 52.233 67.8529 51.5361 68.0468 50.8438C68.1189 50.5467 68.3045 50.2897 68.564 50.128C68.8234 49.9663 69.1359 49.9127 69.4344 49.9788C69.8237 50.0576 70.21 50.1455 70.5963 50.2288L73.1535 50.7817L76.8332 51.577L81.3051 52.5435L86.2937 53.6221L91.5292 54.7522L96.6677 55.8627L101.44 56.8943L105.554 57.7836L108.735 58.4698L110.649 58.8834L111.038 58.9682C111.192 58.9958 111.339 59.0542 111.47 59.1397C111.601 59.2252 111.714 59.3362 111.801 59.466C111.888 59.5959 111.949 59.742 111.978 59.8956C112.008 60.0493 112.007 60.2073 111.974 60.3604L111.688 61.5602L110.924 64.74Z" fill="white" stroke="#131313" stroke-width="0.757448" stroke-miterlimit="10"/>
</svg>
