<svg width="88" height="89" viewBox="0 0 88 89" fill="none" xmlns="http://www.w3.org/2000/svg">
<path d="M73.6495 76.941L59.4854 78.5576L48.9755 88.1911L36.5659 81.1735L22.4004 82.79L16.4854 69.8171L4.07582 62.7995L6.91491 48.8272L1 35.8558L11.5099 26.2208L14.3505 12.25L28.5145 10.6335L39.0245 1L51.4356 8.01759L65.5996 6.40103L71.5145 19.374L83.9242 26.3916L81.0851 40.3639L87 53.3353L76.4901 62.9703L73.6495 76.941Z" fill="white" stroke="#010101" stroke-width="0.749103" stroke-miterlimit="10"/>
<path d="M68.701 32.0349L62.2587 25.6001C62.1371 25.4821 61.9743 25.416 61.8048 25.416C61.6353 25.416 61.4724 25.4821 61.3508 25.6001L53.1107 33.8403L40.1003 46.8507L37.5863 49.3647L27.9004 39.6788L26.4876 38.2659C26.3658 38.1482 26.203 38.0824 26.0336 38.0824C25.8642 38.0824 25.7014 38.1482 25.5796 38.2659L19.1374 44.7082C19.0192 44.8301 18.9531 44.9932 18.9531 45.1629C18.9531 45.3327 19.0192 45.4958 19.1374 45.6176L25.2306 51.7094L34.897 61.3773L37.1248 63.6036C37.1802 63.6617 37.2466 63.708 37.3202 63.74C37.3938 63.7719 37.4731 63.7887 37.5533 63.7894H37.6027C37.6833 63.7894 37.763 63.7729 37.837 63.741C37.9109 63.709 37.9775 63.6623 38.0327 63.6036L41.0816 60.5563L48.4003 53.236L57.2562 44.3816L64.9105 36.7273C66.1451 35.4928 67.441 34.2957 68.6246 33.0132L68.68 32.9578C68.8047 32.8379 68.8769 32.6736 68.8808 32.5007C68.8848 32.3278 68.8201 32.1603 68.701 32.0349Z" fill="white" stroke="black" stroke-width="0.746842" stroke-linecap="round" stroke-linejoin="round"/>
</svg>
