<svg width="91" height="89" viewBox="0 0 91 89" fill="none" xmlns="http://www.w3.org/2000/svg">
<path d="M55.8106 61.2221C55.8418 61.1803 55.8594 61.13 55.8611 61.0778C55.8627 61.0257 55.8483 60.9744 55.8198 60.9307C55.4446 59.5767 55.3126 58.1768 55.2862 56.7746C55.2518 54.9776 55.3746 53.1795 55.5157 51.3884C55.6156 50.1261 55.7303 48.8766 55.8451 47.6212C55.8737 47.2976 55.3941 47.1944 55.2472 47.4594C53.5628 50.4956 49.7107 51.5352 46.476 51.7429C44.5794 51.8558 42.678 51.6265 40.8626 51.0659C38.858 50.452 36.9257 49.3447 35.8815 47.4594C35.7334 47.1944 35.2538 47.2976 35.2825 47.6212C35.4592 49.5719 35.6439 51.5146 35.7575 53.4653C35.847 54.9937 35.8964 56.5313 35.7862 58.0551C35.7416 58.7022 35.6576 59.346 35.5349 59.9829C35.4753 60.2812 35.4064 60.5784 35.3249 60.8722C35.2996 60.934 35.2885 61.0007 35.2922 61.0674C35.296 61.1341 35.3146 61.1991 35.3467 61.2577C35.5762 61.6249 35.9526 61.9462 36.2762 62.2273C38.0674 63.7982 40.3635 64.7253 42.702 65.1063C45.8747 65.6227 49.2873 65.3266 52.2145 63.9451C53.5077 63.3335 54.8204 62.4775 55.72 61.3415C55.7406 61.3162 55.7601 61.2898 55.7808 61.2634C55.7916 61.2503 55.8015 61.2365 55.8106 61.2221Z" fill="white"/>
<path d="M55.2744 60.877L55.2246 60.9395L55.2744 60.877Z" fill="white"/>
<path d="M54.9566 61.2491C54.6431 61.5776 54.3043 61.8811 53.9434 62.1567C52.6352 63.1342 51.1425 63.8368 49.5555 64.2222C47.2042 64.8066 44.7533 64.8678 42.3758 64.4012C40.6546 64.0569 38.9816 63.4178 37.5381 62.4057C37.0773 62.0893 36.647 61.7305 36.253 61.334C36.1485 61.2273 36.0476 61.1171 35.9512 61.0035C36.7819 57.9134 36.502 54.5777 36.253 51.4359C36.183 50.5639 36.1061 49.6918 36.0235 48.8197C38.0304 51.2615 41.5313 52.1749 44.5767 52.3769C46.5906 52.5037 48.6106 52.2563 50.5343 51.6471C52.2612 51.1032 53.9285 50.2024 55.0852 48.8105C54.928 50.5317 54.7765 52.2621 54.6893 53.9914C54.6078 55.5978 54.5745 57.2215 54.7616 58.8245C54.8414 59.557 54.9753 60.2827 55.162 60.9955C55.1001 61.085 55.0278 61.1688 54.9566 61.2491Z" fill="white"/>
<path d="M47.7308 0H43.4772C39.1729 0 35.6836 3.48931 35.6836 7.79359C35.6836 12.0979 39.1729 15.5872 43.4772 15.5872H47.7308C52.0351 15.5872 55.5244 12.0979 55.5244 7.79359C55.5244 3.48931 52.0351 0 47.7308 0Z" fill="#707070"/>
<path d="M55.8106 61.2221C55.8418 61.1803 55.8594 61.13 55.8611 61.0778C55.8627 61.0257 55.8483 60.9744 55.8198 60.9307C55.4446 59.5767 55.3126 58.1768 55.2862 56.7746C55.2518 54.9776 55.3746 53.1795 55.5157 51.3884C55.6156 50.1261 55.7303 48.8766 55.8451 47.6212C55.8737 47.2976 55.3941 47.1944 55.2472 47.4594C53.5628 50.4956 49.7107 51.5352 46.476 51.7429C44.5794 51.8558 42.678 51.6265 40.8626 51.0659C38.858 50.452 36.9257 49.3447 35.8815 47.4594C35.7334 47.1944 35.2538 47.2976 35.2825 47.6212C35.4592 49.5719 35.6439 51.5146 35.7575 53.4653C35.847 54.9937 35.8964 56.5313 35.7862 58.0551C35.7416 58.7022 35.6576 59.346 35.5349 59.9829C35.4753 60.2812 35.4064 60.5784 35.3249 60.8722C35.2996 60.934 35.2885 61.0007 35.2922 61.0674C35.296 61.1341 35.3146 61.1991 35.3467 61.2577C35.5762 61.6249 35.9526 61.9462 36.2762 62.2273C38.0674 63.7982 40.3635 64.7253 42.702 65.1063C45.8747 65.6227 49.2873 65.3266 52.2145 63.9451C53.5077 63.3335 54.8204 62.4775 55.72 61.3415C55.7406 61.3162 55.7601 61.2898 55.7808 61.2634C55.7916 61.2503 55.8015 61.2365 55.8106 61.2221Z" fill="white" stroke="#231F20" stroke-width="0.573733" stroke-miterlimit="10"/>
<path d="M55.2744 60.877L55.2246 60.9395L55.2744 60.877Z" fill="white"/>
<path d="M55.4089 48.9844C55.1691 51.6235 55.0567 54.3637 54.9752 56.3282C50.6504 55.6718 46.2246 54.4027 46.2246 54.4027L46.4782 54.3488C48.2866 54.2696 52.593 52.5323 55.3137 49.0934" fill="#717272"/>
<path d="M64.9063 26.623C66.8244 26.818 68.5865 27.7668 69.8051 29.2609C71.0237 30.7549 71.5989 32.6718 71.4043 34.5899C71.2077 36.5068 70.2582 38.2671 68.7643 39.4843C67.2705 40.7014 65.3546 41.2758 63.4375 41.0811L64.9063 26.623Z" fill="white" stroke="black" stroke-width="1.7212" stroke-linejoin="round"/>
<path d="M26.1329 26.7793C24.2148 26.9742 22.4527 27.9231 21.2341 29.4171C20.0155 30.9111 19.4402 32.828 19.6348 34.7461C19.8297 36.6642 20.7786 38.4264 22.2726 39.645C23.7666 40.8636 25.6835 41.4388 27.6017 41.2442L26.1329 26.7793Z" fill="white" stroke="black" stroke-width="1.7212" stroke-linecap="round" stroke-linejoin="round"/>
<path d="M35.4501 45.1394L32.352 45.5984C31.8002 45.6797 31.2378 45.6515 30.697 45.5154C30.1561 45.3792 29.6474 45.1379 29.1998 44.8051C28.7523 44.4723 28.3747 44.0546 28.0886 43.5759C27.8026 43.0971 27.6136 42.5667 27.5326 42.0149L26.7695 36.8203" stroke="black" stroke-width="1.7212" stroke-linejoin="round"/>
<path d="M59.4326 38.671C57.5175 51.2059 49.1949 53.8049 46.4421 54.3259C45.8938 54.4291 45.3313 54.4326 44.7817 54.3362C33.3851 52.3499 31.6708 38.671 31.6708 38.671C31.6708 38.671 28.7195 37.6669 27.976 33.31C27.976 33.31 27.0695 29.0288 30.8538 30.1958C30.8538 30.1958 25.8623 13.9787 45.6091 13.3556C45.6091 13.3556 64.1464 12.1771 60.6202 30.205C60.6202 30.205 63.0196 29.1424 63.1377 31.7678C63.1377 31.7678 62.8474 37.0875 59.4291 38.671" fill="white"/>
<path d="M59.4326 38.671C57.5175 51.2059 49.1949 53.8049 46.4421 54.3259C45.8938 54.4291 45.3313 54.4326 44.7817 54.3362C33.3851 52.3499 31.6708 38.671 31.6708 38.671C31.6708 38.671 28.7195 37.6669 27.976 33.31C27.976 33.31 27.0695 29.0288 30.8538 30.1958C30.8538 30.1958 25.8623 13.9787 45.6091 13.3556C45.6091 13.3556 64.1464 12.1771 60.6202 30.205C60.6202 30.205 63.0196 29.1424 63.1377 31.7678C63.1377 31.7678 62.8474 37.0875 59.4291 38.671" stroke="#231F20" stroke-width="0.573733" stroke-linecap="round" stroke-linejoin="round"/>
<path d="M46.1486 16.4721C46.1486 16.4721 43.3591 26.9003 31.1592 30.127C31.1592 30.127 30.1185 29.6347 29.2487 29.7334C29.2487 29.7334 25.8774 14.9093 42.4514 11.7377C46.1715 11.0263 50.0396 11.4887 53.4258 13.1869C57.7506 15.3556 62.3015 19.9627 61.7587 29.746C61.7587 29.746 61.4145 29.5842 60.3944 30.0352C60.3944 30.0329 47.1744 24.0913 46.1486 16.4721Z" fill="#707070"/>
<path d="M30.3432 32.5088L30.3902 32.5248C30.4419 32.5432 30.4361 32.5478 30.3776 32.5191C30.4028 32.5306 30.4292 32.5409 30.4533 32.5535C30.5233 32.5868 30.591 32.6247 30.6576 32.6683C30.6943 32.6912 30.7299 32.7153 30.7643 32.7394L30.8263 32.783C30.8848 32.8243 30.7941 32.7543 30.8515 32.8025C31.0414 32.9583 31.2127 33.1354 31.3621 33.3304C31.5666 33.6138 31.7283 33.9258 31.8418 34.2564C32.013 34.7805 32.1073 35.3266 32.1218 35.8777C32.1378 36.2885 32.7793 36.2908 32.7632 35.8777C32.7058 34.4262 32.2124 32.7417 30.824 32.0246C30.7257 31.9696 30.6223 31.9243 30.5153 31.8892C30.1183 31.7744 29.9485 32.3917 30.3443 32.5088" fill="#231F20"/>
<path d="M31.3531 32.6063C30.7622 32.8438 30.5396 33.5564 30.481 34.1335C30.4506 34.5267 30.4691 34.9222 30.5361 35.3108C30.5614 35.483 30.7782 35.577 30.9308 35.5403C31.0117 35.5155 31.08 35.4606 31.1216 35.387C31.1633 35.3133 31.1751 35.2265 31.1546 35.1445C31.111 34.8544 31.0968 34.5607 31.1121 34.2678C31.1121 34.2058 31.1236 34.145 31.1294 34.083C31.1294 34.0452 31.1294 34.0991 31.1294 34.1025C31.1294 34.106 31.1294 34.0773 31.1351 34.0635C31.1408 34.0498 31.1454 34.0062 31.1512 33.9775C31.169 33.8817 31.1939 33.7873 31.2257 33.6952C31.2326 33.6723 31.2418 33.6516 31.2498 33.6286C31.2716 33.569 31.2372 33.6516 31.2498 33.6355C31.267 33.6011 31.2808 33.5655 31.2992 33.5323C31.3302 33.4726 31.368 33.4175 31.4036 33.3636C31.4392 33.3097 31.3497 33.4267 31.3898 33.3808C31.399 33.3716 31.4059 33.3624 31.4151 33.3521L31.469 33.2936L31.5138 33.2534L31.5344 33.2351C31.5711 33.2006 31.4621 33.2856 31.5023 33.2603C31.5424 33.2351 31.6801 33.1697 31.531 33.2293C31.6125 33.2055 31.6818 33.1512 31.7245 33.0778C31.7672 33.0043 31.7801 32.9173 31.7605 32.8346C31.7374 32.7528 31.683 32.6834 31.6091 32.6415C31.5352 32.5996 31.4477 32.5886 31.3657 32.6108" fill="#231F20"/>
<path d="M60.6141 31.8897C60.3234 31.9909 60.0546 32.1467 59.8224 32.3487C59.2704 32.7916 58.8963 33.4239 58.668 34.086C58.4791 34.6665 58.3759 35.2714 58.3616 35.8817C58.3456 36.2948 58.987 36.2937 59.0031 35.8817C59.0375 35.028 59.2108 34.1606 59.6915 33.4411C59.8345 33.2266 60.0072 33.0334 60.2045 32.8674L60.2699 32.8123C60.2816 32.8021 60.2939 32.7925 60.3066 32.7836L60.2871 32.7985C60.3295 32.7675 60.372 32.7365 60.4167 32.7079C60.4843 32.663 60.5545 32.622 60.6267 32.5851C60.6577 32.5679 60.6898 32.5541 60.722 32.538C60.7977 32.5002 60.6462 32.5633 60.722 32.538L60.7862 32.5151C61.1809 32.4003 61.0157 31.7784 60.6152 31.8955" fill="#231F20"/>
<path d="M59.6059 33.2233C59.467 33.1683 59.5657 33.2084 59.6139 33.2394C59.6621 33.2704 59.6139 33.2394 59.5955 33.2245C59.6093 33.2383 59.6265 33.2497 59.6414 33.2635C59.6781 33.2968 59.7091 33.3335 59.7424 33.3702C59.7757 33.4069 59.7183 33.3358 59.7286 33.3519C59.736 33.3638 59.7441 33.3753 59.7527 33.3863C59.7722 33.4138 59.7894 33.4414 59.8055 33.4689C59.8216 33.4964 59.8411 33.532 59.8571 33.5641L59.8801 33.6123C59.9099 33.6766 59.8629 33.563 59.8801 33.6123C59.9134 33.7025 59.9418 33.7945 59.965 33.8877C59.9765 33.9359 59.9857 33.9841 59.9937 34.0312C59.9937 34.0438 60.0075 34.1184 60.0017 34.0794C59.996 34.0403 60.0017 34.0794 60.0017 34.0897L60.0086 34.1597C60.0352 34.4858 60.0237 34.8139 59.9742 35.1373C59.9543 35.2194 59.9664 35.3059 60.0079 35.3794C60.0494 35.4529 60.1174 35.5079 60.1979 35.5332C60.3494 35.5745 60.5674 35.4816 60.5927 35.3037C60.7212 34.4408 60.7522 33.2796 59.9639 32.699C59.9057 32.6577 59.8425 32.6241 59.7757 32.5991C59.6937 32.5769 59.6062 32.5879 59.5323 32.6298C59.4584 32.6717 59.404 32.7411 59.3809 32.8229C59.3602 32.9056 59.3725 32.9932 59.4154 33.0669C59.4583 33.1407 59.5283 33.1947 59.6104 33.2176" fill="#231F20"/>
<path d="M50.6152 31.2713C50.6152 31.7624 50.9331 32.1606 51.3267 32.1606C51.7202 32.1606 52.0381 31.7624 52.0381 31.2713C52.0381 30.7802 51.7202 30.3809 51.3267 30.3809C50.9331 30.3809 50.6152 30.7802 50.6152 31.2713Z" fill="#231F20"/>
<path d="M45.5647 48.343C43.7999 48.3362 41.956 47.8336 40.8819 46.3327C40.5173 45.8186 40.2454 45.2446 40.0787 44.6367C39.9448 44.1707 39.864 43.6911 39.8377 43.207C39.8211 42.9655 39.8211 42.7232 39.8377 42.4818L39.5164 42.8031H51.613L51.2917 42.4818C51.3386 43.148 51.2718 43.8173 51.0944 44.4612C50.7639 45.7704 50.0077 46.9374 48.7994 47.6121C47.8149 48.164 46.6743 48.3384 45.5601 48.343C45.1471 48.343 45.1459 48.9868 45.5601 48.9856C47.5108 48.9776 49.4719 48.3993 50.6939 46.7963C51.4604 45.7911 51.8333 44.5323 51.9217 43.2816C51.9446 43.0144 51.9473 42.7459 51.9297 42.4783C51.928 42.3938 51.8935 42.3132 51.8336 42.2535C51.7737 42.1938 51.693 42.1597 51.6084 42.1582H39.5164C39.4321 42.1602 39.3517 42.1946 39.2919 42.2541C39.2321 42.3137 39.1975 42.394 39.1952 42.4783C39.1514 43.2262 39.232 43.9761 39.4338 44.6975C39.8182 46.1583 40.7064 47.4515 42.0466 48.1881C43.1195 48.7756 44.353 48.9776 45.5647 48.9822C45.9778 48.9822 45.9778 48.3407 45.5647 48.3396" fill="#231F20"/>
<path d="M47.3066 35.5954C47.3961 35.9455 47.4662 36.3002 47.5166 36.658C47.5166 36.6786 47.5625 37.0573 47.5763 37.0585C47.5567 37.0585 47.5854 36.9598 47.5958 36.9655C47.6061 36.9712 47.5131 37.0424 47.5074 37.047C47.2537 37.2178 46.9761 37.3501 46.6835 37.4394C46.4885 37.5106 46.2915 37.5752 46.0926 37.6333C45.9388 37.6792 45.6933 37.7814 45.5636 37.7814C45.4339 37.7814 45.1872 37.6792 45.0346 37.6333C44.8357 37.5752 44.6387 37.5106 44.4437 37.4394C44.1511 37.3501 43.8735 37.2178 43.6198 37.047C43.6141 37.047 43.5291 36.9667 43.5314 36.9655C43.5337 36.9644 43.5705 37.0562 43.5498 37.0585C43.5636 37.0585 43.6072 36.6786 43.6106 36.658C43.6612 36.3003 43.7309 35.9456 43.8195 35.5954C43.9273 35.195 43.3077 35.0217 43.201 35.4245C43.1197 35.7422 43.055 36.0639 43.007 36.3883C42.9692 36.6178 42.8648 36.9426 42.9325 37.1766C43.0782 37.685 43.8803 37.9179 44.3094 38.0705C44.6667 38.203 45.0319 38.313 45.403 38.3998C45.7541 38.479 46.1936 38.2851 46.5286 38.1704C46.8616 38.0655 47.1871 37.9383 47.5028 37.7894C47.7323 37.6746 47.9802 37.5427 48.1213 37.3304C48.2774 37.094 48.1867 36.8129 48.1466 36.5524C48.0942 36.1731 48.021 35.7969 47.9274 35.4256C47.8207 35.0274 47.201 35.1961 47.3078 35.5966" fill="#231F20"/>
<path d="M40.5147 31.2713C40.5147 31.7624 40.1968 32.1606 39.8032 32.1606C39.4096 32.1606 39.0918 31.7624 39.0918 31.2713C39.0918 30.7802 39.4096 30.3809 39.8032 30.3809C40.1968 30.3809 40.5147 30.7802 40.5147 31.2713Z" fill="#231F20"/>
<path d="M38.2196 41.8428L34.8036 42.5086C33.5055 42.7617 32.6583 44.0192 32.9113 45.3173C33.1643 46.6155 34.4218 47.4627 35.72 47.2097L39.136 46.5438C40.4341 46.2908 41.2814 45.0333 41.0283 43.7351C40.7753 42.437 39.5178 41.5897 38.2196 41.8428Z" fill="black"/>
<path d="M37.5859 13.0267C37.5859 13.0267 44.8322 10.5091 53.5357 12.9567" stroke="black" stroke-width="0.573733" stroke-linecap="round" stroke-linejoin="round"/>
<path d="M25.8583 38.8797C25.3281 35.9479 24.9059 30.1716 27.6208 23.1216C31.5784 12.854 40.5791 11.8867 45.5602 11.8867C50.5414 11.8867 59.5467 12.854 63.4986 23.1216C66.2135 30.1716 65.7935 35.9479 65.2611 38.8797" stroke="black" stroke-width="1.7212" stroke-linecap="round" stroke-linejoin="round"/>
<path d="M90.0167 79.5399L90.0098 79.5308C88.6087 78.0735 86.6489 77.1096 84.8691 76.21C82.23 74.8732 79.5059 73.7016 76.7864 72.5381C73.803 71.2598 70.8024 70.0137 67.8362 68.6849C65.2314 67.5225 62.6244 66.3211 60.1619 64.873C59.1475 64.2763 58.1378 63.6361 57.2508 62.8581C56.6771 62.3509 56.0505 61.729 55.8337 60.9912C55.7499 60.7077 55.4045 60.6974 55.2462 60.9143C55.2381 60.9269 55.284 60.873 55.2072 60.9636C55.1303 61.0543 55.0442 61.1529 54.9582 61.2436C54.6435 61.5766 54.3023 61.8836 53.9381 62.1616C52.6384 63.1364 51.1553 63.8389 49.5777 64.227C45.6339 65.2391 40.9625 64.8007 37.5614 62.4381C37.1011 62.1216 36.6715 61.7624 36.2786 61.3652C36.1638 61.2489 36.0533 61.1288 35.9469 61.0049C35.9194 60.9728 35.893 60.9384 35.8666 60.9062C35.8551 60.8925 35.8666 60.9062 35.8724 60.9143C35.7106 60.7077 35.3744 60.7215 35.2929 60.9992C35.0404 61.8609 34.2602 62.5655 33.5717 63.1277C32.4541 64.0457 31.1919 64.7778 29.9308 65.4709C26.5113 67.3504 22.9049 68.8903 19.3213 70.4245C15.6139 72.0137 11.8766 73.5444 8.22647 75.2633C6.75772 75.9518 5.29699 76.6747 3.89938 77.4997C3.3486 77.8256 2.80585 78.1687 2.29293 78.5474C2.06344 78.7161 1.83394 78.8916 1.62051 79.0764C1.45183 79.2198 1.18103 79.4045 1.07547 79.6053C0.936622 79.8738 1.03186 80.3615 1.03186 80.6461V87.6697C1.03305 87.7546 1.06728 87.8356 1.12728 87.8956C1.18728 87.9556 1.26831 87.9898 1.35315 87.991H86.2002C87.3477 87.991 88.4951 88.0117 89.6426 87.991H89.7929C89.8777 87.9895 89.9585 87.9552 90.0185 87.8953C90.0784 87.8353 90.1127 87.7545 90.1142 87.6697V79.7579C90.1141 79.7168 90.1053 79.6762 90.0885 79.6386C90.0717 79.6011 90.0472 79.5675 90.0167 79.5399Z" fill="white" stroke="#231F20" stroke-width="0.573733" stroke-miterlimit="10"/>
</svg>
