<svg width="71" height="74" viewBox="0 0 71 74" fill="none" xmlns="http://www.w3.org/2000/svg">
<path d="M63.063 64.7018C63.6455 66.0708 63.6659 67.614 63.12 68.998C62.5741 70.382 61.5056 71.4957 60.1454 72.0985C58.7852 72.7012 57.2424 72.7447 55.8504 72.2194C54.4585 71.6942 53.329 70.6424 52.7061 69.2913L52.7337 69.2786L39.9805 40.5312" stroke="white" stroke-width="1.61521" stroke-miterlimit="10" stroke-linecap="round"/>
<path d="M0 36.0293L2.66049 40.0373C2.72003 40.127 2.76134 40.2274 2.78206 40.333C2.80277 40.4386 2.80249 40.5472 2.78122 40.6527C2.75996 40.7582 2.71813 40.8584 2.65812 40.9477C2.59811 41.037 2.52109 41.1136 2.43148 41.1732C2.34186 41.2327 2.24139 41.274 2.13581 41.2947C2.03022 41.3155 1.9216 41.3152 1.81612 41.2939C1.71065 41.2726 1.6104 41.2308 1.52109 41.1708C1.43179 41.1108 1.35518 41.0338 1.29563 40.9442C1.24402 40.867 1.20507 40.7821 1.18026 40.6927L0 36.0293Z" fill="white"/>
<path d="M6.46875 11.8887L9.12924 15.8979C9.19108 15.9874 9.23445 16.0884 9.25682 16.1949C9.27919 16.3015 9.28011 16.4114 9.25952 16.5183C9.23893 16.6251 9.19724 16.7268 9.1369 16.8174C9.07656 16.908 8.99877 16.9857 8.90808 17.0458C8.81739 17.106 8.71561 17.1475 8.6087 17.1679C8.50178 17.1883 8.39187 17.1872 8.28539 17.1647C8.17891 17.1421 8.078 17.0985 7.98854 17.0365C7.89908 16.9745 7.82288 16.8953 7.76438 16.8035C7.71257 16.7265 7.67361 16.6416 7.64901 16.552L6.46875 11.8887Z" fill="white"/>
<path d="M39.125 0L41.7855 4.00919C41.8519 4.10849 41.8957 4.2211 41.914 4.33913C41.9323 4.45717 41.9245 4.57777 41.8913 4.69249C41.858 4.8072 41.8001 4.91326 41.7215 5.00323C41.643 5.0932 41.5457 5.1649 41.4365 5.2133C41.3273 5.26171 41.2088 5.28565 41.0894 5.28345C40.97 5.28125 40.8525 5.25296 40.7452 5.20057C40.6378 5.14817 40.5433 5.07294 40.4681 4.98014C40.3929 4.88734 40.3389 4.77922 40.3099 4.66335L39.125 0Z" fill="white"/>
<path d="M61.0859 4.73828L63.7476 8.74632C63.8071 8.83594 63.8484 8.93641 63.8692 9.04199C63.8899 9.14757 63.8896 9.2562 63.8683 9.36167C63.847 9.46715 63.8052 9.5674 63.7452 9.6567C63.6852 9.74601 63.6082 9.82262 63.5186 9.88217C63.429 9.94171 63.3285 9.98302 63.2229 10.0037C63.1173 10.0244 63.0087 10.0242 62.9032 10.0029C62.7977 9.98163 62.6975 9.9398 62.6082 9.87979C62.5189 9.81978 62.4423 9.74277 62.3827 9.65315C62.3306 9.57626 62.2917 9.49127 62.2674 9.40164L61.0859 4.73828Z" fill="white"/>
<path d="M69.9133 26.9867C63.3648 12.2191 44.6121 6.21969 28.0331 13.5701C11.4541 20.9204 3.30878 38.8563 9.85732 53.6205C9.94577 53.8228 10.0369 54.0223 10.1308 54.2193C10.1308 54.2193 19.837 46.3878 28.783 51.058C28.783 51.058 36.9595 34.9163 55.5898 39.1689C55.5898 39.1689 59.3014 28.5131 69.9133 26.9867Z" fill="white" stroke="black" stroke-width="1.73059" stroke-linejoin="round"/>
<path d="M28.7805 51.0625C28.7805 51.0625 14.2078 23.3246 28.0259 13.5664Z" fill="white"/>
<path d="M28.7805 51.0625C28.7805 51.0625 14.2078 23.3246 28.0259 13.5664" stroke="black" stroke-width="1.73059" stroke-linejoin="round"/>
<path d="M55.5887 39.1682C55.5887 39.1682 44.5337 9.87401 28.0273 13.5659Z" fill="white"/>
<path d="M55.5887 39.1682C55.5887 39.1682 44.5337 9.87401 28.0273 13.5659" stroke="black" stroke-width="1.73059" stroke-linejoin="round"/>
<path d="M27.6803 14.2066C27.4192 14.2067 27.1636 14.131 26.9447 13.9886C26.7257 13.8463 26.5528 13.6435 26.447 13.4048L24.5226 9.06676C24.4462 8.90418 24.403 8.72799 24.3957 8.54852C24.3883 8.36905 24.4169 8.18992 24.4797 8.02164C24.5425 7.85335 24.6383 7.69931 24.7614 7.56855C24.8846 7.43779 25.0326 7.33295 25.1968 7.26018C25.361 7.18741 25.5381 7.14817 25.7177 7.14477C25.8973 7.14137 26.0758 7.17388 26.2426 7.24039C26.4095 7.3069 26.5614 7.40607 26.6894 7.53208C26.8174 7.65808 26.9189 7.80839 26.9881 7.97418L28.9067 12.3122C28.9978 12.5173 29.0362 12.7419 29.0184 12.9656C29.0007 13.1894 28.9273 13.4051 28.805 13.5933C28.6828 13.7815 28.5154 13.9362 28.3182 14.0433C28.121 14.1504 27.9001 14.2065 27.6757 14.2066H27.6803Z" fill="white"/>
</svg>
