<svg width="107" height="90" viewBox="0 0 107 90" fill="none" xmlns="http://www.w3.org/2000/svg">
<path d="M54.7177 1C54.7177 1 48.5685 3.04867 48.3644 10.6327H1.01377C1.01377 10.6327 0.399971 4.07381 7.36705 1H54.7177Z" fill="white" stroke="#231F20" stroke-width="0.797149" stroke-miterlimit="10"/>
<path d="M7.48047 1C9.04231 0.99979 10.5889 1.30736 12.0318 1.90515C13.4747 2.50294 14.7857 3.37921 15.8898 4.4839C16.9938 5.58858 17.8694 6.90002 18.4664 8.34325C19.0634 9.78648 19.3702 11.3332 19.3691 12.8951V71.9207C19.3691 75.0738 20.6217 78.0977 22.8513 80.3273C25.0808 82.5569 28.1047 83.8094 31.2578 83.8094H56.4716C58.0329 83.8096 59.579 83.5022 61.0215 82.9049C62.464 82.3075 63.7747 81.4318 64.8787 80.3278C65.9827 79.2237 66.8584 77.9131 67.4558 76.4706C68.0532 75.0281 68.3605 73.482 68.3603 71.9207V12.8951C68.3614 11.3332 68.0546 9.78648 67.4576 8.34325C66.8606 6.90002 65.985 5.58858 64.8809 4.4839C63.7768 3.37921 62.4659 2.50294 61.023 1.90515C59.58 1.30736 58.0335 0.99979 56.4716 1H7.48047Z" fill="white" stroke="#231F20" stroke-width="0.797149" stroke-miterlimit="10"/>
<path d="M31.8438 83.8105C31.8438 83.8105 37.993 81.7698 38.1986 74.1777H85.5493C85.5493 74.1777 86.1647 80.7367 79.196 83.8105H31.8438Z" fill="white" stroke="#231F20" stroke-width="0.797149" stroke-miterlimit="10"/>
<path d="M60.8287 16.4121H27.248V20.8761H60.8287V16.4121Z" stroke="#010101" stroke-width="0.797149" stroke-miterlimit="10"/>
<path d="M44.0679 27.2812H27.248V31.7453H44.0679V27.2812Z" stroke="#010101" stroke-width="0.797149" stroke-miterlimit="10"/>
<path d="M60.8287 37.8359H27.248V42.3H60.8287V37.8359Z" stroke="#010101" stroke-width="0.797149" stroke-miterlimit="10"/>
<path d="M54.544 48.3926H27.248V52.8566H54.544V48.3926Z" stroke="#010101" stroke-width="0.797149" stroke-miterlimit="10"/>
<path d="M106.193 53.4277H60.9648V88.9997H106.193V53.4277Z" fill="white" stroke="#AEAEAE" stroke-width="0.800857" stroke-linecap="round" stroke-linejoin="round"/>
<path d="M64.5859 53.9141V37.4466C64.5849 35.2549 65.0157 33.0846 65.8537 31.0595C66.6917 29.0345 67.9205 27.1944 69.4699 25.6444C71.0193 24.0944 72.859 22.8649 74.8837 22.0261C76.9085 21.1873 79.0786 20.7556 81.2703 20.7559H85.8937C88.0849 20.7563 90.2546 21.1884 92.2788 22.0274C94.303 22.8665 96.1421 24.0961 97.691 25.6461C99.2399 27.196 100.468 29.0359 101.306 31.0606C102.144 33.0854 102.574 35.2554 102.573 37.4466V53.9141" stroke="#AEAEAE" stroke-width="0.800857" stroke-linejoin="round"/>
<path d="M87.7464 68.9166C87.7472 68.1505 87.5459 67.3978 87.1628 66.7343C86.7797 66.0709 86.2285 65.5202 85.5646 65.1379C84.9008 64.7556 84.1478 64.5551 83.3818 64.5566C82.6157 64.5582 81.8636 64.7618 81.2013 65.1469C80.5391 65.532 79.9901 66.085 79.6098 66.75C79.2295 67.415 79.0313 68.1685 79.0352 68.9346C79.0391 69.7007 79.245 70.4522 79.6322 71.1132C80.0193 71.7743 80.5739 72.3216 81.2401 72.6999V77.8622H85.6579V72.6297C86.2954 72.2421 86.8225 71.6969 87.1883 71.0466C87.5541 70.3963 87.7463 69.6627 87.7464 68.9166Z" stroke="black" stroke-width="0.800857" stroke-linecap="round" stroke-linejoin="round"/>
</svg>
