<svg width="444" height="166" viewBox="0 0 444 166" fill="none" xmlns="http://www.w3.org/2000/svg">
<g filter="url(#filter0_dd_10946_16394)">
<rect x="85" y="67" width="281" height="238" rx="23" fill="white" stroke="#4D4D4D" stroke-width="2"/>
<path d="M108.538 108L104.376 93.4545H107.736L110.143 103.561H110.264L112.92 93.4545H115.797L118.446 103.582H118.574L120.982 93.4545H124.341L120.179 108H117.182L114.412 98.4901H114.298L111.536 108H108.538ZM127.469 108.206C126.773 108.206 126.153 108.085 125.608 107.844C125.064 107.598 124.633 107.235 124.316 106.757C124.003 106.274 123.847 105.673 123.847 104.953C123.847 104.347 123.958 103.838 124.181 103.426C124.403 103.014 124.706 102.683 125.09 102.432C125.473 102.181 125.909 101.991 126.397 101.864C126.889 101.736 127.405 101.646 127.945 101.594C128.579 101.527 129.091 101.466 129.479 101.409C129.867 101.348 130.149 101.258 130.324 101.139C130.499 101.021 130.587 100.846 130.587 100.614V100.571C130.587 100.121 130.445 99.7732 130.161 99.527C129.881 99.2808 129.484 99.1577 128.968 99.1577C128.423 99.1577 127.99 99.2784 127.668 99.5199C127.346 99.7566 127.133 100.055 127.029 100.415L124.23 100.188C124.372 99.5246 124.652 98.9517 125.068 98.4688C125.485 97.9811 126.022 97.607 126.681 97.3466C127.343 97.0814 128.111 96.9489 128.982 96.9489C129.588 96.9489 130.168 97.0199 130.722 97.1619C131.281 97.304 131.775 97.5241 132.206 97.8224C132.642 98.1207 132.985 98.5043 133.236 98.973C133.487 99.437 133.612 99.9934 133.612 100.642V108H130.743V106.487H130.658C130.483 106.828 130.248 107.129 129.955 107.389C129.661 107.645 129.308 107.846 128.897 107.993C128.485 108.135 128.009 108.206 127.469 108.206ZM128.335 106.118C128.781 106.118 129.174 106.03 129.514 105.855C129.855 105.675 130.123 105.434 130.317 105.131C130.511 104.828 130.608 104.484 130.608 104.101V102.943C130.513 103.005 130.383 103.062 130.218 103.114C130.057 103.161 129.874 103.206 129.671 103.249C129.467 103.286 129.263 103.322 129.06 103.355C128.856 103.384 128.672 103.41 128.506 103.433C128.151 103.485 127.841 103.568 127.575 103.682C127.31 103.795 127.104 103.949 126.958 104.143C126.811 104.333 126.737 104.57 126.737 104.854C126.737 105.266 126.887 105.58 127.185 105.798C127.488 106.011 127.871 106.118 128.335 106.118ZM135.56 108V97.0909H138.585V108H135.56ZM137.08 95.6847C136.63 95.6847 136.244 95.5355 135.922 95.2372C135.605 94.9342 135.446 94.572 135.446 94.1506C135.446 93.7339 135.605 93.3764 135.922 93.0781C136.244 92.7751 136.63 92.6236 137.08 92.6236C137.529 92.6236 137.913 92.7751 138.23 93.0781C138.552 93.3764 138.713 93.7339 138.713 94.1506C138.713 94.572 138.552 94.9342 138.23 95.2372C137.913 95.5355 137.529 95.6847 137.08 95.6847ZM146.412 97.0909V99.3636H139.842V97.0909H146.412ZM141.333 94.4773H144.359V104.648C144.359 104.927 144.402 105.145 144.487 105.301C144.572 105.453 144.69 105.559 144.842 105.621C144.998 105.682 145.178 105.713 145.382 105.713C145.524 105.713 145.666 105.701 145.808 105.678C145.95 105.649 146.059 105.628 146.135 105.614L146.61 107.865C146.459 107.912 146.246 107.967 145.971 108.028C145.697 108.095 145.363 108.135 144.97 108.149C144.241 108.178 143.601 108.08 143.052 107.858C142.508 107.635 142.084 107.29 141.781 106.821C141.478 106.352 141.329 105.76 141.333 105.045V94.4773ZM152.837 108.213C151.715 108.213 150.749 107.986 149.939 107.531C149.134 107.072 148.514 106.423 148.078 105.585C147.643 104.742 147.425 103.746 147.425 102.595C147.425 101.473 147.643 100.488 148.078 99.6406C148.514 98.7931 149.127 98.1326 149.918 97.6591C150.713 97.1856 151.646 96.9489 152.716 96.9489C153.436 96.9489 154.106 97.0649 154.726 97.2969C155.351 97.5241 155.896 97.8674 156.36 98.3267C156.828 98.786 157.193 99.3636 157.453 100.06C157.714 100.751 157.844 101.561 157.844 102.489V103.32H148.632V101.445H154.996C154.996 101.009 154.901 100.623 154.712 100.287C154.522 99.9508 154.26 99.688 153.923 99.4986C153.592 99.3045 153.206 99.2074 152.766 99.2074C152.306 99.2074 151.899 99.3139 151.544 99.527C151.194 99.7353 150.919 100.017 150.72 100.372C150.521 100.723 150.42 101.113 150.415 101.544V103.327C150.415 103.866 150.514 104.333 150.713 104.726C150.917 105.119 151.203 105.422 151.573 105.635C151.942 105.848 152.38 105.955 152.887 105.955C153.223 105.955 153.53 105.907 153.81 105.812C154.089 105.718 154.328 105.576 154.527 105.386C154.726 105.197 154.878 104.965 154.982 104.69L157.78 104.875C157.638 105.547 157.347 106.134 156.906 106.636C156.471 107.134 155.907 107.522 155.216 107.801C154.529 108.076 153.736 108.213 152.837 108.213ZM159.418 108V97.0909H162.352V98.9943H162.465C162.664 98.3172 162.998 97.8059 163.467 97.4602C163.935 97.1098 164.475 96.9347 165.086 96.9347C165.237 96.9347 165.401 96.9441 165.576 96.9631C165.751 96.982 165.905 97.008 166.038 97.0412V99.7259C165.896 99.6832 165.699 99.6454 165.448 99.6122C165.197 99.5791 164.968 99.5625 164.759 99.5625C164.314 99.5625 163.916 99.6596 163.566 99.8537C163.22 100.043 162.946 100.308 162.742 100.649C162.543 100.99 162.444 101.383 162.444 101.828V108H159.418ZM176.279 100.202L173.509 100.372C173.461 100.135 173.36 99.9223 173.203 99.733C173.047 99.5388 172.841 99.3849 172.585 99.2713C172.334 99.1529 172.034 99.0938 171.683 99.0938C171.215 99.0938 170.819 99.1932 170.497 99.392C170.175 99.5862 170.014 99.8466 170.014 100.173C170.014 100.434 170.119 100.654 170.327 100.834C170.535 101.014 170.893 101.158 171.399 101.267L173.374 101.665C174.434 101.883 175.225 102.233 175.746 102.716C176.267 103.199 176.527 103.833 176.527 104.619C176.527 105.334 176.317 105.962 175.895 106.501C175.478 107.041 174.906 107.463 174.176 107.766C173.452 108.064 172.616 108.213 171.669 108.213C170.225 108.213 169.075 107.912 168.218 107.311C167.365 106.705 166.866 105.881 166.719 104.839L169.695 104.683C169.785 105.124 170.003 105.46 170.348 105.692C170.694 105.919 171.137 106.033 171.676 106.033C172.207 106.033 172.633 105.931 172.955 105.727C173.281 105.519 173.447 105.251 173.452 104.925C173.447 104.65 173.331 104.425 173.104 104.25C172.877 104.07 172.526 103.933 172.053 103.838L170.164 103.462C169.098 103.249 168.305 102.879 167.784 102.354C167.268 101.828 167.01 101.158 167.01 100.344C167.01 99.643 167.2 99.0393 167.578 98.5327C167.962 98.026 168.499 97.6354 169.191 97.3608C169.887 97.0862 170.701 96.9489 171.634 96.9489C173.012 96.9489 174.096 97.2401 174.887 97.8224C175.682 98.4048 176.146 99.1979 176.279 100.202ZM182.318 108V93.4545H185.393V105.464H191.629V108H182.318ZM193.209 108V97.0909H196.235V108H193.209ZM194.729 95.6847C194.279 95.6847 193.893 95.5355 193.571 95.2372C193.254 94.9342 193.095 94.572 193.095 94.1506C193.095 93.7339 193.254 93.3764 193.571 93.0781C193.893 92.7751 194.279 92.6236 194.729 92.6236C195.179 92.6236 195.562 92.7751 195.879 93.0781C196.201 93.3764 196.362 93.7339 196.362 94.1506C196.362 94.572 196.201 94.9342 195.879 95.2372C195.562 95.5355 195.179 95.6847 194.729 95.6847ZM207.335 100.202L204.565 100.372C204.518 100.135 204.416 99.9223 204.26 99.733C204.103 99.5388 203.897 99.3849 203.642 99.2713C203.391 99.1529 203.09 99.0938 202.74 99.0938C202.271 99.0938 201.876 99.1932 201.554 99.392C201.232 99.5862 201.071 99.8466 201.071 100.173C201.071 100.434 201.175 100.654 201.383 100.834C201.592 101.014 201.949 101.158 202.456 101.267L204.43 101.665C205.491 101.883 206.281 102.233 206.802 102.716C207.323 103.199 207.583 103.833 207.583 104.619C207.583 105.334 207.373 105.962 206.951 106.501C206.535 107.041 205.962 107.463 205.233 107.766C204.508 108.064 203.672 108.213 202.725 108.213C201.281 108.213 200.131 107.912 199.274 107.311C198.422 106.705 197.922 105.881 197.775 104.839L200.751 104.683C200.841 105.124 201.059 105.46 201.404 105.692C201.75 105.919 202.193 106.033 202.733 106.033C203.263 106.033 203.689 105.931 204.011 105.727C204.338 105.519 204.503 105.251 204.508 104.925C204.503 104.65 204.387 104.425 204.16 104.25C203.933 104.07 203.583 103.933 203.109 103.838L201.22 103.462C200.154 103.249 199.361 102.879 198.841 102.354C198.324 101.828 198.066 101.158 198.066 100.344C198.066 99.643 198.256 99.0393 198.635 98.5327C199.018 98.026 199.556 97.6354 200.247 97.3608C200.943 97.0862 201.757 96.9489 202.69 96.9489C204.068 96.9489 205.152 97.2401 205.943 97.8224C206.738 98.4048 207.202 99.1979 207.335 100.202ZM214.891 97.0909V99.3636H208.322V97.0909H214.891ZM209.813 94.4773H212.839V104.648C212.839 104.927 212.881 105.145 212.966 105.301C213.052 105.453 213.17 105.559 213.322 105.621C213.478 105.682 213.658 105.713 213.861 105.713C214.003 105.713 214.145 105.701 214.287 105.678C214.43 105.649 214.538 105.628 214.614 105.614L215.09 107.865C214.939 107.912 214.725 107.967 214.451 108.028C214.176 108.095 213.842 108.135 213.449 108.149C212.72 108.178 212.081 108.08 211.532 107.858C210.987 107.635 210.564 107.29 210.261 106.821C209.957 106.352 209.808 105.76 209.813 105.045V94.4773Z" fill="#555555"/>
<path d="M221.875 100.727C221.875 98.9659 222.109 97.3442 222.578 95.8622C223.052 94.3802 223.774 93.0071 224.744 91.7429H227.635C227.266 92.2116 226.922 92.7846 226.605 93.4616C226.288 94.134 226.011 94.8726 225.774 95.6776C225.537 96.4825 225.353 97.3158 225.22 98.1776C225.088 99.0346 225.021 99.8845 225.021 100.727C225.021 101.849 225.135 102.983 225.362 104.129C225.594 105.27 225.907 106.331 226.3 107.311C226.697 108.291 227.143 109.094 227.635 109.719H224.744C223.774 108.455 223.052 107.081 222.578 105.599C222.109 104.117 221.875 102.493 221.875 100.727ZM228.494 95.9901V93.4545H240.44V95.9901H235.987V108H232.947V95.9901H228.494ZM245.34 108.213C244.218 108.213 243.252 107.986 242.442 107.531C241.637 107.072 241.017 106.423 240.581 105.585C240.146 104.742 239.928 103.746 239.928 102.595C239.928 101.473 240.146 100.488 240.581 99.6406C241.017 98.7931 241.63 98.1326 242.421 97.6591C243.216 97.1856 244.149 96.9489 245.219 96.9489C245.939 96.9489 246.609 97.0649 247.229 97.2969C247.854 97.5241 248.399 97.8674 248.863 98.3267C249.331 98.786 249.696 99.3636 249.956 100.06C250.217 100.751 250.347 101.561 250.347 102.489V103.32H241.135V101.445H247.499C247.499 101.009 247.404 100.623 247.215 100.287C247.026 99.9508 246.763 99.688 246.427 99.4986C246.095 99.3045 245.709 99.2074 245.269 99.2074C244.81 99.2074 244.402 99.3139 244.047 99.527C243.697 99.7353 243.422 100.017 243.223 100.372C243.025 100.723 242.923 101.113 242.918 101.544V103.327C242.918 103.866 243.017 104.333 243.216 104.726C243.42 105.119 243.706 105.422 244.076 105.635C244.445 105.848 244.883 105.955 245.39 105.955C245.726 105.955 246.034 105.907 246.313 105.812C246.592 105.718 246.831 105.576 247.03 105.386C247.229 105.197 247.381 104.965 247.485 104.69L250.283 104.875C250.141 105.547 249.85 106.134 249.41 106.636C248.974 107.134 248.41 107.522 247.719 107.801C247.033 108.076 246.24 108.213 245.34 108.213ZM251.921 108V97.0909H254.855V98.9943H254.968C255.167 98.3172 255.501 97.8059 255.97 97.4602C256.438 97.1098 256.978 96.9347 257.589 96.9347C257.741 96.9347 257.904 96.9441 258.079 96.9631C258.254 96.982 258.408 97.008 258.541 97.0412V99.7259C258.399 99.6832 258.202 99.6454 257.951 99.6122C257.7 99.5791 257.471 99.5625 257.262 99.5625C256.817 99.5625 256.42 99.6596 256.069 99.8537C255.724 100.043 255.449 100.308 255.245 100.649C255.046 100.99 254.947 101.383 254.947 101.828V108H251.921ZM259.705 108V97.0909H262.589V99.0156H262.716C262.944 98.3764 263.322 97.8722 263.853 97.5028C264.383 97.1335 265.018 96.9489 265.756 96.9489C266.504 96.9489 267.141 97.1359 267.667 97.5099C268.192 97.8793 268.543 98.3812 268.718 99.0156H268.831C269.054 98.3906 269.456 97.8911 270.039 97.517C270.626 97.1383 271.32 96.9489 272.12 96.9489C273.138 96.9489 273.964 97.2732 274.599 97.9219C275.238 98.5658 275.557 99.4796 275.557 100.663V108H272.539V101.26C272.539 100.654 272.378 100.199 272.056 99.8963C271.734 99.5933 271.331 99.4418 270.849 99.4418C270.299 99.4418 269.871 99.617 269.563 99.9673C269.255 100.313 269.101 100.77 269.101 101.338V108H266.168V101.196C266.168 100.661 266.014 100.235 265.706 99.9176C265.403 99.6004 265.003 99.4418 264.506 99.4418C264.17 99.4418 263.867 99.527 263.597 99.6974C263.332 99.8632 263.121 100.098 262.965 100.401C262.809 100.699 262.731 101.049 262.731 101.452V108H259.705ZM277.547 108V97.0909H280.573V108H277.547ZM279.067 95.6847C278.617 95.6847 278.231 95.5355 277.909 95.2372C277.592 94.9342 277.434 94.572 277.434 94.1506C277.434 93.7339 277.592 93.3764 277.909 93.0781C278.231 92.7751 278.617 92.6236 279.067 92.6236C279.517 92.6236 279.9 92.7751 280.218 93.0781C280.54 93.3764 280.701 93.7339 280.701 94.1506C280.701 94.572 280.54 94.9342 280.218 95.2372C279.9 95.5355 279.517 95.6847 279.067 95.6847ZM285.622 101.693V108H282.596V97.0909H285.48V99.0156H285.608C285.849 98.3812 286.254 97.8793 286.822 97.5099C287.39 97.1359 288.079 96.9489 288.889 96.9489C289.647 96.9489 290.307 97.1146 290.871 97.446C291.434 97.7775 291.872 98.2509 292.185 98.8665C292.497 99.4773 292.653 100.206 292.653 101.054V108H289.628V101.594C289.632 100.926 289.462 100.405 289.116 100.031C288.771 99.6525 288.295 99.4631 287.689 99.4631C287.282 99.4631 286.922 99.5507 286.609 99.7259C286.301 99.901 286.06 100.157 285.885 100.493C285.714 100.824 285.627 101.224 285.622 101.693ZM297.749 108.206C297.053 108.206 296.432 108.085 295.888 107.844C295.343 107.598 294.912 107.235 294.595 106.757C294.283 106.274 294.126 105.673 294.126 104.953C294.126 104.347 294.238 103.838 294.46 103.426C294.683 103.014 294.986 102.683 295.369 102.432C295.753 102.181 296.189 101.991 296.676 101.864C297.169 101.736 297.685 101.646 298.225 101.594C298.859 101.527 299.37 101.466 299.759 101.409C300.147 101.348 300.429 101.258 300.604 101.139C300.779 101.021 300.867 100.846 300.867 100.614V100.571C300.867 100.121 300.725 99.7732 300.44 99.527C300.161 99.2808 299.763 99.1577 299.247 99.1577C298.703 99.1577 298.269 99.2784 297.948 99.5199C297.626 99.7566 297.412 100.055 297.308 100.415L294.51 100.188C294.652 99.5246 294.931 98.9517 295.348 98.4688C295.765 97.9811 296.302 97.607 296.96 97.3466C297.623 97.0814 298.39 96.9489 299.261 96.9489C299.867 96.9489 300.448 97.0199 301.001 97.1619C301.56 97.304 302.055 97.5241 302.486 97.8224C302.921 98.1207 303.265 98.5043 303.516 98.973C303.767 99.437 303.892 99.9934 303.892 100.642V108H301.023V106.487H300.938C300.762 106.828 300.528 107.129 300.234 107.389C299.941 107.645 299.588 107.846 299.176 107.993C298.764 108.135 298.288 108.206 297.749 108.206ZM298.615 106.118C299.06 106.118 299.453 106.03 299.794 105.855C300.135 105.675 300.403 105.434 300.597 105.131C300.791 104.828 300.888 104.484 300.888 104.101V102.943C300.793 103.005 300.663 103.062 300.497 103.114C300.336 103.161 300.154 103.206 299.95 103.249C299.747 103.286 299.543 103.322 299.34 103.355C299.136 103.384 298.951 103.41 298.786 103.433C298.43 103.485 298.12 103.568 297.855 103.682C297.59 103.795 297.384 103.949 297.237 104.143C297.091 104.333 297.017 104.57 297.017 104.854C297.017 105.266 297.166 105.58 297.465 105.798C297.768 106.011 298.151 106.118 298.615 106.118ZM308.865 93.4545V108H305.839V93.4545H308.865ZM319.965 100.202L317.195 100.372C317.148 100.135 317.046 99.9223 316.89 99.733C316.734 99.5388 316.528 99.3849 316.272 99.2713C316.021 99.1529 315.721 99.0938 315.37 99.0938C314.901 99.0938 314.506 99.1932 314.184 99.392C313.862 99.5862 313.701 99.8466 313.701 100.173C313.701 100.434 313.805 100.654 314.014 100.834C314.222 101.014 314.579 101.158 315.086 101.267L317.061 101.665C318.121 101.883 318.912 102.233 319.433 102.716C319.954 103.199 320.214 103.833 320.214 104.619C320.214 105.334 320.003 105.962 319.582 106.501C319.165 107.041 318.592 107.463 317.863 107.766C317.139 108.064 316.303 108.213 315.356 108.213C313.912 108.213 312.761 107.912 311.904 107.311C311.052 106.705 310.552 105.881 310.406 104.839L313.382 104.683C313.471 105.124 313.689 105.46 314.035 105.692C314.381 105.919 314.823 106.033 315.363 106.033C315.893 106.033 316.32 105.931 316.641 105.727C316.968 105.519 317.134 105.251 317.139 104.925C317.134 104.65 317.018 104.425 316.791 104.25C316.563 104.07 316.213 103.933 315.739 103.838L313.85 103.462C312.785 103.249 311.992 102.879 311.471 102.354C310.955 101.828 310.697 101.158 310.697 100.344C310.697 99.643 310.886 99.0393 311.265 98.5327C311.649 98.026 312.186 97.6354 312.877 97.3608C313.573 97.0862 314.388 96.9489 315.32 96.9489C316.698 96.9489 317.783 97.2401 318.573 97.8224C319.369 98.4048 319.833 99.1979 319.965 100.202ZM326.819 102.169C326.819 103.935 326.582 105.559 326.108 107.041C325.64 108.523 324.92 109.896 323.949 111.161H321.059C321.428 110.692 321.771 110.119 322.088 109.442C322.406 108.765 322.683 108.026 322.919 107.226C323.156 106.421 323.341 105.588 323.473 104.726C323.606 103.864 323.672 103.012 323.672 102.169C323.672 101.047 323.556 99.9152 323.324 98.7741C323.097 97.6283 322.784 96.5677 322.387 95.5923C321.994 94.6122 321.551 93.8097 321.059 93.1847H323.949C324.92 94.4489 325.64 95.822 326.108 97.304C326.582 98.786 326.819 100.408 326.819 102.169Z" fill="#C6C6C6"/>
<path d="M104.307 128.273H105.517L107.938 132.347H108.04L110.46 128.273H111.67L108.517 133.403V137H107.46V133.403L104.307 128.273ZM114.634 137.136C114.043 137.136 113.525 136.996 113.079 136.714C112.636 136.433 112.289 136.04 112.039 135.534C111.792 135.028 111.668 134.437 111.668 133.761C111.668 133.08 111.792 132.484 112.039 131.976C112.289 131.467 112.636 131.072 113.079 130.791C113.525 130.51 114.043 130.369 114.634 130.369C115.225 130.369 115.742 130.51 116.185 130.791C116.631 131.072 116.978 131.467 117.225 131.976C117.475 132.484 117.6 133.08 117.6 133.761C117.6 134.437 117.475 135.028 117.225 135.534C116.978 136.04 116.631 136.433 116.185 136.714C115.742 136.996 115.225 137.136 114.634 137.136ZM114.634 136.233C115.083 136.233 115.452 136.118 115.742 135.888C116.032 135.658 116.246 135.355 116.386 134.98C116.525 134.605 116.594 134.199 116.594 133.761C116.594 133.324 116.525 132.916 116.386 132.538C116.246 132.161 116.032 131.855 115.742 131.622C115.452 131.389 115.083 131.273 114.634 131.273C114.185 131.273 113.816 131.389 113.526 131.622C113.237 131.855 113.022 132.161 112.883 132.538C112.744 132.916 112.674 133.324 112.674 133.761C112.674 134.199 112.744 134.605 112.883 134.98C113.022 135.355 113.237 135.658 113.526 135.888C113.816 136.118 114.185 136.233 114.634 136.233ZM123.26 134.324V130.455H124.266V137H123.26V135.892H123.192C123.039 136.224 122.8 136.507 122.476 136.74C122.152 136.97 121.743 137.085 121.249 137.085C120.84 137.085 120.476 136.996 120.158 136.817C119.84 136.635 119.59 136.362 119.408 135.999C119.226 135.632 119.135 135.17 119.135 134.614V130.455H120.141V134.545C120.141 135.023 120.275 135.403 120.542 135.688C120.811 135.972 121.155 136.114 121.573 136.114C121.823 136.114 122.077 136.05 122.336 135.922C122.597 135.794 122.816 135.598 122.992 135.334C123.171 135.07 123.26 134.733 123.26 134.324ZM131.409 137.153C130.994 137.153 130.618 137.075 130.28 136.919C129.942 136.76 129.673 136.531 129.474 136.233C129.276 135.932 129.176 135.568 129.176 135.142C129.176 134.767 129.25 134.463 129.398 134.23C129.545 133.994 129.743 133.81 129.99 133.676C130.237 133.543 130.51 133.443 130.808 133.378C131.109 133.31 131.412 133.256 131.716 133.216C132.114 133.165 132.436 133.126 132.683 133.101C132.933 133.072 133.115 133.026 133.229 132.96C133.345 132.895 133.403 132.781 133.403 132.619V132.585C133.403 132.165 133.288 131.838 133.058 131.605C132.831 131.372 132.486 131.256 132.023 131.256C131.543 131.256 131.166 131.361 130.893 131.571C130.621 131.781 130.429 132.006 130.318 132.244L129.364 131.903C129.534 131.506 129.761 131.196 130.045 130.974C130.332 130.75 130.645 130.594 130.983 130.506C131.324 130.415 131.659 130.369 131.989 130.369C132.199 130.369 132.44 130.395 132.713 130.446C132.989 130.494 133.254 130.595 133.51 130.749C133.768 130.902 133.983 131.134 134.153 131.443C134.324 131.753 134.409 132.168 134.409 132.688V137H133.403V136.114H133.352C133.284 136.256 133.17 136.408 133.011 136.57C132.852 136.732 132.641 136.869 132.376 136.983C132.112 137.097 131.79 137.153 131.409 137.153ZM131.562 136.25C131.96 136.25 132.295 136.172 132.568 136.016C132.844 135.859 133.051 135.658 133.19 135.411C133.332 135.163 133.403 134.903 133.403 134.631V133.71C133.361 133.761 133.267 133.808 133.122 133.851C132.98 133.891 132.815 133.926 132.628 133.957C132.443 133.986 132.263 134.011 132.087 134.034C131.913 134.054 131.773 134.071 131.665 134.085C131.403 134.119 131.159 134.175 130.932 134.251C130.707 134.325 130.526 134.437 130.386 134.588C130.25 134.736 130.182 134.937 130.182 135.193C130.182 135.543 130.311 135.807 130.57 135.986C130.831 136.162 131.162 136.25 131.562 136.25ZM137.25 133.062V137H136.245V130.455H137.216V131.477H137.301C137.455 131.145 137.688 130.878 138 130.676C138.313 130.472 138.716 130.369 139.211 130.369C139.654 130.369 140.042 130.46 140.374 130.642C140.706 130.821 140.965 131.094 141.15 131.46C141.334 131.824 141.426 132.284 141.426 132.841V137H140.421V132.909C140.421 132.395 140.287 131.994 140.02 131.707C139.753 131.418 139.387 131.273 138.921 131.273C138.6 131.273 138.313 131.342 138.06 131.482C137.81 131.621 137.613 131.824 137.468 132.091C137.323 132.358 137.25 132.682 137.25 133.062ZM145.736 137.136C145.19 137.136 144.709 136.999 144.291 136.723C143.874 136.445 143.547 136.053 143.311 135.547C143.075 135.038 142.957 134.438 142.957 133.744C142.957 133.057 143.075 132.46 143.311 131.955C143.547 131.449 143.875 131.058 144.295 130.783C144.716 130.507 145.202 130.369 145.753 130.369C146.179 130.369 146.516 130.44 146.763 130.582C147.013 130.722 147.203 130.881 147.334 131.06C147.467 131.236 147.571 131.381 147.645 131.494H147.73V128.273H148.736V137H147.764V135.994H147.645C147.571 136.114 147.466 136.264 147.33 136.446C147.193 136.625 146.999 136.786 146.746 136.928C146.493 137.067 146.156 137.136 145.736 137.136ZM145.872 136.233C146.276 136.233 146.616 136.128 146.895 135.918C147.173 135.705 147.385 135.411 147.53 135.036C147.675 134.658 147.747 134.222 147.747 133.727C147.747 133.239 147.676 132.811 147.534 132.445C147.392 132.075 147.182 131.788 146.903 131.584C146.625 131.376 146.281 131.273 145.872 131.273C145.446 131.273 145.091 131.382 144.807 131.601C144.526 131.817 144.314 132.111 144.172 132.483C144.033 132.852 143.963 133.267 143.963 133.727C143.963 134.193 144.034 134.616 144.176 134.997C144.321 135.375 144.534 135.676 144.815 135.901C145.099 136.122 145.452 136.233 145.872 136.233ZM211.43 133.062V137H210.424V128.273H211.43V131.477H211.515C211.669 131.139 211.899 130.871 212.206 130.672C212.515 130.47 212.927 130.369 213.441 130.369C213.887 130.369 214.278 130.459 214.613 130.638C214.949 130.814 215.208 131.085 215.393 131.452C215.581 131.815 215.674 132.278 215.674 132.841V137H214.669V132.909C214.669 132.389 214.534 131.987 214.264 131.703C213.997 131.416 213.626 131.273 213.152 131.273C212.822 131.273 212.527 131.342 212.265 131.482C212.007 131.621 211.802 131.824 211.652 132.091C211.504 132.358 211.43 132.682 211.43 133.062ZM219.44 137.153C219.026 137.153 218.649 137.075 218.311 136.919C217.973 136.76 217.705 136.531 217.506 136.233C217.307 135.932 217.207 135.568 217.207 135.142C217.207 134.767 217.281 134.463 217.429 134.23C217.577 133.994 217.774 133.81 218.021 133.676C218.268 133.543 218.541 133.443 218.839 133.378C219.141 133.31 219.443 133.256 219.747 133.216C220.145 133.165 220.467 133.126 220.714 133.101C220.964 133.072 221.146 133.026 221.26 132.96C221.376 132.895 221.435 132.781 221.435 132.619V132.585C221.435 132.165 221.32 131.838 221.089 131.605C220.862 131.372 220.517 131.256 220.054 131.256C219.574 131.256 219.197 131.361 218.925 131.571C218.652 131.781 218.46 132.006 218.349 132.244L217.395 131.903C217.565 131.506 217.793 131.196 218.077 130.974C218.364 130.75 218.676 130.594 219.014 130.506C219.355 130.415 219.69 130.369 220.02 130.369C220.23 130.369 220.472 130.395 220.744 130.446C221.02 130.494 221.286 130.595 221.541 130.749C221.8 130.902 222.014 131.134 222.185 131.443C222.355 131.753 222.44 132.168 222.44 132.688V137H221.435V136.114H221.384C221.315 136.256 221.202 136.408 221.043 136.57C220.884 136.732 220.672 136.869 220.408 136.983C220.143 137.097 219.821 137.153 219.44 137.153ZM219.594 136.25C219.991 136.25 220.327 136.172 220.599 136.016C220.875 135.859 221.082 135.658 221.222 135.411C221.364 135.163 221.435 134.903 221.435 134.631V133.71C221.392 133.761 221.298 133.808 221.153 133.851C221.011 133.891 220.847 133.926 220.659 133.957C220.474 133.986 220.294 134.011 220.118 134.034C219.945 134.054 219.804 134.071 219.696 134.085C219.435 134.119 219.19 134.175 218.963 134.251C218.739 134.325 218.557 134.437 218.418 134.588C218.281 134.736 218.213 134.937 218.213 135.193C218.213 135.543 218.342 135.807 218.601 135.986C218.862 136.162 219.193 136.25 219.594 136.25ZM229.394 130.455L226.973 137H225.951L223.53 130.455H224.621L226.428 135.67H226.496L228.303 130.455H229.394ZM233.231 137.136C232.6 137.136 232.056 136.997 231.599 136.719C231.145 136.438 230.794 136.045 230.547 135.543C230.302 135.037 230.18 134.449 230.18 133.778C230.18 133.108 230.302 132.517 230.547 132.006C230.794 131.491 231.137 131.091 231.578 130.804C232.021 130.514 232.538 130.369 233.129 130.369C233.47 130.369 233.806 130.426 234.139 130.54C234.471 130.653 234.774 130.838 235.047 131.094C235.319 131.347 235.537 131.682 235.699 132.099C235.86 132.517 235.941 133.031 235.941 133.642V134.068H230.896V133.199H234.919C234.919 132.83 234.845 132.5 234.697 132.21C234.552 131.92 234.345 131.692 234.075 131.524C233.808 131.357 233.493 131.273 233.129 131.273C232.728 131.273 232.382 131.372 232.089 131.571C231.799 131.767 231.576 132.023 231.42 132.338C231.264 132.653 231.186 132.991 231.186 133.352V133.932C231.186 134.426 231.271 134.845 231.441 135.189C231.615 135.53 231.855 135.79 232.162 135.969C232.468 136.145 232.825 136.233 233.231 136.233C233.495 136.233 233.734 136.196 233.947 136.122C234.163 136.045 234.349 135.932 234.505 135.781C234.662 135.628 234.782 135.437 234.868 135.21L235.839 135.483C235.737 135.812 235.565 136.102 235.324 136.352C235.082 136.599 234.784 136.793 234.429 136.932C234.074 137.068 233.674 137.136 233.231 137.136ZM243.693 130.455V131.307H240.301V130.455H243.693ZM241.289 128.886H242.295V135.125C242.295 135.409 242.336 135.622 242.419 135.764C242.504 135.903 242.612 135.997 242.743 136.045C242.876 136.091 243.017 136.114 243.164 136.114C243.275 136.114 243.366 136.108 243.437 136.097C243.508 136.082 243.565 136.071 243.608 136.062L243.812 136.966C243.744 136.991 243.649 137.017 243.527 137.043C243.404 137.071 243.25 137.085 243.062 137.085C242.778 137.085 242.5 137.024 242.227 136.902C241.957 136.78 241.733 136.594 241.554 136.344C241.377 136.094 241.289 135.778 241.289 135.398V128.886ZM247.88 137.136C247.249 137.136 246.705 136.997 246.248 136.719C245.793 136.438 245.442 136.045 245.195 135.543C244.951 135.037 244.828 134.449 244.828 133.778C244.828 133.108 244.951 132.517 245.195 132.006C245.442 131.491 245.786 131.091 246.226 130.804C246.669 130.514 247.186 130.369 247.777 130.369C248.118 130.369 248.455 130.426 248.787 130.54C249.12 130.653 249.422 130.838 249.695 131.094C249.968 131.347 250.185 131.682 250.347 132.099C250.509 132.517 250.59 133.031 250.59 133.642V134.068H245.544V133.199H249.567C249.567 132.83 249.493 132.5 249.346 132.21C249.201 131.92 248.993 131.692 248.723 131.524C248.456 131.357 248.141 131.273 247.777 131.273C247.377 131.273 247.03 131.372 246.738 131.571C246.448 131.767 246.225 132.023 246.069 132.338C245.912 132.653 245.834 132.991 245.834 133.352V133.932C245.834 134.426 245.919 134.845 246.09 135.189C246.263 135.53 246.503 135.79 246.81 135.969C247.117 136.145 247.473 136.233 247.88 136.233C248.144 136.233 248.382 136.196 248.596 136.122C248.811 136.045 248.998 135.932 249.154 135.781C249.31 135.628 249.431 135.437 249.516 135.21L250.488 135.483C250.385 135.812 250.213 136.102 249.972 136.352C249.73 136.599 249.432 136.793 249.077 136.932C248.722 137.068 248.323 137.136 247.88 137.136ZM252.12 137V130.455H253.091V131.443H253.159C253.279 131.119 253.495 130.857 253.807 130.655C254.12 130.453 254.472 130.352 254.864 130.352C254.938 130.352 255.03 130.354 255.141 130.357C255.252 130.359 255.336 130.364 255.392 130.369V131.392C255.358 131.384 255.28 131.371 255.158 131.354C255.039 131.334 254.912 131.324 254.779 131.324C254.461 131.324 254.176 131.391 253.926 131.524C253.679 131.655 253.483 131.837 253.338 132.07C253.196 132.3 253.125 132.562 253.125 132.858V137H252.12ZM256.585 137V130.455H257.556V131.477H257.641C257.778 131.128 257.998 130.857 258.302 130.663C258.606 130.467 258.971 130.369 259.397 130.369C259.829 130.369 260.188 130.467 260.475 130.663C260.765 130.857 260.991 131.128 261.153 131.477H261.221C261.388 131.139 261.64 130.871 261.975 130.672C262.31 130.47 262.712 130.369 263.181 130.369C263.766 130.369 264.245 130.553 264.617 130.919C264.989 131.283 265.175 131.849 265.175 132.619V137H264.17V132.619C264.17 132.136 264.038 131.791 263.773 131.584C263.509 131.376 263.198 131.273 262.84 131.273C262.38 131.273 262.023 131.412 261.771 131.69C261.518 131.966 261.391 132.315 261.391 132.739V137H260.369V132.517C260.369 132.145 260.248 131.845 260.006 131.618C259.765 131.388 259.454 131.273 259.073 131.273C258.812 131.273 258.567 131.342 258.34 131.482C258.116 131.621 257.934 131.814 257.795 132.061C257.658 132.305 257.59 132.588 257.59 132.909V137H256.585ZM267.014 137V130.455H268.02V137H267.014ZM267.526 129.364C267.33 129.364 267.161 129.297 267.018 129.163C266.879 129.03 266.81 128.869 266.81 128.682C266.81 128.494 266.879 128.334 267.018 128.2C267.161 128.067 267.33 128 267.526 128C267.722 128 267.889 128.067 268.028 128.2C268.17 128.334 268.241 128.494 268.241 128.682C268.241 128.869 268.17 129.03 268.028 129.163C267.889 129.297 267.722 129.364 267.526 129.364ZM270.868 133.062V137H269.862V130.455H270.833V131.477H270.919C271.072 131.145 271.305 130.878 271.618 130.676C271.93 130.472 272.333 130.369 272.828 130.369C273.271 130.369 273.659 130.46 273.991 130.642C274.324 130.821 274.582 131.094 274.767 131.46C274.951 131.824 275.044 132.284 275.044 132.841V137H274.038V132.909C274.038 132.395 273.904 131.994 273.637 131.707C273.37 131.418 273.004 131.273 272.538 131.273C272.217 131.273 271.93 131.342 271.677 131.482C271.427 131.621 271.23 131.824 271.085 132.091C270.94 132.358 270.868 132.682 270.868 133.062ZM278.808 137.153C278.393 137.153 278.016 137.075 277.678 136.919C277.34 136.76 277.072 136.531 276.873 136.233C276.674 135.932 276.575 135.568 276.575 135.142C276.575 134.767 276.648 134.463 276.796 134.23C276.944 133.994 277.141 133.81 277.388 133.676C277.636 133.543 277.908 133.443 278.207 133.378C278.508 133.31 278.81 133.256 279.114 133.216C279.512 133.165 279.835 133.126 280.082 133.101C280.332 133.072 280.513 133.026 280.627 132.96C280.744 132.895 280.802 132.781 280.802 132.619V132.585C280.802 132.165 280.687 131.838 280.457 131.605C280.229 131.372 279.884 131.256 279.421 131.256C278.941 131.256 278.565 131.361 278.292 131.571C278.019 131.781 277.827 132.006 277.717 132.244L276.762 131.903C276.933 131.506 277.16 131.196 277.444 130.974C277.731 130.75 278.043 130.594 278.381 130.506C278.722 130.415 279.058 130.369 279.387 130.369C279.597 130.369 279.839 130.395 280.112 130.446C280.387 130.494 280.653 130.595 280.908 130.749C281.167 130.902 281.381 131.134 281.552 131.443C281.722 131.753 281.808 132.168 281.808 132.688V137H280.802V136.114H280.751C280.683 136.256 280.569 136.408 280.41 136.57C280.251 136.732 280.039 136.869 279.775 136.983C279.511 137.097 279.188 137.153 278.808 137.153ZM278.961 136.25C279.359 136.25 279.694 136.172 279.967 136.016C280.242 135.859 280.45 135.658 280.589 135.411C280.731 135.163 280.802 134.903 280.802 134.631V133.71C280.759 133.761 280.665 133.808 280.521 133.851C280.379 133.891 280.214 133.926 280.026 133.957C279.842 133.986 279.661 134.011 279.485 134.034C279.312 134.054 279.171 134.071 279.063 134.085C278.802 134.119 278.558 134.175 278.33 134.251C278.106 134.325 277.924 134.437 277.785 134.588C277.648 134.736 277.58 134.937 277.58 135.193C277.58 135.543 277.71 135.807 277.968 135.986C278.229 136.162 278.56 136.25 278.961 136.25ZM284.649 128.273V137H283.643V128.273H284.649ZM291.792 137.153C291.377 137.153 291.001 137.075 290.663 136.919C290.325 136.76 290.056 136.531 289.857 136.233C289.658 135.932 289.559 135.568 289.559 135.142C289.559 134.767 289.633 134.463 289.781 134.23C289.928 133.994 290.126 133.81 290.373 133.676C290.62 133.543 290.893 133.443 291.191 133.378C291.492 133.31 291.795 133.256 292.099 133.216C292.496 133.165 292.819 133.126 293.066 133.101C293.316 133.072 293.498 133.026 293.612 132.96C293.728 132.895 293.786 132.781 293.786 132.619V132.585C293.786 132.165 293.671 131.838 293.441 131.605C293.214 131.372 292.869 131.256 292.406 131.256C291.925 131.256 291.549 131.361 291.276 131.571C291.004 131.781 290.812 132.006 290.701 132.244L289.746 131.903C289.917 131.506 290.144 131.196 290.428 130.974C290.715 130.75 291.028 130.594 291.366 130.506C291.707 130.415 292.042 130.369 292.371 130.369C292.582 130.369 292.823 130.395 293.096 130.446C293.371 130.494 293.637 130.595 293.893 130.749C294.151 130.902 294.366 131.134 294.536 131.443C294.707 131.753 294.792 132.168 294.792 132.688V137H293.786V136.114H293.735C293.667 136.256 293.553 136.408 293.394 136.57C293.235 136.732 293.023 136.869 292.759 136.983C292.495 137.097 292.173 137.153 291.792 137.153ZM291.945 136.25C292.343 136.25 292.678 136.172 292.951 136.016C293.227 135.859 293.434 135.658 293.573 135.411C293.715 135.163 293.786 134.903 293.786 134.631V133.71C293.744 133.761 293.65 133.808 293.505 133.851C293.363 133.891 293.198 133.926 293.011 133.957C292.826 133.986 292.646 134.011 292.469 134.034C292.296 134.054 292.156 134.071 292.048 134.085C291.786 134.119 291.542 134.175 291.315 134.251C291.09 134.325 290.908 134.437 290.769 134.588C290.633 134.736 290.565 134.937 290.565 135.193C290.565 135.543 290.694 135.807 290.952 135.986C291.214 136.162 291.545 136.25 291.945 136.25ZM299.287 137.136C298.673 137.136 298.145 136.991 297.701 136.702C297.258 136.412 296.917 136.013 296.679 135.504C296.44 134.996 296.321 134.415 296.321 133.761C296.321 133.097 296.443 132.51 296.687 132.001C296.934 131.49 297.278 131.091 297.718 130.804C298.162 130.514 298.679 130.369 299.27 130.369C299.73 130.369 300.145 130.455 300.514 130.625C300.883 130.795 301.186 131.034 301.422 131.341C301.657 131.648 301.804 132.006 301.86 132.415H300.855C300.778 132.116 300.608 131.852 300.343 131.622C300.082 131.389 299.73 131.273 299.287 131.273C298.895 131.273 298.551 131.375 298.255 131.58C297.963 131.781 297.734 132.067 297.569 132.436C297.407 132.803 297.326 133.233 297.326 133.727C297.326 134.233 297.406 134.673 297.565 135.048C297.727 135.423 297.954 135.714 298.247 135.922C298.542 136.129 298.889 136.233 299.287 136.233C299.548 136.233 299.785 136.188 299.998 136.097C300.211 136.006 300.392 135.875 300.539 135.705C300.687 135.534 300.792 135.33 300.855 135.091H301.86C301.804 135.477 301.663 135.825 301.439 136.135C301.217 136.442 300.923 136.686 300.556 136.868C300.193 137.047 299.77 137.136 299.287 137.136ZM305.99 137.136C305.376 137.136 304.848 136.991 304.404 136.702C303.961 136.412 303.62 136.013 303.382 135.504C303.143 134.996 303.024 134.415 303.024 133.761C303.024 133.097 303.146 132.51 303.39 132.001C303.637 131.49 303.981 131.091 304.422 130.804C304.865 130.514 305.382 130.369 305.973 130.369C306.433 130.369 306.848 130.455 307.217 130.625C307.586 130.795 307.889 131.034 308.125 131.341C308.36 131.648 308.507 132.006 308.564 132.415H307.558C307.481 132.116 307.311 131.852 307.047 131.622C306.785 131.389 306.433 131.273 305.99 131.273C305.598 131.273 305.254 131.375 304.958 131.58C304.666 131.781 304.437 132.067 304.272 132.436C304.11 132.803 304.029 133.233 304.029 133.727C304.029 134.233 304.109 134.673 304.268 135.048C304.43 135.423 304.657 135.714 304.95 135.922C305.245 136.129 305.592 136.233 305.99 136.233C306.251 136.233 306.488 136.188 306.701 136.097C306.914 136.006 307.095 135.875 307.243 135.705C307.39 135.534 307.495 135.33 307.558 135.091H308.564C308.507 135.477 308.366 135.825 308.142 136.135C307.92 136.442 307.626 136.686 307.26 136.868C306.896 137.047 306.473 137.136 305.99 137.136ZM312.778 137.136C312.147 137.136 311.603 136.997 311.146 136.719C310.691 136.438 310.341 136.045 310.093 135.543C309.849 135.037 309.727 134.449 309.727 133.778C309.727 133.108 309.849 132.517 310.093 132.006C310.341 131.491 310.684 131.091 311.125 130.804C311.568 130.514 312.085 130.369 312.676 130.369C313.017 130.369 313.353 130.426 313.686 130.54C314.018 130.653 314.321 130.838 314.593 131.094C314.866 131.347 315.083 131.682 315.245 132.099C315.407 132.517 315.488 133.031 315.488 133.642V134.068H310.443V133.199H314.466C314.466 132.83 314.392 132.5 314.244 132.21C314.099 131.92 313.892 131.692 313.622 131.524C313.355 131.357 313.039 131.273 312.676 131.273C312.275 131.273 311.929 131.372 311.636 131.571C311.346 131.767 311.123 132.023 310.967 132.338C310.811 132.653 310.733 132.991 310.733 133.352V133.932C310.733 134.426 310.818 134.845 310.988 135.189C311.162 135.53 311.402 135.79 311.708 135.969C312.015 136.145 312.372 136.233 312.778 136.233C313.042 136.233 313.281 136.196 313.494 136.122C313.71 136.045 313.896 135.932 314.052 135.781C314.208 135.628 314.329 135.437 314.414 135.21L315.386 135.483C315.284 135.812 315.112 136.102 314.87 136.352C314.629 136.599 314.331 136.793 313.975 136.932C313.62 137.068 313.221 137.136 312.778 137.136ZM321.654 131.92L320.751 132.176C320.694 132.026 320.61 131.879 320.5 131.737C320.392 131.592 320.244 131.473 320.056 131.379C319.869 131.286 319.629 131.239 319.336 131.239C318.936 131.239 318.602 131.331 318.335 131.516C318.071 131.697 317.939 131.929 317.939 132.21C317.939 132.46 318.029 132.658 318.211 132.803C318.393 132.947 318.677 133.068 319.064 133.165L320.035 133.403C320.62 133.545 321.056 133.763 321.343 134.055C321.63 134.345 321.774 134.719 321.774 135.176C321.774 135.551 321.666 135.886 321.45 136.182C321.237 136.477 320.939 136.71 320.555 136.881C320.172 137.051 319.725 137.136 319.217 137.136C318.549 137.136 317.997 136.991 317.559 136.702C317.122 136.412 316.845 135.989 316.728 135.432L317.683 135.193C317.774 135.545 317.946 135.81 318.199 135.986C318.454 136.162 318.788 136.25 319.2 136.25C319.669 136.25 320.041 136.151 320.316 135.952C320.595 135.75 320.734 135.509 320.734 135.227C320.734 135 320.654 134.81 320.495 134.656C320.336 134.5 320.092 134.384 319.762 134.307L318.672 134.051C318.072 133.909 317.632 133.689 317.35 133.391C317.072 133.089 316.933 132.713 316.933 132.261C316.933 131.892 317.037 131.565 317.244 131.281C317.454 130.997 317.74 130.774 318.1 130.612C318.464 130.45 318.876 130.369 319.336 130.369C319.984 130.369 320.493 130.511 320.862 130.795C321.234 131.08 321.498 131.455 321.654 131.92ZM327.924 131.92L327.021 132.176C326.964 132.026 326.88 131.879 326.769 131.737C326.661 131.592 326.513 131.473 326.326 131.379C326.138 131.286 325.898 131.239 325.606 131.239C325.205 131.239 324.871 131.331 324.604 131.516C324.34 131.697 324.208 131.929 324.208 132.21C324.208 132.46 324.299 132.658 324.481 132.803C324.663 132.947 324.947 133.068 325.333 133.165L326.305 133.403C326.89 133.545 327.326 133.763 327.613 134.055C327.9 134.345 328.043 134.719 328.043 135.176C328.043 135.551 327.935 135.886 327.719 136.182C327.506 136.477 327.208 136.71 326.825 136.881C326.441 137.051 325.995 137.136 325.487 137.136C324.819 137.136 324.266 136.991 323.829 136.702C323.391 136.412 323.114 135.989 322.998 135.432L323.952 135.193C324.043 135.545 324.215 135.81 324.468 135.986C324.724 136.162 325.058 136.25 325.469 136.25C325.938 136.25 326.31 136.151 326.586 135.952C326.864 135.75 327.004 135.509 327.004 135.227C327.004 135 326.924 134.81 326.765 134.656C326.606 134.5 326.362 134.384 326.032 134.307L324.941 134.051C324.342 133.909 323.901 133.689 323.62 133.391C323.342 133.089 323.202 132.713 323.202 132.261C323.202 131.892 323.306 131.565 323.513 131.281C323.724 130.997 324.009 130.774 324.37 130.612C324.734 130.45 325.146 130.369 325.606 130.369C326.254 130.369 326.762 130.511 327.131 130.795C327.504 131.08 327.768 131.455 327.924 131.92ZM330.29 137.068C330.08 137.068 329.9 136.993 329.749 136.842C329.598 136.692 329.523 136.511 329.523 136.301C329.523 136.091 329.598 135.911 329.749 135.76C329.9 135.609 330.08 135.534 330.29 135.534C330.5 135.534 330.681 135.609 330.831 135.76C330.982 135.911 331.057 136.091 331.057 136.301C331.057 136.44 331.022 136.568 330.951 136.685C330.882 136.801 330.79 136.895 330.674 136.966C330.56 137.034 330.432 137.068 330.29 137.068ZM105.415 153H104.307L107.511 144.273H108.602L111.807 153H110.699L108.091 145.653H108.023L105.415 153ZM105.824 149.591H110.29V150.528H105.824V149.591ZM115.501 153.136C114.956 153.136 114.474 152.999 114.057 152.723C113.639 152.445 113.313 152.053 113.077 151.547C112.841 151.038 112.723 150.438 112.723 149.744C112.723 149.057 112.841 148.46 113.077 147.955C113.313 147.449 113.641 147.058 114.061 146.783C114.482 146.507 114.967 146.369 115.518 146.369C115.945 146.369 116.281 146.44 116.528 146.582C116.778 146.722 116.969 146.881 117.099 147.06C117.233 147.236 117.337 147.381 117.411 147.494H117.496V144.273H118.501V153H117.53V151.994H117.411C117.337 152.114 117.232 152.264 117.095 152.446C116.959 152.625 116.764 152.786 116.511 152.928C116.259 153.067 115.922 153.136 115.501 153.136ZM115.638 152.233C116.041 152.233 116.382 152.128 116.661 151.918C116.939 151.705 117.151 151.411 117.295 151.036C117.44 150.658 117.513 150.222 117.513 149.727C117.513 149.239 117.442 148.811 117.3 148.445C117.158 148.075 116.947 147.788 116.669 147.584C116.391 147.376 116.047 147.273 115.638 147.273C115.212 147.273 114.857 147.382 114.572 147.601C114.291 147.817 114.08 148.111 113.938 148.483C113.798 148.852 113.729 149.267 113.729 149.727C113.729 150.193 113.8 150.616 113.942 150.997C114.087 151.375 114.3 151.676 114.581 151.901C114.865 152.122 115.217 152.233 115.638 152.233ZM122.955 153.136C122.409 153.136 121.928 152.999 121.51 152.723C121.092 152.445 120.766 152.053 120.53 151.547C120.294 151.038 120.176 150.438 120.176 149.744C120.176 149.057 120.294 148.46 120.53 147.955C120.766 147.449 121.094 147.058 121.514 146.783C121.935 146.507 122.42 146.369 122.972 146.369C123.398 146.369 123.734 146.44 123.982 146.582C124.232 146.722 124.422 146.881 124.553 147.06C124.686 147.236 124.79 147.381 124.864 147.494H124.949V144.273H125.955V153H124.983V151.994H124.864C124.79 152.114 124.685 152.264 124.548 152.446C124.412 152.625 124.217 152.786 123.964 152.928C123.712 153.067 123.375 153.136 122.955 153.136ZM123.091 152.233C123.494 152.233 123.835 152.128 124.114 151.918C124.392 151.705 124.604 151.411 124.749 151.036C124.893 150.658 124.966 150.222 124.966 149.727C124.966 149.239 124.895 148.811 124.753 148.445C124.611 148.075 124.401 147.788 124.122 147.584C123.844 147.376 123.5 147.273 123.091 147.273C122.665 147.273 122.31 147.382 122.026 147.601C121.744 147.817 121.533 148.111 121.391 148.483C121.251 148.852 121.182 149.267 121.182 149.727C121.182 150.193 121.253 150.616 121.395 150.997C121.54 151.375 121.753 151.676 122.034 151.901C122.318 152.122 122.67 152.233 123.091 152.233ZM133.237 153.153C132.822 153.153 132.446 153.075 132.108 152.919C131.77 152.76 131.501 152.531 131.303 152.233C131.104 151.932 131.004 151.568 131.004 151.142C131.004 150.767 131.078 150.463 131.226 150.23C131.374 149.994 131.571 149.81 131.818 149.676C132.065 149.543 132.338 149.443 132.636 149.378C132.938 149.31 133.24 149.256 133.544 149.216C133.942 149.165 134.264 149.126 134.511 149.101C134.761 149.072 134.943 149.026 135.057 148.96C135.173 148.895 135.232 148.781 135.232 148.619V148.585C135.232 148.165 135.116 147.838 134.886 147.605C134.659 147.372 134.314 147.256 133.851 147.256C133.371 147.256 132.994 147.361 132.722 147.571C132.449 147.781 132.257 148.006 132.146 148.244L131.192 147.903C131.362 147.506 131.589 147.196 131.874 146.974C132.161 146.75 132.473 146.594 132.811 146.506C133.152 146.415 133.487 146.369 133.817 146.369C134.027 146.369 134.268 146.395 134.541 146.446C134.817 146.494 135.082 146.595 135.338 146.749C135.597 146.902 135.811 147.134 135.982 147.443C136.152 147.753 136.237 148.168 136.237 148.688V153H135.232V152.114H135.18C135.112 152.256 134.999 152.408 134.839 152.57C134.68 152.732 134.469 152.869 134.205 152.983C133.94 153.097 133.618 153.153 133.237 153.153ZM133.391 152.25C133.788 152.25 134.124 152.172 134.396 152.016C134.672 151.859 134.879 151.658 135.018 151.411C135.161 151.163 135.232 150.903 135.232 150.631V149.71C135.189 149.761 135.095 149.808 134.95 149.851C134.808 149.891 134.643 149.926 134.456 149.957C134.271 149.986 134.091 150.011 133.915 150.034C133.741 150.054 133.601 150.071 133.493 150.085C133.232 150.119 132.987 150.175 132.76 150.251C132.536 150.325 132.354 150.437 132.214 150.588C132.078 150.736 132.01 150.937 132.01 151.193C132.01 151.543 132.139 151.807 132.398 151.986C132.659 152.162 132.99 152.25 133.391 152.25ZM139.078 149.062V153H138.073V146.455H139.044V147.477H139.13C139.283 147.145 139.516 146.878 139.828 146.676C140.141 146.472 140.544 146.369 141.039 146.369C141.482 146.369 141.87 146.46 142.202 146.642C142.534 146.821 142.793 147.094 142.978 147.46C143.162 147.824 143.255 148.284 143.255 148.841V153H142.249V148.909C142.249 148.395 142.115 147.994 141.848 147.707C141.581 147.418 141.215 147.273 140.749 147.273C140.428 147.273 140.141 147.342 139.888 147.482C139.638 147.621 139.441 147.824 139.296 148.091C139.151 148.358 139.078 148.682 139.078 149.062ZM147.564 153.136C147.018 153.136 146.537 152.999 146.119 152.723C145.702 152.445 145.375 152.053 145.139 151.547C144.903 151.038 144.786 150.438 144.786 149.744C144.786 149.057 144.903 148.46 145.139 147.955C145.375 147.449 145.703 147.058 146.124 146.783C146.544 146.507 147.03 146.369 147.581 146.369C148.007 146.369 148.344 146.44 148.591 146.582C148.841 146.722 149.031 146.881 149.162 147.06C149.295 147.236 149.399 147.381 149.473 147.494H149.558V144.273H150.564V153H149.592V151.994H149.473C149.399 152.114 149.294 152.264 149.158 152.446C149.021 152.625 148.827 152.786 148.574 152.928C148.321 153.067 147.984 153.136 147.564 153.136ZM147.7 152.233C148.104 152.233 148.445 152.128 148.723 151.918C149.001 151.705 149.213 151.411 149.358 151.036C149.503 150.658 149.575 150.222 149.575 149.727C149.575 149.239 149.504 148.811 149.362 148.445C149.22 148.075 149.01 147.788 148.732 147.584C148.453 147.376 148.109 147.273 147.7 147.273C147.274 147.273 146.919 147.382 146.635 147.601C146.354 147.817 146.142 148.111 146 148.483C145.861 148.852 145.791 149.267 145.791 149.727C145.791 150.193 145.862 150.616 146.004 150.997C146.149 151.375 146.362 151.676 146.643 151.901C146.928 152.122 147.28 152.233 147.7 152.233ZM161.273 146.455L158.852 153H157.83L155.409 146.455H156.5L158.307 151.67H158.375L160.182 146.455H161.273ZM162.6 153V146.455H163.606V153H162.6ZM163.112 145.364C162.915 145.364 162.746 145.297 162.604 145.163C162.465 145.03 162.396 144.869 162.396 144.682C162.396 144.494 162.465 144.334 162.604 144.2C162.746 144.067 162.915 144 163.112 144C163.308 144 163.475 144.067 163.614 144.2C163.756 144.334 163.827 144.494 163.827 144.682C163.827 144.869 163.756 145.03 163.614 145.163C163.475 145.297 163.308 145.364 163.112 145.364ZM168.192 153.136C167.561 153.136 167.017 152.997 166.56 152.719C166.105 152.438 165.755 152.045 165.507 151.543C165.263 151.037 165.141 150.449 165.141 149.778C165.141 149.108 165.263 148.517 165.507 148.006C165.755 147.491 166.098 147.091 166.539 146.804C166.982 146.514 167.499 146.369 168.09 146.369C168.431 146.369 168.767 146.426 169.1 146.54C169.432 146.653 169.735 146.838 170.007 147.094C170.28 147.347 170.498 147.682 170.659 148.099C170.821 148.517 170.902 149.031 170.902 149.642V150.068H165.857V149.199H169.88C169.88 148.83 169.806 148.5 169.658 148.21C169.513 147.92 169.306 147.692 169.036 147.524C168.769 147.357 168.453 147.273 168.09 147.273C167.689 147.273 167.343 147.372 167.05 147.571C166.76 147.767 166.537 148.023 166.381 148.338C166.225 148.653 166.147 148.991 166.147 149.352V149.932C166.147 150.426 166.232 150.845 166.402 151.189C166.576 151.53 166.816 151.79 167.123 151.969C167.429 152.145 167.786 152.233 168.192 152.233C168.456 152.233 168.695 152.196 168.908 152.122C169.124 152.045 169.31 151.932 169.466 151.781C169.623 151.628 169.743 151.437 169.828 151.21L170.8 151.483C170.698 151.812 170.526 152.102 170.284 152.352C170.043 152.599 169.745 152.793 169.39 152.932C169.034 153.068 168.635 153.136 168.192 153.136ZM173.915 153L171.921 146.455H172.978L174.392 151.466H174.461L175.858 146.455H176.932L178.313 151.449H178.381L179.796 146.455H180.853L178.858 153H177.87L176.438 147.972H176.336L174.904 153H173.915ZM187.04 153L185.046 146.455H186.103L187.517 151.466H187.586L188.983 146.455H190.057L191.438 151.449H191.506L192.921 146.455H193.978L191.983 153H190.995L189.563 147.972H189.461L188.029 153H187.04ZM197.233 153.153C196.819 153.153 196.442 153.075 196.104 152.919C195.766 152.76 195.498 152.531 195.299 152.233C195.1 151.932 195 151.568 195 151.142C195 150.767 195.074 150.463 195.222 150.23C195.37 149.994 195.567 149.81 195.814 149.676C196.061 149.543 196.334 149.443 196.632 149.378C196.934 149.31 197.236 149.256 197.54 149.216C197.938 149.165 198.26 149.126 198.507 149.101C198.757 149.072 198.939 149.026 199.053 148.96C199.169 148.895 199.228 148.781 199.228 148.619V148.585C199.228 148.165 199.113 147.838 198.882 147.605C198.655 147.372 198.31 147.256 197.847 147.256C197.367 147.256 196.99 147.361 196.718 147.571C196.445 147.781 196.253 148.006 196.142 148.244L195.188 147.903C195.358 147.506 195.586 147.196 195.87 146.974C196.157 146.75 196.469 146.594 196.807 146.506C197.148 146.415 197.483 146.369 197.813 146.369C198.023 146.369 198.265 146.395 198.537 146.446C198.813 146.494 199.078 146.595 199.334 146.749C199.593 146.902 199.807 147.134 199.978 147.443C200.148 147.753 200.233 148.168 200.233 148.688V153H199.228V152.114H199.176C199.108 152.256 198.995 152.408 198.836 152.57C198.676 152.732 198.465 152.869 198.201 152.983C197.936 153.097 197.614 153.153 197.233 153.153ZM197.387 152.25C197.784 152.25 198.12 152.172 198.392 152.016C198.668 151.859 198.875 151.658 199.015 151.411C199.157 151.163 199.228 150.903 199.228 150.631V149.71C199.185 149.761 199.091 149.808 198.946 149.851C198.804 149.891 198.64 149.926 198.452 149.957C198.267 149.986 198.087 150.011 197.911 150.034C197.738 150.054 197.597 150.071 197.489 150.085C197.228 150.119 196.983 150.175 196.756 150.251C196.532 150.325 196.35 150.437 196.211 150.588C196.074 150.736 196.006 150.937 196.006 151.193C196.006 151.543 196.135 151.807 196.394 151.986C196.655 152.162 196.986 152.25 197.387 152.25ZM202.069 153V146.455H203.075V153H202.069ZM202.58 145.364C202.384 145.364 202.215 145.297 202.073 145.163C201.934 145.03 201.864 144.869 201.864 144.682C201.864 144.494 201.934 144.334 202.073 144.2C202.215 144.067 202.384 144 202.58 144C202.776 144 202.944 144.067 203.083 144.2C203.225 144.334 203.296 144.494 203.296 144.682C203.296 144.869 203.225 145.03 203.083 145.163C202.944 145.297 202.776 145.364 202.58 145.364ZM207.763 146.455V147.307H204.371V146.455H207.763ZM205.36 144.886H206.365V151.125C206.365 151.409 206.407 151.622 206.489 151.764C206.574 151.903 206.682 151.997 206.813 152.045C206.946 152.091 207.087 152.114 207.235 152.114C207.346 152.114 207.436 152.108 207.507 152.097C207.578 152.082 207.635 152.071 207.678 152.062L207.882 152.966C207.814 152.991 207.719 153.017 207.597 153.043C207.475 153.071 207.32 153.085 207.132 153.085C206.848 153.085 206.57 153.024 206.297 152.902C206.027 152.78 205.803 152.594 205.624 152.344C205.448 152.094 205.36 151.778 205.36 151.398V144.886ZM211.95 153.136C211.319 153.136 210.775 152.997 210.318 152.719C209.863 152.438 209.512 152.045 209.265 151.543C209.021 151.037 208.899 150.449 208.899 149.778C208.899 149.108 209.021 148.517 209.265 148.006C209.512 147.491 209.856 147.091 210.297 146.804C210.74 146.514 211.257 146.369 211.848 146.369C212.189 146.369 212.525 146.426 212.858 146.54C213.19 146.653 213.493 146.838 213.765 147.094C214.038 147.347 214.255 147.682 214.417 148.099C214.579 148.517 214.66 149.031 214.66 149.642V150.068H209.615V149.199H213.637C213.637 148.83 213.564 148.5 213.416 148.21C213.271 147.92 213.064 147.692 212.794 147.524C212.527 147.357 212.211 147.273 211.848 147.273C211.447 147.273 211.1 147.372 210.808 147.571C210.518 147.767 210.295 148.023 210.139 148.338C209.983 148.653 209.904 148.991 209.904 149.352V149.932C209.904 150.426 209.99 150.845 210.16 151.189C210.333 151.53 210.574 151.79 210.88 151.969C211.187 152.145 211.544 152.233 211.95 152.233C212.214 152.233 212.453 152.196 212.666 152.122C212.882 152.045 213.068 151.932 213.224 151.781C213.38 151.628 213.501 151.437 213.586 151.21L214.558 151.483C214.456 151.812 214.284 152.102 214.042 152.352C213.801 152.599 213.502 152.793 213.147 152.932C212.792 153.068 212.393 153.136 211.95 153.136ZM216.19 153V146.455H217.162V147.443H217.23C217.349 147.119 217.565 146.857 217.877 146.655C218.19 146.453 218.542 146.352 218.934 146.352C219.008 146.352 219.1 146.354 219.211 146.357C219.322 146.359 219.406 146.364 219.463 146.369V147.392C219.429 147.384 219.35 147.371 219.228 147.354C219.109 147.334 218.983 147.324 218.849 147.324C218.531 147.324 218.247 147.391 217.997 147.524C217.75 147.655 217.554 147.837 217.409 148.07C217.267 148.3 217.196 148.562 217.196 148.858V153H216.19ZM225.291 147.92L224.388 148.176C224.331 148.026 224.247 147.879 224.136 147.737C224.028 147.592 223.881 147.473 223.693 147.379C223.506 147.286 223.266 147.239 222.973 147.239C222.572 147.239 222.239 147.331 221.972 147.516C221.707 147.697 221.575 147.929 221.575 148.21C221.575 148.46 221.666 148.658 221.848 148.803C222.03 148.947 222.314 149.068 222.7 149.165L223.672 149.403C224.257 149.545 224.693 149.763 224.98 150.055C225.267 150.345 225.411 150.719 225.411 151.176C225.411 151.551 225.303 151.886 225.087 152.182C224.874 152.477 224.575 152.71 224.192 152.881C223.808 153.051 223.362 153.136 222.854 153.136C222.186 153.136 221.634 152.991 221.196 152.702C220.759 152.412 220.482 151.989 220.365 151.432L221.32 151.193C221.411 151.545 221.582 151.81 221.835 151.986C222.091 152.162 222.425 152.25 222.837 152.25C223.305 152.25 223.678 152.151 223.953 151.952C224.232 151.75 224.371 151.509 224.371 151.227C224.371 151 224.291 150.81 224.132 150.656C223.973 150.5 223.729 150.384 223.399 150.307L222.308 150.051C221.709 149.909 221.268 149.689 220.987 149.391C220.709 149.089 220.57 148.713 220.57 148.261C220.57 147.892 220.673 147.565 220.881 147.281C221.091 146.997 221.376 146.774 221.737 146.612C222.101 146.45 222.513 146.369 222.973 146.369C223.621 146.369 224.129 146.511 224.499 146.795C224.871 147.08 225.135 147.455 225.291 147.92ZM232.958 153.136C232.368 153.136 231.849 152.996 231.403 152.714C230.96 152.433 230.613 152.04 230.363 151.534C230.116 151.028 229.993 150.437 229.993 149.761C229.993 149.08 230.116 148.484 230.363 147.976C230.613 147.467 230.96 147.072 231.403 146.791C231.849 146.51 232.368 146.369 232.958 146.369C233.549 146.369 234.066 146.51 234.51 146.791C234.956 147.072 235.302 147.467 235.549 147.976C235.799 148.484 235.924 149.08 235.924 149.761C235.924 150.437 235.799 151.028 235.549 151.534C235.302 152.04 234.956 152.433 234.51 152.714C234.066 152.996 233.549 153.136 232.958 153.136ZM232.958 152.233C233.407 152.233 233.777 152.118 234.066 151.888C234.356 151.658 234.571 151.355 234.71 150.98C234.849 150.605 234.919 150.199 234.919 149.761C234.919 149.324 234.849 148.916 234.71 148.538C234.571 148.161 234.356 147.855 234.066 147.622C233.777 147.389 233.407 147.273 232.958 147.273C232.51 147.273 232.14 147.389 231.85 147.622C231.561 147.855 231.346 148.161 231.207 148.538C231.068 148.916 230.998 149.324 230.998 149.761C230.998 150.199 231.068 150.605 231.207 150.98C231.346 151.355 231.561 151.658 231.85 151.888C232.14 152.118 232.51 152.233 232.958 152.233ZM238.465 149.062V153H237.46V146.455H238.431V147.477H238.516C238.67 147.145 238.903 146.878 239.215 146.676C239.528 146.472 239.931 146.369 240.425 146.369C240.869 146.369 241.256 146.46 241.589 146.642C241.921 146.821 242.18 147.094 242.364 147.46C242.549 147.824 242.641 148.284 242.641 148.841V153H241.636V148.909C241.636 148.395 241.502 147.994 241.235 147.707C240.968 147.418 240.602 147.273 240.136 147.273C239.815 147.273 239.528 147.342 239.275 147.482C239.025 147.621 238.827 147.824 238.683 148.091C238.538 148.358 238.465 148.682 238.465 149.062ZM248.502 155.455C248.331 155.455 248.179 155.44 248.046 155.412C247.912 155.386 247.82 155.361 247.769 155.335L248.025 154.449C248.269 154.511 248.485 154.534 248.672 154.517C248.86 154.5 249.026 154.416 249.171 154.266C249.319 154.118 249.453 153.878 249.576 153.545L249.763 153.034L247.343 146.455H248.434L250.24 151.67H250.309L252.115 146.455H253.206L250.428 153.955C250.303 154.293 250.148 154.572 249.963 154.794C249.779 155.018 249.564 155.185 249.32 155.293C249.078 155.401 248.806 155.455 248.502 155.455ZM256.958 153.136C256.368 153.136 255.849 152.996 255.403 152.714C254.96 152.433 254.613 152.04 254.363 151.534C254.116 151.028 253.993 150.437 253.993 149.761C253.993 149.08 254.116 148.484 254.363 147.976C254.613 147.467 254.96 147.072 255.403 146.791C255.849 146.51 256.368 146.369 256.958 146.369C257.549 146.369 258.066 146.51 258.51 146.791C258.956 147.072 259.302 147.467 259.549 147.976C259.799 148.484 259.924 149.08 259.924 149.761C259.924 150.437 259.799 151.028 259.549 151.534C259.302 152.04 258.956 152.433 258.51 152.714C258.066 152.996 257.549 153.136 256.958 153.136ZM256.958 152.233C257.407 152.233 257.777 152.118 258.066 151.888C258.356 151.658 258.571 151.355 258.71 150.98C258.849 150.605 258.919 150.199 258.919 149.761C258.919 149.324 258.849 148.916 258.71 148.538C258.571 148.161 258.356 147.855 258.066 147.622C257.777 147.389 257.407 147.273 256.958 147.273C256.51 147.273 256.14 147.389 255.85 147.622C255.561 147.855 255.346 148.161 255.207 148.538C255.068 148.916 254.998 149.324 254.998 149.761C254.998 150.199 255.068 150.605 255.207 150.98C255.346 151.355 255.561 151.658 255.85 151.888C256.14 152.118 256.51 152.233 256.958 152.233ZM265.585 150.324V146.455H266.59V153H265.585V151.892H265.516C265.363 152.224 265.124 152.507 264.8 152.74C264.477 152.97 264.067 153.085 263.573 153.085C263.164 153.085 262.8 152.996 262.482 152.817C262.164 152.635 261.914 152.362 261.732 151.999C261.55 151.632 261.46 151.17 261.46 150.614V146.455H262.465V150.545C262.465 151.023 262.599 151.403 262.866 151.688C263.136 151.972 263.479 152.114 263.897 152.114C264.147 152.114 264.401 152.05 264.66 151.922C264.921 151.794 265.14 151.598 265.316 151.334C265.495 151.07 265.585 150.733 265.585 150.324ZM268.432 153V146.455H269.404V147.443H269.472C269.591 147.119 269.807 146.857 270.12 146.655C270.432 146.453 270.784 146.352 271.176 146.352C271.25 146.352 271.343 146.354 271.453 146.357C271.564 146.359 271.648 146.364 271.705 146.369V147.392C271.671 147.384 271.593 147.371 271.471 147.354C271.351 147.334 271.225 147.324 271.091 147.324C270.773 147.324 270.489 147.391 270.239 147.524C269.992 147.655 269.796 147.837 269.651 148.07C269.509 148.3 269.438 148.562 269.438 148.858V153H268.432ZM277.278 144.273V153H276.272V144.273H277.278ZM279.12 153V146.455H280.125V153H279.12ZM279.631 145.364C279.435 145.364 279.266 145.297 279.124 145.163C278.985 145.03 278.915 144.869 278.915 144.682C278.915 144.494 278.985 144.334 279.124 144.2C279.266 144.067 279.435 144 279.631 144C279.827 144 279.995 144.067 280.134 144.2C280.276 144.334 280.347 144.494 280.347 144.682C280.347 144.869 280.276 145.03 280.134 145.163C279.995 145.297 279.827 145.364 279.631 145.364ZM286.604 147.92L285.7 148.176C285.643 148.026 285.56 147.879 285.449 147.737C285.341 147.592 285.193 147.473 285.006 147.379C284.818 147.286 284.578 147.239 284.286 147.239C283.885 147.239 283.551 147.331 283.284 147.516C283.02 147.697 282.888 147.929 282.888 148.21C282.888 148.46 282.979 148.658 283.161 148.803C283.342 148.947 283.626 149.068 284.013 149.165L284.984 149.403C285.57 149.545 286.006 149.763 286.293 150.055C286.58 150.345 286.723 150.719 286.723 151.176C286.723 151.551 286.615 151.886 286.399 152.182C286.186 152.477 285.888 152.71 285.504 152.881C285.121 153.051 284.675 153.136 284.166 153.136C283.499 153.136 282.946 152.991 282.509 152.702C282.071 152.412 281.794 151.989 281.678 151.432L282.632 151.193C282.723 151.545 282.895 151.81 283.148 151.986C283.403 152.162 283.737 152.25 284.149 152.25C284.618 152.25 284.99 152.151 285.266 151.952C285.544 151.75 285.683 151.509 285.683 151.227C285.683 151 285.604 150.81 285.445 150.656C285.286 150.5 285.041 150.384 284.712 150.307L283.621 150.051C283.021 149.909 282.581 149.689 282.3 149.391C282.021 149.089 281.882 148.713 281.882 148.261C281.882 147.892 281.986 147.565 282.193 147.281C282.403 146.997 282.689 146.774 283.05 146.612C283.413 146.45 283.825 146.369 284.286 146.369C284.933 146.369 285.442 146.511 285.811 146.795C286.183 147.08 286.447 147.455 286.604 147.92ZM291.083 146.455V147.307H287.691V146.455H291.083ZM288.68 144.886H289.686V151.125C289.686 151.409 289.727 151.622 289.809 151.764C289.895 151.903 290.002 151.997 290.133 152.045C290.267 152.091 290.407 152.114 290.555 152.114C290.666 152.114 290.757 152.108 290.828 152.097C290.899 152.082 290.956 152.071 290.998 152.062L291.203 152.966C291.135 152.991 291.039 153.017 290.917 153.043C290.795 153.071 290.64 153.085 290.453 153.085C290.169 153.085 289.89 153.024 289.618 152.902C289.348 152.78 289.123 152.594 288.944 152.344C288.768 152.094 288.68 151.778 288.68 151.398V144.886ZM293.329 153.068C293.119 153.068 292.939 152.993 292.788 152.842C292.637 152.692 292.562 152.511 292.562 152.301C292.562 152.091 292.637 151.911 292.788 151.76C292.939 151.609 293.119 151.534 293.329 151.534C293.539 151.534 293.72 151.609 293.87 151.76C294.021 151.911 294.096 152.091 294.096 152.301C294.096 152.44 294.061 152.568 293.99 152.685C293.922 152.801 293.829 152.895 293.713 152.966C293.599 153.034 293.471 153.068 293.329 153.068Z" fill="#999999"/>
<path d="M156.96 137.119C156.349 137.119 155.81 137.014 155.341 136.804C154.875 136.594 154.51 136.304 154.246 135.935C153.982 135.565 153.851 135.145 153.854 134.673C153.851 134.304 153.926 133.964 154.08 133.655C154.236 133.342 154.447 133.082 154.714 132.875C154.982 132.665 155.28 132.531 155.609 132.474V132.423C155.175 132.318 154.827 132.085 154.565 131.724C154.304 131.364 154.175 130.949 154.178 130.48C154.175 130.034 154.293 129.636 154.531 129.287C154.773 128.935 155.104 128.658 155.524 128.456C155.945 128.254 156.423 128.153 156.96 128.153C157.491 128.153 157.966 128.256 158.384 128.46C158.804 128.662 159.135 128.939 159.376 129.291C159.618 129.641 159.74 130.037 159.743 130.48C159.74 130.949 159.607 131.364 159.342 131.724C159.078 132.085 158.734 132.318 158.311 132.423V132.474C158.638 132.531 158.932 132.665 159.193 132.875C159.457 133.082 159.668 133.342 159.824 133.655C159.983 133.964 160.064 134.304 160.067 134.673C160.064 135.145 159.93 135.565 159.666 135.935C159.402 136.304 159.036 136.594 158.567 136.804C158.101 137.014 157.565 137.119 156.96 137.119ZM156.96 136.041C157.321 136.041 157.634 135.982 157.898 135.862C158.162 135.74 158.366 135.571 158.511 135.355C158.656 135.136 158.73 134.881 158.733 134.588C158.73 134.284 158.651 134.016 158.494 133.783C158.341 133.55 158.132 133.366 157.868 133.233C157.604 133.099 157.301 133.033 156.96 133.033C156.616 133.033 156.311 133.099 156.044 133.233C155.777 133.366 155.567 133.55 155.413 133.783C155.26 134.016 155.185 134.284 155.188 134.588C155.185 134.881 155.254 135.136 155.396 135.355C155.541 135.571 155.747 135.74 156.014 135.862C156.281 135.982 156.597 136.041 156.96 136.041ZM156.96 131.98C157.25 131.98 157.507 131.922 157.732 131.805C157.956 131.689 158.132 131.527 158.26 131.32C158.391 131.112 158.457 130.869 158.46 130.591C158.457 130.318 158.392 130.08 158.264 129.875C158.139 129.67 157.964 129.513 157.74 129.402C157.516 129.288 157.256 129.232 156.96 129.232C156.659 129.232 156.395 129.288 156.168 129.402C155.943 129.513 155.768 129.67 155.643 129.875C155.518 130.08 155.457 130.318 155.46 130.591C155.457 130.869 155.52 131.112 155.648 131.32C155.776 131.527 155.952 131.689 156.176 131.805C156.403 131.922 156.665 131.98 156.96 131.98ZM166.205 137L164.279 130.455H165.596L166.879 135.261H166.942L168.229 130.455H169.546L170.825 135.24H170.888L172.163 130.455H173.479L171.558 137H170.258L168.928 132.274H168.83L167.501 137H166.205ZM176.593 137.145C176.179 137.145 175.804 137.068 175.468 136.915C175.133 136.759 174.868 136.533 174.672 136.237C174.478 135.942 174.382 135.58 174.382 135.151C174.382 134.781 174.453 134.477 174.595 134.239C174.737 134 174.929 133.811 175.17 133.672C175.412 133.533 175.681 133.428 175.98 133.357C176.278 133.286 176.582 133.232 176.892 133.195C177.284 133.149 177.602 133.112 177.846 133.084C178.091 133.053 178.268 133.003 178.379 132.935C178.49 132.866 178.545 132.756 178.545 132.602V132.572C178.545 132.2 178.44 131.912 178.23 131.707C178.022 131.503 177.713 131.401 177.301 131.401C176.872 131.401 176.534 131.496 176.287 131.686C176.042 131.874 175.873 132.082 175.779 132.312L174.582 132.04C174.724 131.642 174.931 131.321 175.204 131.077C175.48 130.83 175.797 130.651 176.154 130.54C176.512 130.426 176.889 130.369 177.284 130.369C177.545 130.369 177.822 130.401 178.115 130.463C178.41 130.523 178.686 130.634 178.941 130.795C179.2 130.957 179.412 131.189 179.576 131.49C179.741 131.788 179.824 132.176 179.824 132.653V137H178.579V136.105H178.528C178.446 136.27 178.322 136.432 178.157 136.591C177.993 136.75 177.781 136.882 177.522 136.987C177.264 137.092 176.954 137.145 176.593 137.145ZM176.87 136.122C177.223 136.122 177.524 136.053 177.774 135.913C178.027 135.774 178.218 135.592 178.349 135.368C178.483 135.141 178.549 134.898 178.549 134.639V133.795C178.504 133.841 178.416 133.884 178.285 133.923C178.157 133.96 178.011 133.993 177.846 134.021C177.681 134.047 177.521 134.071 177.365 134.094C177.208 134.114 177.078 134.131 176.973 134.145C176.725 134.176 176.5 134.229 176.295 134.303C176.093 134.376 175.931 134.483 175.809 134.622C175.69 134.759 175.63 134.94 175.63 135.168C175.63 135.483 175.747 135.722 175.98 135.884C176.213 136.043 176.51 136.122 176.87 136.122ZM181.521 137V130.455H182.795V137H181.521ZM182.164 129.445C181.942 129.445 181.752 129.371 181.593 129.223C181.437 129.072 181.359 128.893 181.359 128.686C181.359 128.476 181.437 128.297 181.593 128.149C181.752 127.999 181.942 127.923 182.164 127.923C182.386 127.923 182.575 127.999 182.731 128.149C182.89 128.297 182.969 128.476 182.969 128.686C182.969 128.893 182.89 129.072 182.731 129.223C182.575 129.371 182.386 129.445 182.164 129.445ZM187.564 130.455V131.477H183.989V130.455H187.564ZM184.948 128.886H186.222V135.078C186.222 135.325 186.259 135.511 186.333 135.636C186.407 135.759 186.502 135.842 186.618 135.888C186.738 135.93 186.867 135.952 187.006 135.952C187.108 135.952 187.198 135.945 187.275 135.93C187.351 135.916 187.411 135.905 187.453 135.896L187.684 136.949C187.61 136.977 187.505 137.006 187.368 137.034C187.232 137.065 187.061 137.082 186.857 137.085C186.522 137.091 186.209 137.031 185.919 136.906C185.63 136.781 185.395 136.588 185.216 136.327C185.037 136.065 184.948 135.737 184.948 135.342V128.886ZM191.724 137.132C191.08 137.132 190.524 136.994 190.058 136.719C189.595 136.44 189.237 136.05 188.984 135.547C188.734 135.041 188.609 134.449 188.609 133.77C188.609 133.099 188.734 132.509 188.984 131.997C189.237 131.486 189.589 131.087 190.041 130.8C190.496 130.513 191.027 130.369 191.635 130.369C192.004 130.369 192.362 130.43 192.709 130.553C193.055 130.675 193.366 130.866 193.642 131.128C193.918 131.389 194.135 131.729 194.294 132.146C194.453 132.561 194.533 133.065 194.533 133.659V134.111H189.33V133.156H193.284C193.284 132.821 193.216 132.524 193.08 132.266C192.943 132.004 192.751 131.798 192.504 131.648C192.26 131.497 191.973 131.422 191.643 131.422C191.286 131.422 190.973 131.51 190.706 131.686C190.442 131.859 190.237 132.087 190.092 132.368C189.95 132.646 189.879 132.949 189.879 133.276V134.021C189.879 134.459 189.956 134.831 190.109 135.138C190.266 135.445 190.483 135.679 190.761 135.841C191.04 136 191.365 136.08 191.737 136.08C191.979 136.08 192.199 136.045 192.398 135.977C192.597 135.906 192.768 135.801 192.913 135.662C193.058 135.523 193.169 135.351 193.246 135.146L194.452 135.364C194.355 135.719 194.182 136.03 193.932 136.297C193.685 136.561 193.374 136.767 192.999 136.915C192.626 137.06 192.202 137.132 191.724 137.132ZM195.946 137V130.455H197.178V131.494H197.246C197.365 131.142 197.576 130.865 197.877 130.663C198.181 130.459 198.525 130.357 198.908 130.357C198.988 130.357 199.081 130.359 199.189 130.365C199.3 130.371 199.387 130.378 199.449 130.386V131.605C199.398 131.591 199.307 131.575 199.176 131.558C199.046 131.538 198.915 131.528 198.784 131.528C198.483 131.528 198.215 131.592 197.979 131.72C197.746 131.845 197.561 132.02 197.425 132.244C197.289 132.466 197.221 132.719 197.221 133.003V137H195.946ZM205.457 132.053L204.302 132.257C204.254 132.109 204.177 131.969 204.072 131.835C203.969 131.702 203.83 131.592 203.654 131.507C203.478 131.422 203.258 131.379 202.994 131.379C202.633 131.379 202.332 131.46 202.09 131.622C201.849 131.781 201.728 131.987 201.728 132.24C201.728 132.459 201.809 132.635 201.971 132.768C202.133 132.902 202.394 133.011 202.755 133.097L203.795 133.335C204.397 133.474 204.846 133.689 205.141 133.979C205.437 134.268 205.585 134.645 205.585 135.108C205.585 135.5 205.471 135.849 205.244 136.156C205.019 136.46 204.705 136.699 204.302 136.872C203.901 137.045 203.437 137.132 202.908 137.132C202.175 137.132 201.577 136.976 201.114 136.663C200.651 136.348 200.367 135.901 200.262 135.321L201.494 135.134C201.57 135.455 201.728 135.697 201.967 135.862C202.205 136.024 202.516 136.105 202.9 136.105C203.317 136.105 203.651 136.018 203.901 135.845C204.151 135.669 204.276 135.455 204.276 135.202C204.276 134.997 204.2 134.825 204.046 134.686C203.896 134.547 203.664 134.442 203.352 134.371L202.244 134.128C201.633 133.989 201.181 133.767 200.888 133.463C200.599 133.159 200.454 132.774 200.454 132.308C200.454 131.922 200.562 131.584 200.778 131.294C200.994 131.004 201.292 130.778 201.673 130.616C202.053 130.452 202.489 130.369 202.981 130.369C203.688 130.369 204.245 130.523 204.651 130.83C205.058 131.134 205.326 131.541 205.457 132.053Z" fill="#8C8C8C"/>
</g>
<defs>
<filter id="filter0_dd_10946_16394" x="0" y="0" width="451" height="408" filterUnits="userSpaceOnUse" color-interpolation-filters="sRGB">
<feFlood flood-opacity="0" result="BackgroundImageFix"/>
<feColorMatrix in="SourceAlpha" type="matrix" values="0 0 0 0 0 0 0 0 0 0 0 0 0 0 0 0 0 0 127 0" result="hardAlpha"/>
<feMorphology radius="4" operator="erode" in="SourceAlpha" result="effect1_dropShadow_10946_16394"/>
<feOffset dy="18"/>
<feGaussianBlur stdDeviation="44"/>
<feColorMatrix type="matrix" values="0 0 0 0 0.0941176 0 0 0 0 0.152941 0 0 0 0 0.294118 0 0 0 0.14 0"/>
<feBlend mode="normal" in2="BackgroundImageFix" result="effect1_dropShadow_10946_16394"/>
<feColorMatrix in="SourceAlpha" type="matrix" values="0 0 0 0 0 0 0 0 0 0 0 0 0 0 0 0 0 0 127 0" result="hardAlpha"/>
<feMorphology radius="6" operator="erode" in="SourceAlpha" result="effect2_dropShadow_10946_16394"/>
<feOffset dy="8"/>
<feGaussianBlur stdDeviation="14"/>
<feColorMatrix type="matrix" values="0 0 0 0 0.0941176 0 0 0 0 0.152941 0 0 0 0 0.294118 0 0 0 0.12 0"/>
<feBlend mode="normal" in2="effect1_dropShadow_10946_16394" result="effect2_dropShadow_10946_16394"/>
<feBlend mode="normal" in="SourceGraphic" in2="effect2_dropShadow_10946_16394" result="shape"/>
</filter>
</defs>
</svg>
