<svg width="444" height="408" viewBox="0 0 444 408" fill="none" xmlns="http://www.w3.org/2000/svg">
<g filter="url(#filter0_dd_10946_16349)">
<rect x="85" y="67" width="281" height="238" rx="23" fill="white" stroke="#4D4D4D" stroke-width="2"/>
<path d="M120.517 201.767C117.585 201.756 115.063 201.034 112.949 199.602C110.847 198.17 109.227 196.097 108.091 193.381C106.966 190.665 106.409 187.398 106.42 183.58C106.42 179.773 106.983 176.528 108.108 173.847C109.244 171.165 110.864 169.125 112.966 167.727C115.08 166.318 117.597 165.614 120.517 165.614C123.438 165.614 125.949 166.318 128.051 167.727C130.165 169.136 131.79 171.182 132.926 173.864C134.063 176.534 134.625 179.773 134.614 183.58C134.614 187.409 134.045 190.682 132.909 193.398C131.784 196.114 130.17 198.187 128.068 199.619C125.966 201.051 123.449 201.767 120.517 201.767ZM120.517 195.648C122.517 195.648 124.114 194.642 125.307 192.631C126.5 190.619 127.091 187.602 127.08 183.58C127.08 180.932 126.807 178.727 126.261 176.966C125.727 175.205 124.966 173.881 123.977 172.994C123 172.108 121.847 171.665 120.517 171.665C118.528 171.665 116.938 172.659 115.744 174.648C114.551 176.636 113.949 179.614 113.938 183.58C113.938 186.261 114.205 188.5 114.739 190.295C115.284 192.08 116.051 193.42 117.04 194.318C118.028 195.205 119.188 195.648 120.517 195.648ZM151.644 201.767C148.712 201.756 146.189 201.034 144.076 199.602C141.973 198.17 140.354 196.097 139.218 193.381C138.093 190.665 137.536 187.398 137.547 183.58C137.547 179.773 138.11 176.528 139.235 173.847C140.371 171.165 141.991 169.125 144.093 167.727C146.206 166.318 148.723 165.614 151.644 165.614C154.564 165.614 157.076 166.318 159.178 167.727C161.292 169.136 162.917 171.182 164.053 173.864C165.189 176.534 165.752 179.773 165.741 183.58C165.741 187.409 165.172 190.682 164.036 193.398C162.911 196.114 161.297 198.187 159.195 199.619C157.093 201.051 154.576 201.767 151.644 201.767ZM151.644 195.648C153.644 195.648 155.241 194.642 156.434 192.631C157.627 190.619 158.218 187.602 158.206 183.58C158.206 180.932 157.934 178.727 157.388 176.966C156.854 175.205 156.093 173.881 155.104 172.994C154.127 172.108 152.973 171.665 151.644 171.665C149.655 171.665 148.064 172.659 146.871 174.648C145.678 176.636 145.076 179.614 145.064 183.58C145.064 186.261 145.331 188.5 145.866 190.295C146.411 192.08 147.178 193.42 148.167 194.318C149.155 195.205 150.314 195.648 151.644 195.648Z" fill="#EEEEEE"/>
<line x1="104" y1="216" x2="347" y2="216" stroke="#EEEEEE" stroke-width="2"/>
<path d="M104.71 95.9901V93.4545H116.656V95.9901H112.203V108H109.163V95.9901H104.71ZM119.793 108.206C119.097 108.206 118.477 108.085 117.932 107.844C117.388 107.598 116.957 107.235 116.64 106.757C116.327 106.274 116.171 105.673 116.171 104.953C116.171 104.347 116.282 103.838 116.505 103.426C116.727 103.014 117.03 102.683 117.414 102.432C117.797 102.181 118.233 101.991 118.721 101.864C119.213 101.736 119.729 101.646 120.269 101.594C120.904 101.527 121.415 101.466 121.803 101.409C122.191 101.348 122.473 101.258 122.648 101.139C122.823 101.021 122.911 100.846 122.911 100.614V100.571C122.911 100.121 122.769 99.7732 122.485 99.527C122.206 99.2808 121.808 99.1577 121.292 99.1577C120.747 99.1577 120.314 99.2784 119.992 99.5199C119.67 99.7566 119.457 100.055 119.353 100.415L116.555 100.188C116.697 99.5246 116.976 98.9517 117.393 98.4688C117.809 97.9811 118.347 97.607 119.005 97.3466C119.668 97.0814 120.435 96.9489 121.306 96.9489C121.912 96.9489 122.492 97.0199 123.046 97.1619C123.605 97.304 124.1 97.5241 124.53 97.8224C124.966 98.1207 125.309 98.5043 125.56 98.973C125.811 99.437 125.937 99.9934 125.937 100.642V108H123.067V106.487H122.982C122.807 106.828 122.573 107.129 122.279 107.389C121.985 107.645 121.633 107.846 121.221 107.993C120.809 108.135 120.333 108.206 119.793 108.206ZM120.66 106.118C121.105 106.118 121.498 106.03 121.839 105.855C122.18 105.675 122.447 105.434 122.641 105.131C122.835 104.828 122.932 104.484 122.932 104.101V102.943C122.838 103.005 122.707 103.062 122.542 103.114C122.381 103.161 122.198 103.206 121.995 103.249C121.791 103.286 121.588 103.322 121.384 103.355C121.18 103.384 120.996 103.41 120.83 103.433C120.475 103.485 120.165 103.568 119.9 103.682C119.635 103.795 119.429 103.949 119.282 104.143C119.135 104.333 119.062 104.57 119.062 104.854C119.062 105.266 119.211 105.58 119.509 105.798C119.812 106.011 120.196 106.118 120.66 106.118ZM127.941 108V93.4545H130.966V98.9233H131.059C131.191 98.6297 131.383 98.3314 131.634 98.0284C131.89 97.7206 132.221 97.465 132.628 97.2614C133.04 97.053 133.552 96.9489 134.162 96.9489C134.958 96.9489 135.692 97.1572 136.364 97.5739C137.036 97.9858 137.574 98.6084 137.976 99.4418C138.379 100.27 138.58 101.31 138.58 102.56C138.58 103.777 138.383 104.804 137.99 105.642C137.602 106.475 137.072 107.107 136.4 107.538C135.732 107.964 134.984 108.178 134.155 108.178C133.568 108.178 133.069 108.08 132.657 107.886C132.249 107.692 131.916 107.448 131.655 107.155C131.395 106.857 131.196 106.556 131.059 106.253H130.924V108H127.941ZM130.902 102.545C130.902 103.194 130.992 103.76 131.172 104.243C131.352 104.726 131.613 105.102 131.954 105.372C132.294 105.637 132.709 105.77 133.196 105.77C133.689 105.77 134.106 105.635 134.446 105.365C134.787 105.09 135.045 104.712 135.221 104.229C135.401 103.741 135.49 103.18 135.49 102.545C135.49 101.916 135.403 101.362 135.228 100.884C135.053 100.405 134.794 100.031 134.454 99.7614C134.113 99.4915 133.694 99.3565 133.196 99.3565C132.704 99.3565 132.287 99.4867 131.946 99.7472C131.61 100.008 131.352 100.377 131.172 100.855C130.992 101.333 130.902 101.897 130.902 102.545ZM143.224 93.4545V108H140.199V93.4545H143.224ZM150.22 108.213C149.097 108.213 148.132 107.986 147.322 107.531C146.517 107.072 145.897 106.423 145.461 105.585C145.025 104.742 144.808 103.746 144.808 102.595C144.808 101.473 145.025 100.488 145.461 99.6406C145.897 98.7931 146.51 98.1326 147.301 97.6591C148.096 97.1856 149.029 96.9489 150.099 96.9489C150.819 96.9489 151.489 97.0649 152.109 97.2969C152.734 97.5241 153.278 97.8674 153.742 98.3267C154.211 98.786 154.576 99.3636 154.836 100.06C155.096 100.751 155.227 101.561 155.227 102.489V103.32H146.015V101.445H152.379C152.379 101.009 152.284 100.623 152.095 100.287C151.905 99.9508 151.642 99.688 151.306 99.4986C150.975 99.3045 150.589 99.2074 150.149 99.2074C149.689 99.2074 149.282 99.3139 148.927 99.527C148.577 99.7353 148.302 100.017 148.103 100.372C147.904 100.723 147.802 101.113 147.798 101.544V103.327C147.798 103.866 147.897 104.333 148.096 104.726C148.3 105.119 148.586 105.422 148.955 105.635C149.325 105.848 149.763 105.955 150.269 105.955C150.605 105.955 150.913 105.907 151.193 105.812C151.472 105.718 151.711 105.576 151.91 105.386C152.109 105.197 152.26 104.965 152.364 104.69L155.163 104.875C155.021 105.547 154.73 106.134 154.289 106.636C153.854 107.134 153.29 107.522 152.599 107.801C151.912 108.076 151.119 108.213 150.22 108.213ZM173.253 93.4545V108H170.597L164.269 98.8452H164.162V108H161.087V93.4545H163.786L170.064 102.602H170.192V93.4545H173.253ZM182.333 103.355V97.0909H185.358V108H182.454V106.018H182.34C182.094 106.658 181.684 107.171 181.111 107.56C180.543 107.948 179.849 108.142 179.03 108.142C178.301 108.142 177.66 107.976 177.106 107.645C176.552 107.313 176.118 106.842 175.806 106.232C175.498 105.621 175.342 104.889 175.337 104.037V97.0909H178.363V103.497C178.367 104.141 178.54 104.65 178.881 105.024C179.222 105.398 179.679 105.585 180.252 105.585C180.616 105.585 180.957 105.502 181.275 105.337C181.592 105.166 181.847 104.915 182.042 104.584C182.24 104.252 182.338 103.843 182.333 103.355ZM187.378 108V97.0909H190.262V99.0156H190.39C190.617 98.3764 190.996 97.8722 191.526 97.5028C192.057 97.1335 192.691 96.9489 193.43 96.9489C194.178 96.9489 194.815 97.1359 195.34 97.5099C195.866 97.8793 196.216 98.3812 196.391 99.0156H196.505C196.727 98.3906 197.13 97.8911 197.712 97.517C198.299 97.1383 198.993 96.9489 199.793 96.9489C200.811 96.9489 201.637 97.2732 202.272 97.9219C202.911 98.5658 203.231 99.4796 203.231 100.663V108H200.212V101.26C200.212 100.654 200.051 100.199 199.729 99.8963C199.407 99.5933 199.005 99.4418 198.522 99.4418C197.973 99.4418 197.544 99.617 197.236 99.9673C196.929 100.313 196.775 100.77 196.775 101.338V108H193.842V101.196C193.842 100.661 193.688 100.235 193.38 99.9176C193.077 99.6004 192.677 99.4418 192.18 99.4418C191.843 99.4418 191.54 99.527 191.271 99.6974C191.005 99.8632 190.795 100.098 190.638 100.401C190.482 100.699 190.404 101.049 190.404 101.452V108H187.378ZM205.277 108V93.4545H208.303V98.9233H208.395C208.528 98.6297 208.72 98.3314 208.971 98.0284C209.226 97.7206 209.558 97.465 209.965 97.2614C210.377 97.053 210.888 96.9489 211.499 96.9489C212.295 96.9489 213.028 97.1572 213.701 97.5739C214.373 97.9858 214.911 98.6084 215.313 99.4418C215.715 100.27 215.917 101.31 215.917 102.56C215.917 103.777 215.72 104.804 215.327 105.642C214.939 106.475 214.409 107.107 213.736 107.538C213.069 107.964 212.321 108.178 211.492 108.178C210.905 108.178 210.405 108.08 209.993 107.886C209.586 107.692 209.252 107.448 208.992 107.155C208.732 106.857 208.533 106.556 208.395 106.253H208.26V108H205.277ZM208.239 102.545C208.239 103.194 208.329 103.76 208.509 104.243C208.689 104.726 208.949 105.102 209.29 105.372C209.631 105.637 210.045 105.77 210.533 105.77C211.026 105.77 211.442 105.635 211.783 105.365C212.124 105.09 212.382 104.712 212.557 104.229C212.737 103.741 212.827 103.18 212.827 102.545C212.827 101.916 212.74 101.362 212.564 100.884C212.389 100.405 212.131 100.031 211.79 99.7614C211.449 99.4915 211.03 99.3565 210.533 99.3565C210.041 99.3565 209.624 99.4867 209.283 99.7472C208.947 100.008 208.689 100.377 208.509 100.855C208.329 101.333 208.239 101.897 208.239 102.545ZM222.507 108.213C221.385 108.213 220.419 107.986 219.609 107.531C218.804 107.072 218.184 106.423 217.749 105.585C217.313 104.742 217.095 103.746 217.095 102.595C217.095 101.473 217.313 100.488 217.749 99.6406C218.184 98.7931 218.797 98.1326 219.588 97.6591C220.384 97.1856 221.316 96.9489 222.386 96.9489C223.106 96.9489 223.776 97.0649 224.396 97.2969C225.021 97.5241 225.566 97.8674 226.03 98.3267C226.499 98.786 226.863 99.3636 227.124 100.06C227.384 100.751 227.514 101.561 227.514 102.489V103.32H218.303V101.445H224.666C224.666 101.009 224.571 100.623 224.382 100.287C224.193 99.9508 223.93 99.688 223.594 99.4986C223.262 99.3045 222.876 99.2074 222.436 99.2074C221.977 99.2074 221.57 99.3139 221.214 99.527C220.864 99.7353 220.589 100.017 220.391 100.372C220.192 100.723 220.09 101.113 220.085 101.544V103.327C220.085 103.866 220.185 104.333 220.384 104.726C220.587 105.119 220.874 105.422 221.243 105.635C221.612 105.848 222.05 105.955 222.557 105.955C222.893 105.955 223.201 105.907 223.48 105.812C223.759 105.718 223.999 105.576 224.197 105.386C224.396 105.197 224.548 104.965 224.652 104.69L227.45 104.875C227.308 105.547 227.017 106.134 226.577 106.636C226.141 107.134 225.578 107.522 224.886 107.801C224.2 108.076 223.407 108.213 222.507 108.213ZM229.089 108V97.0909H232.022V98.9943H232.136C232.334 98.3172 232.668 97.8059 233.137 97.4602C233.606 97.1098 234.145 96.9347 234.756 96.9347C234.908 96.9347 235.071 96.9441 235.246 96.9631C235.421 96.982 235.575 97.008 235.708 97.0412V99.7259C235.566 99.6832 235.369 99.6454 235.118 99.6122C234.868 99.5791 234.638 99.5625 234.43 99.5625C233.984 99.5625 233.587 99.6596 233.236 99.8537C232.891 100.043 232.616 100.308 232.412 100.649C232.214 100.99 232.114 101.383 232.114 101.828V108H229.089Z" fill="#555555"/>
<path d="M105.057 136V127.273H110.324V128.21H106.114V131.159H110.051V132.097H106.114V135.062H110.392V136H105.057ZM113.098 132.062V136H112.092V129.455H113.064V130.477H113.149C113.303 130.145 113.536 129.878 113.848 129.676C114.161 129.472 114.564 129.369 115.058 129.369C115.501 129.369 115.889 129.46 116.222 129.642C116.554 129.821 116.813 130.094 116.997 130.46C117.182 130.824 117.274 131.284 117.274 131.841V136H116.268V131.909C116.268 131.395 116.135 130.994 115.868 130.707C115.601 130.418 115.234 130.273 114.768 130.273C114.447 130.273 114.161 130.342 113.908 130.482C113.658 130.621 113.46 130.824 113.315 131.091C113.17 131.358 113.098 131.682 113.098 132.062ZM121.958 129.455V130.307H118.566V129.455H121.958ZM119.555 127.886H120.561V134.125C120.561 134.409 120.602 134.622 120.684 134.764C120.77 134.903 120.877 134.997 121.008 135.045C121.142 135.091 121.282 135.114 121.43 135.114C121.541 135.114 121.632 135.108 121.703 135.097C121.774 135.082 121.831 135.071 121.873 135.062L122.078 135.966C122.01 135.991 121.914 136.017 121.792 136.043C121.67 136.071 121.515 136.085 121.328 136.085C121.044 136.085 120.765 136.024 120.493 135.902C120.223 135.78 119.998 135.594 119.819 135.344C119.643 135.094 119.555 134.778 119.555 134.398V127.886ZM126.145 136.136C125.515 136.136 124.971 135.997 124.513 135.719C124.059 135.438 123.708 135.045 123.461 134.543C123.216 134.037 123.094 133.449 123.094 132.778C123.094 132.108 123.216 131.517 123.461 131.006C123.708 130.491 124.051 130.091 124.492 129.804C124.935 129.514 125.452 129.369 126.043 129.369C126.384 129.369 126.721 129.426 127.053 129.54C127.385 129.653 127.688 129.838 127.961 130.094C128.233 130.347 128.451 130.682 128.613 131.099C128.775 131.517 128.855 132.031 128.855 132.642V133.068H123.81V132.199H127.833C127.833 131.83 127.759 131.5 127.611 131.21C127.466 130.92 127.259 130.692 126.989 130.524C126.722 130.357 126.407 130.273 126.043 130.273C125.642 130.273 125.296 130.372 125.003 130.571C124.713 130.767 124.49 131.023 124.334 131.338C124.178 131.653 124.1 131.991 124.1 132.352V132.932C124.1 133.426 124.185 133.845 124.355 134.189C124.529 134.53 124.769 134.79 125.076 134.969C125.382 135.145 125.739 135.233 126.145 135.233C126.409 135.233 126.648 135.196 126.861 135.122C127.077 135.045 127.263 134.932 127.419 134.781C127.576 134.628 127.696 134.437 127.782 134.21L128.753 134.483C128.651 134.812 128.479 135.102 128.238 135.352C127.996 135.599 127.698 135.793 127.343 135.932C126.988 136.068 126.588 136.136 126.145 136.136ZM130.385 136V129.455H131.357V130.443H131.425C131.544 130.119 131.76 129.857 132.073 129.655C132.385 129.453 132.738 129.352 133.13 129.352C133.203 129.352 133.296 129.354 133.407 129.357C133.517 129.359 133.601 129.364 133.658 129.369V130.392C133.624 130.384 133.546 130.371 133.424 130.354C133.304 130.334 133.178 130.324 133.044 130.324C132.726 130.324 132.442 130.391 132.192 130.524C131.945 130.655 131.749 130.837 131.604 131.07C131.462 131.3 131.391 131.562 131.391 131.858V136H130.385ZM141.072 129.455V130.307H137.68V129.455H141.072ZM138.668 127.886H139.674V134.125C139.674 134.409 139.715 134.622 139.798 134.764C139.883 134.903 139.991 134.997 140.121 135.045C140.255 135.091 140.396 135.114 140.543 135.114C140.654 135.114 140.745 135.108 140.816 135.097C140.887 135.082 140.944 135.071 140.987 135.062L141.191 135.966C141.123 135.991 141.028 136.017 140.906 136.043C140.783 136.071 140.629 136.085 140.441 136.085C140.157 136.085 139.879 136.024 139.606 135.902C139.336 135.78 139.112 135.594 138.933 135.344C138.756 135.094 138.668 134.778 138.668 134.398V127.886ZM143.731 132.062V136H142.725V127.273H143.731V130.477H143.816C143.969 130.139 144.2 129.871 144.506 129.672C144.816 129.47 145.228 129.369 145.742 129.369C146.188 129.369 146.579 129.459 146.914 129.638C147.249 129.814 147.509 130.085 147.694 130.452C147.881 130.815 147.975 131.278 147.975 131.841V136H146.969V131.909C146.969 131.389 146.835 130.987 146.565 130.703C146.298 130.416 145.927 130.273 145.452 130.273C145.123 130.273 144.827 130.342 144.566 130.482C144.308 130.621 144.103 130.824 143.952 131.091C143.805 131.358 143.731 131.682 143.731 132.062ZM152.559 136.136C151.929 136.136 151.385 135.997 150.927 135.719C150.473 135.438 150.122 135.045 149.875 134.543C149.63 134.037 149.508 133.449 149.508 132.778C149.508 132.108 149.63 131.517 149.875 131.006C150.122 130.491 150.466 130.091 150.906 129.804C151.349 129.514 151.866 129.369 152.457 129.369C152.798 129.369 153.135 129.426 153.467 129.54C153.799 129.653 154.102 129.838 154.375 130.094C154.647 130.347 154.865 130.682 155.027 131.099C155.189 131.517 155.27 132.031 155.27 132.642V133.068H150.224V132.199H154.247C154.247 131.83 154.173 131.5 154.025 131.21C153.88 130.92 153.673 130.692 153.403 130.524C153.136 130.357 152.821 130.273 152.457 130.273C152.056 130.273 151.71 130.372 151.417 130.571C151.127 130.767 150.904 131.023 150.748 131.338C150.592 131.653 150.514 131.991 150.514 132.352V132.932C150.514 133.426 150.599 133.845 150.77 134.189C150.943 134.53 151.183 134.79 151.49 134.969C151.797 135.145 152.153 135.233 152.559 135.233C152.824 135.233 153.062 135.196 153.275 135.122C153.491 135.045 153.677 134.932 153.833 134.781C153.99 134.628 154.11 134.437 154.196 134.21L155.167 134.483C155.065 134.812 154.893 135.102 154.652 135.352C154.41 135.599 154.112 135.793 153.757 135.932C153.402 136.068 153.002 136.136 152.559 136.136ZM163.021 129.455V130.307H159.629V129.455H163.021ZM160.618 127.886H161.623V134.125C161.623 134.409 161.664 134.622 161.747 134.764C161.832 134.903 161.94 134.997 162.071 135.045C162.204 135.091 162.345 135.114 162.493 135.114C162.603 135.114 162.694 135.108 162.765 135.097C162.836 135.082 162.893 135.071 162.936 135.062L163.14 135.966C163.072 135.991 162.977 136.017 162.855 136.043C162.733 136.071 162.578 136.085 162.39 136.085C162.106 136.085 161.828 136.024 161.555 135.902C161.285 135.78 161.061 135.594 160.882 135.344C160.706 135.094 160.618 134.778 160.618 134.398V127.886ZM166.46 136.153C166.045 136.153 165.669 136.075 165.331 135.919C164.993 135.76 164.724 135.531 164.525 135.233C164.326 134.932 164.227 134.568 164.227 134.142C164.227 133.767 164.301 133.463 164.449 133.23C164.596 132.994 164.794 132.81 165.041 132.676C165.288 132.543 165.561 132.443 165.859 132.378C166.16 132.31 166.463 132.256 166.767 132.216C167.164 132.165 167.487 132.126 167.734 132.101C167.984 132.072 168.166 132.026 168.279 131.96C168.396 131.895 168.454 131.781 168.454 131.619V131.585C168.454 131.165 168.339 130.838 168.109 130.605C167.882 130.372 167.537 130.256 167.074 130.256C166.593 130.256 166.217 130.361 165.944 130.571C165.672 130.781 165.48 131.006 165.369 131.244L164.414 130.903C164.585 130.506 164.812 130.196 165.096 129.974C165.383 129.75 165.696 129.594 166.034 129.506C166.375 129.415 166.71 129.369 167.039 129.369C167.25 129.369 167.491 129.395 167.764 129.446C168.039 129.494 168.305 129.595 168.561 129.749C168.819 129.902 169.034 130.134 169.204 130.443C169.375 130.753 169.46 131.168 169.46 131.688V136H168.454V135.114H168.403C168.335 135.256 168.221 135.408 168.062 135.57C167.903 135.732 167.691 135.869 167.427 135.983C167.163 136.097 166.841 136.153 166.46 136.153ZM166.613 135.25C167.011 135.25 167.346 135.172 167.619 135.016C167.895 134.859 168.102 134.658 168.241 134.411C168.383 134.163 168.454 133.903 168.454 133.631V132.71C168.412 132.761 168.318 132.808 168.173 132.851C168.031 132.891 167.866 132.926 167.679 132.957C167.494 132.986 167.314 133.011 167.137 133.034C166.964 133.054 166.824 133.071 166.716 133.085C166.454 133.119 166.21 133.175 165.983 133.251C165.758 133.325 165.576 133.437 165.437 133.588C165.301 133.736 165.233 133.937 165.233 134.193C165.233 134.543 165.362 134.807 165.62 134.986C165.882 135.162 166.213 135.25 166.613 135.25ZM171.432 136V127.273H172.438V130.494H172.523C172.597 130.381 172.699 130.236 172.83 130.06C172.963 129.881 173.153 129.722 173.401 129.582C173.651 129.44 173.989 129.369 174.415 129.369C174.966 129.369 175.452 129.507 175.872 129.783C176.293 130.058 176.621 130.449 176.857 130.955C177.092 131.46 177.21 132.057 177.21 132.744C177.21 133.438 177.092 134.038 176.857 134.547C176.621 135.053 176.294 135.445 175.876 135.723C175.459 135.999 174.977 136.136 174.432 136.136C174.011 136.136 173.675 136.067 173.422 135.928C173.169 135.786 172.974 135.625 172.838 135.446C172.702 135.264 172.597 135.114 172.523 134.994H172.403V136H171.432ZM172.42 132.727C172.42 133.222 172.493 133.658 172.638 134.036C172.783 134.411 172.994 134.705 173.273 134.918C173.551 135.128 173.892 135.233 174.295 135.233C174.716 135.233 175.067 135.122 175.348 134.901C175.632 134.676 175.845 134.375 175.987 133.997C176.132 133.616 176.205 133.193 176.205 132.727C176.205 132.267 176.134 131.852 175.991 131.483C175.852 131.111 175.641 130.817 175.357 130.601C175.075 130.382 174.722 130.273 174.295 130.273C173.886 130.273 173.543 130.376 173.264 130.584C172.986 130.788 172.776 131.075 172.634 131.445C172.491 131.811 172.42 132.239 172.42 132.727ZM179.754 127.273V136H178.749V127.273H179.754ZM184.341 136.136C183.71 136.136 183.166 135.997 182.708 135.719C182.254 135.438 181.903 135.045 181.656 134.543C181.412 134.037 181.289 133.449 181.289 132.778C181.289 132.108 181.412 131.517 181.656 131.006C181.903 130.491 182.247 130.091 182.687 129.804C183.13 129.514 183.647 129.369 184.238 129.369C184.579 129.369 184.916 129.426 185.248 129.54C185.581 129.653 185.883 129.838 186.156 130.094C186.429 130.347 186.646 130.682 186.808 131.099C186.97 131.517 187.051 132.031 187.051 132.642V133.068H182.005V132.199H186.028C186.028 131.83 185.954 131.5 185.806 131.21C185.662 130.92 185.454 130.692 185.184 130.524C184.917 130.357 184.602 130.273 184.238 130.273C183.838 130.273 183.491 130.372 183.199 130.571C182.909 130.767 182.686 131.023 182.529 131.338C182.373 131.653 182.295 131.991 182.295 132.352V132.932C182.295 133.426 182.38 133.845 182.551 134.189C182.724 134.53 182.964 134.79 183.271 134.969C183.578 135.145 183.934 135.233 184.341 135.233C184.605 135.233 184.843 135.196 185.056 135.122C185.272 135.045 185.458 134.932 185.615 134.781C185.771 134.628 185.892 134.437 185.977 134.21L186.949 134.483C186.846 134.812 186.674 135.102 186.433 135.352C186.191 135.599 185.893 135.793 185.538 135.932C185.183 136.068 184.784 136.136 184.341 136.136ZM192.961 132.062V136H191.956V129.455H192.927V130.477H193.012C193.166 130.145 193.399 129.878 193.711 129.676C194.024 129.472 194.427 129.369 194.922 129.369C195.365 129.369 195.752 129.46 196.085 129.642C196.417 129.821 196.676 130.094 196.86 130.46C197.045 130.824 197.137 131.284 197.137 131.841V136H196.132V131.909C196.132 131.395 195.998 130.994 195.731 130.707C195.464 130.418 195.098 130.273 194.632 130.273C194.311 130.273 194.024 130.342 193.771 130.482C193.521 130.621 193.324 130.824 193.179 131.091C193.034 131.358 192.961 131.682 192.961 132.062ZM203.1 133.324V129.455H204.106V136H203.1V134.892H203.032C202.879 135.224 202.64 135.507 202.316 135.74C201.992 135.97 201.583 136.085 201.089 136.085C200.68 136.085 200.316 135.996 199.998 135.817C199.68 135.635 199.43 135.362 199.248 134.999C199.066 134.632 198.975 134.17 198.975 133.614V129.455H199.981V133.545C199.981 134.023 200.114 134.403 200.381 134.688C200.651 134.972 200.995 135.114 201.413 135.114C201.663 135.114 201.917 135.05 202.175 134.922C202.437 134.794 202.656 134.598 202.832 134.334C203.011 134.07 203.1 133.733 203.1 133.324ZM205.948 136V129.455H206.919V130.477H207.005C207.141 130.128 207.361 129.857 207.665 129.663C207.969 129.467 208.334 129.369 208.76 129.369C209.192 129.369 209.551 129.467 209.838 129.663C210.128 129.857 210.354 130.128 210.516 130.477H210.584C210.752 130.139 211.003 129.871 211.338 129.672C211.674 129.47 212.076 129.369 212.544 129.369C213.13 129.369 213.608 129.553 213.98 129.919C214.353 130.283 214.539 130.849 214.539 131.619V136H213.533V131.619C213.533 131.136 213.401 130.791 213.137 130.584C212.873 130.376 212.561 130.273 212.203 130.273C211.743 130.273 211.387 130.412 211.134 130.69C210.881 130.966 210.755 131.315 210.755 131.739V136H209.732V131.517C209.732 131.145 209.611 130.845 209.37 130.618C209.128 130.388 208.817 130.273 208.436 130.273C208.175 130.273 207.931 130.342 207.703 130.482C207.479 130.621 207.297 130.814 207.158 131.061C207.022 131.305 206.953 131.588 206.953 131.909V136H205.948ZM216.514 136V127.273H217.52V130.494H217.605C217.679 130.381 217.781 130.236 217.912 130.06C218.045 129.881 218.235 129.722 218.483 129.582C218.733 129.44 219.071 129.369 219.497 129.369C220.048 129.369 220.534 129.507 220.954 129.783C221.375 130.058 221.703 130.449 221.939 130.955C222.174 131.46 222.292 132.057 222.292 132.744C222.292 133.438 222.174 134.038 221.939 134.547C221.703 135.053 221.376 135.445 220.958 135.723C220.541 135.999 220.059 136.136 219.514 136.136C219.093 136.136 218.757 136.067 218.504 135.928C218.251 135.786 218.056 135.625 217.92 135.446C217.784 135.264 217.679 135.114 217.605 134.994H217.485V136H216.514ZM217.502 132.727C217.502 133.222 217.575 133.658 217.72 134.036C217.865 134.411 218.076 134.705 218.355 134.918C218.633 135.128 218.974 135.233 219.377 135.233C219.798 135.233 220.149 135.122 220.43 134.901C220.714 134.676 220.927 134.375 221.069 133.997C221.214 133.616 221.287 133.193 221.287 132.727C221.287 132.267 221.216 131.852 221.074 131.483C220.934 131.111 220.723 130.817 220.439 130.601C220.157 130.382 219.804 130.273 219.377 130.273C218.968 130.273 218.625 130.376 218.346 130.584C218.068 130.788 217.858 131.075 217.716 131.445C217.574 131.811 217.502 132.239 217.502 132.727ZM226.575 136.136C225.944 136.136 225.4 135.997 224.943 135.719C224.488 135.438 224.137 135.045 223.89 134.543C223.646 134.037 223.524 133.449 223.524 132.778C223.524 132.108 223.646 131.517 223.89 131.006C224.137 130.491 224.481 130.091 224.922 129.804C225.365 129.514 225.882 129.369 226.473 129.369C226.814 129.369 227.15 129.426 227.483 129.54C227.815 129.653 228.118 129.838 228.39 130.094C228.663 130.347 228.88 130.682 229.042 131.099C229.204 131.517 229.285 132.031 229.285 132.642V133.068H224.24V132.199H228.262C228.262 131.83 228.189 131.5 228.041 131.21C227.896 130.92 227.689 130.692 227.419 130.524C227.152 130.357 226.836 130.273 226.473 130.273C226.072 130.273 225.725 130.372 225.433 130.571C225.143 130.767 224.92 131.023 224.764 131.338C224.608 131.653 224.529 131.991 224.529 132.352V132.932C224.529 133.426 224.615 133.845 224.785 134.189C224.958 134.53 225.199 134.79 225.505 134.969C225.812 135.145 226.169 135.233 226.575 135.233C226.839 135.233 227.078 135.196 227.291 135.122C227.507 135.045 227.693 134.932 227.849 134.781C228.005 134.628 228.126 134.437 228.211 134.21L229.183 134.483C229.081 134.812 228.909 135.102 228.667 135.352C228.426 135.599 228.127 135.793 227.772 135.932C227.417 136.068 227.018 136.136 226.575 136.136ZM230.815 136V129.455H231.787V130.443H231.855C231.974 130.119 232.19 129.857 232.502 129.655C232.815 129.453 233.167 129.352 233.559 129.352C233.633 129.352 233.725 129.354 233.836 129.357C233.947 129.359 234.031 129.364 234.088 129.369V130.392C234.054 130.384 233.975 130.371 233.853 130.354C233.734 130.334 233.608 130.324 233.474 130.324C233.156 130.324 232.872 130.391 232.622 130.524C232.375 130.655 232.179 130.837 232.034 131.07C231.892 131.3 231.821 131.562 231.821 131.858V136H230.815ZM235.263 136.068C235.053 136.068 234.872 135.993 234.722 135.842C234.571 135.692 234.496 135.511 234.496 135.301C234.496 135.091 234.571 134.911 234.722 134.76C234.872 134.609 235.053 134.534 235.263 134.534C235.473 134.534 235.653 134.609 235.804 134.76C235.955 134.911 236.03 135.091 236.03 135.301C236.03 135.44 235.994 135.568 235.923 135.685C235.855 135.801 235.763 135.895 235.646 135.966C235.533 136.034 235.405 136.068 235.263 136.068Z" fill="#202223"/>
<rect x="104" y="246" width="243" height="40" rx="8" fill="#FFCC00"/>
<path d="M204.724 264.129H203.173C203.113 263.798 203.002 263.506 202.839 263.254C202.677 263.002 202.478 262.789 202.243 262.613C202.008 262.437 201.744 262.305 201.452 262.215C201.164 262.126 200.857 262.081 200.533 262.081C199.946 262.081 199.421 262.228 198.957 262.523C198.496 262.818 198.131 263.251 197.863 263.821C197.598 264.391 197.465 265.087 197.465 265.909C197.465 266.738 197.598 267.437 197.863 268.007C198.131 268.577 198.498 269.008 198.962 269.3C199.426 269.591 199.948 269.737 200.528 269.737C200.849 269.737 201.154 269.694 201.442 269.608C201.734 269.518 201.998 269.388 202.233 269.215C202.468 269.043 202.667 268.832 202.83 268.584C202.995 268.332 203.11 268.044 203.173 267.719L204.724 267.724C204.641 268.224 204.48 268.685 204.241 269.106C204.006 269.523 203.703 269.885 203.332 270.19C202.964 270.491 202.543 270.725 202.069 270.891C201.595 271.056 201.078 271.139 200.518 271.139C199.636 271.139 198.851 270.93 198.161 270.513C197.472 270.092 196.928 269.49 196.531 268.708C196.136 267.926 195.939 266.993 195.939 265.909C195.939 264.822 196.138 263.889 196.536 263.11C196.933 262.328 197.477 261.728 198.166 261.31C198.856 260.889 199.639 260.679 200.518 260.679C201.058 260.679 201.562 260.757 202.029 260.913C202.5 261.065 202.922 261.29 203.297 261.589C203.671 261.884 203.981 262.245 204.227 262.673C204.472 263.097 204.638 263.582 204.724 264.129ZM209.659 271.154C208.943 271.154 208.319 270.99 207.785 270.662C207.251 270.334 206.837 269.875 206.542 269.285C206.247 268.695 206.1 268.005 206.1 267.217C206.1 266.424 206.247 265.732 206.542 265.138C206.837 264.545 207.251 264.085 207.785 263.756C208.319 263.428 208.943 263.264 209.659 263.264C210.375 263.264 211 263.428 211.534 263.756C212.067 264.085 212.481 264.545 212.776 265.138C213.071 265.732 213.219 266.424 213.219 267.217C213.219 268.005 213.071 268.695 212.776 269.285C212.481 269.875 212.067 270.334 211.534 270.662C211 270.99 210.375 271.154 209.659 271.154ZM209.664 269.906C210.128 269.906 210.513 269.784 210.818 269.538C211.123 269.293 211.348 268.967 211.494 268.559C211.643 268.151 211.718 267.702 211.718 267.212C211.718 266.724 211.643 266.277 211.494 265.869C211.348 265.458 211.123 265.129 210.818 264.88C210.513 264.631 210.128 264.507 209.664 264.507C209.197 264.507 208.809 264.631 208.501 264.88C208.196 265.129 207.969 265.458 207.82 265.869C207.674 266.277 207.601 266.724 207.601 267.212C207.601 267.702 207.674 268.151 207.82 268.559C207.969 268.967 208.196 269.293 208.501 269.538C208.809 269.784 209.197 269.906 209.664 269.906ZM216.365 266.466V271H214.878V263.364H216.305V264.607H216.4C216.575 264.202 216.85 263.877 217.225 263.632C217.603 263.387 218.078 263.264 218.652 263.264C219.172 263.264 219.628 263.374 220.019 263.592C220.41 263.808 220.713 264.129 220.929 264.557C221.144 264.984 221.252 265.513 221.252 266.143V271H219.765V266.322C219.765 265.768 219.621 265.336 219.333 265.024C219.044 264.709 218.648 264.552 218.145 264.552C217.8 264.552 217.493 264.626 217.225 264.776C216.96 264.925 216.749 265.143 216.593 265.432C216.441 265.717 216.365 266.062 216.365 266.466ZM226.81 263.364V264.557H222.639V263.364H226.81ZM223.757 261.534H225.244V268.758C225.244 269.046 225.287 269.263 225.373 269.409C225.459 269.552 225.57 269.649 225.706 269.702C225.846 269.752 225.996 269.777 226.159 269.777C226.278 269.777 226.382 269.769 226.472 269.752C226.561 269.736 226.631 269.722 226.681 269.712L226.949 270.94C226.863 270.973 226.74 271.007 226.581 271.04C226.422 271.076 226.223 271.096 225.985 271.099C225.594 271.106 225.229 271.036 224.891 270.891C224.553 270.745 224.279 270.519 224.071 270.214C223.862 269.91 223.757 269.527 223.757 269.066V261.534ZM228.454 271V263.364H229.941V271H228.454ZM229.205 262.185C228.947 262.185 228.724 262.099 228.539 261.927C228.357 261.751 228.265 261.542 228.265 261.3C228.265 261.055 228.357 260.846 228.539 260.674C228.724 260.498 228.947 260.411 229.205 260.411C229.464 260.411 229.684 260.498 229.866 260.674C230.052 260.846 230.145 261.055 230.145 261.3C230.145 261.542 230.052 261.751 229.866 261.927C229.684 262.099 229.464 262.185 229.205 262.185ZM233.427 266.466V271H231.941V263.364H233.368V264.607H233.462C233.638 264.202 233.913 263.877 234.287 263.632C234.665 263.387 235.141 263.264 235.714 263.264C236.234 263.264 236.69 263.374 237.081 263.592C237.472 263.808 237.776 264.129 237.991 264.557C238.207 264.984 238.314 265.513 238.314 266.143V271H236.828V266.322C236.828 265.768 236.684 265.336 236.395 265.024C236.107 264.709 235.711 264.552 235.207 264.552C234.862 264.552 234.556 264.626 234.287 264.776C234.022 264.925 233.812 265.143 233.656 265.432C233.503 265.717 233.427 266.062 233.427 266.466ZM245.145 267.833V263.364H246.637V271H245.175V269.678H245.096C244.92 270.085 244.638 270.425 244.25 270.697C243.866 270.965 243.387 271.099 242.814 271.099C242.323 271.099 241.889 270.992 241.511 270.776C241.136 270.558 240.842 270.234 240.626 269.807C240.414 269.379 240.308 268.851 240.308 268.221V263.364H241.794V268.042C241.794 268.562 241.939 268.977 242.227 269.285C242.515 269.593 242.89 269.747 243.35 269.747C243.629 269.747 243.906 269.678 244.181 269.538C244.459 269.399 244.69 269.189 244.872 268.907C245.057 268.625 245.149 268.267 245.145 267.833ZM251.925 271.154C251.173 271.154 250.525 270.993 249.981 270.672C249.441 270.347 249.023 269.891 248.729 269.305C248.437 268.715 248.291 268.024 248.291 267.232C248.291 266.449 248.437 265.76 248.729 265.163C249.023 264.567 249.434 264.101 249.961 263.766C250.492 263.432 251.112 263.264 251.821 263.264C252.252 263.264 252.669 263.335 253.074 263.478C253.478 263.621 253.841 263.844 254.162 264.149C254.484 264.454 254.738 264.85 254.923 265.337C255.109 265.821 255.202 266.41 255.202 267.102V267.629H249.131V266.516H253.745C253.745 266.125 253.665 265.778 253.506 265.477C253.347 265.172 253.123 264.931 252.835 264.756C252.55 264.58 252.215 264.492 251.831 264.492C251.413 264.492 251.049 264.595 250.737 264.8C250.429 265.003 250.19 265.268 250.021 265.596C249.855 265.921 249.773 266.274 249.773 266.655V267.525C249.773 268.035 249.862 268.469 250.041 268.827C250.223 269.185 250.477 269.459 250.802 269.648C251.126 269.833 251.506 269.926 251.94 269.926C252.222 269.926 252.479 269.886 252.711 269.807C252.943 269.724 253.143 269.601 253.312 269.439C253.481 269.277 253.611 269.076 253.7 268.837L255.107 269.091C254.994 269.505 254.792 269.868 254.501 270.18C254.212 270.488 253.849 270.728 253.412 270.901C252.978 271.07 252.482 271.154 251.925 271.154Z" fill="#121212"/>
</g>
<defs>
<filter id="filter0_dd_10946_16349" x="0" y="0" width="451" height="408" filterUnits="userSpaceOnUse" color-interpolation-filters="sRGB">
<feFlood flood-opacity="0" result="BackgroundImageFix"/>
<feColorMatrix in="SourceAlpha" type="matrix" values="0 0 0 0 0 0 0 0 0 0 0 0 0 0 0 0 0 0 127 0" result="hardAlpha"/>
<feMorphology radius="4" operator="erode" in="SourceAlpha" result="effect1_dropShadow_10946_16349"/>
<feOffset dy="18"/>
<feGaussianBlur stdDeviation="44"/>
<feColorMatrix type="matrix" values="0 0 0 0 0.0941176 0 0 0 0 0.152941 0 0 0 0 0.294118 0 0 0 0.14 0"/>
<feBlend mode="normal" in2="BackgroundImageFix" result="effect1_dropShadow_10946_16349"/>
<feColorMatrix in="SourceAlpha" type="matrix" values="0 0 0 0 0 0 0 0 0 0 0 0 0 0 0 0 0 0 127 0" result="hardAlpha"/>
<feMorphology radius="6" operator="erode" in="SourceAlpha" result="effect2_dropShadow_10946_16349"/>
<feOffset dy="8"/>
<feGaussianBlur stdDeviation="14"/>
<feColorMatrix type="matrix" values="0 0 0 0 0.0941176 0 0 0 0 0.152941 0 0 0 0 0.294118 0 0 0 0.12 0"/>
<feBlend mode="normal" in2="effect1_dropShadow_10946_16349" result="effect2_dropShadow_10946_16349"/>
<feBlend mode="normal" in="SourceGraphic" in2="effect2_dropShadow_10946_16349" result="shape"/>
</filter>
</defs>
</svg>
