<svg width="90" height="90" viewBox="0 0 90 90" fill="none" xmlns="http://www.w3.org/2000/svg">
<path d="M45 89C69.3005 89 89 69.3005 89 45C89 20.6995 69.3005 1 45 1C20.6995 1 1 20.6995 1 45C1 69.3005 20.6995 89 45 89Z" fill="white" stroke="#231F20" stroke-width="0.869875" stroke-miterlimit="10"/>
<path d="M40.0774 51.0903C40.0669 47.7836 40.5187 45.232 41.4326 43.4354C42.0937 42.0042 43.7001 40.3004 46.2517 38.324C47.0868 37.6942 47.6922 37.2216 48.068 36.9061C48.4909 36.5458 48.8879 36.1563 49.2563 35.7405C49.6873 35.261 50.0647 34.736 50.3819 34.1747C50.9117 33.373 51.1921 32.4322 51.1874 31.4711C51.1746 27.6634 48.971 25.7671 44.5763 25.7822C42.0653 25.7914 40.216 26.4149 39.0283 27.6524C37.8406 28.8899 37.1882 30.9533 37.0711 33.8424L29.0978 33.8703C29.0816 28.9746 30.4084 25.2765 33.0784 22.7759C35.7483 20.2753 39.614 19.0128 44.6755 18.9884C49.2789 18.9734 52.9237 19.9969 55.6098 22.0591C58.296 24.1213 59.6455 27.0359 59.6582 30.8031C59.671 34.8625 57.5067 38.5322 53.1655 41.8122C50.7878 43.5775 49.2656 45.0476 48.5986 46.2225C48.0187 47.1863 47.7288 48.7985 47.7288 51.059L40.0774 51.0903ZM39.371 64.716L39.3397 55.7372L48.5064 55.7059L48.536 64.6847L39.371 64.716Z" stroke="black" stroke-width="0.873921" stroke-linecap="round" stroke-linejoin="round"/>
</svg>
