<svg width="72" height="72" viewBox="0 0 72 72" fill="none" xmlns="http://www.w3.org/2000/svg">
<path d="M30.2781 70.6811C46.4479 70.6811 59.5561 57.5729 59.5561 41.4031C59.5561 25.2332 46.4479 12.125 30.2781 12.125C14.1082 12.125 1 25.2332 1 41.4031C1 57.5729 14.1082 70.6811 30.2781 70.6811Z" fill="white" stroke="black" stroke-width="1.73059" stroke-miterlimit="10" stroke-linecap="round"/>
<path d="M30.2764 58.1485C39.5245 58.1485 47.0216 50.6515 47.0216 41.4034C47.0216 32.1553 39.5245 24.6582 30.2764 24.6582C21.0283 24.6582 13.5312 32.1553 13.5312 41.4034C13.5312 50.6515 21.0283 58.1485 30.2764 58.1485Z" fill="white" stroke="black" stroke-width="1.73059" stroke-miterlimit="10" stroke-linecap="round"/>
<path d="M30.2774 46.293C32.9784 46.293 35.168 44.1034 35.168 41.4024C35.168 38.7013 32.9784 36.5117 30.2774 36.5117C27.5763 36.5117 25.3867 38.7013 25.3867 41.4024C25.3867 44.1034 27.5763 46.293 30.2774 46.293Z" fill="white" stroke="black" stroke-width="1.73059" stroke-miterlimit="10" stroke-linecap="round"/>
<path d="M30.2773 41.4026L55.2382 16.3184" stroke="black" stroke-width="1.73059" stroke-miterlimit="10" stroke-linecap="round"/>
<path d="M57.8235 12.9515L57.8978 13.6117L58.5548 13.7102L69.5192 15.3546L53.8316 28.5952L45.7776 26.0062L44.1827 17.7425L56.6112 2.17126L57.8235 12.9515Z" fill="white" stroke="black" stroke-width="1.73"/>
</svg>
