<svg width="131" height="90" viewBox="0 0 131 90" fill="none" xmlns="http://www.w3.org/2000/svg">
<path d="M97.9987 1H2.66829C1.74692 1 1 1.74692 1 2.66829V76.335C1 77.2563 1.74692 78.0033 2.66829 78.0033H97.9987C98.9201 78.0033 99.667 77.2563 99.667 76.335V2.66829C99.667 1.74692 98.9201 1 97.9987 1Z" fill="white" stroke="#010101" stroke-width="0.802836" stroke-miterlimit="10"/>
<path d="M30.0331 24.6191H11.51C10.4538 24.6191 9.59766 25.4753 9.59766 26.5315V45.8558C9.59766 46.9119 10.4538 47.7681 11.51 47.7681H30.0331C31.0892 47.7681 31.9454 46.9119 31.9454 45.8558V26.5315C31.9454 25.4753 31.0892 24.6191 30.0331 24.6191Z" fill="white" stroke="#010101" stroke-width="0.802836" stroke-miterlimit="10"/>
<path d="M84.4579 24.9141H37.0215V29.4099H84.4579V24.9141Z" fill="white" stroke="#010101" stroke-width="0.802836" stroke-miterlimit="10"/>
<path d="M84.4579 34.0938H37.0215V38.5896H84.4579V34.0938Z" fill="white" stroke="#010101" stroke-width="0.802836" stroke-miterlimit="10"/>
<path d="M53.1103 43.2734H37.0215V47.7693H53.1103V43.2734Z" fill="white" stroke="#010101" stroke-width="0.802836" stroke-miterlimit="10"/>
<path d="M1 13.6465H99.6654" stroke="#010101" stroke-width="0.802836" stroke-miterlimit="10"/>
<path d="M129.999 53.2012H84.4473V89.0269H129.999V53.2012Z" fill="white" stroke="#707070" stroke-width="1.08692" stroke-linecap="round" stroke-linejoin="round"/>
<path d="M104.897 19.2988H109.554C111.76 19.2988 113.945 19.7334 115.984 20.5778C118.022 21.4222 119.874 22.6598 121.435 24.22C122.995 25.7801 124.232 27.6324 125.077 29.6708C125.921 31.7093 126.356 33.8942 126.356 36.1006V52.692H88.0957V36.1006C88.0957 31.6445 89.8659 27.3709 93.0168 24.22C96.1678 21.069 100.441 19.2988 104.897 19.2988V19.2988Z" stroke="#707070" stroke-width="1.08692" stroke-linecap="round" stroke-linejoin="round"/>
<path d="M111.422 68.8025C111.422 68.0315 111.219 67.2742 110.833 66.6068C110.447 65.9394 109.892 65.3855 109.224 65.0009C108.555 64.6163 107.798 64.4145 107.027 64.416C106.256 64.4175 105.499 64.6222 104.832 65.0093C104.165 65.3965 103.613 65.9526 103.229 66.6215C102.846 67.2904 102.646 68.0485 102.648 68.8194C102.651 69.5904 102.857 70.347 103.246 71.0129C103.634 71.6789 104.191 72.2307 104.861 72.6128V77.8119H109.312V72.5437C109.955 72.1536 110.487 71.6045 110.857 70.9492C111.226 70.294 111.421 69.5547 111.422 68.8025V68.8025Z" stroke="black" stroke-width="1.08692" stroke-linecap="round" stroke-linejoin="round"/>
</svg>
