<svg width="98" height="90" viewBox="0 0 98 90" fill="none" xmlns="http://www.w3.org/2000/svg">
<path d="M96.1369 47.8223L41.6705 29.9434L4.43016 59.3737C3.46959 60.1326 2.67345 61.0789 2.09018 62.1552C1.5069 63.2315 1.1487 64.4151 1.03734 65.6342C0.856583 67.6156 1.33553 69.6011 2.39971 71.2822C3.46389 72.9632 5.05367 74.2456 6.92188 74.9299L43.1957 88.1998C45.2589 88.9548 47.4784 89.181 49.6515 88.8577C51.8246 88.5344 53.8821 87.6719 55.6361 86.3489L96.8553 54.6688L90.7912 52.3445L96.1369 47.8223Z" fill="white" stroke="#231F20" stroke-width="0.761064" stroke-linecap="round" stroke-linejoin="round"/>
<path d="M90.7932 52.3438L53.9805 82.0344" stroke="#231F20" stroke-width="0.761064" stroke-linecap="round" stroke-linejoin="round"/>
<path d="M96.1372 34.3945L41.6709 16.5156L4.4305 45.946C3.47028 46.7045 2.67435 47.6504 2.09109 48.7261C1.50783 49.8018 1.14943 50.9849 1.03767 52.2034C0.856043 54.1851 1.3346 56.1713 2.39888 57.8528C3.46315 59.5342 5.05344 60.8167 6.92222 61.5006L43.1961 74.772C45.2593 75.5271 47.4787 75.7533 49.6518 75.43C51.8249 75.1066 53.8824 74.2441 55.6364 72.9211L96.8587 41.2441L90.7915 38.9168L96.1372 34.3945Z" fill="white" stroke="#231F20" stroke-width="0.761064" stroke-linecap="round" stroke-linejoin="round"/>
<path d="M90.7932 38.9199L53.9805 68.6106" stroke="#231F20" stroke-width="0.761064" stroke-linecap="round" stroke-linejoin="round"/>
<path d="M95.5098 20.7115L41.6706 2.68945L4.43023 32.1198C3.46966 32.8787 2.67351 33.825 2.09024 34.9013C1.50697 35.9776 1.14876 37.1612 1.0374 38.3803C0.856473 40.3615 1.33536 42.347 2.39959 44.0278C3.46382 45.7087 5.05371 46.9907 6.92195 47.6744L43.1958 60.9459C45.259 61.7006 47.4784 61.9267 49.6515 61.6034C51.8245 61.2801 53.882 60.4177 55.6361 59.095L96.8554 27.4149L90.7912 25.0906L95.5098 20.7115Z" fill="white" stroke="black" stroke-width="0.765178" stroke-linecap="round" stroke-linejoin="round"/>
<path d="M90.7932 25.0898L53.9805 54.7805" stroke="black" stroke-width="0.765178" stroke-linecap="round" stroke-linejoin="round"/>
<path d="M48.8064 5.07778L56.312 1L81.1729 8.91507L84.7423 17.1011C84.7423 17.1011 73.9352 26.8092 59.8479 21.6812C56.554 20.4817 53.6071 18.4543 51.4442 15.6946C49.3893 13.0842 47.6389 9.39302 48.8064 5.07778Z" fill="white" stroke="black" stroke-width="0.765178" stroke-linecap="round" stroke-linejoin="round"/>
<path d="M87.3196 17.9688L53.9805 6.80859" stroke="black" stroke-width="0.765178" stroke-linecap="round" stroke-linejoin="round"/>
<path d="M56.3134 1C56.3134 1 52.4746 8.68827 57.732 13.1557C58.8602 14.0984 60.2094 14.739 61.653 15.0173C65.6105 15.8118 76.5516 17.1483 81.1743 8.91964L84.7437 17.1056C84.7437 17.1056 72.3536 27.9417 58.2586 21.0251C58.2586 21.0251 47.2217 16.9808 48.8108 5.07778L56.3134 1Z" fill="white" stroke="black" stroke-width="0.765178" stroke-linecap="round" stroke-linejoin="round"/>
</svg>
