<svg width="52" height="52" viewBox="0 0 52 52" fill="none" xmlns="http://www.w3.org/2000/svg">
    <defs>
        <clipPath id="clip0_7457_25038">
            <rect width="52" height="52" fill="white" />
        </clipPath>
    </defs>
    <g clip-path="url(#clip0_7457_25038)">
        <path
            d="M26.0007 47.6666C14.0342 47.6666 4.33398 37.9665 4.33398 26C4.33398 14.0335 14.0342 4.33331 26.0007 4.33331C37.9672 4.33331 47.6673 14.0335 47.6673 26C47.6673 37.9665 37.9672 47.6666 26.0007 47.6666ZM23.015 18.2325C22.8846 18.1455 22.733 18.0955 22.5765 18.0878C22.4199 18.0801 22.2642 18.115 22.1259 18.1888C21.9876 18.2627 21.8719 18.3726 21.7912 18.507C21.7104 18.6413 21.6676 18.7951 21.6673 18.9518V33.0481C21.6676 33.2049 21.7104 33.3586 21.7912 33.493C21.8719 33.6274 21.9876 33.7373 22.1259 33.8111C22.2642 33.8849 22.4199 33.9199 22.5765 33.9122C22.733 33.9045 22.8846 33.8545 23.015 33.7675L33.5862 26.7215C33.705 26.6424 33.8025 26.5351 33.8699 26.4092C33.9374 26.2834 33.9727 26.1428 33.9727 26C33.9727 25.8572 33.9374 25.7166 33.8699 25.5907C33.8025 25.4649 33.705 25.3576 33.5862 25.2785L23.0128 18.2325H23.015Z"
            fill="white" />
    </g>
</svg>