<svg width="143" height="104" viewBox="0 0 143 104" fill="none" xmlns="http://www.w3.org/2000/svg">
<mask id="mask0_2592_9298" style="mask-type:alpha" maskUnits="userSpaceOnUse" x="39" y="41" width="25" height="18">
<path d="M54.0214 58.6098L39.833 47.785L46.4991 41.7305L58.3024 43.6263L63.99 47.785L54.0214 58.6098Z" fill="white"/>
</mask>
<g mask="url(#mask0_2592_9298)">
<path d="M49.0211 56.3586C52.1022 56.3586 54.5999 53.861 54.5999 50.7799C54.5999 47.6989 52.1022 45.2012 49.0211 45.2012C45.9401 45.2012 43.4424 47.6989 43.4424 50.7799C43.4424 53.861 45.9401 56.3586 49.0211 56.3586Z" fill="white" stroke="black" stroke-linecap="round" stroke-linejoin="round"/>
</g>
<path d="M98.5318 24.2656C98.6932 24.646 142.345 45.1997 142.345 45.1997V68.7696L88.2061 42.3155" fill="white"/>
<path d="M98.5318 24.2656C98.6932 24.646 142.345 45.1997 142.345 45.1997V68.7695L88.2061 42.3155" stroke="black" stroke-miterlimit="10"/>
<path d="M99.1479 28.0699C98.1694 33.5288 93.8431 38.4666 92.6653 39.8658C92.5721 39.9762 92.4428 40.05 92.3004 40.0741C92.1581 40.0983 92.0117 40.0713 91.8873 39.9979C90.6532 39.2897 89.4068 38.9436 87.895 38.6978C85.8438 38.3638 83.3033 38.2146 79.6388 37.5969C72.9568 36.4655 68.4263 35.4454 63.7869 32.1613C59.1476 28.8772 56.875 22.7615 56.8297 21.2595C54.995 20.2663 53.0698 19.1691 52.0949 18.4585C49.919 16.8684 50.4192 15.0606 52.0949 13.5879C52.6405 13.1085 53.4404 13.0253 54.3993 13.1831C56.3698 13.5084 58.9702 14.8612 61.1975 15.8532C64.5 17.3209 71.7165 19.4773 74.3157 19.4773C75.0313 19.4773 76.1076 19.2939 77.2904 19.0272C77.9594 18.878 78.6628 18.7006 79.3551 18.5147C78.5563 17.4384 74.6973 16.4232 71.8401 15.1046C69.91 14.2142 68.5853 13.013 68.8837 11.0389C69.3021 8.27705 71.4854 7.8832 75.2661 8.82013C82.8936 10.7123 89.797 19.2339 90.9027 20.72C92.4928 22.852 94.7177 24.7943 96.457 26.1483C97.9945 27.336 99.1479 28.0699 99.1479 28.0699Z" fill="white" stroke="black" stroke-miterlimit="10"/>
<path d="M28.0769 60.4707L22.8749 64.5572H8.21313C8.05093 64.5572 7.89538 64.4928 7.78069 64.3781C7.666 64.2634 7.60156 64.1078 7.60156 63.9456V61.0823C7.60156 60.9201 7.666 60.7645 7.78069 60.6498C7.89538 60.5351 8.05093 60.4707 8.21313 60.4707H28.0769Z" fill="white" stroke="#0C0C0C" stroke-miterlimit="10"/>
<path d="M16.8995 65.1682V66.34C16.8995 66.5022 16.8351 66.6577 16.7204 66.7724C16.6057 66.8871 16.4502 66.9515 16.288 66.9515H10.467C10.3048 66.9515 10.1493 66.8871 10.0346 66.7724C9.9199 66.6577 9.85547 66.5022 9.85547 66.34V65.1682C9.85547 65.006 9.9199 64.8505 10.0346 64.7358C10.1493 64.6211 10.3048 64.5566 10.467 64.5566H16.288C16.4502 64.5566 16.6057 64.6211 16.7204 64.7358C16.8351 64.8505 16.8995 65.006 16.8995 65.1682Z" fill="white" stroke="#0C0C0C" stroke-miterlimit="10"/>
<path d="M16.8995 93.2249V94.3966C16.8995 94.5588 16.8351 94.7144 16.7204 94.8291C16.6057 94.9438 16.4502 95.0082 16.288 95.0082H10.467C10.3048 95.0082 10.1493 94.9438 10.0346 94.8291C9.9199 94.7144 9.85547 94.5588 9.85547 94.3966V93.2249C9.85547 93.0627 9.9199 92.9071 10.0346 92.7924C10.1493 92.6777 10.3048 92.6133 10.467 92.6133H16.288C16.4502 92.6133 16.6057 92.6777 16.7204 92.7924C16.8351 92.9071 16.8995 93.0627 16.8995 93.2249Z" fill="white" stroke="#0C0C0C" stroke-miterlimit="10"/>
<path d="M27.7452 72.2366V73.4096C27.7452 73.5718 27.6808 73.7273 27.5661 73.842C27.4514 73.9567 27.2959 74.0211 27.1337 74.0211H21.3127C21.1505 74.0211 20.995 73.9567 20.8803 73.842C20.7656 73.7273 20.7012 73.5718 20.7012 73.4096V72.2366C20.7012 72.0744 20.7656 71.9188 20.8803 71.8041C20.995 71.6894 21.1505 71.625 21.3127 71.625H27.1337C27.2959 71.625 27.4514 71.6894 27.5661 71.8041C27.6808 71.9188 27.7452 72.0744 27.7452 72.2366Z" fill="white" stroke="#0C0C0C" stroke-miterlimit="10"/>
<path d="M59.6618 66.9867L56.5685 64.5575L51.3665 60.471L42.6589 53.6324C42.5512 53.5477 42.4181 53.5017 42.281 53.5017C42.1439 53.5017 42.0108 53.5477 41.903 53.6324L33.1943 60.471L27.9923 64.5575L24.8989 66.9867C24.799 67.0653 24.7261 67.1731 24.6902 67.2951C24.6544 67.4171 24.6575 67.5472 24.6991 67.6673C24.7407 67.7875 24.8187 67.8917 24.9222 67.9655C25.0258 68.0392 25.1498 68.0789 25.2769 68.0789H59.2802C59.4076 68.0797 59.5321 68.0406 59.6363 67.9671C59.7404 67.8936 59.819 67.7894 59.8611 67.6691C59.9031 67.5487 59.9065 67.4183 59.8708 67.2959C59.835 67.1736 59.762 67.0655 59.6618 66.9867ZM65.9365 67.8955L61.6873 64.5575L56.4841 60.471L44.8398 51.3256L42.6589 49.6132C42.5512 49.5285 42.4181 49.4824 42.281 49.4824C42.1439 49.4824 42.0108 49.5285 41.903 49.6132L39.7222 51.3256L28.0767 60.471L22.8747 64.5575L18.6242 67.8955C18.5515 67.9527 18.4926 68.0257 18.4521 68.1089C18.4117 68.1922 18.3906 68.2836 18.3906 68.3761V71.0145C18.3906 71.1767 18.4551 71.3322 18.5698 71.4469C18.6844 71.5616 18.84 71.626 19.0022 71.626H65.5549C65.7171 71.626 65.8726 71.5616 65.9873 71.4469C66.102 71.3322 66.1664 71.1767 66.1664 71.0145V68.3761C66.1669 68.2839 66.1464 68.1927 66.1066 68.1094C66.0668 68.0262 66.0086 67.953 65.9365 67.8955Z" fill="white" stroke="#0C0C0C" stroke-miterlimit="10"/>
<path d="M15.962 66.9512H10.793V92.6126H15.962V66.9512Z" fill="white" stroke="#0C0C0C" stroke-miterlimit="10"/>
<path d="M27.7452 93.2249V94.3966C27.7452 94.5588 27.6808 94.7144 27.5661 94.8291C27.4514 94.9438 27.2959 95.0082 27.1337 95.0082H21.3127C21.1505 95.0082 20.995 94.9438 20.8803 94.8291C20.7656 94.7144 20.7012 94.5588 20.7012 94.3966V93.2249C20.7012 93.0627 20.7656 92.9071 20.8803 92.7924C20.995 92.6777 21.1505 92.6133 21.3127 92.6133H27.1337C27.2959 92.6133 27.4514 92.6777 27.5661 92.7924C27.6808 92.9071 27.7452 93.0627 27.7452 93.2249Z" fill="white" stroke="#0C0C0C" stroke-miterlimit="10"/>
<path d="M26.8089 74.0215H21.6387V92.6132H26.8089V74.0215Z" fill="white" stroke="#0C0C0C" stroke-miterlimit="10"/>
<path d="M76.9619 61.0823V63.9456C76.9619 64.1078 76.8975 64.2634 76.7828 64.3781C76.6681 64.4928 76.5126 64.5572 76.3504 64.5572H61.6886L56.4854 60.4707H76.3504C76.5126 60.4707 76.6681 60.5351 76.7828 60.6498C76.8975 60.7645 76.9619 60.9201 76.9619 61.0823Z" fill="white" stroke="#0C0C0C" stroke-miterlimit="10"/>
<path d="M74.7062 65.1682V66.34C74.7062 66.5022 74.6417 66.6577 74.527 66.7724C74.4124 66.8871 74.2568 66.9515 74.0946 66.9515H68.2737C68.1115 66.9515 67.9559 66.8871 67.8412 66.7724C67.7265 66.6577 67.6621 66.5022 67.6621 66.34V65.1682C67.6621 65.006 67.7265 64.8505 67.8412 64.7358C67.9559 64.6211 68.1115 64.5566 68.2737 64.5566H74.0946C74.2568 64.5566 74.4124 64.6211 74.527 64.7358C74.6417 64.8505 74.7062 65.006 74.7062 65.1682Z" fill="white" stroke="#0C0C0C" stroke-miterlimit="10"/>
<path d="M74.7062 93.2249V94.3966C74.7062 94.5588 74.6417 94.7144 74.527 94.8291C74.4124 94.9438 74.2568 95.0082 74.0946 95.0082H68.2737C68.1115 95.0082 67.9559 94.9438 67.8412 94.8291C67.7265 94.7144 67.6621 94.5588 67.6621 94.3966V93.2249C67.6621 93.0627 67.7265 92.9071 67.8412 92.7924C67.9559 92.6777 68.1115 92.6133 68.2737 92.6133H74.0946C74.2568 92.6133 74.4124 92.6777 74.527 92.7924C74.6417 92.9071 74.7062 93.0627 74.7062 93.2249Z" fill="white" stroke="#0C0C0C" stroke-miterlimit="10"/>
<path d="M63.8607 72.2366V73.4096C63.8607 73.5718 63.7963 73.7273 63.6816 73.842C63.5669 73.9567 63.4113 74.0211 63.2491 74.0211H57.427C57.2648 74.0211 57.1092 73.9567 56.9946 73.842C56.8799 73.7273 56.8154 73.5718 56.8154 73.4096V72.2366C56.8154 72.0744 56.8799 71.9188 56.9946 71.8041C57.1092 71.6894 57.2648 71.625 57.427 71.625H63.2491C63.4113 71.625 63.5669 71.6894 63.6816 71.8041C63.7963 71.9188 63.8607 72.0744 63.8607 72.2366Z" fill="white" stroke="#0C0C0C" stroke-miterlimit="10"/>
<path d="M73.7686 66.9512H68.5996V92.6126H73.7686V66.9512Z" fill="white" stroke="#0C0C0C" stroke-miterlimit="10"/>
<path d="M63.8607 93.2249V94.3966C63.8607 94.5588 63.7963 94.7144 63.6816 94.8291C63.5669 94.9438 63.4113 95.0082 63.2491 95.0082H57.427C57.2648 95.0082 57.1092 94.9438 56.9946 94.8291C56.8799 94.7144 56.8154 94.5588 56.8154 94.3966V93.2249C56.8154 93.0627 56.8799 92.9071 56.9946 92.7924C57.1092 92.6777 57.2648 92.6133 57.427 92.6133H63.2491C63.4113 92.6133 63.5669 92.6777 63.6816 92.7924C63.7963 92.9071 63.8607 93.0627 63.8607 93.2249Z" fill="white" stroke="#0C0C0C" stroke-miterlimit="10"/>
<path d="M62.9229 74.0215H57.7539V92.6132H62.9229V74.0215Z" fill="white" stroke="#0C0C0C" stroke-miterlimit="10"/>
<path d="M21.3122 74.0213H21.6436V92.613H21.3183C21.1561 92.613 21.0005 92.6774 20.8858 92.7921C20.7712 92.9068 20.7067 93.0624 20.7067 93.2246V94.3963C20.7067 94.5585 20.7712 94.7141 20.8858 94.8288C21.0005 94.9435 21.1561 95.0079 21.3183 95.0079H16.2875C16.4497 95.0079 16.6053 94.9435 16.72 94.8288C16.8347 94.7141 16.8991 94.5585 16.8991 94.3963V93.2246C16.8991 93.0624 16.8347 92.9068 16.72 92.7921C16.6053 92.6774 16.4497 92.613 16.2875 92.613H15.9609V66.9515H16.2875C16.4497 66.9515 16.6053 66.8871 16.72 66.7724C16.8347 66.6577 16.8991 66.5022 16.8991 66.34V65.1682C16.8991 65.006 16.8347 64.8505 16.72 64.7358C16.6053 64.6211 16.4497 64.5566 16.2875 64.5566H22.8741L18.6237 67.8946C18.5509 67.9518 18.4921 68.0248 18.4516 68.1081C18.4111 68.1913 18.3901 68.2827 18.3901 68.3753V71.0136C18.3901 71.1758 18.4545 71.3313 18.5692 71.446C18.6839 71.5607 18.8395 71.6252 19.0017 71.6252H21.3122C21.15 71.6252 20.9944 71.6896 20.8797 71.8043C20.765 71.919 20.7006 72.0745 20.7006 72.2367V73.4097C20.7006 73.5719 20.765 73.7275 20.8797 73.8422C20.9944 73.9569 21.15 74.0213 21.3122 74.0213Z" fill="white" stroke="#0C0C0C" stroke-miterlimit="10"/>
<path d="M68.6002 66.9515V92.613H68.2748C68.1126 92.613 67.9571 92.6774 67.8424 92.7921C67.7277 92.9068 67.6633 93.0624 67.6633 93.2246V94.3963C67.6633 94.5585 67.7277 94.7141 67.8424 94.8288C67.9571 94.9435 68.1126 95.0079 68.2748 95.0079H63.2502C63.4124 95.0079 63.5679 94.9435 63.6826 94.8288C63.7973 94.7141 63.8618 94.5585 63.8618 94.3963V93.2246C63.8618 93.0624 63.7973 92.9068 63.6826 92.7921C63.5679 92.6774 63.4124 92.613 63.2502 92.613H62.9236V74.0213H63.2502C63.4124 74.0213 63.5679 73.9569 63.6826 73.8422C63.7973 73.7275 63.8618 73.5719 63.8618 73.4097V72.2367C63.8618 72.0745 63.7973 71.919 63.6826 71.8043C63.5679 71.6896 63.4124 71.6252 63.2502 71.6252H65.5558C65.718 71.6252 65.8736 71.5607 65.9883 71.446C66.1029 71.3313 66.1674 71.1758 66.1674 71.0136V68.3753C66.1674 68.2827 66.1463 68.1913 66.1059 68.1081C66.0654 68.0248 66.0065 67.9518 65.9338 67.8946L61.6846 64.5566H68.2712C68.109 64.5566 67.9534 64.6211 67.8387 64.7358C67.724 64.8505 67.6596 65.006 67.6596 65.1682V66.34C67.6596 66.5022 67.724 66.6577 67.8387 66.7724C67.9534 66.8871 68.109 66.9515 68.2712 66.9515H68.6002Z" fill="white" stroke="#0C0C0C" stroke-miterlimit="10"/>
<path d="M80.1212 95.6194V98.3922C80.1212 98.5544 80.0568 98.71 79.9421 98.8247C79.8274 98.9394 79.6718 99.0038 79.5096 99.0038H5.05102C4.88882 99.0038 4.73327 98.9394 4.61858 98.8247C4.50389 98.71 4.43945 98.5544 4.43945 98.3922V95.6194C4.43945 95.4572 4.50389 95.3016 4.61858 95.1869C4.73327 95.0722 4.88882 95.0078 5.05102 95.0078H79.5096C79.6718 95.0078 79.8274 95.0722 79.9421 95.1869C80.0568 95.3016 80.1212 95.4572 80.1212 95.6194Z" fill="white" stroke="#0C0C0C" stroke-miterlimit="10"/>
<path d="M83.5619 99.6155V102.388C83.5619 102.551 83.4975 102.706 83.3828 102.821C83.2681 102.935 83.1125 103 82.9503 103H1.61157C1.44937 103 1.29382 102.935 1.17912 102.821C1.06443 102.706 1 102.551 1 102.388V99.6155C1 99.4533 1.06443 99.2977 1.17912 99.183C1.29382 99.0683 1.44937 99.0039 1.61157 99.0039H82.9503C83.1125 99.0039 83.2681 99.0683 83.3828 99.183C83.4975 99.2977 83.5619 99.4533 83.5619 99.6155Z" fill="white" stroke="#0C0C0C" stroke-miterlimit="10"/>
<path d="M42.2816 75.7891V95.0083H33.7893C33.6271 95.0083 33.4715 94.9438 33.3569 94.8291C33.2422 94.7144 33.1777 94.5589 33.1777 94.3967V76.4006C33.1777 76.2384 33.2422 76.0829 33.3569 75.9682C33.4715 75.8535 33.6271 75.7891 33.7893 75.7891H42.2816Z" fill="white" stroke="#0C0C0C" stroke-miterlimit="10"/>
<path d="M57.754 74.0211V92.6128H57.4274C57.2652 92.6128 57.1097 92.6773 56.995 92.792C56.8803 92.9067 56.8159 93.0622 56.8159 93.2244V94.3962C56.8159 94.5584 56.8803 94.7139 56.995 94.8286C57.1097 94.9433 57.2652 95.0078 57.4274 95.0078H50.7723C50.9345 95.0078 51.0901 94.9433 51.2048 94.8286C51.3195 94.7139 51.3839 94.5584 51.3839 94.3962V76.4001C51.3839 76.2379 51.3195 76.0824 51.2048 75.9677C51.0901 75.853 50.9345 75.7886 50.7723 75.7886H33.7891C33.6269 75.7886 33.4713 75.853 33.3566 75.9677C33.2419 76.0824 33.1775 76.2379 33.1775 76.4001V94.3962C33.1775 94.5584 33.2419 94.7139 33.3566 94.8286C33.4713 94.9433 33.6269 95.0078 33.7891 95.0078H27.1339C27.2961 95.0078 27.4517 94.9433 27.5664 94.8286C27.6811 94.7139 27.7455 94.5584 27.7455 94.3962V93.2244C27.7455 93.0622 27.6811 92.9067 27.5664 92.792C27.4517 92.6773 27.2961 92.6128 27.1339 92.6128H26.8086V74.0211H27.1339C27.2961 74.0211 27.4517 73.9567 27.5664 73.842C27.6811 73.7273 27.7455 73.5718 27.7455 73.4096V72.2366C27.7455 72.0744 27.6811 71.9188 27.5664 71.8041C27.4517 71.6894 27.2961 71.625 27.1339 71.625H57.4274C57.2652 71.625 57.1097 71.6894 56.995 71.8041C56.8803 71.9188 56.8159 72.0744 56.8159 72.2366V73.4096C56.8159 73.5718 56.8803 73.7273 56.995 73.842C57.1097 73.9567 57.2652 74.0211 57.4274 74.0211H57.754Z" fill="white" stroke="#0C0C0C" stroke-miterlimit="10"/>
<path d="M51.3839 76.4006V94.3967C51.3839 94.5589 51.3194 94.7144 51.2047 94.8291C51.09 94.9438 50.9345 95.0083 50.7723 95.0083H42.2812V75.7891H50.7723C50.9345 75.7891 51.09 75.8535 51.2047 75.9682C51.3194 76.0829 51.3839 76.2384 51.3839 76.4006Z" fill="white" stroke="#0C0C0C" stroke-miterlimit="10"/>
<path d="M56.834 21.2559C59.0907 22.479 61.2018 23.5505 61.2018 23.5505L56.834 21.2559Z" fill="white"/>
<path d="M56.834 21.2559C59.0907 22.479 61.2018 23.5505 61.2018 23.5505" stroke="black" stroke-miterlimit="10"/>
<path d="M78.9297 18.6355C80.9528 18.0814 82.6578 17.5273 82.6578 17.5273L78.9297 18.6355Z" fill="white"/>
<path d="M78.9297 18.6355C80.9528 18.0814 82.6578 17.5273 82.6578 17.5273" stroke="black" stroke-miterlimit="10"/>
<path d="M77.2962 19.0241C76.1134 19.2908 75.0371 19.4742 74.3215 19.4742C71.7163 19.4742 64.5071 17.3227 61.2034 15.8501C58.976 14.8581 56.3756 13.5053 54.4052 13.18L36.847 4.99716C36.7735 4.96283 36.7075 4.9142 36.6529 4.85411C36.5984 4.79403 36.5563 4.72368 36.5292 4.64718C36.5021 4.57068 36.4905 4.48955 36.4951 4.40852C36.4997 4.32749 36.5204 4.24818 36.5559 4.17521L37.9356 1.34364C38.0059 1.19942 38.13 1.0886 38.2813 1.03506C38.4325 0.98152 38.5987 0.989552 38.7441 1.05743L77.2962 19.0241Z" fill="white" stroke="black" stroke-miterlimit="10"/>
<path d="M42.281 27.5717C45.6538 27.5717 48.3881 24.8374 48.3881 21.4646C48.3881 18.0917 45.6538 15.3574 42.281 15.3574C38.9081 15.3574 36.1738 18.0917 36.1738 21.4646C36.1738 24.8374 38.9081 27.5717 42.281 27.5717Z" fill="white" stroke="black" stroke-linecap="round" stroke-linejoin="round"/>
<path d="M31.8777 49.7867C34.1887 49.7867 36.0621 47.9133 36.0621 45.6023C36.0621 43.2914 34.1887 41.418 31.8777 41.418C29.5668 41.418 27.6934 43.2914 27.6934 45.6023C27.6934 47.9133 29.5668 49.7867 31.8777 49.7867Z" fill="white" stroke="black" stroke-linecap="round" stroke-linejoin="round"/>
<path d="M34.4027 34.8425C35.4416 34.8425 36.2839 34.0002 36.2839 32.9613C36.2839 31.9223 35.4416 31.0801 34.4027 31.0801C33.3637 31.0801 32.5215 31.9223 32.5215 32.9613C32.5215 34.0002 33.3637 34.8425 34.4027 34.8425Z" fill="white" stroke="black" stroke-linecap="round" stroke-linejoin="round"/>
<path d="M42.7741 42.4134C44.646 42.4134 46.1634 40.896 46.1634 39.0241C46.1634 37.1522 44.646 35.6348 42.7741 35.6348C40.9022 35.6348 39.3848 37.1522 39.3848 39.0241C39.3848 40.896 40.9022 42.4134 42.7741 42.4134Z" fill="white" stroke="black" stroke-linecap="round" stroke-linejoin="round"/>
<path d="M92.67 39.8673C90.8121 42.1974 89.3443 43.1355 88.4576 42.9582C87.479 42.7649 87.2112 41.2213 87.8998 38.6992C89.4116 38.9438 90.658 39.2912 91.8921 39.9994C92.0165 40.0728 92.1629 40.0998 92.3052 40.0756C92.4476 40.0514 92.5769 39.9776 92.67 39.8673Z" fill="white"/>
<path d="M92.5404 39.7361C91.9867 40.4465 91.3729 41.1078 90.7056 41.7127C90.2739 42.0931 89.7895 42.4723 89.244 42.6753C88.8978 42.8038 88.5333 42.8661 88.2276 42.6753C87.8606 42.4417 87.7493 41.9145 87.7138 41.5023C87.6356 40.5789 87.8362 39.6383 88.0808 38.7515L87.8545 38.8738C88.764 39.008 89.6578 39.2334 90.5222 39.5465C90.9322 39.7035 91.3304 39.8899 91.7135 40.1043C91.8782 40.2123 92.072 40.2674 92.2688 40.2621C92.4748 40.2458 92.6664 40.1502 92.8033 39.9954C92.9611 39.8193 92.703 39.5588 92.544 39.7349C92.2382 40.0749 91.8725 39.7655 91.5582 39.6065C91.1931 39.4222 90.8168 39.2608 90.4317 39.1233C89.6251 38.8477 88.7953 38.6455 87.9524 38.5191C87.9054 38.5076 87.8558 38.5145 87.8137 38.5384C87.7716 38.5623 87.7403 38.6013 87.7261 38.6475C87.4925 39.5099 87.3029 40.4174 87.3408 41.3152C87.3628 41.8473 87.4631 42.4686 87.8741 42.8502C88.6936 43.6184 89.9253 42.8123 90.6139 42.268C91.4408 41.6149 92.1477 40.8137 92.8033 39.993C92.9464 39.8132 92.6884 39.5514 92.5404 39.7361Z" fill="white"/>
<path d="M99.1489 28.07C99.1489 28.07 97.9955 27.3361 96.458 26.1447C99.4523 21.8589 100.025 24.9118 99.1489 28.07Z" fill="white"/>
<path d="M99.2414 27.918C98.3265 27.3345 97.4483 26.6863 96.5908 26.0209C96.6006 26.0955 96.6104 26.1689 96.619 26.2435C97.0361 25.6466 97.4862 25.0411 98.0513 24.5739C98.1954 24.4505 98.3569 24.3491 98.5307 24.273C98.5687 24.2584 98.6075 24.2461 98.6469 24.2363L98.6946 24.2265C98.7203 24.2265 98.6775 24.2265 98.7215 24.2265H98.8157C98.8598 24.2265 98.7974 24.2265 98.828 24.2265L98.8732 24.2375L98.9173 24.2522C98.8879 24.2412 98.9038 24.2449 98.9173 24.2522L98.9576 24.2755C98.9845 24.2914 98.9833 24.2926 98.9747 24.2852C98.9981 24.3037 99.0198 24.3242 99.0396 24.3464C99.0494 24.3574 99.0591 24.3672 99.0677 24.3782C99.0763 24.3892 99.0591 24.3635 99.0836 24.4002C99.1663 24.5258 99.224 24.6662 99.2536 24.8136C99.3413 25.2425 99.3623 25.6823 99.316 26.1175C99.2624 26.7634 99.1456 27.4025 98.9674 28.0256C98.956 28.0719 98.9632 28.1209 98.9873 28.1621C99.0114 28.2032 99.0507 28.2334 99.0966 28.2461C99.1426 28.2588 99.1918 28.2531 99.2336 28.2302C99.2755 28.2073 99.3068 28.169 99.3209 28.1234C99.4917 27.5143 99.6088 26.8914 99.6707 26.2618C99.7304 25.7635 99.7126 25.2589 99.6181 24.7659C99.5459 24.443 99.3967 24.0749 99.0787 23.9244C98.7118 23.7519 98.3069 23.9317 98.0023 24.1482C97.3076 24.6375 96.7792 25.3714 96.2985 26.0576C96.2781 26.0926 96.2698 26.1334 96.2749 26.1736C96.28 26.2139 96.2982 26.2513 96.3266 26.2802C97.2085 26.9639 98.1088 27.6342 99.0506 28.2372C99.2561 28.3558 99.4359 28.0403 99.2414 27.918Z" fill="white"/>
</svg>
