<svg width="72" height="97" viewBox="0 0 72 97" fill="none" xmlns="http://www.w3.org/2000/svg">
<path d="M44.6938 47.4648C44.6938 47.4648 27.388 37.3812 13.4902 51.8086C13.4902 51.8086 -2.35506 67.6884 15.4411 85.007L16.9029 95.2451H24.7044L28.199 90.0038C28.199 90.0038 34.4557 91.8324 40.0628 90.0038L41.8903 95.2451H50.0575L52.9822 83.1783C52.9822 83.1783 62.9769 82.9349 65.2936 73.6705H70.9007V61.1168H65.6593C65.6593 61.1168 64.8056 51.4867 55.42 49.2934L59.5642 44.0382C59.5642 44.0382 51.5262 36.8609 44.6938 47.4648Z" fill="white" stroke="black" stroke-width="1.73059" stroke-linejoin="round"/>
<path d="M22.2969 50.6351C22.2969 50.6351 27.6294 47.5881 33.2365 48.9287Z" fill="white"/>
<path d="M22.2969 50.6351C22.2969 50.6351 27.6294 47.5881 33.2365 48.9287" stroke="black" stroke-width="1.73059" stroke-linejoin="round"/>
<path d="M1.05623 61.8477C1.05623 61.8477 0.00519058 68.3581 6.99099 68.455Z" fill="white"/>
<path d="M1.05623 61.8477C1.05623 61.8477 0.00519058 68.3581 6.99099 68.455" stroke="black" stroke-width="1.73059" stroke-linejoin="round"/>
<path d="M41.0258 36.384C41.6934 33.5555 39.9417 30.7214 37.1132 30.0538C34.2847 29.3862 31.4506 31.138 30.783 33.9665C30.1154 36.7949 31.8672 39.6291 34.6956 40.2967C37.5241 40.9642 40.3583 39.2125 41.0258 36.384Z" fill="white" stroke="black" stroke-width="1.73059" stroke-linecap="round" stroke-linejoin="round"/>
<path d="M31.7583 12.8478C34.6976 11.6303 36.0934 8.26061 34.8759 5.32132C33.6584 2.38204 30.2887 0.986244 27.3494 2.20374C24.4101 3.42123 23.0143 6.79097 24.2318 9.73026C25.4493 12.6695 28.819 14.0653 31.7583 12.8478Z" fill="white" stroke="black" stroke-width="1.73059" stroke-linecap="round" stroke-linejoin="round"/>
<path d="M21.2493 33.9407C23.2632 33.1065 24.2195 30.7977 23.3853 28.7838C22.5512 26.77 20.2424 25.8136 18.2285 26.6478C16.2146 27.482 15.2583 29.7908 16.0924 31.8047C16.9266 33.8185 19.2354 34.7749 21.2493 33.9407Z" fill="white" stroke="black" stroke-width="1.73059" stroke-linecap="round" stroke-linejoin="round"/>
<path d="M23.8965 18.3721C23.8965 18.723 23.7924 19.0661 23.5975 19.3579C23.4025 19.6497 23.1254 19.8771 22.8011 20.0114C22.4769 20.1457 22.1201 20.1809 21.7759 20.1124C21.4317 20.044 21.1155 19.875 20.8674 19.6268C20.6192 19.3786 20.4502 19.0625 20.3818 18.7183C20.3133 18.3741 20.3484 18.0173 20.4827 17.693C20.617 17.3688 20.8445 17.0917 21.1363 16.8967C21.4281 16.7017 21.7711 16.5977 22.1221 16.5977C22.5926 16.598 23.0438 16.785 23.3765 17.1177C23.7092 17.4504 23.8962 17.9016 23.8965 18.3721V18.3721Z" fill="white" stroke="black" stroke-width="1.73059" stroke-linecap="round" stroke-linejoin="round"/>
<path d="M33.2143 24.0896C33.2143 24.7219 33.0268 25.34 32.6755 25.8657C32.3242 26.3914 31.8249 26.8012 31.2407 27.0432C30.6565 27.2851 30.0137 27.3484 29.3936 27.2251C28.7734 27.1017 28.2038 26.7973 27.7567 26.3501C27.3096 25.903 27.0051 25.3334 26.8817 24.7132C26.7584 24.0931 26.8217 23.4503 27.0637 22.8661C27.3056 22.282 27.7154 21.7827 28.2411 21.4314C28.7669 21.0801 29.385 20.8926 30.0173 20.8926C30.8652 20.8926 31.6783 21.2294 32.2779 21.829C32.8774 22.4285 33.2143 23.2417 33.2143 24.0896" fill="white"/>
<path d="M33.2143 24.0896C33.2143 24.7219 33.0268 25.34 32.6755 25.8657C32.3242 26.3914 31.8249 26.8012 31.2407 27.0432C30.6565 27.2851 30.0137 27.3484 29.3936 27.2251C28.7734 27.1017 28.2038 26.7973 27.7567 26.3501C27.3096 25.903 27.0051 25.3334 26.8817 24.7132C26.7584 24.0931 26.8217 23.4503 27.0637 22.8661C27.3056 22.282 27.7154 21.7827 28.2411 21.4314C28.7669 21.0801 29.385 20.8926 30.0173 20.8926C30.8652 20.8926 31.6783 21.2294 32.2779 21.829C32.8774 22.4285 33.2143 23.2417 33.2143 24.0896" stroke="black" stroke-width="1.73059" stroke-linecap="round" stroke-linejoin="round"/>
</svg>
