
<svg version="1.1" id="Layer_1"  x="0px" y="0px"
	 viewBox="0 0 1600 1200" style="enable-background:new 0 0 1600 1200;" xml:space="preserve">
<style type="text/css">
	.st0{fill:#FFFFFF;stroke:#000000;stroke-width:13.9328;stroke-linecap:round;stroke-linejoin:round;stroke-miterlimit:10;}
	.st1{fill:#FFFFFF;stroke:#000000;stroke-width:13.9328;stroke-miterlimit:10;}
	.st2{fill:#FFFFFF;}
	.st3{fill:#121212;}
	.st4{fill:none;}
</style>
<g>
	<path class="st0" d="M858.1,37.5c-5.2,24.6-22.4,135.4-27.3,167H698.2l-19.8-91.7l-11.5-57.3c0-16.2,30-14.4,48.1,0
		c18.1,14.4,46.5,10.7,59.6-1.8c20.7-19.9,36.9-33,56.5-37.8C852.9,10.5,864.1,8.8,858.1,37.5z"/>
	<path class="st0" d="M970.2,693c0,105.9-97.1,191.8-217,191.8c-119.8,0-216.9-85.9-216.9-191.8c0-1.4,0-2.7,0.1-4
		c0.7-25.2,7.5-48.9,17.3-71.4c22.5-51.5,60.8-96.9,76.6-141.5c14.8-3.6,28.6-86.6,36.5-87c28.5-1.5,59-4.2,102.6-4.6
		c19.8-0.1,72.9,73.5,79.4,62.8c27.3,46.6,72.6,106.6,99.6,161.8c6.5,13.2,11.9,26.2,15.7,38.7C968.1,662.3,970.2,677.5,970.2,693z"
		/>
	<g>
		<path class="st1" d="M485.3,562.1L90.3,634.5c-7.5,1.4-14.7-3.5-16.2-11L17.2,341.4c-1.6-7.7,3.6-15.2,11.3-16.5l405.6-68.6
			c7.6-1.3,14.8,3.8,16.1,11.4l1.2,6.9l39.8,239.1l5.4,32.4C497.8,553.6,492.8,560.7,485.3,562.1z"/>
	</g>
	<g>
		<polygon class="st1" points="548.1,501.2 491.2,513.7 451.3,274.6 510,264.6 		"/>
	</g>
	<g>
		<path class="st2" d="M822.6,195.2c0,0,0.5-2.7,1.4-7.5"/>
		<g>
			<path class="st3" d="M824.6,195.7c0.5-2.5,0.9-5,1.4-7.5c0.1-0.6,0.1-1.1-0.2-1.6c-0.3-0.4-0.8-0.8-1.3-1c-1-0.2-2.4,0.3-2.6,1.5
				c-0.5,2.5-0.9,5-1.4,7.5c-0.1,0.6-0.1,1.1,0.2,1.6c0.3,0.4,0.8,0.8,1.3,1C823,197.4,824.4,196.9,824.6,195.7L824.6,195.7z"/>
		</g>
	</g>
	<g>
		<line class="st4" x1="685.4" y1="195.2" x2="683.6" y2="187.7"/>
		<g>
			<path class="st3" d="M687.4,194.6c-0.5-2.2-1.1-4.4-1.6-6.6c-0.1-0.3-0.2-0.6-0.2-0.9c-0.3-1.1-1.5-1.8-2.6-1.5
				c-1.1,0.4-1.7,1.4-1.5,2.6c0.5,2.2,1.1,4.4,1.6,6.6c0.1,0.3,0.2,0.6,0.2,0.9c0.3,1.1,1.5,1.8,2.6,1.5
				C687.1,196.8,687.7,195.8,687.4,194.6L687.4,194.6z"/>
		</g>
	</g>
	<g>
		<path class="st1" d="M859.8,413.1c-3.2,14.7-6,26.1-11,34.3c-6.5,10.7-16.9,16-36.7,16.1c-43.6,0.3-117.5,4.4-146,5.9
			c-8,0.4-21.1,3.1-35.9,6.7c-31.9,13.7-82.2,25.1-82.2,25.1L510,264.6c23.9-9.6,87.7-46.3,103.7-71.8c14.3-22.9-4.5-65.2,34.8-81.8
			c8-3.4,17,1.2,19.1,9.6l16.1,67.1h152.7c27.6,0,35,18.5,35.2,37.1C871.7,241.1,867.4,377.8,859.8,413.1z"/>
	</g>
	<g>
		<path class="st1" d="M1048.6,874.9l-39.5,127.7c-51.9-7.6-106.3-4.1-152.6,10c-44.7,13.7-127.9-5.8-179.6-30.4
			c-51.7-24.6-127.8-49.2-109.1-82.1s37.7-30.8,58-25c20.2,5.8,69.2,18.7,102.1,25c2.4-0.2,5-0.3,7.9-0.3c28.9,0,56.5-1.4,91.2-10.1
			c34.7-8.7,72.4-29,99-27.5C951.8,863.5,999.7,864.4,1048.6,874.9z"/>
	</g>
	<g>
		<path class="st1" d="M727.9,900c-22.3,2.2-27.5,14.6-25.1,38.2c2.2,21.7,21.4,25.1,48.9,23.6c27.5-1.4,53.6-7.2,88.3-7.2"/>
	</g>
	<g>
		<path class="st1" d="M1115.8,831.6l-61.9,229.3l-44.1-10.2c-7.9-1.8-12.6-10-10.2-17.7l9.4-30.4l39.5-127.7l13.4-43.2
			c2.2-7.1,9.5-11.2,16.7-9.4L1115.8,831.6z"/>
	</g>
	<g>
		<line class="st4" x1="1054.8" y1="1061.1" x2="1053.9" y2="1060.9"/>
		<g>
			<path class="st3" d="M1055.3,1059.1c-0.3-0.1-0.5-0.1-0.8-0.2c0,0-0.1,0-0.1,0c-0.3-0.1-0.6-0.1-0.8,0c-0.3,0-0.5,0.1-0.8,0.3
				c-0.2,0.1-0.4,0.3-0.6,0.5c-0.2,0.2-0.3,0.4-0.4,0.7c0,0.2-0.1,0.4-0.1,0.6c0,0.4,0.1,0.7,0.3,1.1c0.1,0.1,0.2,0.3,0.3,0.4
				c0.3,0.3,0.6,0.4,0.9,0.5c0.3,0.1,0.5,0.1,0.8,0.2c0,0,0.1,0,0.1,0c0.3,0.1,0.6,0.1,0.8,0c0.3,0,0.5-0.1,0.8-0.3
				c0.2-0.1,0.4-0.3,0.6-0.5c0.2-0.2,0.3-0.4,0.4-0.7c0-0.2,0.1-0.4,0.1-0.6c0-0.4-0.1-0.7-0.3-1.1c-0.1-0.1-0.2-0.3-0.3-0.4
				C1056,1059.4,1055.7,1059.2,1055.3,1059.1L1055.3,1059.1z"/>
		</g>
	</g>
	<g>
		<path class="st1" d="M1582.7,898.6l-68,285c-1.8,7.4-9.1,12-16.5,10.4l-439.8-93.9c-7.8-1.7-12.6-9.5-10.5-17.2l5.9-22l61.9-229.3
			l8.9-33c1.9-7.2,9.1-11.6,16.4-10l431.1,93.2C1579.7,883.4,1584.5,891,1582.7,898.6z"/>
	</g>
</g>
</svg>
