<svg width="114" height="90" viewBox="0 0 114 90" fill="none" xmlns="http://www.w3.org/2000/svg">
<path d="M80.7227 1H9.32176C7.63207 1 6.0116 1.67122 4.81681 2.86601C3.62202 4.0608 2.9508 5.68127 2.9508 7.37096V13.3047H2.63995C2.42497 13.3043 2.21202 13.3463 2.01326 13.4282C1.8145 13.5101 1.63381 13.6304 1.48153 13.7821C1.32925 13.9339 1.20835 14.1141 1.12573 14.3126C1.0431 14.5111 1.00038 14.7239 1 14.9388V25.467C1.00019 25.6822 1.04276 25.8952 1.12528 26.094C1.2078 26.2927 1.32865 26.4732 1.48093 26.6252C1.63322 26.7772 1.81395 26.8978 2.01281 26.9799C2.21168 27.0621 2.42478 27.1043 2.63995 27.1041H2.9508V55.6456H2.63995C2.42478 55.6454 2.21168 55.6876 2.01281 55.7697C1.81395 55.8519 1.63322 55.9724 1.48093 56.1244C1.32865 56.2765 1.2078 56.457 1.12528 56.6557C1.04276 56.8544 1.00019 57.0674 1 57.2826V67.8108C1.00039 68.2451 1.17318 68.6615 1.48042 68.9685C1.78765 69.2754 2.20419 69.4479 2.6385 69.4479H2.94935V75.3032C2.94935 76.9929 3.62057 78.6133 4.81536 79.8081C6.01014 81.0029 7.63062 81.6741 9.3203 81.6741H80.7227C82.4124 81.6741 84.0328 81.0029 85.2276 79.8081C86.4224 78.6133 87.0936 76.9929 87.0936 75.3032V7.37096C87.0936 5.68127 86.4224 4.0608 85.2276 2.86601C84.0328 1.67122 82.4124 1 80.7227 1Z" fill="white" stroke="#010101" stroke-width="0.726284" stroke-miterlimit="10"/>
<path d="M71.2754 15.4062H20.0956C18.3363 15.4062 16.9102 16.8324 16.9102 18.5917V64.625C16.9102 66.3843 18.3363 67.8105 20.0956 67.8105H71.2754C73.0347 67.8105 74.4609 66.3843 74.4609 64.625V18.5917C74.4609 16.8324 73.0347 15.4062 71.2754 15.4062Z" stroke="#010101" stroke-width="0.726284" stroke-miterlimit="10"/>
<path d="M45.6846 24.0625V41.6081" stroke="#010101" stroke-width="0.726284" stroke-miterlimit="10"/>
<path d="M31.1807 53.3049L45.6845 41.6074" stroke="#010101" stroke-width="0.726284" stroke-miterlimit="10"/>
<path d="M60.1899 53.3049L45.6846 41.6074" stroke="#010101" stroke-width="0.726284" stroke-miterlimit="10"/>
<path d="M45.685 45.3719C47.7644 45.3719 49.45 43.6862 49.45 41.6068C49.45 39.5275 47.7644 37.8418 45.685 37.8418C43.6056 37.8418 41.9199 39.5275 41.9199 41.6068C41.9199 43.6862 43.6056 45.3719 45.685 45.3719Z" fill="#010101"/>
<path d="M113 35.395V66.8387C113 66.8855 112.988 66.9315 112.965 66.9724C112.354 68.0792 103.652 83.504 90.3214 89.1632C90.2731 89.1834 90.2212 89.1937 90.1689 89.1937C90.1165 89.1937 90.0647 89.1834 90.0163 89.1632C76.6876 83.4982 67.9853 68.0792 67.3737 66.9724C67.3509 66.9315 67.3389 66.8855 67.3389 66.8387V35.395C67.3407 35.3298 67.3628 35.2668 67.4021 35.2147C67.4414 35.1626 67.496 35.1241 67.5582 35.1045C70.3399 34.1209 73.178 33.3045 76.0572 32.6598C84.0812 30.847 90.1689 30.7715 90.1689 30.7715C90.1689 30.7715 100.98 30.908 112.781 35.1059C112.843 35.1255 112.897 35.1638 112.937 35.2156C112.976 35.2673 112.998 35.33 113 35.395Z" fill="white" stroke="black" stroke-width="0.73021" stroke-linecap="round" stroke-linejoin="round"/>
</svg>
