
<svg version="1.1" id="Layer_1" x="0px" y="0px"
	 viewBox="0 0 1600 1200" style="enable-background:new 0 0 1600 1200;" xml:space="preserve">
<style type="text/css">
	
		.st0{clip-path:url(#SVGID_00000093880221661602322690000003283452218765080985_);fill:#FFFFFF;stroke:#000000;stroke-width:13.8457;stroke-linecap:round;stroke-linejoin:round;stroke-miterlimit:10;}
	.st1{fill:none;stroke:#000000;stroke-width:13.8457;stroke-miterlimit:10;}
	.st2{fill:none;stroke:#0C0C0C;stroke-width:13.8457;stroke-miterlimit:10;}
	.st3{fill:#FFFFFF;stroke:#0C0C0C;stroke-width:13.8457;stroke-miterlimit:10;}
	.st4{fill:#FFFFFF;stroke:#000000;stroke-width:13.8457;stroke-linecap:round;stroke-linejoin:round;stroke-miterlimit:10;}
	.st5{fill:#121212;}
</style>
<g>
	<g>
		<defs>
			<polygon id="SVGID_1_" points="440.8,550.3 612.4,683.7 683.3,560.3 594.2,491.4 496,495.9 			"/>
		</defs>
		<clipPath id="SVGID_00000129900274519522679560000009582723807675519921_">
			<use xlink:href="#SVGID_1_"  style="overflow:visible;"/>
		</clipPath>
		
			<circle style="clip-path:url(#SVGID_00000129900274519522679560000009582723807675519921_);fill:#FFFFFF;stroke:#000000;stroke-width:13.8457;stroke-linecap:round;stroke-linejoin:round;stroke-miterlimit:10;" cx="543.6" cy="586.1" r="63.2"/>
	</g>
	<g>
		<path class="st1" d="M1104,286c1.8,4.3,496,237,496,237v266.8L987.2,490.3"/>
	</g>
	<g>
		<path class="st1" d="M1111,329c-11.1,61.8-60,117.6-73.3,133.5c-2.2,2.6-5.9,3.2-8.8,1.5c-14-8-28.1-11.9-45.2-14.7
			c-23.2-3.8-52-5.5-93.5-12.5c-75.6-12.8-126.9-24.4-179.4-61.5c-52.5-37.2-78.2-106.4-78.8-123.4c-20.7-11.2-42.6-23.7-53.6-31.7
			c-24.6-18-19-38.5,0-55.1c6.2-5.4,15.3-6.4,26.1-4.6c22.3,3.7,51.7,19,77,30.2c37.4,16.7,119,41,148.5,41c8.1,0,20.3-2.1,33.7-5.1
			c7.6-1.7,15.5-3.7,23.4-5.8c-9-12.2-52.7-23.7-85.1-38.6c-21.8-10.1-36.8-23.7-33.5-46c4.7-31.3,29.4-35.7,72.2-25.1
			c86.3,21.4,164.5,117.9,177,134.7c18,24.1,43.2,46.1,62.9,61.4C1098,320.7,1111,329,1111,329z"/>
	</g>
	<g>
		<g>
			<path class="st2" d="M306.5,695.8L247.6,742h-166c-3.8,0-6.9-3.1-6.9-6.9v-32.4c0-3.8,3.1-6.9,6.9-6.9H306.5z"/>
		</g>
		<g>
			<path class="st2" d="M180,749v13.3c0,3.8-3.1,6.9-6.9,6.9h-65.9c-3.8,0-6.9-3.1-6.9-6.9V749c0-3.8,3.1-6.9,6.9-6.9h65.9
				C176.9,742,180,745.1,180,749z"/>
		</g>
		<g>
			<path class="st3" d="M180,1066.5v13.3c0,3.8-3.1,6.9-6.9,6.9h-65.9c-3.8,0-6.9-3.1-6.9-6.9v-13.3c0-3.8,3.1-6.9,6.9-6.9h65.9
				C176.9,1059.6,180,1062.7,180,1066.5z"/>
		</g>
		<g>
			<path class="st3" d="M302.8,829v13.3c0,3.8-3.1,6.9-6.9,6.9H230c-3.8,0-6.9-3.1-6.9-6.9V829c0-3.8,3.1-6.9,6.9-6.9h65.9
				C299.7,822,302.8,825.1,302.8,829z"/>
		</g>
		<g>
			<path class="st2" d="M664.1,769.5L629,742l-58.9-46.3l-98.6-77.4c-2.5-2-6.1-2-8.6,0l-98.6,77.4L305.6,742l-35,27.5
				c-5.2,4.1-2.3,12.4,4.3,12.4h385C666.4,781.9,669.2,773.6,664.1,769.5z M735.1,779.8L687,742l-58.9-46.3L496.3,592.2l-24.7-19.4
				c-2.5-2-6.1-2-8.6,0l-24.7,19.4L306.5,695.8L247.6,742l-48.1,37.8c-1.7,1.3-2.6,3.3-2.6,5.4v29.9c0,3.8,3.1,6.9,6.9,6.9h527
				c3.8,0,6.9-3.1,6.9-6.9v-29.9C737.7,783.1,736.8,781.1,735.1,779.8z"/>
		</g>
		<g>
			<rect x="110.9" y="769.1" class="st2" width="58.5" height="290.5"/>
		</g>
		<g>
			<path class="st3" d="M302.8,1066.5v13.3c0,3.8-3.1,6.9-6.9,6.9H230c-3.8,0-6.9-3.1-6.9-6.9v-13.3c0-3.8,3.1-6.9,6.9-6.9h65.9
				C299.7,1059.6,302.8,1062.7,302.8,1066.5z"/>
		</g>
		<g>
			<rect x="233.6" y="849.2" class="st2" width="58.5" height="210.5"/>
		</g>
		<g>
			<path class="st2" d="M859.9,702.7v32.4c0,3.8-3.1,6.9-6.9,6.9H687l-58.9-46.3H853C856.8,695.8,859.9,698.9,859.9,702.7z"/>
		</g>
		<g>
			<path class="st2" d="M834.4,749v13.3c0,3.8-3.1,6.9-6.9,6.9h-65.9c-3.8,0-6.9-3.1-6.9-6.9V749c0-3.8,3.1-6.9,6.9-6.9h65.9
				C831.3,742,834.4,745.1,834.4,749z"/>
		</g>
		<g>
			<path class="st2" d="M834.4,1066.5v13.3c0,3.8-3.1,6.9-6.9,6.9h-65.9c-3.8,0-6.9-3.1-6.9-6.9v-13.3c0-3.8,3.1-6.9,6.9-6.9h65.9
				C831.3,1059.6,834.4,1062.7,834.4,1066.5z"/>
		</g>
		<g>
			<path class="st3" d="M711.6,829v13.3c0,3.8-3.1,6.9-6.9,6.9h-65.9c-3.8,0-6.9-3.1-6.9-6.9V829c0-3.8,3.1-6.9,6.9-6.9h65.9
				C708.5,822,711.6,825.1,711.6,829z"/>
		</g>
		<g>
			<rect x="765.2" y="769.1" class="st2" width="58.5" height="290.5"/>
		</g>
		<g>
			<path class="st3" d="M711.6,1066.5v13.3c0,3.8-3.1,6.9-6.9,6.9h-65.9c-3.8,0-6.9-3.1-6.9-6.9v-13.3c0-3.8,3.1-6.9,6.9-6.9h65.9
				C708.5,1059.6,711.6,1062.7,711.6,1066.5z"/>
		</g>
		<g>
			<rect x="642.5" y="849.2" class="st2" width="58.5" height="210.5"/>
		</g>
		<g>
			<path class="st2" d="M230,849.2h3.7v210.5H230c-3.8,0-6.9,3.1-6.9,6.9v13.3c0,3.8,3.1,6.9,6.9,6.9h-56.9c3.8,0,6.9-3.1,6.9-6.9
				v-13.3c0-3.8-3.1-6.9-6.9-6.9h-3.7V769.1h3.7c3.8,0,6.9-3.1,6.9-6.9V749c0-3.8-3.1-6.9-6.9-6.9h74.6l-48.1,37.8
				c-1.7,1.3-2.6,3.3-2.6,5.4v29.9c0,3.8,3.1,6.9,6.9,6.9H230c-3.8,0-6.9,3.1-6.9,6.9v13.3C223,846.1,226.1,849.2,230,849.2z"/>
		</g>
		<g>
			<path class="st2" d="M765.2,769.1v290.5h-3.7c-3.8,0-6.9,3.1-6.9,6.9v13.3c0,3.8,3.1,6.9,6.9,6.9h-56.9c3.8,0,6.9-3.1,6.9-6.9
				v-13.3c0-3.8-3.1-6.9-6.9-6.9H701V849.2h3.7c3.8,0,6.9-3.1,6.9-6.9V829c0-3.8-3.1-6.9-6.9-6.9h26.1c3.8,0,6.9-3.1,6.9-6.9v-29.9
				c0-2.1-1-4.1-2.6-5.4L687,742h74.6c-3.8,0-6.9,3.1-6.9,6.9v13.3c0,3.8,3.1,6.9,6.9,6.9H765.2z"/>
		</g>
		<g>
			<path class="st2" d="M895.7,1093.7v31.4c0,3.8-3.1,6.9-6.9,6.9H45.9c-3.8,0-6.9-3.1-6.9-6.9v-31.4c0-3.8,3.1-6.9,6.9-6.9h842.9
				C892.6,1086.7,895.7,1089.8,895.7,1093.7z"/>
		</g>
		<g>
			<path class="st2" d="M934.6,1138.9v31.4c0,3.8-3.1,6.9-6.9,6.9H6.9c-3.8,0-6.9-3.1-6.9-6.9v-31.4c0-3.8,3.1-6.9,6.9-6.9h920.7
				C931.5,1132,934.6,1135.1,934.6,1138.9z"/>
		</g>
		<g>
			<path class="st2" d="M467.3,869.2v217.6h-96.1c-3.8,0-6.9-3.1-6.9-6.9V876.1c0-3.8,3.1-6.9,6.9-6.9H467.3z"/>
		</g>
		<g>
			<path class="st2" d="M642.5,849.2v210.5h-3.7c-3.8,0-6.9,3.1-6.9,6.9v13.3c0,3.8,3.1,6.9,6.9,6.9h-75.3c3.8,0,6.9-3.1,6.9-6.9
				V876.1c0-3.8-3.1-6.9-6.9-6.9H371.2c-3.8,0-6.9,3.1-6.9,6.9v203.7c0,3.8,3.1,6.9,6.9,6.9h-75.3c3.8,0,6.9-3.1,6.9-6.9v-13.3
				c0-3.8-3.1-6.9-6.9-6.9h-3.7V849.2h3.7c3.8,0,6.9-3.1,6.9-6.9V829c0-3.8-3.1-6.9-6.9-6.9h342.9c-3.8,0-6.9,3.1-6.9,6.9v13.3
				c0,3.8,3.1,6.9,6.9,6.9H642.5z"/>
		</g>
		<g>
			<path class="st2" d="M570.4,876.1v203.7c0,3.8-3.1,6.9-6.9,6.9h-96.1V869.2h96.1C567.3,869.2,570.4,872.3,570.4,876.1z"/>
		</g>
	</g>
	<g>
		<path class="st1" d="M632.1,251.9c25.5,13.9,49.4,26,49.4,26"/>
	</g>
	<g>
		<path class="st1" d="M882.2,222.2c22.9-6.3,42.2-12.5,42.2-12.5"/>
	</g>
	<g>
		<path class="st1" d="M863.7,226.6c-13.4,3-25.6,5.1-33.7,5.1c-29.5,0-111.1-24.4-148.5-41c-25.2-11.2-54.6-26.5-77-30.2
			L405.8,67.8c-3.5-1.6-5-5.8-3.3-9.3l15.6-32.1c1.6-3.4,5.7-4.8,9.2-3.2L863.7,226.6z"/>
	</g>
	<circle class="st4" cx="467.3" cy="254.2" r="69.1"/>
	<circle class="st4" cx="349.6" cy="527.5" r="47.4"/>
	<circle class="st4" cx="378.1" cy="384.4" r="21.3"/>
	<circle class="st4" cx="472.9" cy="453" r="38.4"/>
	<g>
		<path class="st5" d="M1037.7,462.5c-21,26.4-37.6,37-47.7,35c-11-2.2-14.1-19.7-6.3-48.2c17.1,2.8,31.2,6.7,45.2,14.7
			C1031.8,465.7,1035.5,465.1,1037.7,462.5z"/>
		<g>
			<path class="st5" d="M1036.2,461.1c-6.4,7.9-13.1,15.6-20.7,22.4c-4.9,4.3-10.4,8.6-16.5,10.9c-3.9,1.5-8,2.2-11.5-0.1
				c-4.1-2.6-5.4-8.6-5.8-13.3c-0.9-10.5,1.4-21.1,4.1-31.1c-0.9,0.5-1.7,1-2.6,1.5c10.3,1.7,20.5,3.9,30.2,7.6
				c4.6,1.8,9.2,3.9,13.5,6.3c2,1.1,3.9,2,6.3,1.8c2.4-0.2,4.5-1.3,6.1-3C1041,462,1038,459.1,1036.2,461.1
				c-3.5,3.8-7.6,0.3-11.2-1.5c-4.1-2.1-8.4-3.9-12.8-5.5c-9.1-3.3-18.6-5.3-28.1-6.8c-1.1-0.2-2.2,0.3-2.6,1.5
				c-2.6,9.8-4.8,20-4.4,30.2c0.2,6,1.4,13.1,6,17.4c9.3,8.7,23.2-0.4,31-6.6c9.4-7.4,17.4-16.5,24.8-25.8
				C1040.8,461.9,1037.9,459,1036.2,461.1z"/>
		</g>
	</g>
	<g>
		<path class="st5" d="M1111,329c0,0-13.1-8.3-30.4-21.8C1114.5,258.7,1121,293.3,1111,329z"/>
		<g>
			<path class="st5" d="M1112.1,327.2c-10.4-6.6-20.3-13.9-30-21.5c0.1,0.8,0.2,1.7,0.3,2.5c4.7-6.8,9.8-13.6,16.2-18.9
				c1.6-1.3,3.8-2.8,5.4-3.4c0.4-0.2,0.9-0.3,1.3-0.4c0.2,0,0.4-0.1,0.5-0.1c0.3-0.1-0.2,0,0.3,0c0.4,0,0.7,0,1.1,0
				c0.5,0-0.2-0.1,0.1,0c0.2,0,0.3,0.1,0.5,0.1c0.2,0,0.3,0.1,0.5,0.2c-0.3-0.1-0.2-0.1,0,0c0.2,0.1,0.3,0.2,0.5,0.3
				c0.3,0.2,0.3,0.2,0.2,0.1c0.3,0.2,0.5,0.4,0.7,0.7c0.1,0.1,0.2,0.2,0.3,0.4c0.2,0.2-0.1-0.2,0.2,0.2c1,1.6,1.4,2.7,1.9,4.7
				c1.1,4.7,1.1,9.8,0.7,14.8c-0.5,7.3-2,14.5-3.9,21.6c-0.7,2.6,3.3,3.7,4,1.1c1.9-6.9,3.3-13.9,4-21.1c0.5-5.6,0.6-11.4-0.6-16.9
				c-0.8-3.7-2.5-7.8-6.1-9.5c-4.1-2-8.7,0.1-12.2,2.5c-7.9,5.6-13.8,13.8-19.3,21.6c-0.5,0.7-0.3,2,0.3,2.5
				c10,7.7,20.2,15.3,30.8,22.1C1112.3,332.2,1114.3,328.7,1112.1,327.2z"/>
		</g>
	</g>
</g>
</svg>
