<svg width="30" height="30" viewBox="0 0 30 30" fill="none" xmlns="http://www.w3.org/2000/svg">
    <ellipse cx="21.25" cy="8.75" rx="7.5" ry="7.5" fill="#FFCC00" />
    <path fill-rule="evenodd" clip-rule="evenodd"
        d="M7.00111 14.8816H11.9255C11.9666 12.5845 12.2938 10.4977 12.8135 8.93874C13.043 8.25016 13.3162 7.64586 13.6318 7.16821C9.99161 7.93759 7.22234 11.0677 7.00111 14.8816ZM15.375 6C10.1973 6 6 10.1973 6 15.375C6 20.5527 10.1973 24.75 15.375 24.75C20.5527 24.75 24.75 20.5527 24.75 15.375C24.75 10.1973 20.5527 6 15.375 6ZM15.375 6.98684C15.1822 6.98684 14.92 7.1036 14.6102 7.49679C14.3047 7.88443 14.008 8.47592 13.7497 9.25081C13.2702 10.6894 12.9537 12.6664 12.9125 14.8816H17.8375C17.7963 12.6664 17.4798 10.6894 17.0003 9.25081C16.742 8.47592 16.4453 7.88443 16.1398 7.49679C15.83 7.1036 15.5678 6.98684 15.375 6.98684ZM18.8245 14.8816C18.7834 12.5845 18.4562 10.4977 17.9365 8.93874C17.707 8.25016 17.4338 7.64586 17.1182 7.16821C20.7584 7.93759 23.5277 11.0677 23.7489 14.8816H18.8245ZM17.8375 15.8684H12.9125C12.9537 18.0836 13.2702 20.0606 13.7497 21.4992C14.008 22.2741 14.3047 22.8656 14.6102 23.2532C14.92 23.6464 15.1822 23.7632 15.375 23.7632C15.5678 23.7632 15.83 23.6464 16.1398 23.2532C16.4453 22.8656 16.742 22.2741 17.0003 21.4992C17.4798 20.0606 17.7963 18.0836 17.8375 15.8684ZM17.1182 23.5818C17.4338 23.1041 17.707 22.4998 17.9365 21.8113C18.4562 20.2523 18.7834 18.1655 18.8245 15.8684H23.7489C23.5277 19.6823 20.7584 22.8124 17.1182 23.5818ZM13.6318 23.5818C13.3162 23.1041 13.043 22.4998 12.8135 21.8113C12.2938 20.2523 11.9666 18.1655 11.9255 15.8684H7.00111C7.22234 19.6823 9.99161 22.8124 13.6318 23.5818Z"
        fill="white" />
</svg>