<svg width="30" height="30" viewBox="0 0 30 30" fill="none" xmlns="http://www.w3.org/2000/svg">
    <circle cx="21.875" cy="8.125" r="6.875" fill="#FFCC00" />
    <path fill-rule="evenodd" clip-rule="evenodd"
        d="M7.90893 7.10294C7.46379 7.10294 7.10294 7.46379 7.10294 7.90893V18.0899C7.10294 18.535 7.46379 18.8959 7.90893 18.8959H11.9813C12.2859 18.8959 12.5328 19.1428 12.5328 19.4473C12.5328 19.7519 12.2859 19.9988 11.9813 19.9988H7.90893C6.85466 19.9988 6 19.1441 6 18.0899V7.90893C6 6.85466 6.85466 6 7.90893 6H22.841C23.8953 6 24.7499 6.85466 24.7499 7.90893V14.6962C24.7499 15.0008 24.503 15.2477 24.1984 15.2477C23.8939 15.2477 23.647 15.0008 23.647 14.6962V7.90893C23.647 7.46379 23.2861 7.10294 22.841 7.10294H7.90893Z"
        fill="white" />
    <path fill-rule="evenodd" clip-rule="evenodd"
        d="M6 11.3029C6 10.9984 6.2469 10.7515 6.55147 10.7515H24.1984C24.503 10.7515 24.7499 10.9984 24.7499 11.3029C24.7499 11.6075 24.503 11.8544 24.1984 11.8544H6.55147C6.2469 11.8544 6 11.6075 6 11.3029Z"
        fill="white" />
    <path fill-rule="evenodd" clip-rule="evenodd"
        d="M9.39404 16.0539C9.39404 15.7493 9.64094 15.5024 9.94551 15.5024H11.9817C12.2863 15.5024 12.5332 15.7493 12.5332 16.0539C12.5332 16.3585 12.2863 16.6054 11.9817 16.6054H9.94551C9.64094 16.6054 9.39404 16.3585 9.39404 16.0539Z"
        fill="white" />
    <path fill-rule="evenodd" clip-rule="evenodd"
        d="M24.7502 19.4475C24.7502 19.1429 24.5033 18.896 24.1988 18.896H15.3753C15.0707 18.896 14.8238 19.1429 14.8238 19.4475C14.8238 19.752 15.0707 19.9989 15.3753 19.9989H24.1988C24.5033 19.9989 24.7502 19.752 24.7502 19.4475Z"
        fill="white" />
    <path fill-rule="evenodd" clip-rule="evenodd"
        d="M18.4806 16.3427C18.2652 16.1273 17.916 16.1273 17.7007 16.3427L14.9858 19.0576C14.8823 19.161 14.8242 19.3013 14.8242 19.4475C14.8242 19.5938 14.8823 19.7341 14.9858 19.8375L17.7007 22.5524C17.916 22.7678 18.2652 22.7678 18.4806 22.5524C18.6959 22.337 18.6959 21.9879 18.4806 21.7725L16.1556 19.4475L18.4806 17.1226C18.6959 16.9072 18.6959 16.558 18.4806 16.3427Z"
        fill="white" />
</svg>