<svg width="30" height="30" viewBox="0 0 30 30" fill="none" xmlns="http://www.w3.org/2000/svg">
    <ellipse cx="21.25" cy="8.75" rx="7.5" ry="7.5" fill="#554400" />
    <path fill-rule="evenodd" clip-rule="evenodd"
        d="M7.16985 6.98134C7.06574 6.98134 6.98134 7.06574 6.98134 7.16985V23.4702C6.98134 23.5743 7.06574 23.6587 7.16985 23.6587H10.5657C10.6699 23.6587 10.7543 23.5743 10.7543 23.4702V7.16985C10.7543 7.06574 10.6699 6.98134 10.5657 6.98134H7.16985ZM6 7.16985C6 6.52376 6.52376 6 7.16985 6H10.5657C11.2118 6 11.7356 6.52376 11.7356 7.16985V23.4702C11.7356 24.1162 11.2118 24.64 10.5657 24.64H7.16985C6.52376 24.64 6 24.1162 6 23.4702V7.16985Z"
        fill="white" />
    <path fill-rule="evenodd" clip-rule="evenodd"
        d="M11.9242 9.69814C11.8201 9.69814 11.7357 9.78254 11.7357 9.88665V23.4702C11.7357 23.5743 11.8201 23.6587 11.9242 23.6587H15.3201C15.4243 23.6587 15.5086 23.5743 15.5086 23.4702V9.88665C15.5086 9.78254 15.4243 9.69814 15.3201 9.69814H11.9242ZM10.7544 9.88665C10.7544 9.24056 11.2782 8.7168 11.9242 8.7168H15.3201C15.9662 8.7168 16.49 9.24056 16.49 9.88665V23.4702C16.49 24.1163 15.9662 24.6401 15.3201 24.6401H11.9242C11.2782 24.6401 10.7544 24.1163 10.7544 23.4702V9.88665Z"
        fill="white" />
    <path fill-rule="evenodd" clip-rule="evenodd"
        d="M17.3497 9.97121C17.2487 9.99648 17.1873 10.0988 17.2126 10.1998L20.5102 23.3771C20.5355 23.4781 20.6379 23.5394 20.7389 23.5142L23.3743 22.8546C23.4753 22.8294 23.5367 22.727 23.5114 22.626L20.2137 9.44878C20.1885 9.34778 20.0861 9.2864 19.9851 9.31167L17.3497 9.97121ZM16.2606 10.4381C16.1037 9.81131 16.4847 9.17607 17.1114 9.01922L19.7469 8.35969C20.3736 8.20284 21.0089 8.58377 21.1657 9.21054L24.4634 22.3878C24.6202 23.0145 24.2393 23.6498 23.6125 23.8066L20.9771 24.4662C20.3503 24.623 19.7151 24.2421 19.5582 23.6153L16.2606 10.4381Z"
        fill="white" />
    <path fill-rule="evenodd" clip-rule="evenodd"
        d="M6 19.395C6 19.124 6.21968 18.9043 6.49067 18.9043H11.2449C11.5159 18.9043 11.7356 19.124 11.7356 19.395C11.7356 19.666 11.5159 19.8856 11.2449 19.8856H6.49067C6.21968 19.8856 6 19.666 6 19.395Z"
        fill="white" />
    <path fill-rule="evenodd" clip-rule="evenodd"
        d="M10.7544 18.0366C10.7544 17.7656 10.9741 17.5459 11.2451 17.5459H15.9993C16.2703 17.5459 16.49 17.7656 16.49 18.0366C16.49 18.3076 16.2703 18.5272 15.9993 18.5272H11.2451C10.9741 18.5272 10.7544 18.3076 10.7544 18.0366Z"
        fill="white" />
    <path fill-rule="evenodd" clip-rule="evenodd"
        d="M23.7832 19.6565C23.8489 19.9194 23.6891 20.1858 23.4262 20.2515L19.5141 21.2295C19.2512 21.2952 18.9848 21.1354 18.9191 20.8725C18.8533 20.6096 19.0132 20.3432 19.2761 20.2775L23.1882 19.2994C23.4511 19.2337 23.7175 19.3936 23.7832 19.6565Z"
        fill="white" />
</svg>