<svg width="20" height="20" viewBox="0 0 20 20" fill="none" xmlns="http://www.w3.org/2000/svg">
<ellipse cx="14.167" cy="5.83325" rx="5" ry="5" fill="#554400"/>
<path fill-rule="evenodd" clip-rule="evenodd" d="M4.31579 7.61834C3.95244 7.61834 3.65789 7.91289 3.65789 8.27624V15.1841C3.65789 15.5475 3.95244 15.842 4.31579 15.842H15.1711C15.5344 15.842 15.8289 15.5475 15.8289 15.1841V8.27624C15.8289 7.91289 15.5344 7.61834 15.1711 7.61834H4.31579ZM3 8.27624C3 7.54955 3.5891 6.96045 4.31579 6.96045H15.1711C15.8977 6.96045 16.4868 7.54955 16.4868 8.27624V15.1841C16.4868 15.9108 15.8977 16.4999 15.1711 16.4999H4.31579C3.5891 16.4999 3 15.9108 3 15.1841V8.27624Z" fill="white"/>
<path fill-rule="evenodd" clip-rule="evenodd" d="M3 11.2369C3 11.0552 3.14727 10.908 3.32895 10.908H16.1579C16.3396 10.908 16.4868 11.0552 16.4868 11.2369C16.4868 11.4186 16.3396 11.5659 16.1579 11.5659H3.32895C3.14727 11.5659 3 11.4186 3 11.2369Z" fill="white"/>
<path fill-rule="evenodd" clip-rule="evenodd" d="M9.74301 9.92114C9.92468 9.92114 10.072 10.0684 10.072 10.2501V12.2238C10.072 12.4054 9.92468 12.5527 9.74301 12.5527C9.56134 12.5527 9.41406 12.4054 9.41406 12.2238V10.2501C9.41406 10.0684 9.56134 9.92114 9.74301 9.92114Z" fill="white"/>
<path fill-rule="evenodd" clip-rule="evenodd" d="M7.41757 4.96346C8.03446 4.34657 8.87115 4 9.74358 4C10.616 4 11.4527 4.34657 12.0696 4.96346C12.6865 5.58036 13.033 6.41705 13.033 7.28947C13.033 7.47115 12.8858 7.61842 12.7041 7.61842C12.5224 7.61842 12.3752 7.47115 12.3752 7.28947C12.3752 6.59154 12.0979 5.92218 11.6044 5.42867C11.1109 4.93515 10.4415 4.65789 9.74358 4.65789C9.04564 4.65789 8.37628 4.93515 7.88277 5.42867C7.38925 5.92218 7.112 6.59154 7.112 7.28947C7.112 7.47115 6.96472 7.61842 6.78305 7.61842C6.60138 7.61842 6.4541 7.47115 6.4541 7.28947C6.4541 6.41705 6.80067 5.58036 7.41757 4.96346Z" fill="white"/>
</svg>
