<svg width="30" height="30" viewBox="0 0 30 30" fill="none" xmlns="http://www.w3.org/2000/svg">
    <circle cx="21.875" cy="8.125" r="6.875" fill="#383838" />
    <path fill-rule="evenodd" clip-rule="evenodd"
        d="M5.31706 7.17072C5.23624 7.17072 5.17072 7.23624 5.17072 7.31706V19.0243C5.17072 19.1051 5.23624 19.1706 5.31706 19.1706H22.8779C22.9587 19.1706 23.0242 19.1051 23.0242 19.0243V7.31706C23.0242 7.23624 22.9587 7.17072 22.8779 7.17072H5.31706ZM4 7.31706C4 6.58967 4.58967 6 5.31706 6H22.8779C23.6053 6 24.1949 6.58967 24.1949 7.31706V19.0243C24.1949 19.7517 23.6053 20.3413 22.8779 20.3413H5.31706C4.58967 20.3413 4 19.7517 4 19.0243V7.31706Z"
        fill="white" />
    <path fill-rule="evenodd" clip-rule="evenodd"
        d="M12.8523 19.2124C13.1524 19.3325 13.2984 19.6732 13.1784 19.9733L11.7149 23.6318C11.5949 23.932 11.2542 24.078 10.9541 23.9579C10.6539 23.8379 10.5079 23.4972 10.628 23.197L12.0914 19.5385C12.2114 19.2384 12.5521 19.0924 12.8523 19.2124Z"
        fill="white" />
    <path fill-rule="evenodd" clip-rule="evenodd"
        d="M15.3427 19.2124C15.6429 19.0924 15.9836 19.2384 16.1036 19.5385L17.567 23.197C17.6871 23.4972 17.5411 23.8379 17.2409 23.9579C16.9408 24.078 16.6001 23.932 16.48 23.6318L15.0166 19.9733C14.8966 19.6732 15.0426 19.3325 15.3427 19.2124Z"
        fill="white" />
    <path fill-rule="evenodd" clip-rule="evenodd"
        d="M9.12207 23.4147C9.12207 23.0914 9.38415 22.8293 9.70743 22.8293H18.4878C18.8111 22.8293 19.0732 23.0914 19.0732 23.4147C19.0732 23.738 18.8111 24.0001 18.4878 24.0001H9.70743C9.38415 24.0001 9.12207 23.738 9.12207 23.4147Z" fill="white" />
    <path fill-rule="evenodd" clip-rule="evenodd"
        d="M18.8731 9.80329C19.1164 10.0162 19.141 10.386 18.9282 10.6293L13.8062 16.4829C13.6046 16.7133 13.2595 16.7494 13.0145 16.5657L10.0877 14.3706C9.82907 14.1766 9.77665 13.8097 9.97062 13.5511C10.1646 13.2925 10.5315 13.2401 10.7901 13.434L13.2827 15.3034L18.0471 9.85835C18.26 9.61506 18.6298 9.5904 18.8731 9.80329Z"
        fill="white" />
</svg>