<svg xmlns="http://www.w3.org/2000/svg" width="30" height="30" viewBox="0 0 30 30" fill="none">
    <circle cx="21.875" cy="8.125" r="6.875" fill="#383838" />
    <path fill-rule="evenodd" clip-rule="evenodd"
        d="M9.31197 7.10294C8.92039 7.10294 8.60294 7.42039 8.60294 7.81197V22.938C8.60294 23.3296 8.92039 23.6471 9.31197 23.6471H19.396C19.7876 23.6471 20.105 23.3296 20.105 22.938V7.81197C20.105 7.42039 19.7876 7.10294 19.396 7.10294H9.31197ZM7.5 7.81197C7.5 6.81125 8.31125 6 9.31197 6H19.396C20.3967 6 21.208 6.81125 21.208 7.81197V22.938C21.208 23.9388 20.3967 24.75 19.396 24.75H9.31197C8.31125 24.75 7.5 23.9388 7.5 22.938V7.81197Z"
        fill="white" />
    <path fill-rule="evenodd" clip-rule="evenodd"
        d="M12.8574 21.0473C12.8574 20.7428 13.1043 20.4958 13.4089 20.4958H15.2996C15.6042 20.4958 15.8511 20.7428 15.8511 21.0473C15.8511 21.3519 15.6042 21.5988 15.2996 21.5988H13.4089C13.1043 21.5988 12.8574 21.3519 12.8574 21.0473Z"
        fill="white" />
    <path fill-rule="evenodd" clip-rule="evenodd"
        d="M11.8063 13.2343C12.0165 13.4445 12.0165 13.7854 11.8063 13.9956L10.572 15.2299L11.8063 16.4642C12.0165 16.6744 12.0165 17.0152 11.8063 17.2254C11.5961 17.4357 11.2553 17.4357 11.045 17.2254L9.43013 15.6105C9.21991 15.4003 9.21991 15.0595 9.43013 14.8492L11.045 13.2343C11.2553 13.0241 11.5961 13.0241 11.8063 13.2343Z"
        fill="white" />
    <path fill-rule="evenodd" clip-rule="evenodd"
        d="M16.9663 13.2343C17.1765 13.0241 17.5173 13.0241 17.7275 13.2343L19.3425 14.8492C19.5527 15.0595 19.5527 15.4003 19.3425 15.6105L17.7275 17.2254C17.5173 17.4357 17.1765 17.4357 16.9663 17.2254C16.756 17.0152 16.756 16.6744 16.9663 16.4642L18.2005 15.2299L16.9663 13.9956C16.756 13.7854 16.756 13.4445 16.9663 13.2343Z"
        fill="white" />
    <path fill-rule="evenodd" clip-rule="evenodd"
        d="M15.3646 12.0278C15.6467 12.1218 15.7991 12.4266 15.7051 12.7087L14.0901 17.5534C13.9961 17.8355 13.6913 17.9879 13.4092 17.8939C13.1272 17.7999 12.9748 17.495 13.0688 17.213L14.6837 12.3682C14.7777 12.0862 15.0826 11.9338 15.3646 12.0278Z"
        fill="white" />
</svg>