<svg width="20" height="20" viewBox="0 0 20 20" fill="none" xmlns="http://www.w3.org/2000/svg">
<ellipse cx="14.167" cy="5.83325" rx="5" ry="5" fill="#554400"/>
<path fill-rule="evenodd" clip-rule="evenodd" d="M4.36765 4C4.57069 4 4.73529 4.1646 4.73529 4.36765V15.7647H15.6208C15.8239 15.7647 15.9885 15.9293 15.9885 16.1324C15.9885 16.3354 15.8239 16.5 15.6208 16.5H4.36765C4.1646 16.5 4 16.3354 4 16.1324V4.36765C4 4.1646 4.1646 4 4.36765 4Z" fill="white"/>
<path fill-rule="evenodd" clip-rule="evenodd" d="M12.8601 5.72068C12.9688 5.7058 13.0785 5.74027 13.1592 5.81466L16.3817 8.78628C16.5309 8.92393 16.5403 9.15652 16.4027 9.30579C16.2651 9.45506 16.0325 9.46448 15.8832 9.32683L12.9883 6.65727L9.53974 12.2337C9.48196 12.3272 9.38541 12.3899 9.27654 12.4047C9.16767 12.4194 9.05789 12.3848 8.97727 12.3101L6.67548 10.1788C6.5265 10.0409 6.51755 9.80828 6.6555 9.65929C6.79345 9.5103 7.02606 9.50136 7.17505 9.63931L9.14921 11.4672L12.5972 5.89157C12.655 5.79823 12.7513 5.73556 12.8601 5.72068Z" fill="white"/>
</svg>
