<svg width="30" height="30" viewBox="0 0 30 30" fill="none" xmlns="http://www.w3.org/2000/svg">
    <ellipse cx="21.25" cy="8.75" rx="7.5" ry="7.5" fill="#383838" />
    <path fill-rule="evenodd" clip-rule="evenodd"
        d="M14.1445 7.90889C14.1445 7.60432 14.3914 7.35742 14.696 7.35742H16.0535C16.5597 7.35742 17.0453 7.55854 17.4033 7.91654C17.7613 8.27453 17.9624 8.76008 17.9624 9.26636V10.6238C17.9624 10.9284 17.7155 11.1753 17.4109 11.1753C17.1064 11.1753 16.8595 10.9284 16.8595 10.6238V9.26636C16.8595 9.0526 16.7745 8.84759 16.6234 8.69643C16.4722 8.54528 16.2672 8.46036 16.0535 8.46036H14.696C14.3914 8.46036 14.1445 8.21346 14.1445 7.90889Z"
        fill="white" />
    <path fill-rule="evenodd" clip-rule="evenodd"
        d="M7.90894 8.46036C7.69517 8.46036 7.49017 8.54528 7.33901 8.69643C7.18786 8.84759 7.10294 9.0526 7.10294 9.26636V18.7686C7.10294 18.9824 7.18786 19.1874 7.33901 19.3385C7.49017 19.4897 7.69517 19.5746 7.90894 19.5746H11.3026C11.6072 19.5746 11.8541 19.8215 11.8541 20.1261C11.8541 20.4307 11.6072 20.6776 11.3026 20.6776H7.90894C7.40265 20.6776 6.91711 20.4764 6.55911 20.1184C6.20112 19.7604 6 19.2749 6 18.7686V9.26636C6 8.76008 6.20112 8.27453 6.55911 7.91654C6.91711 7.55854 7.40266 7.35742 7.90894 7.35742H9.2664C9.57097 7.35742 9.81787 7.60432 9.81787 7.90889C9.81787 8.21346 9.57097 8.46036 9.2664 8.46036H7.90894Z"
        fill="white" />
    <path fill-rule="evenodd" clip-rule="evenodd"
        d="M16.0535 13.8903C15.6083 13.8903 15.2475 14.2512 15.2475 14.6963V22.8411C15.2475 23.2862 15.6083 23.6471 16.0535 23.6471H22.8408C23.2859 23.6471 23.6468 23.2862 23.6468 22.8411V14.6963C23.6468 14.2512 23.2859 13.8903 22.8408 13.8903H16.0535ZM14.1445 14.6963C14.1445 13.642 14.9992 12.7874 16.0535 12.7874H22.8408C23.8951 12.7874 24.7497 13.642 24.7497 14.6963V22.8411C24.7497 23.8954 23.8951 24.75 22.8408 24.75H16.0535C14.9992 24.75 14.1445 23.8954 14.1445 22.8411V14.6963Z"
        fill="white" />
    <path fill-rule="evenodd" clip-rule="evenodd"
        d="M9.95934 7.10294L10.2902 8.75735H13.7978L14.1287 7.10294H9.95934ZM8.82505 7.0554C8.71585 6.50941 9.13346 6 9.69027 6H14.3978C14.9546 6 15.3722 6.5094 15.263 7.0554L14.8439 9.15098C14.7614 9.56342 14.3992 9.86029 13.9786 9.86029H10.1094C9.68879 9.86029 9.32666 9.56342 9.24417 9.15099L8.82505 7.0554Z"
        fill="white" />
    <path fill-rule="evenodd" clip-rule="evenodd"
        d="M16.8594 17.4113C16.8594 17.1068 17.1063 16.8599 17.4108 16.8599H21.4832C21.7878 16.8599 22.0347 17.1068 22.0347 17.4113C22.0347 17.7159 21.7878 17.9628 21.4832 17.9628H17.4108C17.1063 17.9628 16.8594 17.7159 16.8594 17.4113Z" fill="white" />
    <path fill-rule="evenodd" clip-rule="evenodd"
        d="M16.8594 20.1262C16.8594 19.8216 17.1063 19.5747 17.4108 19.5747H21.4832C21.7878 19.5747 22.0347 19.8216 22.0347 20.1262C22.0347 20.4307 21.7878 20.6776 21.4832 20.6776H17.4108C17.1063 20.6776 16.8594 20.4307 16.8594 20.1262Z" fill="white" />
</svg>