<svg width="20" height="20" viewBox="0 0 20 20" fill="none" xmlns="http://www.w3.org/2000/svg">
<ellipse cx="14.167" cy="5.83325" rx="5" ry="5" fill="#554400"/>
<path fill-rule="evenodd" clip-rule="evenodd" d="M5 4.36765C5 4.1646 5.1646 4 5.36765 4H14.7794C14.9825 4 15.1471 4.1646 15.1471 4.36765V16.1324C15.1471 16.266 15.0745 16.3891 14.9576 16.4539C14.8407 16.5187 14.6979 16.515 14.5846 16.4441L13.6029 15.8306L12.6213 16.4441C12.5021 16.5186 12.3508 16.5186 12.2316 16.4441L11.25 15.8306L10.2684 16.4441C10.1492 16.5186 9.99789 16.5186 9.87868 16.4441L8.89706 15.8306L7.91544 16.4441C7.79622 16.5186 7.64495 16.5186 7.52574 16.4441L6.54412 15.8306L5.5625 16.4441C5.44917 16.515 5.30632 16.5187 5.18942 16.4539C5.07253 16.3891 5 16.266 5 16.1324V4.36765ZM5.73529 4.73529V15.469L6.34927 15.0853C6.46848 15.0108 6.61975 15.0108 6.73897 15.0853L7.72059 15.6988L8.70221 15.0853C8.82142 15.0108 8.97269 15.0108 9.09191 15.0853L10.0735 15.6988L11.0551 15.0853C11.1744 15.0108 11.3256 15.0108 11.4449 15.0853L12.4265 15.6988L13.4081 15.0853C13.5273 15.0108 13.6786 15.0108 13.7978 15.0853L14.4118 15.469V4.73529H5.73529ZM7.35294 6.72059C7.35294 6.51754 7.51754 6.35294 7.72059 6.35294H8.89706C9.1001 6.35294 9.26471 6.51754 9.26471 6.72059C9.26471 6.92363 9.1001 7.08824 8.89706 7.08824H7.72059C7.51754 7.08824 7.35294 6.92363 7.35294 6.72059ZM7.35294 9.07353C7.35294 8.87048 7.51754 8.70588 7.72059 8.70588H12.4265C12.6295 8.70588 12.7941 8.87048 12.7941 9.07353C12.7941 9.27658 12.6295 9.44118 12.4265 9.44118H7.72059C7.51754 9.44118 7.35294 9.27658 7.35294 9.07353ZM7.35294 11.4265C7.35294 11.2234 7.51754 11.0588 7.72059 11.0588H12.4265C12.6295 11.0588 12.7941 11.2234 12.7941 11.4265C12.7941 11.6295 12.6295 11.7941 12.4265 11.7941H7.72059C7.51754 11.7941 7.35294 11.6295 7.35294 11.4265Z" fill="white"/>
</svg>
