<svg width="30" height="30" viewBox="0 0 30 30" fill="none" xmlns="http://www.w3.org/2000/svg">
    <ellipse cx="21.25" cy="8.75" rx="7.5" ry="7.5" fill="#554400" />
    <path fill-rule="evenodd" clip-rule="evenodd"
        d="M10.3158 10.6447C10.3158 9.73637 11.0522 9 11.9605 9H18.5395C19.4479 9 20.1842 9.73637 20.1842 10.6447V20.8421L21.1711 20.8421C21.3527 20.8421 21.5 20.9894 21.5 21.171C21.5 21.3527 21.3527 21.5 21.1711 21.5H9.32894C9.14727 21.5 9 21.3527 9 21.171C9 20.9894 9.14728 20.8421 9.32895 20.8421L10.3158 20.8421V10.6447ZM10.9737 20.8421H13.6053V17.8816C13.6053 17.3366 14.0471 16.8947 14.5921 16.8947H15.9079C16.4529 16.8947 16.8947 17.3366 16.8947 17.8816V20.8421H19.5263V10.6447C19.5263 10.0997 19.0845 9.6579 18.5395 9.6579H11.9605C11.4155 9.6579 10.9737 10.0997 10.9737 10.6447V20.8421ZM16.2369 20.8421V17.8816C16.2369 17.6999 16.0896 17.5526 15.9079 17.5526H14.5921C14.4104 17.5526 14.2632 17.6999 14.2632 17.8816V20.8421H16.2369ZM12.9474 11.9605C12.9474 11.7788 13.0946 11.6316 13.2763 11.6316H13.9342C14.1159 11.6316 14.2632 11.7788 14.2632 11.9605C14.2632 12.1422 14.1159 12.2895 13.9342 12.2895H13.2763C13.0946 12.2895 12.9474 12.1422 12.9474 11.9605ZM16.2369 11.9605C16.2369 11.7788 16.3841 11.6316 16.5658 11.6316H17.2237C17.4054 11.6316 17.5526 11.7788 17.5526 11.9605C17.5526 12.1422 17.4054 12.2895 17.2237 12.2895H16.5658C16.3841 12.2895 16.2369 12.1422 16.2369 11.9605ZM12.9474 14.5921C12.9474 14.4104 13.0946 14.2632 13.2763 14.2632H13.9342C14.1159 14.2632 14.2632 14.4104 14.2632 14.5921C14.2632 14.7738 14.1159 14.921 13.9342 14.921H13.2763C13.0946 14.921 12.9474 14.7738 12.9474 14.5921ZM16.2369 14.5921C16.2369 14.4104 16.3841 14.2632 16.5658 14.2632H17.2237C17.4054 14.2632 17.5526 14.4104 17.5526 14.5921C17.5526 14.7738 17.4054 14.921 17.2237 14.921H16.5658C16.3841 14.921 16.2369 14.7738 16.2369 14.5921Z"
        fill="white" />
</svg>