<svg width="30" height="30" viewBox="0 0 30 30" fill="none" xmlns="http://www.w3.org/2000/svg">
    <ellipse cx="21.25" cy="8.75" rx="7.5" ry="7.5" fill="#554400" />
    <path fill-rule="evenodd" clip-rule="evenodd"
        d="M7.10526 11.3684C7.10526 10.0604 8.28346 9 9.73684 9H20.2632C21.7165 9 22.8947 10.0604 22.8947 11.3684V26.0526L24.4737 26.0526C24.7644 26.0526 25 26.2647 25 26.5263C25 26.7879 24.7644 27 24.4737 27H5.52631C5.23563 27 5 26.7879 5 26.5263C5 26.2647 5.23565 26.0526 5.52632 26.0526L7.10526 26.0526V11.3684ZM8.15789 26.0527H12.3684V21.7895C12.3684 21.0046 13.0753 20.3684 13.9474 20.3684H16.0526C16.9247 20.3684 17.6316 21.0046 17.6316 21.7895V26.0527H21.8421V11.3684C21.8421 10.5836 21.1352 9.94737 20.2632 9.94737H9.73684C8.86481 9.94737 8.15789 10.5836 8.15789 11.3684V26.0527ZM16.5789 26.0527V21.7895C16.5789 21.5279 16.3433 21.3158 16.0526 21.3158H13.9474C13.6567 21.3158 13.4211 21.5279 13.4211 21.7895V26.0527H16.5789ZM11.3158 13.2631C11.3158 13.0015 11.5514 12.7895 11.8421 12.7895H12.8947C13.1854 12.7895 13.4211 13.0015 13.4211 13.2631C13.4211 13.5248 13.1854 13.7368 12.8947 13.7368H11.8421C11.5514 13.7368 11.3158 13.5248 11.3158 13.2631ZM16.5789 13.2631C16.5789 13.0015 16.8146 12.7895 17.1053 12.7895H18.1579C18.4486 12.7895 18.6842 13.0015 18.6842 13.2631C18.6842 13.5248 18.4486 13.7368 18.1579 13.7368H17.1053C16.8146 13.7368 16.5789 13.5248 16.5789 13.2631ZM11.3158 17.0526C11.3158 16.791 11.5514 16.5789 11.8421 16.5789H12.8947C13.1854 16.5789 13.4211 16.791 13.4211 17.0526C13.4211 17.3142 13.1854 17.5263 12.8947 17.5263H11.8421C11.5514 17.5263 11.3158 17.3142 11.3158 17.0526ZM16.5789 17.0526C16.5789 16.791 16.8146 16.5789 17.1053 16.5789H18.1579C18.4486 16.5789 18.6842 16.791 18.6842 17.0526C18.6842 17.3142 18.4486 17.5263 18.1579 17.5263H17.1053C16.8146 17.5263 16.5789 17.3142 16.5789 17.0526Z"
        fill="white" />
</svg>