<svg width="30" height="30" viewBox="0 0 30 30" fill="none" xmlns="http://www.w3.org/2000/svg">
    <circle cx="21.875" cy="8.125" r="6.875" fill="#554400" />
    <path fill-rule="evenodd" clip-rule="evenodd"
        d="M7.90894 7.10294C7.4638 7.10294 7.10294 7.4638 7.10294 7.90894V18.0899C7.10294 18.5351 7.4638 18.8959 7.90894 18.8959H11.9813C12.2859 18.8959 12.5328 19.1428 12.5328 19.4474C12.5328 19.752 12.2859 19.9989 11.9813 19.9989H7.90894C6.85466 19.9989 6 19.1442 6 18.0899V7.90894C6 6.85466 6.85466 6 7.90894 6H22.8411C23.8953 6 24.75 6.85466 24.75 7.90894V14.6963C24.75 15.0008 24.5031 15.2477 24.1985 15.2477C23.894 15.2477 23.6471 15.0008 23.6471 14.6963V7.90894C23.6471 7.4638 23.2862 7.10294 22.8411 7.10294H7.90894Z"
        fill="white" />
    <path fill-rule="evenodd" clip-rule="evenodd"
        d="M6 11.3029C6 10.9984 6.2469 10.7515 6.55147 10.7515H24.1985C24.5031 10.7515 24.75 10.9984 24.75 11.3029C24.75 11.6075 24.5031 11.8544 24.1985 11.8544H6.55147C6.2469 11.8544 6 11.6075 6 11.3029Z"
        fill="white" />
    <path fill-rule="evenodd" clip-rule="evenodd"
        d="M9.39404 16.0539C9.39404 15.7493 9.64094 15.5024 9.94551 15.5024H11.9817C12.2863 15.5024 12.5332 15.7493 12.5332 16.0539C12.5332 16.3585 12.2863 16.6054 11.9817 16.6054H9.94551C9.64094 16.6054 9.39404 16.3585 9.39404 16.0539Z"
        fill="white" />
    <path fill-rule="evenodd" clip-rule="evenodd"
        d="M14.8235 19.447C14.8235 19.1424 15.0704 18.8955 15.375 18.8955H24.1985C24.5031 18.8955 24.75 19.1424 24.75 19.447C24.75 19.7515 24.5031 19.9984 24.1985 19.9984H15.375C15.0704 19.9984 14.8235 19.7515 14.8235 19.447Z"
        fill="white" />
    <path fill-rule="evenodd" clip-rule="evenodd"
        d="M21.0932 16.3427C21.3085 16.1273 21.6577 16.1273 21.8731 16.3427L24.588 19.0576C24.6914 19.161 24.7495 19.3013 24.7495 19.4476C24.7495 19.5938 24.6914 19.7341 24.588 19.8375L21.8731 22.5524C21.6577 22.7678 21.3085 22.7678 21.0932 22.5524C20.8778 22.3371 20.8778 21.9879 21.0932 21.7725L23.4181 19.4476L21.0932 17.1226C20.8778 16.9072 20.8778 16.558 21.0932 16.3427Z"
        fill="white" />
</svg>