<svg width="30" height="30" viewBox="0 0 30 30" fill="none" xmlns="http://www.w3.org/2000/svg">
    <ellipse cx="21.25" cy="8.75" rx="7.5" ry="7.5" fill="#554400" />
    <path fill-rule="evenodd" clip-rule="evenodd"
        d="M8.72062 6H19.8596C20.0764 6.00306 20.2887 6.06347 20.4747 6.17499C20.6608 6.28652 20.814 6.44525 20.9189 6.6351C21.0238 6.82495 21.0767 7.03916 21.0721 7.25603C21.0676 7.47289 21.0057 7.68469 20.8929 7.86995L20.8897 7.8752L14.754 17.7032C14.6532 17.8645 14.4764 17.9626 14.2862 17.9626C14.096 17.9626 13.9192 17.8645 13.8184 17.7032L7.67945 7.86997C7.56663 7.68471 7.50484 7.47289 7.50027 7.25603C7.49571 7.03916 7.54856 6.82495 7.65348 6.6351C7.75839 6.44525 7.91164 6.28652 8.09769 6.17499C8.28373 6.06347 8.49595 6.00311 8.71284 6.00005L8.72062 6ZM8.72605 7.10293C8.70443 7.10364 8.68334 7.10984 8.66476 7.12098C8.64552 7.13251 8.62966 7.14893 8.61881 7.16857C8.60796 7.18821 8.60249 7.21037 8.60296 7.23281C8.60342 7.25462 8.60948 7.27594 8.62055 7.29472L14.2862 16.3698L19.9518 7.29472C19.9629 7.27594 19.969 7.25462 19.9694 7.23281C19.9699 7.21037 19.9644 7.18821 19.9536 7.16857C19.9427 7.14893 19.9269 7.13251 19.9076 7.12098C19.8891 7.10984 19.868 7.10364 19.8463 7.10293H8.72605Z"
        fill="white" />
    <path fill-rule="evenodd" clip-rule="evenodd"
        d="M14.2868 16.8599C14.5914 16.8599 14.8383 17.1068 14.8383 17.4113V24.1986C14.8383 24.5032 14.5914 24.7501 14.2868 24.7501C13.9823 24.7501 13.7354 24.5032 13.7354 24.1986V17.4113C13.7354 17.1068 13.9823 16.8599 14.2868 16.8599Z"
        fill="white" />
    <path fill-rule="evenodd" clip-rule="evenodd"
        d="M10.3413 24.1984C10.3413 23.8939 10.5882 23.647 10.8928 23.647H17.6801C17.9846 23.647 18.2315 23.8939 18.2315 24.1984C18.2315 24.503 17.9846 24.7499 17.6801 24.7499H10.8928C10.5882 24.7499 10.3413 24.503 10.3413 24.1984Z"
        fill="white" />
    <path fill-rule="evenodd" clip-rule="evenodd"
        d="M9.06616 9.94502C9.06616 9.64045 9.31306 9.39355 9.61763 9.39355H18.9569C19.2615 9.39355 19.5084 9.64045 19.5084 9.94502C19.5084 10.2496 19.2615 10.4965 18.9569 10.4965H9.61763C9.31306 10.4965 9.06616 10.2496 9.06616 9.94502Z"
        fill="white" />
</svg>