<svg width="20" height="20" viewBox="0 0 20 20" fill="none" xmlns="http://www.w3.org/2000/svg">
<circle cx="14.5833" cy="5.41659" r="4.58333" fill="#554400"/>
<path fill-rule="evenodd" clip-rule="evenodd" d="M8.53077 8.40672C8.36396 8.582 8.29951 8.74428 8.29951 8.88863C8.29951 9.03297 8.36396 9.19525 8.53077 9.37053C8.69919 9.54751 8.95845 9.72186 9.30399 9.87543C9.99423 10.1822 10.9708 10.3803 12.067 10.3803C13.1632 10.3803 14.1399 10.1822 14.8301 9.87543C15.1756 9.72186 15.4349 9.54751 15.6033 9.37053C15.7701 9.19525 15.8346 9.03297 15.8346 8.88863C15.8346 8.74428 15.7701 8.582 15.6033 8.40672C15.4349 8.22974 15.1756 8.0554 14.8301 7.90183C14.1399 7.59505 13.1632 7.39692 12.067 7.39692C10.9708 7.39692 9.99423 7.59505 9.30399 7.90183C8.95845 8.0554 8.69919 8.22974 8.53077 8.40672ZM9.03679 7.30062C9.82918 6.94845 10.9008 6.73901 12.067 6.73901C13.2333 6.73901 14.3049 6.94845 15.0973 7.30062C15.4931 7.47653 15.8337 7.6945 16.0799 7.95317C16.3277 8.21353 16.4925 8.53021 16.4925 8.88863C16.4925 9.24704 16.3277 9.56372 16.0799 9.82408C15.8337 10.0827 15.4931 10.3007 15.0973 10.4766C14.3049 10.8288 13.2333 11.0382 12.067 11.0382C10.9008 11.0382 9.82918 10.8288 9.03679 10.4766C8.641 10.3007 8.30035 10.0827 8.05418 9.82408C7.80641 9.56372 7.6416 9.24704 7.6416 8.88863C7.6416 8.53021 7.80641 8.21353 8.05418 7.95317C8.30035 7.6945 8.641 7.47653 9.03679 7.30062Z" fill="white"/>
<path fill-rule="evenodd" clip-rule="evenodd" d="M7.97055 8.55957C8.15223 8.55957 8.29951 8.70685 8.29951 8.88852V14.3505C8.29951 14.4942 8.3635 14.6561 8.52935 14.8312C8.69681 15.0078 8.95482 15.1822 9.29939 15.3359C9.98773 15.643 10.9641 15.8422 12.067 15.8422C13.1699 15.8422 14.1464 15.643 14.8347 15.3359C15.1793 15.1822 15.4373 15.0078 15.6047 14.8312C15.7706 14.6561 15.8346 14.4942 15.8346 14.3505V8.88852C15.8346 8.70685 15.9819 8.55957 16.1635 8.55957C16.3452 8.55957 16.4925 8.70685 16.4925 8.88852V14.3505C16.4925 14.7075 16.3289 15.0235 16.0823 15.2837C15.8372 15.5423 15.4978 15.7605 15.1027 15.9368C14.3118 16.2896 13.24 16.5001 12.067 16.5001C10.8941 16.5001 9.82228 16.2896 9.03133 15.9368C8.63626 15.7605 8.29687 15.5423 8.05183 15.2837C7.80519 15.0235 7.6416 14.7075 7.6416 14.3505V8.88852C7.6416 8.70685 7.78888 8.55957 7.97055 8.55957Z" fill="white"/>
<path fill-rule="evenodd" clip-rule="evenodd" d="M7.97055 11.2908C8.15223 11.2908 8.29951 11.438 8.29951 11.6197C8.29951 11.7635 8.3635 11.9254 8.52935 12.1004C8.69681 12.2771 8.95482 12.4514 9.29939 12.6052C9.98773 12.9123 10.9641 13.1114 12.067 13.1114C13.1699 13.1114 14.1464 12.9123 14.8347 12.6052C15.1793 12.4514 15.4373 12.2771 15.6047 12.1004C15.7706 11.9254 15.8346 11.7635 15.8346 11.6197C15.8346 11.438 15.9819 11.2908 16.1635 11.2908C16.3452 11.2908 16.4925 11.438 16.4925 11.6197C16.4925 11.9767 16.3289 12.2927 16.0823 12.5529C15.8372 12.8115 15.4978 13.0297 15.1027 13.206C14.3118 13.5589 13.24 13.7693 12.067 13.7693C10.8941 13.7693 9.82228 13.5589 9.03133 13.206C8.63626 13.0297 8.29687 12.8115 8.05183 12.5529C7.80519 12.2927 7.6416 11.9767 7.6416 11.6197C7.6416 11.438 7.78888 11.2908 7.97055 11.2908Z" fill="white"/>
<path fill-rule="evenodd" clip-rule="evenodd" d="M8.4171 4.00799C9.72925 3.94283 11.0304 4.27731 12.1485 4.96734C12.3031 5.06275 12.3511 5.26543 12.2557 5.42003C12.1603 5.57463 11.9576 5.62262 11.803 5.52721C10.796 4.90579 9.62391 4.60525 8.44218 4.66547C8.4366 4.66575 8.43102 4.66589 8.42544 4.66589C7.32725 4.66589 6.35071 4.86502 5.66103 5.17225C5.31577 5.32605 5.05682 5.50052 4.88864 5.67736C4.722 5.85259 4.6579 6.01439 4.6579 6.1576C4.6579 6.31032 4.73159 6.48553 4.92739 6.67662C5.12421 6.86871 5.42493 7.05587 5.82003 7.21906C5.98794 7.28842 6.06784 7.48076 5.99849 7.64868C5.92913 7.81659 5.73678 7.89649 5.56887 7.82714C5.12646 7.6444 4.74443 7.41736 4.46788 7.14745C4.19031 6.87655 4 6.54198 4 6.1576C4 5.80013 4.16462 5.48401 4.4119 5.22399C4.65764 4.96558 4.9978 4.74747 5.39332 4.57127C6.18331 4.21936 7.25181 4.00899 8.4171 4.00799Z" fill="white"/>
<path fill-rule="evenodd" clip-rule="evenodd" d="M4.32895 5.82861C4.51063 5.82861 4.6579 5.97589 4.6579 6.15757V11.6195C4.6579 11.7723 4.73159 11.9475 4.92739 12.1386C5.12421 12.3307 5.42493 12.5178 5.82003 12.681C5.98794 12.7504 6.06784 12.9427 5.99849 13.1106C5.92913 13.2785 5.73678 13.3584 5.56887 13.2891C5.12646 13.1063 4.74443 12.8793 4.46788 12.6094C4.19031 12.3385 4 12.0039 4 11.6195V6.15757C4 5.97589 4.14728 5.82861 4.32895 5.82861Z" fill="white"/>
<path fill-rule="evenodd" clip-rule="evenodd" d="M4.32895 8.55957C4.51063 8.55957 4.6579 8.70685 4.6579 8.88852C4.6579 9.04124 4.73159 9.21645 4.92739 9.40754C5.12421 9.59963 5.42493 9.78679 5.82003 9.94998C5.98794 10.0193 6.06784 10.2117 5.99849 10.3796C5.92913 10.5475 5.73678 10.6274 5.56887 10.5581C5.12646 10.3753 4.74443 10.1483 4.46788 9.87838C4.19031 9.60748 4 9.2729 4 8.88852C4 8.70685 4.14728 8.55957 4.32895 8.55957Z" fill="white"/>
</svg>
