<svg width="30" height="30" viewBox="0 0 30 30" fill="none" xmlns="http://www.w3.org/2000/svg">
    <circle cx="21.875" cy="8.125" r="6.875" fill="#554400" />
    <path fill-rule="evenodd" clip-rule="evenodd"
        d="M12.7962 12.61C12.5459 12.8729 12.4493 13.1163 12.4493 13.3328C12.4493 13.5493 12.5459 13.7928 12.7962 14.0557C13.0488 14.3211 13.4377 14.5827 13.956 14.813C14.9913 15.2732 16.4563 15.5704 18.1006 15.5704C19.7449 15.5704 21.2098 15.2732 22.2451 14.813C22.7634 14.5827 23.1523 14.3211 23.405 14.0557C23.6552 13.7928 23.7519 13.5493 23.7519 13.3328C23.7519 13.1163 23.6552 12.8729 23.405 12.61C23.1523 12.3445 22.7634 12.083 22.2451 11.8526C21.2098 11.3925 19.7449 11.0953 18.1006 11.0953C16.4563 11.0953 14.9913 11.3925 13.956 11.8526C13.4377 12.083 13.0488 12.3445 12.7962 12.61ZM13.5552 10.9508C14.7438 10.4225 16.3512 10.1084 18.1006 10.1084C19.8499 10.1084 21.4573 10.4225 22.6459 10.9508C23.2396 11.2147 23.7506 11.5416 24.1198 11.9296C24.4915 12.3202 24.7387 12.7952 24.7387 13.3328C24.7387 13.8704 24.4915 14.3455 24.1198 14.736C23.7506 15.124 23.2396 15.451 22.6459 15.7148C21.4573 16.2431 19.8499 16.5572 18.1006 16.5572C16.3512 16.5572 14.7438 16.2431 13.5552 15.7148C12.9615 15.451 12.4505 15.124 12.0813 14.736C11.7096 14.3455 11.4624 13.8704 11.4624 13.3328C11.4624 12.7952 11.7096 12.3202 12.0813 11.9296C12.4505 11.5416 12.9615 11.2147 13.5552 10.9508Z"
        fill="white" />
    <path fill-rule="evenodd" clip-rule="evenodd"
        d="M11.9558 12.8394C12.2283 12.8394 12.4493 13.0603 12.4493 13.3328V21.5258C12.4493 21.7413 12.5452 21.9842 12.794 22.2467C13.0452 22.5118 13.4322 22.7733 13.9491 23.0039C14.9816 23.4646 16.4462 23.7633 18.1006 23.7633C19.7549 23.7633 21.2195 23.4646 22.252 23.0039C22.7689 22.7733 23.1559 22.5118 23.4071 22.2467C23.6559 21.9842 23.7519 21.7413 23.7519 21.5258V13.3328C23.7519 13.0603 23.9728 12.8394 24.2453 12.8394C24.5178 12.8394 24.7387 13.0603 24.7387 13.3328V21.5258C24.7387 22.0612 24.4933 22.5352 24.1234 22.9256C23.7558 23.3134 23.2467 23.6407 22.6541 23.9051C21.4677 24.4345 19.8599 24.7502 18.1006 24.7502C16.3412 24.7502 14.7334 24.4345 13.547 23.9051C12.9544 23.6407 12.4453 23.3134 12.0777 22.9256C11.7078 22.5352 11.4624 22.0612 11.4624 21.5258V13.3328C11.4624 13.0603 11.6833 12.8394 11.9558 12.8394Z"
        fill="white" />
    <path fill-rule="evenodd" clip-rule="evenodd"
        d="M11.9558 16.936C12.2283 16.936 12.4493 17.157 12.4493 17.4295C12.4493 17.6451 12.5452 17.8879 12.794 18.1504C13.0452 18.4155 13.4322 18.677 13.9491 18.9076C14.9816 19.3683 16.4462 19.667 18.1006 19.667C19.7549 19.667 21.2195 19.3683 22.252 18.9076C22.7689 18.677 23.1559 18.4155 23.4071 18.1504C23.6559 17.8879 23.7519 17.6451 23.7519 17.4295C23.7519 17.157 23.9728 16.936 24.2453 16.936C24.5178 16.936 24.7387 17.157 24.7387 17.4295C24.7387 17.9649 24.4933 18.4389 24.1234 18.8293C23.7558 19.2171 23.2467 19.5444 22.6541 19.8088C21.4677 20.3382 19.8599 20.6539 18.1006 20.6539C16.3412 20.6539 14.7334 20.3382 13.547 19.8088C12.9544 19.5444 12.4453 19.2171 12.0777 18.8293C11.7078 18.4389 11.4624 17.9649 11.4624 17.4295C11.4624 17.157 11.6833 16.936 11.9558 16.936Z"
        fill="white" />
    <path fill-rule="evenodd" clip-rule="evenodd"
        d="M12.6256 6.01199C14.5939 5.91424 16.5455 6.41596 18.2227 7.451C18.4546 7.59412 18.5266 7.89814 18.3835 8.13005C18.2404 8.36195 17.9364 8.43393 17.7045 8.29081C16.194 7.35868 14.4359 6.90787 12.6633 6.9982C12.6549 6.99863 12.6465 6.99884 12.6382 6.99884C10.9909 6.99884 9.52607 7.29752 8.49155 7.75837C7.97365 7.98908 7.58523 8.25077 7.33297 8.51604C7.083 8.77889 6.98686 9.02159 6.98686 9.2364C6.98686 9.46548 7.09739 9.72829 7.39109 10.0149C7.68632 10.3031 8.1374 10.5838 8.73004 10.8286C8.98192 10.9326 9.10176 11.2211 8.99773 11.473C8.89369 11.7249 8.60517 11.8447 8.3533 11.7407C7.68969 11.4666 7.11664 11.126 6.70182 10.7212C6.28546 10.3148 6 9.81297 6 9.2364C6 8.7002 6.24693 8.22601 6.61785 7.83598C6.98645 7.44837 7.4967 7.1212 8.08998 6.85691C9.27497 6.32903 10.8777 6.01349 12.6256 6.01199Z"
        fill="white" />
    <path fill-rule="evenodd" clip-rule="evenodd"
        d="M6.49343 8.74316C6.76594 8.74316 6.98686 8.96408 6.98686 9.23659V17.4296C6.98686 17.6586 7.09739 17.9215 7.39109 18.2081C7.68632 18.4962 8.1374 18.777 8.73004 19.0217C8.98192 19.1258 9.10176 19.4143 8.99773 19.6662C8.89369 19.9181 8.60517 20.0379 8.3533 19.9339C7.68969 19.6598 7.11664 19.3192 6.70182 18.9143C6.28546 18.508 6 18.0061 6 17.4296V9.23659C6 8.96408 6.22092 8.74316 6.49343 8.74316Z"
        fill="white" />
    <path fill-rule="evenodd" clip-rule="evenodd"
        d="M6.49343 12.8394C6.76594 12.8394 6.98686 13.0603 6.98686 13.3328C6.98686 13.5619 7.09739 13.8247 7.39109 14.1113C7.68632 14.3994 8.1374 14.6802 8.73004 14.925C8.98192 15.029 9.10176 15.3175 8.99773 15.5694C8.89369 15.8213 8.60517 15.9411 8.3533 15.8371C7.68969 15.563 7.11664 15.2224 6.70182 14.8176C6.28546 14.4112 6 13.9094 6 13.3328C6 13.0603 6.22092 12.8394 6.49343 12.8394Z"
        fill="white" />
</svg>