<svg width="30" height="30" viewBox="0 0 30 30" fill="none" xmlns="http://www.w3.org/2000/svg">
    <ellipse cx="21.25" cy="8.75" rx="7.5" ry="7.5" fill="#554400" />
    <path fill-rule="evenodd" clip-rule="evenodd"
        d="M6.55147 6C6.85604 6 7.10294 6.2469 7.10294 6.55147V23.6471H23.4313C23.7358 23.6471 23.9827 23.894 23.9827 24.1985C23.9827 24.5031 23.7358 24.75 23.4313 24.75H6.55147C6.2469 24.75 6 24.5031 6 24.1985V6.55147C6 6.2469 6.2469 6 6.55147 6Z"
        fill="white" />
    <path fill-rule="evenodd" clip-rule="evenodd"
        d="M19.2903 8.58078C19.4534 8.55846 19.618 8.61016 19.739 8.72175L24.5727 13.1792C24.7966 13.3857 24.8108 13.7345 24.6043 13.9584C24.3978 14.1823 24.0489 14.1965 23.825 13.99L19.4826 9.98566L14.3099 18.3503C14.2232 18.4905 14.0784 18.5846 13.9151 18.6067C13.7517 18.6289 13.5871 18.5769 13.4662 18.4649L10.0135 15.268C9.78999 15.0611 9.77657 14.7122 9.9835 14.4887C10.1904 14.2652 10.5393 14.2518 10.7628 14.4587L13.7241 17.2006L18.8961 8.83711C18.9827 8.69711 19.1273 8.6031 19.2903 8.58078Z"
        fill="white" />
</svg>