<svg width="20" height="20" viewBox="0 0 20 20" fill="none" xmlns="http://www.w3.org/2000/svg">
<ellipse cx="14.167" cy="5.83325" rx="5" ry="5" fill="#FFCC00"/>
<path fill-rule="evenodd" clip-rule="evenodd" d="M4.76742 11.7874C4.9491 11.7874 5.09637 11.9346 5.09637 12.1163V16.2155C5.09637 16.249 5.1097 16.2812 5.13343 16.305C5.15715 16.3287 5.18933 16.342 5.22289 16.342H14.3322C14.3658 16.342 14.3979 16.3287 14.4217 16.305C14.4454 16.2812 14.4587 16.249 14.4587 16.2155V12.1163C14.4587 11.9346 14.606 11.7874 14.7877 11.7874C14.9693 11.7874 15.1166 11.9346 15.1166 12.1163V16.2155C15.1166 16.4235 15.034 16.623 14.8869 16.7702C14.7398 16.9173 14.5402 16.9999 14.3322 16.9999H5.22289C5.01485 16.9999 4.81533 16.9173 4.66823 16.7702C4.52112 16.623 4.43848 16.4235 4.43848 16.2155V12.1163C4.43848 11.9346 4.58575 11.7874 4.76742 11.7874Z" fill="white"/>
<path fill-rule="evenodd" clip-rule="evenodd" d="M10.6883 11.7874C10.87 11.7874 11.0173 11.9346 11.0173 12.1163V16.671C11.0173 16.8526 10.87 16.9999 10.6883 16.9999C10.5066 16.9999 10.3594 16.8526 10.3594 16.671V12.1163C10.3594 11.9346 10.5066 11.7874 10.6883 11.7874Z" fill="white"/>
<path fill-rule="evenodd" clip-rule="evenodd" d="M4.43848 13.4828C4.43848 13.3011 4.58575 13.1538 4.76742 13.1538H10.6885C10.8701 13.1538 11.0174 13.3011 11.0174 13.4828C11.0174 13.6644 10.8701 13.8117 10.6885 13.8117H4.76742C4.58575 13.8117 4.43848 13.6644 4.43848 13.4828Z" fill="white"/>
<path fill-rule="evenodd" clip-rule="evenodd" d="M4.92034 4.69937C4.97217 4.57842 5.0911 4.5 5.22269 4.5H14.332C14.4636 4.5 14.5825 4.57842 14.6344 4.69937L16.0007 7.88763C16.0443 7.98926 16.0339 8.10598 15.973 8.19829C15.9121 8.2906 15.809 8.34615 15.6984 8.34615H3.85629C3.74572 8.34615 3.64254 8.2906 3.58167 8.19829C3.5208 8.10598 3.51038 7.98926 3.55394 7.88763L4.92034 4.69937ZM5.4396 5.15789L4.35515 7.68826H15.1995L14.1151 5.15789H5.4396Z" fill="white"/>
<path fill-rule="evenodd" clip-rule="evenodd" d="M3.82895 7.68823C4.01062 7.68823 4.15789 7.83551 4.15789 8.01718V8.92811C4.15789 9.32406 4.31518 9.70379 4.59516 9.98376C4.87514 10.2637 5.25486 10.421 5.65081 10.421H5.90587C6.30182 10.421 6.68155 10.2637 6.96152 9.98376C7.2415 9.70379 7.39879 9.32406 7.39879 8.92811V8.01718C7.39879 7.83551 7.54606 7.68823 7.72773 7.68823C7.90941 7.68823 8.05668 7.83551 8.05668 8.01718V8.92811C8.05668 9.49854 7.83008 10.0456 7.42672 10.449C7.02337 10.8523 6.4763 11.0789 5.90587 11.0789H5.65081C5.08038 11.0789 4.53331 10.8523 4.12996 10.449C3.7266 10.0456 3.5 9.49854 3.5 8.92811V8.01718C3.5 7.83551 3.64727 7.68823 3.82895 7.68823Z" fill="white"/>
<path fill-rule="evenodd" clip-rule="evenodd" d="M7.72738 7.68823C7.90906 7.68823 8.05633 7.83551 8.05633 8.01718V8.92811C8.05633 9.32406 8.21362 9.70379 8.4936 9.98376C8.77357 10.2637 9.1533 10.421 9.54925 10.421H10.0047C10.4007 10.421 10.7804 10.2637 11.0604 9.98376C11.3403 9.70379 11.4976 9.32406 11.4976 8.92811V8.01718C11.4976 7.83551 11.6449 7.68823 11.8266 7.68823C12.0082 7.68823 12.1555 7.83551 12.1555 8.01718V8.92811C12.1555 9.49854 11.9289 10.0456 11.5256 10.449C11.1222 10.8523 10.5751 11.0789 10.0047 11.0789H9.54925C8.97882 11.0789 8.43175 10.8523 8.02839 10.449C7.62504 10.0456 7.39844 9.49854 7.39844 8.92811V8.01718C7.39844 7.83551 7.54571 7.68823 7.72738 7.68823Z" fill="white"/>
<path fill-rule="evenodd" clip-rule="evenodd" d="M11.827 7.68823C12.0087 7.68823 12.1559 7.83551 12.1559 8.01718V8.92811C12.1559 9.32406 12.3132 9.70379 12.5932 9.98376C12.8732 10.2637 13.2529 10.421 13.6489 10.421H13.8766C14.2725 10.421 14.6523 10.2637 14.9322 9.98376C15.2122 9.70379 15.3695 9.32406 15.3695 8.92811V8.01718C15.3695 7.83551 15.5168 7.68823 15.6985 7.68823C15.8801 7.68823 16.0274 7.83551 16.0274 8.01718V8.92811C16.0274 9.49854 15.8008 10.0456 15.3974 10.449C14.9941 10.8523 14.447 11.0789 13.8766 11.0789H13.6489C13.0784 11.0789 12.5314 10.8523 12.128 10.449C11.7246 10.0456 11.498 9.49854 11.498 8.92811V8.01718C11.498 7.83551 11.6453 7.68823 11.827 7.68823Z" fill="white"/>
</svg>
