<svg width="30" height="30" viewBox="0 0 30 30" fill="none" xmlns="http://www.w3.org/2000/svg">
    <ellipse cx="21.25" cy="8.75" rx="7.5" ry="7.5" fill="#FFCC00" />
    <path fill-rule="evenodd" clip-rule="evenodd"
        d="M7.15065 17.6812C7.42316 17.6812 7.64407 17.9021 7.64407 18.1746V24.3234C7.64407 24.3737 7.66406 24.422 7.69965 24.4576C7.73524 24.4931 7.78351 24.5131 7.83385 24.5131H21.4978C21.5481 24.5131 21.5964 24.4931 21.632 24.4576C21.6676 24.422 21.6876 24.3737 21.6876 24.3234V18.1746C21.6876 17.9021 21.9085 17.6812 22.181 17.6812C22.4535 17.6812 22.6744 17.9021 22.6744 18.1746V24.3234C22.6744 24.6354 22.5505 24.9347 22.3298 25.1554C22.1091 25.376 21.8099 25.5 21.4978 25.5H7.83385C7.52179 25.5 7.22251 25.376 7.00185 25.1554C6.78119 24.9347 6.65723 24.6354 6.65723 24.3234V18.1746C6.65723 17.9021 6.87814 17.6812 7.15065 17.6812Z"
        fill="white" />
    <path fill-rule="evenodd" clip-rule="evenodd"
        d="M16.0325 17.6812C16.305 17.6812 16.5259 17.9021 16.5259 18.1746V25.0066C16.5259 25.2791 16.305 25.5 16.0325 25.5C15.76 25.5 15.5391 25.2791 15.5391 25.0066V18.1746C15.5391 17.9021 15.76 17.6812 16.0325 17.6812Z"
        fill="white" />
    <path fill-rule="evenodd" clip-rule="evenodd"
        d="M6.65723 20.2244C6.65723 19.9519 6.87814 19.731 7.15065 19.731H16.0322C16.3047 19.731 16.5256 19.9519 16.5256 20.2244C16.5256 20.4969 16.3047 20.7178 16.0322 20.7178H7.15065C6.87814 20.7178 6.65723 20.4969 6.65723 20.2244Z"
        fill="white" />
    <path fill-rule="evenodd" clip-rule="evenodd"
        d="M7.38051 7.04905C7.45826 6.86763 7.63665 6.75 7.83403 6.75H21.498C21.6954 6.75 21.8738 6.86763 21.9515 7.04905L24.0011 11.8314C24.0665 11.9839 24.0508 12.159 23.9595 12.2974C23.8682 12.4359 23.7135 12.5192 23.5476 12.5192H5.78444C5.61858 12.5192 5.46381 12.4359 5.37251 12.2974C5.28121 12.159 5.26558 11.9839 5.33091 11.8314L7.38051 7.04905ZM8.15939 7.73684L6.53273 11.5324H22.7993L21.1726 7.73684H8.15939Z"
        fill="white" />
    <path fill-rule="evenodd" clip-rule="evenodd"
        d="M5.74342 11.5322C6.01593 11.5322 6.23684 11.7531 6.23684 12.0256V13.392C6.23684 13.986 6.47278 14.5556 6.89274 14.9755C7.3127 15.3955 7.8823 15.6314 8.47621 15.6314H8.85881C9.45272 15.6314 10.0223 15.3955 10.4423 14.9755C10.8622 14.5556 11.0982 13.986 11.0982 13.392V12.0256C11.0982 11.7531 11.3191 11.5322 11.5916 11.5322C11.8641 11.5322 12.085 11.7531 12.085 12.0256V13.392C12.085 14.2477 11.7451 15.0683 11.1401 15.6733C10.5351 16.2784 9.71445 16.6183 8.85881 16.6183H8.47621C7.62057 16.6183 6.79997 16.2784 6.19494 15.6733C5.5899 15.0683 5.25 14.2477 5.25 13.392V12.0256C5.25 11.7531 5.47091 11.5322 5.74342 11.5322Z"
        fill="white" />
    <path fill-rule="evenodd" clip-rule="evenodd"
        d="M11.5916 11.5322C11.8641 11.5322 12.085 11.7531 12.085 12.0256V13.392C12.085 13.986 12.3209 14.5556 12.7409 14.9755C13.1608 15.3955 13.7304 15.6314 14.3244 15.6314H15.0076C15.6015 15.6314 16.1711 15.3955 16.591 14.9755C17.011 14.5556 17.2469 13.986 17.2469 13.392V12.0256C17.2469 11.7531 17.4678 11.5322 17.7404 11.5322C18.0129 11.5322 18.2338 11.7531 18.2338 12.0256V13.392C18.2338 14.2477 17.8939 15.0683 17.2888 15.6733C16.6838 16.2784 15.8632 16.6183 15.0076 16.6183H14.3244C13.4687 16.6183 12.6481 16.2784 12.0431 15.6733C11.438 15.0683 11.0981 14.2477 11.0981 13.392V12.0256C11.0981 11.7531 11.3191 11.5322 11.5916 11.5322Z"
        fill="white" />
    <path fill-rule="evenodd" clip-rule="evenodd"
        d="M17.7405 11.5322C18.013 11.5322 18.2339 11.7531 18.2339 12.0256V13.392C18.2339 13.986 18.4698 14.5556 18.8898 14.9755C19.3098 15.3955 19.8794 15.6314 20.4733 15.6314H20.8149C21.4088 15.6314 21.9784 15.3955 22.3984 14.9755C22.8183 14.5556 23.0543 13.986 23.0543 13.392V12.0256C23.0543 11.7531 23.2752 11.5322 23.5477 11.5322C23.8202 11.5322 24.0411 11.7531 24.0411 12.0256V13.392C24.0411 14.2477 23.7012 15.0683 23.0962 15.6733C22.4911 16.2784 21.6705 16.6183 20.8149 16.6183H20.4733C19.6176 16.6183 18.797 16.2784 18.192 15.6733C17.587 15.0683 17.2471 14.2477 17.2471 13.392V12.0256C17.2471 11.7531 17.468 11.5322 17.7405 11.5322Z"
        fill="white" />
</svg>